<?xml version="1.0" encoding="UTF-8"?>
<svg id="Layer_1" data-name="Layer 1" xmlns="http://www.w3.org/2000/svg" xmlns:xlink="http://www.w3.org/1999/xlink" viewBox="0 0 602.7 844.02">
  <defs>
    <style>
      .cls-1 {
        clip-path: url(#clippath-7);
      }

      .cls-2 {
        fill: url(#linear-gradient-2);
      }

      .cls-3 {
        fill: #e0dedd;
      }

      .cls-4, .cls-5 {
        fill: #231f20;
      }

      .cls-6 {
        clip-path: url(#clippath-9);
      }

      .cls-7 {
        fill: #fff;
      }

      .cls-8 {
        fill: none;
      }

      .cls-9 {
        fill: url(#linear-gradient-4);
      }

      .cls-10 {
        fill: url(#radial-gradient);
      }

      .cls-11 {
        fill: url(#linear-gradient-3);
      }

      .cls-12 {
        clip-path: url(#clippath-1);
      }

      .cls-13 {
        fill: url(#linear-gradient-5);
      }

      .cls-14, .cls-5 {
        isolation: isolate;
      }

      .cls-15 {
        clip-path: url(#clippath-5);
      }

      .cls-16 {
        clip-path: url(#clippath-8);
      }

      .cls-17 {
        clip-path: url(#clippath-3);
      }

      .cls-5 {
        font-family: Doran-Bold, Doran;
        font-size: 11px;
        font-weight: 700;
      }

      .cls-18 {
        fill: url(#linear-gradient-7);
      }

      .cls-19 {
        fill: #141415;
      }

      .cls-20 {
        fill: url(#linear-gradient-6);
      }

      .cls-21 {
        clip-path: url(#clippath-2);
      }

      .cls-22 {
        fill: #100c0c;
      }

      .cls-23 {
        fill: url(#linear-gradient);
      }

      .cls-24 {
        clip-path: url(#clippath);
      }
    </style>
    <clipPath id="clippath">
      <path class="cls-8" d="M63.98,573.76c-13.62,5.95-25.31,6.95-31.53,6.95-.76,0-1.44-.01-2.04-.04v1.26l10.2,34.75c8.87-6.19,19.71-7.65,27.95-7.65,6.97,0,12.09,1.04,12.57,1.15l13.61,2.88-13.66,2.66c-5.38,1.05-9.18,3.51-11.25,5.21l.18.19c4.05-1.41,8.18-2.12,12.31-2.12,6.04,0,12.09,1.51,17.94,4.5,3.78,1.94,6.82,4.17,8.98,5.96h.95c.8-1.35,1.61-2.41,2.26-3.16-.98-3.45-1.81-4.92-1.93-5.11l-2.58-3.49,4.3-.86c2.35-.53,4.33-1.52,5.67-2.32-1.25-3.14-.74-6.31-.08-8.02l1.3-3.93c-8.49-.79-28.27-3.52-34.54-12.3-1.98-2.76-2.54-5.96-1.64-9.28.68-2.5.58-4.46-.29-5.82-1.27-1.97-4.23-2.79-6.48-3.14-1.02-.15-2.06-.23-3.1-.23-3.05,0-6.15.66-9.11,1.95h0Z"/>
    </clipPath>
    <linearGradient id="linear-gradient" x1=".36" y1="821.7" x2="1.36" y2="821.7" gradientTransform="translate(85811.2 686.97) rotate(-90) scale(104.34 -104.34)" gradientUnits="userSpaceOnUse">
      <stop offset="0" stop-color="#fff"/>
      <stop offset="1" stop-color="#fffef5"/>
    </linearGradient>
    <clipPath id="clippath-1">
      <rect class="cls-8" x="7.94" y="825.7" width="594.76" height="17.42"/>
    </clipPath>
    <linearGradient id="linear-gradient-2" x1=".48" y1="821.19" x2="1.47" y2="821.19" gradientTransform="translate(-273.74 489608.07) scale(595.2 -595.2)" gradientUnits="userSpaceOnUse">
      <stop offset="0" stop-color="#fef493"/>
      <stop offset=".09" stop-color="#f7e781"/>
      <stop offset=".32" stop-color="#e9cd66"/>
      <stop offset=".54" stop-color="#dfba4e"/>
      <stop offset=".76" stop-color="#d9af41"/>
      <stop offset=".97" stop-color="#d7ac3d"/>
      <stop offset="1" stop-color="#d7ac3d"/>
    </linearGradient>
    <clipPath id="clippath-2">
      <path class="cls-8" d="M46.04,68.02v58.06h68.03v-58.06c0-18.79-15.23-34.02-34.02-34.02s-34.02,15.23-34.02,34.02h.01Z"/>
    </clipPath>
    <linearGradient id="linear-gradient-3" x1=".65" y1="816.48" x2="1.65" y2="816.48" gradientTransform="translate(-80849.01 -26.58) rotate(90) scale(99.12 -99.12)" gradientUnits="userSpaceOnUse">
      <stop offset="0" stop-color="#d7ac3d"/>
      <stop offset=".03" stop-color="#d7ac3d"/>
      <stop offset=".24" stop-color="#d9af41"/>
      <stop offset=".46" stop-color="#dfba4e"/>
      <stop offset=".68" stop-color="#e9cd66"/>
      <stop offset=".91" stop-color="#f7e781"/>
      <stop offset="1" stop-color="#fef493"/>
    </linearGradient>
    <clipPath id="clippath-3">
      <polygon class="cls-8" points="77.69 48.13 74.38 49.02 71.53 49.02 73.82 56.27 77.03 54.85 79.38 54.82 80.34 55.08 78.49 56.34 78.85 56.67 81.17 56.41 83.58 56.9 86 58.42 86.56 57.17 86.2 56.04 87.28 55.61 87.65 54.39 87.65 52.76 85.01 52.3 82.06 51.14 81.76 49.62 81.54 48.33 79.87 47.64 77.69 48.13"/>
    </clipPath>
    <linearGradient id="linear-gradient-4" x1="-.21" y1="818.05" x2=".79" y2="818.05" gradientTransform="translate(14166.39 57.57) rotate(-90) scale(17.22 -17.22)" gradientUnits="userSpaceOnUse">
      <stop offset="0" stop-color="#fff"/>
      <stop offset="1" stop-color="#fef388"/>
    </linearGradient>
    <clipPath id="clippath-5">
      <rect class="cls-8" x="448" y="75.84" width="118.71" height="4"/>
    </clipPath>
    <linearGradient id="linear-gradient-5" x1=".47" y1="818.98" x2="1.47" y2="818.98" gradientTransform="translate(393.76 94760.07) scale(115.61 -115.61)" gradientUnits="userSpaceOnUse">
      <stop offset="0" stop-color="#fef493"/>
      <stop offset=".09" stop-color="#f7e781"/>
      <stop offset=".32" stop-color="#e9cd66"/>
      <stop offset=".54" stop-color="#dfba4e"/>
      <stop offset=".76" stop-color="#d9af41"/>
      <stop offset=".97" stop-color="#d7ac3d"/>
      <stop offset="1" stop-color="#d7ac3d"/>
    </linearGradient>
    <clipPath id="clippath-7">
      <rect class="cls-8" x="441.64" y="103.06" width="125.07" height="4"/>
    </clipPath>
    <linearGradient id="linear-gradient-6" x1=".47" y1="819" x2="1.47" y2="819" gradientTransform="translate(384.5 99842.74) scale(121.78 -121.78)" gradientUnits="userSpaceOnUse">
      <stop offset="0" stop-color="#fef493"/>
      <stop offset=".09" stop-color="#f7e781"/>
      <stop offset=".32" stop-color="#e9cd66"/>
      <stop offset=".54" stop-color="#dfba4e"/>
      <stop offset=".76" stop-color="#d9af41"/>
      <stop offset=".97" stop-color="#d7ac3d"/>
      <stop offset="1" stop-color="#d7ac3d"/>
    </linearGradient>
    <clipPath id="clippath-8">
      <polygon class="cls-8" points="169.55 184.63 104.57 184.72 39.84 184.96 84.35 185.13 515.03 185.13 559.47 184.96 494.48 184.72 429.49 184.63 299.52 184.46 169.55 184.63"/>
    </clipPath>
    <radialGradient id="radial-gradient" cx=".48" cy="819.08" fx=".48" fy="819.08" r="1" gradientTransform="translate(212.98 150738.96) scale(183.81 -183.81)" gradientUnits="userSpaceOnUse">
      <stop offset="0" stop-color="#dab64a"/>
      <stop offset="1" stop-color="#c0a150"/>
    </radialGradient>
    <clipPath id="clippath-9">
      <rect class="cls-8" x="373.81" y="711.84" width="130.2" height="4"/>
    </clipPath>
    <linearGradient id="linear-gradient-7" x1=".23" y1="819.1" x2="1.23" y2="819.1" gradientTransform="translate(345.3 104190.19) scale(126.33 -126.33)" gradientUnits="userSpaceOnUse">
      <stop offset="0" stop-color="#d7ac3d"/>
      <stop offset=".03" stop-color="#d7ac3d"/>
      <stop offset=".24" stop-color="#d9af41"/>
      <stop offset=".46" stop-color="#dfba4e"/>
      <stop offset=".68" stop-color="#e9cd66"/>
      <stop offset=".91" stop-color="#f7e781"/>
      <stop offset="1" stop-color="#fef493"/>
    </linearGradient>
  </defs>
  <g class="cls-14">
    <g id="Layer_1-2" data-name="Layer 1">
      <g>
        <g class="cls-24">
          <rect class="cls-23" x="27.77" y="547.87" width="93.99" height="105.63" transform="translate(-484.29 368.6) rotate(-60.36)"/>
        </g>
        <g>
          <path class="cls-3" d="M184.44,757.04c-1.24,0-2.53.19-3.88.57l-.27.07-.23.11c-.3.16-2.9,1.69-4.28,5.01-.59.95-4.7,2.82-8.65,3.96h-.06c-.11.04-.23.08-.39.13.32.65.6,1.34.9,2.04.3.7.56,1.42.84,2.15,1.71,4.63,3,9.72,3.87,13.69.08.35.16.69.22,1.01.35,1.61.61,2.98.8,4.02,3.57-2.8,8.17-7.1,12.22-12.95,3.19,2.42,9.53,8.05,9.37,14.42l-.03,1.5,1.36.62s1.45.69,2.81,2.08l-3.78,1.2-.15.08c-.23.1-5.43,2.74-1.34,11.51,3.3,7.04,6.78,11.09,6.91,11.25l1.61,1.84,1.69-1.75c.35-.37,8.64-9.11,8.54-19.57l1.37-6.14v-6.95l-.12-.37c-.17-.47-1.8-4.66-7.7-7.08-3.14-1.3-7.78-8.48-10.04-12.86-.37-1.19-1.94-5.71-6.02-8.09-1.69-1-3.56-1.5-5.59-1.5"/>
          <path class="cls-3" d="M10.17,818.77c-.91,0-1.84.05-2.8.16v17.64h3.44c.48-.84.8-1.33.8-1.33,0,0,3.16-4.71,7.39-6.55.26-1.7.6-3.47,1.07-5.35h0c.18-.72.39-1.42.6-2.14.03-.09.06-.2.09-.3-2.71-1.09-6.39-2.13-10.58-2.13"/>
          <path class="cls-3" d="M17.18,553.67l-2.14,13,4.74,5.61,34.34,116.87c-1.08.63-1.95,1.38-2.36,2.28-.92,2.02-.85,4.89-.59,7.1.23,1.91-.6,3.8-2.14,4.96-.16.11-.33.25-.49.38l-.03.02h0c-1.69,1.37-3.79,3.51-5.69,6.79-.24.4-.54.84-.91,1.3l-1.4,1.58c-7.31,7.57-26.13,19.32-26.13,19.32l7.87,1.69c-5.11,4.24-10.07,7.7-14.85,10.49v54.5c1.94-.86,3.96-1.89,6.07-3.08,0,0,5.39-2.55,11.99-7.14l.04-.02,4.89-.63,1-.05c-2.74,2.65-5.84,5.16-9.33,7.25,0,0,17.59-3.42,30.42-15.81l.22-.15.25-.3c1.9-1.88,3.68-3.95,5.27-6.24l.93,5.59v.1l-1.4,7.89-2.03,4.26c-.81.33-1.6.67-2.43.98-18,6.66-25.22,19.43-28.1,28.96-.22.7-.41,1.39-.58,2.07h0c-.47,1.87-.82,3.63-1.05,5.31-.46,3.19-.56,5.97-.53,8.03h67.24c2.25-.32,5.27-.84,8.83-1.68-.12.4-.23.62-.25.66l-.25.46.16.56,2.14,7.44,1.24-.36c8.65-2.47,25.71-5.01,25.88-5.03l1.48-.22-.42-1.46c-.04-.13-.08-.26-.13-.38-1.5-3.8-8.85-5.68-14.17-6.56,7.24-2.85,15.08-6.84,22.6-12.45,1.93-1.43,6.52-4.22,9.19-4.22.15,0,.3,0,.43.03.57.08,1.2.11,1.86.11,4.47,0,10.51-1.56,11.67-1.87,2.23-.37,4.59-.56,6.41-.56,1.44,0,2.54.12,3,.36,2.81,3.61,1.92,9.05-2.69,16.21-1.13,1.23-3.33,3.98-2.57,6.4l.02.07-5.34-2.64-1.1.82c-.15.11-1.88,1.44-3.65,4.3h27.79v-8.44c.11-4.94,1.36-13.8,4.18-16.59,4.45-4.39,2.51-9.79.1-12.41-.52-.62-3.71-4.21-7.71-5.3l-.28-.08h-5.44c-.68-.16-1.94-.56-3.09-1.16-.18-1.3-.38-2.55-.59-3.77-.07-.4-.14-.8-.22-1.21-1.25-6.67-2.93-11.94-4.21-15.34-.27-.73-.53-1.38-.75-1.93-.64-1.58-1.06-2.41-1.06-2.41-.91-2.16-2.93-6.27-6.63-10.13v-7.28h-5.99l-9.19-25.4-.05-.09c-.49-1.19-1.24-3.25-1.95-5.62,1.33,1,2.93,1.82,4.82,2.32,7.23,1.94,7.76,10.45,7.78,10.81l.02.31.09.3c.14.44,1.49,4.33,4.83,5.89.89.42,1.83.63,2.81.63s1.96-.2,2.95-.61c5.24-2.13,7.27-4.34,7.82-5.06.83-.92,3.6-4.63.94-11.26-2.24-5.54-4.56-14.33-5.01-18.54,1.6-1.21,3.36-3.28,3.36-6.01v-.8l-1.82-2.26c.14-.25.25-.47.33-.66.75-1.57,1.65-4.14,2.69-7.64l.16-.23-.08-.05.99-3.31-3.38.67c-.3-.06-3.21-2.03-5.66-3.72-2.45-1.68-3.55-4.76-2.7-7.59l.03-.11,2.07-6.84-5.59,4.4c-.18.14-4,3.16-6.78,6.53-3.38-2.06-11.07-5.98-20.42-5.98-1.92,0-3.91.17-5.95.55l-2.42.46,2.24,7.81c-2.04-.62-4.62-1.17-7.35-1.17-2.16,0-4.41.34-6.57,1.26l-3.22,1.39,5.14,4.73c-3.65.56-8.55,1.93-13.08,5.27l-1.7,1.25c-2.69-2.04-5.68-3.96-5.68-3.96.3-1.21.51-2.83.67-4.54v-.1c.42-4.42.46-9.41.46-9.41,1.91-1.92,2.7-4.72,1.96-7.32-.26-.94-.62-1.77-1-2.5h0l-.02-.02c-1.08-2.07-2.37-3.25-2.37-3.25,0,0-.64-.83-1.86-1.97l-.02-.03h-.03c-1.09-1.03-2.61-2.26-4.57-3.39-.78-.45-1.71-.73-2.7-.89h-.01c-.33-.06-.67-.1-1.01-.13-.43-.04-.85-.05-1.28-.05-4.34,0-8.54,1.78-11.74,4.79-.16.14-.34.32-.49.47h-.02l-.03.05c-.99.94-2.07,2-3.31,3.27-.74.76-1.28,1.83-1.66,3.08h0v.02c-2.16,7.1.72,20.28.72,20.28l-1.87-.33-18.74-63.76c7.89-6.27,18.39-7.71,26.3-7.71h.19c-3.21,2.1-4.93,4.08-5.06,4.23l-1.65,1.94,6.43,6.86,1.76-.71c4.01-1.61,8.04-2.42,12.07-2.42,5.08,0,10.16,1.28,15.19,3.83,6.9,3.49,11.14,8.2,11.18,8.24l3.22,3.63,1.52-4.62c1.38-4.17,3.9-6.44,3.91-6.45l1.32-1.14-.42-1.72c-.54-2.13-1.08-3.78-1.55-5.04,3.99-1.54,6.56-3.73,6.7-3.85l2.03-1.77-1.66-2.13c-1.78-2.26-.79-4.98-.75-5.07l3.68-11.15-3.67-.2c-7.7-.41-28.81-3.05-33.95-10.23-.98-1.38-1.22-2.79-.77-4.47,1.12-4.13.79-7.63-1-10.39-1.93-3-5.41-4.9-10.33-5.64-1.31-.2-2.63-.3-3.96-.3-3.81,0-7.66.81-11.31,2.41-12.81,5.6-23.91,6.46-29.52,6.46-2.43,0-3.83-.16-3.89-.17h-.03l-1.76-6-.2.06.52-4.27-1.72-1.75-7.99-9.24h.1-.01ZM32.44,580.7c6.22,0,17.92-.99,31.53-6.95,2.95-1.29,6.06-1.95,9.11-1.95,1.04,0,2.08.08,3.1.23,2.25.35,5.2,1.17,6.48,3.14.87,1.36.97,3.31.29,5.82-.9,3.31-.34,6.51,1.64,9.28,6.27,8.78,26.04,11.51,34.54,12.3l-1.3,3.93c-.66,1.71-1.17,4.88.08,8.02-1.34.81-3.32,1.8-5.67,2.32l-4.3.86,2.58,3.49c.12.19.95,1.66,1.93,5.11-.73.85-1.68,2.08-2.57,3.7-2.18-1.88-5.45-4.37-9.62-6.5-5.85-2.99-11.89-4.5-17.94-4.5-4.13,0-8.26.7-12.31,2.11l-.18-.19c2.07-1.7,5.87-4.16,11.25-5.21l13.66-2.66-13.61-2.88c-.48-.1-5.6-1.14-12.57-1.14-8.24,0-19.08,1.46-27.95,7.65l-10.58-36.03c.67.03,1.48.05,2.41.05"/>
        </g>
        <g class="cls-12">
          <rect class="cls-2" x="7.94" y="825.7" width="594.76" height="17.42"/>
        </g>
        <g class="cls-21">
          <rect class="cls-11" x="23.45" y="23.45" width="113.21" height="113.21" transform="translate(-33.16 80.05) rotate(-45)"/>
        </g>
        <path class="cls-7" d="M104.13,112.64c0,4.7-3.77,8.51-8.42,8.51s-8.42-3.81-8.42-8.51,3.77-8.51,8.42-8.51,8.42,3.81,8.42,8.51"/>
        <g class="cls-17">
          <rect class="cls-9" x="70.92" y="43.36" width="17.35" height="19.35" transform="translate(-5.87 95.99) rotate(-60.36)"/>
        </g>
        <g>
          <path class="cls-19" d="M101.85,85.74c-.03-.08-.3-.77-1.27-1.17-.52-.21-1.29-1.4-1.66-2.12-.06-.2-.32-.94-.99-1.34-.45-.27-.97-.32-1.56-.15h-.04l-.04.03c-.05.03-.48.28-.71.83-.1.16-.78.47-1.43.65h-.01l-.06.02c.05.11.1.22.15.34.05.12.09.23.14.36.28.76.5,1.6.64,2.26l.04.17c.06.26.1.49.13.66.59-.46,1.35-1.17,2.02-2.14.53.4,1.57,1.33,1.55,2.38v.25l.22.1s.24.11.47.34l-.62.2h-.02s-.9.47-.22,1.91c.54,1.16,1.12,1.83,1.14,1.86l.26.3.28-.29c.06-.06,1.43-1.5,1.41-3.23l.23-1.01v-1.15l-.02-.06h-.03Z"/>
          <path class="cls-19" d="M56.15,100.54s3.06,4.26,8.28.59c0,0-.79,1.89-3.02,2.54,0,0,3.82.62,5.58-3.61,0,0,.77-2.59.63-3.67s.85-2.62.85-2.62c0,0,.52-.78,1.22-1.08.04-.28.1-.57.18-.88h0c.03-.12.06-.23.1-.35v-.05c-1.16-.48-3.45-.89-5.46,1.72,0,0-.76,1-.94,3-.19,2-3.96,1.77-3.96,1.77,0,0-1.56-.12-2.38-2.07,0,0,0,2.86,1.58,3.84,0,0,.95.72,2.06.44,0,0-2.01,2.14-4.71.43"/>
          <path class="cls-19" d="M75.03,109.58s-.02-.11-.07-.26c.13.13.3.34.42.56l.06.11h-.36l-.06-.41s.01,0,.01,0ZM72.03,102.74s.06-.45.38-.89c.03.14.07.28.14.43l.02.04.02.03s1.2,1.56,1.49,2.85c.23,1.01.13,1.39.11,1.45l-.22.29.87.57c-.42.27-.6.64-.62.68l-.02.03v.03l-.02.05c-.27-.21-.61-.42-1.07-.59v-.4c-.01-.09-.1-.57-.79-1.31-.37-.39-.39-2.14-.29-3.26M71.52,51.75c.86.04,3.02,0,5.6-1.14.65-.29,1.35-.38,2.01-.28.37.05.86.19,1.07.52.15.22.16.55.05.96-.15.54-.06,1.08.27,1.53,1.03,1.45,4.3,1.9,5.7,2.03l-.21.65c-.11.28-.19.81.01,1.32-.22.13-.55.3-.94.38l-.71.14.43.58s.16.27.32.84c-.12.14-.28.34-.43.61-.36-.31-.9-.72-1.59-1.07-.96-.49-1.96-.74-2.96-.74-.68,0-1.36.12-2.03.35l-.03-.03c.34-.28.97-.69,1.86-.86l2.25-.44-2.25-.48c-.17-.04-3.99-.81-6.69,1.07l-1.75-5.95h.02,0ZM99.15,115.13c-8.79-3.78-16.78-4.86-22.29-5.12l.06-.07c.31-.35.75-1.27.24-2.25l.11-1.53-.06-.1c-.04-.07-.4-.7-.86-1.02-.16-.16-.46-1.15-.65-2.14,0-.14.01-1.04.94-1.39,1.36-.51,3.03-2.67,3.11-2.76.03-.04.7-.93.71-2.58.15-.3.6-1.26.63-2.14.37-.04,1.01-.13,1.82-.32l-.04.11-.04.08.38,1.32.21-.06c1.43-.41,4.24-.83,4.27-.83l.24-.04-.07-.24c-.19-.67-1.45-1-2.36-1.15h0c1.19-.47,2.49-1.13,3.73-2.06.34-.25,1.16-.75,1.59-.69.74.1,2.01-.23,2.23-.29.66-.11,1.38-.12,1.55-.03.47.6.32,1.49-.44,2.67-.19.2-.55.66-.42,1.06h0l-.88-.42-.18.13c-.05.04-1.3,1-1.24,3.38v.41l.41-.05c.09-.01,2.29-.28,3.17-1.35.54-.66.84-.81.9-.84h.75v-2.23c.02-.82.22-2.28.69-2.74.73-.72.41-1.62.02-2.05-.09-.1-.61-.69-1.27-.88h-.95c-.11-.04-.32-.1-.51-.2-.03-.22-.06-.42-.1-.62l-.04-.2c-.21-1.1-.49-1.97-.69-2.53-.05-.12-.09-.23-.12-.32-.11-.26-.18-.4-.18-.4-.15-.36-.48-1.04-1.09-1.67v-1.2h-.99l-1.52-4.19h0c-.08-.21-.2-.55-.32-.94.22.17.49.3.8.38,1.19.32,1.28,1.73,1.29,1.79v.05l.02.05c.02.07.25.72.8.97.29.14.62.14.95,0,.87-.35,1.2-.72,1.29-.84.14-.15.59-.76.15-1.86-.37-.91-.75-2.37-.83-3.06.26-.2.55-.54.55-.99v-.13l-.3-.37.06-.11c.12-.26.27-.68.44-1.26l.03-.04h-.01l.16-.56-.56.11c-.05-.01-.53-.34-.93-.61-.4-.28-.58-.79-.44-1.25v-.02l.35-1.13-.92.73s-.66.52-1.12,1.08c-.67-.41-2.38-1.27-4.35-.9l-.4.08.37,1.29c-.6-.18-1.49-.33-2.29.02l-.53.23.85.78c-.6.09-1.41.32-2.16.87l-.28.21c-.44-.34-.94-.65-.94-.65.05-.2.08-.47.11-.75h0v-.02c.07-.73.08-1.55.08-1.55.31-.32.45-.78.32-1.21-.04-.16-.1-.29-.17-.41h0c-.18-.34-.39-.54-.39-.54,0,0-.11-.14-.31-.32h0c-.18-.17-.43-.37-.75-.56-.13-.07-.28-.12-.45-.15l-.17-.02c-.79-.07-1.57.23-2.15.78l-.08.08h0c-.16.16-.34.33-.55.54-.12.12-.21.3-.28.51h0c-.36,1.17.12,3.35.12,3.35l-.31-.05-3.09-10.52c1.3-1.04,3.04-1.27,4.34-1.27h.03c-.53.35-.81.67-.83.7l-.27.32,1.06,1.13.29-.12c1.5-.6,3.01-.52,4.5.23,1.14.58,1.84,1.35,1.85,1.36l.53.6.25-.76c.23-.69.64-1.06.65-1.06l.22-.19-.07-.28c-.09-.35-.18-.62-.25-.83.66-.25,1.08-.62,1.1-.64l.34-.29-.27-.35c-.29-.38-.13-.82-.12-.84l.61-1.84-.61-.03c-1.27-.07-4.75-.5-5.6-1.69-.16-.23-.2-.46-.13-.74.18-.68.13-1.26-.17-1.72-.32-.49-.89-.81-1.71-.93-.84-.13-1.71,0-2.52.35-3.03,1.33-5.48,1.04-5.51,1.04h0l-.29-.99h-.03l.09-.7-.28-.29-1.32-1.52-.35,2.14.78.92,5.67,19.29c-.18.1-.32.23-.39.38-.15.33-.14.81-.1,1.17.04.32-.1.63-.35.82l-.08.06h0c-.28.22-.63.58-.94,1.12l-.15.21-.23.26c-1.21,1.25-4.31,3.19-4.31,3.19l1.3.28c-2.3,1.91-4.43,2.86-6.28,3.23-4.68.84-7.65-1.71-7.65-1.71,0,0,.13.74.64,1.67h0c.3.53.72,1.13,1.32,1.69h0c.47.45,1.05.86,1.76,1.19h.03c.57.28,1.22.49,1.97.64h.02l-1.15.21-1.54.12c-.15-.04-.3-.08-.44-.14,0,0,.57.66,3.33,1.01l-.94.44c-.16.07-.32.13-.46.17l.88,1.17.41.55.38.5s.11.1.33.22h0c.3.17.8.38,1.51.44l.08.02h.1c.46.02,1-.02,1.62-.16h0c.75-.17,1.61-.49,2.59-1.05,0,0,.89-.42,1.98-1.18h0l.81-.11h.16c-.45.43-.96.84-1.54,1.19,0,0,2.9-.57,5.02-2.61l.03-.02.04-.05c.31-.31.61-.65.87-1.03l.15.92v.02l-.23,1.3-.34.7c-.13.05-.26.11-.4.16-2.97,1.1-4.16,3.21-4.64,4.78-.04.11-.07.23-.1.34h0c-.08.31-.14.6-.17.88-.15,1.07-.06,1.85-.05,1.95,0,.14.19,1.85.64,2.98.34.85-.49,1.91-.58,2.02l-1.23,1.24c-.1.1-.63.71.04,1.73.49.75.82,2.01.84,2.12.03.12.37,1.87.14,3.15l-.05.3,1.13.46v1.37c-8.63-.02-17.17-.04-25.85-.06v17.96h67.19c-.01-1.63.01-3.26,0-4.88-3.36-2.56-7.88-5.45-13.51-7.87"/>
          <path d="M126.18,115.36v.08c.27.13.71.5.89.73l.77-.86c-.17-.28-.6-.67-.96-.83l-.71.88h.01Z"/>
          <path d="M130.27,113.99c-.13.39-.34.89-.53,1.12.83,1.17,1.16,1.87,1.16,2.39,0,1.4-1.59,2.65-3.95,2.65-1.96,0-3.09-.93-3.09-2.54,0-.66.15-1.51.43-2.18h-.13c-.41.98-.62,1.95-.62,2.89,0,2.03,1.16,3.2,3.24,3.2,2.6,0,4.29-1.6,4.29-4.33,0-1.63-.59-2.73-.74-3.2h-.08s.02,0,.02,0Z"/>
          <path d="M194.58,116.91c-1.39,0-2.28-.7-2.28-1.56,0-.93,1.19-1.67,2.32-1.67.96,0,1.5.34,1.5.86h.08c.28-1.06-.27-1.87-1.47-1.87-1.39,0-2.65,1.36-2.65,3.12,0,.69.27,1.27.76,1.59-.46.05-.94.08-1.34.08h-51.3c-1.31,0-1.93-.5-1.93-2.06,0-1.41.08-3.12.08-4.76,0-1.17-.08-1.84-.08-2.49h-.08c-.2.35-.57.84-.88,1.16.15,1.14.29,2.95.29,5.86,0,.59-.34,1.15-1.06,1.65.04-4.29-3.21-6.56-3.92-7.39h-.08c.03.45-.04,1.17-.14,1.54,2.43,1.78,3.9,3.88,4.06,5.9-.83.55-2.13,1.01-3.99,1.33v.08c.62.24,1.29.55,1.93.55,1.56,0,2.93-1.09,3.26-3.2h.06c-.03,2.65.66,3.2,2.24,3.2h51.3c2.08,0,3.28-.58,5.53-1.07.2-.42.61-1.08.8-1.28l-.02-.07c-.83.32-2.02.5-2.99.5"/>
          <path d="M198.98,121.1c0-.34.42-.82,1.08-.82.39,0,.62.16.63.55h.08c0-.08.04-.19.04-.33,0-.44-.29-.77-.73-.77-.69,0-1.27.82-1.27,1.64,0,.47.32.79.92.88-.47.25-.83.61-1,1.07h.08c.39-.43,1.2-.89,2.36-1.13.04-.2.14-.45.25-.61v-.08c-.25.11-.94.22-1.42.22-.65,0-1.04-.31-1.04-.62"/>
          <path d="M203.89,116.64c0,.49-.85.89-2.44.89-.66,0-1.11-.12-1.71-.35,1.46-.62,2.54-1.38,3.28-2.34.6.78.86,1.41.86,1.81M204.2,108.14h-.08c-.17.35-.54.84-.8,1.08.11.78.15,1.82.15,2.29,0,.87-.14,1.65-.44,2.37-.87-1.21-2.34-2.64-4.53-4.45h-.08c.03.45-.04,1.14-.14,1.47,2.13,1.31,3.56,2.55,4.44,3.59-.75,1.25-2.1,2.27-4.2,3.1v.08c1.08.55,1.58,1.25,2.99,1.25,1.56,0,2.53-.82,2.53-2.49,0-.62-.22-1.29-.7-2.06.64-1.05.93-2.33.93-3.94,0-1.02-.08-1.68-.08-2.26"/>
          <path d="M206.9,108.14c-.2.36-.59.89-.89,1.19.17.98.62,7.73.54,9.72h.08c.31-1.52.54-1.99.54-4.52,0-2.33-.2-5.77-.2-6.39h-.08.01Z"/>
          <path d="M214.36,117.53c-1.31,0-1.73-.55-1.73-1.09,0-.78.8-1.48,1.7-1.48,1.05,0,1.82.73,2.1,2.01-.65.37-1.32.56-2.07.56M214.51,113.94c-1.19,0-2.08,1.33-2.08,2.96,0,1.21.59,1.92,1.85,1.92,1.13,0,1.97-.59,2.19-1.53h0c.04.27.06.57.06.87,0,1.59-2.84,3.23-5.32,3.38v.08c.55.16,1.25.59,1.94.59,1.85,0,3.57-1.76,3.57-4.46,0-2.49-.87-3.82-2.23-3.82"/>
          <path d="M223.63,109.25h-.08c-.04.28-.18.57-.18.77,0,.36.36.47,1.06.47.39,0,1.34-.03,2.27-.1.04-.2.23-.71.34-.9-.69.06-2.14.09-2.46.09-.71,0-.95-.09-.95-.33"/>
          <path d="M223.27,116.8c-.96,0-1.29-.24-1.29-.67,0-.46.67-1.11,3.22-2.5.07.62.13,1.35.13,2.03,0,.62-.78,1.14-2.06,1.14M235.26,113.45c-.13.37-.4.98-.59,1.2.57.55,1.26,1.53,1.26,2.02,0,.44-.91.79-2.61.79h-5.4c-1.2,0-1.85-.62-1.85-2.06,0-2.19-.12-3.15-.22-3.95h-.04c-.22.36-.57.75-.8.94.04.19.09.44.13.74-2.78,1.72-3.55,2.6-3.55,3.75,0,.78.5,1.25,1.53,1.25,1.36,0,2.05-.67,2.25-1.95h.08c.08,1.87.85,2.65,2.24,2.65h5.4c2.08,0,3.01-.78,3.01-2.39s-.64-2.62-.77-2.99h-.07,0Z"/>
          <path d="M234.69,120.3c-.39,0-1.34.03-2.27.1-.04.2-.23.71-.34.9.69-.06,2.15-.09,2.46-.09.71,0,.96.09.96.33h.08c.04-.28.18-.57.18-.77,0-.36-.36-.47-1.06-.47"/>
          <path d="M289.67,116.91c-1.39,0-2.28-.7-2.28-1.56,0-.93,1.19-1.67,2.32-1.67.96,0,1.5.34,1.5.86h.08c.28-1.06-.27-1.87-1.47-1.87-1.39,0-2.65,1.36-2.65,3.12,0,.69.27,1.27.76,1.59-.46.05-.94.08-1.34.08h-45.9c-1.42,0-1.93-.5-1.93-1.87,0-1.59.08-3.3.08-4.94,0-1.17-.08-1.87-.08-2.49h-.08c-.2.36-.59.89-.88,1.19.24,1.34.31,1.96.39,6.92.03,1.95.65,2.57,2.27,2.57h45.9c2.08,0,3.29-.58,5.53-1.07.2-.42.61-1.08.8-1.28l-.02-.07c-.83.32-2.02.5-2.99.5"/>
          <path d="M312.66,108.14c-.22.36-.59.88-.89,1.19.17.87.74,5.93.74,7.39,0,.42-.54.73-1.85.73h0c-1.43,0-1.93-.5-1.93-1.87,0-1.59.08-3.3.08-4.94,0-1.17-.08-1.87-.08-2.5h-.08c-.22.35-.59.94-.9,1.25.24,1.35.31,1.97.39,6.52,0,1.11-.65,1.54-1.85,1.54h-5.4c-1,0-1.65-.61-2.02-2.08-.68-2.63-.87-3.25-.99-3.8h-.08c-.05.19-.48,1.01-.65,1.25.54,1.09,1,2.91,1,3.38,0,.62-.77,1.32-2.39,1.32-1.29,0-1.66-.42-1.59-1.47h-.11c-.07.42-.12.85-.12,1.21,0,1.01.51,1.63,1.74,1.63,1.65,0,2.55-.93,2.63-2.77h.08c.34,1.92,1.15,2.69,2.27,2.69h5.43c1.36,0,2.1-.59,2.12-2.26h.08c-.06,1.64.76,2.26,2.14,2.26h.03c.82,0,1.32-.11,1.59-.47.6-.73.9-2.07.9-3.09,0-2.44-.2-6.42-.2-7.12h-.09Z"/>
          <path d="M133.03,86.69c-.38,0-.92.01-1.64.04s-1.44.07-2.16.12c-.06.21-.15.5-.29.87-.14.38-.25.64-.34.8.53-.05,1.25-.09,2.17-.11.92-.03,1.57-.04,1.95-.04.57,0,.97.04,1.2.12.24.08.35.23.35.43h.12c.03-.18.09-.42.18-.71.1-.34.15-.57.15-.71,0-.3-.14-.52-.42-.64s-.71-.18-1.3-.18"/>
          <path d="M141.74,83.47l1.36-1.51c-.14-.26-.38-.53-.72-.82-.33-.29-.65-.51-.96-.65l-1.26,1.56v.12c.23.1.5.29.82.56s.57.51.76.73"/>
          <path d="M189,72.88c0-.34.11-.67.33-.99.22-.31.52-.57.89-.76s.77-.29,1.2-.29.87.11,1.29.34c.42.23.76.53,1.02.91.26.38.39.79.39,1.22,0,.66-.76,1.31-2.27,1.94-.9-.3-1.6-.65-2.1-1.07-.5-.41-.75-.85-.75-1.31M196.66,73.28c.54.37.91.72,1.14,1.04.22.32.33.66.33,1.03,0,.22-.05.47-.15.74-.1.28-.24.53-.41.77-1.1-.41-2.55-.82-4.35-1.24.79-.88,1.19-1.88,1.19-3.02,0-.25-.02-.49-.06-.71,1.01.56,1.78,1.02,2.32,1.4M128.6,84c.78.41,1.73.62,2.85.62,1.51,0,2.8-.22,3.86-.65s1.86-1.05,2.4-1.86c.54-.8.81-1.75.81-2.85,0-.31-.08-.58-.23-.81.45.02,1.03.03,1.73.03h0c1.1,0,1.99-.13,2.68-.38.69-.26,1.21-.66,1.56-1.22.35-.56.56-1.3.62-2.22h.12c-.03.37-.04.63-.04.78,0,1.11.25,1.9.75,2.36s1.21.69,2.12.69h39.08c.93,0,1.78-.1,2.56-.31.77-.21,1.43-.53,1.98-.96,2.74.74,4.53,1.29,5.36,1.64.56-.62,1-1.31,1.31-2.07s.47-1.55.47-2.38c0-.63-.14-1.19-.41-1.68-.28-.49-.75-.97-1.41-1.46-.67-.49-1.62-1.06-2.86-1.71-1.15-.61-2.03-1.1-2.66-1.46-.62-.36-1.1-.68-1.44-.96h-.12c0,.32-.07.69-.15,1.1-.09.41-.19.76-.32,1.06.19.08.51.23.94.46l.28.15c-.54.41-.99.98-1.34,1.69-.35.71-.53,1.46-.53,2.23,0,.43.07.81.21,1.12.14.31.35.58.63.8-.5.08-1.18.12-2.04.12h-39.09c-.71,0-1.27-.09-1.67-.27-.4-.17-.69-.45-.86-.81s-.26-.84-.26-1.44v-1.07h-.19c-.14,1-.36,1.74-.64,2.23-.28.49-.74.84-1.37,1.04-.63.2-1.58.31-2.83.31-2.35,0-4.06-.02-5.13-.05-1.06-.04-1.94-.11-2.64-.24-.25.65-.67,1.37-1.25,2.17v.12c.35.1.73.19,1.15.26s1.03.15,1.84.26c.85.1,1.52.2,2.01.28.49.09.91.2,1.24.35.34.15.51.34.51.56,0,.3-.24.65-.72,1.03s-1.21.71-2.18.98c-.98.27-2.17.41-3.57.41-1.04,0-1.94-.16-2.67-.48-.74-.32-1.3-.78-1.68-1.38s-.58-1.32-.58-2.16c0-.51.05-1.07.16-1.67.1-.61.25-1.16.43-1.65h-.21c-.32.74-.56,1.51-.73,2.31-.16.8-.25,1.6-.25,2.4,0,1.1.2,2.05.61,2.83s1,1.38,1.78,1.79"/>
          <path d="M205.53,64.66l1.36-1.5c-.14-.26-.38-.53-.72-.82-.33-.29-.65-.51-.96-.66l-1.26,1.56v.12c.24.11.52.3.85.57.32.27.57.51.73.72"/>
          <path d="M212.83,77.67c.34-.44.63-.99.88-1.64.24-.65.43-1.33.55-2.03.12-.7.18-1.36.18-1.96,0-1.1-.02-2.3-.06-3.61s-.1-2.84-.16-4.62c0-.41-.03-.92-.05-1.51s-.03-.98-.03-1.15h-.12c-.23.37-.5.77-.82,1.19s-.61.77-.88,1.05c.1.53.26,1.6.48,3.21.21,1.61.4,3.21.57,4.81.17,1.6.25,2.73.25,3.41,0,.31-.24.56-.73.75-.49.19-1.22.28-2.19.28-.82,0-1.49-.25-2.01-.76-.52-.51-.92-1.33-1.2-2.47l-.86-3.28c-.4-1.52-.65-2.5-.74-2.94h-.12c-.05.17-.23.55-.54,1.14s-.55,1-.71,1.22c.28.55.54,1.19.79,1.92.25.73.44,1.41.59,2.05s.23,1.07.23,1.29c0,.32-.15.64-.45.94s-.74.54-1.32.73c-.58.18-1.26.28-2.04.28-.7,0-1.23-.07-1.61-.22s-.64-.38-.79-.69c-.15-.32-.21-.76-.18-1.31h-.18c-.14.9-.21,1.61-.21,2.13,0,.88.23,1.56.69,2.02s1.17.7,2.12.7c2.68,0,4.1-1.55,4.26-4.64h.12c.49,3.01,1.73,4.51,3.73,4.51h.06c.66,0,1.19-.06,1.58-.18s.7-.33.93-.64"/>
          <path d="M218,78.07v.79h.12c.07-.29.18-.73.33-1.31.18-.67.31-1.23.4-1.7.09-.47.16-1.07.22-1.81.05-.74.08-1.7.08-2.88,0-1.79-.07-4.35-.21-7.66-.06-1.2-.08-1.98-.08-2.34h-.12c-.23.37-.5.77-.81,1.2-.32.43-.61.78-.88,1.04.1.5.22,1.71.38,3.62.16,1.91.3,3.93.42,6.05s.18,3.79.18,5"/>
          <path d="M225.8,83.51c.78.41,1.73.62,2.85.62,1.35,0,2.53-.26,3.55-.79,1.02-.52,1.83-1.29,2.42-2.29s.92-2.2.99-3.6c.51.69,1.21,1.03,2.12,1.03.74,0,1.37-.22,1.88-.66.51-.44.84-1.08,1-1.94h.13c-.05.83.13,1.48.53,1.92.4.45.98.67,1.74.67.89,0,1.58-.34,2.06-1.02s.72-1.64.72-2.88c0-.88-.09-1.66-.28-2.33s-.43-1.35-.71-2.05c-.03-.07-.08-.19-.15-.37h-.1c-.12.4-.28.8-.47,1.2-.19.4-.38.73-.55.99.68.59,1.17,1.14,1.5,1.63.32.49.48.89.48,1.19,0,.16-.1.33-.31.48-.21.15-.49.28-.84.38-.35.1-.73.14-1.13.14-.5,0-.94-.07-1.33-.22s-.69-.36-.89-.63c.06-.4.12-.79.17-1.17s.09-.68.11-.89h-.19c-.11.73-.28,1.31-.51,1.73-.23.42-.54.73-.94.91-.4.19-.91.28-1.54.28-.49,0-.93-.12-1.32-.37-.38-.25-.75-.68-1.11-1.3-.35-.62-.69-1.48-1.01-2.57h-.13c-.12.38-.26.77-.45,1.18-.18.41-.34.71-.47.89.57,1.03,1,1.85,1.27,2.47.28.62.42,1.06.42,1.33,0,.68-.27,1.33-.81,1.95-.54.62-1.3,1.12-2.27,1.49-.97.38-2.07.57-3.29.57-1.04,0-1.94-.16-2.67-.47-.74-.31-1.3-.77-1.68-1.37-.38-.6-.58-1.32-.58-2.17,0-.52.06-1.08.17-1.7s.28-1.21.49-1.77h-.19c-.7,1.58-1.06,3.21-1.06,4.88,0,1.1.2,2.04.61,2.83.41.78,1,1.38,1.78,1.79"/>
          <path d="M246.91,81.62c-1.24.64-2.45,1.04-3.63,1.22v.12c.23.08.51.2.84.36.44.21.83.38,1.16.49s.68.17,1.05.17c.9,0,1.74-.31,2.53-.92s1.42-1.48,1.9-2.59c.48-1.11.72-2.37.72-3.79,0-.62-.07-1.22-.22-1.79-.15-.58-.33-1.1-.53-1.56-.21-.46-.46-.98-.77-1.56h-.12c-.12.36-.28.76-.49,1.21s-.4.81-.57,1.08c.81.77,1.42,1.44,1.83,2.03.42.59.62,1.03.62,1.33,0,.59-.41,1.28-1.22,2.07-.82.79-1.84,1.5-3.08,2.13"/>
          <path d="M297.98,73.13c0-.31.14-.62.43-.93.28-.31.65-.57,1.1-.77s.91-.3,1.38-.3.94.12,1.37.35c.43.23.77.53,1.03.91s.39.77.39,1.2c0,.25-.11.5-.34.76s-.57.5-1.04.73c-.46.23-1.03.43-1.7.58-.51-.19-.97-.44-1.37-.73-.4-.3-.71-.6-.93-.92s-.33-.6-.33-.86M253.04,68.51c.06,1.28.11,3.17.16,5.65.03,1.1.17,1.97.41,2.59.25.62.64,1.07,1.17,1.33.53.27,1.24.4,2.15.4h39.09c1.14,0,2.04-.11,2.7-.33s1.18-.58,1.55-1.09c.27.49.75.85,1.44,1.08s1.71.34,3.05.34h.07c.66,0,1.19-.06,1.58-.18.39-.12.7-.33.93-.64.34-.44.63-.99.88-1.64.24-.65.42-1.33.55-2.03.12-.7.18-1.36.18-1.97,0-1.1-.02-2.3-.06-3.6-.04-1.31-.1-2.85-.16-4.62-.01-.41-.03-.92-.05-1.51s-.03-.98-.03-1.15h-.12c-.23.37-.5.77-.81,1.19-.32.42-.61.77-.89,1.05.1.53.26,1.6.48,3.21s.41,3.21.57,4.81c.17,1.6.25,2.73.25,3.41,0,.31-.24.56-.73.75-.49.19-1.22.28-2.19.28-1.05,0-1.87-.02-2.47-.06.42-.35.75-.78.97-1.28s.34-1.06.34-1.67c0-.72-.12-1.36-.36-1.91s-.58-.97-1.01-1.28c-.43-.3-.93-.45-1.49-.45-.62,0-1.21.22-1.76.66-.55.44-1,1.04-1.33,1.79s-.5,1.57-.5,2.44c0,.65.22,1.21.65,1.68-.47.05-1.07.08-1.79.08h-39.08c-.75,0-1.35-.1-1.8-.3-.45-.2-.77-.51-.97-.93s-.3-.99-.3-1.69c0-.84.02-2.13.06-3.87.04-1.72.06-3,.06-3.82,0-.7-.02-1.6-.07-2.71-.03-.57-.05-1.04-.05-1.4h-.12c-.22.37-.5.77-.81,1.2-.32.43-.61.77-.88,1.04.16.81.28,1.55.35,2.21.08.66.15,1.63.21,2.91"/>
        </g>
        <polygon points="303.6 59.55 298.84 61.69 298.76 62.31 303.51 60.15 303.6 59.55"/>
        <g>
          <path d="M300.92,64.03l-1.26,1.56v.12c.24.11.52.3.85.57.32.27.57.51.73.72l1.36-1.5c-.14-.25-.38-.53-.72-.82-.33-.29-.66-.51-.96-.66"/>
          <path d="M312.35,73.07c.12,2.12.18,3.79.18,5,0,.37,0,.64-.01.79h.12c.07-.29.18-.73.33-1.31.18-.67.31-1.24.4-1.7.09-.47.16-1.07.22-1.81.05-.74.08-1.7.08-2.88,0-1.79-.07-4.35-.22-7.67-.05-1.2-.08-1.98-.08-2.34h-.12c-.23.37-.5.77-.81,1.2-.32.43-.61.78-.88,1.05.1.5.22,1.71.38,3.63.16,1.91.29,3.93.42,6.05"/>
          <path d="M131.07,94.95l1.49,3.6c-.71.07-1.37.26-2,.55-.63.3-1.19.68-1.69,1.17l2.21-5.32h0ZM126.31,103.97h1.67l.19-.07.08-.18-.08-.19-.19-.08-.13-.02-.12-.09c-.06-.08-.05-.21.02-.36l.23-.58c.44-.97,1.09-1.74,1.94-2.34.85-.59,1.8-.92,2.85-1l1.63,3.91c.06.16.06.28,0,.36-.05.07-.13.11-.25.11l-.19.08-.08.19.08.18.19.07h3.93c.17,0,.25-.08.25-.25l-.07-.19-.18-.08c-.18,0-.36-.07-.55-.2s-.32-.29-.4-.47l-4.7-11.32-.04-.07-.05-.05h-.02l-.02-.02-.11-.02h-.06l-.09.04-.04.05-.05.07-4.7,11.32c-.07.18-.2.34-.39.47-.19.13-.38.2-.56.2l-.18.08-.07.19c0,.17.08.25.25.25"/>
          <path d="M140.08,103.28c-.11.11-.25.16-.42.16l-.18.08-.07.19c0,.17.08.25.25.25h9.24c.17,0,.25-.09.25-.25v-2.94c0-.17-.08-.25-.25-.25l-.19.07-.08.18c0,.36-.07.71-.21,1.03-.14.33-.33.61-.57.85s-.52.43-.84.57c-.32.14-.66.21-1.02.21h-3.14v-11.05c0-.17.05-.31.16-.42s.24-.16.41-.16l.18-.08.07-.19c0-.17-.08-.25-.25-.25h-3.77c-.17,0-.25.09-.25.25l.07.19.18.08c.17,0,.31.05.42.16s.17.25.17.42v10.47c0,.17-.06.31-.17.42"/>
          <path d="M163.42,91.82c.36,0,.7.07,1.02.21s.6.33.84.57c.24.24.43.52.57.85.14.33.21.67.21,1.03l.08.18.19.07.17-.07.08-.18v-2.93l-.08-.18-.17-.07h-9.24c-.17,0-.25.08-.25.25l.07.19.18.08c.17,0,.31.05.41.16.11.11.16.25.16.42v10.47c0,.17-.05.31-.16.42s-.25.16-.41.16l-.18.08-.07.19c0,.17.08.25.25.25h3.77c.17,0,.25-.08.25-.25l-.07-.19-.18-.08c-.17,0-.3-.05-.41-.16s-.16-.25-.16-.42v-4.98h1.69c.17,0,.31.05.42.16s.17.25.17.42.08.25.25.25.25-.08.25-.25v-1.68l-.07-.19-.18-.08-.18.08-.07.19c0,.16-.06.29-.17.41-.11.11-.26.17-.42.17h-1.69v-5.54h3.14-.01Z"/>
          <path d="M168.02,99.11c-.63.3-1.19.68-1.69,1.17l2.21-5.33,1.49,3.6c-.71.07-1.37.26-2,.55M171.62,103.45l-.19.08-.08.19.08.18.19.07h3.93c.17,0,.25-.08.25-.25l-.07-.19-.18-.08c-.18,0-.36-.07-.55-.2s-.32-.29-.4-.47l-4.7-11.32-.04-.07-.05-.05h-.02l-.02-.02-.11-.02h-.05l-.09.04-.03.05-.06.07-4.7,11.32c-.07.18-.2.34-.4.47-.19.13-.38.2-.56.2l-.18.08-.07.19c0,.17.08.25.25.25h1.67l.19-.07.08-.18-.08-.19-.19-.08-.13-.02-.12-.09c-.06-.08-.05-.21.02-.36l.23-.58c.44-.97,1.09-1.74,1.94-2.34.85-.59,1.8-.92,2.85-1l1.63,3.91c.06.16.06.28,0,.36-.05.07-.13.11-.25.11"/>
          <path d="M180.32,91.82h2.98c.26.01.51.13.74.35.23.22.43.52.6.9.17.37.31.8.41,1.28.1.48.15,1,.15,1.54s-.05,1.06-.14,1.55c-.1.49-.24.93-.43,1.31-.37.77-.81,1.18-1.33,1.21h-2.98v-8.15h0ZM183.08,100.48l2.12,3.37c.05.08.12.13.21.13h3.3l.19-.07.08-.18-.08-.19-.19-.08c-.18,0-.38-.07-.59-.2-.21-.13-.39-.29-.52-.47l-1.9-3.03c.66-.42,1.17-.97,1.54-1.66.37-.68.56-1.42.56-2.2,0-.63-.12-1.22-.35-1.78-.23-.55-.55-1.04-.96-1.46s-.88-.74-1.43-.99c-.54-.24-1.13-.37-1.75-.38h-6.19c-.17,0-.25.08-.25.26l.07.19.18.08c.17,0,.31.05.41.16.11.11.16.25.16.42v10.47c0,.17-.05.31-.16.42s-.24.16-.41.16l-.18.08-.07.19c0,.17.08.25.25.25h3.77c.17,0,.25-.08.25-.25l-.07-.19-.18-.08c-.17,0-.31-.05-.41-.16-.11-.11-.16-.25-.16-.42v-2.39h2.76Z"/>
          <path d="M196.64,91.82c.36,0,.7.07,1.02.21s.6.33.84.57c.24.24.43.52.57.85.14.33.21.67.21,1.03l.08.18.19.07c.17,0,.25-.08.25-.25v-2.93c0-.17-.08-.25-.25-.25h-9.24c-.17,0-.25.08-.25.25l.07.19.18.08c.17,0,.31.05.42.16s.17.25.17.42v10.47c0,.17-.06.31-.17.42s-.25.16-.42.16l-.18.08-.07.19c0,.17.08.25.25.25h9.24c.17,0,.25-.08.25-.25v-2.93c0-.17-.08-.25-.25-.25l-.19.07-.08.18c0,.36-.07.71-.21,1.03-.14.33-.33.61-.57.85s-.52.43-.84.57c-.32.14-.66.21-1.02.21h-3.14v-5.56h1.69c.17,0,.31.05.42.16s.17.25.17.42.08.25.25.25.25-.08.25-.25v-1.68l-.07-.19-.18-.08-.18.08-.07.19c0,.16-.06.29-.17.41-.12.11-.26.17-.42.17h-1.69v-5.54h3.14Z"/>
          <path d="M209.07,98.09c-.24-.31-.52-.59-.85-.82s-.69-.41-1.09-.53l-3.01-.81c-.46-.15-.82-.41-1.09-.79s-.41-.8-.41-1.28c0-.3.06-.58.17-.84.11-.26.27-.49.46-.68s.42-.35.68-.46c.26-.12.54-.17.82-.17h.57c.44,0,.86.09,1.25.25.39.17.73.4,1.02.7.29.3.52.64.69,1.03s.25.81.25,1.26c0,.17.08.25.25.25s.25-.09.25-.25v-3.39c0-.17-.08-.25-.25-.25s-.25.08-.25.25v.31c0,.12-.04.22-.13.3-.08.08-.18.12-.29.12-.1,0-.19-.04-.29-.11l-.02-.02c-.34-.3-.71-.54-1.14-.71-.42-.18-.88-.26-1.35-.26h-.57c-.51,0-1,.1-1.44.3-.45.2-.84.47-1.17.81-.34.34-.6.74-.8,1.2s-.3.95-.3,1.47c0,.41.07.81.2,1.19.13.39.31.74.55,1.05.23.31.52.59.85.82.34.24.7.41,1.1.53l3.01.82c.45.14.82.41,1.09.79s.41.81.41,1.28c0,.3-.06.58-.17.84-.11.26-.26.49-.46.68-.19.19-.42.35-.68.46s-.54.17-.83.17h-1.36c-.44,0-.86-.09-1.25-.25-.39-.17-.73-.4-1.01-.7-.29-.3-.51-.64-.68-1.03s-.25-.81-.25-1.26l-.08-.18-.19-.07c-.17,0-.25.09-.25.25v3.39c0,.17.08.25.25.25l.19-.07.08-.18v-.31c0-.12.04-.22.12-.3s.17-.12.28-.12c.12,0,.21.03.29.11h.02l.02.02c.32.3.7.54,1.12.71.42.18.88.26,1.35.26h1.36c.51,0,1-.1,1.44-.3.45-.2.84-.47,1.18-.8.33-.34.6-.74.8-1.2s.3-.95.3-1.47c0-.41-.07-.81-.2-1.2-.13-.39-.32-.74-.56-1.05"/>
          <path d="M222.01,99.11c-.63.3-1.19.68-1.7,1.17l2.21-5.33,1.49,3.6c-.71.07-1.37.26-2,.55M225.85,102.98c.06.16.06.28,0,.36-.05.07-.13.11-.25.11l-.19.08-.08.19.08.18.19.07h3.93c.17,0,.25-.08.25-.25l-.07-.19-.18-.08c-.18,0-.36-.07-.55-.2s-.32-.29-.4-.47l-4.7-11.32-.03-.07-.05-.05h-.02l-.02-.02-.11-.02h-.05l-.09.04-.04.05-.05.07-4.7,11.32c-.07.18-.2.34-.4.47-.19.13-.38.2-.56.2l-.18.08-.07.19c0,.17.08.25.25.25h1.67l.19-.07.08-.18-.08-.19-.19-.08-.13-.02-.12-.09c-.06-.09-.05-.21.02-.36l.23-.58c.44-.97,1.09-1.74,1.94-2.34.85-.59,1.8-.92,2.85-.99l1.63,3.91h0Z"/>
          <path d="M231.53,103.28c-.11.11-.25.16-.42.16l-.18.08-.07.19c0,.17.08.25.25.25h9.24c.17,0,.25-.09.25-.25v-2.94c0-.17-.08-.25-.25-.25l-.19.07-.08.18c0,.36-.07.71-.21,1.03-.14.33-.33.61-.57.85s-.52.43-.84.57c-.32.14-.66.21-1.02.21h-3.14v-11.05c0-.17.05-.31.16-.42s.24-.16.41-.16l.18-.08.07-.19c0-.17-.08-.25-.25-.25h-3.77c-.17,0-.25.09-.25.25l.07.19.18.08c.17,0,.31.05.42.16s.17.25.17.42v10.47c0,.17-.06.31-.17.42"/>
          <path d="M251.73,91.82h2.22c.5,0,.98.15,1.43.46s.84.72,1.18,1.25c.33.53.6,1.14.79,1.85.19.71.29,1.46.29,2.26s-.1,1.55-.29,2.25c-.19.71-.46,1.32-.79,1.85-.34.53-.73.94-1.18,1.25s-.92.46-1.43.46h-2.22v-11.63ZM248.95,103.28c-.11.11-.25.16-.41.16l-.18.08-.07.19c0,.17.08.25.25.25h5.43c.86,0,1.68-.17,2.44-.5.77-.33,1.43-.79,2-1.36s1.02-1.25,1.35-2.02.49-1.59.49-2.46-.16-1.69-.49-2.46-.78-1.45-1.35-2.02-1.23-1.03-2-1.36c-.76-.33-1.58-.5-2.44-.5h-5.43c-.17,0-.25.09-.25.26l.07.19.18.08c.17,0,.3.05.41.16s.16.25.16.42v10.47c0,.17-.05.31-.16.42"/>
          <path d="M263.45,99.11c-.63.3-1.19.68-1.7,1.17l2.21-5.33,1.49,3.6c-.71.07-1.37.26-2,.55M267.05,103.45l-.19.08-.08.19.08.18.19.07h3.93c.17,0,.25-.08.25-.25l-.07-.19-.18-.08c-.18,0-.36-.07-.55-.2s-.32-.29-.4-.47l-4.7-11.32-.04-.07-.05-.05h-.02l-.02-.02-.11-.02h-.05l-.09.04-.03.05-.06.07-4.7,11.32c-.07.18-.2.34-.39.47-.19.13-.38.2-.55.2l-.18.08-.07.19c0,.17.08.25.25.25h1.67l.19-.07.08-.18-.08-.19-.19-.08-.13-.02-.12-.09c-.06-.08-.05-.21.02-.36l.23-.58c.44-.97,1.09-1.74,1.94-2.34.85-.59,1.8-.92,2.85-1l1.63,3.91c.06.16.06.28,0,.36-.05.07-.13.11-.25.11"/>
          <path d="M283.27,91.98c.11-.11.25-.16.4-.16l.19-.08.08-.19-.08-.18-.19-.07h-3.75l-.19.07-.08.18.08.19.19.08c.17,0,.3.05.41.16.11.11.16.25.16.42v4.98h-4.75v-4.98c0-.17.05-.31.16-.42.11-.11.25-.16.41-.16l.18-.08.07-.19c0-.17-.08-.25-.25-.25h-3.77c-.17,0-.25.08-.25.25l.07.19.18.08c.17,0,.31.05.42.16.11.11.17.25.17.42v10.47c0,.17-.06.31-.17.42-.11.11-.25.16-.42.16l-.18.08-.07.19c0,.17.08.25.25.25h3.77c.17,0,.25-.09.25-.25l-.07-.19-.18-.08c-.17,0-.31-.05-.41-.16-.11-.11-.16-.25-.16-.42v-4.98h4.75v4.98c0,.17-.05.31-.16.42-.11.11-.24.16-.41.16l-.19.08-.08.19.08.18.19.07h3.75l.19-.07.08-.18-.08-.19-.19-.08c-.16,0-.29-.05-.4-.16s-.17-.25-.17-.42v-10.47c0-.17.06-.31.17-.42"/>
          <path d="M289.49,99.11c-.63.3-1.19.68-1.69,1.17l2.21-5.33,1.49,3.6c-.71.07-1.37.26-2,.55M297.27,103.72l-.07-.19-.18-.08c-.18,0-.36-.07-.55-.2s-.32-.29-.4-.47l-4.7-11.32-.04-.07-.05-.05h-.02l-.02-.02-.11-.02h-.05l-.09.04-.04.05-.05.07-4.7,11.32c-.07.18-.2.34-.4.47-.19.13-.38.2-.55.2l-.18.08-.07.19c0,.17.08.25.25.25h1.67l.19-.07.08-.18-.08-.19-.19-.08-.13-.02-.12-.09c-.06-.09-.05-.21.02-.36l.23-.58c.44-.97,1.09-1.74,1.94-2.34.85-.59,1.8-.92,2.85-.99l1.63,3.91c.06.16.06.28,0,.36-.05.07-.13.11-.25.11l-.19.08-.08.19.08.18.19.07h3.93c.17,0,.25-.08.25-.25"/>
          <path d="M306.54,101.88c-.05.34-.11.64-.18.87s-.15.41-.22.53c-.08.11-.14.17-.19.17h-4.16v-5.56h4.16s.11.06.19.18c.08.12.15.3.22.53.07.24.13.53.18.87.05.34.07.75.07,1.21s-.02.86-.07,1.2M301.79,91.82h3.52s.11.06.19.17c.08.11.15.29.22.52.07.24.13.53.18.87.05.34.07.75.07,1.2s-.02.86-.07,1.21c-.05.34-.11.63-.18.87-.07.24-.15.41-.22.53-.08.12-.14.18-.19.18h-3.52v-5.56h0ZM307.8,97.96c-.29-.2-.6-.36-.95-.45.51-.28.93-.67,1.24-1.19.32-.51.48-1.09.48-1.73,0-.46-.08-.89-.25-1.29s-.4-.74-.7-1.04c-.3-.3-.64-.53-1.03-.71s-.81-.26-1.26-.26h-6.73c-.17,0-.25.08-.25.25l.07.19.18.08c.17,0,.3.05.41.16.11.11.16.25.16.42v10.47c0,.17-.05.31-.16.42-.11.11-.24.16-.41.16l-.18.08-.07.19c0,.17.08.25.25.25h7.35c.45,0,.88-.09,1.27-.26.39-.17.74-.41,1.03-.71.29-.3.53-.65.7-1.05s.26-.83.26-1.28c0-.38-.06-.73-.18-1.07s-.29-.65-.49-.92c-.21-.28-.46-.52-.74-.72"/>
          <path d="M313.66,103.45c-.17,0-.31-.05-.41-.16-.11-.11-.16-.25-.16-.42v-10.47c0-.17.05-.31.16-.42s.24-.16.41-.16l.18-.08.07-.19c0-.17-.08-.25-.25-.25h-3.77c-.17,0-.25.08-.25.25l.07.19.18.08c.17,0,.31.05.42.16.11.11.17.25.17.42v10.47c0,.17-.06.31-.17.42-.11.11-.25.16-.42.16l-.18.08-.07.19c0,.17.08.25.25.25h3.77c.17,0,.25-.08.25-.25l-.07-.19-.18-.08Z"/>
        </g>
        <g class="cls-15">
          <rect class="cls-13" x="448" y="75.84" width="118.71" height="4"/>
        </g>
        <g class="cls-1">
          <rect class="cls-20" x="441.64" y="103.06" width="125.07" height="4"/>
        </g>
        <g>
          <path class="cls-22" d="M450.67,79.43c0-1.94-.83-3.53-1.49-4.76h-.12c-.23.72-.72,1.72-1.04,2.22,1.64,1.55,2.41,2.71,2.41,3.25,0,1.76-4.18,4.71-7.77,5.25v.12c.82.27,1.8.99,2.99.99,2.61,0,5.03-2.82,5.03-7.07"/>
          <path class="cls-22" d="M472.1,84.54c-.28-.48-1.03-1.15-1.64-1.42l-1.22,1.51v.12c.48.21,1.22.87,1.53,1.25l1.33-1.46h0Z"/>
          <path class="cls-22" d="M483.35,74.66h.12c.67-.69,2.03-1.4,3.72-1.74.08-.34.27-.8.44-1.07v-.12c-.4.16-1.52.33-2.26.33-1.05,0-1.63-.49-1.63-.94s.66-1.21,1.72-1.21c.61,0,.95.24,1,.79h.12c.02-.12.06-.29.06-.51,0-.71-.46-1.23-1.16-1.23-1.08,0-2.02,1.31-2.02,2.65,0,.69.47,1.2,1.36,1.38-.69.39-1.23.97-1.48,1.68"/>
          <path class="cls-22" d="M491.33,71.51c.64,0,2.19-.05,3.72-.16.09-.35.42-1.29.61-1.62-1.18.09-3.54.14-4.02.14-1.11,0-1.52-.13-1.52-.53h-.12c-.09.52-.34,1.02-.34,1.38,0,.6.57.79,1.68.79"/>
          <path class="cls-22" d="M505.24,78.65h.12c-.11,1.63.74,2.52,2.22,2.52,1.76,0,2.74-1.39,2.74-3.78s-.85-3.88-1.12-4.6h-.1c-.26.79-.68,1.63-1,2.13,1.41,1.24,1.92,2.21,1.92,2.74,0,.48-1.02.97-2.25.97-.97,0-1.76-.29-2.17-.83.12-.71.27-1.77.29-1.99h-.21c-.31,2.1-1.09,2.83-2.92,2.83-.9,0-1.62-.26-2.04-.74.12-.71.28-1.85.3-2.09h-.21c-.39,2.16-1.31,2.83-3.43,2.83-.08,0-.14.04-.21.06v-.06c-1.74,0-2.63-.61-3.12-1.86-.36-.97-.67-2.43-.79-3.58h-.12c-.25.58-.93,1.43-1.25,1.75l.64,2.36.15.54c-.58.53-1.66.8-2.97.8-.08,0-.14.04-.21.06v-.06c-2.11,0-2.73-.76-2.73-2.44v-1.03h-.21c-.39,2.65-1.31,3.47-6.26,3.47h-.3c-2.38,0-3.44-.29-3.66-1.74.59-.31,1.2-.52,1.91-.53.25-.51.84-1.32,1.15-1.61v-.12c-3.6-.16-6.67-2.29-8.81-2.29-1.21,0-1.98.64-2.74,3.39h.12c.49-.95,1.18-1.46,2.2-1.46,1.75,0,3.66,1.23,6.95,1.79v.12c-2.2.6-3.86,2.46-10.39,2.46h-8.5c-2.2,0-3.01-.8-3.01-2.83,0-2.44.12-5.04.12-7.45,0-1.91-.12-2.98-.12-3.98h-.12c-.4.66-1.09,1.62-1.65,2.18.4,2.05.55,3.09.7,10.44.07,3.19,1.06,4.19,3.65,4.19h8.5c5.54,0,7.58-2.87,9.84-4.18-.04.37-.07.75-.07,1.03,0,2.42.88,3.15,3.5,3.15h.3c4.73,0,6.04-.88,6.29-3.71h.12c-.27,2.9,1,3.71,2.79,3.71v-.05c.07.03.13.05.21.05,1.77,0,3.27-.99,3.54-2.91.7,2.02,1.8,2.91,3.92,2.91v-.05c.07.03.13.05.21.05,1.84,0,2.94-.81,3.34-2.52h.12c-.13,1.67.67,2.52,1.99,2.52,1.4,0,2.5-.81,2.83-2.52"/>
          <path class="cls-22" d="M513.94,81.53h.12c.58-2.48,1-3,1-7.47,0-3.62-.29-8.69-.29-9.69h-.12c-.4.66-1.09,1.62-1.65,2.18.29,1.57,1.06,11.9.94,14.99"/>
          <path class="cls-22" d="M511.97,88.28h.12c.67-.68,2.02-1.39,3.71-1.72.09-.36.26-.8.45-1.08v-.12c-.4.16-1.52.33-2.26.33-1.04,0-1.62-.48-1.62-.94s.65-1.23,1.7-1.23c.61,0,.97.24,1,.82h.13c.02-.13.07-.3.07-.53,0-.69-.46-1.23-1.16-1.23-1.09,0-2.02,1.32-2.02,2.65,0,.7.47,1.22,1.37,1.39-.7.38-1.24.96-1.49,1.67"/>
          <path class="cls-22" d="M550.28,75.97c0-.91,1.41-1.95,2.85-1.95s2.74,1.13,2.74,2.38c0,.69-.96,1.52-3.02,2.01-1.55-.58-2.57-1.69-2.57-2.44M529.8,76.8c.52,3.16,1.87,4.37,3.65,4.37h14.92c2.22,0,3.42-.38,4.16-1.37.52.91,1.69,1.37,4.4,1.37h.01c3.31,0,5.16-.91,8.63-1.67.36-.76,1.13-1.97,1.48-2.33l-.02-.11c-1.35.49-3.21.77-4.84.77-2.13,0-3.56-1.06-3.56-2.34,0-1.37,1.9-2.44,3.67-2.44,1.48,0,2.38.49,2.38,1.24h.12c.51-1.75-.37-3.1-2.32-3.1-2.25,0-4.25,2.26-4.25,5.07,0,.97.34,1.76.98,2.25-.65.06-1.34.1-1.85.1h0c-1.15,0-1.83-.02-2.42-.06.82-.68,1.28-1.66,1.28-2.86,0-2.12-1.14-3.53-2.8-3.53-1.84,0-3.52,2.13-3.52,4.74,0,.62.22,1.18.63,1.62-.52.06-1.05.08-1.76.08h-14.92c-1.57,0-2.58-.89-3.14-3.13-1.05-4.01-1.36-5.08-1.56-6.02h-.12c-.09.34-.9,1.85-1.22,2.29.88,1.72,1.58,4.47,1.58,5.1,0,.91-1.3,1.88-3.73,1.88-2.02,0-2.61-.58-2.54-2.16h-.18c-.11.72-.2,1.45-.2,2.07,0,1.66.84,2.64,2.76,2.64,2.63,0,4.01-1.51,4.17-4.49h.12v.02h0Z"/>
          <path class="cls-22" d="M552.06,69.81c.64,0,2.19-.05,3.72-.16.08-.35.42-1.29.61-1.62-1.18.09-3.54.14-4.03.14-1.1,0-1.53-.13-1.53-.53h-.12c-.08.52-.33,1.02-.33,1.38,0,.6.57.79,1.68.79"/>
          <path class="cls-22" d="M444.87,90.88h-.12c-.08.52-.34,1.02-.34,1.38,0,.6.57.79,1.68.79.64,0,2.2-.05,3.72-.16.08-.35.41-1.29.6-1.62-1.18.09-3.53.14-4.02.14-1.11,0-1.52-.13-1.52-.53"/>
          <path class="cls-22" d="M453.91,108.54c-.64,0-2.2.05-3.72.16-.09.35-.42,1.29-.61,1.62,1.18-.1,3.54-.15,4.03-.15,1.1,0,1.52.14,1.52.54h.12c.08-.52.33-1.02.33-1.38,0-.61-.57-.79-1.67-.79"/>
          <path class="cls-22" d="M444.36,102.8c-1.49,0-1.98-.33-1.98-.96s.99-1.61,4.93-3.69c.12.97.21,2.08.21,3.02s-1.25,1.63-3.16,1.63M462.47,97.49c-.25.67-.74,1.8-1.09,2.2.98.84,2.15,2.34,2.15,3,0,.62-1.64,1.13-4.2,1.13h0c-2.1,0-2.73-.76-2.73-2.44v-1.03h-.19c-.39,2.74-1.09,3.47-4.73,3.47h0c-1.81,0-2.8-.94-2.8-3.11,0-3.62-.2-5.09-.33-6.23h-.08c-.4.67-1.05,1.37-1.48,1.71.07.28.14.66.21,1.11-4.38,2.7-5.54,4.1-5.54,5.93,0,1.27.8,2.04,2.45,2.04,2.15,0,3.21-1.08,3.51-3.28h.12c.12,3.16,1.33,4.37,3.53,4.37h0c3.19,0,4.58-1.03,4.76-3.71h.12c-.27,2.9.97,3.71,2.77,3.71h0c3.49,0,4.91-1.33,4.91-4.07,0-2.47-1.02-4.19-1.24-4.8,0,0-.12,0-.12,0Z"/>
          <path class="cls-22" d="M462.87,94.42c-.28-.48-1.03-1.14-1.65-1.42l-1.22,1.51v.12c.47.21,1.22.86,1.53,1.25l1.33-1.46s.01,0,.01,0Z"/>
          <path class="cls-22" d="M486.24,103.02c-2.12,0-3.56-1.06-3.56-2.34,0-1.37,1.9-2.44,3.67-2.44,1.48,0,2.38.49,2.38,1.24h.12c.51-1.75-.37-3.1-2.32-3.1-2.25,0-4.25,2.26-4.25,5.07,0,.97.34,1.77.98,2.25-.65.06-1.34.1-1.85.1h-4.25c-2.01,0-2.95-.8-2.95-3.04s.12-4.83.12-7.24c0-1.91-.12-2.94-.12-3.98h-.13c-.38.65-1.06,1.53-1.64,2.11.24,1.67.53,4.93.53,8.85,0,.88-.51,1.7-1.68,2.47.1-6.66-4.98-10.16-6.15-11.48h-.12c.07.82-.08,2.16-.26,2.84,3.81,2.69,6.07,5.74,6.41,8.72-1.3.8-3.36,1.53-6.38,2.2v.12c1.12.43,2.21.97,3.38.97,2.46,0,4.49-1.73,4.94-5.19h.1c-.07,4.34.99,5.19,3.52,5.19h4.25c3.31,0,5.16-.91,8.63-1.67.36-.76,1.13-1.97,1.48-2.33l-.02-.11c-1.35.49-3.21.77-4.84.77"/>
          <path class="cls-22" d="M494.64,106.72c.58-2.48,1-3,1-7.47,0-3.62-.29-8.69-.29-9.69h-.12c-.4.66-1.09,1.62-1.65,2.18.29,1.57,1.06,11.9.94,14.99h.12Z"/>
          <path class="cls-22" d="M492.95,109.93c0-.47.65-1.23,1.7-1.23.61,0,.97.24,1,.82h.13c.02-.13.07-.3.07-.53,0-.69-.46-1.23-1.16-1.23-1.09,0-2.02,1.32-2.02,2.65,0,.7.47,1.22,1.37,1.39-.7.38-1.24.96-1.5,1.67h.12c.67-.68,2.02-1.39,3.71-1.72.09-.36.26-.8.45-1.08v-.12c-.4.16-1.52.33-2.27.33-1.04,0-1.62-.48-1.62-.94"/>
          <path class="cls-22" d="M505.88,90.88h-.12c-.08.52-.34,1.02-.34,1.38,0,.6.57.79,1.68.79.64,0,2.2-.05,3.72-.16.08-.35.41-1.29.6-1.62-1.18.09-3.53.14-4.02.14-1.11,0-1.52-.13-1.52-.53"/>
          <path class="cls-22" d="M505.37,102.8c-1.49,0-1.98-.33-1.98-.96s.99-1.61,4.93-3.69c.12.97.21,2.08.21,3.02s-1.25,1.63-3.16,1.63M513.8,100.9h.12c.49-.95,1.18-1.46,2.2-1.46,1.75,0,3.66,1.23,6.95,1.8v.12c-2.2.6-3.86,2.46-10.39,2.46-1.81,0-2.8-.94-2.8-3.11,0-3.62-.2-5.09-.33-6.22h-.08c-.4.67-1.05,1.37-1.48,1.7.07.28.14.66.21,1.11-4.38,2.7-5.54,4.1-5.54,5.93,0,1.27.8,2.03,2.45,2.03,2.15,0,3.21-1.08,3.51-3.28h.12c.12,3.16,1.33,4.37,3.53,4.37,7.14,0,8.46-4.75,11.94-4.82.25-.51.84-1.32,1.15-1.61v-.12c-3.6-.16-6.67-2.29-8.81-2.29-1.21,0-1.98.64-2.74,3.39"/>
          <path class="cls-22" d="M566.68,102.96c0,.6-.49.85-1.48.85-1.52,0-3.68-.88-4.28-2.01.57-1.19,1.45-1.89,2.64-1.89,1.84,0,3.13,1.58,3.13,3.04M564.05,98.07c-1.31,0-2.26,1.03-3.41,3.61l-.39-.33c-.64,2.01-1.49,2.47-2.98,2.47h0c-1.98,0-2.69-.8-2.7-1.87l-.03-1.86c-.18.16-.47.32-.68.4.14.53.34,1.56.34,2.08-.2.67-.97,1.25-2.12,1.25-.83,0-1.48-.29-1.88-.82.12-.72.27-1.78.29-2.01h-.21c-.31,2.09-1.09,2.83-2.92,2.83-.9,0-1.62-.26-2.03-.74.12-.71.28-1.85.3-2.08h-.21c-.39,2.15-1.31,2.83-3.43,2.83h-8.5c-2.2,0-3.01-.8-3.01-2.83,0-2.44.12-5.04.12-7.45,0-1.92-.12-2.98-.12-3.98h-.12c-.4.66-1.09,1.62-1.65,2.17.4,2.06.55,3.09.7,10.44.07,3.19,1.06,4.19,3.65,4.19h8.5c1.84,0,2.94-.81,3.34-2.52h.12c-.13,1.67.67,2.52,1.99,2.52,1.4,0,2.5-.81,2.83-2.52h.12c-.11,1.63.67,2.52,1.92,2.52,1.36,0,2.13-.84,2.38-2.61h.11c-.15,1.67.71,2.61,2.47,2.61h0c2.49,0,2.88-2.56,3.42-4.17l.12.04c-.06.41-.13.97-.08,1.45.24,1.55,2.27,2.68,4.55,2.68,1.22,0,2.18-1.39,2.18-3.67,0-2.62-1.18-4.62-3-4.62"/>
          <path class="cls-4" d="M493.76,774.56c-.59,1.19-1.63,1.87-3.37,1.87-1.88,0-2.96-1.13-2.96-3.14,0-.99.21-2.03.69-3.08h.14c-.28.76-.37,1.45-.37,1.98,0,1.43,1.02,2.23,2.71,2.23,1.78,0,3.42-.77,3.42-1.83-.05-2.24-.52-7.13-.7-8.02.45-.46.98-1.17,1.3-1.69h.08c0,.65.03,3.35.03,5.46,0,3.5-.31,5.05-.96,6.21"/>
          <path class="cls-4" d="M500.04,771.58c-.35-.85-1.04-1.36-1.95-1.36-.86,0-1.55.6-1.55.99,0,.35.38.75,1.61.75.68,0,1.19-.1,1.88-.38M500.52,772.51c0,3.03-1.45,4.58-3.08,4.58-.98,0-1.85-.59-2.53-.79v-.07c2.17-.31,5.4-1.83,5.4-3.18,0-.35-.04-.68-.11-.98h-.04c-.08,1.1-.83,1.78-2.07,1.78s-1.8-.7-1.8-1.97c0-1.65.8-3.09,2.07-3.09,1.35,0,2.16,1.4,2.16,3.73"/>
          <path class="cls-4" d="M506.05,769.96c-.65.77-1.54,1.36-2.64,1.82.34.08.69.12,1.13.12,1.58,0,2.43-.26,2.43-.53,0-.2-.26-.75-.92-1.41M506.55,769.25c.46.68.62,1.29.62,1.85,0,1.92-.99,2.82-2.47,2.82s-1.96-.82-3.09-1.43v-.08c2.04-.77,3.33-1.7,4.02-2.82-.83-.71-2.1-1.49-3.97-2.1.14-.46.26-1.37.2-2.02h.07c2.03,1.21,3.33,2.25,4.13,3.17.14-.46.21-.94.21-1.45,0-.44-.07-1.44-.2-2.06.38-.33.91-.99,1.17-1.5h.07c0,.46.07,1.11.07,2.05,0,1.47-.28,2.64-.84,3.59M503.3,764.28c-.88.16-1.75.58-2.22,1h-.07c.13-.43.42-.79.79-1.02-.47-.13-.72-.46-.72-.85,0-.85.58-1.69,1.22-1.69.44,0,.72.36.72.79,0,.14-.03.26-.04.33h-.07c-.04-.29-.24-.44-.61-.44-.65,0-1.03.46-1.03.68s.31.53.96.53c.44,0,1.14-.1,1.38-.19v.07c-.13.2-.26.53-.32.8"/>
          <path class="cls-4" d="M510.44,769.08c0,3.32-.32,3.37-.78,4.98h-.07c.07-1.83-.47-7.76-.67-8.75.45-.45.98-1.17,1.3-1.69h.07c0,.64.15,3.34.15,5.47"/>
          <path class="cls-4" d="M520.9,764.3v-.08l.88-1.07c.42.2.94.67,1.15,1.01l-.95,1.02c-.2-.27-.74-.73-1.09-.88M523.79,768.9c-.38-.8-1.07-1.27-1.92-1.27s-1.55.6-1.55.98c0,.21.38.67,1.61.67.77,0,1.36-.15,1.85-.38M524.29,770.25c0,2.69-1.67,3.66-6.12,3.66-2.97,0-4.13-.92-4.13-2.7,0-.63.08-1.39.49-2.48h.13c-.14.5-.19.88-.19,1.32,0,1.04,1.23,1.85,3.9,1.85,3.63,0,5.67-.64,5.7-1.22.05-.61-.02-1.14-.2-1.59v.02l-.05.02c-.09,1.09-.83,1.77-2.07,1.77-1.1,0-1.67-.64-1.67-1.64,0-1.62.74-3.01,2.07-3.01s2.15,1.37,2.15,4"/>
          <path class="cls-4" d="M528.55,773.84c-.29,0-.58-.07-.86-.27-.26,2.25-1.44,3.51-2.8,3.51-.92,0-1.64-.58-2.24-.78v-.07c1.98-.4,4.38-1.88,4.86-2.81-.44-.38-.88-1.07-1.36-2.27.2-.27.52-.98.71-1.57h.07c.53,1.79,1.16,2.24,1.94,2.24l-.32,2.01h0Z"/>
          <path class="cls-4" d="M534.75,771.04c0-.44-.62-1.35-1.84-1.35-1.1,0-2.58.88-3.43,2.15h2.01c1.87,0,3.26-.29,3.26-.79M536.09,771.83l-.33,2.01c-.71,0-1.19-.47-1.17-1.74-.62,1.09-1.85,1.74-3.42,1.74h-2.62c-.24,0-.34-.23-.34-.65,0-.91.25-1.36.67-1.36h.31c.46-.67.9-1.51.9-2.97,0-1.04-.23-2.87-.38-3.56.45-.46.98-1.17,1.3-1.69h.07c0,.49.12,2.9.12,3.7,0,1.08-.23,1.73-1.53,3.9h.07c1.46-2.27,2.43-3.09,3.56-3.09s1.74.86,1.74,2.14c0,.54-.1,1.04-.29,1.48.26.06.7.09,1.25.09h.09Z"/>
          <path class="cls-4" d="M537.24,773.3c-.31.43-.73.55-1.41.55-.22,0-.41-.22-.41-.67,0-.91.25-1.34.67-1.34,1.07,0,1.64-.18,1.64-.44,0-1.11-.68-5.11-.89-6.09.46-.46.97-1.17,1.3-1.69h.07c0,.65.17,3.49.17,5.64,0,1.16-.4,3-1.14,4.04"/>
          <path class="cls-4" d="M541.43,769.08c0,3.32-.32,3.37-.78,4.98h-.07c.07-1.83-.47-7.76-.67-8.75.45-.45.98-1.17,1.3-1.69h.07c0,.64.15,3.34.15,5.47"/>
          <path class="cls-4" d="M171.49,779.13c0,.26-.2.65-.26,1.05h-.07c0-.27-.28-.35-.94-.35-.29,0-1.78.03-2.6.1.14-.25.4-.98.46-1.25.98-.06,1.97-.1,2.39-.1.66,0,1.01.13,1.01.55M174.41,773.84c-.28,0-.59,0-.85-.02.02.09.03.18.03.27,0,2.14-1.4,3.36-4.29,3.36-2.01,0-3.11-1.14-3.11-3.14,0-.99.21-2.03.62-2.95h.14c-.22.63-.31,1.32-.31,1.85,0,1.41,1.03,2.23,2.85,2.23,2.88,0,3.85-.85,3.85-1.15,0-.56-2.96-.55-4.05-.87v-.07c.32-.45.71-1.03.97-1.68.88.15,1.94.16,4.47.16l-.33,2.01h0Z"/>
          <path class="cls-4" d="M175.02,766.37v-.08l.88-1.07c.42.2.95.67,1.15,1.01l-.95,1.02c-.2-.27-.74-.73-1.08-.88M174.41,773.84c-.24,0-.34-.23-.34-.65,0-.91.25-1.36.67-1.36,1.38,0,2.61-.27,2.61-.57,0-.28-.8-1.12-1.47-1.61.27-.3.65-1.19.85-1.7h.07c.14.4.78,1.49.78,3.04,0,1.9-.82,2.85-3.17,2.85"/>
          <path class="cls-4" d="M179.52,771.11c-.13-3.93-.25-4.62-.53-5.81.45-.45.98-1.17,1.3-1.69h.07c0,.64.07,1.24.07,2.49s-.07,2.74-.07,4.15c0,1.08.5,1.58,1.76,1.58l-.33,2.01c-1.58,0-2.21-.64-2.28-2.73"/>
          <path class="cls-4" d="M183.34,766.31v-.07l.76-.95c.42.2.87.61,1.03.82l-.76.95c-.21-.2-.68-.6-1.03-.75M185.73,768.6c-.98.07-1.97.1-2.39.1-.66,0-1.01-.13-1.01-.54,0-.26.2-.59.26-.98h.07c0,.28.28.35.93.35.29,0,1.78-.03,2.6-.1-.14.25-.4.91-.46,1.18M184.93,771.41h-.08c-.05,1.75-.96,2.44-3.05,2.44-.24,0-.34-.23-.34-.65,0-.91.25-1.36.67-1.36,2.38,0,2.76-.39,3.03-2h.13v.69c0,.82.41,1.31,1.71,1.31l-.32,2.01c-1.04,0-1.95-.5-1.74-2.44"/>
          <path class="cls-4" d="M188.15,773.3c-.31.43-.73.55-1.41.55-.22,0-.41-.22-.41-.67,0-.91.25-1.34.67-1.34,1.07,0,1.64-.18,1.64-.44,0-1.11-.68-5.11-.89-6.09.46-.46.97-1.17,1.3-1.69h.07c0,.65.17,3.49.17,5.64,0,1.16-.4,3-1.14,4.04"/>
          <path class="cls-4" d="M192.35,769.08c0,3.32-.32,3.37-.78,4.98h-.07c.07-1.83-.47-7.76-.67-8.75.45-.45.98-1.17,1.3-1.69h.07c0,.64.15,3.34.15,5.47"/>
          <path class="cls-4" d="M202.8,764.3v-.08l.88-1.07c.42.2.94.67,1.15,1.01l-.95,1.02c-.2-.27-.74-.73-1.09-.88M205.69,768.9c-.38-.8-1.07-1.27-1.92-1.27s-1.55.6-1.55.98c0,.21.38.67,1.61.67.77,0,1.36-.15,1.85-.38M206.19,770.25c0,2.69-1.67,3.66-6.12,3.66-2.97,0-4.13-.92-4.13-2.7,0-.63.08-1.39.49-2.48h.13c-.14.5-.19.88-.19,1.32,0,1.04,1.23,1.85,3.9,1.85,3.63,0,5.67-.64,5.7-1.22.05-.61-.02-1.14-.2-1.59v.02l-.05.02c-.09,1.09-.83,1.77-2.07,1.77-1.1,0-1.67-.64-1.67-1.64,0-1.62.74-3.01,2.07-3.01s2.15,1.37,2.15,4"/>
          <path class="cls-4" d="M210.45,773.84c-.29,0-.58-.07-.86-.27-.26,2.25-1.44,3.51-2.8,3.51-.92,0-1.64-.58-2.24-.78v-.07c1.98-.4,4.38-1.88,4.86-2.81-.44-.38-.88-1.07-1.35-2.27.2-.27.52-.98.71-1.57h.07c.53,1.79,1.16,2.24,1.94,2.24l-.32,2.01h0Z"/>
          <path class="cls-4" d="M216.65,771.04c0-.44-.62-1.35-1.84-1.35-1.1,0-2.58.88-3.43,2.15h2.01c1.87,0,3.26-.29,3.26-.79M217.99,771.83l-.33,2.01c-.71,0-1.19-.47-1.18-1.74-.62,1.09-1.85,1.74-3.42,1.74h-2.62c-.24,0-.34-.23-.34-.65,0-.91.25-1.36.67-1.36h.31c.46-.67.9-1.51.9-2.97,0-1.04-.23-2.87-.38-3.56.46-.46.98-1.17,1.3-1.69h.07c0,.49.12,2.9.12,3.7,0,1.08-.23,1.73-1.53,3.9h.07c1.46-2.27,2.43-3.09,3.56-3.09s1.74.86,1.74,2.14c0,.54-.1,1.04-.29,1.48.26.06.7.09,1.25.09h.1,0Z"/>
          <path class="cls-4" d="M219.14,773.3c-.31.43-.73.55-1.41.55-.22,0-.41-.22-.41-.67,0-.91.25-1.34.67-1.34,1.07,0,1.64-.18,1.64-.44,0-1.11-.68-5.11-.89-6.09.46-.46.97-1.17,1.3-1.69h.07c0,.65.17,3.49.17,5.64,0,1.16-.4,3-1.14,4.04"/>
          <path class="cls-4" d="M223.34,769.08c0,3.32-.32,3.37-.78,4.98h-.07c.07-1.83-.47-7.76-.67-8.75.45-.45.98-1.17,1.3-1.69h.07c0,.64.15,3.34.15,5.47"/>
        </g>
        <path d="M413.93,802.49l-.08-.15s-.02-.04-.06-.09c.07.03.16.09.24.15l.04.03-.14.05h0Z"/>
        <g class="cls-14">
          <g class="cls-14">
            <text class="cls-5" transform="translate(220.91 624.98)"><tspan x="0" y="0" xml:space="preserve">                               </tspan></text>
          </g>
        </g>
        <g class="cls-16">
          <rect class="cls-10" x="39.84" y="184.46" width="519.63" height=".67"/>
        </g>
      </g>
      <g>
        <g>
          <g class="cls-6">
            <rect class="cls-18" x="373.81" y="711.84" width="130.2" height="4"/>
          </g>
          <path class="cls-4" d="M370.29,714.92c0-.57.4-1.01,1.01-1.01s1.01.44,1.01,1.01c0,.6-.4,1.01-1.01,1.01s-1.01-.41-1.01-1.01M370.29,712.11c0-.58.4-1.01,1.01-1.01s1.01.44,1.01,1.01-.4,1.01-1.01,1.01-1.01-.41-1.01-1.01"/>
          <path class="cls-4" d="M375.43,707.07c0-.26.2-.65.26-1.05h.07c0,.27.28.35.94.35.29,0,1.78-.03,2.6-.1-.15.25-.4.98-.46,1.25-.98.07-1.97.1-2.39.1-.66,0-1.01-.13-1.01-.55M377.31,712.52c0-.42-.06-1.05-.14-1.62-2.25,1.12-2.78,1.69-2.78,1.96,0,.32.25.48,1.12.48,1.01,0,1.79-.28,1.79-.81M379.88,713.93l-.32,2.01c-1.31,0-2.04-.73-2.11-2.91h-.07c-.16,1.55-.76,2.25-2.06,2.25-1.01,0-1.51-.49-1.51-1.32,0-1.17.64-2.02,3.27-3.66-.04-.25-.08-.46-.12-.61.33-.26.83-.79,1.15-1.31h.05c.06.54.2,1.39.2,3.81,0,1.21.53,1.74,1.52,1.74"/>
          <path class="cls-4" d="M382.68,713.5h-.08c-.05,1.75-.96,2.43-3.05,2.43-.24,0-.34-.23-.34-.65,0-.91.25-1.35.67-1.35,2.38,0,2.76-.39,3.03-2h.13v.69c0,.82.41,1.31,1.71,1.31l-.32,2.01c-1.04,0-1.95-.5-1.75-2.43M379.05,717.2c.98-.07,1.97-.1,2.39-.1.66,0,1.01.12,1.01.54,0,.27-.2.65-.26,1.05h-.07c0-.27-.28-.35-.93-.35-.29,0-1.78.03-2.6.1.14-.25.39-.98.46-1.24"/>
          <path class="cls-4" d="M388.71,712.79h-.08v.07c-.13,2.09-1.02,3.07-3.81,3.07h-.4c-.24,0-.34-.23-.34-.65,0-.91.25-1.36.67-1.36h.35c2.55,0,3.32-.5,3.32-.78,0-.46-.53-1.22-3.7-2.64.21-.47.62-1.57.77-2.03.11-.4.11-.52.49-.66l5.76-2.02.07.03c-.4.68-.7,1.4-.85,1.92l-5.47,1.38v.08c2.65,1.04,3.58,2.11,4.9,3.59.73.82,1.29,1.14,2.18,1.14l-.32,2.01c-1.44,0-2.07-.85-3.54-3.14"/>
          <path class="cls-4" d="M393.66,710.06v-.08l.88-1.07c.42.2.94.67,1.15,1.01l-.95,1.02c-.2-.27-.74-.73-1.09-.88M395.39,713.5h-.08c-.05,1.75-.96,2.44-3.05,2.44-.24,0-.34-.23-.34-.65,0-.91.25-1.36.67-1.36,2.37,0,2.76-.39,3.03-2h.13v.69c0,.82.41,1.31,1.71,1.31l-.32,2.01c-1.04,0-1.95-.5-1.74-2.44"/>
          <path class="cls-4" d="M397.15,718.11v-.07l.88-1.08c.42.2.95.67,1.15,1.01l-.95,1.02c-.22-.26-.73-.73-1.08-.88M400.26,713.5h-.08c-.05,1.75-.96,2.44-3.05,2.44-.24,0-.34-.23-.34-.65,0-.91.25-1.36.67-1.36,2.37,0,2.76-.39,3.03-2h.13v.69c0,.82.41,1.31,1.71,1.31l-.32,2.01c-1.04,0-1.95-.5-1.74-2.44"/>
          <path class="cls-4" d="M403.47,715.39c-.31.43-.73.55-1.41.55-.22,0-.41-.22-.41-.67,0-.91.25-1.34.67-1.34,1.07,0,1.64-.18,1.64-.44,0-1.11-.68-5.11-.89-6.09.46-.46.97-1.17,1.3-1.69h.07c0,.65.17,3.49.17,5.64,0,1.16-.39,3-1.14,4.04"/>
          <path class="cls-4" d="M407.67,711.18c0,3.32-.32,3.37-.78,4.98h-.07c.07-1.83-.47-7.76-.67-8.76.45-.45.98-1.17,1.3-1.69h.07c0,.64.15,3.34.15,5.47"/>
          <path class="cls-4" d="M417.27,711.49c-.98.07-1.97.1-2.39.1-.66,0-1.01-.13-1.01-.55,0-.27.2-.65.26-1.05h.07c0,.27.28.35.93.35.29,0,1.78-.03,2.6-.1-.14.25-.4.98-.46,1.24M415.39,716.01c-2.97,0-4.12-.92-4.12-2.7,0-.63.08-1.39.48-2.48h.13c-.14.5-.19.88-.19,1.32,0,1.04,1.23,1.85,3.9,1.85,3.61,0,5.05-.81,5.05-1.15,0-.28-.79-1.12-1.47-1.62.27-.3.65-1.19.85-1.7h.07c.15.4.78,1.49.78,3.04,0,2.27-1.4,3.43-5.47,3.43"/>
          <path class="cls-4" d="M429.1,713.93l-.32,2.01c-1.57,0-2.17-.51-2.11-3.36h-.07c-.18,2.29-1.25,3.36-2.73,3.36-.86,0-1.57-.4-2.42-.73v-.07c1.92-.58,3.17-1.04,3.94-1.47-.32-1.55-1.59-3.14-3.85-4.64.14-.52.26-1.56.2-2.21h.07c.76.84,3.75,2.88,3.65,6.81.74-.43,1.01-.83,1.01-1.33,0-1.61-.25-4.07-.39-4.96.45-.46.98-1.12,1.29-1.63h.08c0,.64.07,1.24.07,2.49s-.07,2.74-.07,4.11c0,1.12.52,1.62,1.65,1.62"/>
          <path class="cls-4" d="M428.78,715.94c-.24,0-.34-.23-.34-.65,0-.91.24-1.35.67-1.35,1.38,0,2.62-.27,2.62-.57,0-.28-.8-1.12-1.48-1.61.27-.3.65-1.19.85-1.7h.07c.14.4.78,1.49.78,3.04,0,1.9-.82,2.85-3.17,2.85M428.18,717.2c.98-.07,1.97-.1,2.39-.1.66,0,1.01.12,1.01.54,0,.27-.2.65-.26,1.05h-.07c0-.27-.28-.35-.93-.35-.29,0-1.78.03-2.6.1.14-.25.39-.98.46-1.24"/>
          <path class="cls-4" d="M435.27,714.05c.5,0,1.28,0,2-.05-.3-1.04-1.04-1.69-2.06-1.69-.86,0-1.55.6-1.55,1,0,.35.38.75,1.61.75M438.15,715.94h-.64c-.36,2.15-1.59,3.24-2.97,3.24-.98,0-1.85-.59-2.53-.79v-.07c1.84-.26,4.45-1.4,5.19-2.57-.61.13-1.2.19-2.02.19-1.23,0-1.8-.7-1.8-1.97,0-1.65.8-3.09,2.07-3.09s1.99,1.13,2.13,3.06h.88l-.33,2.01h.02,0Z"/>
          <path class="cls-4" d="M446.62,713.93l-.33,2.01h-.16c-1.61,0-2.06-.47-2.06-1.79,0-.22.03-.52.05-.82-1.42.77-2.48,2.61-5.98,2.61-.24,0-.34-.23-.34-.65,0-.91.25-1.36.67-1.36,4.07,0,4.88-.71,6.04-1.07v-.07c-1.96-.35-3.12-1.04-4.1-1.04-.59,0-1.02.25-1.31.78h-.07c.49-1.91.98-2.28,1.71-2.28,1.3,0,3.32,1.34,5.46,1.43v.07c-.22.2-.68.85-.88,1.24-.4.01-.74.11-1.05.26.18.57.83.68,2.18.68h.17Z"/>
          <path class="cls-4" d="M450.23,710.69c-.98.07-1.97.1-2.39.1-.66,0-1.01-.13-1.01-.55,0-.26.2-.65.26-1.05h.07c0,.27.28.35.93.35.29,0,1.78-.03,2.6-.1-.14.25-.4.98-.46,1.25M449.43,713.5h-.08c-.05,1.75-.96,2.44-3.05,2.44-.24,0-.34-.23-.34-.65,0-.91.25-1.36.67-1.36,2.38,0,2.76-.39,3.03-2h.13v.69c0,.82.41,1.31,1.71,1.31l-.32,2.01c-1.04,0-1.95-.5-1.74-2.44"/>
          <path class="cls-4" d="M452.64,715.39c-.31.43-.73.55-1.41.55-.22,0-.41-.22-.41-.67,0-.91.25-1.34.67-1.34,1.07,0,1.64-.18,1.64-.44,0-1.11-.68-5.11-.89-6.09.45-.46.97-1.17,1.3-1.69h.07c0,.65.17,3.49.17,5.64,0,1.16-.4,3-1.14,4.04"/>
          <path class="cls-4" d="M456.84,711.18c0,3.32-.32,3.37-.78,4.98h-.07c.07-1.83-.47-7.76-.67-8.76.45-.45.98-1.17,1.3-1.69h.07c0,.64.15,3.34.15,5.47"/>
          <path class="cls-4" d="M466.44,711.49c-.98.07-1.97.1-2.39.1-.66,0-1.01-.13-1.01-.55,0-.27.2-.65.26-1.05h.07c0,.27.28.35.93.35.29,0,1.78-.03,2.6-.1-.15.25-.4.98-.46,1.24M464.56,716.01c-2.97,0-4.13-.92-4.13-2.7,0-.63.08-1.39.49-2.48h.13c-.14.5-.19.88-.19,1.32,0,1.04,1.23,1.85,3.9,1.85,3.61,0,5.05-.81,5.05-1.15,0-.28-.79-1.12-1.47-1.62.27-.3.65-1.19.85-1.7h.07c.15.4.78,1.49.78,3.04,0,2.27-1.4,3.43-5.47,3.43"/>
          <path class="cls-4" d="M471.98,713.21c-.13-3.93-.25-4.62-.53-5.81.45-.45.98-1.17,1.3-1.69h.07c0,.64.07,1.24.07,2.49s-.07,2.74-.07,4.15c0,1.08.5,1.58,1.76,1.58l-.33,2.01c-1.58,0-2.21-.64-2.28-2.73"/>
          <path class="cls-4" d="M476.77,712.85c.45.66,1.81,1.08,2.6,1.08.54,0,.78-.1.78-.32,0-.63-.79-1.58-1.93-1.58-.67,0-1.15.29-1.45.82M480.42,713.41c0,1.57-.63,2.52-1.31,2.52-1.47,0-2.8-.71-2.85-1.74-.01-.34.05-.74.11-1.02h-.07c-.31.8-.39,2.76-2.04,2.76-.21,0-.34-.2-.34-.65,0-.9.26-1.35.67-1.35.83,0,1.29-.19,1.71-1.37l.27.21c.77-1.62,1.29-2.17,2.04-2.17,1.14,0,1.81,1.27,1.81,2.81"/>
          <path class="cls-4" d="M483.73,714.05c.5,0,1.28,0,2-.05-.3-1.04-1.04-1.69-2.06-1.69-.86,0-1.55.6-1.55,1,0,.35.38.75,1.61.75M486.61,715.94h-.64c-.36,2.15-1.59,3.24-2.97,3.24-.98,0-1.85-.59-2.53-.79v-.07c1.84-.26,4.45-1.4,5.19-2.57-.61.13-1.2.19-2.02.19-1.23,0-1.8-.7-1.8-1.97,0-1.65.8-3.09,2.07-3.09s1.99,1.13,2.14,3.06h.88l-.33,2.01h.01Z"/>
          <path class="cls-4" d="M488.78,713.5h-.07c-.06,1.86-.78,2.44-2.03,2.44-.22,0-.41-.2-.41-.65,0-.91.25-1.36.67-1.36.99,0,1.64-.28,1.64-.72-.13-3.84-.26-4.53-.53-5.72.46-.45.98-1.26,1.3-1.78h.07c0,.64.07,1.24.07,2.49s-.07,2.74-.07,4.15c0,1.08.5,1.58,1.76,1.58l-.32,2.01c-1.2,0-2.21-.58-2.09-2.44"/>
          <path class="cls-4" d="M492.49,711.85c.47.37,1.46,1.11,2.07,1.58.93-.49,1.75-1,2.53-1.51-.67-.28-1.45-.43-2.32-.43-.72,0-1.53.13-2.28.35M498.17,713.93l-.33,2.01h-.35c-1.53,0-2.48-.22-3.06-1.23-1.31,1-2.08,1.23-3.56,1.23-.24,0-.34-.23-.34-.65,0-.91.25-1.36.67-1.36,1.08,0,1.83-.05,2.44-.18-.38-.59-.98-1.32-1.34-1.84-.29.1-.57.21-.83.32l-.07-.07c.13-.26.47-1.04.58-1.43.76-.35,2-.66,3-.66.88,0,1.93.2,2.8.63-.13.2-.4.78-.59,1.36-.3.37-.83.91-1.64,1.67.43.17,1.12.19,2.22.19h.42-.02,0Z"/>
          <path class="cls-4" d="M500.36,712.85c.45.66,1.81,1.08,2.6,1.08.54,0,.78-.1.78-.32,0-.63-.79-1.58-1.93-1.58-.66,0-1.15.29-1.45.82M504.01,713.41c0,1.57-.63,2.52-1.31,2.52-1.47,0-2.8-.71-2.85-1.74-.01-.34.05-.74.11-1.02h-.07c-.31.8-.39,2.76-2.04,2.76-.21,0-.34-.2-.34-.65,0-.9.26-1.35.67-1.35.83,0,1.29-.19,1.71-1.37l.27.21c.77-1.62,1.29-2.17,2.04-2.17,1.14,0,1.81,1.27,1.81,2.81"/>
        </g>
        <g>
          <path class="cls-4" d="M106.94,703.04h.88v6.94h3.38v.76h-4.26v-7.7h0Z"/>
          <path class="cls-4" d="M112.23,703.04h.9l2.5,4.08,2.46-4.08h.9l-3.3,5.6h-.14l-3.32-5.6h0ZM115.2,707.57h.87v3.17h-.87v-3.17Z"/>
          <path class="cls-4" d="M123.27,703.01c.51,0,.96.08,1.33.23.37.15.65.37.85.66.2.29.3.63.3,1.03s-.11.75-.34,1.03c-.22.29-.53.5-.92.65.51.15.9.4,1.19.74.29.34.43.75.43,1.23s-.12.85-.35,1.18c-.23.33-.56.58-.98.76s-.93.26-1.51.26-1.09-.09-1.52-.26c-.43-.17-.75-.42-.98-.75s-.34-.72-.34-1.17c0-.5.15-.92.45-1.25.3-.34.7-.58,1.2-.74-.4-.15-.72-.38-.95-.67s-.34-.64-.34-1.05.1-.74.3-1.02.49-.5.86-.65.8-.23,1.3-.23l.02.02h0ZM123.27,707c-.62,0-1.11.13-1.47.4s-.53.64-.53,1.12.18.89.53,1.17c.36.28.85.42,1.48.42s1.12-.14,1.47-.41c.35-.27.53-.66.53-1.16s-.18-.85-.53-1.12c-.36-.27-.85-.41-1.48-.41h0ZM123.28,703.63c-.54,0-.96.12-1.26.36s-.46.57-.46.98.15.76.46,1,.72.36,1.26.36.95-.12,1.25-.36.45-.57.45-1-.15-.75-.45-.98c-.3-.24-.72-.36-1.25-.36Z"/>
          <path class="cls-4" d="M131.01,703.01c.51,0,.96.08,1.33.23.37.15.65.37.85.66.2.29.3.63.3,1.03s-.11.75-.34,1.03c-.22.29-.53.5-.92.65.51.15.9.4,1.19.74.29.34.43.75.43,1.23s-.12.85-.35,1.18c-.23.33-.56.58-.98.76s-.93.26-1.51.26-1.09-.09-1.52-.26c-.43-.17-.75-.42-.98-.75s-.34-.72-.34-1.17c0-.5.15-.92.45-1.25.3-.34.7-.58,1.2-.74-.4-.15-.72-.38-.95-.67s-.34-.64-.34-1.05.1-.74.3-1.02.49-.5.86-.65.8-.23,1.3-.23l.02.02h0ZM131.01,707c-.62,0-1.11.13-1.47.4s-.53.64-.53,1.12.18.89.53,1.17c.36.28.85.42,1.48.42s1.12-.14,1.47-.41c.35-.27.53-.66.53-1.16s-.18-.85-.53-1.12c-.36-.27-.85-.41-1.48-.41h0ZM131.02,703.63c-.54,0-.96.12-1.26.36s-.46.57-.46.98.15.76.46,1,.72.36,1.26.36.95-.12,1.25-.36.45-.57.45-1-.15-.75-.45-.98c-.3-.24-.72-.36-1.25-.36Z"/>
          <path class="cls-4" d="M139.26,703.01c1.03,0,1.81.34,2.36,1.01s.83,1.63.83,2.88-.27,2.21-.83,2.88c-.55.67-1.34,1.01-2.36,1.01s-1.8-.34-2.35-1.01-.83-1.64-.83-2.88.27-2.21.83-2.88c.55-.67,1.33-1.01,2.35-1.01ZM139.26,703.68c-.75,0-1.31.27-1.7.81-.38.54-.58,1.34-.58,2.4s.19,1.86.58,2.4c.39.54.95.81,1.7.81s1.32-.27,1.71-.81.58-1.34.58-2.4-.19-1.87-.58-2.4c-.39-.54-.96-.81-1.71-.81Z"/>
          <path class="cls-4" d="M147.81,703.01c1.03,0,1.81.34,2.36,1.01s.83,1.63.83,2.88-.27,2.21-.83,2.88c-.55.67-1.34,1.01-2.36,1.01s-1.8-.34-2.35-1.01-.83-1.64-.83-2.88.27-2.21.83-2.88c.55-.67,1.33-1.01,2.35-1.01ZM147.81,703.68c-.75,0-1.31.27-1.7.81-.38.54-.58,1.34-.58,2.4s.19,1.86.58,2.4c.39.54.95.81,1.7.81s1.32-.27,1.71-.81.58-1.34.58-2.4-.19-1.87-.58-2.4c-.39-.54-.96-.81-1.71-.81Z"/>
          <path class="cls-4" d="M155.76,706.91c.34-.34.6-.69.8-1.03s.3-.64.3-.9c0-.39-.14-.69-.43-.91s-.68-.33-1.19-.33c-.37,0-.74.08-1.13.25s-.74.4-1.06.69l-.38-.64c.39-.32.81-.58,1.28-.76.46-.19.93-.28,1.4-.28s.92.08,1.28.23c.36.15.65.37.85.65s.3.61.3,1c0,.36-.13.76-.39,1.19s-.6.87-1.03,1.31l-2.75,2.88-.12-.27h4.76v.76h-5.51v-.68l3.02-3.15h0Z"/>
          <path class="cls-4" d="M159.39,703.04h2.68v7.7h-.87v-7.33l.39.38h-2.2v-.76h0Z"/>
          <path class="cls-4" d="M168.07,703.01c1.03,0,1.81.34,2.36,1.01s.83,1.63.83,2.88-.27,2.21-.83,2.88c-.55.67-1.34,1.01-2.36,1.01s-1.8-.34-2.35-1.01-.83-1.64-.83-2.88.27-2.21.83-2.88c.55-.67,1.33-1.01,2.35-1.01ZM168.07,703.68c-.75,0-1.31.27-1.7.81-.38.54-.58,1.34-.58,2.4s.19,1.86.58,2.4c.39.54.95.81,1.7.81s1.32-.27,1.71-.81.58-1.34.58-2.4-.19-1.87-.58-2.4c-.39-.54-.96-.81-1.71-.81Z"/>
          <path class="cls-4" d="M175.8,706.33c.78.04,1.42.23,1.89.59s.71.84.71,1.47c0,.47-.12.88-.36,1.25s-.58.65-1.02.85c-.44.2-.97.3-1.58.3-.48,0-.96-.07-1.44-.21s-.88-.32-1.22-.55l.38-.67c.3.22.65.39,1.03.52.39.13.78.19,1.19.19.45,0,.84-.07,1.16-.21s.56-.33.74-.58c.17-.25.26-.54.26-.86,0-.5-.19-.88-.58-1.13-.38-.26-.92-.38-1.61-.38h-1.01v-.55l2.83-2.85.12.3h-4.15v-.76h4.86v.55l-2.96,2.99-.12-.3.87.04h0Z"/>
          <path class="cls-4" d="M179.76,703.04h2.68v7.7h-.87v-7.33l.39.38h-2.2v-.76h0Z"/>
          <path class="cls-4" d="M188.44,703.01c1.03,0,1.81.34,2.36,1.01s.83,1.63.83,2.88-.27,2.21-.83,2.88c-.55.67-1.34,1.01-2.36,1.01s-1.8-.34-2.35-1.01-.83-1.64-.83-2.88.27-2.21.83-2.88c.55-.67,1.33-1.01,2.35-1.01h0ZM188.44,703.68c-.75,0-1.31.27-1.7.81-.38.54-.58,1.34-.58,2.4s.19,1.86.58,2.4c.39.54.95.81,1.7.81s1.32-.27,1.71-.81c.39-.54.58-1.34.58-2.4s-.19-1.87-.58-2.4c-.39-.54-.96-.81-1.71-.81h0Z"/>
          <path class="cls-4" d="M196.16,706.33c.78.04,1.42.23,1.89.59s.71.84.71,1.47c0,.47-.12.88-.36,1.25s-.58.65-1.02.85c-.44.2-.97.3-1.58.3-.48,0-.96-.07-1.44-.21s-.88-.32-1.22-.55l.38-.67c.3.22.65.39,1.03.52.39.13.78.19,1.19.19.45,0,.84-.07,1.16-.21s.56-.33.74-.58c.17-.25.26-.54.26-.86,0-.5-.19-.88-.58-1.13-.38-.26-.92-.38-1.61-.38h-1.01v-.55l2.83-2.85.12.3h-4.15v-.76h4.86v.55l-2.96,2.99-.12-.3.87.04h0Z"/>
          <path class="cls-4" d="M203.5,706.91c.34-.34.6-.69.8-1.03.2-.34.3-.64.3-.9,0-.39-.14-.69-.43-.91-.29-.22-.68-.33-1.19-.33-.37,0-.74.08-1.13.25s-.74.4-1.06.69l-.38-.64c.39-.32.81-.58,1.28-.76.46-.19.93-.28,1.4-.28s.92.08,1.28.23c.36.15.65.37.85.65s.3.61.3,1c0,.36-.13.76-.39,1.19s-.6.87-1.03,1.31l-2.75,2.88-.12-.27h4.76v.76h-5.51v-.68l3.02-3.15h0Z"/>
          <path class="cls-4" d="M211.1,703.01c1.03,0,1.81.34,2.36,1.01s.83,1.63.83,2.88-.27,2.21-.83,2.88c-.55.67-1.34,1.01-2.36,1.01s-1.8-.34-2.35-1.01c-.55-.67-.83-1.64-.83-2.88s.27-2.21.83-2.88c.55-.67,1.33-1.01,2.35-1.01ZM211.1,703.68c-.75,0-1.31.27-1.7.81-.38.54-.58,1.34-.58,2.4s.19,1.86.58,2.4c.39.54.95.81,1.7.81s1.32-.27,1.71-.81c.39-.54.58-1.34.58-2.4s-.19-1.87-.58-2.4c-.39-.54-.96-.81-1.71-.81Z"/>
          <path class="cls-4" d="M215.68,703.04h2.68v7.7h-.87v-7.33l.38.38h-2.2v-.76h.01Z"/>
          <path class="cls-4" d="M224.36,703.01c1.03,0,1.81.34,2.37,1.01.55.67.82,1.63.82,2.88s-.27,2.21-.82,2.88c-.55.67-1.34,1.01-2.37,1.01s-1.8-.34-2.35-1.01c-.55-.67-.82-1.64-.82-2.88s.27-2.21.82-2.88c.55-.67,1.33-1.01,2.35-1.01ZM224.36,703.68c-.75,0-1.31.27-1.7.81s-.58,1.34-.58,2.4.19,1.86.58,2.4c.38.54.95.81,1.7.81s1.32-.27,1.71-.81.58-1.34.58-2.4-.19-1.87-.58-2.4-.96-.81-1.71-.81Z"/>
          <path class="cls-4" d="M232.91,703.01c1.03,0,1.81.34,2.37,1.01.55.67.82,1.63.82,2.88s-.27,2.21-.82,2.88c-.55.67-1.34,1.01-2.37,1.01s-1.8-.34-2.35-1.01c-.55-.67-.82-1.64-.82-2.88s.27-2.21.82-2.88c.55-.67,1.33-1.01,2.35-1.01ZM232.91,703.68c-.75,0-1.31.27-1.7.81s-.58,1.34-.58,2.4.19,1.86.58,2.4c.38.54.95.81,1.7.81s1.32-.27,1.71-.81.58-1.34.58-2.4-.19-1.87-.58-2.4-.96-.81-1.71-.81Z"/>
          <path class="cls-4" d="M241.46,703.01c1.03,0,1.81.34,2.37,1.01.55.67.82,1.63.82,2.88s-.27,2.21-.82,2.88c-.55.67-1.34,1.01-2.37,1.01s-1.8-.34-2.35-1.01c-.55-.67-.82-1.64-.82-2.88s.27-2.21.82-2.88c.55-.67,1.33-1.01,2.35-1.01ZM241.46,703.68c-.75,0-1.31.27-1.7.81s-.58,1.34-.58,2.4.19,1.86.58,2.4c.38.54.95.81,1.7.81s1.32-.27,1.71-.81.58-1.34.58-2.4-.19-1.87-.58-2.4-.96-.81-1.71-.81Z"/>
          <path class="cls-4" d="M250.01,703.01c1.03,0,1.81.34,2.37,1.01.55.67.82,1.63.82,2.88s-.27,2.21-.82,2.88c-.55.67-1.34,1.01-2.37,1.01s-1.8-.34-2.35-1.01c-.55-.67-.82-1.64-.82-2.88s.27-2.21.82-2.88c.55-.67,1.33-1.01,2.35-1.01ZM250.01,703.68c-.75,0-1.31.27-1.7.81s-.58,1.34-.58,2.4.19,1.86.58,2.4c.38.54.95.81,1.7.81s1.32-.27,1.71-.81.58-1.34.58-2.4-.19-1.87-.58-2.4-.96-.81-1.71-.81Z"/>
          <path class="cls-4" d="M257.73,706.33c.79.04,1.42.23,1.89.59.48.36.72.84.72,1.47,0,.47-.12.88-.36,1.25s-.58.65-1.02.85c-.44.2-.97.3-1.58.3-.48,0-.96-.07-1.44-.21-.47-.14-.88-.32-1.21-.55l.38-.67c.3.22.65.39,1.03.52.39.13.78.19,1.19.19.46,0,.84-.07,1.16-.21s.56-.33.74-.58c.17-.25.26-.54.26-.86,0-.5-.19-.88-.58-1.13-.39-.26-.92-.38-1.61-.38h-1.01v-.55l2.83-2.85.12.3h-4.15v-.76h4.86v.55l-2.96,2.99-.12-.3.87.04h-.01Z"/>
          <path class="cls-4" d="M261.84,708.68v-.67l2.85-4.97h.87l-2.97,5.2-.2-.32h5.36v.76h-5.91,0ZM265.71,705.82h.83v4.92h-.83v-4.92Z"/>
          <path class="cls-4" d="M272.22,706.91c.34-.34.6-.69.8-1.03s.3-.64.3-.9c0-.39-.14-.69-.43-.91s-.68-.33-1.19-.33c-.37,0-.74.08-1.13.25s-.74.4-1.06.69l-.39-.64c.39-.32.81-.58,1.28-.76.46-.19.93-.28,1.4-.28s.92.08,1.28.23.65.37.85.65.3.61.3,1c0,.36-.13.76-.39,1.19s-.6.87-1.03,1.31l-2.75,2.88-.12-.27h4.76v.76h-5.51v-.68l3.03-3.15h0Z"/>
          <path class="cls-4" d="M275.85,703.04h2.68v7.7h-.87v-7.33l.38.38h-2.2v-.76h.01Z"/>
          <path class="cls-4" d="M280.56,703.04h2.68v7.7h-.87v-7.33l.38.38h-2.2v-.76h.01Z"/>
          <path class="cls-4" d="M106.94,716.24h.88v6.94h3.38v.76h-4.26v-7.7h0Z"/>
          <path class="cls-4" d="M112.46,716.24h.9l2.5,4.08,2.46-4.08h.9l-3.3,5.6h-.14l-3.32-5.6h0ZM115.43,720.77h.87v3.17h-.87v-3.17Z"/>
          <path class="cls-4" d="M122.32,719.7l-.2-.37c.13-.03.29-.05.48-.08.19-.02.39-.04.59-.05s.38-.02.53-.02c.57,0,1.07.1,1.48.29.41.19.74.46.97.8.23.34.35.73.35,1.17,0,.51-.12.96-.35,1.34-.23.38-.57.68-1,.89s-.93.31-1.51.31c-.45,0-.92-.08-1.41-.23-.49-.15-.94-.35-1.33-.6l.36-.68c.34.23.71.42,1.12.56.41.14.8.2,1.18.2.61,0,1.09-.16,1.46-.47.36-.32.54-.74.54-1.27,0-.48-.18-.86-.53-1.14-.36-.28-.86-.42-1.52-.42-.11,0-.25,0-.42.02-.17.01-.35.03-.54.04-.19.02-.39.04-.57.07s-.35.06-.5.09v-3.92h4.71v.76h-4.28l.4-.38v3.08h0Z"/>
          <path class="cls-4" d="M133.69,717.39c-.26-.15-.54-.26-.86-.35-.32-.08-.63-.13-.93-.13-.56,0-1.03.15-1.4.45s-.63.72-.8,1.25c-.17.54-.23,1.18-.19,1.92.18-.48.46-.86.86-1.12s.89-.39,1.46-.39c.51,0,.96.1,1.33.3s.66.48.86.84.3.79.3,1.29c0,.53-.11.98-.32,1.36-.22.38-.52.67-.92.88s-.86.31-1.4.31c-.63,0-1.17-.14-1.63-.43-.45-.29-.8-.71-1.05-1.26s-.37-1.23-.37-2.02.13-1.53.39-2.13c.26-.61.63-1.08,1.11-1.42.48-.34,1.05-.51,1.7-.51.36,0,.74.05,1.13.15.4.1.76.23,1.08.39l-.35.64v-.02h0ZM131.68,719.71c-.41,0-.77.08-1.07.25s-.53.39-.68.66c-.15.27-.23.57-.23.88,0,.19.04.39.11.59s.19.4.34.57c.15.18.35.32.59.42.24.11.53.16.87.16.37,0,.69-.07.97-.21s.5-.35.66-.63.24-.6.24-.97c0-.54-.16-.96-.49-1.27s-.76-.46-1.31-.46h0Z"/>
          <path class="cls-4" d="M139.9,716.21c1.03,0,1.81.34,2.36,1.01s.83,1.63.83,2.88-.27,2.21-.83,2.88c-.55.67-1.34,1.01-2.36,1.01s-1.8-.34-2.35-1.01-.83-1.64-.83-2.88.27-2.21.83-2.88c.55-.67,1.33-1.01,2.35-1.01ZM139.9,716.88c-.75,0-1.31.27-1.7.81-.38.54-.58,1.34-.58,2.4s.19,1.86.58,2.4c.39.54.95.81,1.7.81s1.32-.27,1.71-.81.58-1.34.58-2.4-.19-1.87-.58-2.4c-.39-.54-.96-.81-1.71-.81Z"/>
          <path class="cls-4" d="M148.09,720.11c.34-.34.6-.69.8-1.03s.3-.64.3-.9c0-.39-.14-.69-.43-.91s-.68-.33-1.19-.33c-.37,0-.74.08-1.13.25s-.74.4-1.06.69l-.38-.64c.39-.32.81-.58,1.28-.76.46-.19.93-.28,1.4-.28s.92.08,1.28.23c.36.15.65.37.85.65s.3.61.3,1c0,.36-.13.76-.39,1.19s-.6.87-1.03,1.31l-2.75,2.88-.12-.27h4.76v.76h-5.51v-.68l3.02-3.15h0Z"/>
          <path class="cls-4" d="M153.99,719.7l-.2-.37c.13-.03.29-.05.48-.08.19-.02.39-.04.59-.05s.38-.02.53-.02c.57,0,1.07.1,1.48.29.41.19.74.46.97.8.23.34.35.73.35,1.17,0,.51-.12.96-.35,1.34-.23.38-.57.68-1,.89s-.93.31-1.51.31c-.45,0-.92-.08-1.41-.23-.49-.15-.94-.35-1.33-.6l.36-.68c.34.23.71.42,1.12.56.41.14.8.2,1.18.2.61,0,1.09-.16,1.46-.47.36-.32.54-.74.54-1.27,0-.48-.18-.86-.53-1.14-.36-.28-.86-.42-1.52-.42-.11,0-.25,0-.42.02-.17.01-.35.03-.54.04-.19.02-.39.04-.57.07s-.35.06-.5.09v-3.92h4.71v.76h-4.28l.4-.38v3.08h0Z"/>
          <path class="cls-4" d="M163.61,716.21c1.03,0,1.81.34,2.36,1.01s.83,1.63.83,2.88-.27,2.21-.83,2.88c-.55.67-1.34,1.01-2.36,1.01s-1.8-.34-2.35-1.01-.83-1.64-.83-2.88.27-2.21.83-2.88c.55-.67,1.33-1.01,2.35-1.01ZM163.61,716.88c-.75,0-1.31.27-1.7.81-.38.54-.58,1.34-.58,2.4s.19,1.86.58,2.4c.39.54.95.81,1.7.81s1.32-.27,1.71-.81.58-1.34.58-2.4-.19-1.87-.58-2.4c-.39-.54-.96-.81-1.71-.81Z"/>
          <path class="cls-4" d="M168.42,716.24h2.68v7.7h-.87v-7.33l.39.38h-2.2v-.76h0Z"/>
          <path class="cls-4" d="M177.33,716.21c1.03,0,1.81.34,2.36,1.01s.83,1.63.83,2.88-.27,2.21-.83,2.88c-.55.67-1.34,1.01-2.36,1.01s-1.8-.34-2.35-1.01-.83-1.64-.83-2.88.27-2.21.83-2.88c.55-.67,1.33-1.01,2.35-1.01ZM177.33,716.88c-.75,0-1.31.27-1.7.81-.38.54-.58,1.34-.58,2.4s.19,1.86.58,2.4c.39.54.95.81,1.7.81s1.32-.27,1.71-.81.58-1.34.58-2.4-.19-1.87-.58-2.4c-.39-.54-.96-.81-1.71-.81Z"/>
          <path class="cls-4" d="M182.15,716.24h2.68v7.7h-.87v-7.33l.39.38h-2.2v-.76h0Z"/>
          <path class="cls-4" d="M187.24,721.88v-.67l2.85-4.97h.87l-2.97,5.2-.2-.32h5.36v.76h-5.91,0ZM191.1,719.02h.82v4.92h-.82v-4.92Z"/>
          <path class="cls-4" d="M194.47,716.24h2.68v7.7h-.87v-7.33l.39.38h-2.2v-.76h0Z"/>
          <path class="cls-4" d="M205.14,717.39c-.26-.15-.54-.26-.86-.35-.32-.08-.63-.13-.93-.13-.56,0-1.03.15-1.4.45s-.63.72-.8,1.25c-.17.54-.23,1.18-.19,1.92.18-.48.46-.86.86-1.12s.89-.39,1.46-.39c.51,0,.96.1,1.33.3s.66.48.86.84.3.79.3,1.29c0,.53-.11.98-.32,1.36-.22.38-.52.67-.92.88s-.86.31-1.4.31c-.63,0-1.17-.14-1.63-.43-.45-.29-.8-.71-1.05-1.26s-.37-1.23-.37-2.02.13-1.53.39-2.13c.26-.61.63-1.08,1.11-1.42.48-.34,1.05-.51,1.7-.51.36,0,.74.05,1.13.15.4.1.76.23,1.08.39l-.35.64v-.02h0ZM203.13,719.71c-.41,0-.77.08-1.07.25-.3.17-.53.39-.68.66-.15.27-.23.57-.23.88,0,.19.04.39.11.59s.19.4.34.57c.15.18.35.32.59.42.24.11.53.16.87.16.37,0,.69-.07.97-.21s.5-.35.66-.63.24-.6.24-.97c0-.54-.16-.96-.49-1.27s-.76-.46-1.31-.46h0Z"/>
          <path class="cls-4" d="M209.42,719.7l-.2-.37c.13-.03.29-.05.48-.08.19-.02.39-.04.59-.05.2-.01.38-.02.53-.02.57,0,1.07.1,1.48.29s.74.46.97.8c.23.34.35.73.35,1.17,0,.51-.12.96-.35,1.34s-.57.68-1,.89-.93.31-1.51.31c-.45,0-.92-.08-1.41-.23-.49-.15-.94-.35-1.33-.6l.36-.68c.34.23.71.42,1.12.56s.8.2,1.18.2c.61,0,1.09-.16,1.46-.47.36-.32.54-.74.54-1.27,0-.48-.18-.86-.53-1.14-.36-.28-.86-.42-1.52-.42-.11,0-.25,0-.42.02-.17.01-.35.03-.54.04-.19.02-.39.04-.57.07s-.35.06-.5.09v-3.92h4.71v.76h-4.28l.4-.38v3.08h0Z"/>
          <path class="cls-4" d="M218.52,716.21c.51,0,.96.08,1.33.23s.65.37.85.66.3.63.3,1.03-.11.75-.34,1.03c-.22.29-.53.5-.92.65.51.15.9.4,1.19.74.29.34.43.75.43,1.23s-.12.85-.35,1.18-.56.58-.98.76-.93.26-1.51.26-1.09-.09-1.52-.26c-.42-.17-.75-.42-.98-.75s-.34-.72-.34-1.17c0-.5.15-.92.45-1.25.3-.34.7-.58,1.2-.74-.4-.15-.72-.38-.95-.67s-.34-.64-.34-1.05.1-.74.3-1.02.49-.5.86-.65.8-.23,1.3-.23l.02.02h0ZM218.52,720.2c-.62,0-1.11.13-1.47.4-.36.27-.53.64-.53,1.12s.18.89.53,1.17c.36.28.85.42,1.48.42s1.12-.14,1.47-.41c.35-.27.53-.66.53-1.16s-.18-.85-.53-1.12c-.36-.27-.85-.41-1.48-.41h0ZM218.53,716.83c-.54,0-.96.12-1.26.36s-.46.57-.46.98.15.76.46,1,.72.36,1.26.36.95-.12,1.25-.36.45-.57.45-1-.15-.75-.45-.98-.72-.36-1.25-.36Z"/>
          <path class="cls-4" d="M228.75,717.39c-.26-.15-.54-.26-.86-.35-.32-.08-.63-.13-.93-.13-.57,0-1.03.15-1.4.45s-.63.72-.8,1.25-.23,1.18-.19,1.92c.18-.48.46-.86.86-1.12s.89-.39,1.46-.39c.51,0,.96.1,1.33.3s.66.48.86.84c.2.36.3.79.3,1.29,0,.53-.11.98-.32,1.36-.22.38-.52.67-.92.88-.4.21-.86.31-1.4.31-.63,0-1.17-.14-1.63-.43-.45-.29-.8-.71-1.05-1.26s-.37-1.23-.37-2.02.13-1.53.39-2.13c.26-.61.63-1.08,1.11-1.42.48-.34,1.05-.51,1.7-.51.36,0,.74.05,1.13.15.4.1.76.23,1.08.39l-.35.64v-.02h0ZM226.75,719.71c-.41,0-.77.08-1.07.25-.3.17-.53.39-.68.66-.15.27-.23.57-.23.88,0,.19.04.39.11.59s.19.4.34.57c.15.18.35.32.59.42.24.11.53.16.87.16.37,0,.69-.07.97-.21s.5-.35.66-.63.24-.6.24-.97c0-.54-.16-.96-.49-1.27s-.76-.46-1.31-.46h0Z"/>
          <path class="cls-4" d="M231.15,721.88v-.67l2.85-4.97h.87l-2.97,5.2-.2-.32h5.36v.76h-5.91,0ZM235.02,719.02h.83v4.92h-.83v-4.92Z"/>
          <path class="cls-4" d="M241.53,719.53c.79.04,1.42.23,1.89.59.48.36.72.84.72,1.47,0,.47-.12.88-.36,1.25s-.58.65-1.02.85c-.44.2-.97.3-1.58.3-.48,0-.96-.07-1.44-.21-.47-.14-.88-.32-1.21-.55l.38-.67c.3.22.65.39,1.03.52.39.13.78.19,1.19.19.46,0,.84-.07,1.16-.21s.56-.33.74-.58c.17-.25.26-.54.26-.86,0-.5-.19-.88-.58-1.13-.39-.26-.92-.38-1.61-.38h-1.01v-.55l2.83-2.85.12.3h-4.15v-.76h4.86v.55l-2.96,2.99-.12-.3.87.04h-.01Z"/>
          <path class="cls-4" d="M245.88,721.88v-.67l2.85-4.97h.87l-2.97,5.2-.2-.32h5.36v.76h-5.91,0ZM249.74,719.02h.83v4.92h-.83v-4.92Z"/>
          <path class="cls-4" d="M253.11,716.24h2.68v7.7h-.87v-7.33l.38.38h-2.2v-.76h.01Z"/>
          <path class="cls-4" d="M262.02,716.21c1.03,0,1.81.34,2.37,1.01.55.67.82,1.63.82,2.88s-.27,2.21-.82,2.88c-.55.67-1.34,1.01-2.37,1.01s-1.8-.34-2.35-1.01c-.55-.67-.82-1.64-.82-2.88s.27-2.21.82-2.88c.55-.67,1.33-1.01,2.35-1.01ZM262.02,716.88c-.75,0-1.31.27-1.7.81s-.58,1.34-.58,2.4.19,1.86.58,2.4c.38.54.95.81,1.7.81s1.32-.27,1.71-.81.58-1.34.58-2.4-.19-1.87-.58-2.4-.96-.81-1.71-.81Z"/>
          <path class="cls-4" d="M270.81,716.21c1.03,0,1.81.34,2.37,1.01.55.67.82,1.63.82,2.88s-.27,2.21-.82,2.88c-.55.67-1.34,1.01-2.37,1.01s-1.8-.34-2.35-1.01c-.55-.67-.82-1.64-.82-2.88s.27-2.21.82-2.88c.55-.67,1.33-1.01,2.35-1.01ZM270.81,716.88c-.75,0-1.31.27-1.7.81s-.58,1.34-.58,2.4.19,1.86.58,2.4c.38.54.95.81,1.7.81s1.32-.27,1.71-.81.58-1.34.58-2.4-.19-1.87-.58-2.4-.96-.81-1.71-.81Z"/>
          <path class="cls-4" d="M275.62,716.24h2.68v7.7h-.87v-7.33l.38.38h-2.2v-.76h.01Z"/>
          <path class="cls-4" d="M280.56,716.24h2.68v7.7h-.87v-7.33l.38.38h-2.2v-.76h.01Z"/>
        </g>
        <g>
          <path class="cls-4" d="M298.04,708.07l-.17,1.02c-.88,0-1.36-.48-1.41-1.74h-.05c-.12.88-.54,1.31-1.4,1.31-.66,0-.98-.3-.98-.81,0-.73.46-1.29,2.21-2.37-.03-.18-.06-.33-.08-.44.17-.13.43-.41.59-.68h.03c.05.45.13,1.04.13,2.48,0,.86.39,1.24,1.12,1.24h.01ZM296.38,707.01c0-.38-.04-.82-.08-1.2-1.57.83-1.97,1.22-1.97,1.47s.2.38.79.38c.76,0,1.26-.28,1.26-.65h0ZM295.14,703.46c0-.14.1-.34.14-.55h.05c0,.16.16.21.61.21.2,0,1.13-.02,1.6-.06-.08.13-.21.51-.24.65-.61.04-1.23.06-1.48.06-.44,0-.67-.08-.67-.32h0Z"/>
          <path class="cls-4" d="M297.87,709.08c-.15,0-.21-.12-.21-.34,0-.45.13-.68.38-.68,2.02,0,2.69-.2,2.69-.45s-.46-.86-.85-1.2c.14-.16.33-.61.44-.88h.04c.08.24.5.93.5,1.92,0,1.12-.53,1.62-2.98,1.62h-.01ZM298.15,710.02c.61-.04,1.23-.06,1.48-.06.44,0,.67.07.67.32,0,.14-.1.34-.13.55h-.05c0-.16-.17-.22-.61-.22-.2,0-1.14.02-1.61.06.08-.13.21-.51.24-.65h0Z"/>
          <path class="cls-4" d="M300.22,710.81v-.05c1.43-.22,3.1-1.39,3.1-2.09,0-.22-.3-.67-.96-1.29.13-.2.32-.6.42-.88h.05c.26.49.6,1.12.6,1.9,0,1.7-.97,2.82-2.01,2.82-.48,0-.86-.29-1.19-.4h-.01Z"/>
          <path class="cls-4" d="M307.34,709.08h-.44c-.24,1.34-1.14,2.13-2.11,2.13-.51,0-.99-.31-1.38-.42v-.05c1.33-.12,2.95-.91,3.34-1.74-.43.06-.83.08-1.35.08-.8,0-1.17-.45-1.17-1.23,0-1.05.55-1.92,1.33-1.92s1.34.76,1.4,2.13h.56l-.17,1.02h0ZM305.44,708.13c.37,0,.86,0,1.35-.02-.14-.9-.65-1.43-1.38-1.43-.57,0-1.06.42-1.06.83,0,.3.26.62,1.08.62h.01Z"/>
          <path class="cls-4" d="M310.54,708.97v.05c.3.19.44.39.44.69,0,.81-.55,1.41-1.41,1.41-1.05,0-1.64-.79-1.64-1.93v-.11h-.58c-.19,0-.21-.23-.21-.34,0-.2.04-.68.38-.68h.58c.45-1.53,1.67-2.7,1.86-3.07h.05c0,.91.26,1.92.26,2.35,0,.28-.25.57-.83.78v.05c.5-.08.75-.11,1.5-.11h.73l-.17,1.02c-.37,0-.6-.02-.95-.11h0ZM309.06,708.98c-.35,0-.63.03-.86.08.14.75.72,1.17,1.58,1.17.72,0,1.08-.23,1.08-.42,0-.43-.61-.83-1.8-.83ZM309.51,705.76c-.65.77-1.1,1.65-1.26,2.36,1.02,0,1.5-.18,1.5-.46,0-.35-.2-1.18-.24-1.9h0Z"/>
          <path class="cls-4" d="M311.49,709.08c-.15,0-.21-.12-.21-.34,0-.45.13-.68.38-.68h1.7l-.17,1.02h-1.7Z"/>
          <path class="cls-4" d="M313.18,709.08c-.15,0-.21-.12-.21-.34,0-.45.13-.68.38-.68h1.7l-.17,1.02h-1.7Z"/>
          <path class="cls-4" d="M314.88,709.08c-.15,0-.21-.12-.21-.34,0-.45.13-.68.38-.68h1.7l-.17,1.02h-1.7Z"/>
          <path class="cls-4" d="M316.57,709.08c-.15,0-.21-.12-.21-.34,0-.45.13-.68.38-.68h1.7l-.17,1.02h-1.7Z"/>
          <path class="cls-4" d="M318.27,709.08c-.15,0-.21-.12-.21-.34,0-.45.13-.68.38-.68h1.7l-.17,1.02h-1.7Z"/>
          <path class="cls-4" d="M319.97,709.08c-.15,0-.21-.12-.21-.34,0-.45.13-.68.38-.68h1.7l-.17,1.02h-1.7Z"/>
          <path class="cls-4" d="M325.74,707.89h-.05c-.03.9-.34,1.33-.84,1.33-.91,0-1.72-.48-1.82-1.1-.02-.19,0-.41.03-.57l-.05-.02c-.22.59-.4,1.54-1.36,1.54-.14,0-.21-.11-.21-.34,0-.45.14-.68.38-.68.59,0,.93-.18,1.19-.86l.16.12c.46-1.02.84-1.43,1.39-1.43.47,0,.83.27,1.22,1.16.31.75.64,1.01,1.26,1.01l-.17,1.02c-.62,0-1.03-.38-1.13-1.19h0ZM323.28,707.37c.24.46,1.1.84,1.71.84.4,0,.59-.13.59-.38,0-.57-.51-1.2-1.25-1.2-.47,0-.82.27-1.05.74Z"/>
          <path class="cls-4" d="M332.46,708.07l-.17,1.02h-.12c-1.04,0-1.4-.29-1.4-1.25,0-.11.01-.26.03-.41-.9.52-1.71,1.67-3.93,1.67-.15,0-.21-.12-.21-.34,0-.45.13-.68.38-.68,2.6,0,3.27-.74,4.14-.98v-.05c-1.31-.22-2.07-.72-2.77-.72-.4,0-.68.2-.88.58h-.05c.3-1.1.61-1.35,1.09-1.35.86,0,2.08.85,3.51.91v.05c-.12.12-.36.44-.46.64-.28,0-.52.09-.76.21.09.58.51.7,1.46.7h.14,0ZM329.19,710.42l-.53.58c-.12-.15-.42-.42-.61-.5v-.05l.49-.6c.24.11.54.38.66.57h-.01Z"/>
          <path class="cls-4" d="M333.3,708.77c-.18.24-.48.32-.98.32-.13,0-.23-.12-.23-.35,0-.45.13-.67.38-.67.79,0,1.14-.17,1.14-.4,0-.85-.39-3.84-.51-4.42.23-.23.5-.6.66-.87h.05c0,.44.12,2.71.12,4.21,0,.68-.21,1.64-.63,2.18h0Z"/>
          <path class="cls-4" d="M335.62,706.25c0,1.78-.17,1.99-.4,2.98h-.05c.05-1.23-.26-5.35-.38-5.98.22-.22.5-.6.66-.87h.05c0,.4.12,2.42.12,3.87Z"/>
          <path class="cls-4" d="M344.36,706.9c0,1.6-1.02,2.23-4.01,2.23-1.97,0-2.73-.58-2.73-1.71,0-.38.06-.84.29-1.46h.08c-.1.33-.14.58-.14.9,0,.73.76,1.26,2.61,1.26,2.62,0,3.77-.5,3.78-.98.02-.37-.02-.7-.11-.99l.02.1h-.03c-.11.64-.63,1.03-1.38,1.03s-1.1-.41-1.1-1.06c0-1.01.51-1.86,1.32-1.86.86,0,1.4.85,1.4,2.53h0ZM344.12,706.12c-.22-.66-.7-1.04-1.3-1.04-.56,0-1.04.42-1.04.8,0,.22.25.57,1.08.57.52,0,.96-.13,1.27-.33h0ZM342.25,702.97v-.05l.49-.6c.24.11.54.38.66.57l-.54.58c-.12-.16-.42-.42-.61-.5h0Z"/>
          <path class="cls-4" d="M347.04,709.08c-.25,0-.48-.06-.69-.23-.15,1.43-1.05,2.36-1.99,2.36-.48,0-.86-.29-1.19-.4v-.05c1.32-.2,2.9-1.24,3.09-1.99-.28-.26-.54-.72-.83-1.48.1-.14.26-.51.36-.8h.05c.38,1.25.77,1.58,1.37,1.58l-.17,1.02h0Z"/>
          <path class="cls-4" d="M353.72,708.07l-.17,1.02c-.54,0-.85-.29-.88-1-.4.62-1.18,1-2.21,1-1.25,0-1.93-.43-1.99-1.15h-.05c-.14.77-.64,1.15-1.38,1.15-.14,0-.21-.11-.21-.34,0-.45.14-.68.38-.68.84,0,1.25-.3,1.39-1.13h.08c.04.42.24.72.62.91.96-1.59,1.73-2.25,2.53-2.25.73,0,1.16.55,1.16,1.37,0,.36-.08.68-.22.96.17.09.47.14.88.14h.07,0ZM352.83,707.36c0-.41-.44-.97-1.21-.97-.73,0-1.67.62-2.25,1.48.3.13.72.19,1.25.19,1.32,0,2.21-.29,2.21-.7Z"/>
          <path class="cls-4" d="M357.62,707.62c0,.91-.38,1.46-.87,1.46-.91,0-1.72-.45-1.82-1.07-.02-.19,0-.42.03-.58l-.05-.02c-.22.64-.37,1.66-1.36,1.66-.14,0-.21-.11-.21-.34,0-.45.14-.68.38-.68.59,0,.93-.18,1.19-.98l.16.13c.46-1.03.84-1.44,1.36-1.44.72,0,1.2.8,1.2,1.84v.02h-.01ZM355.17,707.27c.24.45,1.1.8,1.71.8.4,0,.59-.1.59-.34,0-.58-.51-1.21-1.25-1.21-.47,0-.82.28-1.05.75h0Z"/>
          <path class="cls-4" d="M299.43,722.08c-.15,0-.41,0-.68-.01.06.09.09.2.09.31,0,1.26-.96,2.07-2.76,2.07-1.32,0-2.05-.74-2.05-2.02,0-.61.12-1.24.38-1.82h.08c-.14.38-.23.9-.23,1.28,0,.98.7,1.55,1.93,1.55,1.78,0,2.53-.62,2.53-.94,0-.45-1.79-.41-2.63-.66v-.05c.16-.22.36-.52.49-.84.58.1,1.37.11,3.03.11l-.17,1.02h0ZM297.37,725.57c0,.14-.1.34-.13.55h-.05c0-.16-.17-.21-.61-.21-.2,0-1.14.02-1.61.06.08-.13.21-.51.24-.65.61-.04,1.23-.06,1.48-.06.44,0,.67.08.67.32h0Z"/>
          <path class="cls-4" d="M303.5,720.62c0,.91-.38,1.46-.87,1.46-.91,0-1.72-.45-1.82-1.07-.02-.19,0-.42.03-.58l-.05-.02c-.22.64-.37,1.66-1.36,1.66-.14,0-.21-.11-.21-.34,0-.45.14-.68.38-.68.59,0,.93-.18,1.19-.98l.16.13c.46-1.03.83-1.44,1.36-1.44.72,0,1.2.8,1.2,1.84v.02h-.01ZM301.06,720.27c.24.45,1.1.8,1.71.8.4,0,.59-.1.59-.34,0-.58-.51-1.21-1.25-1.21-.47,0-.82.28-1.05.75h0Z"/>
          <path class="cls-4" d="M308.83,721.07l-.17,1.02c-1.01,0-1.43-.34-1.4-2.07h-.04c-.18,1.38-.99,2.07-1.97,2.07-.46,0-.9-.22-1.35-.39v-.05c1.2-.26,2.02-.56,2.54-.88-.14-1.19-1.04-2.41-2.55-3.48.07-.27.13-.8.1-1.13h.05c.46.53,2.49,1.92,2.45,4.58.47-.3.67-.63.67-.98,0-1.56-.12-2.86-.21-3.53.23-.23.5-.58.66-.84h.05c0,.42.05.82.05,1.59,0,.96-.05,2-.05,2.89s.38,1.21,1.18,1.21h-.01Z"/>
          <path class="cls-4" d="M308.46,722.08c-.15,0-.21-.12-.21-.34,0-.45.13-.68.38-.68h1.7l-.17,1.02h-1.7Z"/>
          <path class="cls-4" d="M310.16,722.08c-.15,0-.21-.12-.21-.34,0-.45.13-.68.38-.68h1.7l-.17,1.02h-1.7Z"/>
          <path class="cls-4" d="M311.85,722.08c-.15,0-.21-.12-.21-.34,0-.45.13-.68.38-.68h1.7l-.17,1.02h-1.7Z"/>
          <path class="cls-4" d="M313.55,722.08c-.15,0-.21-.12-.21-.34,0-.45.13-.68.38-.68h1.7l-.17,1.02h-1.7Z"/>
          <path class="cls-4" d="M315.25,722.08c-.15,0-.21-.12-.21-.34,0-.45.13-.68.38-.68h1.7l-.17,1.02h-1.7Z"/>
          <path class="cls-4" d="M322.27,720.57c0,.95-.39,1.51-1.09,1.51-.59,0-.93-.35-.88-1h-.05c-.13.68-.57,1-1.13,1-.53,0-.85-.34-.8-1h-.05c-.16.68-.6,1-1.33,1-.14,0-.21-.11-.21-.34,0-.45.14-.68.38-.68.84,0,1.21-.27,1.37-1.13h.08c0,.09-.07.55-.12.83.16.19.45.3.81.3.73,0,1.04-.29,1.16-1.13h.08c0,.09-.07.51-.12.79.16.22.48.33.87.33.49,0,.9-.2.9-.39,0-.21-.2-.6-.77-1.09.13-.2.3-.53.4-.85h.04c.11.29.45.92.45,1.83v.02h0Z"/>
          <path class="cls-4" d="M326.09,719.21c.3.48.43.88.43,1.26,0,1.12-.63,1.66-1.61,1.66s-1.24-.47-1.94-.83v-.05c1.34-.52,2.19-1.15,2.66-1.93-.56-.6-1.44-1.34-2.75-2.09.07-.24.13-.74.1-1.07h.05c1.38,1.12,2.28,1.99,2.81,2.71.16-.4.23-.83.23-1.3,0-.29-.03-.94-.11-1.4.2-.17.47-.52.6-.78h.05c0,.34.05.76.05,1.4,0,1-.19,1.79-.58,2.43h0ZM323.96,723.88c.3,0,.74-.07.9-.13v.05c-.08.11-.14.29-.18.43-.68.13-1.21.42-1.48.69h-.05c.1-.28.32-.52.6-.67-.36-.07-.55-.28-.55-.56,0-.53.37-1.06.8-1.06.28,0,.46.22.46.49,0,.09-.02.16-.03.21h-.05c-.01-.23-.16-.33-.4-.33-.42,0-.68.3-.68.49s.23.38.65.38h0ZM325.85,719.56c-.45.58-1.1,1.02-1.97,1.38.32.12.6.17.97.17,1.02,0,1.56-.22,1.56-.48,0-.21-.17-.59-.56-1.07Z"/>
          <path class="cls-4" d="M328.36,719.25c0,1.78-.17,1.99-.4,2.98h-.05c.05-1.23-.26-5.35-.38-5.98.22-.22.5-.6.66-.87h.05c0,.4.12,2.42.12,3.87Z"/>
          <path class="cls-4" d="M336.41,719.9c0,1.6-1.02,2.23-4.01,2.23-1.97,0-2.73-.58-2.73-1.71,0-.38.06-.84.29-1.46h.08c-.1.33-.14.58-.14.9,0,.73.76,1.26,2.61,1.26,2.62,0,3.77-.5,3.78-.98.02-.37-.02-.7-.11-.99l.02.1h-.03c-.11.64-.63,1.03-1.38,1.03s-1.1-.41-1.1-1.06c0-1.01.51-1.86,1.32-1.86.86,0,1.4.85,1.4,2.53h0ZM336.17,719.12c-.22-.66-.7-1.04-1.3-1.04-.56,0-1.04.42-1.04.8,0,.22.25.57,1.08.57.52,0,.96-.13,1.27-.33h0ZM334.3,715.97v-.05l.49-.6c.24.11.54.38.66.57l-.54.58c-.12-.16-.42-.42-.61-.5h0Z"/>
          <path class="cls-4" d="M339.09,722.08c-.25,0-.48-.06-.69-.23-.15,1.43-1.05,2.36-1.99,2.36-.48,0-.86-.29-1.19-.4v-.05c1.32-.2,2.9-1.24,3.09-1.99-.28-.26-.54-.72-.83-1.48.1-.14.26-.51.36-.8h.05c.38,1.25.77,1.58,1.37,1.58l-.17,1.02h0Z"/>
          <path class="cls-4" d="M339.1,722.08c-.15,0-.21-.12-.21-.34,0-.45.13-.68.38-.68h1.7l-.17,1.02h-1.7Z"/>
          <path class="cls-4" d="M340.79,722.08c-.15,0-.21-.12-.21-.34,0-.45.13-.68.38-.68h1.7l-.17,1.02h-1.7Z"/>
          <path class="cls-4" d="M349.16,721.07l-.17,1.02c-.54,0-.85-.29-.88-1-.4.62-1.18,1-2.21,1-1.25,0-1.93-.43-1.99-1.15h-.05c-.14.77-.64,1.15-1.38,1.15-.14,0-.21-.11-.21-.34,0-.45.14-.68.38-.68.84,0,1.25-.3,1.39-1.13h.08c.04.42.24.72.62.91.96-1.59,1.73-2.25,2.53-2.25.73,0,1.16.55,1.16,1.37,0,.36-.08.68-.22.96.17.09.47.14.88.14h.07,0ZM348.28,720.36c0-.41-.44-.97-1.21-.97-.73,0-1.67.62-2.25,1.48.3.13.72.19,1.25.19,1.32,0,2.21-.29,2.21-.7Z"/>
          <path class="cls-4" d="M353.08,720.89h-.05c-.03.9-.34,1.33-.84,1.33-.91,0-1.72-.48-1.82-1.1-.02-.19,0-.41.03-.57l-.05-.02c-.22.59-.4,1.54-1.36,1.54-.14,0-.21-.11-.21-.34,0-.45.14-.68.38-.68.59,0,.93-.18,1.19-.86l.16.12c.46-1.02.84-1.43,1.39-1.43.47,0,.83.27,1.22,1.16.31.75.64,1.01,1.26,1.01l-.17,1.02c-.62,0-1.03-.38-1.13-1.19h0ZM350.62,720.37c.24.46,1.1.84,1.71.84.4,0,.59-.13.59-.38,0-.57-.51-1.2-1.25-1.2-.47,0-.82.27-1.05.74Z"/>
          <path class="cls-4" d="M355.22,721.77c-.18.24-.48.32-.98.32-.13,0-.23-.12-.23-.35,0-.45.13-.67.38-.67.79,0,1.14-.17,1.14-.4,0-.85-.39-3.84-.51-4.42.23-.23.5-.6.66-.87h.05c0,.44.12,2.71.12,4.21,0,.68-.21,1.64-.63,2.18h0Z"/>
          <path class="cls-4" d="M357.54,719.25c0,1.78-.17,1.99-.4,2.98h-.05c.05-1.23-.26-5.35-.38-5.98.22-.22.5-.6.66-.87h.05c0,.4.12,2.42.12,3.87Z"/>
        </g>
      </g>
      <path class="cls-4" d="M47.89,757.66v36.95c0,7.98,6.49,14.47,14.47,14.47h486.32c7.98,0,14.47-6.49,14.47-14.47v-36.95H47.89ZM548.68,810.08H62.36c-8.53,0-15.47-6.94-15.47-15.47v-37.95h517.26v37.95c0,8.53-6.94,15.47-15.47,15.47"/>
    </g>
  </g>
</svg>