<?xml version="1.0" encoding="UTF-8"?>
<svg id="Layer_1" xmlns="http://www.w3.org/2000/svg" version="1.1" xmlns:xlink="http://www.w3.org/1999/xlink" viewBox="0 0 337 133">
  <!-- Generator: Adobe Illustrator 29.3.0, SVG Export Plug-In . SVG Version: 2.1.0 Build 146)  -->
  <defs>
    <style>
      .st0 {
        fill: #141414;
      }

      .st1 {
        fill: #fff;
      }

      .st2 {
        fill: url(#linear-gradient1);
      }

      .st3 {
        fill: none;
      }

      .st4 {
        clip-path: url(#clippath-1);
      }

      .st5 {
        fill: #010101;
      }

      .st6 {
        fill: url(#linear-gradient);
      }

      .st7 {
        clip-path: url(#clippath);
      }
    </style>
    <clipPath id="clippath">
      <path class="st3" d="M32.61,54.48v58.06h68.03v-58.06c0-18.79-15.23-34.02-34.02-34.02s-34.02,15.23-34.02,34.02"/>
    </clipPath>
    <linearGradient id="linear-gradient" x1="-140.4" y1="478.54" x2="-139.4" y2="478.54" gradientTransform="translate(-47366.84 13940.6) rotate(90) scale(99.12 -99.12)" gradientUnits="userSpaceOnUse">
      <stop offset="0" stop-color="#d6ac40"/>
      <stop offset=".03" stop-color="#d6ac40"/>
      <stop offset=".24" stop-color="#d8af44"/>
      <stop offset=".46" stop-color="#deba50"/>
      <stop offset=".68" stop-color="#e8cd65"/>
      <stop offset=".9" stop-color="#f6e683"/>
      <stop offset="1" stop-color="#fef492"/>
    </linearGradient>
    <clipPath id="clippath-1">
      <polygon class="st3" points="64.26 34.58 60.95 35.48 58.1 35.48 60.38 42.73 63.59 41.31 65.95 41.27 66.9 41.54 65.05 42.79 65.42 43.13 67.73 42.86 70.15 43.36 72.57 44.88 73.13 43.62 72.76 42.5 73.85 42.07 74.22 40.84 74.22 39.22 71.57 38.76 68.63 37.6 68.33 36.08 68.11 34.79 66.44 34.09 64.26 34.58"/>
    </clipPath>
    <linearGradient id="linear-gradient1" x1="-161.65" y1="493.97" x2="-160.65" y2="493.97" gradientTransform="translate(8572.95 -2736.05) rotate(-90) scale(17.22 -17.22)" gradientUnits="userSpaceOnUse">
      <stop offset="0" stop-color="#fff"/>
      <stop offset="1" stop-color="#fef385"/>
    </linearGradient>
  </defs>
  <g class="st7">
    <rect class="st6" x="10.02" y="9.89" width="113.21" height="113.21" transform="translate(-27.51 66.59) rotate(-45)"/>
  </g>
  <path class="st1" d="M91.99,97.25c0,4.71-3.82,8.53-8.53,8.53s-8.53-3.82-8.53-8.53,3.82-8.53,8.53-8.53,8.53,3.82,8.53,8.53"/>
  <g class="st4">
    <rect class="st2" x="57.49" y="29.81" width="17.35" height="19.34" transform="translate(-.88 77.46) rotate(-60.36)"/>
  </g>
  <g>
    <path class="st0" d="M89.68,70.28c-.03-.08-.3-.77-1.29-1.17-.52-.21-1.3-1.4-1.68-2.13-.06-.2-.32-.95-1.01-1.34-.45-.27-.99-.32-1.58-.16h-.04s-.04.03-.04.03c-.05.03-.49.28-.72.83-.1.16-.79.47-1.44.66h-.01s-.06.02-.06.02c.05.11.1.22.15.34.05.12.09.23.14.36.29.77.5,1.61.65,2.27l.04.17c.06.26.1.49.13.66.6-.47,1.36-1.17,2.04-2.14.53.4,1.59,1.33,1.57,2.39v.25s.22.1.22.1c0,0,.24.11.47.35l-.63.2h-.03s-.91.47-.22,1.92c.55,1.16,1.13,1.84,1.15,1.86l.27.3.28-.29c.06-.06,1.44-1.51,1.43-3.24l.23-1.02v-1.15l-.02-.06Z"/>
    <path class="st0" d="M43.42,85.12s3.1,4.27,8.39.59c0,0-.8,1.89-3.06,2.55,0,0,3.87.62,5.65-3.62,0,0,.78-2.6.64-3.68-.14-1.08.86-2.63.86-2.63,0,0,.53-.78,1.23-1.08.04-.28.1-.58.18-.89h0c.03-.12.06-.23.1-.35l.02-.05c-1.19-.48-3.51-.89-5.55,1.73,0,0-.76,1-.96,3.01-.19,2.01-4.01,1.77-4.01,1.77,0,0-1.58-.12-2.41-2.08,0,0,0,2.87,1.6,3.85,0,0,.96.72,2.09.44,0,0-2.04,2.14-4.77.43"/>
    <path class="st0" d="M86.96,99.75c-8.9-3.79-16.99-4.87-22.57-5.13l.06-.07c.32-.35.76-1.27.25-2.26l.11-1.53-.06-.1c-.04-.07-.4-.7-.87-1.03-.17-.16-.47-1.15-.66-2.14,0-.14.01-1.04.95-1.39,1.37-.51,3.07-2.67,3.14-2.77.03-.04.71-.93.71-2.59.15-.3.61-1.26.64-2.14.38-.04,1.03-.13,1.84-.32l-.04.11-.04.08.39,1.32.21-.06c1.44-.41,4.3-.83,4.32-.83l.25-.04-.07-.24c-.19-.67-1.47-1-2.39-1.15h0,0c1.21-.47,2.52-1.13,3.78-2.06.34-.25,1.18-.75,1.61-.69.74.1,2.04-.23,2.26-.29.66-.11,1.4-.12,1.57-.03.47.6.32,1.5-.45,2.68-.19.2-.56.66-.43,1.06h0s-.89-.43-.89-.43l-.18.14c-.05.04-1.31,1-1.26,3.39v.41s.42-.05.42-.05c.09-.01,2.31-.28,3.2-1.35.55-.66.85-.81.92-.84h.75v-2.24c.02-.82.23-2.28.7-2.74.74-.73.42-1.62.02-2.05-.09-.1-.62-.7-1.29-.88h-.05s-.91-.01-.91-.01c-.11-.03-.32-.09-.52-.19-.03-.22-.06-.42-.1-.62l-.04-.2c-.21-1.1-.49-1.98-.7-2.54-.05-.12-.09-.23-.13-.32-.11-.26-.18-.4-.18-.4-.15-.36-.49-1.04-1.11-1.68v-1.21h-1l-1.54-4.2h0c-.08-.21-.21-.55-.33-.95.22.16.49.3.81.38,1.21.32,1.3,1.73,1.3,1.79v.05s.02.05.02.05c.02.07.25.72.81.97.29.14.63.14.96,0,.88-.35,1.22-.72,1.31-.84.14-.15.6-.77.16-1.86-.37-.92-.76-2.37-.84-3.07.27-.2.56-.54.56-1v-.13l-.3-.38.06-.11c.12-.26.28-.69.45-1.26l.03-.04h-.01s.17-.56.17-.56l-.56.11c-.05-.01-.54-.34-.95-.61-.41-.28-.59-.79-.45-1.26v-.02s.35-1.13.35-1.13l-.93.73s-.67.52-1.13,1.08c-.68-.41-2.41-1.27-4.41-.9l-.4.08.38,1.29c-.61-.18-1.51-.33-2.32.02l-.54.23.86.78c-.61.09-1.43.32-2.18.87l-.28.21c-.45-.34-.95-.65-.95-.65.05-.2.08-.47.11-.75h0s0-.02,0-.02c.07-.73.08-1.56.08-1.56.32-.32.45-.78.33-1.21-.04-.16-.1-.29-.17-.42h0s0,0,0,0c-.18-.34-.4-.54-.4-.54,0,0-.11-.14-.31-.32h0s0,0,0,0c-.18-.17-.44-.37-.76-.56-.13-.08-.29-.12-.45-.15l-.17-.02c-.8-.07-1.59.24-2.17.78l-.08.08h0s0,0,0,0c-.16.16-.35.33-.55.54-.12.13-.21.3-.28.51h0c-.36,1.18.12,3.36.12,3.36l-.31-.05-3.13-10.55c1.32-1.04,3.07-1.28,4.4-1.28h.03c-.54.35-.82.67-.85.7l-.28.32,1.07,1.14.3-.12c1.51-.6,3.05-.52,4.56.23,1.15.58,1.86,1.36,1.87,1.36l.54.6.25-.76c.23-.69.65-1.07.65-1.07l.22-.19-.07-.28c-.09-.35-.18-.63-.26-.83.67-.26,1.1-.62,1.12-.64l.34-.29-.28-.35c-.3-.38-.13-.83-.12-.84l.62-1.85-.61-.03c-1.29-.07-4.81-.51-5.67-1.69-.16-.23-.2-.46-.13-.74.19-.68.13-1.26-.17-1.72-.32-.5-.9-.81-1.73-.93-.85-.13-1.73,0-2.55.35-3.07,1.33-5.55,1.05-5.58,1.04h0l-.29-.99h-.03s.09-.7.09-.7l-.29-.29-1.33-1.53-.36,2.15.79.93,5.74,19.34c-.18.1-.33.23-.4.38-.15.33-.14.81-.1,1.17.04.32-.1.63-.36.82l-.08.06h0s0,0,0,0c-.28.22-.63.58-.95,1.12l-.15.21-.23.26c-1.22,1.25-4.37,3.2-4.37,3.2l1.31.28c-2.33,1.92-4.48,2.86-6.36,3.24-4.74.84-7.75-1.72-7.75-1.72,0,0,.13.74.65,1.67h0c.3.54.73,1.14,1.33,1.7h0s0,.01,0,.01c.48.44,1.06.85,1.78,1.18h.01s.02.02.02.02c.58.27,1.23.48,1.99.63h.02s-1.16.21-1.16.21l-1.56.12c-.15-.04-.3-.08-.44-.14,0,0,.57.66,3.37,1.02l-.95.44c-.16.07-.33.13-.46.18l.89,1.17.42.55.38.5s.11.1.34.22h0s0,0,0,0c.3.17.81.38,1.53.44l.08.02h.1c.47.02,1.01-.02,1.64-.16h.01s0,0,0,0c.76-.17,1.63-.5,2.62-1.05,0,0,.9-.42,2-1.18h0s.82-.11.82-.11h.17c-.46.43-.97.85-1.56,1.19,0,0,2.94-.57,5.08-2.62l.03-.02.04-.05c.32-.31.61-.65.88-1.03l.15.93v.02s-.24,1.31-.24,1.31l-.34.7c-.13.05-.27.11-.41.16-3.01,1.1-4.22,3.22-4.69,4.79-.04.11-.07.23-.1.34h0c-.08.31-.14.6-.18.88-.16,1.07-.06,1.85-.05,1.96.01.14.19,1.85.65,2.99.35.85-.5,1.91-.59,2.02l-1.24,1.24c-.1.1-.64.71.04,1.73.49.75.83,2.02.85,2.12.03.12.37,1.87.14,3.16l-.06.3,1.15.46v1.38c-8.74-.02-17.39-.04-26.17-.06v18.01h68.03c-.01-1.63.01-3.26,0-4.9-3.4-2.57-7.98-5.46-13.68-7.89M58.97,36.21c.87.04,3.06,0,5.67-1.14.66-.29,1.37-.38,2.04-.28.38.06.87.19,1.08.52.15.22.16.55.05.96-.15.55-.06,1.08.27,1.53,1.05,1.45,4.35,1.91,5.77,2.04l-.22.65c-.11.28-.19.81.01,1.33-.23.14-.56.3-.95.39l-.72.14.43.58s.16.27.32.84c-.12.14-.28.35-.43.61-.36-.31-.91-.72-1.61-1.08-.98-.5-1.99-.74-3-.74-.69,0-1.38.12-2.06.35l-.03-.03c.35-.28.98-.69,1.88-.86l2.28-.44-2.27-.48c-.18-.04-4.03-.82-6.77,1.08l-1.77-5.96ZM59.49,87.33s.06-.45.39-.9c.02.14.07.28.14.43l.02.04.02.03s1.21,1.56,1.51,2.86c.23,1.02.13,1.39.11,1.45l-.22.3.88.57c-.43.27-.61.64-.63.68l-.02.03v.03s-.02.05-.02.05c-.27-.21-.62-.42-1.09-.59v-.4c-.01-.09-.1-.58-.8-1.31-.37-.39-.4-2.15-.3-3.27M62.53,94.18s-.02-.11-.07-.26c.14.13.31.35.43.56l.06.11c-.12,0-.24,0-.36,0l-.06-.41Z"/>
    <path class="st5" d="M114.32,99.98v.08c.28.13.71.5.9.73l.78-.86c-.17-.28-.61-.67-.97-.83l-.71.88Z"/>
    <path class="st5" d="M118.46,98.6c-.13.39-.35.9-.54,1.13.84,1.17,1.17,1.88,1.17,2.39,0,1.41-1.61,2.66-4,2.66-1.99,0-3.13-.93-3.13-2.55,0-.66.15-1.52.44-2.18h-.13c-.42.98-.62,1.95-.62,2.9,0,2.04,1.17,3.2,3.28,3.2,2.63,0,4.34-1.6,4.34-4.34,0-1.64-.59-2.73-.75-3.2h-.08Z"/>
    <path class="st5" d="M183.58,101.53c-1.41,0-2.31-.7-2.31-1.57,0-.93,1.21-1.67,2.35-1.67.97,0,1.52.34,1.52.86h.08c.28-1.06-.27-1.88-1.49-1.88-1.4,0-2.69,1.36-2.69,3.13,0,.7.27,1.27.77,1.59-.47.05-.95.08-1.35.08h-51.94c-1.33,0-1.95-.5-1.95-2.06,0-1.41.08-3.13.08-4.77,0-1.17-.08-1.84-.08-2.5h-.08c-.2.35-.57.84-.89,1.16.15,1.14.3,2.95.3,5.87,0,.59-.34,1.15-1.08,1.66.04-4.3-3.25-6.58-3.97-7.41h-.08c.03.45-.05,1.17-.14,1.55,2.46,1.79,3.95,3.89,4.11,5.92-.84.55-2.16,1.01-4.03,1.33v.08c.62.24,1.3.55,1.95.55,1.58,0,2.97-1.1,3.3-3.2h.06c-.03,2.66.67,3.2,2.26,3.2h0s0,0,0,0h51.94c2.11,0,3.33-.58,5.6-1.08.2-.43.62-1.08.81-1.28l-.02-.07c-.84.32-2.04.5-3.03.5"/>
    <path class="st5" d="M188.02,105.73c0-.34.42-.82,1.1-.82.39,0,.62.15.64.55h.08c.01-.08.04-.19.04-.33,0-.44-.3-.77-.74-.77-.7,0-1.28.83-1.28,1.64,0,.47.32.79.94.88-.47.24-.84.61-1.01,1.07h.08c.39-.43,1.22-.9,2.39-1.13.04-.2.14-.45.25-.61v-.08c-.25.11-.95.22-1.44.22-.66,0-1.05-.31-1.05-.62"/>
    <path class="st5" d="M193.31,92.74h-.08c-.17.35-.55.84-.81,1.08.11.78.15,1.82.15,2.29,0,.87-.14,1.66-.45,2.37-.88-1.21-2.37-2.65-4.58-4.47h-.08c.03.45-.04,1.14-.14,1.47,2.15,1.31,3.6,2.56,4.49,3.6-.76,1.26-2.13,2.28-4.26,3.11v.08c1.09.55,1.6,1.25,3.03,1.25,1.58,0,2.57-.83,2.57-2.5,0-.62-.22-1.29-.71-2.06.64-1.05.94-2.33.94-3.95,0-1.02-.08-1.69-.08-2.27M192.99,101.26c0,.5-.86.89-2.47.89-.67,0-1.13-.12-1.73-.35,1.48-.62,2.57-1.38,3.32-2.35.61.79.88,1.42.88,1.81"/>
    <path class="st5" d="M196.05,92.74c-.21.36-.59.9-.9,1.19.17.98.62,7.75.55,9.74h.08c.32-1.53.55-2,.55-4.53,0-2.34-.2-5.78-.2-6.41h-.08Z"/>
    <path class="st5" d="M203.76,98.55c-1.21,0-2.11,1.33-2.11,2.97,0,1.22.59,1.92,1.88,1.92,1.14,0,2-.59,2.22-1.53h.01c.04.27.06.57.06.88,0,1.59-2.87,3.24-5.39,3.39v.08c.56.16,1.26.59,1.97.59,1.88,0,3.62-1.76,3.62-4.47,0-2.5-.88-3.83-2.26-3.83M203.6,102.15c-1.33,0-1.75-.55-1.75-1.1,0-.78.81-1.48,1.72-1.48,1.06,0,1.84.73,2.13,2.02-.66.37-1.34.56-2.09.56"/>
    <path class="st5" d="M212.98,93.85h-.08c-.04.28-.19.57-.19.77,0,.36.36.47,1.08.47.39,0,1.36-.03,2.3-.1.04-.2.23-.72.34-.9-.7.06-2.17.09-2.49.09-.72,0-.97-.09-.97-.33"/>
    <path class="st5" d="M224.76,98.06c-.14.37-.41.98-.59,1.2.58.55,1.27,1.53,1.27,2.03,0,.44-.92.79-2.64.79h-5.47c-1.22,0-1.88-.63-1.88-2.06,0-2.19-.12-3.16-.22-3.96h-.04c-.22.36-.58.75-.81.94.04.19.09.45.14.74-2.82,1.72-3.59,2.61-3.59,3.76,0,.78.5,1.25,1.55,1.25,1.37,0,2.08-.67,2.28-1.95h.08c.08,1.88.86,2.66,2.27,2.66h5.47c2.11,0,3.04-.78,3.04-2.39s-.65-2.62-.78-3h-.06ZM212.62,101.42c-.97,0-1.31-.24-1.31-.67,0-.46.68-1.11,3.26-2.51.07.63.13,1.35.13,2.04,0,.62-.79,1.14-2.08,1.14"/>
    <path class="st5" d="M224.19,104.93c-.39,0-1.36.03-2.3.1-.04.2-.23.72-.34.9.7-.06,2.17-.09,2.49-.09.72,0,.97.09.97.33h.08c.04-.28.19-.57.19-.77,0-.36-.36-.47-1.08-.47"/>
    <path class="st5" d="M279.85,101.53c-1.41,0-2.31-.7-2.31-1.57,0-.93,1.21-1.67,2.35-1.67.97,0,1.52.34,1.52.86h.08c.28-1.06-.27-1.88-1.49-1.88-1.4,0-2.69,1.36-2.69,3.13,0,.7.27,1.27.77,1.59-.47.05-.96.08-1.35.08h-46.47c-1.44,0-1.95-.5-1.95-1.88,0-1.6.08-3.31.08-4.96,0-1.17-.08-1.88-.08-2.5h-.08c-.21.36-.59.9-.9,1.19.24,1.34.32,1.97.39,6.94.03,1.95.66,2.58,2.29,2.58h0s0,0,0,0h46.47c2.11,0,3.33-.58,5.6-1.08.2-.43.62-1.08.81-1.28l-.02-.07c-.84.32-2.04.5-3.03.5"/>
    <path class="st5" d="M303.13,92.74c-.22.36-.59.88-.9,1.19.17.87.75,5.95.75,7.41,0,.42-.55.73-1.88.73h0s0,0,0,0c-1.45,0-1.95-.5-1.95-1.88,0-1.6.08-3.31.08-4.96,0-1.17-.08-1.88-.08-2.5h-.08c-.22.35-.59.94-.91,1.25.24,1.35.32,1.97.39,6.54,0,1.11-.66,1.55-1.88,1.55h-5.47s0,0,0,0c-1.01,0-1.67-.61-2.04-2.08-.69-2.64-.88-3.26-1-3.81h-.08c-.05.19-.49,1.01-.66,1.25.55,1.09,1.01,2.92,1.01,3.39,0,.62-.78,1.33-2.42,1.33-1.3,0-1.68-.43-1.61-1.48h-.12c-.07.42-.12.85-.12,1.21,0,1.01.52,1.64,1.77,1.64,1.68,0,2.58-.93,2.66-2.78h.08c.34,1.92,1.17,2.7,2.29,2.7h5.47s.03,0,.03,0c1.38,0,2.13-.59,2.15-2.27h.08c-.06,1.64.77,2.27,2.17,2.27h0s.03,0,.03,0c.83,0,1.34-.11,1.61-.47.61-.73.91-2.08.91-3.09,0-2.45-.21-6.44-.21-7.14h-.08Z"/>
    <path class="st5" d="M121.26,71.23c-.38,0-.94.01-1.66.04-.73.03-1.46.07-2.18.12-.06.21-.15.5-.29.88-.14.38-.25.64-.34.8.53-.05,1.26-.09,2.19-.11.93-.03,1.59-.04,1.98-.04.57,0,.98.04,1.22.12.24.08.36.23.36.43h.12c.03-.18.09-.42.19-.71.1-.34.16-.58.16-.72,0-.3-.14-.52-.42-.64-.28-.12-.72-.18-1.31-.18"/>
    <path class="st5" d="M130.07,68.01l1.38-1.51c-.15-.26-.39-.53-.73-.83-.34-.29-.66-.51-.98-.65l-1.27,1.57v.12c.23.1.5.29.83.56.33.27.58.52.77.74"/>
    <path class="st5" d="M116.77,68.54c.79.41,1.75.62,2.89.62,1.53,0,2.84-.22,3.91-.65,1.07-.44,1.88-1.06,2.43-1.86.55-.8.82-1.76.82-2.86,0-.31-.08-.58-.24-.81.46.02,1.04.03,1.75.03h0s.01,0,.01,0c1.11,0,2.02-.13,2.72-.38.7-.26,1.22-.66,1.58-1.22.36-.56.57-1.3.63-2.23h.12c-.03.37-.04.63-.04.78,0,1.11.25,1.9.76,2.36.51.46,1.22.7,2.14.7h39.57c.94,0,1.8-.1,2.59-.31.78-.21,1.45-.53,2.01-.96,2.78.75,4.59,1.3,5.42,1.65.57-.62,1.01-1.31,1.32-2.07s.47-1.56.47-2.39c0-.64-.14-1.2-.42-1.68-.28-.49-.76-.98-1.43-1.47-.67-.49-1.64-1.06-2.9-1.71-1.16-.61-2.06-1.1-2.69-1.46-.63-.36-1.12-.68-1.46-.96h-.12c-.01.32-.07.69-.16,1.1-.09.41-.2.77-.32,1.06.19.08.51.23.95.46l.28.14c-.55.42-1,.98-1.36,1.7-.36.71-.54,1.46-.54,2.23,0,.43.07.81.21,1.12.14.31.35.58.64.8-.5.08-1.19.12-2.06.12h-39.57c-.72,0-1.28-.09-1.69-.27-.41-.18-.7-.45-.87-.81-.17-.37-.26-.85-.26-1.44v-1.07h-.2c-.15,1-.36,1.75-.64,2.24-.28.49-.75.84-1.39,1.04-.64.2-1.6.31-2.87.31-2.38,0-4.11-.02-5.19-.05-1.08-.04-1.97-.11-2.67-.24-.26.65-.68,1.38-1.26,2.18v.12c.35.1.74.19,1.17.26.43.07,1.05.15,1.86.26.86.1,1.54.2,2.03.28.5.09.92.2,1.26.35.34.15.51.34.51.57,0,.3-.24.65-.72,1.03-.48.38-1.22.71-2.21.99-.99.27-2.19.41-3.62.41-1.06,0-1.96-.16-2.71-.48-.75-.32-1.32-.78-1.71-1.38-.39-.6-.59-1.32-.59-2.17,0-.51.05-1.07.16-1.68.11-.61.25-1.16.44-1.65h-.21c-.32.74-.57,1.51-.74,2.32-.17.8-.25,1.61-.25,2.41,0,1.11.21,2.05.62,2.84.41.79,1.01,1.38,1.81,1.79M185.68,57.79c.54.37.93.72,1.15,1.04.22.32.34.66.34,1.04,0,.22-.05.47-.16.75-.1.28-.24.53-.41.77-1.11-.41-2.58-.82-4.41-1.24.8-.88,1.2-1.89,1.2-3.03,0-.25-.02-.49-.06-.72,1.02.56,1.81,1.03,2.35,1.4M177.93,57.39c0-.35.11-.68.34-.99.23-.32.53-.57.9-.76.38-.19.78-.29,1.22-.29s.88.11,1.3.34c.43.23.77.53,1.03.91.26.38.39.79.39,1.22,0,.66-.77,1.31-2.3,1.95-.91-.3-1.62-.65-2.13-1.07-.5-.41-.76-.85-.76-1.32"/>
    <path class="st5" d="M194.66,49.15l1.38-1.5c-.15-.26-.39-.53-.73-.82-.34-.29-.66-.51-.98-.66l-1.27,1.57v.12c.24.11.53.3.86.57.33.27.58.51.74.73"/>
    <path class="st5" d="M202.05,62.19c.35-.44.64-.99.89-1.64.24-.65.43-1.33.55-2.04.12-.71.19-1.36.19-1.97,0-1.1-.02-2.3-.06-3.61-.04-1.31-.1-2.85-.17-4.63-.01-.41-.03-.92-.05-1.51-.02-.59-.03-.98-.03-1.15h-.12c-.23.37-.5.77-.82,1.19-.32.42-.62.77-.9,1.06.1.53.26,1.61.48,3.22.22,1.61.41,3.22.58,4.82.17,1.6.25,2.74.25,3.42,0,.31-.25.56-.74.75-.5.19-1.23.29-2.21.29-.83,0-1.51-.25-2.03-.76-.52-.51-.93-1.33-1.21-2.47l-.87-3.29c-.41-1.52-.66-2.5-.75-2.95h-.12c-.05.17-.23.55-.54,1.15-.31.59-.55,1-.72,1.22.28.55.55,1.2.8,1.93.25.73.45,1.42.6,2.05.15.64.23,1.07.23,1.3,0,.33-.15.64-.46.94-.3.3-.75.54-1.33.73-.58.19-1.27.28-2.07.28-.71,0-1.25-.07-1.63-.22s-.65-.38-.8-.7c-.15-.32-.21-.76-.19-1.32h-.19c-.14.91-.21,1.62-.21,2.14,0,.89.23,1.56.7,2.03.47.47,1.18.7,2.15.7,2.71,0,4.15-1.55,4.31-4.65h.12c.5,3.01,1.76,4.52,3.77,4.52h0s.06,0,.06,0c.67,0,1.2-.06,1.6-.18.4-.12.71-.33.94-.64"/>
    <path class="st5" d="M207.29,62.59c0,.37,0,.64-.01.79h.12c.07-.29.18-.73.33-1.32.18-.67.31-1.24.4-1.71.09-.47.16-1.07.22-1.82.05-.74.08-1.7.08-2.89,0-1.8-.07-4.36-.22-7.68-.06-1.2-.08-1.98-.08-2.34h-.12c-.23.37-.5.77-.82,1.2-.32.43-.62.78-.89,1.05.1.51.22,1.72.38,3.63.16,1.92.3,3.94.42,6.07.12,2.13.18,3.8.18,5.01"/>
    <path class="st5" d="M215.18,68.04c.79.41,1.75.62,2.89.62,1.36,0,2.56-.26,3.59-.79,1.03-.53,1.85-1.29,2.45-2.29.6-1,.93-2.21,1-3.61.51.69,1.23,1.04,2.15,1.04.75,0,1.39-.22,1.9-.66.51-.44.85-1.09,1.02-1.94h.14c-.05.84.13,1.48.53,1.93.4.45.99.67,1.76.67.91,0,1.6-.34,2.09-1.03.49-.68.73-1.65.73-2.88,0-.89-.1-1.66-.29-2.33-.19-.67-.43-1.35-.72-2.05-.03-.07-.08-.19-.15-.37h-.1c-.12.4-.28.8-.48,1.2s-.38.73-.56.99c.68.6,1.19,1.14,1.51,1.63.32.49.49.89.49,1.2,0,.17-.1.33-.32.48-.21.15-.49.28-.85.38-.36.1-.74.15-1.15.15-.51,0-.95-.07-1.35-.22-.39-.15-.69-.36-.9-.63.06-.4.12-.79.17-1.18.05-.38.09-.68.11-.9h-.2c-.11.73-.28,1.31-.51,1.73-.23.42-.55.73-.95.91-.4.19-.92.28-1.55.28-.5,0-.94-.12-1.33-.37-.39-.25-.76-.68-1.12-1.31-.36-.62-.7-1.48-1.02-2.57h-.14c-.12.38-.27.78-.45,1.19s-.34.71-.47.89c.58,1.03,1.01,1.85,1.29,2.47.28.62.42,1.06.42,1.33,0,.68-.28,1.34-.82,1.95-.55.62-1.32,1.12-2.3,1.5-.98.38-2.09.57-3.33.57-1.06,0-1.96-.16-2.71-.47-.75-.32-1.32-.77-1.71-1.37-.39-.6-.58-1.33-.58-2.18,0-.52.06-1.09.18-1.71.12-.62.28-1.21.5-1.78h-.2c-.71,1.58-1.07,3.21-1.07,4.9,0,1.11.21,2.05.62,2.84.41.78,1.01,1.38,1.8,1.79"/>
    <path class="st5" d="M236.56,66.15c-1.26.64-2.48,1.04-3.68,1.22v.12c.24.08.52.2.85.36.45.21.84.38,1.18.49.34.11.69.17,1.06.17.91,0,1.76-.31,2.56-.92.8-.62,1.44-1.48,1.92-2.59.48-1.11.73-2.38.73-3.79,0-.62-.08-1.22-.23-1.8-.15-.58-.33-1.1-.54-1.56-.21-.46-.47-.98-.78-1.57h-.12c-.12.36-.28.76-.5,1.21-.21.45-.41.81-.58,1.08.82.77,1.43,1.44,1.86,2.03.42.59.63,1.03.63,1.33,0,.59-.41,1.29-1.24,2.07-.83.79-1.87,1.5-3.12,2.14"/>
    <path class="st5" d="M242.77,53.01c.06,1.29.11,3.17.16,5.66.03,1.11.17,1.97.42,2.6.25.62.65,1.07,1.18,1.34.54.27,1.26.4,2.17.4h0s0,0,0,0h39.57c1.15,0,2.07-.11,2.73-.33.67-.22,1.19-.58,1.57-1.09.28.49.76.85,1.46,1.08.7.23,1.73.34,3.09.34h0s.07,0,.07,0c.67,0,1.2-.06,1.6-.18.4-.12.71-.33.94-.64.35-.44.64-.99.89-1.64.25-.65.43-1.33.55-2.04.12-.71.19-1.36.19-1.97,0-1.1-.02-2.3-.06-3.61-.04-1.31-.1-2.85-.17-4.63-.01-.42-.03-.92-.05-1.51-.02-.59-.03-.98-.03-1.15h-.12c-.23.37-.5.77-.82,1.19-.32.42-.62.77-.9,1.06.1.53.26,1.61.48,3.22s.41,3.22.58,4.82c.17,1.6.25,2.74.25,3.42,0,.31-.25.56-.74.75-.49.19-1.23.29-2.21.29-1.06,0-1.9-.02-2.5-.06.43-.35.76-.78.98-1.29.23-.51.34-1.06.34-1.67,0-.73-.12-1.36-.36-1.91-.24-.55-.58-.98-1.02-1.28-.44-.3-.94-.46-1.51-.46-.63,0-1.22.22-1.78.66-.56.44-1.01,1.04-1.35,1.79-.34.75-.51,1.57-.51,2.45,0,.65.22,1.21.65,1.68-.48.05-1.08.08-1.82.08h-39.57c-.76,0-1.37-.1-1.82-.3-.45-.2-.78-.51-.99-.93s-.31-.99-.31-1.7c0-.84.02-2.14.06-3.88.04-1.73.06-3,.06-3.83,0-.7-.02-1.6-.07-2.72-.03-.57-.05-1.04-.05-1.4h-.12c-.23.37-.5.78-.82,1.2-.32.43-.62.78-.89,1.05.16.82.28,1.55.36,2.21.08.66.15,1.63.21,2.92M288.27,57.64c0-.31.14-.62.43-.94.29-.32.66-.57,1.11-.77.46-.2.92-.3,1.4-.3s.95.12,1.39.35c.43.23.78.53,1.05.91.26.38.39.78.39,1.2,0,.25-.12.5-.35.76-.23.26-.58.5-1.05.73-.47.23-1.04.43-1.73.59-.52-.19-.98-.44-1.39-.74-.4-.3-.72-.61-.94-.92-.22-.32-.33-.6-.33-.86"/>
    <polygon class="st5" points="293.95 44.03 289.14 46.17 289.05 46.79 293.87 44.63 293.95 44.03"/>
    <path class="st5" d="M291.24,48.52l-1.28,1.57v.12c.24.11.53.3.86.57.33.27.58.51.74.72l1.38-1.5c-.15-.26-.39-.53-.73-.83-.34-.29-.66-.51-.97-.66"/>
    <path class="st5" d="M302.81,57.58c.12,2.13.18,3.8.18,5.01,0,.37,0,.64-.01.79h.12c.07-.29.18-.73.33-1.32.18-.67.32-1.24.4-1.71.09-.47.16-1.07.22-1.82.05-.74.08-1.71.08-2.89,0-1.8-.07-4.36-.22-7.68-.06-1.2-.08-1.98-.08-2.34h-.12c-.23.37-.5.78-.82,1.2-.32.43-.62.78-.89,1.05.1.51.23,1.72.38,3.64.16,1.92.3,3.94.42,6.07"/>
    <path class="st5" d="M114.46,88.56h1.69l.19-.07.08-.18-.08-.19-.19-.08-.14-.02-.12-.09c-.06-.08-.06-.21.02-.36l.24-.58c.45-.97,1.1-1.75,1.96-2.34.86-.59,1.82-.93,2.89-1l1.65,3.92c.06.16.06.28,0,.36-.05.07-.13.11-.26.11l-.19.08-.08.19.08.18.19.07h3.98c.17,0,.25-.09.25-.25l-.07-.19-.18-.08c-.18,0-.37-.07-.55-.2-.19-.13-.32-.29-.41-.47l-4.76-11.35-.04-.07-.06-.05h-.02s-.02-.02-.02-.02l-.11-.02h-.06l-.09.04-.04.05-.06.07-4.76,11.35c-.07.18-.21.34-.4.47-.19.13-.38.2-.56.2l-.18.08-.07.19c0,.17.08.25.25.25M119.27,79.52l1.51,3.61c-.71.07-1.39.26-2.02.55-.64.3-1.21.69-1.72,1.17l2.23-5.34Z"/>
    <path class="st5" d="M128.39,87.87c-.12.11-.26.16-.43.16l-.18.08-.07.19c0,.17.09.25.25.25h9.35c.17,0,.25-.08.25-.25v-2.94c0-.17-.08-.25-.25-.25l-.19.07-.08.18c0,.36-.07.71-.21,1.04-.14.33-.33.61-.57.85-.24.24-.53.43-.85.57-.33.14-.67.21-1.04.21h-3.18v-11.08c0-.17.05-.31.16-.42.11-.11.25-.16.42-.16l.18-.08.07-.19c0-.17-.08-.25-.25-.25h-3.81c-.17,0-.25.09-.25.25l.07.19.18.08c.17,0,.31.05.43.16.11.11.17.25.17.42v10.49c0,.17-.06.31-.17.42"/>
    <path class="st5" d="M152.03,76.38c.36,0,.71.07,1.03.21.33.14.61.33.85.57.24.24.43.53.57.85.14.33.21.67.21,1.03l.08.18.19.07.17-.07.08-.18v-2.94l-.08-.18-.17-.07h-9.35c-.17,0-.25.09-.25.26l.07.19.18.08c.17,0,.31.05.42.16.11.11.16.25.16.42v10.5c0,.17-.05.31-.16.42-.11.11-.25.16-.42.16l-.18.08-.07.19c0,.17.08.25.25.25h3.81c.17,0,.25-.08.25-.25l-.07-.19-.18-.08c-.17,0-.31-.05-.42-.16s-.16-.25-.16-.42v-4.99h1.71c.17,0,.31.05.43.16s.17.25.17.42.09.25.25.25.26-.08.26-.25v-1.69l-.07-.19-.18-.08-.18.08-.07.19c0,.16-.06.29-.17.41s-.26.17-.43.17h-1.71v-5.56h3.18Z"/>
    <path class="st5" d="M160.32,88.03l-.19.08-.08.19.08.18.19.07h3.98c.17,0,.26-.08.26-.25l-.07-.19-.18-.08c-.18,0-.37-.07-.55-.2-.19-.13-.32-.29-.41-.47l-4.76-11.35-.04-.07-.05-.05h-.02s-.02-.02-.02-.02l-.11-.02h-.05l-.09.04-.04.05-.06.07-4.76,11.35c-.07.18-.21.34-.4.47s-.38.2-.56.2l-.18.08-.07.19c0,.17.09.25.25.25h1.69l.19-.07.08-.18-.08-.19-.19-.08-.14-.02-.12-.09c-.06-.09-.06-.21.02-.36l.24-.58c.45-.97,1.1-1.75,1.96-2.34.86-.59,1.82-.93,2.89-1l1.65,3.92c.06.16.06.28,0,.36-.05.07-.13.11-.25.11M156.68,83.68c-.64.3-1.21.69-1.72,1.17l2.23-5.34,1.51,3.61c-.71.07-1.39.26-2.02.55"/>
    <path class="st5" d="M171.93,85.06l2.14,3.38c.05.09.12.13.22.13h3.34l.19-.07.08-.18-.08-.19-.19-.08c-.18,0-.38-.07-.6-.2-.22-.13-.39-.29-.53-.47l-1.93-3.03c.67-.42,1.19-.98,1.56-1.66.38-.68.56-1.42.56-2.21,0-.63-.12-1.22-.35-1.78-.24-.56-.56-1.04-.97-1.46-.41-.42-.89-.75-1.44-.99s-1.14-.37-1.77-.38h-6.26c-.17,0-.26.09-.26.26l.07.19.18.08c.17,0,.31.05.42.16.11.11.16.25.16.42v10.5c0,.17-.06.31-.16.42-.11.11-.25.16-.42.16l-.18.08-.07.19c0,.17.09.25.26.25h3.81c.17,0,.25-.08.25-.25l-.07-.19-.18-.08c-.17,0-.31-.05-.42-.16-.11-.11-.16-.25-.16-.42v-2.4h2.8ZM169.13,76.38h3.01c.27.01.51.13.74.35.23.22.43.52.61.9.18.38.32.8.42,1.29.1.48.15,1,.15,1.54s-.05,1.06-.15,1.55c-.1.49-.24.93-.44,1.32-.38.78-.82,1.18-1.34,1.22h-3.01v-8.17Z"/>
    <path class="st5" d="M185.65,76.38c.36,0,.71.07,1.03.21.33.14.61.33.85.57.24.24.43.53.57.85.14.33.21.67.21,1.03l.08.18.19.07c.17,0,.25-.08.25-.25v-2.94c0-.17-.09-.26-.25-.26h-9.35c-.17,0-.25.09-.25.26l.07.19.18.08c.17,0,.31.05.43.16.11.11.17.25.17.42v10.5c0,.17-.06.31-.17.42-.12.11-.26.16-.43.16l-.18.08-.07.19c0,.17.08.25.25.25h9.35c.17,0,.25-.08.25-.25v-2.94c0-.17-.09-.25-.25-.25l-.19.07-.08.18c0,.36-.07.71-.21,1.03-.14.33-.33.61-.57.85-.24.24-.53.43-.85.57-.33.14-.67.21-1.03.21h-3.18v-5.58h1.71c.17,0,.31.05.43.16.12.11.17.25.17.42s.09.25.25.25.26-.08.26-.25v-1.69l-.07-.19-.18-.08-.18.08-.07.19c0,.16-.06.29-.17.41-.12.11-.26.17-.43.17h-1.71v-5.56h3.18Z"/>
    <path class="st5" d="M198.24,82.66c-.24-.31-.53-.59-.86-.83-.33-.24-.7-.41-1.1-.54l-3.05-.82c-.46-.15-.83-.41-1.11-.79-.28-.38-.42-.81-.42-1.28,0-.3.06-.58.17-.84.12-.26.27-.49.46-.68.19-.19.42-.35.69-.46.26-.11.54-.17.84-.17h.58c.45,0,.87.09,1.26.25.39.17.74.4,1.04.7.3.3.53.64.7,1.03.17.39.25.82.25,1.26,0,.17.09.25.25.25s.25-.09.25-.25v-3.4c0-.17-.08-.25-.25-.25s-.25.08-.25.25v.31c0,.12-.04.22-.13.3-.08.08-.18.12-.29.12-.1,0-.19-.04-.29-.11l-.02-.02c-.34-.3-.72-.54-1.15-.72-.43-.18-.89-.26-1.37-.26h-.58c-.52,0-1.01.1-1.46.3-.45.2-.85.47-1.19.81-.34.34-.61.74-.81,1.2-.2.46-.3.95-.3,1.47,0,.41.07.81.2,1.2.13.39.32.74.55,1.05.24.32.52.59.86.83.34.24.71.41,1.11.54l3.05.82c.46.14.83.41,1.11.79.28.38.42.81.42,1.28,0,.3-.06.58-.17.84-.11.26-.27.49-.46.68-.19.19-.42.35-.69.46-.27.11-.54.17-.83.17h-1.38c-.45,0-.87-.08-1.26-.25-.39-.17-.74-.4-1.03-.7-.29-.3-.52-.64-.69-1.03-.17-.39-.26-.81-.26-1.26l-.08-.18-.19-.07c-.17,0-.25.09-.25.26v3.4c0,.17.08.25.25.25l.19-.07.08-.18v-.31c0-.12.04-.22.12-.3.08-.08.17-.12.28-.12.12,0,.22.04.29.11h.02s.02.02.02.02c.33.3.71.54,1.13.72.43.18.89.26,1.37.26h1.38c.52,0,1.01-.1,1.46-.3.46-.2.85-.47,1.19-.81.34-.34.61-.74.81-1.2.2-.46.3-.95.3-1.47,0-.41-.07-.81-.2-1.2-.13-.39-.32-.74-.56-1.05"/>
    <path class="st5" d="M215.24,87.56c.06.16.06.28,0,.36-.05.07-.13.11-.25.11l-.19.08-.08.19.08.18.19.07h3.98c.17,0,.26-.08.26-.25l-.07-.19-.18-.08c-.18,0-.37-.07-.55-.2-.19-.13-.32-.29-.41-.47l-4.76-11.35-.04-.07-.05-.05h-.02s-.02-.02-.02-.02l-.11-.02h-.05l-.09.04-.04.05-.06.07-4.76,11.35c-.07.18-.21.34-.4.47-.19.13-.38.2-.56.2l-.18.08-.07.19c0,.17.09.25.26.25h1.69l.19-.07.08-.18-.08-.19-.19-.08-.14-.02-.12-.09c-.06-.09-.05-.21.02-.36l.24-.58c.45-.97,1.1-1.75,1.96-2.34.86-.59,1.82-.93,2.89-1l1.65,3.92ZM211.34,83.68c-.64.3-1.21.69-1.72,1.17l2.23-5.34,1.51,3.61c-.71.07-1.39.26-2.02.55"/>
    <path class="st5" d="M220.98,87.87c-.12.11-.26.16-.43.16l-.18.08-.07.19c0,.17.09.25.25.25h9.35c.17,0,.25-.08.25-.25v-2.94c0-.17-.08-.25-.25-.25l-.19.07-.08.18c0,.36-.07.71-.21,1.04-.14.33-.33.61-.57.85-.24.24-.53.43-.85.57-.33.14-.67.21-1.04.21h-3.18v-11.08c0-.17.05-.31.16-.42.11-.11.25-.16.42-.16l.18-.08.07-.19c0-.17-.08-.25-.25-.25h-3.81c-.17,0-.25.09-.25.25l.07.19.18.08c.17,0,.31.05.43.16.11.11.17.25.17.42v10.49c0,.17-.06.31-.17.42"/>
    <path class="st5" d="M238.62,87.87c-.11.11-.25.16-.42.16l-.18.08-.07.19c0,.17.09.25.26.25h5.5c.87,0,1.7-.17,2.47-.5.77-.33,1.45-.79,2.02-1.36.57-.58,1.03-1.25,1.36-2.03.33-.77.5-1.6.5-2.47s-.17-1.7-.5-2.47c-.33-.77-.79-1.45-1.36-2.02s-1.25-1.03-2.02-1.36c-.77-.33-1.6-.5-2.47-.5h-5.5c-.17,0-.26.09-.26.26l.07.19.18.08c.17,0,.31.05.42.16.11.11.16.25.16.42v10.5c0,.17-.06.31-.16.42M241.44,76.38h2.25c.51,0,.99.15,1.44.46.45.31.85.73,1.19,1.25.34.53.6,1.14.8,1.85.19.71.29,1.46.29,2.26s-.1,1.55-.29,2.26c-.19.71-.46,1.33-.8,1.85-.34.53-.74.94-1.19,1.25-.45.31-.93.46-1.44.46h-2.25v-11.66Z"/>
    <path class="st5" d="M256.95,88.03l-.19.08-.08.19.08.18.19.07h3.98c.17,0,.26-.08.26-.25l-.07-.19-.18-.08c-.18,0-.37-.07-.55-.2-.19-.13-.32-.29-.41-.47l-4.76-11.35-.04-.07-.05-.05h-.02s-.02-.02-.02-.02l-.11-.02h-.05l-.09.04-.04.05-.06.07-4.76,11.35c-.07.18-.21.34-.4.47-.19.13-.38.2-.56.2l-.18.08-.07.19c0,.17.09.25.26.25h1.69l.19-.07.08-.18-.08-.19-.19-.08-.14-.02-.12-.09c-.06-.09-.05-.21.02-.36l.24-.58c.45-.97,1.1-1.75,1.96-2.34.86-.59,1.82-.93,2.89-1l1.65,3.92c.06.16.06.28,0,.36-.05.07-.13.11-.25.11M253.3,83.68c-.64.3-1.21.69-1.72,1.17l2.23-5.34,1.51,3.61c-.71.07-1.39.26-2.02.55"/>
    <path class="st5" d="M273.37,76.54c.11-.11.25-.16.41-.16l.19-.08.08-.19-.08-.18-.19-.07h-3.8l-.19.07-.08.18.08.19.19.08c.17,0,.31.05.42.16.11.11.16.25.16.42v4.99h-4.81v-4.99c0-.17.05-.31.16-.42.11-.11.25-.16.42-.16l.18-.08.07-.19c0-.17-.08-.25-.25-.25h-3.81c-.17,0-.25.08-.25.25l.07.19.18.08c.17,0,.31.05.43.16.11.11.17.25.17.42v10.49c0,.17-.06.31-.17.42-.12.11-.26.16-.43.16l-.18.08-.07.19c0,.17.08.25.25.25h3.81c.17,0,.25-.09.25-.25l-.07-.19-.18-.08c-.17,0-.31-.05-.42-.16-.11-.11-.16-.25-.16-.42v-4.99h4.81v4.99c0,.17-.05.31-.16.42-.11.11-.25.16-.42.16l-.19.08-.08.19.08.18.19.07h3.8l.19-.07.08-.18-.08-.19-.19-.08c-.16,0-.29-.05-.41-.16-.12-.11-.17-.25-.17-.42v-10.49c0-.17.06-.31.17-.42"/>
    <path class="st5" d="M287.54,88.31l-.07-.19-.18-.08c-.18,0-.37-.07-.55-.2-.19-.13-.32-.29-.41-.47l-4.76-11.35-.04-.07-.05-.05h-.02s-.02-.02-.02-.02l-.11-.02h-.05l-.09.04-.04.05-.05.07-4.76,11.35c-.07.18-.21.34-.4.47-.19.13-.38.2-.56.2l-.18.08-.07.19c0,.17.08.25.26.25h1.69l.19-.07.08-.18-.08-.19-.19-.08-.14-.02-.12-.09c-.06-.09-.05-.21.02-.36l.24-.58c.45-.97,1.1-1.75,1.96-2.34.86-.59,1.82-.93,2.89-1l1.65,3.92c.06.16.06.28,0,.36-.05.07-.13.11-.25.11l-.19.08-.08.19.08.18.19.07h3.98c.17,0,.26-.08.26-.25M279.67,83.68c-.64.3-1.21.69-1.72,1.17l2.23-5.34,1.51,3.61c-.71.07-1.39.26-2.02.55"/>
    <path class="st5" d="M298.2,82.53c-.29-.21-.61-.36-.96-.45.52-.28.94-.68,1.26-1.19.32-.51.48-1.09.48-1.73,0-.46-.08-.89-.25-1.29-.17-.4-.41-.75-.71-1.04-.3-.3-.65-.53-1.04-.71-.39-.18-.82-.26-1.28-.26h-6.81c-.17,0-.26.08-.26.26l.07.19.18.08c.17,0,.31.05.42.16.11.11.16.25.16.42v10.5c0,.17-.05.31-.16.42-.11.11-.25.16-.42.16l-.18.08-.07.19c0,.17.08.25.26.25h7.44c.46,0,.89-.09,1.29-.26.4-.17.75-.41,1.04-.71s.53-.65.71-1.05c.17-.41.26-.83.26-1.28,0-.38-.06-.73-.18-1.07-.12-.34-.29-.65-.5-.93-.21-.28-.46-.52-.75-.73M292.12,76.38h3.56s.11.06.19.17c.08.11.15.29.23.53.07.24.13.53.18.87.05.35.07.75.07,1.21s-.02.86-.07,1.21c-.05.34-.11.64-.18.87-.07.24-.15.42-.23.54-.08.12-.14.18-.19.18h-3.56v-5.58ZM296.93,86.46c-.05.35-.11.64-.18.87-.07.24-.15.41-.23.53-.08.11-.14.17-.19.17h-4.21v-5.58h4.21s.11.06.19.18c.08.12.15.3.23.53.07.24.13.53.18.87.05.35.07.75.07,1.21s-.03.86-.07,1.21"/>
    <path class="st5" d="M304.14,88.03c-.17,0-.31-.05-.42-.16-.11-.11-.16-.25-.16-.42v-10.5c0-.17.05-.31.16-.42.11-.11.25-.16.42-.16l.18-.08.07-.19c0-.17-.09-.25-.25-.25h-3.81c-.17,0-.26.08-.26.25l.07.19.18.08c.17,0,.31.05.43.16.12.11.17.25.17.42v10.5c0,.17-.06.31-.17.42-.11.11-.26.16-.43.16l-.18.08-.07.19c0,.17.09.25.26.25h3.81c.17,0,.25-.09.25-.25l-.07-.19-.18-.08Z"/>
  </g>
</svg>