<?xml version="1.0" encoding="UTF-8"?>
<svg id="Layer_1" xmlns="http://www.w3.org/2000/svg" version="1.1" xmlns:xlink="http://www.w3.org/1999/xlink" viewBox="0 0 595.3 841.9">
  <!-- Generator: Adobe Illustrator 29.1.0, SVG Export Plug-In . SVG Version: 2.1.0 Build 142)  -->
  <defs>
    <style>
      .st0 {
        fill: url(#linear-gradient2);
      }

      .st1 {
        fill: #e8cc64;
      }

      .st2 {
        fill: #fff;
      }

      .st3 {
        fill: url(#linear-gradient1);
      }

      .st4, .st5 {
        fill: none;
      }

      .st6 {
        fill: #fdf08e;
      }

      .st7 {
        clip-path: url(#clippath-1);
      }

      .st8 {
        fill: #fef491;
      }

      .st9 {
        fill: #231f20;
      }

      .st10 {
        clip-path: url(#clippath-3);
      }

      .st11 {
        fill: #e0dedd;
      }

      .st12 {
        fill: url(#linear-gradient3);
      }

      .st13 {
        fill: #131314;
      }

      .st14 {
        fill: #fbf7be;
      }

      .st15 {
        clip-path: url(#clippath-2);
      }

      .st16 {
        fill: #151515;
      }

      .st5 {
        stroke: #231f20;
        stroke-miterlimit: 10;
      }

      .st17 {
        fill: url(#linear-gradient);
      }

      .st18 {
        clip-path: url(#clippath);
      }
    </style>
    <clipPath id="clippath">
      <path class="st4" d="M56.1,571.6c-13.6,6-25.3,7-31.5,7s-1.4,0-2,0v1.3l10.2,34.8c8.9-6.2,19.7-7.7,28-7.7s12.1,1,12.6,1.2l13.6,2.9-13.7,2.7c-5.4,1-9.2,3.5-11.2,5.2l.2.2c4.1-1.4,8.2-2.1,12.3-2.1,6,0,12.1,1.5,17.9,4.5,3.8,1.9,6.8,4.2,9,6h.9c.8-1.3,1.6-2.4,2.3-3.2-1-3.5-1.8-4.9-1.9-5.1l-2.6-3.5,4.3-.9c2.3-.5,4.3-1.5,5.7-2.3-1.2-3.1-.7-6.3,0-8l1.3-3.9c-8.5-.8-28.3-3.5-34.5-12.3-2-2.8-2.5-6-1.6-9.3.7-2.5.6-4.5-.3-5.8-1.3-2-4.2-2.8-6.5-3.1-1-.2-2.1-.2-3.1-.2-3,0-6.2.7-9.1,2h0Z"/>
    </clipPath>
    <linearGradient id="linear-gradient" x1="-6.9" y1="868.8" x2="-5.9" y2="868.8" gradientTransform="translate(90719 -76.8) rotate(-90) scale(104.3 -104.3)" gradientUnits="userSpaceOnUse">
      <stop offset="0" stop-color="#fff"/>
      <stop offset="1" stop-color="#fffef4"/>
    </linearGradient>
    <clipPath id="clippath-1">
      <rect class="st4" x="0" y="823.6" width="594.8" height="17.4"/>
    </clipPath>
    <linearGradient id="linear-gradient1" x1="-7" y1="868.8" x2="-6" y2="868.8" gradientTransform="translate(4159 517964.7) scale(595.2 -595.2)" gradientUnits="userSpaceOnUse">
      <stop offset="0" stop-color="#fef491"/>
      <stop offset="0" stop-color="#f7e782"/>
      <stop offset=".3" stop-color="#e9cd65"/>
      <stop offset=".5" stop-color="#dfba50"/>
      <stop offset=".8" stop-color="#d9af43"/>
      <stop offset="1" stop-color="#d7ac3f"/>
      <stop offset="1" stop-color="#d7ac3f"/>
    </linearGradient>
    <clipPath id="clippath-2">
      <path class="st4" d="M31.4,67.7v49.5h58v-49.5c0-16-13-29-29-29s-29,13-29,29h0Z"/>
    </clipPath>
    <linearGradient id="linear-gradient2" x1="-7.2" y1="864.4" x2="-6.3" y2="864.4" gradientTransform="translate(-85615.2 750.3) rotate(90) scale(99.1 -99.1)" gradientUnits="userSpaceOnUse">
      <stop offset="0" stop-color="#d7ac3f"/>
      <stop offset="0" stop-color="#d7ac3f"/>
      <stop offset=".2" stop-color="#d9af43"/>
      <stop offset=".5" stop-color="#dfba50"/>
      <stop offset=".7" stop-color="#e9cd65"/>
      <stop offset=".9" stop-color="#f7e782"/>
      <stop offset="1" stop-color="#fef491"/>
    </linearGradient>
    <clipPath id="clippath-3">
      <polygon class="st4" points="58.4 50.7 55.6 51.5 53.1 51.5 55.1 57.7 57.8 56.4 59.8 56.4 60.6 56.6 59.1 57.7 59.4 58 61.3 57.8 63.4 58.2 65.5 59.5 66 58.4 65.6 57.4 66.6 57.1 66.9 56 66.9 54.7 64.6 54.3 62.1 53.3 61.9 52 61.7 50.9 60.2 50.3 58.4 50.7"/>
    </clipPath>
    <linearGradient id="linear-gradient3" x1="-6.1" y1="863.4" x2="-5.2" y2="863.4" gradientTransform="translate(14928.1 -42.9) rotate(-90) scale(17.2 -17.2)" gradientUnits="userSpaceOnUse">
      <stop offset="0" stop-color="#fff"/>
      <stop offset="1" stop-color="#fef385"/>
    </linearGradient>
  </defs>
  <g>
    <g class="st18">
      <rect class="st17" x="19.9" y="545.7" width="94" height="105.6" transform="translate(-486.4 360.7) rotate(-60.4)"/>
    </g>
    <path class="st11" d="M176.6,754.9c-1.2,0-2.5.2-3.9.6h-.3c0,0-.2.2-.2.2-.3.2-2.9,1.7-4.3,5-.6,1-4.7,2.8-8.6,4h0c-.1,0-.2,0-.4.1.3.7.6,1.3.9,2,.3.7.6,1.4.8,2.2,1.7,4.6,3,9.7,3.9,13.7,0,.3.2.7.2,1,.4,1.6.6,3,.8,4,3.6-2.8,8.2-7.1,12.2-13,3.2,2.4,9.5,8,9.4,14.4v1.5s1.3.6,1.3.6c0,0,1.4.7,2.8,2.1l-3.8,1.2h-.1c-.2.2-5.4,2.8-1.3,11.6,3.3,7,6.8,11.1,6.9,11.2l1.6,1.8,1.7-1.8c.4-.4,8.6-9.1,8.5-19.6l1.4-6.1v-7.3c-.3-.5-1.9-4.7-7.8-7.1-3.1-1.3-7.8-8.5-10-12.9-.4-1.2-1.9-5.7-6-8.1-1.7-1-3.6-1.5-5.6-1.5"/>
    <path class="st11" d="M2.3,816.7c-.9,0-1.8,0-2.8.2v17.6h3.4c.5-.8.8-1.3.8-1.3,0,0,3.2-4.7,7.4-6.5.3-1.7.6-3.5,1.1-5.3h0c.2-.7.4-1.4.6-2.1,0,0,0-.2,0-.3-2.7-1.1-6.4-2.1-10.6-2.1"/>
    <path class="st11" d="M9.3,551.5l-2.1,13,4.7,5.6,34.3,116.9c-1.1.6-2,1.4-2.4,2.3-.9,2-.8,4.9-.6,7.1.2,1.9-.6,3.8-2.1,5-.2.1-.3.2-.5.4h0c-1.7,1.4-3.8,3.5-5.7,6.8-.2.4-.5.8-.9,1.3l-1.4,1.6c-7.3,7.6-26.1,19.3-26.1,19.3l7.9,1.7c-5.1,4.2-10.1,7.7-14.9,10.5v54.5c1.9-.9,4-1.9,6.1-3.1,0,0,5.4-2.5,12-7.1h0s4.9-.7,4.9-.7h1c-2.7,2.6-5.8,5.1-9.3,7.2,0,0,17.6-3.4,30.4-15.8l.2-.2.2-.3c1.9-1.9,3.7-4,5.3-6.2l.9,5.6h0c0,0-1.4,8-1.4,8l-2,4.3c-.8.3-1.6.7-2.4,1-18,6.7-25.2,19.4-28.1,29-.2.7-.4,1.4-.6,2.1h0c-.5,1.9-.8,3.6-1.1,5.3-.5,3.2-.6,6-.5,8h67.2c2.2-.3,5.3-.8,8.8-1.7-.1.4-.2.6-.2.7l-.2.5.2.6,2.1,7.4,1.2-.4c8.7-2.5,25.7-5,25.9-5l1.5-.2-.4-1.5c0-.1,0-.3-.1-.4-1.5-3.8-8.8-5.7-14.2-6.6,7.2-2.8,15.1-6.8,22.6-12.5,1.9-1.4,6.5-4.2,9.2-4.2s.3,0,.4,0c.6,0,1.2.1,1.9.1,4.5,0,10.5-1.6,11.7-1.9,2.2-.4,4.6-.6,6.4-.6s2.5.1,3,.4c2.8,3.6,1.9,9-2.7,16.2-1.1,1.2-3.3,4-2.6,6.4h0c0,0-5.3-2.6-5.3-2.6l-1.1.8c-.1.1-1.9,1.4-3.6,4.3h27.8v-8.4c.1-4.9,1.4-13.8,4.2-16.6,4.4-4.4,2.5-9.8.1-12.4-.5-.6-3.7-4.2-7.7-5.3h-.3c0,0-5.4,0-5.4,0-.7-.2-1.9-.6-3.1-1.2-.2-1.3-.4-2.5-.6-3.8,0-.4-.1-.8-.2-1.2-1.2-6.7-2.9-11.9-4.2-15.3-.3-.7-.5-1.4-.8-1.9-.6-1.6-1.1-2.4-1.1-2.4-.9-2.2-2.9-6.3-6.6-10.1v-7.3h-6l-9.2-25.4h0c-.5-1.3-1.2-3.3-1.9-5.7,1.3,1,2.9,1.8,4.8,2.3,7.2,1.9,7.8,10.5,7.8,10.8v.3s.1.3.1.3c.1.4,1.5,4.3,4.8,5.9.9.4,1.8.6,2.8.6s2-.2,2.9-.6c5.2-2.1,7.3-4.3,7.8-5.1.8-.9,3.6-4.6.9-11.3-2.2-5.5-4.6-14.3-5-18.5,1.6-1.2,3.4-3.3,3.4-6v-.8l-1.8-2.3c.1-.2.2-.5.3-.7.8-1.6,1.6-4.1,2.7-7.6l.2-.2h0s1-3.4,1-3.4l-3.4.7c-.3,0-3.2-2-5.7-3.7-2.4-1.7-3.6-4.8-2.7-7.6h0c0-.1,2.1-7,2.1-7l-5.6,4.4c-.2.1-4,3.2-6.8,6.5-3.4-2.1-11.1-6-20.4-6s-3.9.2-5.9.5l-2.4.5,2.2,7.8c-2-.6-4.6-1.2-7.3-1.2s-4.4.3-6.6,1.3l-3.2,1.4,5.1,4.7c-3.7.6-8.6,1.9-13.1,5.3l-1.7,1.2c-2.7-2-5.7-4-5.7-4,.3-1.2.5-2.8.7-4.5h0c.4-4.5.5-9.5.5-9.5,1.9-1.9,2.7-4.7,2-7.3-.3-.9-.6-1.8-1-2.5h0c-1.1-2.1-2.4-3.3-2.4-3.3,0,0-.6-.8-1.9-2h0s0,0,0,0c-1.1-1-2.6-2.3-4.6-3.4-.8-.5-1.7-.7-2.7-.9h0c-.3,0-.7,0-1-.1-.4,0-.8,0-1.3,0-4.3,0-8.5,1.8-11.7,4.8-.2.1-.3.3-.5.5h0c-1,1-2.1,2-3.3,3.3-.7.8-1.3,1.8-1.7,3.1h0c-2.2,7.1.7,20.3.7,20.3l-1.9-.3-18.7-63.8c7.9-6.3,18.4-7.7,26.3-7.7h.2c-3.2,2.1-4.9,4.1-5.1,4.2l-1.7,1.9,6.4,6.9,1.8-.7c4-1.6,8-2.4,12.1-2.4s10.2,1.3,15.2,3.8c6.9,3.5,11.1,8.2,11.2,8.2l3.2,3.6,1.5-4.6c1.4-4.2,3.9-6.4,3.9-6.5l1.3-1.1-.4-1.7c-.5-2.1-1.1-3.8-1.6-5,4-1.5,6.6-3.7,6.7-3.8l2-1.8-1.7-2.1c-1.8-2.3-.8-5-.8-5.1l3.7-11.2-3.7-.2c-7.7-.4-28.8-3-33.9-10.2-1-1.4-1.2-2.8-.8-4.5,1.1-4.1.8-7.6-1-10.4-1.9-3-5.4-4.9-10.3-5.6-1.3-.2-2.6-.3-4-.3-3.8,0-7.7.8-11.3,2.4-12.8,5.6-23.9,6.5-29.5,6.5s-3.8-.2-3.9-.2h0l-1.8-6h-.2c0,0,.5-4.2.5-4.2l-1.7-1.8-8-9.2h0,0ZM24.6,578.6c6.2,0,17.9-1,31.5-7,3-1.3,6.1-2,9.1-2s2.1,0,3.1.2c2.2.3,5.2,1.2,6.5,3.1.9,1.4,1,3.3.3,5.8-.9,3.3-.3,6.5,1.6,9.3,6.3,8.8,26,11.5,34.5,12.3l-1.3,3.9c-.7,1.7-1.2,4.9,0,8-1.3.8-3.3,1.8-5.7,2.3l-4.3.9,2.6,3.5c.1.2.9,1.7,1.9,5.1-.7.8-1.7,2.1-2.6,3.7-2.2-1.9-5.4-4.4-9.6-6.5-5.8-3-11.9-4.5-17.9-4.5s-8.3.7-12.3,2.1l-.2-.2c2.1-1.7,5.9-4.2,11.3-5.2l13.7-2.7-13.6-2.9c-.5,0-5.6-1.1-12.6-1.1s-19.1,1.5-28,7.7l-10.6-36c.7,0,1.5,0,2.4,0"/>
    <g class="st7">
      <rect class="st3" x="0" y="823.6" width="594.8" height="17.4"/>
    </g>
    <g class="st15">
      <rect class="st0" x="12.1" y="29.6" width="96.6" height="96.6" transform="translate(-37.4 65.5) rotate(-45)"/>
    </g>
    <path class="st2" d="M80.9,105.7c0,4-3.2,7.3-7.2,7.3s-7.2-3.2-7.2-7.3,3.2-7.3,7.2-7.3,7.2,3.2,7.2,7.3"/>
    <g class="st10">
      <rect class="st12" x="52.6" y="46.6" width="14.8" height="16.5" transform="translate(-17.4 79.9) rotate(-60.4)"/>
    </g>
    <path class="st13" d="M79,82.8c0,0-.3-.7-1.1-1-.4-.2-1.1-1.2-1.4-1.8,0-.2-.3-.8-.8-1.1-.4-.2-.8-.3-1.3-.1h0c0,0-.4.3-.6.7,0,.1-.7.4-1.2.6h0c0,.1,0,.2.1.3,0,.1,0,.2.1.3.2.6.4,1.4.5,1.9h0c0,.4,0,.6.1.7.5-.4,1.2-1,1.7-1.8.5.3,1.3,1.1,1.3,2v.2h.2c0,0,.2.2.4.4l-.5.2h0s-.8.4-.2,1.6c.5,1,1,1.6,1,1.6l.2.3.2-.2c0,0,1.2-1.3,1.2-2.8l.2-.9v-1h0c0,0,0,0,0,0h0Z"/>
    <path class="st13" d="M40,95.4s2.6,3.6,7.1.5c0,0-.7,1.6-2.6,2.2,0,0,3.3.5,4.8-3.1,0,0,.7-2.2.5-3.1s.7-2.2.7-2.2c0,0,.4-.7,1-.9,0-.2,0-.5.2-.8h0c0-.1,0-.2,0-.3h0c-1-.5-2.9-.8-4.7,1.4,0,0-.6.9-.8,2.6-.2,1.7-3.4,1.5-3.4,1.5,0,0-1.3-.1-2-1.8,0,0,0,2.4,1.3,3.3,0,0,.8.6,1.8.4,0,0-1.7,1.8-4,.4"/>
    <path class="st13" d="M56.1,103.1s0,0,0-.2c.1.1.3.3.4.5h0c0,0-.3,0-.3,0v-.3c0,0,0,0,0,0ZM53.6,97.3s0-.4.3-.8c0,.1,0,.2.1.4h0s0,0,0,0c0,0,1,1.3,1.3,2.4.2.9.1,1.2,0,1.2l-.2.2.7.5c-.4.2-.5.5-.5.6h0c0,0,0,0,0,0-.2-.2-.5-.4-.9-.5v-.3c0,0,0-.5-.7-1.1-.3-.3-.3-1.8-.2-2.8M53.1,53.8c.7,0,2.6,0,4.8-1,.6-.2,1.2-.3,1.7-.2.3,0,.7.2.9.4.1.2.1.5,0,.8-.1.5,0,.9.2,1.3.9,1.2,3.7,1.6,4.9,1.7l-.2.6c0,.2-.2.7,0,1.1-.2.1-.5.3-.8.3h-.6c0,.1.4.6.4.6,0,0,.1.2.3.7-.1.1-.2.3-.4.5-.3-.3-.8-.6-1.4-.9-.8-.4-1.7-.6-2.5-.6s-1.2.1-1.7.3h0c.3-.3.8-.6,1.6-.8l1.9-.4-1.9-.4c-.1,0-3.4-.7-5.7.9l-1.5-5.1h0,0ZM76.7,107.9c-7.5-3.2-14.3-4.1-19-4.4h0c.3-.4.6-1.1.2-2v-1.3c0,0,0,0,0,0,0,0-.3-.6-.7-.9-.1-.1-.4-1-.6-1.8,0-.1,0-.9.8-1.2,1.2-.4,2.6-2.3,2.7-2.4,0,0,.6-.8.6-2.2.1-.3.5-1.1.5-1.8.3,0,.9-.1,1.6-.3h0c0,0,0,.2,0,.2l.3,1.1h.2c1.2-.4,3.6-.8,3.6-.8h.2s0-.2,0-.2c-.2-.6-1.2-.9-2-1h0c1-.4,2.1-1,3.2-1.8.3-.2,1-.6,1.4-.6.6,0,1.7-.2,1.9-.2.6,0,1.2-.1,1.3,0,.4.5.3,1.3-.4,2.3-.2.2-.5.6-.4.9h0l-.8-.4h-.2c0,.2-1.1,1-1.1,3v.3h.3c0,0,2-.3,2.7-1.2.5-.6.7-.7.8-.7h.6v-1.9c0-.7.2-1.9.6-2.3.6-.6.3-1.4,0-1.7,0,0-.5-.6-1.1-.8h-.8c0,0-.3,0-.4-.2,0-.2,0-.4,0-.5v-.2c-.2-.9-.5-1.7-.6-2.2,0-.1,0-.2-.1-.3,0-.2-.2-.3-.2-.3-.1-.3-.4-.9-.9-1.4v-1h-.8l-1.3-3.6h0c0-.2-.2-.5-.3-.8.2.1.4.3.7.3,1,.3,1.1,1.5,1.1,1.5h0s0,0,0,0c0,0,.2.6.7.8.2.1.5.1.8,0,.7-.3,1-.6,1.1-.7.1-.1.5-.6.1-1.6-.3-.8-.6-2-.7-2.6.2-.2.5-.5.5-.8h0c0-.1-.3-.4-.3-.4h0c.1-.3.2-.7.4-1.2h0s0,0,0,0v-.5c.1,0-.3,0-.3,0,0,0-.5-.3-.8-.5-.3-.2-.5-.7-.4-1.1h0s.3-1,.3-1l-.8.6s-.6.4-1,.9c-.6-.3-2-1.1-3.7-.8h-.3c0,0,.3,1.2.3,1.2-.5-.2-1.3-.3-2,0l-.5.2.7.7c-.5,0-1.2.3-1.8.7l-.2.2c-.4-.3-.8-.6-.8-.6,0-.2,0-.4,0-.6h0c0-.6,0-1.3,0-1.3.3-.3.4-.7.3-1,0-.1,0-.2-.1-.3h0c-.2-.3-.3-.5-.3-.5,0,0,0-.1-.3-.3h0c-.2-.1-.4-.3-.6-.5-.1,0-.2-.1-.4-.1h-.1c-.7,0-1.3.2-1.8.6h0c-.1.2-.3.3-.5.5-.1.1-.2.3-.2.4h0c-.3,1,.1,2.9.1,2.9h-.3s-2.6-9-2.6-9c1.1-.9,2.6-1.1,3.7-1.1h0c-.5.3-.7.6-.7.6l-.2.3.9,1h.2c1.3-.6,2.6-.5,3.8,0,1,.5,1.6,1.2,1.6,1.2l.5.5.2-.6c.2-.6.5-.9.6-.9l.2-.2v-.2c-.1-.3-.2-.5-.3-.7.6-.2.9-.5.9-.5l.3-.2-.2-.3c-.2-.3-.1-.7-.1-.7l.5-1.6h-.5c-1.1,0-4.1-.5-4.8-1.5-.1-.2-.2-.4-.1-.6.2-.6.1-1.1-.1-1.5-.3-.4-.8-.7-1.5-.8-.7-.1-1.5,0-2.1.3-2.6,1.1-4.7.9-4.7.9h0l-.2-.8h0v-.6c0,0-.2-.2-.2-.2l-1.1-1.3-.3,1.8.7.8,4.8,16.5c-.2,0-.3.2-.3.3-.1.3-.1.7,0,1,0,.3,0,.5-.3.7h0c-.2.2-.5.5-.8,1v.2c-.1,0-.3.2-.3.2-1,1.1-3.7,2.7-3.7,2.7l1.1.2c-2,1.6-3.8,2.4-5.4,2.8-4,.7-6.5-1.5-6.5-1.5,0,0,.1.6.5,1.4h0c.3.5.6,1,1.1,1.4h0c.4.4.9.7,1.5,1h0c.5.2,1,.4,1.7.5h0l-1,.2h-1.3c-.1,0-.3,0-.4,0,0,0,.5.6,2.8.9l-.8.4c-.1,0-.3.1-.4.1l.8,1,.3.5.3.4s0,0,.3.2h0c.3.1.7.3,1.3.4h0s0,0,0,0c.4,0,.9,0,1.4-.1h0c.6-.1,1.4-.4,2.2-.9,0,0,.8-.4,1.7-1h.7c0,0,.1,0,.1,0-.4.4-.8.7-1.3,1,0,0,2.5-.5,4.3-2.2h0s0,0,0,0c.3-.3.5-.6.7-.9v.8c.1,0,.1,0,.1,0l-.2,1.1-.3.6c-.1,0-.2,0-.3.1-2.5.9-3.5,2.7-4,4.1,0,0,0,.2,0,.3h0c0,.3-.1.5-.1.8-.1.9,0,1.6,0,1.7,0,.1.2,1.6.5,2.5.3.7-.4,1.6-.5,1.7l-1,1.1c0,0-.5.6,0,1.5.4.6.7,1.7.7,1.8,0,.1.3,1.6.1,2.7v.3s.9.4.9.4v1.2c-7.4,0-14.6,0-22,0v15.3h57.3c0-1.4,0-2.8,0-4.2-2.9-2.2-6.7-4.6-11.5-6.7"/>
    <path d="M99.7,108.1h0c.2.2.6.5.8.7l.7-.7c-.1-.2-.5-.6-.8-.7l-.6.8h0Z"/>
    <path d="M103.2,106.9c-.1.3-.3.8-.5,1,.7,1,1,1.6,1,2,0,1.2-1.4,2.3-3.4,2.3s-2.6-.8-2.6-2.2.1-1.3.4-1.9h-.1c-.3.8-.5,1.7-.5,2.5,0,1.7,1,2.7,2.8,2.7s3.7-1.4,3.7-3.7-.5-2.3-.6-2.7h0s0,0,0,0Z"/>
    <path d="M158.1,109.4c-1.2,0-1.9-.6-1.9-1.3s1-1.4,2-1.4,1.3.3,1.3.7h0c.2-.9-.2-1.6-1.3-1.6s-2.3,1.2-2.3,2.7.2,1.1.6,1.4c-.4,0-.8,0-1.1,0h-43.8c-1.1,0-1.6-.4-1.6-1.8s0-2.7,0-4.1,0-1.6,0-2.1h0c-.2.3-.5.7-.8,1,.1,1,.2,2.5.2,5s-.3,1-.9,1.4c0-3.7-2.7-5.6-3.3-6.3h0c0,.4,0,1-.1,1.3,2.1,1.5,3.3,3.3,3.5,5-.7.5-1.8.9-3.4,1.1h0c.5.3,1.1.5,1.6.5,1.3,0,2.5-.9,2.8-2.7h0c0,2.3.6,2.7,1.9,2.7h43.8c1.8,0,2.8-.5,4.7-.9.2-.4.5-.9.7-1.1h0c-.7.2-1.7.4-2.6.4"/>
    <path d="M161.8,112.9c0-.3.4-.7.9-.7s.5.1.5.5h0c0,0,0-.2,0-.3,0-.4-.2-.7-.6-.7-.6,0-1.1.7-1.1,1.4s.3.7.8.8c-.4.2-.7.5-.9.9h0c.3-.4,1-.8,2-1,0-.2.1-.4.2-.5h0c-.2,0-.8.1-1.2.1s-.9-.3-.9-.5"/>
    <path d="M166,109.1c0,.4-.7.8-2.1.8s-.9-.1-1.5-.3c1.2-.5,2.2-1.2,2.8-2,.5.7.7,1.2.7,1.5M166.3,101.9h0c-.1.3-.5.7-.7.9,0,.7.1,1.6.1,2,0,.7-.1,1.4-.4,2-.7-1-2-2.3-3.9-3.8h0c0,.4,0,1-.1,1.3,1.8,1.1,3,2.2,3.8,3.1-.6,1.1-1.8,1.9-3.6,2.6h0c.9.5,1.3,1.1,2.6,1.1s2.2-.7,2.2-2.1-.2-1.1-.6-1.8c.5-.9.8-2,.8-3.4s0-1.4,0-1.9"/>
    <path d="M168.6,101.9c-.2.3-.5.8-.8,1,.1.8.5,6.6.5,8.3h0c.3-1.3.5-1.7.5-3.9s-.2-4.9-.2-5.5h0,0Z"/>
    <path d="M175,109.9c-1.1,0-1.5-.5-1.5-.9,0-.7.7-1.3,1.5-1.3s1.6.6,1.8,1.7c-.6.3-1.1.5-1.8.5M175.1,106.8c-1,0-1.8,1.1-1.8,2.5s.5,1.6,1.6,1.6,1.7-.5,1.9-1.3h0c0,.2,0,.5,0,.7,0,1.4-2.4,2.8-4.5,2.9h0c.5.2,1.1.6,1.7.6,1.6,0,3-1.5,3-3.8s-.7-3.3-1.9-3.3"/>
    <path d="M182.9,102.8h0c0,.2-.2.5-.2.7,0,.3.3.4.9.4s1.1,0,1.9,0c0-.2.2-.6.3-.8-.6,0-1.8,0-2.1,0-.6,0-.8,0-.8-.3"/>
    <path d="M182.6,109.3c-.8,0-1.1-.2-1.1-.6s.6-.9,2.7-2.1c0,.5.1,1.2.1,1.7s-.7,1-1.8,1M192.8,106.4c-.1.3-.3.8-.5,1,.5.5,1.1,1.3,1.1,1.7s-.8.7-2.2.7h-4.6c-1,0-1.6-.5-1.6-1.8,0-1.9-.1-2.7-.2-3.4h0c-.2.3-.5.6-.7.8,0,.2,0,.4.1.6-2.4,1.5-3,2.2-3,3.2s.4,1.1,1.3,1.1,1.7-.6,1.9-1.7h0c0,1.6.7,2.3,1.9,2.3h4.6c1.8,0,2.6-.7,2.6-2s-.5-2.2-.7-2.6h0,0Z"/>
    <path d="M192.3,112.3c-.3,0-1.1,0-1.9,0,0,.2-.2.6-.3.8.6,0,1.8,0,2.1,0,.6,0,.8,0,.8.3h0c0-.2.2-.5.2-.7,0-.3-.3-.4-.9-.4"/>
    <path d="M239.2,109.4c-1.2,0-1.9-.6-1.9-1.3s1-1.4,2-1.4,1.3.3,1.3.7h0c.2-.9-.2-1.6-1.3-1.6s-2.3,1.2-2.3,2.7.2,1.1.6,1.4c-.4,0-.8,0-1.1,0h-39.2c-1.2,0-1.6-.4-1.6-1.6s0-2.8,0-4.2,0-1.6,0-2.1h0c-.2.3-.5.8-.8,1,.2,1.1.3,1.7.3,5.9,0,1.7.6,2.2,1.9,2.2h39.2c1.8,0,2.8-.5,4.7-.9.2-.4.5-.9.7-1.1h0c-.7.2-1.7.4-2.6.4"/>
    <path d="M258.8,101.9c-.2.3-.5.8-.8,1,.1.7.6,5.1.6,6.3s-.5.6-1.6.6h0c-1.2,0-1.6-.4-1.6-1.6s0-2.8,0-4.2,0-1.6,0-2.1h0c-.2.3-.5.8-.8,1.1.2,1.1.3,1.7.3,5.6,0,.9-.6,1.3-1.6,1.3h-4.6c-.9,0-1.4-.5-1.7-1.8-.6-2.2-.7-2.8-.8-3.2h0c0,.2-.4.9-.6,1.1.5.9.9,2.5.9,2.9s-.7,1.1-2,1.1-1.4-.4-1.4-1.3h0c0,.4-.1.7-.1,1,0,.9.4,1.4,1.5,1.4s2.2-.8,2.2-2.4h0c.3,1.6,1,2.3,1.9,2.3h4.6c1.2,0,1.8-.5,1.8-1.9h0c0,1.4.6,1.9,1.8,1.9h0c.7,0,1.1,0,1.4-.4.5-.6.8-1.8.8-2.6,0-2.1-.2-5.5-.2-6.1h0Z"/>
    <path d="M105.6,83.6c-.3,0-.8,0-1.4,0s-1.2,0-1.8.1c0,.2-.1.4-.2.7-.1.3-.2.5-.3.7.5,0,1.1,0,1.9,0,.8,0,1.3,0,1.7,0,.5,0,.8,0,1,.1.2,0,.3.2.3.4h.1c0-.2,0-.4.2-.6,0-.3.1-.5.1-.6,0-.3-.1-.4-.4-.5s-.6-.2-1.1-.2"/>
    <path d="M113,80.8l1.2-1.3c-.1-.2-.3-.5-.6-.7-.3-.2-.6-.4-.8-.6l-1.1,1.3h0c.2.2.4.3.7.6s.5.4.6.6"/>
    <path d="M153.3,71.8c0-.3,0-.6.3-.8.2-.3.4-.5.8-.6s.7-.2,1-.2.7,0,1.1.3c.4.2.6.5.9.8.2.3.3.7.3,1,0,.6-.6,1.1-1.9,1.7-.8-.3-1.4-.6-1.8-.9-.4-.3-.6-.7-.6-1.1M159.9,72.2c.5.3.8.6,1,.9.2.3.3.6.3.9s0,.4-.1.6c0,.2-.2.5-.3.7-.9-.3-2.2-.7-3.7-1.1.7-.8,1-1.6,1-2.6s0-.4,0-.6c.9.5,1.5.9,2,1.2M101.8,81.3c.7.3,1.5.5,2.4.5s2.4-.2,3.3-.6c.9-.4,1.6-.9,2-1.6.5-.7.7-1.5.7-2.4s0-.5-.2-.7c.4,0,.9,0,1.5,0h0c.9,0,1.7-.1,2.3-.3.6-.2,1-.6,1.3-1,.3-.5.5-1.1.5-1.9h.1c0,.3,0,.5,0,.7,0,.9.2,1.6.6,2s1,.6,1.8.6h33.3c.8,0,1.5,0,2.2-.3.7-.2,1.2-.5,1.7-.8,2.3.6,3.9,1.1,4.6,1.4.5-.5.9-1.1,1.1-1.8s.4-1.3.4-2-.1-1-.3-1.4c-.2-.4-.6-.8-1.2-1.2-.6-.4-1.4-.9-2.4-1.5-1-.5-1.7-.9-2.3-1.2-.5-.3-.9-.6-1.2-.8h-.1c0,.3,0,.6-.1.9,0,.3-.2.6-.3.9.2,0,.4.2.8.4h.2c-.5.5-.8,1-1.1,1.6-.3.6-.5,1.2-.5,1.9s0,.7.2,1c.1.3.3.5.5.7-.4,0-1,.1-1.7.1h-33.3c-.6,0-1.1,0-1.4-.2-.3-.1-.6-.4-.7-.7s-.2-.7-.2-1.2v-.9h-.2c-.1.9-.3,1.5-.5,1.9-.2.4-.6.7-1.2.9-.5.2-1.3.3-2.4.3-2,0-3.5,0-4.4,0-.9,0-1.7,0-2.3-.2-.2.6-.6,1.2-1.1,1.9h0c.3.2.6.3,1,.3s.9.1,1.6.2c.7,0,1.3.2,1.7.2.4,0,.8.2,1.1.3.3.1.4.3.4.5s-.2.6-.6.9-1,.6-1.9.8c-.8.2-1.9.3-3,.3s-1.7-.1-2.3-.4c-.6-.3-1.1-.7-1.4-1.2s-.5-1.1-.5-1.8,0-.9.1-1.4c0-.5.2-1,.4-1.4h-.2c-.3.6-.5,1.3-.6,2-.1.7-.2,1.4-.2,2s.2,1.7.5,2.4.9,1.2,1.5,1.5"/>
    <path d="M167.4,64.8l1.2-1.3c-.1-.2-.3-.5-.6-.7-.3-.2-.6-.4-.8-.6l-1.1,1.3h0c.2.2.4.4.7.6.3.2.5.4.6.6"/>
    <path d="M173.6,75.9c.3-.4.5-.8.8-1.4.2-.6.4-1.1.5-1.7.1-.6.2-1.2.2-1.7,0-.9,0-2,0-3.1s0-2.4-.1-3.9c0-.3,0-.8,0-1.3s0-.8,0-1h-.1c-.2.3-.4.7-.7,1s-.5.7-.8.9c0,.5.2,1.4.4,2.7.2,1.4.3,2.7.5,4.1.1,1.4.2,2.3.2,2.9s-.2.5-.6.6c-.4.2-1,.2-1.9.2s-1.3-.2-1.7-.6c-.4-.4-.8-1.1-1-2.1l-.7-2.8c-.3-1.3-.6-2.1-.6-2.5h-.1c0,.1-.2.5-.5,1s-.5.9-.6,1c.2.5.5,1,.7,1.6.2.6.4,1.2.5,1.7s.2.9.2,1.1c0,.3-.1.5-.4.8s-.6.5-1.1.6-1.1.2-1.7.2-1,0-1.4-.2-.5-.3-.7-.6c-.1-.3-.2-.6-.2-1.1h-.2c-.1.8-.2,1.4-.2,1.8,0,.8.2,1.3.6,1.7s1,.6,1.8.6c2.3,0,3.5-1.3,3.6-4h.1c.4,2.6,1.5,3.8,3.2,3.8h0c.6,0,1,0,1.3-.2s.6-.3.8-.5"/>
    <path d="M178.1,76.2v.7h.1c0-.2.2-.6.3-1.1.2-.6.3-1,.3-1.5,0-.4.1-.9.2-1.5,0-.6,0-1.5,0-2.5,0-1.5,0-3.7-.2-6.5,0-1,0-1.7,0-2h-.1c-.2.3-.4.7-.7,1-.3.4-.5.7-.8.9,0,.4.2,1.5.3,3.1.1,1.6.3,3.4.4,5.2s.2,3.2.2,4.3"/>
    <path d="M184.7,80.9c.7.3,1.5.5,2.4.5s2.2-.2,3-.7c.9-.4,1.6-1.1,2.1-2s.8-1.9.8-3.1c.4.6,1,.9,1.8.9s1.2-.2,1.6-.6c.4-.4.7-.9.9-1.7h.1c0,.7.1,1.3.5,1.6.3.4.8.6,1.5.6s1.3-.3,1.8-.9.6-1.4.6-2.5,0-1.4-.2-2-.4-1.2-.6-1.7c0,0,0-.2-.1-.3h0c-.1.3-.2.7-.4,1-.2.3-.3.6-.5.8.6.5,1,1,1.3,1.4.3.4.4.8.4,1s0,.3-.3.4c-.2.1-.4.2-.7.3-.3,0-.6.1-1,.1s-.8,0-1.1-.2-.6-.3-.8-.5c0-.3.1-.7.1-1s0-.6,0-.8h-.2c0,.6-.2,1.1-.4,1.5-.2.4-.5.6-.8.8-.3.2-.8.2-1.3.2s-.8-.1-1.1-.3c-.3-.2-.6-.6-.9-1.1-.3-.5-.6-1.3-.9-2.2h-.1c-.1.3-.2.7-.4,1-.2.3-.3.6-.4.8.5.9.9,1.6,1.1,2.1.2.5.4.9.4,1.1,0,.6-.2,1.1-.7,1.7-.5.5-1.1,1-1.9,1.3-.8.3-1.8.5-2.8.5s-1.7-.1-2.3-.4c-.6-.3-1.1-.7-1.4-1.2-.3-.5-.5-1.1-.5-1.9s0-.9.1-1.5.2-1,.4-1.5h-.2c-.6,1.3-.9,2.7-.9,4.2s.2,1.7.5,2.4c.3.7.9,1.2,1.5,1.5"/>
    <path d="M202.7,79.3c-1.1.5-2.1.9-3.1,1h0c.2.2.4.3.7.4.4.2.7.3,1,.4s.6.1.9.1c.8,0,1.5-.3,2.2-.8s1.2-1.3,1.6-2.2c.4-.9.6-2,.6-3.2s0-1-.2-1.5c-.1-.5-.3-.9-.5-1.3-.2-.4-.4-.8-.7-1.3h-.1c-.1.3-.2.6-.4,1s-.3.7-.5.9c.7.7,1.2,1.2,1.6,1.7.4.5.5.9.5,1.1,0,.5-.3,1.1-1,1.8-.7.7-1.6,1.3-2.6,1.8"/>
    <path d="M246.3,72c0-.3.1-.5.4-.8s.6-.5.9-.7.8-.3,1.2-.3.8.1,1.2.3c.4.2.7.5.9.8.2.3.3.7.3,1s0,.4-.3.6-.5.4-.9.6c-.4.2-.9.4-1.5.5-.4-.2-.8-.4-1.2-.6-.3-.3-.6-.5-.8-.8s-.3-.5-.3-.7M208,68.1c0,1.1,0,2.7.1,4.8,0,.9.1,1.7.3,2.2.2.5.5.9,1,1.1.5.2,1.1.3,1.8.3h33.3c1,0,1.7,0,2.3-.3s1-.5,1.3-.9c.2.4.6.7,1.2.9s1.5.3,2.6.3h0c.6,0,1,0,1.3-.2.3-.1.6-.3.8-.5.3-.4.5-.8.8-1.4.2-.6.4-1.1.5-1.7s.2-1.2.2-1.7c0-.9,0-2,0-3.1,0-1.1,0-2.4-.1-3.9,0-.3,0-.8,0-1.3s0-.8,0-1h-.1c-.2.3-.4.7-.7,1-.3.4-.5.7-.8.9,0,.5.2,1.4.4,2.7s.3,2.7.5,4.1c.1,1.4.2,2.3.2,2.9s-.2.5-.6.6c-.4.2-1,.2-1.9.2s-1.6,0-2.1,0c.4-.3.6-.7.8-1.1.2-.4.3-.9.3-1.4s-.1-1.2-.3-1.6-.5-.8-.9-1.1c-.4-.3-.8-.4-1.3-.4s-1,.2-1.5.6c-.5.4-.9.9-1.1,1.5s-.4,1.3-.4,2.1.2,1,.6,1.4c-.4,0-.9,0-1.5,0h-33.3c-.6,0-1.2,0-1.5-.3-.4-.2-.7-.4-.8-.8s-.3-.8-.3-1.4,0-1.8,0-3.3c0-1.5,0-2.6,0-3.3s0-1.4,0-2.3c0-.5,0-.9,0-1.2h-.1c-.2.3-.4.7-.7,1-.3.4-.5.7-.8.9.1.7.2,1.3.3,1.9,0,.6.1,1.4.2,2.5"/>
    <polygon points="251.1 60.5 247 62.3 247 62.8 251 61 251.1 60.5"/>
    <path d="M248.8,64.3l-1.1,1.3h0c.2.2.4.4.7.6.3.2.5.4.6.6l1.2-1.3c-.1-.2-.3-.5-.6-.7-.3-.2-.6-.4-.8-.6"/>
    <path d="M258.5,72c.1,1.8.2,3.2.2,4.3s0,.5,0,.7h.1c0-.2.2-.6.3-1.1.2-.6.3-1.1.3-1.5,0-.4.1-.9.2-1.5,0-.6,0-1.5,0-2.5,0-1.5,0-3.7-.2-6.5,0-1,0-1.7,0-2h-.1c-.2.3-.4.7-.7,1-.3.4-.5.7-.8.9,0,.4.2,1.5.3,3.1.1,1.6.2,3.4.4,5.2"/>
    <path d="M103.9,90.6l1.3,3.1c-.6,0-1.2.2-1.7.5-.5.3-1,.6-1.4,1l1.9-4.5h0ZM99.9,98.3h1.6c0,0,0-.2,0-.2v-.2c0,0-.2,0-.2,0h-.1s-.1,0-.1,0c0,0,0-.2,0-.3l.2-.5c.4-.8.9-1.5,1.7-2,.7-.5,1.5-.8,2.4-.9l1.4,3.3c0,.1,0,.2,0,.3,0,0-.1,0-.2,0h-.2c0,0,0,.2,0,.2v.2c0,0,.2,0,.2,0h3.4c.1,0,.2,0,.2-.2v-.2c0,0-.2,0-.2,0-.2,0-.3,0-.5-.2s-.3-.2-.3-.4l-4-9.7h0c0,0,0-.1,0-.1h0s0,0,0,0h-.1s0,0,0,0h0c0,0-4,9.7-4,9.7,0,.2-.2.3-.3.4-.2.1-.3.2-.5.2h-.2c0,0,0,.2,0,.2,0,.1,0,.2.2.2"/>
    <path d="M111.6,97.8c0,0-.2.1-.4.1h-.2c0,0,0,.2,0,.2,0,.1,0,.2.2.2h7.9c.1,0,.2,0,.2-.2v-2.5c0-.1,0-.2-.2-.2h-.2c0,0,0,.2,0,.2,0,.3,0,.6-.2.9-.1.3-.3.5-.5.7s-.4.4-.7.5c-.3.1-.6.2-.9.2h-2.7v-9.4c0-.1,0-.3.1-.4s.2-.1.3-.1h.2c0,0,0-.2,0-.2,0-.1,0-.2-.2-.2h-3.2c-.1,0-.2,0-.2.2v.2c0,0,.2,0,.2,0,.1,0,.3,0,.4.1s.1.2.1.4v8.9c0,.1,0,.3-.1.4"/>
    <path d="M131.5,88c.3,0,.6,0,.9.2s.5.3.7.5c.2.2.4.4.5.7.1.3.2.6.2.9v.2c0,0,.2,0,.2,0h.1c0,0,0-.2,0-.2v-2.7c0,0-.2,0-.2,0h-7.9c-.1,0-.2,0-.2.2v.2c0,0,.2,0,.2,0,.1,0,.3,0,.3.1,0,0,.1.2.1.4v8.9c0,.1,0,.3-.1.4s-.2.1-.3.1h-.2c0,0,0,.2,0,.2,0,.1,0,.2.2.2h3.2c.1,0,.2,0,.2-.2v-.2c0,0-.2,0-.2,0-.1,0-.3,0-.3-.1s-.1-.2-.1-.4v-4.2h1.4c.1,0,.3,0,.4.1s.1.2.1.4,0,.2.2.2.2,0,.2-.2v-1.6c0,0-.2,0-.2,0h-.2c0,0,0,.2,0,.2,0,.1,0,.2-.1.3,0,0-.2.1-.4.1h-1.4v-4.7h2.7,0Z"/>
    <path d="M135.4,94.2c-.5.3-1,.6-1.4,1l1.9-4.5,1.3,3.1c-.6,0-1.2.2-1.7.5M138.5,97.9h-.2c0,0,0,.2,0,.2v.2c0,0,.2,0,.2,0h3.4c.1,0,.2,0,.2-.2v-.2c0,0-.2,0-.2,0-.2,0-.3,0-.5-.2s-.3-.2-.3-.4l-4-9.7h0c0,0,0-.1,0-.1h0s0,0,0,0h-.1s0,0,0,0h0c0,0-4,9.7-4,9.7,0,.2-.2.3-.3.4-.2.1-.3.2-.5.2h-.2c0,0,0,.2,0,.2,0,.1,0,.2.2.2h1.6c0,0,0-.2,0-.2v-.2c0,0-.2,0-.2,0h-.1s-.1,0-.1,0c0,0,0-.2,0-.3l.2-.5c.4-.8.9-1.5,1.7-2,.7-.5,1.5-.8,2.4-.9l1.4,3.3c0,.1,0,.2,0,.3,0,0-.1,0-.2,0"/>
    <path d="M145.9,88h2.5c.2,0,.4.1.6.3.2.2.4.4.5.8.1.3.3.7.3,1.1,0,.4.1.9.1,1.3s0,.9-.1,1.3c0,.4-.2.8-.4,1.1-.3.7-.7,1-1.1,1h-2.5v-7h0ZM148.3,95.4l1.8,2.9c0,0,.1.1.2.1h3c0,0,0-.2,0-.2v-.2c0,0-.2,0-.2,0-.2,0-.3,0-.5-.2-.2-.1-.3-.2-.4-.4l-1.6-2.6c.6-.4,1-.8,1.3-1.4.3-.6.5-1.2.5-1.9s-.1-1-.3-1.5c-.2-.5-.5-.9-.8-1.2s-.8-.6-1.2-.8c-.5-.2-1-.3-1.5-.3h-5.3c-.1,0-.2,0-.2.2v.2c0,0,.2,0,.2,0,.1,0,.3,0,.3.1,0,0,.1.2.1.4v8.9c0,.1,0,.3-.1.4s-.2.1-.3.1h-.2c0,0,0,.2,0,.2,0,.1,0,.2.2.2h3.2c.1,0,.2,0,.2-.2v-.2c0,0-.2,0-.2,0-.1,0-.3,0-.3-.1,0,0-.1-.2-.1-.4v-2h2.4Z"/>
    <path d="M159.8,88c.3,0,.6,0,.9.2s.5.3.7.5c.2.2.4.4.5.7.1.3.2.6.2.9v.2c0,0,.2,0,.2,0,.1,0,.2,0,.2-.2v-2.5c0-.1,0-.2-.2-.2h-7.9c-.1,0-.2,0-.2.2v.2c0,0,.2,0,.2,0,.1,0,.3,0,.4.1s.1.2.1.4v8.9c0,.1,0,.3-.1.4s-.2.1-.4.1h-.2c0,0,0,.2,0,.2,0,.1,0,.2.2.2h7.9c.1,0,.2,0,.2-.2v-2.5c0-.1,0-.2-.2-.2h-.2c0,0,0,.2,0,.2,0,.3,0,.6-.2.9-.1.3-.3.5-.5.7s-.4.4-.7.5c-.3.1-.6.2-.9.2h-2.7v-4.7h1.4c.1,0,.3,0,.4.1s.1.2.1.4,0,.2.2.2.2,0,.2-.2v-1.6c0,0-.2,0-.2,0h-.2c0,0,0,.2,0,.2,0,.1,0,.2-.1.3-.1,0-.2.1-.4.1h-1.4v-4.7h2.7Z"/>
    <path d="M170.4,93.3c-.2-.3-.4-.5-.7-.7s-.6-.3-.9-.5l-2.6-.7c-.4-.1-.7-.3-.9-.7-.2-.3-.3-.7-.3-1.1s0-.5.1-.7c0-.2.2-.4.4-.6s.4-.3.6-.4c.2-.1.5-.1.7-.1h.5c.4,0,.7,0,1.1.2.3.1.6.3.9.6.2.3.4.5.6.9s.2.7.2,1.1,0,.2.2.2.2,0,.2-.2v-2.9c0-.1,0-.2-.2-.2s-.2,0-.2.2v.3c0,.1,0,.2-.1.3,0,0-.2.1-.2.1s-.2,0-.2,0h0c-.3-.3-.6-.5-1-.6-.4-.2-.8-.2-1.2-.2h-.5c-.4,0-.9,0-1.2.3-.4.2-.7.4-1,.7-.3.3-.5.6-.7,1s-.3.8-.3,1.3,0,.7.2,1c.1.3.3.6.5.9.2.3.4.5.7.7.3.2.6.3.9.5l2.6.7c.4.1.7.3.9.7s.3.7.3,1.1,0,.5-.1.7c0,.2-.2.4-.4.6-.2.2-.4.3-.6.4s-.5.1-.7.1h-1.2c-.4,0-.7,0-1.1-.2-.3-.1-.6-.3-.9-.6-.2-.3-.4-.5-.6-.9s-.2-.7-.2-1.1v-.2c0,0-.2,0-.2,0-.1,0-.2,0-.2.2v2.9c0,.1,0,.2.2.2h.2c0,0,0-.2,0-.2v-.3c0-.1,0-.2.1-.3s.1-.1.2-.1.2,0,.2,0h0c.3.3.6.5,1,.6.4.2.8.2,1.2.2h1.2c.4,0,.9,0,1.2-.3.4-.2.7-.4,1-.7.3-.3.5-.6.7-1s.3-.8.3-1.3,0-.7-.2-1c-.1-.3-.3-.6-.5-.9"/>
    <path d="M181.5,94.2c-.5.3-1,.6-1.5,1l1.9-4.5,1.3,3.1c-.6,0-1.2.2-1.7.5M184.8,97.5c0,.1,0,.2,0,.3,0,0-.1,0-.2,0h-.2c0,0,0,.2,0,.2v.2c0,0,.2,0,.2,0h3.4c.1,0,.2,0,.2-.2v-.2c0,0-.2,0-.2,0-.2,0-.3,0-.5-.2s-.3-.2-.3-.4l-4-9.7h0c0,0,0-.1,0-.1h0s0,0,0,0h-.1s0,0,0,0h0c0,0-4,9.7-4,9.7,0,.2-.2.3-.3.4-.2.1-.3.2-.5.2h-.2c0,0,0,.2,0,.2,0,.1,0,.2.2.2h1.6c0,0,0-.2,0-.2v-.2c0,0-.2,0-.2,0h-.1s-.1,0-.1,0c0,0,0-.2,0-.3l.2-.5c.4-.8.9-1.5,1.7-2,.7-.5,1.5-.8,2.4-.8l1.4,3.3h0Z"/>
    <path d="M189.6,97.8c0,0-.2.1-.4.1h-.2c0,0,0,.2,0,.2,0,.1,0,.2.2.2h7.9c.1,0,.2,0,.2-.2v-2.5c0-.1,0-.2-.2-.2h-.2c0,0,0,.2,0,.2,0,.3,0,.6-.2.9-.1.3-.3.5-.5.7s-.4.4-.7.5c-.3.1-.6.2-.9.2h-2.7v-9.4c0-.1,0-.3.1-.4s.2-.1.3-.1h.2c0,0,0-.2,0-.2,0-.1,0-.2-.2-.2h-3.2c-.1,0-.2,0-.2.2v.2c0,0,.2,0,.2,0,.1,0,.3,0,.4.1s.1.2.1.4v8.9c0,.1,0,.3-.1.4"/>
    <path d="M206.8,88h1.9c.4,0,.8.1,1.2.4s.7.6,1,1.1c.3.5.5,1,.7,1.6.2.6.2,1.2.2,1.9s0,1.3-.2,1.9c-.2.6-.4,1.1-.7,1.6-.3.5-.6.8-1,1.1s-.8.4-1.2.4h-1.9v-9.9ZM204.5,97.8c0,0-.2.1-.3.1h-.2c0,0,0,.2,0,.2,0,.1,0,.2.2.2h4.6c.7,0,1.4-.1,2.1-.4.6-.3,1.2-.7,1.7-1.2.5-.5.9-1.1,1.2-1.7s.4-1.4.4-2.1-.1-1.4-.4-2.1-.7-1.2-1.2-1.7-1.1-.9-1.7-1.2-1.3-.4-2.1-.4h-4.6c-.1,0-.2,0-.2.2v.2c0,0,.2,0,.2,0,.1,0,.3,0,.3.1s.1.2.1.4v8.9c0,.1,0,.3-.1.4"/>
    <path d="M216.8,94.2c-.5.3-1,.6-1.4,1l1.9-4.5,1.3,3.1c-.6,0-1.2.2-1.7.5M219.9,97.9h-.2c0,0,0,.2,0,.2v.2c0,0,.2,0,.2,0h3.4c.1,0,.2,0,.2-.2v-.2c0,0-.2,0-.2,0-.2,0-.3,0-.5-.2s-.3-.2-.3-.4l-4-9.7h0c0,0,0-.1,0-.1h0s0,0,0,0h-.1s0,0,0,0h0c0,0-4,9.7-4,9.7,0,.2-.2.3-.3.4-.2.1-.3.2-.5.2h-.2c0,0,0,.2,0,.2,0,.1,0,.2.2.2h1.6c0,0,0-.2,0-.2v-.2c0,0-.2,0-.2,0h-.1s-.1,0-.1,0c0,0,0-.2,0-.3l.2-.5c.4-.8.9-1.5,1.7-2,.7-.5,1.5-.8,2.4-.9l1.4,3.3c0,.1,0,.2,0,.3,0,0-.1,0-.2,0"/>
    <path d="M233.7,88.1c0,0,.2-.1.3-.1h.2c0,0,0-.2,0-.2v-.2c0,0-.2,0-.2,0h-3.4c0,0,0,.2,0,.2v.2c0,0,.2,0,.2,0,.1,0,.3,0,.3.1,0,0,.1.2.1.4v4.2h-4.1v-4.2c0-.1,0-.3.1-.4,0,0,.2-.1.3-.1h.2c0,0,0-.2,0-.2,0-.1,0-.2-.2-.2h-3.2c-.1,0-.2,0-.2.2v.2c0,0,.2,0,.2,0,.1,0,.3,0,.4.1,0,0,.1.2.1.4v8.9c0,.1,0,.3-.1.4,0,0-.2.1-.4.1h-.2c0,0,0,.2,0,.2,0,.1,0,.2.2.2h3.2c.1,0,.2,0,.2-.2v-.2c0,0-.2,0-.2,0-.1,0-.3,0-.3-.1,0,0-.1-.2-.1-.4v-4.2h4.1v4.2c0,.1,0,.3-.1.4,0,0-.2.1-.3.1h-.2c0,0,0,.2,0,.2v.2c0,0,.2,0,.2,0h3.4c0,0,0-.2,0-.2v-.2c0,0-.2,0-.2,0-.1,0-.2,0-.3-.1s-.1-.2-.1-.4v-8.9c0-.1,0-.3.1-.4"/>
    <path d="M239,94.2c-.5.3-1,.6-1.4,1l1.9-4.5,1.3,3.1c-.6,0-1.2.2-1.7.5M245.7,98.1v-.2c0,0-.2,0-.2,0-.2,0-.3,0-.5-.2s-.3-.2-.3-.4l-4-9.7h0c0,0,0-.1,0-.1h0s0,0,0,0h-.1s0,0,0,0h0c0,0-4,9.7-4,9.7,0,.2-.2.3-.3.4-.2.1-.3.2-.5.2h-.2c0,0,0,.2,0,.2,0,.1,0,.2.2.2h1.6c0,0,0-.2,0-.2v-.2c0,0-.2,0-.2,0h-.1s-.1,0-.1,0c0,0,0-.2,0-.3l.2-.5c.4-.8.9-1.5,1.7-2,.7-.5,1.5-.8,2.4-.8l1.4,3.3c0,.1,0,.2,0,.3,0,0-.1,0-.2,0h-.2c0,0,0,.2,0,.2v.2c0,0,.2,0,.2,0h3.4c.1,0,.2,0,.2-.2"/>
    <path d="M253.6,96.5c0,.3,0,.5-.2.7s-.1.3-.2.5c0,0-.1.1-.2.1h-3.5v-4.7h3.5s0,0,.2.2c0,.1.1.3.2.5,0,.2.1.5.2.7,0,.3,0,.6,0,1s0,.7,0,1M249.5,88h3s0,0,.2.1c0,0,.1.2.2.4,0,.2.1.5.2.7,0,.3,0,.6,0,1s0,.7,0,1c0,.3,0,.5-.2.7,0,.2-.1.3-.2.5,0,.1-.1.2-.2.2h-3v-4.7h0ZM254.7,93.2c-.2-.2-.5-.3-.8-.4.4-.2.8-.6,1.1-1,.3-.4.4-.9.4-1.5s0-.8-.2-1.1-.3-.6-.6-.9c-.3-.3-.5-.5-.9-.6s-.7-.2-1.1-.2h-5.7c-.1,0-.2,0-.2.2v.2c0,0,.2,0,.2,0,.1,0,.3,0,.3.1,0,0,.1.2.1.4v8.9c0,.1,0,.3-.1.4,0,0-.2.1-.3.1h-.2c0,0,0,.2,0,.2,0,.1,0,.2.2.2h6.3c.4,0,.8,0,1.1-.2.3-.1.6-.3.9-.6.2-.3.5-.6.6-.9s.2-.7.2-1.1,0-.6-.2-.9-.2-.6-.4-.8c-.2-.2-.4-.4-.6-.6"/>
    <path d="M259.7,97.9c-.1,0-.3,0-.3-.1,0,0-.1-.2-.1-.4v-8.9c0-.1,0-.3.1-.4s.2-.1.3-.1h.2c0,0,0-.2,0-.2,0-.1,0-.2-.2-.2h-3.2c-.1,0-.2,0-.2.2v.2c0,0,.2,0,.2,0,.1,0,.3,0,.4.1,0,0,.1.2.1.4v8.9c0,.1,0,.3-.1.4,0,0-.2.1-.4.1h-.2c0,0,0,.2,0,.2,0,.1,0,.2.2.2h3.2c.1,0,.2,0,.2-.2v-.2c0,0-.2,0-.2,0Z"/>
    <rect class="st1" x="507.2" y="151.6" width="51.6" height="28.5"/>
    <rect class="st16" x="36.5" y="151.7" width="471" height="28.5"/>
    <path class="st5" d="M558.8,180.2H36.5M558.8,151.6H36.5v656h522.3V151.6Z"/>
    <path class="st9" d="M519.2,162.5c0-.1,0-.3.1-.5h0c0,.1.2.2.6.2s1.1,0,1.5,0c0,.1-.2.5-.2.6-.6,0-1.2,0-1.4,0-.4,0-.6,0-.6-.3M520.3,165.8c0-.4,0-.8,0-1.1-1.5.8-1.8,1.1-1.8,1.4s.2.4.7.4,1.2-.3,1.2-.6M521.9,166.8l-.2.9c-.8,0-1.3-.4-1.3-1.6h0c-.1.8-.5,1.2-1.3,1.2s-.9-.3-.9-.8c0-.7.4-1.2,2.1-2.2,0-.2,0-.3,0-.4.2-.1.4-.4.5-.6h0c0,.4.1,1,.1,2.3s.4,1.2,1,1.2"/>
    <path class="st9" d="M526.6,165.3h0c-.1.1-.3.4-.4.6-1.3,0-1.8,1.8-4.4,1.8s-.2-.1-.2-.3c0-.4.1-.6.3-.6,2.4,0,3-.7,3.9-.9h0c-1.2-.2-1.9-.7-2.6-.7s-.6.2-.8.5h0c.3-1,.6-1.3,1-1.3.8,0,1.9.8,3.3.9"/>
    <path class="st9" d="M528.3,166.9c.3,0,.8,0,1.3,0-.1-.8-.6-1.3-1.3-1.3s-1,.4-1,.8.2.6,1,.6M530.1,167.8h-.4c-.2,1.2-1.1,2-2,2s-.9-.3-1.3-.4h0c1.2-.1,2.8-.9,3.1-1.7-.4,0-.8,0-1.3,0-.8,0-1.1-.4-1.1-1.1s.5-1.8,1.2-1.8,1.2.7,1.3,2h.5l-.2.9h0Z"/>
    <path class="st9" d="M531.5,166.4h0c0,1-.5,1.4-1.2,1.4s-.2-.1-.2-.3c0-.4.1-.6.3-.6.7,0,1.1-.2,1.1-.8,0-2.6-.1-2.9-.3-3.7.2-.2.5-.6.6-.9h0c0,.4,0,.8,0,1.5s0,1.9,0,2.8.3,1.1,1.1,1.1l-.2.9c-.8,0-1.3-.4-1.3-1.4"/>
    <path class="st9" d="M533.7,167.5c-.2.2-.5.3-.9.3s-.2-.1-.2-.3c0-.4.1-.6.3-.6.7,0,1.1-.2,1.1-.4,0-.8-.4-3.6-.5-4.1.2-.2.5-.6.6-.8h0c0,.4.1,2.5.1,3.9s-.2,1.5-.6,2"/>
    <path class="st9" d="M536,165.1c0,1.7-.2,1.9-.4,2.8h0c0-1.1-.2-5-.3-5.6.2-.2.5-.6.6-.8h0c0,.4.1,2.3.1,3.6"/>
    <path class="st9" d="M541.6,166.5c0-.4-.4-1.1-1.1-1.1s-.9.4-1.2,1.1c.4.1,1.1.3,1.8.3s.5-.1.5-.3M542.9,166.8l-.2.9c-.6,0-1-.4-1-1.2h0c0,.8-.4,1.2-.9,1.2-.8,0-1.4-.2-1.6-.2s-.5.3-.5.7c0,.9,0,2.1,0,2.5-.1.1-.2.3-.3.4h0c0-.3,0-1.3,0-2.8s.4-1.8.9-1.8c.3-1.2.7-1.8,1.4-1.8s.9.3,1.2,1.1c.2.7.5.9,1.1.9"/>
    <path class="st9" d="M545.6,165c-.2-.6-.7-1-1.2-1s-1,.4-1,.8.2.5,1,.5.9-.1,1.2-.3M543.3,162.1c0-.1,0-.3.1-.5h0c0,.1.2.2.6.2s1,0,1.5,0c0,.1-.2.5-.2.6-.6,0-1.2,0-1.4,0-.4,0-.6,0-.6-.3M545.8,165.7c0,1.4-.8,2-2.8,2h-.2c-.1,0-.2-.1-.2-.3,0-.4.1-.6.3-.6h.2c1.9,0,2.5-.4,2.5-.9,0-.3,0-.6,0-.9h0c0,0,0,0,0,0,0,.6-.6,1-1.3,1s-1-.4-1-1c0-.9.5-1.7,1.2-1.7s1.3.8,1.3,2.4"/>
    <path class="st9" d="M544.9,169.4h0c1.3-.2,2.9-1.3,2.9-2s-.3-.6-.9-1.2c.1-.2.3-.6.4-.8h0c.2.5.6,1.1.6,1.8,0,1.6-.9,2.6-1.9,2.6s-.8-.3-1.1-.4"/>
    <path class="st14" d="M461.4,162.5c0-.1.1-.3.1-.5h0c0,.1.1.2.6.2s1.1,0,1.5,0c0,.1-.2.5-.2.6-.6,0-1.1,0-1.4,0-.4,0-.6,0-.6-.3M462.6,165.8c0-.4,0-.8,0-1.1-1.5.8-1.8,1.1-1.8,1.4s.2.4.7.4,1.2-.3,1.2-.6M464.1,166.8l-.2.9c-.8,0-1.3-.4-1.3-1.6h0c-.1.8-.5,1.2-1.3,1.2s-.9-.3-.9-.8c0-.7.4-1.2,2.1-2.2,0-.2,0-.3,0-.4.2-.1.4-.4.5-.6h0c0,.4.1,1,.1,2.3s.4,1.2,1,1.2"/>
    <path class="st14" d="M468.8,165.3h0c-.1.1-.3.4-.4.6-1.3,0-1.8,1.8-4.4,1.8s-.2-.1-.2-.3c0-.4.1-.6.4-.6,2.4,0,3-.7,3.9-.9h0c-1.2-.2-1.9-.7-2.6-.7s-.6.2-.8.6h0c.3-1,.6-1.3,1-1.3.8,0,1.9.8,3.3.9"/>
    <path class="st14" d="M470.6,166.9c.4,0,.8,0,1.3,0-.1-.8-.6-1.3-1.3-1.3s-1,.4-1,.8.2.6,1,.6M472.4,167.8h-.4c-.2,1.2-1.1,2-2,2s-.9-.3-1.3-.4h0c1.2-.1,2.8-.9,3.1-1.7-.4,0-.8,0-1.3,0-.8,0-1.1-.4-1.1-1.1s.5-1.8,1.2-1.8,1.2.7,1.3,2h.5l-.2.9h0Z"/>
    <path class="st14" d="M473.7,166.4h0c0,1-.5,1.4-1.2,1.4s-.2-.1-.2-.3c0-.4.1-.6.4-.6.7,0,1.1-.2,1.1-.8,0-2.6-.1-2.9-.3-3.7.2-.2.5-.6.6-.9h0c0,.4,0,.8,0,1.5s0,1.9,0,2.8.3,1.1,1.1,1.1l-.2.9c-.8,0-1.3-.4-1.3-1.4"/>
    <path class="st14" d="M475.9,167.5c-.2.2-.5.3-.9.3s-.2-.1-.2-.3c0-.4.1-.6.4-.6.7,0,1.1-.2,1.1-.4,0-.8-.4-3.6-.5-4.1.2-.2.5-.6.6-.8h0c0,.4.1,2.5.1,3.9s-.2,1.5-.6,2"/>
    <path class="st14" d="M478.2,165.1c0,1.7-.2,1.9-.4,2.8h0c0-1.1-.2-5-.4-5.6.2-.2.5-.6.6-.8h0c0,.4.1,2.3.1,3.6"/>
    <path class="st14" d="M482.9,166.3c0-.3-.5-.8-1.6-1.3-.4.6-.5,1-.5,1.3s.3.5.9.5,1.2-.3,1.2-.5M480.7,163.1c0-.1.1-.3.1-.5h0c0,.1.1.2.6.2s1.1,0,1.5,0c0,.1-.2.5-.2.6-.6,0-1.1,0-1.4,0-.4,0-.6,0-.6-.3M483,166.2c0,1.1-.5,1.6-1.4,1.6s-1-.4-1-.9.2-1.1.7-1.9h-.2c0-.3.2-.7.3-.9h0c.4.3,1.7.8,1.7,2.1"/>
    <path class="st14" d="M482.1,169.4h0c1.3-.2,2.9-1.3,2.9-2s-.3-.6-.9-1.2c.1-.2.3-.6.4-.8h0c.2.5.6,1.1.6,1.8,0,1.6-.9,2.6-1.9,2.6s-.8-.3-1.1-.4"/>
    <path class="st14" d="M487.2,166.9c.4,0,.8,0,1.3,0-.1-.8-.6-1.3-1.3-1.3s-1,.4-1,.8.2.6,1,.6M488.9,167.8h-.4c-.2,1.2-1.1,2-2,2s-.9-.3-1.3-.4h0c1.2-.1,2.8-.9,3.1-1.7-.4,0-.8,0-1.3,0-.8,0-1.1-.4-1.1-1.1s.5-1.8,1.2-1.8,1.2.7,1.3,2h.5l-.2.9h0Z"/>
    <path class="st14" d="M494.4,166.1c0-.4-.4-.9-1.1-.9s-1.5.6-2.1,1.4c.3.1.7.2,1.2.2,1.2,0,2.1-.3,2.1-.7M494.5,165.8c0,1.2-.9,2-2.4,2s-1.8-.4-1.9-1.1h0c-.1.7-.6,1.1-1.3,1.1s-.2-.1-.2-.3c0-.4.1-.6.4-.6.8,0,1.2-.3,1.3-1.1h0c0,.4.2.7.6.9.9-1.5,1.6-2.1,2.4-2.1s1.1.5,1.1,1.3"/>
    <path class="st14" d="M374.4,162.5c0-.1.1-.3.1-.5h0c0,.1.1.2.6.2s1.1,0,1.5,0c0,.1-.2.5-.2.6-.6,0-1.1,0-1.4,0-.4,0-.6,0-.6-.3M375.6,165.8c0-.4,0-.8,0-1.1-1.5.8-1.8,1.1-1.8,1.4s.2.4.7.4,1.2-.3,1.2-.6M377.1,166.8l-.2.9c-.8,0-1.3-.4-1.3-1.6h0c-.1.8-.5,1.2-1.3,1.2s-.9-.3-.9-.8c0-.7.4-1.2,2.1-2.2,0-.2,0-.3,0-.4.2-.1.4-.4.5-.6h0c0,.4.1,1,.1,2.3s.4,1.2,1,1.2"/>
    <path class="st14" d="M377.7,163.2c0-.1,0-.3.1-.5h0c0,.1.2.2.6.2s1.1,0,1.5,0c0,.1-.2.5-.2.6-.6,0-1.1,0-1.4,0-.4,0-.6,0-.6-.3M378.6,166.7c.8-.2,1.1-.5,1.1-.8,0-.5-.5-.9-1-.9s-1.1.4-1.1.7.4.7,1,.9M380.3,166.8l-.2.9c-1,0-1.4-.2-1.6-.5-.3.4-.7.5-1.5.5s-.2-.1-.2-.3c0-.4.1-.6.4-.6s.5,0,.6,0c-.1-.2-.2-.4-.2-.6,0-1,.6-1.8,1.3-1.8s1,.5,1,1.3-.2.8-.5,1.1c.2,0,.5,0,.9,0"/>
    <path class="st14" d="M384,166.1c0-.4-.4-.9-1.1-.9s-1.6.6-2.2,1.6h1.3c1.2,0,2.1-.3,2.1-.7M384.8,166.8l-.2.9c-.5,0-.8-.3-.8-.9-.4.6-1.1.9-2.1.9h-1.6c-.1,0-.2-.1-.2-.3,0-.4.1-.6.4-.6h.2c.4-.6.6-1.1.6-2.1s-.1-2-.2-2.4c.2-.2.5-.6.6-.8h0c0,.3,0,1.9,0,2.5s-.1,1.2-.9,2.4h0c.9-1.3,1.5-1.9,2.2-1.9s1.1.5,1.1,1.3,0,.6-.2.9c.2,0,.4.1.8.1h0Z"/>
    <path class="st14" d="M385.5,164.4h0c0,0,.5-.6.5-.6.2.1.5.4.6.5l-.5.5c-.1-.1-.4-.4-.6-.5M386.5,166.4h0c0,1-.6,1.4-1.8,1.4s-.2-.1-.2-.3c0-.4.1-.6.4-.6,1.4,0,1.6-.3,1.8-1.3h0v.4c0,.6.2.9,1,.9l-.2.9c-.7,0-1.1-.3-1-1.4"/>
    <path class="st14" d="M389,166.2c.2.4,1,.8,1.6.8s.5-.1.5-.4c0-.5-.5-1.1-1.2-1.1s-.8.2-1,.7M391.3,166.6h0c0,.8-.3,1.2-.8,1.2-.9,0-1.6-.4-1.7-1,0-.2,0-.4,0-.5h0c-.2.5-.4,1.4-1.3,1.4s-.2-.1-.2-.3c0-.4.1-.6.4-.6.5,0,.9-.2,1.1-.8h.1c.4-.8.8-1.2,1.3-1.2s.8.2,1.1,1.1c.3.7.6.9,1.2.9l-.2.9c-.6,0-1-.4-1.1-1.1"/>
    <path class="st14" d="M393.3,167.5c-.2.2-.5.3-.9.3s-.2-.1-.2-.3c0-.4.1-.6.4-.6.7,0,1.1-.2,1.1-.4,0-.8-.4-3.6-.5-4.1.2-.2.5-.6.6-.8h0c0,.4.1,2.5.1,3.9s-.2,1.5-.6,2"/>
    <path class="st14" d="M395.7,165.1c0,1.7-.2,1.9-.4,2.8h0c0-1.1-.2-5-.4-5.6.2-.2.5-.6.6-.8h0c0,.4.1,2.3.1,3.6"/>
    <path class="st14" d="M418.3,162.5c0-.1.1-.3.1-.5h0c0,.1.1.2.6.2s1.1,0,1.5,0c0,.1-.2.5-.2.6-.6,0-1.1,0-1.4,0-.4,0-.6,0-.6-.3M419.4,165.8c0-.4,0-.8,0-1.1-1.5.8-1.8,1.1-1.8,1.4s.2.4.7.4,1.2-.3,1.2-.6M421,166.8l-.2.9c-.8,0-1.3-.4-1.3-1.6h0c-.1.8-.5,1.2-1.3,1.2s-.9-.3-.9-.8c0-.7.4-1.2,2.1-2.2,0-.2,0-.3,0-.4.2-.1.4-.4.5-.6h0c0,.4.1,1,.1,2.3s.4,1.2,1,1.2"/>
    <path class="st14" d="M420.8,167.8c-.1,0-.2-.1-.2-.3,0-.4.1-.6.4-.6,1,0,1.6-.2,1.6-.4s-.4-.8-.8-1.1c.1-.1.3-.6.4-.8h0c0,.2.5.9.5,1.8s-.5,1.5-1.8,1.5M420.4,168.6c.6,0,1.1,0,1.4,0,.4,0,.6,0,.6.3s0,.3-.1.5h0c0-.1-.2-.2-.6-.2s-1.1,0-1.5,0c0-.1.2-.5.2-.6"/>
    <path class="st14" d="M426.2,166.1h0c0,1.1-.6,1.7-1.5,1.7s-1-.4-1-1,0-.5,0-.8h0c0,.6.2.8.9.8s1.4-.4,1.4-.7-.3-1.3-.6-1.9c.1-.2.4-.7.5-.9h0c0,.4.2.8.6,2.2.2.8.6,1.2,1.2,1.2l-.2.9c-.7,0-1.2-.4-1.4-1.6"/>
    <path class="st14" d="M428.9,166.4h0c0,1-.5,1.4-1.2,1.4s-.2-.1-.2-.3c0-.4.1-.6.4-.6.7,0,1.1-.2,1.1-.8,0-2.6-.1-2.9-.3-3.7.2-.2.5-.6.6-.9h0c0,.4,0,.8,0,1.5s0,1.9,0,2.8.3,1.1,1.1,1.1l-.2.9c-.8,0-1.3-.4-1.3-1.4"/>
    <path class="st14" d="M430.2,169.1h0s.5-.6.5-.6c.2.1.5.4.6.5l-.5.5c-.1-.1-.4-.4-.6-.5M431.9,166.4h0c0,1-.6,1.4-1.8,1.4s-.2-.1-.2-.3c0-.4.1-.6.4-.6,1.4,0,1.6-.3,1.8-1.3h0v.4c0,.6.2.9,1,.9l-.2.9c-.7,0-1.1-.3-1-1.4"/>
    <path class="st14" d="M433.9,167.5c-.2.2-.5.3-.9.3s-.2-.1-.2-.3c0-.4.1-.6.4-.6.7,0,1.1-.2,1.1-.4,0-.8-.4-3.6-.5-4.1.2-.2.5-.6.6-.8h0c0,.4.1,2.5.1,3.9s-.2,1.5-.6,2"/>
    <path class="st14" d="M436.3,165.1c0,1.7-.2,1.9-.4,2.8h0c0-1.1-.2-5-.4-5.6.2-.2.5-.6.6-.8h0c0,.4.1,2.3.1,3.6"/>
    <path class="st14" d="M292.7,162.5c0-.1.1-.3.1-.5h0c0,.1.1.2.6.2s1.1,0,1.5,0c0,.1-.2.5-.2.6-.6,0-1.1,0-1.4,0-.4,0-.6,0-.6-.3M293.9,165.8c0-.4,0-.8,0-1.1-1.5.8-1.8,1.1-1.8,1.4s.2.4.7.4,1.2-.3,1.2-.6M295.4,166.8l-.2.9c-.8,0-1.3-.4-1.3-1.6h0c-.1.8-.5,1.2-1.3,1.2s-.9-.3-.9-.8c0-.7.4-1.2,2.1-2.2,0-.2,0-.3,0-.4.2-.1.4-.4.5-.6h0c0,.4.1,1,.1,2.3s.4,1.2,1,1.2"/>
    <path class="st14" d="M296.2,167.5c-.2.2-.5.3-.9.3s-.2-.1-.2-.3c0-.4.1-.6.4-.6.7,0,1.1-.2,1.1-.4,0-.8-.4-3.6-.5-4.1.2-.2.5-.6.6-.8h0c0,.4.1,2.5.1,3.9s-.2,1.5-.6,2"/>
    <path class="st14" d="M298.5,165.1c0,1.7-.2,1.9-.4,2.8h0c0-1.1-.2-5-.4-5.6.2-.2.5-.6.6-.8h0c0,.4.1,2.3.1,3.6"/>
    <path class="st14" d="M300.5,167.8c-.7,0-1-.4-1-1s0-.5,0-.8h0c0,.6.2.8.9.8,1.1,0,1.6-.3,1.6-.5,0-.4-.8-1.3-1.6-1.8,0-.2.2-.6.3-.8h0c.2.2,1.4,1.1,1.4,2.5s-.6,1.6-1.8,1.6"/>
    <path class="st14" d="M305.6,162.5c0-.1.1-.3.1-.5h0c0,.1.1.2.6.2s1.1,0,1.5,0c0,.1-.2.5-.2.6-.6,0-1.1,0-1.4,0-.4,0-.6,0-.6-.3M306.7,165.8c0-.4,0-.8,0-1.1-1.5.8-1.8,1.1-1.8,1.4s.2.4.7.4,1.2-.3,1.2-.6M308.3,166.8l-.2.9c-.8,0-1.3-.4-1.3-1.6h0c-.1.8-.5,1.2-1.3,1.2s-.9-.3-.9-.8c0-.7.4-1.2,2.1-2.2,0-.2,0-.3,0-.4.2-.1.4-.4.5-.6h0c0,.4.1,1,.1,2.3s.4,1.2,1,1.2"/>
    <path class="st14" d="M312,166.1c0-.4-.4-.9-1.1-.9s-1.6.6-2.2,1.6h1.3c1.2,0,2.1-.3,2.1-.7M312.8,166.8l-.2.9c-.5,0-.8-.3-.8-.9-.4.6-1.1.9-2.1.9h-1.6c-.1,0-.2-.1-.2-.3,0-.4.1-.6.4-.6h.2c.4-.6.6-1.1.6-2.1s-.1-2-.2-2.4c.2-.2.5-.6.6-.8h0c0,.3,0,1.9,0,2.5s-.1,1.2-.9,2.4h0c.9-1.3,1.5-1.9,2.2-1.9s1.1.5,1.1,1.3,0,.6-.2.9c.2,0,.4.1.8.1h0Z"/>
    <path class="st14" d="M313.4,163.2c0-.1,0-.3.1-.5h0c0,.1.2.2.6.2s1.1,0,1.5,0c0,.1-.2.5-.2.6-.6,0-1.1,0-1.4,0-.4,0-.6,0-.6-.3M314.3,166.7c.8-.2,1.1-.5,1.1-.8,0-.5-.5-.9-1-.9s-1.1.4-1.1.7.4.7,1,.9M316,166.8l-.2.9c-1,0-1.4-.2-1.6-.5-.3.4-.7.5-1.5.5s-.2-.1-.2-.3c0-.4.1-.6.4-.6s.5,0,.6,0c-.1-.2-.2-.4-.2-.6,0-1,.6-1.8,1.3-1.8s1,.5,1,1.3-.2.8-.5,1.1c.2,0,.5,0,.9,0"/>
    <path class="st14" d="M316.2,163.4h0s.5-.6.5-.6c.2.1.5.4.6.5l-.5.5c-.1-.1-.4-.4-.6-.5M315.8,167.8c-.1,0-.2-.1-.2-.3,0-.4.1-.6.4-.6,1,0,1.6-.2,1.6-.4s-.4-.8-.8-1.1c.1-.1.3-.6.4-.8h0c0,.2.5.9.5,1.8s-.5,1.5-1.8,1.5"/>
    <path class="st14" d="M322.1,169.1h0s.5-.6.5-.6c.2.1.5.4.6.5l-.5.5c-.1-.1-.4-.4-.6-.5M322.4,167.8c-1.8,0-2.5-.5-2.5-1.6s0-.8.3-1.4h0c0,.3-.1.5-.1.8,0,.7.7,1.2,2.4,1.2s3.1-.5,3.1-.8-.4-.8-.8-1.1c.1-.1.3-.6.4-.8h0c0,.2.5.9.5,1.8s-.9,1.9-3.3,1.9"/>
    <path class="st14" d="M328.5,167.8c-.2,0-.4,0-.6-.2-.1,1.3-1,2.2-1.9,2.2s-.8-.3-1.1-.4h0c1.2-.2,2.7-1.2,2.9-1.9-.3-.2-.5-.7-.8-1.4,0-.1.2-.5.3-.8h0c.4,1.2.7,1.5,1.3,1.5l-.2.9h0Z"/>
    <path class="st14" d="M331.3,165c-.2-.6-.6-1-1.2-1s-1,.4-1,.8.2.5,1,.5.9-.1,1.2-.3M329,162.1c0-.1,0-.3.1-.5h0c0,.1.1.2.6.2s1,0,1.5,0c0,.1-.2.5-.2.6-.6,0-1.1,0-1.4,0-.4,0-.6,0-.6-.3M331.5,165.7c0,1.4-.8,2-2.8,2h-.2c-.1,0-.2-.1-.2-.3,0-.4.1-.6.4-.6h.2c1.9,0,2.5-.4,2.5-.9,0-.3,0-.6,0-.9h0c0,0,0,0,0,0-.1.6-.6,1-1.3,1s-1-.4-1-1c0-.9.5-1.7,1.2-1.7s1.3.8,1.3,2.4"/>
    <path class="st14" d="M333.1,162c0,.4.1,1.8.1,3.1s-.2,1.9-.4,2.8h0c0-1.1-.2-4.5-.3-5.1.2-.2.5-.6.6-.8h0,0ZM333.6,160.8h0c0,.2-.1.3-.2.4-.6.1-1.1.4-1.4.6h0c.1-.3.3-.5.5-.6-.3,0-.5-.3-.5-.5,0-.5.4-1,.8-1s.4.2.4.5,0,.1,0,.2h0c0-.2-.1-.3-.4-.3-.4,0-.6.3-.6.4s.2.4.6.4.7,0,.8-.1"/>
    <path class="st14" d="M240.6,166.4c0,.9-.4,1.4-1,1.4s-.9-.3-.8-.9h0c-.1.6-.5.9-1.1.9s-.6-.1-.8-.4c0,1.5-1.1,2.4-2.5,2.4s-1.9-.7-1.9-1.9.1-1.2.4-1.8h0c-.2.4-.2.9-.2,1.2,0,.9.6,1.4,1.8,1.4s2.3-.7,2.3-1.4-.2-.6-.6-1.4c0-.1.2-.5.3-.7h0c.4,1.2.8,1.5,1.2,1.5s1-.3,1.1-1.1h0c0,0,0,.5-.1.7.1.2.4.3.8.3s.8-.2.8-.4-.2-.6-.7-1c.1-.2.3-.5.4-.8h0c.1.3.4.9.4,1.7"/>
    <path class="st14" d="M241.8,166.2c0-2.7-.1-3.1-.3-3.9.2-.2.5-.6.6-.8h0c0,.4,0,.8,0,1.5s0,1.9,0,2.8.3,1.1,1.1,1.1l-.2.9c-1,0-1.3-.4-1.4-1.6"/>
    <path class="st14" d="M243.9,163.2c0-.1,0-.3.1-.5h0c0,.1.2.2.6.2s1.1,0,1.5,0c0,.1-.2.5-.2.6-.6,0-1.1,0-1.4,0-.4,0-.6,0-.6-.3M244.8,166.7c.8-.2,1.1-.5,1.1-.8,0-.5-.5-.9-1-.9s-1.1.4-1.1.7.4.7,1,.9M246.5,166.8l-.2.9c-1,0-1.4-.2-1.6-.5-.3.4-.7.5-1.6.5s-.2-.1-.2-.3c0-.4.1-.6.4-.6s.5,0,.6,0c-.1-.2-.2-.4-.2-.6,0-1,.6-1.8,1.3-1.8s1,.5,1,1.3-.2.8-.5,1.1c.2,0,.5,0,.9,0"/>
    <path class="st14" d="M247.9,166.2c.2.4,1,.8,1.6.8s.6-.1.6-.4c0-.5-.5-1.1-1.2-1.1s-.8.2-1,.7M250.1,166.6h0c0,.8-.3,1.2-.8,1.2-.9,0-1.6-.4-1.7-1,0-.2,0-.4,0-.5h0c-.2.5-.4,1.4-1.3,1.4s-.2-.1-.2-.3c0-.4.1-.6.4-.6.6,0,.9-.2,1.1-.8h.1c.4-.8.8-1.2,1.3-1.2s.8.2,1.1,1.1c.3.7.6.9,1.2.9l-.2.9c-.6,0-1-.4-1.1-1.1"/>
    <path class="st14" d="M252.2,167.5c-.2.2-.4.3-.9.3s-.2-.1-.2-.3c0-.4.1-.6.4-.6.7,0,1.1-.2,1.1-.4,0-.8-.4-3.6-.5-4.1.2-.2.5-.6.6-.8h0c0,.4.1,2.5.1,3.9s-.2,1.5-.6,2"/>
    <path class="st14" d="M254.5,165.1c0,1.7-.2,1.9-.4,2.8h0c0-1.1-.2-5-.4-5.6.2-.2.5-.6.6-.8h0c0,.4.1,2.3.1,3.6"/>
    <path class="st14" d="M188.9,165.8c0-.4,0-.8,0-1.1-1.5.8-1.8,1.1-1.8,1.4s.2.4.7.4,1.2-.3,1.2-.6M190.5,166.8l-.2.9c-.8,0-1.3-.4-1.3-1.6h0c-.1.8-.5,1.2-1.3,1.2s-.9-.3-.9-.8c0-.7.4-1.2,2.1-2.2,0-.2,0-.3,0-.4.2-.1.4-.4.6-.6h0c0,.4.1,1,.1,2.3s.4,1.2,1,1.2"/>
    <path class="st14" d="M191.4,169.1h0s.5-.6.5-.6c.2.1.5.4.6.5l-.5.5c-.1-.1-.4-.4-.6-.5M195.2,165.3h0c-.1.1-.3.4-.4.6-1.3,0-1.8,1.8-4.4,1.8s-.2-.1-.2-.3c0-.4.1-.6.4-.6,2.4,0,3.1-.7,3.9-.9h0c-1.2-.2-1.9-.7-2.6-.7s-.6.2-.8.6h0c.3-1,.6-1.3,1-1.3.8,0,1.9.8,3.3.9"/>
    <path class="st14" d="M198.1,166.6c-.2-.7-.6-1.1-1.2-1.1s-1,.4-1,.8.2.6,1,.6.8,0,1.2-.3M198.3,167.1c0,1.7-1,2.7-2,2.7s-.9-.3-1.3-.4h0c1.4-.2,3.2-1.1,3.2-2s0-.4,0-.5h0c-.1.6-.6,1-1.3,1s-1.1-.4-1.1-1.1.5-1.8,1.2-1.8,1.3.8,1.3,2.2"/>
    <path class="st14" d="M201.9,165.4c-.4.5-1,.9-1.8,1.3.3.1.6.2.9.2.9,0,1.4-.2,1.4-.4s-.1-.6-.5-1M202.1,165.1c.3.4.4.8.4,1.2,0,1-.6,1.6-1.5,1.6s-1.2-.4-1.8-.8h0c1.2-.5,2-1.1,2.5-1.8-.5-.5-1.3-1.1-2.5-1.6,0-.2.1-.7.1-1h0c1.3.8,2.1,1.5,2.6,2.1.1-.4.2-.8.2-1.2s0-.9-.1-1.3c.2-.2.4-.5.6-.7h0c0,.3,0,.7,0,1.3,0,.9-.2,1.7-.5,2.3M200.1,161.9c-.6.1-1.1.4-1.4.6h0c0-.3.3-.5.6-.6-.3,0-.5-.3-.5-.5,0-.5.4-1,.8-1s.4.2.4.5,0,.1,0,.2h0c0-.2-.1-.3-.4-.3-.4,0-.6.3-.6.4s.2.4.6.4.7,0,.8-.1h0c0,.1-.1.3-.2.4"/>
    <path class="st14" d="M204.4,165.1c0,1.7-.2,1.9-.4,2.8h0c0-1.1-.2-5-.4-5.6.2-.2.5-.6.6-.8h0c0,.4.1,2.3.1,3.6"/>
    <path class="st14" d="M207.7,167.8c-.7,0-1-.4-1-1s0-.5,0-.8h0c0,.6.2.8.9.8,1.1,0,1.6-.3,1.6-.5,0-.4-.8-1.3-1.6-1.8,0-.2.2-.6.3-.8h0c.2.2,1.4,1.1,1.4,2.5s-.6,1.6-1.8,1.6"/>
    <path class="st14" d="M213,166.1h0c0,1.1-.6,1.7-1.6,1.7s-1-.4-1-1,0-.5,0-.8h0c0,.6.2.8.9.8s1.4-.4,1.4-.7-.3-1.3-.6-1.9c.1-.2.4-.7.4-.9h0c0,.4.2.8.6,2.2.2.8.6,1.2,1.2,1.2l-.2.9c-.7,0-1.2-.4-1.4-1.6"/>
    <path class="st14" d="M218.1,166.3c-.1.1-.4.6-.6.9-1.3.3-2,.6-3.2.6s-.2-.1-.2-.3c0-.4.1-.6.4-.6s.4,0,.7,0c-.2-.2-.4-.5-.4-.8,0-1.1.8-1.9,1.6-1.9s1.1.5.9,1.1h0c0-.3-.3-.5-.9-.5s-1.4.4-1.4.9.5.9,1.3.9,1.3-.1,1.8-.3h0s0,0,0,0Z"/>
    <path class="st14" d="M40.3,162.5c0-.1,0-.3.1-.5h0c0,.1.2.2.6.2s1.1,0,1.5,0c0,.1-.2.5-.2.6-.6,0-1.2,0-1.4,0-.4,0-.6,0-.6-.3M41.5,165.8c0-.4,0-.8,0-1.1-1.5.8-1.8,1.1-1.8,1.4s.2.4.7.4,1.2-.3,1.2-.6M43,166.8l-.2.9c-.8,0-1.3-.4-1.3-1.6h0c-.1.8-.5,1.2-1.3,1.2s-.9-.3-.9-.8c0-.7.4-1.2,2.1-2.2,0-.2,0-.3,0-.4.2-.1.4-.4.5-.6h0c0,.4.1,1,.1,2.3s.4,1.2,1,1.2"/>
    <path class="st14" d="M47.7,165.3h0c-.1.1-.3.4-.4.6-1.3,0-1.8,1.8-4.4,1.8s-.2-.1-.2-.3c0-.4.1-.6.3-.6,2.4,0,3-.7,3.9-.9h0c-1.2-.2-1.9-.7-2.6-.7s-.6.2-.8.6h0c.3-1,.6-1.3,1-1.3.8,0,1.9.8,3.3.9"/>
    <path class="st14" d="M49.5,166.9c.3,0,.8,0,1.3,0-.1-.8-.6-1.3-1.3-1.3s-1,.4-1,.8.2.6,1,.6M51.2,167.8h-.4c-.2,1.2-1.1,2-2,2s-.9-.3-1.3-.4h0c1.2-.1,2.8-.9,3.1-1.7-.4,0-.8,0-1.3,0-.8,0-1.1-.4-1.1-1.1s.5-1.8,1.2-1.8,1.2.7,1.3,2h.5l-.2.9h0Z"/>
    <path class="st14" d="M52.6,166.4h0c0,1-.5,1.4-1.2,1.4s-.2-.1-.2-.3c0-.4.1-.6.3-.6.7,0,1.1-.2,1.1-.8,0-2.6-.1-2.9-.3-3.7.2-.2.5-.6.6-.9h0c0,.4,0,.8,0,1.5s0,1.9,0,2.8.3,1.1,1.1,1.1l-.2.9c-.8,0-1.3-.4-1.3-1.4"/>
    <path class="st14" d="M54.8,167.5c-.2.2-.5.3-.9.3s-.2-.1-.2-.3c0-.4.1-.6.3-.6.7,0,1.1-.2,1.1-.4,0-.8-.4-3.6-.5-4.1.2-.2.5-.6.6-.8h0c0,.4.1,2.5.1,3.9s-.2,1.5-.6,2"/>
    <path class="st14" d="M57.1,165.1c0,1.7-.2,1.9-.4,2.8h0c0-1.1-.2-5-.3-5.6.2-.2.5-.6.6-.8h0c0,.4.1,2.3.1,3.6"/>
    <path class="st14" d="M62.6,171c0,.1,0,.3-.1.5h0c0-.1-.2-.2-.6-.2s-1.1,0-1.5,0c0-.1.2-.5.2-.6.6,0,1.1,0,1.4,0,.4,0,.6,0,.6.3M64.5,167.8h-.6c0,0,0,.2,0,.3,0,1.2-.9,1.9-2.6,1.9s-1.9-.7-1.9-1.9.1-1.2.3-1.7h0c-.1.4-.2.8-.2,1.2,0,.9.7,1.4,1.8,1.4,1.7,0,2.4-.6,2.4-.9,0-.4-1.7-.4-2.5-.6h0c.2-.2.3-.5.5-.8.5.1,1.3.1,2.8.1l-.2.9h0Z"/>
    <path class="st14" d="M65,162.5h0s.4-.5.4-.5c.2.1.5.3.6.4l-.4.5c-.1-.1-.4-.3-.5-.4M66.3,163.7c-.6,0-1.1,0-1.4,0-.4,0-.6,0-.6-.3s0-.3.1-.5h0c0,.1.2.2.6.2s1.1,0,1.5,0c0,.1-.2.4-.2.6M64.5,167.8c-.1,0-.2-.1-.2-.3,0-.4.1-.6.3-.6.9,0,1.6-.2,1.6-.4s-.4-.8-.8-1.1c.1-.1.3-.6.4-.8h0c0,.2.5.9.5,1.8s-.5,1.5-1.8,1.5"/>
    <path class="st14" d="M68,165.1c0,1.7-.2,1.9-.4,2.8h0c0-1.1-.2-5-.3-5.6.2-.2.5-.6.6-.8h0c0,.4.1,2.3.1,3.6"/>
    <path class="st14" d="M71.6,166.1h0c0,1.1-.6,1.7-1.6,1.7s-1-.4-1-1,0-.5,0-.8h0c0,.6.2.8.9.8s1.4-.4,1.4-.7-.3-1.3-.6-1.9c.1-.2.4-.7.4-.9h0c0,.4.2.8.6,2.2.2.8.6,1.2,1.2,1.2l-.2.9c-.7,0-1.2-.4-1.4-1.6"/>
    <path class="st14" d="M77.8,165.3h0c-.1.1-.3.4-.4.6-1.3,0-1.8,1.8-4.4,1.8s-.2-.1-.2-.3c0-.4.1-.6.3-.6,2.4,0,3.1-.7,3.9-.9h0c-1.2-.2-1.9-.7-2.6-.7s-.6.2-.8.6h0c.3-1,.6-1.3,1-1.3.8,0,1.9.8,3.3.9"/>
    <path class="st14" d="M79.4,165.1c0,1.7-.2,1.9-.4,2.8h0c0-1.1-.2-5-.3-5.6.2-.2.5-.6.6-.8h0c0,.4.1,2.3.1,3.6"/>
    <path class="st14" d="M153.1,167.8c-.2,0-.4,0-.6-.2-.1,1.3-1,2.2-1.9,2.2s-.8-.3-1.1-.4h0c1.2-.2,2.7-1.2,2.9-1.9-.3-.2-.5-.7-.8-1.4,0-.1.2-.5.3-.8h0c.4,1.2.7,1.5,1.3,1.5l-.2.9h0Z"/>
    <path class="st14" d="M154.1,165.3c.3.3.9.8,1.3,1.1.6-.3,1.1-.7,1.6-1.1-.4-.2-.9-.3-1.4-.3s-1,0-1.5.2M157.6,166.8l-.2.9h-.2c-1,0-1.5-.1-1.9-.7-.8.6-1.3.7-2.2.7s-.2-.1-.2-.3c0-.4.1-.6.4-.6.8,0,1.2,0,1.7-.2-.3-.4-.7-.9-1-1.3-.2,0-.3.1-.5.2h0c0-.2.2-.5.3-.7.5-.2,1.3-.4,1.9-.4s1.1.1,1.7.4c0,.1-.2.4-.3.6-.3.3-.6.7-1.2,1.2.3.2.8.2,1.5.2h.2Z"/>
    <path class="st14" d="M163.3,166.8l-.2.9c-.6,0-1-.4-.9-1h0c0,.7-.4,1-.9,1s-.8-.3-.7-.9h0c-.1.6-.5.9-1.1.9s-.8-.3-.7-.9h0c-.1.6-.6.9-1.2.9s-.2-.1-.2-.3c0-.4.1-.6.4-.6.8,0,1.1-.2,1.3-1.1h0c0,0,0,.5-.1.8.1.2.4.3.8.3.7,0,1-.3,1.1-1.1h0c0,0,0,.5-.1.8.1.2.4.3.7.3s.7-.2.8-.5c0-.2,0-.6-.1-.8,0,0,.2,0,.2-.1v.7c0,.4.3.7,1,.7"/>
    <path class="st14" d="M164.1,167.5c-.2.2-.4.3-.9.3s-.2-.1-.2-.3c0-.4.1-.6.4-.6.7,0,1.1-.2,1.1-.4,0-.8-.4-3.6-.5-4.1.2-.2.5-.6.6-.8h0c0,.4.1,2.5.1,3.9s-.2,1.5-.6,2"/>
    <path class="st14" d="M166.5,165.1c0,1.7-.2,1.9-.4,2.8h0c0-1.1-.2-5-.4-5.6.2-.2.5-.6.6-.8h0c0,.4.1,2.3.1,3.6"/>
    <path class="st14" d="M93.5,165.4c0,.1,0,.2,0,.3h0c0-.3-.2-.5-.6-.5-.6,0-1,.4-1,.7s.3.6.9.6,1,0,1.3-.2h0c0,.2-.2.4-.2.6-1,.2-1.7.6-2.1,1h0c.2-.4.4-.7.8-.9h0c-.5-.1-.7-.4-.7-.8,0-.7.5-1.5,1.2-1.5s.7.3.7.7"/>
    <path class="st14" d="M95.2,166.2c0-2.7-.1-3.1-.3-3.9.2-.2.5-.6.6-.8h0c0,.4,0,.8,0,1.5s0,1.9,0,2.8.3,1.1,1.1,1.1l-.2.9c-1,0-1.3-.4-1.4-1.6"/>
    <path class="st14" d="M98.6,164.7c-.6.7-1,1.5-1.2,2.2.9,0,1.4-.2,1.4-.4s-.2-1.1-.2-1.8M98.2,167.6c-.3,0-.6,0-.8,0,.1.7.7,1.1,1.5,1.1s1-.2,1-.4c0-.4-.6-.8-1.7-.8M99.6,167.6h0c.3.2.4.4.4.7,0,.8-.5,1.3-1.3,1.3s-1.5-.7-1.5-1.8h0c0-.1-.5-.1-.5-.1-.2,0-.2-.2-.2-.3,0-.2,0-.6.3-.6h.5c.4-1.4,1.6-2.5,1.7-2.9h0c0,.9.2,1.8.2,2.2s-.2.5-.8.7h0c.5,0,.7,0,1.4,0h.7l-.2.9c-.3,0-.6,0-.9-.1"/>
    <path class="st14" d="M102.7,164.7c-.6,0-1.2,0-1.4,0-.4,0-.6,0-.6-.3s0-.3.1-.5h0c0,.1.2.2.6.2s1.1,0,1.5,0c0,.1-.2.5-.2.6M102.3,166.4h0c0,1-.6,1.4-1.8,1.4s-.2-.1-.2-.3c0-.4.1-.6.3-.6,1.3,0,1.6-.3,1.8-1.3h0v.4c0,.6.2.9,1,.9l-.2.9c-.7,0-1.1-.3-1-1.4"/>
    <path class="st14" d="M103.7,163.4h0s.5-.6.5-.6c.2.1.5.4.6.5l-.5.5c-.1-.1-.4-.4-.6-.5M103.3,167.8c-.1,0-.2-.1-.2-.3,0-.4.1-.6.3-.6.9,0,1.6-.2,1.6-.4s-.4-.8-.8-1.1c.1-.1.3-.6.4-.8h0c0,.2.5.9.5,1.8s-.5,1.5-1.8,1.5"/>
    <path class="st14" d="M108.5,165.4c-.4.5-1,.9-1.8,1.3.3.1.6.2.9.2.9,0,1.4-.2,1.4-.4s-.2-.6-.5-1M106.7,169.4c.3,0,.7,0,.8-.1h0c0,.1-.1.3-.2.4-.6.1-1.1.4-1.4.6h0c0-.3.3-.5.6-.6-.3,0-.5-.3-.5-.5,0-.5.3-1,.8-1s.4.2.4.5,0,.1,0,.2h0c0-.2-.1-.3-.4-.3-.4,0-.6.3-.6.5s.2.4.6.4M108.7,165.1c.3.4.4.8.4,1.2,0,1-.6,1.6-1.5,1.6s-1.2-.4-1.8-.8h0c1.2-.5,2.1-1.1,2.5-1.9-.5-.6-1.3-1.2-2.6-1.9,0-.2.1-.7,0-1h0c1.3,1,2.1,1.9,2.6,2.5.1-.4.2-.8.2-1.2s0-.9,0-1.3c.2-.2.4-.5.6-.7h0c0,.3,0,.7,0,1.3,0,.9-.2,1.7-.5,2.3"/>
    <path class="st14" d="M111,165.1c0,1.7-.2,1.9-.4,2.8h0c0-1.1-.2-5-.3-5.6.2-.2.5-.6.6-.8h0c0,.4.1,2.3.1,3.6"/>
    <path class="st14" d="M114.5,162.9h0s.4-.6.4-.6c.2.1.5.4.6.5l-.5.5c-.1-.1-.4-.4-.6-.5M118.2,166.8l-.2.9h-.1c-1,0-1.3-.3-1.3-1.3s0-.3,0-.4c-2.2.5-3.2,1.3-3.2,2s1,1.4,2.4,1.4,1.4,0,1.9-.2h0c-.5.4-1.1,1-2.3,1s-2.1-.7-2.1-1.9.9-2.2,3.3-2.8h0c-.8-.1-1.6-.6-2.2-.6s-.6.2-.8.6h0c.3-1,.6-1.3,1-1.3.8,0,1.9.8,3.3.9h0c-.1.2-.4.5-.5.8-.2,0-.4,0-.6.1,0,.6.4.8,1.4.8h.1,0Z"/>
    <path class="st14" d="M118.4,168.6c.6,0,1.2,0,1.4,0,.4,0,.6,0,.6.3s0,.3-.1.5h0c0-.1-.2-.2-.6-.2s-1.1,0-1.5,0c0-.1.2-.5.2-.6M118.1,167.8c-.1,0-.2-.1-.2-.3,0-.4.1-.6.3-.6,1.9,0,2.5-.2,2.5-.4s-.4-.8-.8-1.1c.1-.1.3-.6.4-.8h0c0,.2.5.9.5,1.8s-.5,1.5-2.8,1.5"/>
    <path class="st14" d="M120.5,169.4h0c1.3-.2,2.9-1.3,2.9-2s-.3-.6-.9-1.2c.1-.2.3-.6.4-.8h0c.2.5.6,1.1.6,1.8,0,1.6-.9,2.6-1.9,2.6s-.8-.3-1.1-.4"/>
    <path class="st14" d="M124.7,166.2c0-2.7-.1-3.1-.3-3.9.2-.2.5-.6.6-.8h0c0,.4,0,.8,0,1.5s0,1.9,0,2.8.3,1.1,1.1,1.1l-.2.9c-1,0-1.3-.4-1.4-1.6"/>
    <path class="st14" d="M127.9,163.7c-.6,0-1.1,0-1.4,0-.4,0-.6,0-.6-.3s0-.3.1-.5h0c0,.1.2.2.6.2s1.1,0,1.5,0c0,.1-.2.5-.2.6M126.1,167.8c-.1,0-.2-.1-.2-.3,0-.4.1-.6.3-.6.9,0,1.6-.2,1.6-.4s-.4-.8-.8-1.1c.1-.1.3-.6.4-.8h0c0,.2.5.9.5,1.8s-.5,1.5-1.8,1.5"/>
  </g>
  <g>
    <path class="st6" d="M528.5,725.6"/>
    <path class="st8" d="M530,725.6"/>
    <path class="st8" d="M530,725.6"/>
  </g>
</svg>