<?xml version="1.0" encoding="UTF-8"?>
<svg id="Layer_1" xmlns="http://www.w3.org/2000/svg" version="1.1" xmlns:xlink="http://www.w3.org/1999/xlink" viewBox="0 0 595.28 841.89">
  <!-- Generator: Adobe Illustrator 29.3.0, SVG Export Plug-In . SVG Version: 2.1.0 Build 146)  -->
  <defs>
    <style>
      .st0 {
        fill: url(#linear-gradient2);
      }

      .st1 {
        fill: url(#linear-gradient6);
        stroke: url(#linear-gradient7);
      }

      .st1, .st2 {
        stroke-width: 6px;
      }

      .st1, .st2, .st3 {
        stroke-miterlimit: 10;
      }

      .st4 {
        fill: #141414;
      }

      .st5 {
        fill: #fff;
      }

      .st6 {
        fill: url(#linear-gradient1);
      }

      .st2 {
        fill: url(#linear-gradient4);
        stroke: url(#linear-gradient5);
      }

      .st7 {
        fill: #100909;
      }

      .st8 {
        fill: url(#linear-gradient3);
      }

      .st3 {
        fill: none;
        stroke: #231f20;
      }

      .st9 {
        fill: #010101;
      }

      .st10 {
        opacity: .1;
      }

      .st11 {
        fill: url(#linear-gradient);
      }
    </style>
    <linearGradient id="linear-gradient" x1="108.9" y1="631.5" x2="18.21" y2="579.9" gradientUnits="userSpaceOnUse">
      <stop offset="0" stop-color="#fff"/>
      <stop offset="1" stop-color="#fef385"/>
    </linearGradient>
    <linearGradient id="linear-gradient1" x1=".04" y1="832.73" x2="595.24" y2="832.73" gradientUnits="userSpaceOnUse">
      <stop offset="0" stop-color="#fef492"/>
      <stop offset=".1" stop-color="#f6e683"/>
      <stop offset=".32" stop-color="#e8cd65"/>
      <stop offset=".54" stop-color="#deba50"/>
      <stop offset=".76" stop-color="#d8af44"/>
      <stop offset=".97" stop-color="#d6ac40"/>
    </linearGradient>
    <linearGradient id="linear-gradient2" x1="37.77" y1="56.34" x2="107.86" y2="126.42" gradientUnits="userSpaceOnUse">
      <stop offset=".03" stop-color="#d6ac40"/>
      <stop offset=".24" stop-color="#d8af44"/>
      <stop offset=".46" stop-color="#deba50"/>
      <stop offset=".68" stop-color="#e8cd65"/>
      <stop offset=".9" stop-color="#f6e683"/>
      <stop offset="1" stop-color="#fef492"/>
    </linearGradient>
    <linearGradient id="linear-gradient3" x1="79.35" y1="58.75" x2="64.39" y2="50.23" xlink:href="#linear-gradient"/>
    <linearGradient id="linear-gradient4" x1="436.86" y1="74.71" x2="556.48" y2="74.71" xlink:href="#linear-gradient2"/>
    <linearGradient id="linear-gradient5" x1="436.86" y1="74.71" x2="556.48" y2="74.71" gradientUnits="userSpaceOnUse">
      <stop offset="0" stop-color="#fef492"/>
      <stop offset=".1" stop-color="#f6e683"/>
      <stop offset=".32" stop-color="#e8cd65"/>
      <stop offset=".54" stop-color="#deba50"/>
      <stop offset=".76" stop-color="#d8af44"/>
      <stop offset=".97" stop-color="#d6ac40"/>
    </linearGradient>
    <linearGradient id="linear-gradient6" x1="432.02" y1="101.13" x2="556.48" y2="101.13" xlink:href="#linear-gradient2"/>
    <linearGradient id="linear-gradient7" x1="432.02" y1="101.13" y2="101.13" xlink:href="#linear-gradient5"/>
  </defs>
  <g class="st10">
    <g>
      <g>
        <polygon class="st11" points="17.64 580.91 34.89 580.91 54.95 575.47 68.15 572.51 78.29 576.71 79.61 584.52 81.42 593.74 99.27 600.76 115.31 603.57 115.31 613.4 113.07 620.82 106.49 623.42 108.69 630.24 105.29 637.86 90.64 628.64 76 625.63 61.97 627.23 59.76 625.23 70.99 617.61 65.17 616 50.94 616.2 31.48 624.83 17.64 580.91"/>
        <path class="st4" d="M209,791.77c-.17-.47-1.82-4.67-7.8-7.11-3.18-1.3-7.88-8.5-10.18-12.88-.36-1.19-1.96-5.72-6.1-8.11-2.75-1.6-5.98-1.93-9.58-.93l-.27.06-.23.12c-.3.16-2.94,1.69-4.33,5.01-.59.96-4.76,2.84-8.75,3.97h-.06c-.11.04-.23.08-.39.13.32.66.62,1.35.91,2.05.3.7.57,1.42.85,2.17,1.73,4.64,3.04,9.74,3.92,13.72.09.35.16.69.22,1.02.35,1.6.62,2.98.81,4.03,3.61-2.81,8.27-7.12,12.37-12.98,3.23,2.42,9.64,8.07,9.48,14.46l-.03,1.51,1.38.62s1.48.69,2.86,2.09l-3.83,1.2-.15.07c-.23.11-5.5,2.75-1.36,11.55,3.34,7.05,6.86,11.12,7,11.28l1.63,1.85,1.71-1.76c.36-.37,8.75-9.12,8.66-19.62l1.39-6.16v-6.97l-.13-.37Z"/>
      </g>
      <g>
        <path class="st4" d="M-71.31,881.64s18.78,25.88,50.81,3.6c0,0-4.82,11.48-18.52,15.44,0,0,23.44,3.76,34.25-21.91,0,0,4.73-15.72,3.86-22.28-.87-6.56,5.2-15.92,5.2-15.92,0,0,3.2-4.73,7.48-6.57.25-1.7.61-3.48,1.08-5.36h0c.18-.71.38-1.41.61-2.13.03-.1.06-.2.1-.3-7.23-2.89-21.29-5.42-33.61,10.46,0,0-4.63,6.09-5.79,18.24-1.16,12.16-24.31,10.72-24.31,10.72,0,0-9.55-.73-14.61-12.6,0,0,0,17.37,9.7,23.3,0,0,5.82,4.35,12.64,2.69,0,0-12.35,12.99-28.88,2.63Z"/>
        <path class="st4" d="M192.48,970.3c-53.94-22.96-102.93-29.51-136.74-31.09l.37-.43c1.91-2.16,4.58-7.69,1.49-13.69l.67-9.27-.34-.59c-.23-.44-2.43-4.24-5.28-6.22-1-.97-2.84-6.99-3.98-12.99-.02-.87.07-6.31,5.77-8.42,8.33-3.08,18.61-16.2,19.05-16.75.17-.22,4.28-5.65,4.33-15.69.9-1.79,3.67-7.66,3.86-12.98,2.29-.25,6.21-.81,11.15-1.95-.12.39-.23.62-.25.65l-.25.47,2.33,8.02,1.26-.36c8.76-2.48,26.03-5.02,26.2-5.04l1.49-.22-.41-1.46c-1.15-4.06-8.91-6.04-14.48-6.96,0,0,0,0,0,0,0,0,0,0,.01,0,7.33-2.86,15.27-6.86,22.88-12.48,2.06-1.51,7.14-4.55,9.74-4.2,4.5.59,12.35-1.41,13.7-1.76,4.03-.66,8.48-.74,9.53-.2,2.86,3.62,1.94,9.07-2.72,16.25-1.15,1.23-3.37,3.99-2.6,6.43.01.02.01.04.02.06l-5.41-2.64-1.12.82c-.32.23-7.96,6.05-7.63,20.52l.06,2.47,2.47-.29c.57-.07,14.02-1.72,19.42-8.19,3.33-3.99,5.13-4.93,5.55-5.11h4.57v-13.56c.12-4.95,1.38-13.84,4.24-16.62,4.49-4.41,2.54-9.82.1-12.45-.53-.62-3.76-4.22-7.81-5.31l-.29-.07h-5.5c-.69-.16-1.96-.56-3.13-1.16-.18-1.31-.38-2.56-.61-3.78-.06-.4-.14-.81-.21-1.21-1.27-6.69-2.97-11.97-4.26-15.38-.28-.73-.54-1.38-.76-1.93-.65-1.58-1.07-2.42-1.07-2.42-.91-2.17-2.96-6.29-6.7-10.15v-7.31h-6.06l-9.3-25.46-.04-.08c-.5-1.19-1.25-3.26-1.98-5.64,1.35,1,2.97,1.82,4.89,2.33,7.32,1.94,7.86,10.48,7.88,10.84v.31s.11.3.11.3c.14.45,1.51,4.34,4.89,5.91,1.78.83,3.8.84,5.84.02,5.31-2.15,7.36-4.35,7.92-5.08.84-.91,3.64-4.64.95-11.29-2.26-5.54-4.62-14.37-5.07-18.59,1.61-1.21,3.4-3.29,3.4-6.03v-.8l-1.84-2.27c.14-.24.24-.47.33-.66.75-1.57,1.67-4.15,2.72-7.66l.16-.23-.08-.05,1-3.32-3.42.67c-.31-.06-3.25-2.04-5.74-3.73-2.47-1.68-3.59-4.77-2.73-7.62.01-.03.02-.07.03-.11l2.1-6.86-5.66,4.41c-.18.15-4.06,3.18-6.86,6.55-4.13-2.49-14.59-7.69-26.7-5.45l-2.45.46,2.27,7.83c-3.71-1.12-9.13-1.99-14.08.1l-3.26,1.39,5.19,4.74c-3.69.56-8.66,1.94-13.23,5.28l-1.73,1.25c-2.72-2.04-5.75-3.97-5.75-3.97.3-1.21.51-2.84.68-4.55v-.04s0-.05,0-.05c.42-4.43.47-9.44.47-9.44,1.93-1.91,2.73-4.72,1.98-7.33-.27-.94-.63-1.78-1.02-2.51h0s-.01-.02-.01-.02c-1.1-2.07-2.4-3.25-2.4-3.25,0,0-.66-.84-1.88-1.97l-.02-.03h-.02c-1.1-1.03-2.65-2.28-4.63-3.4-.79-.45-1.73-.73-2.74-.89h0s0,0,0,0c-.34-.05-.68-.09-1.03-.12-4.85-.4-9.62,1.43-13.18,4.75-.15.14-.34.32-.5.47h-.02s-.03.04-.03.04c-1,.94-2.1,2.01-3.35,3.28-.75.77-1.3,1.84-1.69,3.09h0s0,.02,0,.02c-2.19,7.12.73,20.33.73,20.33l-1.89-.33-18.97-63.91c7.99-6.3,18.62-7.74,26.64-7.74.06,0,.13,0,.19,0-3.25,2.11-4.99,4.09-5.12,4.24l-1.67,1.94,6.51,6.88,1.79-.71c9.18-3.64,18.46-3.17,27.61,1.42,6.99,3.51,11.28,8.22,11.32,8.26l3.26,3.64,1.54-4.63c1.39-4.18,3.95-6.45,3.96-6.46l1.35-1.15-.44-1.71c-.55-2.14-1.09-3.8-1.57-5.05,4.04-1.54,6.64-3.74,6.77-3.86l2.07-1.77-1.69-2.14c-1.8-2.28-.79-5-.76-5.08l3.73-11.18-3.72-.2c-7.8-.41-29.16-3.06-34.36-10.26-1-1.38-1.25-2.8-.79-4.48,1.14-4.14.8-7.65-1.01-10.42-1.96-3.01-5.48-4.91-10.46-5.66-5.13-.77-10.47-.04-15.45,2.12-18.59,8.05-33.61,6.33-33.82,6.31h-.03s-1.78-6.01-1.78-6.01l-.2.06.53-4.29-1.74-1.74-8.09-9.26-2.17,13.02,4.8,5.62,34.77,117.17c-1.09.63-1.97,1.38-2.39,2.29-.93,2.02-.86,4.89-.6,7.11.23,1.93-.61,3.82-2.17,4.97-.16.12-.33.25-.5.39l-.03.02h0c-1.72,1.37-3.85,3.52-5.76,6.81-.24.41-.55.84-.92,1.3l-1.42,1.58c-7.41,7.58-26.46,19.37-26.46,19.37l7.97,1.69c-14.12,11.62-27.15,17.36-38.55,19.63-28.73,5.1-46.94-10.39-46.94-10.39,0,0,.8,4.48,3.95,10.13h0s0,0,0,0c1.81,3.25,4.42,6.88,8.09,10.27l.04.05.06.04c2.89,2.65,6.43,5.14,10.78,7.17l.09.06.12.04c3.48,1.61,7.47,2.93,12.05,3.8l.1.03-7.04,1.23-9.45.7c-.92-.22-1.83-.5-2.68-.87,0,0,3.47,4.01,20.4,6.15l-5.74,2.67c-.99.42-1.97.8-2.8,1.06l5.41,7.09,2.55,3.34h0s2.31,3.03,2.31,3.03c0,0,.68.61,2.04,1.36h0s.01,0,.01,0c1.84,1.01,4.92,2.28,9.25,2.69l.47.14.61-.06c2.82.16,6.13-.06,9.92-.9h.08s.06-.03.06-.03c4.59-1.04,9.88-3,15.9-6.39,0,0,5.46-2.56,12.14-7.16l.04-.02,4.95-.64,1-.04c-2.77,2.66-5.9,5.17-9.44,7.27,0,0,17.81-3.44,30.8-15.85l.22-.15.25-.29c1.92-1.88,3.73-3.96,5.34-6.27l.94,5.61s0,.06,0,.09l-1.43,7.91-2.06,4.27c-.82.33-1.62.67-2.46.98-18.22,6.68-25.53,19.48-28.44,29.03-.22.7-.41,1.39-.59,2.08h0c-.48,1.87-.83,3.64-1.06,5.32-.95,6.48-.39,11.24-.32,11.84.09.87,1.15,11.23,3.92,18.1,2.09,5.17-3.02,11.59-3.55,12.24l-7.52,7.52c-.63.63-3.87,4.32.23,10.5,3,4.55,5.01,12.23,5.17,12.86.16.75,2.25,11.34.85,19.16l-.33,1.82,6.95,2.8v8.33c-52.94-.12-105.36-.24-158.56-.36v109.11h412.19c-.08-9.89.08-19.78,0-29.67-20.63-15.54-48.37-33.11-82.9-47.81ZM22.94,585.33c5.25.23,18.52-.05,34.38-6.91,4.01-1.74,8.28-2.33,12.36-1.72,2.28.34,5.27,1.17,6.56,3.15.88,1.36.98,3.32.29,5.83-.91,3.32-.34,6.53,1.66,9.3,6.35,8.8,26.38,11.54,34.97,12.33l-1.32,3.95c-.67,1.71-1.18,4.89.08,8.03-1.36.82-3.37,1.81-5.75,2.33l-4.34.86,2.61,3.5c.12.19.96,1.66,1.95,5.12-.74.85-1.7,2.1-2.61,3.72-2.2-1.89-5.52-4.38-9.74-6.53-5.92-3-12.04-4.51-18.15-4.51-4.18,0-8.36.7-12.46,2.12l-.18-.19c2.1-1.69,5.94-4.17,11.39-5.22l13.82-2.66-13.78-2.89c-1.07-.22-24.45-4.94-41.02,6.52l-10.72-36.11ZM26.09,895.05c.02-.17.34-2.75,2.36-5.44.15.83.44,1.7.87,2.61l.11.22.15.2c.07.08,7.34,9.45,9.13,17.33,1.39,6.16.81,8.41.67,8.81l-1.36,1.78,5.35,3.48c-2.58,1.65-3.71,3.88-3.82,4.14l-.1.17-.05.18c-.01.06-.03.16-.06.29-1.64-1.3-3.77-2.57-6.57-3.6v-2.41c-.07-.54-.62-3.48-4.86-7.96-2.24-2.35-2.4-13.02-1.81-19.82ZM44.5,936.56c-.01-.08-.11-.66-.45-1.55.83.79,1.87,2.09,2.6,3.39l.38.68c-.73,0-1.45,0-2.18,0l-.36-2.51Z"/>
      </g>
    </g>
  </g>
  <rect class="st6" x=".04" y="823.55" width="595.2" height="18.36"/>
  <g>
    <g>
      <path class="st0" d="M72.82,35.38h0c18.77,0,34.02,15.24,34.02,34.02v58.06H38.8v-58.06c0-18.77,15.24-34.02,34.02-34.02Z"/>
      <g>
        <circle class="st5" cx="89.65" cy="112.17" r="8.53"/>
        <polygon class="st8" points="64.29 50.4 67.14 50.4 70.45 49.5 72.63 49.01 74.3 49.7 74.52 50.99 74.82 52.51 77.76 53.67 80.41 54.14 80.41 55.76 80.04 56.98 78.96 57.41 79.32 58.54 78.76 59.8 76.34 58.27 73.92 57.78 71.61 58.04 71.24 57.71 73.1 56.45 72.14 56.19 69.79 56.22 66.58 57.65 64.29 50.4"/>
        <path class="st4" d="M95.87,85.2c-.03-.08-.3-.77-1.29-1.17-.52-.21-1.3-1.4-1.68-2.13-.06-.2-.32-.94-1.01-1.34-.45-.26-.99-.32-1.58-.15h-.04s-.04.03-.04.03c-.05.03-.49.28-.72.83-.1.16-.79.47-1.44.66h-.01s-.04.01-.06.02c.05.11.1.22.15.34.05.12.09.23.14.36.29.77.5,1.61.65,2.26.01.06.03.11.04.17.06.26.1.49.13.66.6-.46,1.37-1.17,2.04-2.14.53.4,1.59,1.33,1.57,2.39v.25s.22.1.22.1c0,0,.24.11.47.35l-.63.2h-.02s-.91.47-.22,1.92c.55,1.16,1.13,1.84,1.16,1.86l.27.31.28-.29c.06-.06,1.44-1.51,1.43-3.24l.23-1.02v-1.15l-.02-.06Z"/>
      </g>
      <g>
        <path class="st4" d="M49.61,100.03s3.1,4.27,8.39.59c0,0-.8,1.9-3.06,2.55,0,0,3.87.62,5.65-3.62,0,0,.78-2.59.64-3.68-.14-1.08.86-2.63.86-2.63,0,0,.53-.78,1.23-1.09.04-.28.1-.58.18-.89h0c.03-.12.06-.23.1-.35,0-.02.01-.03.02-.05-1.19-.48-3.51-.89-5.55,1.73,0,0-.76,1-.96,3.01-.19,2.01-4.01,1.77-4.01,1.77,0,0-1.58-.12-2.41-2.08,0,0,0,2.87,1.6,3.85,0,0,.96.72,2.09.44,0,0-2.04,2.14-4.77.43Z"/>
        <path class="st4" d="M93.15,114.67c-8.9-3.79-16.99-4.87-22.57-5.13l.06-.07c.32-.36.76-1.27.25-2.26l.11-1.53-.06-.1c-.04-.07-.4-.7-.87-1.03-.16-.16-.47-1.15-.66-2.14,0-.14.01-1.04.95-1.39,1.37-.51,3.07-2.67,3.14-2.76.03-.04.71-.93.72-2.59.15-.3.61-1.26.64-2.14.38-.04,1.03-.13,1.84-.32-.02.06-.04.1-.04.11l-.04.08.38,1.32.21-.06c1.45-.41,4.3-.83,4.32-.83l.25-.04-.07-.24c-.19-.67-1.47-1-2.39-1.15,0,0,0,0,0,0,0,0,0,0,0,0,1.21-.47,2.52-1.13,3.78-2.06.34-.25,1.18-.75,1.61-.69.74.1,2.04-.23,2.26-.29.66-.11,1.4-.12,1.57-.03.47.6.32,1.5-.45,2.68-.19.2-.56.66-.43,1.06,0,0,0,0,0,.01l-.89-.44-.18.13c-.05.04-1.31,1-1.26,3.39v.41s.42-.05.42-.05c.09-.01,2.31-.28,3.2-1.35.55-.66.85-.81.92-.84h.75v-2.24c.02-.82.23-2.28.7-2.74.74-.73.42-1.62.02-2.05-.09-.1-.62-.7-1.29-.88h-.05s-.91-.01-.91-.01c-.11-.03-.32-.09-.52-.19-.03-.22-.06-.42-.1-.62-.01-.07-.02-.13-.04-.2-.21-1.1-.49-1.98-.7-2.54-.05-.12-.09-.23-.13-.32-.11-.26-.18-.4-.18-.4-.15-.36-.49-1.04-1.11-1.68v-1.21h-1l-1.54-4.2h0c-.08-.21-.21-.55-.33-.94.22.16.49.3.81.38,1.21.32,1.3,1.73,1.3,1.79v.05s.02.05.02.05c.02.07.25.72.81.97.29.14.63.14.96,0,.88-.35,1.21-.72,1.31-.84.14-.15.6-.77.16-1.86-.37-.92-.76-2.37-.84-3.07.27-.2.56-.54.56-1v-.13l-.3-.38s.04-.08.05-.11c.12-.26.28-.69.45-1.26l.03-.04h-.01s.17-.56.17-.56l-.56.11c-.05-.01-.54-.34-.95-.62-.41-.28-.59-.79-.45-1.26,0,0,0-.01,0-.02l.35-1.13-.93.73s-.67.52-1.13,1.08c-.68-.41-2.41-1.27-4.41-.9l-.4.08.38,1.29c-.61-.18-1.51-.33-2.32.02l-.54.23.86.78c-.61.09-1.43.32-2.18.87l-.28.21c-.45-.34-.95-.66-.95-.66.05-.2.08-.47.11-.75h0s0-.02,0-.02c.07-.73.08-1.56.08-1.56.32-.32.45-.78.33-1.21-.04-.16-.1-.29-.17-.41h0s0,0,0,0c-.18-.34-.4-.54-.4-.54,0,0-.11-.14-.31-.33h0s0,0,0,0c-.18-.17-.44-.37-.76-.56-.13-.07-.29-.12-.45-.15h0s0,0,0,0c-.06,0-.11-.02-.17-.02-.8-.07-1.59.24-2.18.78-.03.02-.06.05-.08.08h0s0,0,0,0c-.16.16-.35.33-.55.54-.12.13-.21.3-.28.51h0s0,0,0,0c-.36,1.17.12,3.36.12,3.36l-.31-.05-3.13-10.55c1.32-1.04,3.07-1.28,4.4-1.28.01,0,.02,0,.03,0-.54.35-.82.67-.84.7l-.28.32,1.07,1.14.29-.12c1.51-.6,3.05-.52,4.56.23,1.15.58,1.86,1.36,1.87,1.36l.54.6.25-.76c.23-.69.65-1.06.65-1.07l.22-.19-.07-.28c-.09-.35-.18-.63-.26-.83.67-.25,1.1-.62,1.12-.64l.34-.29-.28-.35c-.3-.38-.13-.82-.13-.84l.62-1.85-.61-.03c-1.29-.07-4.81-.5-5.67-1.69-.16-.23-.21-.46-.13-.74.19-.68.13-1.26-.17-1.72-.32-.5-.9-.81-1.73-.93-.85-.13-1.73,0-2.55.35-3.07,1.33-5.55,1.05-5.58,1.04h0s-.29-.99-.29-.99h-.03s.09-.7.09-.7l-.29-.29-1.34-1.53-.36,2.15.79.93,5.74,19.34c-.18.1-.33.23-.39.38-.15.33-.14.81-.1,1.17.04.32-.1.63-.36.82-.03.02-.05.04-.08.06h0s0,0,0,0c-.28.22-.63.58-.95,1.12-.04.07-.09.14-.15.22l-.23.26c-1.22,1.25-4.37,3.2-4.37,3.2l1.31.28c-2.33,1.92-4.48,2.87-6.36,3.24-4.74.84-7.75-1.71-7.75-1.71,0,0,.13.74.65,1.67h0s0,0,0,0c.3.54.73,1.14,1.33,1.69h0s0,.02,0,.02c.48.44,1.06.85,1.78,1.18h.01s.02.02.02.02c.58.27,1.23.48,1.99.63h.02s-1.16.21-1.16.21l-1.56.12c-.15-.04-.3-.08-.44-.14,0,0,.57.66,3.37,1.01l-.95.44c-.16.07-.33.13-.46.18l.89,1.17.42.55h0s.38.5.38.5c0,0,.11.1.34.22h0s0,0,0,0c.3.17.81.38,1.53.44l.08.02h.1c.47.02,1.01-.02,1.64-.16h.01s0,0,0,0c.76-.17,1.63-.5,2.63-1.05,0,0,.9-.42,2-1.18h0s.82-.11.82-.11h.17c-.46.43-.97.85-1.56,1.19,0,0,2.94-.57,5.08-2.62l.04-.02.04-.05c.32-.31.61-.65.88-1.03l.15.93s0,.01,0,.02l-.24,1.31-.34.7c-.14.05-.27.11-.41.16-3.01,1.1-4.21,3.22-4.69,4.79-.04.12-.07.23-.1.34h0c-.08.31-.14.6-.18.88-.16,1.07-.06,1.85-.05,1.95.01.14.19,1.85.65,2.99.35.85-.5,1.91-.59,2.02l-1.24,1.24c-.1.1-.64.71.04,1.73.49.75.83,2.02.85,2.12.03.12.37,1.87.14,3.16l-.05.3,1.15.46v1.38c-8.74-.02-17.39-.04-26.17-.06v18.01h68.03c-.01-1.63.01-3.26,0-4.9-3.41-2.56-7.98-5.47-13.68-7.89ZM65.17,51.13c.87.04,3.06,0,5.67-1.14.66-.29,1.37-.38,2.04-.28.38.06.87.19,1.08.52.15.22.16.55.05.96-.15.55-.06,1.08.27,1.53,1.05,1.45,4.35,1.91,5.77,2.04l-.22.65c-.11.28-.19.81.01,1.33-.22.13-.56.3-.95.38l-.72.14.43.58s.16.27.32.84c-.12.14-.28.35-.43.61-.36-.31-.91-.72-1.61-1.08-.98-.5-1.99-.74-3-.74-.69,0-1.38.12-2.06.35l-.03-.03c.35-.28.98-.69,1.88-.86l2.28-.44-2.27-.48c-.18-.04-4.04-.81-6.77,1.08l-1.77-5.96ZM65.69,102.25s.06-.45.39-.9c.02.14.07.28.14.43l.02.04.02.03s1.21,1.56,1.51,2.86c.23,1.02.13,1.39.11,1.45l-.22.29.88.57c-.43.27-.61.64-.63.68l-.02.03v.03s-.01.03-.02.05c-.27-.21-.62-.42-1.09-.59v-.4c-.01-.09-.1-.58-.8-1.31-.37-.39-.4-2.15-.3-3.27ZM68.73,109.1s-.02-.11-.07-.26c.14.13.31.35.43.56l.06.11c-.12,0-.24,0-.36,0l-.06-.41Z"/>
      </g>
    </g>
    <g>
      <line class="st2" x1="556.48" y1="74.71" x2="436.86" y2="74.71"/>
      <line class="st1" x1="556.48" y1="101.13" x2="432.02" y2="101.13"/>
      <g>
        <path class="st7" d="M443.41,76.26c0-1.89-.81-3.43-1.45-4.62h-.12c-.22.7-.7,1.67-1.01,2.15,1.6,1.51,2.34,2.63,2.34,3.15,0,1.71-4.06,4.58-7.54,5.1v.12c.8.26,1.74.96,2.9.96,2.53,0,4.89-2.74,4.89-6.86Z"/>
        <path class="st7" d="M464.21,81.21c-.27-.47-1-1.12-1.6-1.38l-1.19,1.47v.12c.47.2,1.19.85,1.49,1.22l1.29-1.42Z"/>
        <path class="st7" d="M475.13,71.62h.12c.65-.67,1.97-1.36,3.61-1.69.08-.33.26-.78.43-1.04v-.12c-.39.16-1.48.32-2.19.32-1.02,0-1.59-.48-1.59-.92s.64-1.18,1.67-1.18c.59,0,.92.23.97.77h.12c.02-.12.06-.28.06-.5,0-.69-.45-1.2-1.13-1.2-1.05,0-1.96,1.28-1.96,2.57,0,.67.46,1.17,1.32,1.34-.67.38-1.2.94-1.44,1.64Z"/>
        <path class="st7" d="M482.87,68.57c.62,0,2.13-.05,3.61-.16.09-.34.41-1.26.59-1.58-1.15.09-3.44.14-3.9.14-1.08,0-1.48-.13-1.48-.52h-.12c-.09.51-.33.99-.33,1.34,0,.58.55.77,1.63.77Z"/>
        <path class="st7" d="M496.37,75.5h.12c-.11,1.59.72,2.44,2.15,2.44,1.71,0,2.66-1.35,2.66-3.67s-.83-3.77-1.09-4.47h-.1c-.25.77-.66,1.59-.97,2.06,1.37,1.21,1.87,2.15,1.87,2.66,0,.47-.99.94-2.18.94-.94,0-1.71-.28-2.11-.81.12-.69.26-1.72.28-1.94h-.21c-.3,2.03-1.06,2.75-2.83,2.75-.88,0-1.58-.25-1.98-.72.12-.69.27-1.8.29-2.03h-.21c-.38,2.09-1.28,2.75-3.33,2.75-.07,0-.13.03-.2.05v-.05c-1.7,0-2.55-.59-3.03-1.81-.35-.94-.65-2.36-.77-3.48h-.12c-.24.56-.91,1.39-1.22,1.69l.62,2.29.15.53c-.56.52-1.62.78-2.88.78-.08,0-.13.04-.2.05v-.05c-2.05,0-2.65-.74-2.65-2.37v-1h-.2c-.38,2.57-1.28,3.37-6.08,3.37h-.29c-2.31,0-3.34-.28-3.55-1.69.57-.3,1.17-.51,1.85-.52.24-.5.82-1.29,1.12-1.57v-.12c-3.5-.16-6.47-2.22-8.56-2.22-1.18,0-1.92.62-2.66,3.29h.12c.48-.92,1.15-1.42,2.13-1.42,1.7,0,3.55,1.2,6.75,1.74v.12c-2.13.58-3.75,2.39-10.09,2.39h-8.25c-2.13,0-2.92-.78-2.92-2.75,0-2.37.12-4.9.12-7.23,0-1.86-.12-2.89-.12-3.86h-.12c-.39.64-1.06,1.58-1.61,2.11.39,2,.54,3,.68,10.13.07,3.1,1.03,4.07,3.54,4.07h0s0,0,0,0h8.25c5.38,0,7.36-2.78,9.56-4.06-.04.36-.07.73-.07,1,0,2.35.86,3.06,3.4,3.06h.28s0,0,0,0c4.6,0,5.86-.86,6.1-3.6h.12c-.26,2.81.97,3.6,2.71,3.6v-.04c.06.03.13.04.2.04,1.72,0,3.17-.96,3.44-2.82.68,1.96,1.74,2.82,3.81,2.82v-.04c.06.03.13.04.2.04,1.79,0,2.85-.79,3.24-2.44h.12c-.13,1.63.65,2.44,1.94,2.44,1.36,0,2.42-.79,2.75-2.44Z"/>
        <path class="st7" d="M504.82,78.29h.12c.56-2.4.97-2.91.97-7.25,0-3.51-.28-8.44-.28-9.41h-.12c-.39.64-1.06,1.58-1.61,2.11.28,1.53,1.03,11.56.92,14.55Z"/>
        <path class="st7" d="M502.91,84.84h.12c.65-.66,1.96-1.35,3.6-1.67.09-.35.25-.78.44-1.05v-.12c-.39.16-1.48.32-2.2.32-1.01,0-1.58-.47-1.58-.92s.63-1.2,1.66-1.2c.59,0,.94.23.97.8h.13c.02-.13.07-.29.07-.52,0-.67-.45-1.2-1.13-1.2-1.06,0-1.96,1.29-1.96,2.57,0,.68.46,1.19,1.33,1.35-.68.37-1.21.93-1.45,1.63Z"/>
        <path class="st7" d="M520.21,73.7c.51,3.06,1.82,4.24,3.54,4.24,0,0,0,0,0,0h14.48c2.15,0,3.32-.37,4.04-1.33.51.89,1.65,1.33,4.27,1.33h0s0,0,0,0c3.21,0,5.01-.89,8.38-1.63.35-.74,1.1-1.92,1.44-2.26l-.02-.11c-1.31.48-3.12.75-4.7.75-2.06,0-3.46-1.03-3.46-2.27,0-1.33,1.84-2.37,3.56-2.37,1.44,0,2.31.48,2.31,1.21h.12c.5-1.7-.36-3.01-2.25-3.01-2.18,0-4.13,2.19-4.13,4.93,0,.94.33,1.71.95,2.18-.63.06-1.3.1-1.8.1-1.12,0-1.78-.02-2.34-.06.8-.66,1.25-1.62,1.25-2.77,0-2.06-1.11-3.43-2.72-3.43-1.79,0-3.42,2.06-3.42,4.6,0,.6.21,1.15.61,1.58-.51.06-1.02.08-1.7.08h-14.47c-1.53,0-2.5-.87-3.05-3.04-1.02-3.89-1.32-4.94-1.52-5.85h-.12c-.09.33-.88,1.8-1.19,2.22.86,1.67,1.53,4.34,1.53,4.96,0,.89-1.27,1.83-3.62,1.83-1.97,0-2.53-.56-2.46-2.09h-.17c-.11.7-.2,1.41-.2,2.01,0,1.62.82,2.56,2.68,2.56,2.55,0,3.89-1.47,4.05-4.36h.12ZM540.09,72.9c0-.89,1.37-1.89,2.76-1.89s2.66,1.1,2.66,2.31c0,.67-.93,1.48-2.93,1.95-1.51-.56-2.49-1.65-2.49-2.37Z"/>
        <path class="st7" d="M541.82,66.91c.62,0,2.13-.05,3.61-.16.08-.34.41-1.26.59-1.58-1.15.09-3.44.14-3.91.14-1.07,0-1.48-.13-1.48-.52h-.12c-.08.51-.32.99-.32,1.34,0,.58.55.77,1.63.77Z"/>
        <path class="st7" d="M437.78,87.36h-.12c-.08.51-.33.99-.33,1.34,0,.58.56.77,1.64.77.62,0,2.13-.05,3.61-.16.08-.34.4-1.26.58-1.58-1.15.09-3.43.14-3.9.14-1.08,0-1.48-.13-1.48-.52Z"/>
        <path class="st7" d="M446.55,104.51c-.62,0-2.13.05-3.61.16-.09.34-.41,1.26-.59,1.58,1.15-.1,3.44-.15,3.91-.15,1.07,0,1.48.14,1.48.53h.12c.08-.51.32-.99.32-1.34,0-.59-.55-.77-1.63-.77Z"/>
        <path class="st7" d="M454.86,93.78c-.24.65-.72,1.74-1.06,2.13.95.82,2.08,2.27,2.08,2.91,0,.6-1.6,1.1-4.08,1.1-2.03,0-2.65-.74-2.65-2.37v-1h-.19c-.38,2.66-1.06,3.37-4.59,3.37-1.76,0-2.72-.92-2.72-3.02,0-3.51-.19-4.95-.32-6.05h-.08c-.39.65-1.02,1.33-1.44,1.65.07.27.14.64.21,1.08-4.25,2.62-5.38,3.98-5.38,5.76,0,1.24.78,1.98,2.38,1.98,2.08,0,3.12-1.05,3.41-3.18h.12c.12,3.06,1.29,4.24,3.42,4.24,0,0,0,0,0,0,0,0,0,0,0,0,0,0,0,0,0,0h0c3.09,0,4.44-1,4.62-3.6h.12c-.26,2.81.94,3.6,2.68,3.6,0,0,0,0,0,0s0,0,0,0c0,0,0,0,0,0h0c3.39,0,4.77-1.3,4.77-3.95,0-2.39-.99-4.07-1.21-4.66h-.1ZM437.28,98.94c-1.45,0-1.93-.32-1.93-.93s.96-1.57,4.79-3.58c.12.94.21,2.02.21,2.93s-1.22,1.59-3.07,1.59Z"/>
        <path class="st7" d="M455.25,90.8c-.27-.47-1-1.11-1.6-1.38l-1.19,1.47v.12c.46.2,1.19.84,1.49,1.22l1.29-1.42Z"/>
        <path class="st7" d="M477.93,99.15c-2.06,0-3.46-1.03-3.46-2.27,0-1.33,1.84-2.37,3.56-2.37,1.44,0,2.31.48,2.31,1.21h.12c.5-1.7-.36-3.01-2.25-3.01-2.18,0-4.13,2.19-4.13,4.93,0,.94.33,1.71.95,2.18-.63.06-1.3.1-1.8.1h-4.12c-1.95,0-2.86-.78-2.86-2.95s.12-4.69.12-7.03c0-1.86-.12-2.85-.12-3.86h-.13c-.37.63-1.03,1.49-1.6,2.05.23,1.63.52,4.79.52,8.6,0,.86-.5,1.66-1.64,2.4.1-6.46-4.84-9.86-5.97-11.15h-.12c.07.8-.08,2.09-.25,2.75,3.7,2.61,5.89,5.58,6.22,8.47-1.27.78-3.26,1.49-6.19,2.13v.12c1.09.42,2.15.94,3.28.94,2.38,0,4.36-1.68,4.8-5.04h.1c-.07,4.22.96,5.04,3.42,5.04h0s0,0,0,0h4.13c3.21,0,5.01-.89,8.38-1.63.35-.74,1.1-1.92,1.44-2.26l-.02-.11c-1.31.48-3.12.75-4.7.75Z"/>
        <path class="st7" d="M484.44,105.86c0-.46.63-1.2,1.66-1.2.59,0,.94.23.97.8h.13c.02-.13.07-.29.07-.52,0-.67-.45-1.2-1.13-1.2-1.06,0-1.96,1.29-1.96,2.57,0,.68.46,1.19,1.33,1.35-.68.37-1.21.93-1.45,1.63h.12c.65-.66,1.96-1.35,3.6-1.67.09-.35.25-.78.44-1.05v-.12c-.39.16-1.48.32-2.2.32-1.01,0-1.58-.47-1.58-.92Z"/>
        <path class="st7" d="M486.09,102.74c.56-2.4.97-2.91.97-7.25,0-3.51-.28-8.44-.28-9.41h-.12c-.39.64-1.06,1.58-1.61,2.11.28,1.53,1.03,11.56.92,14.55h.12Z"/>
        <path class="st7" d="M496.99,87.36h-.12c-.08.51-.33.99-.33,1.34,0,.58.56.77,1.64.77.62,0,2.13-.05,3.61-.16.08-.34.4-1.26.58-1.58-1.15.09-3.43.14-3.9.14-1.08,0-1.48-.13-1.48-.52Z"/>
        <path class="st7" d="M504.68,97.1h.12c.48-.92,1.15-1.42,2.13-1.42,1.7,0,3.55,1.2,6.75,1.74v.12c-2.13.58-3.75,2.38-10.08,2.39-1.76,0-2.72-.92-2.72-3.02,0-3.51-.19-4.95-.32-6.05h-.08c-.39.65-1.02,1.33-1.44,1.65.07.27.14.64.21,1.08-4.25,2.62-5.38,3.98-5.38,5.76,0,1.24.78,1.98,2.38,1.98,2.08,0,3.12-1.05,3.41-3.18h.12c.12,3.06,1.29,4.24,3.42,4.24,0,0,0,0,0,0,0,0,0,0,0,0,0,0,0,0,0,0h0c6.93,0,8.21-4.61,11.59-4.68.24-.5.82-1.29,1.12-1.57v-.12c-3.5-.16-6.47-2.22-8.56-2.22-1.18,0-1.92.62-2.66,3.29ZM496.5,98.94c-1.45,0-1.93-.32-1.93-.93s.96-1.57,4.79-3.58c.12.94.21,2.02.21,2.93s-1.22,1.59-3.07,1.59Z"/>
        <path class="st7" d="M553.46,94.34c-1.28,0-2.19,1-3.31,3.5l-.38-.32c-.62,1.95-1.45,2.39-2.89,2.39-1.92,0-2.61-.78-2.62-1.82l-.03-1.8c-.18.16-.46.31-.66.39.14.52.33,1.52.33,2.02-.19.65-.94,1.22-2.05,1.22-.81,0-1.44-.28-1.82-.8.12-.7.26-1.73.28-1.95h-.2c-.3,2.03-1.06,2.75-2.83,2.75-.88,0-1.58-.25-1.98-.72.12-.69.27-1.8.29-2.03h-.21c-.38,2.09-1.28,2.75-3.33,2.75h-8.25c-2.13,0-2.92-.78-2.92-2.75,0-2.37.12-4.9.12-7.23,0-1.86-.12-2.89-.12-3.86h-.12c-.39.64-1.06,1.58-1.61,2.11.39,2,.54,3,.68,10.13.07,3.1,1.03,4.07,3.54,4.07h0s0,0,0,0h8.25c1.79,0,2.85-.79,3.24-2.44h.12c-.13,1.63.65,2.44,1.94,2.44,1.36,0,2.42-.79,2.75-2.44h.12c-.11,1.59.65,2.44,1.86,2.44,1.32,0,2.07-.82,2.31-2.53h.11c-.15,1.62.69,2.53,2.39,2.53,0,0,0,0,0,0s0,0,0,0c0,0,0,0,0,0h0c2.41,0,2.79-2.48,3.31-4.05l.12.04c-.06.4-.13.94-.08,1.41.23,1.51,2.21,2.6,4.42,2.6,1.19,0,2.12-1.35,2.12-3.56,0-2.54-1.15-4.49-2.91-4.49ZM556.02,99.09c0,.58-.48.83-1.44.83-1.48,0-3.57-.86-4.16-1.95.55-1.16,1.41-1.83,2.56-1.83,1.79,0,3.04,1.54,3.04,2.95Z"/>
      </g>
    </g>
  </g>
  <g>
    <path class="st4" d="M342.94,140.15c-8.53,0-15.47,6.94-15.47,15.47v22.48c0,8.53,6.94,15.47,15.47,15.47h198.06c8.53,0,15.47-6.94,15.47-15.47v-37.95h-213.53ZM555.48,178.1c0,7.98-6.49,14.47-14.47,14.47h-198.06c-7.98,0-14.47-6.49-14.47-14.47v-22.48c0-7.98,6.49-14.47,14.47-14.47h212.53v36.95Z"/>
    <path class="st4" d="M39.86,155.62v22.48c0,8.53,6.94,15.47,15.47,15.47h198.06c8.53,0,15.47-6.94,15.47-15.47v-37.95H55.33c-8.53,0-15.47,6.94-15.47,15.47ZM267.86,178.1c0,7.98-6.49,14.47-14.47,14.47H55.33c-7.98,0-14.47-6.49-14.47-14.47v-22.48c0-7.98,6.49-14.47,14.47-14.47h212.53v36.95Z"/>
    <rect class="st4" x="428.02" y="147.59" width="1" height="40.26"/>
    <rect class="st4" x="142.06" y="147.59" width="1" height="40.35"/>
    <path class="st4" d="M445.44,149.38c.57,0,1.95-.04,3.31-.14.07-.31.37-1.15.54-1.44-1.05.08-3.14.12-3.57.12-.99,0-1.36-.12-1.36-.47h-.11c-.07.46-.3.91-.3,1.23,0,.53.51.7,1.5.7Z"/>
    <path class="st4" d="M443.65,160.23c1.91,0,2.85-.96,3.12-2.91h.11c.11,2.8,1.18,3.88,3.13,3.88,0,0,0,0,0,0,0,0,0,0,0,0,0,0,0,0,0,0h0c6.34,0,7.52-4.22,10.61-4.29.22-.45.75-1.18,1.02-1.44v-.11c-3.2-.14-5.93-2.03-7.83-2.03-1.08,0-1.76.57-2.43,3.01h.11c.44-.85,1.05-1.3,1.95-1.3,1.56,0,3.25,1.1,6.17,1.6v.11c-1.95.53-3.43,2.18-9.23,2.18-1.61,0-2.49-.84-2.49-2.76,0-3.22-.18-4.53-.29-5.53h-.07c-.36.6-.94,1.22-1.32,1.51.06.25.12.59.19.99-3.89,2.4-4.93,3.64-4.93,5.28,0,1.13.71,1.81,2.17,1.81ZM446.52,153.91c.11.86.19,1.84.19,2.68s-1.11,1.45-2.81,1.45c-1.33,0-1.76-.29-1.76-.86s.88-1.43,4.38-3.28Z"/>
    <path class="st4" d="M467.04,161.2h0s0,0,0,0c1.64,0,2.61-.72,2.97-2.24h.11c-.12,1.49.6,2.24,1.77,2.24,1.25,0,2.22-.72,2.51-2.24h.11c-.1,1.45.6,2.24,1.7,2.24,1.21,0,1.9-.75,2.11-2.32h.1c-.13,1.48.63,2.31,2.18,2.32,0,0,0,0,0,0,0,0,0,0,0,0,0,0,0,0,0,0h0c2.15,0,2.55-2.13,3.03-3.44l.11.04c-.05.36-.12.85-.07,1.27.21,1.38,2.02,2.45,4.05,2.45,1.1,0,1.81-.96,1.87-2.97h.11c.23,1.79,1.16,2.65,2.53,2.65h0s.03,0,.04,0c1.11,0,1.77-.16,2.18-.7.94-1.19,1.4-3.34,1.4-4.86,0-3.32-.27-8.4-.27-9.37h-.11c-.37.59-.97,1.42-1.48,1.93.26,1.29,1.13,7.95,1.13,9.85,0,.51-.78.89-2.54.89-1.37,0-2.12-.57-2.8-2.25-.88-2-1.68-2.59-2.73-2.59-1.24,0-2.08.92-3.1,3.19l-.35-.28c-.57,1.51-1.33,1.92-2.64,1.92-1.76,0-2.38-.71-2.39-1.67l-.03-1.65c-.16.14-.42.29-.61.36.12.47.3,1.39.3,1.84-.18.6-.86,1.11-1.88,1.11-.74,0-1.32-.26-1.67-.73.11-.64.24-1.59.26-1.78h-.19c-.28,1.86-.97,2.51-2.59,2.51-.8,0-1.44-.23-1.81-.66.11-.63.25-1.65.27-1.85h-.19c-.35,1.92-1.17,2.51-3.05,2.51-1.95,0-2.67-.71-2.67-2.51,0-2.17.11-4.48.11-6.62,0-1.7-.11-2.65-.11-3.54h-.11c-.36.59-.97,1.44-1.47,1.93.36,1.83.49,2.74.62,9.28.06,2.83.94,3.73,3.24,3.73ZM486.57,155.75c1.64,0,2.78,1.41,2.78,2.67,0,.54-.44.84-1.32.84-1.35,0-3.27-.84-3.8-1.86.51-1.05,1.29-1.65,2.34-1.65Z"/>
    <path class="st4" d="M498.68,161.52h.11c.52-2.2.89-2.66.89-6.64,0-3.22-.26-7.73-.26-8.62h-.11c-.36.59-.97,1.44-1.47,1.93.26,1.4.94,10.58.84,13.32Z"/>
    <path class="st4" d="M509.79,166.06c3.5,0,5.86-2.08,6.05-5.75.45.61,1.1.89,1.84.89,1.26,0,2.21-.72,2.5-2.24h.12c-.09,1.45.67,2.24,1.97,2.24,1.56,0,2.42-1.24,2.42-3.36s-.75-3.45-1-4.09h-.09c-.22.7-.59,1.45-.89,1.89,1.27,1.1,1.72,1.97,1.72,2.43,0,.43-.91.86-1.99.86-.86,0-1.58-.26-1.93-.73.1-.63.22-1.59.24-1.78h-.17c-.29,1.86-.97,2.51-2.59,2.51-1.2,0-2.12-.76-2.99-3.65h-.12c-.21.65-.57,1.47-.79,1.78.96,1.71,1.47,2.79,1.47,3.27,0,1.76-2.24,3.46-5.54,3.46-2.75,0-4.3-1.27-4.3-3.46,0-.86.2-2,.58-2.99h-.17c-.64,1.43-.92,2.84-.92,4.21,0,2.86,1.62,4.51,4.56,4.51Z"/>
    <path class="st4" d="M530.36,161.2h0s0,0,0,0c1.97,0,3.04-.34,3.7-1.22.46.81,1.51,1.22,3.91,1.22h0s0,0,0,0c2.21,0,2.56-2.27,3.04-3.71l.11.04c-.05.37-.12.86-.07,1.29.21,1.38,2.02,2.38,4.05,2.38,1.09,0,1.94-1.24,1.94-3.26,0-2.33-1.05-4.11-2.67-4.11-1.17,0-2,.92-3.03,3.21l-.35-.29c-.57,1.78-1.33,2.19-2.65,2.19-1.02,0-1.63-.02-2.14-.05.73-.61,1.14-1.48,1.14-2.54,0-1.89-1.02-3.14-2.49-3.14-1.64,0-3.13,1.89-3.13,4.21,0,.55.2,1.05.56,1.44-.46.05-.93.07-1.56.07-1.95,0-2.67-.71-2.67-2.51,0-2.17.11-4.48.11-6.62,0-1.7-.11-2.65-.11-3.54h-.11c-.36.59-.97,1.44-1.47,1.93.36,1.83.49,2.74.62,9.28.06,2.83.95,3.73,3.24,3.73ZM543.95,155.48c1.64,0,2.78,1.41,2.78,2.7,0,.53-.44.76-1.32.76-1.35,0-3.27-.78-3.8-1.78.51-1.06,1.29-1.68,2.34-1.68ZM532.07,156.59c0-.81,1.26-1.73,2.53-1.73s2.43,1.01,2.43,2.11c0,.62-.86,1.35-2.68,1.78-1.38-.52-2.28-1.51-2.28-2.17Z"/>
    <path class="st4" d="M533.65,151.11c.57,0,1.95-.04,3.31-.14.07-.31.37-1.15.54-1.44-1.05.08-3.15.12-3.58.12-.98,0-1.36-.12-1.36-.47h-.11c-.07.46-.29.91-.29,1.23,0,.53.51.7,1.49.7Z"/>
    <path class="st4" d="M450.18,170.61c.07-.31.37-1.15.54-1.44-1.05.08-3.14.12-3.57.12-.99,0-1.35-.12-1.35-.47h-.11c-.07.46-.3.91-.3,1.23,0,.53.51.7,1.5.7.57,0,1.95-.04,3.31-.14Z"/>
    <path class="st4" d="M453.81,184.52c-.57,0-1.95.04-3.31.14-.08.31-.38,1.15-.54,1.44,1.05-.09,3.15-.13,3.58-.13.98,0,1.35.12,1.35.48h.11c.07-.46.29-.91.29-1.23,0-.54-.51-.7-1.49-.7Z"/>
    <path class="st4" d="M460.31,170.7l-1.09,1.35v.11c.42.19,1.09.77,1.36,1.11l1.18-1.3c-.25-.43-.92-1.02-1.46-1.27Z"/>
    <path class="st4" d="M461.41,174.69c-.22.6-.66,1.59-.97,1.95.87.75,1.91,2.08,1.91,2.66,0,.55-1.46,1.01-3.73,1.01-1.86,0-2.42-.68-2.42-2.17v-.92h-.17c-.35,2.43-.97,3.08-4.2,3.08-1.61,0-2.49-.84-2.49-2.76,0-3.22-.18-4.53-.29-5.53h-.07c-.36.6-.94,1.22-1.32,1.51.06.25.12.59.19.99-3.89,2.4-4.93,3.64-4.93,5.28,0,1.13.71,1.81,2.17,1.81,1.91,0,2.85-.96,3.12-2.91h.11c.11,2.8,1.18,3.88,3.13,3.88,0,0,0,0,0,0,0,0,0,0,0,0,0,0,0,0,0,0h0c2.83,0,4.07-.92,4.23-3.3h.11c-.24,2.57.86,3.3,2.45,3.3,0,0,0,0,0,0,0,0,0,0,0,0,0,0,0,0,0,0h0c3.1,0,4.36-1.19,4.36-3.62,0-2.19-.91-3.73-1.11-4.27h-.09ZM445.33,179.41c-1.33,0-1.76-.29-1.76-.86s.88-1.43,4.38-3.28c.11.86.19,1.84.19,2.68s-1.11,1.45-2.81,1.45Z"/>
    <path class="st4" d="M497.85,180.31h-22.65c-1.78,0-2.62-.71-2.62-2.7s.11-4.3.11-6.43c0-1.7-.11-2.61-.11-3.54h-.12c-.34.58-.94,1.36-1.46,1.88.21,1.49.47,4.38.47,7.87,0,.78-.45,1.51-1.5,2.19.09-5.92-4.43-9.03-5.46-10.2h-.11c.06.73-.07,1.92-.23,2.52,3.39,2.39,5.39,5.11,5.69,7.75-1.16.71-2.99,1.36-5.67,1.95v.11c1,.38,1.97.86,3,.86,2.18,0,3.99-1.54,4.39-4.62h.09c-.06,3.86.88,4.62,3.13,4.62h0s0,0,0,0h49.09c2.94,0,4.59-.81,7.67-1.49.32-.68,1.01-1.76,1.32-2.07l-.02-.1c-1.2.44-2.85.69-4.3.69-1.89,0-3.16-.94-3.16-2.08,0-1.22,1.68-2.17,3.26-2.17,1.32,0,2.11.44,2.11,1.1h.11c.45-1.56-.33-2.75-2.06-2.75-2,0-3.78,2.01-3.78,4.51,0,.86.3,1.57.87,2-.58.05-1.19.09-1.65.09h-26.43Z"/>
    <path class="st4" d="M542.55,167.64h-.11c-.29.58-.89,1.36-1.33,1.75.17,1.02.24,2.48.24,3.13,0,1.05-.16,2.01-.51,2.9-1.2-1.6-3.21-3.55-6.27-6.03h-.11c.06.73-.07,1.85-.23,2.38,2.92,1.67,4.89,3.31,6.13,4.65-1.04,1.74-2.94,3.15-5.93,4.3v.11c1.56.81,2.25,1.86,4.32,1.86,2.18,0,3.58-1.2,3.58-3.7,0-.85-.29-1.76-.96-2.82.86-1.43,1.28-3.2,1.28-5.42,0-1.41-.11-2.34-.11-3.11ZM542.09,179.34c0,.59-1.21,1.08-3.48,1.08-.84,0-1.44-.12-2.17-.38,1.92-.81,3.38-1.8,4.38-3.08.88,1.08,1.26,1.92,1.26,2.39Z"/>
    <path class="st4" d="M546.51,167.64c-.36.59-.97,1.44-1.47,1.93.26,1.4.94,10.58.84,13.32h.11c.52-2.2.89-2.66.89-6.64,0-3.22-.26-7.73-.26-8.62h-.11Z"/>
    <path class="st4" d="M153.63,160.14c1.92,0,2.87-.97,3.13-2.93h.11c.11,2.82,1.19,3.91,3.15,3.91h0s0,0,0,0c6.38,0,7.56-4.25,10.67-4.31.22-.46.75-1.18,1.03-1.44v-.11c-3.21-.14-5.96-2.04-7.87-2.04-1.08,0-1.76.57-2.45,3.03h.11c.44-.85,1.06-1.31,1.96-1.31,1.57,0,3.27,1.1,6.21,1.6v.11c-1.96.54-3.45,2.19-9.28,2.19,0,0,0,0,0,0h0c-1.62,0-2.5-.84-2.5-2.78,0-3.23-.18-4.55-.3-5.56h-.07c-.36.6-.94,1.23-1.33,1.52.06.25.12.59.19.99-3.91,2.41-4.95,3.66-4.95,5.3,0,1.14.72,1.82,2.19,1.82ZM156.5,153.78c.11.87.19,1.85.19,2.7s-1.12,1.46-2.82,1.46c-1.33,0-1.77-.3-1.77-.86s.89-1.44,4.41-3.3Z"/>
    <path class="st4" d="M155.42,149.23c.57,0,1.96-.04,3.32-.14.07-.31.37-1.16.54-1.45-1.06.08-3.15.12-3.59.12-.99,0-1.36-.12-1.36-.47h-.11c-.07.47-.3.91-.3,1.24,0,.54.51.71,1.5.71Z"/>
    <path class="st4" d="M177.15,161.12h0s0,0,0,0c1.65,0,2.62-.73,2.98-2.25h.11c-.12,1.5.6,2.25,1.78,2.25,1.25,0,2.23-.73,2.53-2.25h.11c-.1,1.46.6,2.25,1.71,2.25,1.22,0,1.91-.75,2.12-2.33h.1c-.13,1.5.64,2.33,2.2,2.33h0s0,0,0,0c2.17,0,2.57-2.14,3.05-3.46l.11.04c-.05.36-.12.85-.07,1.28.21,1.39,2.03,2.46,4.07,2.46,1.11,0,1.82-.97,1.88-2.98h.11c.23,1.8,1.16,2.66,2.54,2.66h0s.03,0,.05,0c1.11,0,1.78-.16,2.19-.71.94-1.2,1.41-3.36,1.41-4.88,0-3.34-.27-8.45-.27-9.42h-.11c-.37.59-.98,1.42-1.49,1.94.26,1.3,1.14,7.99,1.14,9.9,0,.51-.79.9-2.55.9,0,0,0,0,0,0h0c-1.38,0-2.13-.57-2.82-2.26-.89-2.01-1.68-2.61-2.74-2.61-1.25,0-2.09.92-3.12,3.21l-.35-.28c-.57,1.52-1.33,1.94-2.66,1.94,0,0,0,0,0,0h0c-1.77,0-2.4-.72-2.41-1.68l-.03-1.66c-.16.14-.42.29-.61.36.12.47.3,1.4.3,1.85-.18.6-.87,1.12-1.89,1.12-.74,0-1.33-.26-1.67-.73.11-.64.24-1.59.26-1.79h-.19c-.28,1.87-.98,2.53-2.61,2.53-.81,0-1.45-.23-1.82-.66.11-.64.25-1.66.27-1.86h-.19c-.35,1.93-1.17,2.53-3.06,2.53s-2.69-.72-2.69-2.53c0-2.18.11-4.51.11-6.66,0-1.71-.11-2.66-.11-3.56h-.11c-.36.59-.98,1.45-1.48,1.94.36,1.84.49,2.76.63,9.32.06,2.85.95,3.74,3.26,3.74ZM196.79,155.64c1.65,0,2.79,1.42,2.79,2.69,0,.55-.44.84-1.33.84-1.36,0-3.29-.84-3.83-1.87.51-1.06,1.3-1.66,2.36-1.66Z"/>
    <path class="st4" d="M208.98,161.44h.11c.52-2.21.9-2.68.9-6.67,0-3.23-.26-7.77-.26-8.66h-.11c-.36.59-.98,1.45-1.48,1.94.26,1.41.95,10.63.84,13.39Z"/>
    <path class="st4" d="M215.64,169.26h.09c.17-.33.47-.82.73-1.08-.1-1.01-.11-3.75-.11-5.95,0-1.03.48-1.7,1.19-1.7.51,0,1.92.59,3.85.59,1.19,0,2.19-.9,2.25-2.88h.11c.13,2.04.96,2.88,2.46,2.88h0s0,0,0,0h3.8s0,0,0,0h3.8s0,0,0,0h11.88c4.84,0,6.75-1.43,6.75-4.85,0-3.81-1.19-5.71-3.14-5.71-1.82,0-2.94,1.9-2.94,4.16,0,1.44.79,2.36,2.45,2.36s2.84-.87,3.09-2.28l.06-.03-.02-.13c.18.61.27,1.33.22,2.12,0,1.05-1.63,2.09-6.1,2.09h-19.48s0,0,0,0h0c-1.51,0-2.09-.49-2.61-2.18-.68-2.11-1.73-2.77-2.88-2.77-1.66,0-2.72,1.46-3.38,4.31-1.25.18-2.19,1.69-2.19,4.38,0,3.52.19,5.86.08,6.67ZM249.07,155.22c-1.84,0-2.39-.78-2.39-1.27,0-.84,1.07-1.79,2.33-1.79,1.34,0,2.43.85,2.91,2.33-.71.45-1.7.73-2.85.73ZM220.73,155.56c1.79,0,2.67,1.49,2.67,2.52,0,.48-.38.76-1.15.76-1.69,0-3.46-.37-4.31-.64.52-1.68,1.43-2.64,2.79-2.64Z"/>
    <path class="st4" d="M247.91,148.34c.57,0,1.96-.04,3.32-.14.08-.31.38-1.16.55-1.45-1.06.08-3.16.13-3.59.13-.99,0-1.36-.12-1.36-.47h-.11c-.08.47-.3.91-.3,1.24,0,.54.51.71,1.5.71Z"/>
    <path class="st4" d="M257.9,160.19c0,1.58-3.73,4.21-6.94,4.69v.11c.73.24,1.6.89,2.67.89,2.33,0,4.5-2.52,4.5-6.31,0-1.74-.74-3.15-1.33-4.25h-.11c-.21.65-.64,1.54-.93,1.98,1.47,1.39,2.15,2.42,2.15,2.9Z"/>
    <path class="st4" d="M160.69,170.59c.07-.31.37-1.16.54-1.45-1.06.08-3.15.12-3.59.12-.99,0-1.36-.12-1.36-.47h-.11c-.07.47-.3.91-.3,1.24,0,.54.51.71,1.5.71.57,0,1.96-.04,3.32-.14Z"/>
    <path class="st4" d="M164.35,184.57c-.57,0-1.96.04-3.32.14-.08.31-.38,1.16-.55,1.45,1.06-.09,3.16-.13,3.6-.13.99,0,1.36.13,1.36.48h.11c.07-.47.29-.91.29-1.24,0-.55-.51-.71-1.5-.71Z"/>
    <path class="st4" d="M172,174.69c-.22.6-.66,1.6-.98,1.96.88.75,1.92,2.09,1.92,2.68,0,.56-1.47,1.01-3.75,1.01,0,0,0,0,0,0h0c-1.87,0-2.44-.68-2.44-2.18v-.92h-.17c-.35,2.45-.98,3.1-4.23,3.1,0,0,0,0,0,0h0c-1.62,0-2.5-.84-2.5-2.78,0-3.23-.18-4.55-.3-5.56h-.07c-.36.6-.94,1.23-1.33,1.52.06.25.12.59.19.99-3.91,2.41-4.95,3.66-4.95,5.3,0,1.14.72,1.82,2.19,1.82,1.92,0,2.87-.97,3.13-2.93h.11c.11,2.82,1.19,3.91,3.15,3.91h0s0,0,0,0c2.85,0,4.09-.92,4.25-3.31h.11c-.24,2.59.87,3.31,2.47,3.31h0s0,0,0,0c3.12,0,4.39-1.19,4.39-3.64,0-2.2-.91-3.74-1.11-4.29h-.09ZM155.82,179.44c-1.33,0-1.77-.3-1.77-.86s.89-1.44,4.41-3.3c.11.87.19,1.85.19,2.7s-1.12,1.46-2.82,1.46Z"/>
    <path class="st4" d="M169.79,172.03v.11c.42.19,1.09.77,1.37,1.12l1.19-1.31c-.25-.43-.92-1.02-1.47-1.27l-1.09,1.35Z"/>
    <path class="st4" d="M204.85,180.34h-15.19s0,0,0,0h0s-3.8,0-3.8,0c-1.79,0-2.63-.72-2.63-2.71s.11-4.32.11-6.47c0-1.71-.11-2.62-.11-3.56h-.12c-.34.58-.95,1.37-1.47,1.89.21,1.5.47,4.41.47,7.91,0,.79-.46,1.52-1.5,2.2.09-5.95-4.45-9.07-5.49-10.26h-.11c.06.73-.07,1.93-.23,2.53,3.4,2.4,5.42,5.13,5.72,7.79-1.16.72-3,1.37-5.7,1.96v.11c1,.38,1.98.87,3.02.87,2.19,0,4.01-1.55,4.42-4.64h.09c-.06,3.88.89,4.64,3.14,4.64h0s0,0,0,0h3.8s0,0,0,0h3.8s0,0,0,0h3.8s0,0,0,0h3.8s0,0,0,0h3.8s0,0,0,0h15.19s0,0,0,0h3.8s0,0,0,0h3.8s0,0,0,0h3.8s0,0,0,0h3.8s0,0,0,0c2.96,0,4.61-.81,7.71-1.5.32-.68,1.01-1.76,1.33-2.08l-.02-.1c-1.21.44-2.87.69-4.33.69-1.9,0-3.18-.95-3.18-2.09,0-1.23,1.69-2.18,3.28-2.18,1.33,0,2.12.44,2.12,1.11h.11c.46-1.57-.33-2.77-2.07-2.77-2.01,0-3.8,2.02-3.8,4.53,0,.87.3,1.58.88,2.01-.58.05-1.2.09-1.66.09h-15.19s0,0,0,0h0s-3.8,0-3.8,0h-11.39Z"/>
    <path class="st4" d="M253.49,167.6c-.29.58-.9,1.37-1.33,1.76.17,1.03.24,2.49.24,3.14,0,1.06-.16,2.02-.51,2.91-1.21-1.61-3.22-3.56-6.31-6.06h-.11c.06.73-.07,1.86-.23,2.39,2.94,1.67,4.92,3.32,6.16,4.68-1.05,1.75-2.96,3.16-5.97,4.33v.11c1.57.82,2.27,1.87,4.34,1.87,2.19,0,3.6-1.21,3.6-3.72,0-.85-.3-1.76-.97-2.83.87-1.44,1.29-3.22,1.29-5.45,0-1.42-.11-2.36-.11-3.13h-.11ZM253.13,179.36c0,.59-1.22,1.08-3.49,1.08-.84,0-1.45-.12-2.18-.39,1.93-.81,3.39-1.81,4.41-3.1.89,1.08,1.26,1.93,1.26,2.4Z"/>
    <path class="st4" d="M257.59,167.6c-.36.59-.98,1.45-1.48,1.94.26,1.41.95,10.63.84,13.39h.11c.52-2.21.9-2.68.9-6.67,0-3.23-.26-7.77-.26-8.66h-.11Z"/>
  </g>
  <g>
    <path class="st4" d="M54.69,655.44c-8.53,0-15.47,6.94-15.47,15.47v22.48c0,8.53,6.94,15.47,15.47,15.47h486.32c8.53,0,15.47-6.94,15.47-15.47v-37.95H54.69ZM555.48,693.39c0,7.98-6.49,14.47-14.47,14.47H54.69c-7.98,0-14.47-6.49-14.47-14.47v-22.48c0-7.98,6.49-14.47,14.47-14.47h500.79v36.95Z"/>
    <rect class="st4" x="429.28" y="662.55" width="1" height="40.55"/>
    <path class="st4" d="M444.93,675.97c1.9,0,2.85-.96,3.11-2.91h.11c.11,2.8,1.18,3.88,3.13,3.88,0,0,0,0,0,0,0,0,0,0,0,0,0,0,0,0,0,0h0c6.33,0,7.51-4.22,10.59-4.28.22-.45.75-1.17,1.02-1.43v-.11c-3.19-.14-5.92-2.03-7.82-2.03-1.08,0-1.75.57-2.43,3.01h.11c.44-.84,1.05-1.3,1.95-1.3,1.56,0,3.25,1.09,6.16,1.59v.11c-1.95.53-3.42,2.18-9.21,2.18-1.61,0-2.48-.84-2.48-2.76,0-3.21-.18-4.52-.29-5.52h-.07c-.36.6-.93,1.22-1.32,1.51.06.25.12.59.19.99-3.89,2.39-4.92,3.64-4.92,5.27,0,1.13.71,1.81,2.17,1.81ZM447.78,669.65c.11.86.19,1.84.19,2.68s-1.11,1.45-2.8,1.45c-1.33,0-1.76-.29-1.76-.85s.88-1.43,4.38-3.27Z"/>
    <path class="st4" d="M446.71,665.14c.57,0,1.95-.04,3.3-.14.07-.31.37-1.15.53-1.44-1.05.08-3.13.12-3.57.12-.99,0-1.35-.12-1.35-.47h-.11c-.07.46-.3.91-.3,1.23,0,.53.51.7,1.5.7Z"/>
    <path class="st4" d="M468.28,676.94h0s0,0,0,0c1.64,0,2.61-.72,2.96-2.23h.11c-.12,1.49.6,2.23,1.77,2.23,1.25,0,2.21-.72,2.51-2.23h.11c-.1,1.45.6,2.23,1.7,2.23,1.21,0,1.89-.75,2.11-2.31h.1c-.13,1.48.63,2.31,2.18,2.31,0,0,0,0,0,0,0,0,0,0,0,0,0,0,0,0,0,0h0c2.15,0,2.55-2.13,3.03-3.43l.11.04c-.05.36-.12.85-.07,1.27.21,1.38,2.02,2.45,4.04,2.45,1.1,0,1.81-.96,1.87-2.96h.11c.23,1.79,1.16,2.64,2.53,2.64h0s.03,0,.05,0c1.1,0,1.77-.16,2.18-.7.93-1.19,1.4-3.34,1.4-4.85,0-3.32-.27-8.39-.27-9.36h-.11c-.36.59-.97,1.41-1.48,1.93.26,1.29,1.13,7.94,1.13,9.83,0,.51-.78.89-2.53.89-1.37,0-2.12-.57-2.8-2.24-.88-1.99-1.67-2.59-2.72-2.59-1.24,0-2.07.92-3.1,3.18l-.35-.28c-.57,1.51-1.32,1.92-2.64,1.92-1.76,0-2.38-.71-2.39-1.66l-.03-1.65c-.16.14-.42.28-.61.36.12.47.3,1.39.3,1.84-.18.6-.86,1.11-1.88,1.11-.74,0-1.32-.26-1.66-.73.11-.64.24-1.58.26-1.78h-.19c-.28,1.86-.97,2.51-2.59,2.51-.8,0-1.44-.23-1.81-.66.11-.63.25-1.65.27-1.85h-.19c-.35,1.91-1.17,2.51-3.04,2.51-1.95,0-2.67-.71-2.67-2.51,0-2.16.11-4.47.11-6.61,0-1.7-.11-2.64-.11-3.53h-.11c-.36.59-.97,1.44-1.47,1.93.36,1.82.49,2.74.62,9.26.06,2.83.94,3.72,3.24,3.72ZM487.79,671.5c1.64,0,2.78,1.41,2.78,2.67,0,.54-.44.84-1.32.84-1.35,0-3.27-.84-3.8-1.86.51-1.05,1.29-1.65,2.34-1.65Z"/>
    <path class="st4" d="M499.88,677.26h.11c.52-2.2.89-2.66.89-6.63,0-3.21-.26-7.71-.26-8.6h-.11c-.36.59-.97,1.44-1.47,1.93.26,1.4.94,10.56.84,13.3Z"/>
    <path class="st4" d="M510.97,680.7c3.67,0,6.06-2.25,6.06-6.22,0-2.29-.8-3.8-1.04-4.53h-.11c-.21.65-.58,1.47-.87,1.84,1.25,1.65,1.73,2.59,1.73,3.2,0,1.75-2.21,3.45-5.52,3.45-2.73,0-4.29-1.26-4.29-3.45,0-.86.19-1.99.59-2.99h-.19c-.62,1.42-.92,2.83-.92,4.19,0,2.86,1.62,4.5,4.55,4.5Z"/>
    <path class="st4" d="M511.37,673.28l1.18-1.29c-.26-.43-.92-1.02-1.46-1.27l-1.09,1.34v.11c.43.2,1.09.77,1.37,1.11Z"/>
    <path class="st4" d="M522.72,676.94h0s0,0,0,0h4.25c4.23,0,5.63-1.29,5.77-4.17,0-.09-.02-.21-.04-.32h.11c2.01,3.3,3.09,4.48,5.19,4.49,0,0,0,0,.01,0,0,0,0,0,0,0,0,0,0,0,.01,0h0c2.19-.02,2.53-2.27,3.01-3.7l.11.04c-.05.36-.12.86-.07,1.29.21,1.38,2.02,2.38,4.04,2.38,1.08,0,1.94-1.24,1.94-3.26,0-2.32-1.05-4.1-2.66-4.1-1.17,0-2,.92-3.02,3.2l-.35-.29c-.57,1.78-1.32,2.19-2.64,2.19-1.32,0-2.18-.42-3.24-1.6-1.98-2.21-2.87-3.82-7.35-5.84v-.12l8.39-2.47c.17-.6.51-1.41.96-2.17l-.11-.04-8.6,3.15c-.45.17-.52.31-.64.78-.18.57-.64,1.79-.89,2.35,4.41,2.05,5.57,3.42,5.57,4.4,0,.77-1.34,1.56-5.17,1.56h-4.22c-1.95,0-2.67-.71-2.67-2.51,0-2.16.11-4.47.11-6.61,0-1.7-.11-2.64-.11-3.53h-.11c-.36.59-.97,1.44-1.47,1.93.36,1.82.49,2.74.62,9.26.06,2.83.94,3.72,3.24,3.72ZM543.97,671.23c1.64,0,2.78,1.41,2.78,2.7,0,.53-.44.76-1.32.76-1.35,0-3.27-.78-3.8-1.78.51-1.06,1.29-1.67,2.34-1.67Z"/>
    <path class="st4" d="M450.33,686.34c.07-.31.37-1.15.53-1.44-1.05.08-3.13.12-3.57.12-.99,0-1.35-.12-1.35-.47h-.11c-.07.46-.3.91-.3,1.23,0,.53.51.7,1.5.7.57,0,1.95-.04,3.3-.14Z"/>
    <path class="st4" d="M453.96,700.23c-.57,0-1.95.04-3.3.14-.08.31-.37,1.15-.54,1.44,1.05-.09,3.14-.13,3.58-.13.98,0,1.35.12,1.35.48h.11c.07-.46.29-.91.29-1.23,0-.54-.51-.7-1.49-.7Z"/>
    <path class="st4" d="M461.91,687.69c-.25-.43-.92-1.01-1.46-1.26l-1.09,1.34v.11c.42.19,1.09.76,1.36,1.11l1.18-1.3Z"/>
    <path class="st4" d="M461.55,690.41c-.22.6-.66,1.59-.97,1.95.87.75,1.9,2.07,1.9,2.66,0,.55-1.46,1-3.73,1-1.86,0-2.42-.68-2.42-2.16v-.92h-.17c-.35,2.43-.97,3.08-4.2,3.08-1.61,0-2.48-.84-2.48-2.76,0-3.21-.18-4.52-.29-5.52h-.07c-.36.6-.93,1.22-1.32,1.51.06.25.12.59.19.99-3.89,2.39-4.92,3.64-4.92,5.27,0,1.13.71,1.81,2.17,1.81,1.9,0,2.85-.96,3.11-2.91h.11c.11,2.8,1.18,3.88,3.13,3.88,0,0,0,0,0,0,0,0,0,0,0,0,0,0,0,0,0,0h0c2.83,0,4.06-.92,4.22-3.29h.11c-.24,2.57.86,3.29,2.45,3.29,0,0,0,0,0,0,0,0,0,0,0,0s0,0,0,0h0c3.09,0,4.36-1.18,4.36-3.61,0-2.19-.91-3.72-1.1-4.26h-.09ZM445.49,695.13c-1.33,0-1.76-.29-1.76-.85s.88-1.43,4.38-3.27c.11.86.19,1.84.19,2.68s-1.11,1.45-2.8,1.45Z"/>
    <path class="st4" d="M470,695.37c-1.16.71-2.98,1.36-5.66,1.95v.11c1,.38,1.97.86,3,.86,2.18,0,3.99-1.54,4.39-4.61h.09c-.06,3.85.88,4.61,3.12,4.61h0s0,0,0,0h49.02c2.94,0,4.58-.81,7.66-1.49.32-.68,1-1.75,1.32-2.06l-.02-.1c-1.2.44-2.85.69-4.3.69-1.89,0-3.16-.94-3.16-2.07,0-1.22,1.68-2.16,3.26-2.16,1.32,0,2.11.44,2.11,1.1h.11c.45-1.56-.33-2.75-2.05-2.75-1.99,0-3.77,2-3.77,4.5,0,.86.3,1.57.87,1.99-.58.05-1.19.09-1.65.09h-49.02c-1.78,0-2.62-.71-2.62-2.7s.11-4.29.11-6.42c0-1.7-.11-2.61-.11-3.53h-.12c-.34.58-.94,1.36-1.46,1.88.21,1.49.47,4.38.47,7.85,0,.78-.45,1.51-1.49,2.19.09-5.91-4.42-9.01-5.45-10.19h-.11c.06.73-.07,1.91-.23,2.52,3.38,2.38,5.38,5.1,5.68,7.74Z"/>
    <path class="st4" d="M542.58,683.38h-.11c-.29.58-.89,1.36-1.33,1.74.17,1.02.24,2.47.24,3.12,0,1.05-.16,2.01-.51,2.89-1.2-1.6-3.2-3.54-6.26-6.02h-.11c.06.73-.07,1.85-.23,2.38,2.92,1.66,4.88,3.3,6.12,4.64-1.04,1.74-2.94,3.14-5.92,4.3v.11c1.56.81,2.25,1.86,4.31,1.86,2.18,0,3.58-1.2,3.58-3.69,0-.84-.29-1.75-.96-2.81.86-1.43,1.28-3.19,1.28-5.41,0-1.41-.11-2.34-.11-3.1ZM542.12,695.06c0,.59-1.21,1.08-3.47,1.08-.84,0-1.44-.12-2.16-.38,1.92-.81,3.37-1.8,4.38-3.08.88,1.08,1.25,1.92,1.25,2.38Z"/>
    <path class="st4" d="M546.53,683.38c-.36.59-.97,1.44-1.47,1.93.26,1.4.94,10.56.84,13.3h.11c.52-2.2.89-2.66.89-6.63,0-3.21-.26-7.71-.26-8.6h-.11Z"/>
  </g>
  <g>
    <path class="st3" d="M194.86,721.56h220.52v74.32c0,8.26-6.71,14.97-14.97,14.97h-205.55c-8.26,0-14.97-6.71-14.97-14.97v-59.35c0-8.26,6.71-14.97,14.97-14.97Z"/>
    <g>
      <path class="st4" d="M278.3,754.29c1.89,0,3.11-.98,3.44-2.47.38-1.01.55-2.31.55-4.77,0-2.15-.11-5.31-.11-5.96h-.07c-.2.34-.55.82-.83,1.1.14.86.55,6.53.58,8.52,0,1.34-1.56,2.3-3.42,2.3-1.72,0-2.76-.86-2.76-2.37,0-.61.15-1.41.4-2.03h-.1c-.41.91-.58,1.82-.58,2.7,0,1.89,1.07,2.98,2.91,2.98Z"/>
      <path class="st4" d="M294.45,751.78h0s0,0,0,0h2.54s0,0,0,0h2.54s0,0,0,0c1.14,0,1.85-.58,2.07-1.67h.07c.07,1.06,1.13,1.67,2.94,1.67,2.33,0,3.75-1.16,3.75-2.98,0-1.21-.66-2.01-1.75-2.01-1.2,0-2.4,1.03-3.79,3.36-.56-.28-.84-.74-.91-1.4h-.1c-.19,1.24-.8,1.75-2.08,1.75,0,0,0,0,0,0h0s-2.54,0-2.54,0c0,0,0,0,0,0h0s-2.54,0-2.54,0c0,0,0,0,0,0h0s-2.54,0-2.54,0c0,0,0,0,0,0h0s-.78,0-.78,0h-2.54s0,0,0,0h0s-.82,0-.82,0c-.07-2.14-.87-3.27-2.09-3.27-1.12,0-1.96,1.24-1.96,2.76,0,1.13.55,1.79,1.75,1.79.76,0,1.36-.03,2.03-.09-.52,1.3-2.84,2.51-4.91,2.63v.07c.52.15,1.17.55,1.83.55,1.5,0,2.91-1.22,3.27-3.17h.68s0,0,0,0h3.32s0,0,0,0h2.54ZM306.37,747.81c1.13,0,1.8.8,1.8,1.5s-1.29,1.19-3.33,1.19c-.82,0-1.45-.1-1.91-.31.9-1.39,2.31-2.39,3.44-2.39ZM285.75,750.58c-1.24,0-1.63-.51-1.63-1.02,0-.73.75-1.38,1.6-1.38,1.12,0,1.9.87,2.06,2.37-.74.03-1.45.03-2.03.03Z"/>
      <path class="st4" d="M313.95,751.78h.68s0,0,0,0h2.54s0,0,0,0h2.54s.01,0,.02,0c1.28,0,1.98-.55,2-2.11h.07c-.06,1.53.71,2.11,2.02,2.11h0s.02,0,.03,0c.77,0,1.24-.1,1.5-.44.57-.68.84-1.93.84-2.88,0-2.28-.19-5.99-.19-6.64h-.07c-.2.34-.55.82-.84,1.11.16.81.7,5.54.7,6.89,0,.39-.51.68-1.75.68,0,0,0,0,0,0h0c-1.35,0-1.82-.47-1.82-1.75,0-1.49.07-3.08.07-4.61,0-1.09-.07-1.75-.07-2.33h-.07c-.2.32-.55.88-.85,1.16.22,1.25.29,1.83.37,6.08,0,1.03-.61,1.44-1.75,1.44,0,0,0,0,0,0h0s-2.54,0-2.54,0c0,0,0,0,0,0h0s-2.54,0-2.54,0c0,0,0,0,0,0h0s-.82,0-.82,0c-.07-2.14-.87-3.27-2.09-3.27-1.12,0-1.96,1.24-1.96,2.76,0,1.13.55,1.79,1.75,1.79.76,0,1.36-.03,2.03-.09-.52,1.3-2.84,2.51-4.91,2.63v.07c.52.15,1.17.55,1.83.55,1.51,0,2.92-1.22,3.27-3.17ZM311.8,750.58c-1.24,0-1.63-.51-1.63-1.02,0-.73.75-1.38,1.6-1.38,1.12,0,1.9.87,2.06,2.37-.74.03-1.45.03-2.03.03Z"/>
      <path class="st4" d="M331.79,751.85c1.85,0,2.79-.8,2.79-2.47,0-2.18-1.99-3.6-2.29-3.97h-.07c-.04.23-.25.8-.36,1.09,1.41,1.02,2.55,2.4,2.55,3.09,0,.47-.86.98-2.55.98-1.21,0-1.56-.4-1.5-1.37h-.11c-.07.4-.11.79-.11,1.13,0,.94.48,1.52,1.64,1.52Z"/>
      <path class="st4" d="M340.16,751.78h.68s0,0,0,0h3.32s0,0,0,0h2.54s0,0,0,0h2.54s0,0,0,0h2.54s0,0,0,0h.29c2.88,0,3.86-.82,3.93-2.69,0-.08-.02-.19-.03-.28h.07c1.31,2.2,2.08,2.97,3.5,2.97h0s0,0,.02,0c.77,0,1.24-.1,1.5-.44.57-.68.84-1.93.84-2.88,0-2.28-.19-5.99-.19-6.64h-.07c-.2.34-.55.82-.84,1.11.16.81.7,5.54.7,6.89,0,.39-.51.68-1.75.68,0,0,0,0,0,0h0c-.89,0-1.48-.26-2.18-1.05-1.35-1.5-1.79-2.58-4.98-4.11v-.07l5.74-1.82c.1-.34.29-.8.55-1.24l-.07-.03-5.82,2.18c-.28.1-.34.19-.41.46-.1.34-.37,1.02-.51,1.36,2.88,1.37,3.78,2.37,3.78,3.14,0,.64-.97,1.18-3.56,1.18h-.29s0,0,0,0h0s-2.54,0-2.54,0c0,0,0,0,0,0h0s-2.54,0-2.54,0c0,0,0,0,0,0h0s-2.54,0-2.54,0c0,0,0,0,0,0h0s-.78,0-.78,0h-2.54s0,0,0,0h0s-.82,0-.82,0c-.07-2.14-.87-3.27-2.09-3.27-1.12,0-1.96,1.24-1.96,2.76,0,1.13.55,1.79,1.75,1.79.76,0,1.36-.03,2.03-.09-.52,1.3-2.84,2.51-4.91,2.63v.07c.52.15,1.17.55,1.83.55,1.51,0,2.92-1.22,3.27-3.17ZM338.01,750.58c-1.24,0-1.63-.51-1.63-1.02,0-.73.75-1.38,1.6-1.38,1.12,0,1.9.87,2.06,2.37-.74.03-1.45.03-2.03.03Z"/>
      <path class="st4" d="M363.98,752h.07c.29-1.42.51-1.86.51-4.22,0-2.18-.19-5.38-.19-5.96h-.07c-.19.34-.55.83-.83,1.11.16.91.58,7.21.51,9.07Z"/>
      <path class="st4" d="M368.61,752.92c0,1.77,1.34,2.94,3.35,2.94,1.89,0,2.86-.83,3.66-1.33v-.07c-.8.17-2.06.28-3,.28-2.25,0-3.83-.99-3.83-2.33,0-1.19,1.7-2.51,5.12-3.36-.02.22-.03.44-.03.63,0,1.63.62,2.11,2.18,2.11h.19s0,0,0,0h3.32s0,0,0,0c1.08,0,1.71-.45,1.96-1.38h.07c-.03.9.44,1.38,1.21,1.38.83,0,1.46-.45,1.67-1.38h.07c-.04.87.44,1.38,1.16,1.38.8,0,1.27-.48,1.41-1.45h.06c-.07.9.41,1.45,1.43,1.45h0s0,0,0,0c1.41,0,1.71-1.31,2.04-2.36l.08.03c-.03.23-.06.54-.02.8.19.88,1.36,1.53,2.66,1.53.75,0,1.31-.77,1.31-2.03,0-1.57-.73-2.73-1.79-2.73-.8,0-1.38.65-2.04,2.15l-.22-.19c-.37,1.21-.9,1.53-1.82,1.53,0,0,0,0,0,0h0c-1.12,0-1.54-.47-1.55-1.14l-.02-1.14c-.1.09-.26.18-.38.22.09.35.2.96.2,1.25-.11.44-.58.8-1.28.8-.5,0-.91-.19-1.14-.56.07-.42.16-1.05.17-1.19h-.12c-.17,1.28-.65,1.75-1.75,1.75-.54,0-.98-.17-1.22-.51.07-.42.16-1.09.18-1.24h-.12c-.22,1.31-.76,1.75-2.03,1.75,0,0,0,0,0,0h0s-.78,0-.78,0h-2.54s0,0,0,0h0s-.19,0-.19,0c-1.69,0-2.25-.28-2.27-1.49.32-.08.67-.16,1.02-.23.16-.37.48-.82.68-1.01v-.07c-2.15-.11-3.9-1.35-5.17-1.35-.73,0-1.16.41-1.6,1.92h.07c.29-.61.7-.93,1.31-.93,1.06,0,2.37.8,3.75.97v.07c-3.85.95-5.45,2.37-5.45,4.52ZM392.67,747.96c1.08,0,1.84.95,1.84,1.94,0,.44-.32.61-.94.61-.98,0-2.22-.58-2.54-1.27.36-.8.91-1.28,1.64-1.28Z"/>
      <path class="st4" d="M396.6,754.49c-.61,0-.98-.29-.98-.58,0-.32.4-.77,1.02-.77.37,0,.58.14.59.51h.08c.01-.07.04-.17.04-.31,0-.41-.28-.71-.68-.71-.65,0-1.19.77-1.19,1.53,0,.44.3.74.87.82-.44.23-.78.57-.94,1h.07c.37-.4,1.13-.83,2.22-1.05.04-.19.13-.42.23-.57v-.07c-.23.1-.89.2-1.34.2Z"/>
      <path class="st4" d="M396.58,752h.07c.29-1.42.51-1.86.51-4.22,0-2.18-.19-5.38-.19-5.96h-.07c-.19.34-.55.83-.83,1.11.16.91.58,7.21.51,9.07Z"/>
      <path class="st4" d="M277.31,760.85h-.07c-.04.26-.17.53-.17.71,0,.34.34.44,1,.44.37,0,1.26-.03,2.14-.09.04-.19.22-.67.32-.84-.65.05-2.02.08-2.31.08-.67,0-.9-.08-.9-.31Z"/>
      <path class="st4" d="M276.83,769.13c1.28,0,1.93-.62,2.12-1.82h.07c.07,1.75.8,2.47,2.11,2.47h0s0,0,0,0h3.31s0,0,0,0c1.82,0,2.61-.58,2.75-2.11h.07c-.14,1.63.52,2.11,1.61,2.11h0s0,0,0,0c1.96,0,2.83-.73,2.83-2.22s-.61-2.44-.73-2.79h-.06c-.13.35-.38.91-.55,1.12.54.51,1.18,1.43,1.18,1.89,0,.41-.86.73-2.46.73,0,0,0,0,0,0h0c-1.24,0-1.59-.44-1.59-1.53v-.58h-.1c-.22,1.64-.65,2.11-2.73,2.11,0,0,0,0,0,0h0s-.77,0-.77,0h-2.54s0,0,0,0h0c-1.13,0-1.75-.58-1.75-1.92,0-2.04-.11-2.94-.2-3.68h-.04c-.2.34-.54.7-.76.88.04.17.08.41.13.69-2.62,1.6-3.34,2.43-3.34,3.5,0,.73.47,1.16,1.44,1.16ZM278.79,764.94c.07.58.12,1.26.12,1.9,0,.58-.73,1.06-1.94,1.06-.9,0-1.22-.22-1.22-.62,0-.43.63-1.03,3.03-2.33Z"/>
      <path class="st4" d="M283.75,771.25c-.04.19-.22.67-.32.84.65-.05,2.02-.08,2.32-.08.67,0,.9.08.9.31h.07c.04-.26.17-.53.17-.71,0-.34-.33-.44-1-.44-.37,0-1.27.03-2.14.09Z"/>
      <path class="st4" d="M291.13,762.88c-.16-.26-.56-.62-.9-.77l-.67.82v.07c.26.12.67.47.84.68l.73-.8Z"/>
      <path class="st4" d="M303.16,767.99c-1.31,0-2.15-.65-2.15-1.46,0-.87,1.12-1.55,2.18-1.55.9,0,1.42.32,1.42.8h.07c.26-.99-.25-1.75-1.39-1.75-1.31,0-2.5,1.27-2.5,2.91,0,.65.25,1.18.71,1.48-.43.05-.89.08-1.26.08-.05,0-.09.02-.13.03v-.03c-1.23,0-1.81-.47-1.81-1.92,0-1.31.07-2.91.07-4.44,0-1.09-.07-1.71-.07-2.33h-.08c-.19.32-.53.79-.83,1.08.14,1.06.28,2.75.28,5.46,0,.55-.32,1.07-1,1.54.04-4-3.03-6.12-3.69-6.89h-.07c.03.42-.04,1.09-.13,1.44,2.29,1.66,3.68,3.62,3.83,5.5-.78.51-2.01.94-3.75,1.24v.07c.58.22,1.21.51,1.82.51,1.47,0,2.76-1.02,3.07-2.98h.06c-.03,2.47.62,2.98,2.1,2.98v-.03s.08.03.13.03c1.96,0,3.09-.54,5.21-1,.19-.4.58-1.01.76-1.19l-.02-.06c-.79.29-1.9.47-2.82.47Z"/>
      <path class="st4" d="M311.13,765.73c-.71,1.17-1.98,2.12-3.96,2.89v.07c1.01.51,1.49,1.16,2.82,1.16,1.47,0,2.39-.77,2.39-2.33,0-.58-.2-1.2-.66-1.92.6-.98.88-2.17.88-3.68,0-.95-.07-1.57-.07-2.11h-.07c-.16.32-.51.79-.76,1.01.1.73.14,1.7.14,2.13,0,.81-.13,1.54-.42,2.21-.82-1.13-2.2-2.46-4.26-4.16h-.07c.03.42-.04,1.06-.13,1.37,2,1.22,3.35,2.38,4.18,3.35ZM312.22,767.75c0,.46-.8.83-2.3.83-.62,0-1.05-.11-1.61-.33,1.37-.58,2.39-1.28,3.09-2.18.57.73.82,1.32.82,1.68Z"/>
      <path class="st4" d="M315.19,759.82c-.19.34-.55.83-.83,1.11.16.91.58,7.21.51,9.07h.07c.29-1.42.51-1.86.51-4.22,0-2.18-.19-5.38-.19-5.96h-.07Z"/>
      <path class="st4" d="M321.41,760.85h-.07c-.04.26-.17.53-.17.71,0,.34.34.44,1,.44.37,0,1.27-.03,2.14-.09.04-.19.22-.67.32-.84-.65.05-2.02.08-2.31.08-.67,0-.9-.08-.9-.31Z"/>
      <path class="st4" d="M332.96,766.03c-2.15-.1-3.9-1.34-5.17-1.34-.73,0-1.16.39-1.6,1.9h.07c.29-.59.7-.93,1.31-.93,1.09,0,2.22.77,4.19,1.09v.07c-1.39.36-2.47,1.67-6.3,1.67,0,0,0,0,0,0h0c-1.13,0-1.74-.58-1.74-1.92,0-2.04-.11-2.94-.2-3.68h-.04c-.2.34-.54.7-.76.88.04.17.08.41.13.69-2.62,1.6-3.34,2.43-3.34,3.5,0,.73.47,1.16,1.44,1.16,1.28,0,1.93-.62,2.12-1.82h.07c.07,1.75.8,2.47,2.11,2.47h0s0,0,0,0c4.22,0,5.13-2.82,7.12-2.85.13-.26.43-.67.59-.83v-.07ZM321.08,767.89c-.9,0-1.22-.22-1.22-.62,0-.43.63-1.03,3.03-2.33.07.58.12,1.26.12,1.9,0,.58-.73,1.06-1.94,1.06Z"/>
      <path class="st4" d="M358.44,769.34c.57-.68.84-1.93.84-2.88,0-2.28-.19-5.99-.19-6.64h-.07c-.2.34-.55.82-.84,1.11.16.81.7,5.54.7,6.89,0,.39-.51.68-1.75.68,0,0,0,0,0,0h0c-.94,0-1.44-.38-1.89-1.56-.55-1.31-1.09-1.74-1.82-1.74-.84,0-1.43.65-2.08,2.14l-.22-.17c-.37,1.01-.9,1.34-1.82,1.34,0,0,0,0,0,0h0c-1.12,0-1.54-.47-1.55-1.14l-.02-1.14c-.1.09-.26.18-.38.22.09.35.2.96.2,1.25-.11.44-.58.8-1.28.8-.5,0-.91-.19-1.14-.56.07-.42.16-1.05.17-1.19h-.12c-.17,1.28-.65,1.75-1.75,1.75-.54,0-.98-.17-1.22-.51.07-.42.16-1.09.18-1.24h-.12c-.22,1.31-.76,1.75-2.03,1.75,0,0,0,0,0,0h0s-.77,0-.77,0h-2.54s0,0,0,0h0c-1.34,0-1.82-.47-1.82-1.75,0-1.49.07-3.08.07-4.61,0-1.09-.07-1.75-.07-2.33h-.07c-.19.34-.55.83-.83,1.11.22,1.25.29,1.83.37,6.45.03,1.82.61,2.4,2.13,2.4h0s0,0,0,0h3.31s0,0,0,0c1.08,0,1.71-.45,1.96-1.38h.07c-.03.9.44,1.38,1.21,1.38.83,0,1.46-.45,1.67-1.38h.07c-.04.87.44,1.38,1.16,1.38.8,0,1.27-.48,1.41-1.45h.06c-.07.9.41,1.45,1.43,1.45h0s0,0,0,0c1.38,0,1.71-1.24,2.04-2.17l.08.03c-.03.23-.06.52-.02.79.19.87,1.36,1.57,2.66,1.57.77,0,1.24-.62,1.26-1.89h.07c.19,1.12.8,1.67,1.71,1.67h0s.02,0,.03,0c.77,0,1.24-.1,1.5-.44ZM354.03,768.72c-.98,0-2.22-.61-2.54-1.31.36-.8.91-1.26,1.64-1.26,1.08,0,1.84.95,1.84,1.92,0,.44-.32.65-.94.65Z"/>
      <path class="st4" d="M361.4,770c.29-1.42.51-1.86.51-4.22,0-2.18-.19-5.38-.19-5.96h-.07c-.19.34-.55.83-.83,1.11.16.91.58,7.21.51,9.07h.07Z"/>
      <path class="st4" d="M366.71,765.82c.46.55,1.12,1.34,1.53,1.92-1.56,1.23-2.1,2.22-2.1,3.39,0,1.75,1.21,2.72,3.09,2.72,1.75,0,2.69-.83,3.49-1.33v-.07c-.82.17-2.03.28-2.91.28-2.22,0-3.48-.84-3.48-2.08,0-.58.55-1.34,2.4-2.39.83,1.27,1.7,1.52,3.59,1.52h.34s0,0,0,0h3.31s0,0,0,0h.29c3.2,0,4.48-.92,4.48-3.09,0-2.49-.8-3.71-2.08-3.71-1.16,0-1.92,1.21-1.92,2.66,0,.95.51,1.55,1.63,1.55,1.06,0,1.86-.53,2.06-1.41h.03s0-.1,0-.1c.1.38.14.82.12,1.29,0,.85-1.15,1.53-4.1,1.53h-.29s0,0,0,0h0s-.77,0-.77,0h-2.54s0,0,0,0h0s-.36,0-.36,0c-1.61,0-2.32-.09-2.92-.57.89-.77,1.54-1.41,2.06-2.05.11-.36.29-.73.38-.87-.9-.4-1.78-.58-2.69-.58s-2.21.31-3,.68c-.06.25-.28.75-.37.92l.07.07c.21-.1.44-.2.68-.28ZM378.51,766.15c-1.24,0-1.6-.55-1.6-.95,0-.65.73-1.31,1.57-1.31.93,0,1.66.62,1.96,1.71-.47.33-1.16.54-1.92.54ZM369.22,765.37c.85,0,1.63.15,2.33.44-.87.75-1.68,1.34-2.55,1.83-.65-.61-1.6-1.4-2.15-1.87.76-.25,1.62-.4,2.38-.4Z"/>
      <path class="st4" d="M377.04,760.2h-.07c-.04.26-.17.53-.17.71,0,.34.34.44,1,.44.37,0,1.26-.03,2.14-.09.04-.19.22-.67.32-.84-.65.05-2.02.08-2.31.08-.67,0-.9-.08-.9-.31Z"/>
      <path class="st4" d="M396.32,769.34c.57-.68.84-1.93.84-2.88,0-2.28-.19-5.99-.19-6.64h-.07c-.2.34-.55.82-.84,1.11.16.81.7,5.54.7,6.89,0,.39-.51.68-1.75.68,0,0,0,0,0,0h0c-.94,0-1.44-.38-1.89-1.56-.55-1.31-1.09-1.74-1.82-1.74-.84,0-1.43.65-2.08,2.14l-.22-.17c-.37,1.01-.9,1.34-1.82,1.34,0,0,0,0,0,0h0s-.82,0-.82,0c-.07-2.14-.87-3.27-2.09-3.27-1.12,0-1.96,1.24-1.96,2.76,0,1.13.55,1.79,1.75,1.79.76,0,1.36-.03,2.03-.09-.52,1.3-2.84,2.51-4.91,2.63v.07c.52.15,1.17.55,1.83.55,1.51,0,2.92-1.22,3.27-3.17h.68s0,0,0,0c1.38,0,1.71-1.24,2.04-2.17l.08.03c-.03.23-.06.52-.02.79.19.87,1.36,1.57,2.66,1.57.77,0,1.24-.62,1.26-1.89h.07c.19,1.12.8,1.67,1.71,1.67h0s.02,0,.03,0c.77,0,1.24-.1,1.5-.44ZM384.13,768.58c-1.24,0-1.63-.51-1.63-1.02,0-.73.75-1.38,1.6-1.38,1.12,0,1.9.87,2.06,2.37-.74.03-1.45.03-2.03.03ZM391.91,768.72c-.98,0-2.22-.61-2.54-1.31.36-.8.91-1.26,1.64-1.26,1.08,0,1.84.95,1.84,1.92,0,.44-.32.65-.94.65Z"/>
      <path class="st4" d="M282.68,788.7c-.7,0-1.31-.25-1.88-1.07,1.56-.6,2.57-2.13,2.57-4.18,0-2.55-1.71-4.45-4.08-4.45s-4.15,1.78-4.15,4.43,1.68,4.49,4.08,4.49c.49,0,.94-.07,1.36-.2.65,1.26,1.36,1.72,2.21,1.72.24,0,.35-.07.45-.22l.52-.77c.07-.11,0-.17-.07-.1-.21.24-.41.36-1.01.36ZM279.84,785.48c-.02-.1-.14-.07-.11.04.25.84.51,1.52.77,2.06-.28.11-.59.17-.93.17-1.86,0-3.27-2.19-3.27-5.12,0-2.02.92-3.46,2.64-3.46,1.83,0,3.25,2.2,3.25,5.07,0,1.56-.5,2.75-1.49,3.25-.31-.48-.59-1.13-.86-2.01Z"/>
      <path class="st4" d="M290.96,787.22l-1.77-2.84c1.02-.3,1.81-1.05,1.81-2.3,0-1.78-1.4-2.96-3.85-2.96h-2.66s-.07.01-.07.05.02.05.07.06l.6.08c.14.02.21.07.21.17v7.87c0,.13-.06.19-.21.21l-.6.09s-.07.02-.07.05.03.06.07.06h2.72s.08-.02.08-.06-.02-.04-.08-.05l-.59-.09c-.14-.03-.21-.08-.21-.21v-3.17c.44.23,1.03.34,1.71.34h.03l1.64,2.69c.13.23.11.35-.07.4l-.34.04s-.07.02-.07.05c0,.04.02.06.07.06h2.31s.07-.03.07-.06c0-.04-.02-.04-.07-.05-.33-.05-.55-.12-.75-.44ZM287.86,784.38c-.49,0-1.02-.09-1.45-.32v-4.79h.74c1.74,0,2.72,1.37,2.72,2.83,0,1.28-.64,2.28-2.01,2.28Z"/>
      <polygon class="st4" points="292.39 785.53 297.26 785.53 297.33 785.11 292.46 785.19 292.39 785.53"/>
      <path class="st4" d="M303,779.12c1.21,0,2.13.64,2.74,2.18.04.07.08.1.14.09.07-.01.07-.07.05-.12l-.67-2.22c-.02-.06-.04-.08-.08-.08-.04,0-.17.23-.29.42-.08.1-.13.14-.16.14-.05,0-.23-.13-.56-.26-.37-.23-.88-.31-1.36-.31-2.32,0-3.96,1.9-3.96,4.59,0,2.45,1.39,4.43,3.93,4.43,1.75,0,2.96-1.09,3.14-2.5,0-.03,0-.06-.04-.06-.02,0-.04,0-.06.05-.32,1.24-1.21,2-2.51,2-2.15,0-3.29-1.82-3.29-4.37s1.25-3.99,2.97-3.99Z"/>
      <path class="st4" d="M311.12,779c-2.4,0-4.13,1.78-4.13,4.43s1.68,4.49,4.05,4.49,4.11-1.78,4.11-4.46c0-2.41-1.55-4.45-4.04-4.45ZM311.4,787.73c-1.84,0-3.26-2.19-3.26-5.1,0-2.01.93-3.45,2.64-3.45,1.83,0,3.23,2.18,3.23,5.06,0,2.06-.89,3.49-2.61,3.49Z"/>
      <path class="st4" d="M318.91,779.13h-2.64s-.07.01-.07.05c0,.03.01.05.06.06l.62.08c.14.03.19.07.19.19v7.89c0,.1-.05.15-.19.17l-.62.09s-.07.02-.07.05c0,.03.03.06.07.06h3.42c2.46,0,4.22-1.49,4.22-3.97,0-2.82-1.99-4.68-4.99-4.68ZM319.67,787.64h-1.24c-.16,0-.24-.09-.24-.24v-8.14h.72c2.44,0,3.81,1.66,3.81,4.41,0,2.42-1.08,3.97-3.05,3.97Z"/>
      <path class="st4" d="M331.03,785.43c-.37.9-.63,1.42-.91,1.67-.26.29-.58.54-1.04.54h-1.88c-.21,0-.32-.1-.32-.28v-3.9h1.91c.61,0,.85.17,1.29.89.04.03.07.04.09.04.03-.02.05-.05.03-.1l-.57-1.89c-.02-.06-.04-.09-.07-.08-.03,0-.04.02-.05.07-.02.65-.23.94-.85.94h-1.78v-4.05h2.15c.64,0,1.1.35,1.83,1.75.04.05.06.05.09.05.04,0,.05-.03.02-.09l-.5-1.9c-.03-.12-.05-.14-.09-.14-.06,0-.25.2-.52.2h-4.9s-.07.01-.07.05.02.06.07.06l.6.08c.14.02.21.07.21.17v7.9c0,.1-.07.15-.21.17l-.6.09s-.07.02-.07.05.03.06.07.06h4.84c.43,0,.58.2.68.2.04,0,.06-.04.09-.15l.59-2.35c.02-.06,0-.1-.04-.11-.04-.01-.06.02-.1.06Z"/>
      <path class="st4" d="M350.69,785.99c-1.31,0-2.15-.65-2.15-1.46,0-.87,1.12-1.55,2.18-1.55.9,0,1.42.32,1.42.8h.07c.26-.99-.25-1.75-1.39-1.75-1.31,0-2.5,1.27-2.5,2.91,0,.65.25,1.18.71,1.48-.43.05-.89.08-1.26.08,0,0,0,0,0,0h0c-1.35,0-1.82-.47-1.82-1.75,0-1.49.07-3.08.07-4.61,0-1.09-.07-1.75-.07-2.33h-.07c-.2.32-.55.88-.85,1.16.22,1.25.29,1.83.37,6.08,0,1.03-.61,1.44-1.75,1.44,0,0,0,0,0,0h0s-.22,0-.22,0h-2.54s0,0,0,0h0c-2.48,0-3.71-.02-4.58-.18-.16.4-.41.77-.61,1.04v.07c1.34.41,3.9.34,3.9,1.06,0,.55-1.18,1.53-3.75,1.53-1.86,0-2.91-.88-2.91-2.37,0-.61.15-1.42.37-1.97h-.11c-.37.85-.54,1.75-.54,2.63,0,1.89,1.09,2.98,3.05,2.98,2.62,0,4.07-1.21,4.07-2.98,0-.22-.07-.41-.24-.57.47.02.94.02,1.14.02h0s0,0,.01,0h2.76s.01,0,.02,0c1.28,0,1.98-.55,2-2.11h.07c-.06,1.53.71,2.11,2.02,2.11h0s0,0,0,0c1.96,0,3.09-.54,5.21-1,.19-.4.58-1.01.76-1.19l-.02-.06c-.79.29-1.9.47-2.82.47Z"/>
      <path class="st4" d="M371.05,780.12v.07c.26.12.67.47.84.68l.73-.8c-.16-.26-.56-.62-.9-.77l-.67.82Z"/>
      <path class="st4" d="M381.96,781.46l.73-.8c-.16-.26-.56-.62-.9-.77l-.67.82v.07c.26.12.67.47.84.68Z"/>
      <path class="st4" d="M382.22,782.79c-1.2,0-2.4,1.03-3.79,3.36-.56-.28-.84-.74-.91-1.4h-.1c-.19,1.24-.8,1.75-2.08,1.75,0,0,0,0,0,0h0s-.37,0-.37,0c-1.33,0-2.07-.08-2.58-.41.86-.77,1.5-1.4,2.01-2.02.13-.37.29-.73.4-.88-.9-.41-1.79-.58-2.69-.58s-2.22.29-3,.68c-.07.25-.29.74-.38.92l.07.07c.21-.1.44-.2.68-.29.49.58,1.25,1.51,1.69,2.12-.72.27-1.55.38-2.81.38,0,0,0,0,0,0h0s-.22,0-.22,0h-2.54s0,0,0,0h0s-.1,0-.1,0c-.66,0-1.12-.11-1.37-.29.23-.41.35-.88.35-1.42,0-1.21-.65-2.01-1.75-2.01-1.15,0-2.19.88-3.53,2.98h-.07c1.09-1.8,1.31-2.57,1.31-3.85,0-1.02-.13-3.54-.13-4.1h-.07c-.2.34-.55.82-.83,1.11.1.58.31,3.14.31,4.04,0,1.46-.31,2.25-1.04,3.43-.45-.05-.88-.12-1.32-.22v.07c.8.83,1.09,1.53,3.37,1.53,1.54,0,2.68-.5,3.28-1.37.05.95.52,1.37,1.37,1.37h0s0,0,.01,0h2.76s0,0,0,0c1.46,0,2.33-.25,3.56-1.12.64.89,1.55,1.12,3.09,1.12h.32s0,0,0,0c1.14,0,1.85-.58,2.07-1.67h.07c.07,1.06,1.13,1.67,2.94,1.67,2.33,0,3.75-1.16,3.75-2.98,0-1.21-.66-2.01-1.75-2.01ZM360.94,786.5c-.79,0-1.45-.02-2.05-.08.99-1.58,2.42-2.61,3.57-2.61s1.8.8,1.8,1.5-1.29,1.19-3.33,1.19ZM371.77,785.84c-.65-.61-1.58-1.39-2.15-1.88.76-.25,1.63-.4,2.38-.4.85,0,1.63.14,2.33.42-.87.75-1.69,1.36-2.55,1.85ZM380.43,786.5c-.82,0-1.45-.1-1.91-.31.9-1.39,2.31-2.39,3.44-2.39s1.8.8,1.8,1.5-1.29,1.19-3.33,1.19Z"/>
      <path class="st4" d="M386.05,777.82c-.19.34-.55.83-.83,1.11.16.91.58,7.21.51,9.07h.07c.29-1.42.51-1.86.51-4.22,0-2.18-.19-5.38-.19-5.96h-.07Z"/>
      <path class="st4" d="M392.59,783.23c-1.12,0-1.96,1.24-1.96,2.76,0,1.13.55,1.79,1.75,1.79,1.06,0,1.86-.55,2.06-1.43h.01c.04.25.06.53.06.82,0,1.48-2.67,3.01-5.01,3.15v.07c.52.15,1.17.55,1.83.55,1.75,0,3.36-1.64,3.36-4.16,0-2.33-.82-3.56-2.1-3.56ZM392.45,786.58c-1.24,0-1.63-.51-1.63-1.02,0-.73.75-1.38,1.6-1.38.99,0,1.71.68,1.98,1.88-.61.35-1.25.52-1.95.52Z"/>
      <path class="st4" d="M395.6,776.33c0-.31.41-.75,1.03-.75.37,0,.57.14.6.49h.07c.01-.07.03-.16.03-.29,0-.43-.28-.71-.68-.71-.64,0-1.19.75-1.19,1.52,0,.43.3.73.86.82-.43.23-.77.58-.93,1h.07c.37-.41,1.15-.84,2.23-1.06.04-.17.14-.42.23-.56v-.07c-.23.1-.89.2-1.33.2-.62,0-.99-.29-.99-.58Z"/>
      <path class="st4" d="M396.91,778.58c-.2.34-.53.82-.83,1.11.17.91.57,6.45.5,8.31h.07c.29-1.42.51-1.86.51-4.22,0-2.18-.17-4.62-.17-5.21h-.08Z"/>
    </g>
  </g>
  <g>
    <path class="st4" d="M464.99,209.08c.51,0,1.76-.04,2.98-.13.06-.28.33-1.04.48-1.3-.95.07-2.83.11-3.23.11-.89,0-1.22-.1-1.22-.43h-.1c-.06.42-.27.82-.27,1.11,0,.48.46.64,1.35.64Z"/>
    <path class="st4" d="M466.19,216.24h.1c.1,2.53,1.07,3.51,2.83,3.51h0s0,0,0,0c5.73,0,6.79-3.81,9.58-3.87.2-.41.68-1.06.92-1.29v-.1c-2.89-.13-5.35-1.83-7.07-1.83-.97,0-1.58.51-2.2,2.72h.1c.39-.76.95-1.17,1.76-1.17,1.41,0,2.94.99,5.57,1.44v.1c-1.76.48-3.1,1.97-8.33,1.97,0,0,0,0,0,0h0c-1.46,0-2.24-.76-2.24-2.49,0-2.9-.16-4.09-.27-4.99h-.06c-.32.54-.84,1.1-1.19,1.37.06.23.11.53.17.89-3.51,2.16-4.45,3.29-4.45,4.76,0,1.02.64,1.63,1.96,1.63,1.72,0,2.57-.87,2.81-2.63ZM462,216.12c0-.51.8-1.3,3.96-2.96.1.78.17,1.66.17,2.42s-1.01,1.31-2.53,1.31c-1.2,0-1.59-.27-1.59-.77Z"/>
    <path class="st4" d="M484.5,219.75h0s0,0,0,0h3.41s0,0,0,0h3.41s0,0,0,0c1.48,0,2.36-.65,2.68-2.02h.1c-.1,1.34.54,2.02,1.6,2.02,1.13,0,2-.65,2.27-2.02h.1c-.09,1.31.54,2.02,1.54,2.02,1.09,0,1.71-.68,1.91-2.09h.09c-.12,1.34.57,2.09,1.98,2.09h0s0,0,0,0c1.95,0,2.31-1.92,2.74-3.1l.1.03c-.05.32-.1.76-.06,1.15.19,1.25,1.83,2.21,3.65,2.21,1,0,1.63-.87,1.69-2.68h.1c.21,1.62,1.05,2.39,2.28,2.39h0s.03,0,.05,0c1,0,1.6-.14,1.97-.64.84-1.08,1.26-3.02,1.26-4.38,0-3-.24-7.58-.24-8.46h-.1c-.33.53-.88,1.28-1.34,1.75.23,1.17,1.02,7.17,1.02,8.89,0,.46-.71.8-2.29.8,0,0,0,0,0,0h0c-1.24,0-1.91-.52-2.53-2.03-.8-1.8-1.51-2.34-2.46-2.34-1.12,0-1.87.83-2.8,2.88l-.31-.25c-.51,1.37-1.2,1.74-2.39,1.74,0,0,0,0,0,0h0c-1.59,0-2.16-.64-2.16-1.5l-.02-1.49c-.15.13-.38.26-.55.32.11.43.27,1.25.27,1.66-.16.54-.78,1.01-1.7,1.01-.67,0-1.19-.23-1.5-.66.1-.58.22-1.43.23-1.61h-.17c-.25,1.68-.88,2.27-2.34,2.27-.72,0-1.3-.21-1.63-.59.1-.57.23-1.49.24-1.67h-.17c-.31,1.73-1.05,2.27-2.75,2.27,0,0,0,0,0,0h0s-3.41,0-3.41,0h-3.41s0,0,0,0h0c-1.76,0-2.41-.64-2.41-2.27,0-1.95.1-4.05.1-5.98,0-1.54-.1-2.39-.1-3.19h-.1c-.32.53-.88,1.3-1.33,1.75.32,1.65.44,2.48.56,8.37.06,2.56.85,3.36,2.93,3.36ZM508.97,214.83c1.48,0,2.51,1.27,2.51,2.41,0,.49-.39.76-1.19.76-1.22,0-2.95-.76-3.43-1.68.46-.95,1.17-1.49,2.12-1.49Z"/>
    <path class="st4" d="M519.9,220.04h.1c.47-1.99.8-2.41.8-5.99,0-2.9-.23-6.97-.23-7.78h-.1c-.32.53-.88,1.3-1.33,1.75.23,1.26.85,9.55.76,12.02Z"/>
    <path class="st4" d="M528.03,219.85c2.05,0,3.11-1.19,3.11-3.51,0-3-2.85-3.98-3.64-4.65h-.07c-.1.41-.43,1.33-.63,1.73l.52.24c-1.01,1.71-1.51,3-1.51,4.17,0,1.26.8,2.01,2.21,2.01ZM527.52,213.76c2.25,1.1,3.39,2.16,3.39,2.9,0,.54-.99,1.15-2.61,1.15-1.28,0-1.94-.51-1.94-1.15,0-.69.37-1.53,1.15-2.9Z"/>
    <path class="st4" d="M527.37,210.45c.51,0,1.76-.04,2.98-.13.06-.28.33-1.04.48-1.3-.95.07-2.83.11-3.23.11-.89,0-1.22-.1-1.22-.43h-.1c-.06.42-.27.82-.27,1.11,0,.48.46.64,1.35.64Z"/>
    <path class="st4" d="M536.04,218.92c0,1.42-3.35,3.78-6.23,4.21v.1c.66.22,1.44.8,2.4.8,2.09,0,4.04-2.26,4.04-5.67,0-1.56-.67-2.83-1.2-3.82h-.1c-.18.58-.58,1.38-.84,1.78,1.32,1.25,1.93,2.17,1.93,2.61Z"/>
    <path class="st4" d="M547.28,217.43h.1c.12,1.45,1.49,2.32,4.01,2.32,3.12,0,5.09-1.68,5.09-4.26,0-1.66-.88-2.76-2.34-2.76-1.6,0-3.15,1.33-5.08,4.54-.76-.37-1.16-.97-1.25-1.83h-.15c-.29,1.66-1.1,2.27-2.8,2.27,0,0,0,0,0,0h0s-1.13,0-1.13,0c-.12-2.77-1.18-4.3-2.82-4.3s-2.68,1.75-2.68,3.86c0,1.58.75,2.48,2.36,2.48,1.05,0,1.85-.05,2.72-.17-.78,1.68-4.04,3.27-6.72,3.51v.1c.77.23,1.75.84,2.77.84,1.95,0,3.77-1.58,4.25-4.28h.89s0,0,.01,0c1.49,0,2.48-.77,2.77-2.32ZM553.73,214.35c1.55,0,2.44,1.13,2.44,1.95s-1.78,1.42-4.44,1.42c-1.08,0-1.91-.13-2.53-.39,1.17-1.73,3.06-2.98,4.53-2.98ZM540.68,217.83c-1.66,0-2.18-.64-2.18-1.25,0-.82.98-1.67,2.12-1.67,1.46,0,2.49,1.07,2.78,2.87-.99.05-1.97.05-2.72.05Z"/>
    <path class="st4" d="M465.01,226.64h-.1c-.06.42-.27.82-.27,1.11,0,.48.46.64,1.35.64.51,0,1.76-.04,2.98-.13.06-.28.33-1.04.48-1.3-.95.07-2.83.11-3.23.11-.89,0-1.22-.1-1.22-.43Z"/>
    <path class="st4" d="M472.26,240.81c-.51,0-1.76.04-2.98.13-.07.28-.34,1.04-.49,1.3.95-.08,2.84-.12,3.23-.12.88,0,1.22.11,1.22.43h.1c.06-.42.27-.82.27-1.11,0-.49-.46-.64-1.34-.64Z"/>
    <path class="st4" d="M477.15,229.55v.1c.38.17.98.69,1.23,1.01l1.07-1.17c-.23-.39-.83-.92-1.32-1.14l-.98,1.21Z"/>
    <path class="st4" d="M479.13,231.94c-.2.54-.59,1.44-.88,1.76.79.68,1.72,1.87,1.72,2.41,0,.5-1.32.91-3.37.91,0,0,0,0,0,0h0c-1.68,0-2.19-.61-2.19-1.95v-.83h-.15c-.31,2.2-.88,2.78-3.8,2.78,0,0,0,0,0,0h0c-1.46,0-2.24-.76-2.24-2.49,0-2.9-.16-4.09-.27-4.99h-.06c-.32.54-.84,1.1-1.19,1.37.06.23.11.53.17.89-3.51,2.16-4.45,3.29-4.45,4.76,0,1.02.64,1.63,1.96,1.63,1.72,0,2.57-.87,2.81-2.63h.1c.1,2.53,1.07,3.51,2.83,3.51h0s0,0,0,0c2.56,0,3.68-.83,3.82-2.98h.1c-.22,2.32.78,2.98,2.22,2.98h0s0,0,0,0c2.8,0,3.94-1.07,3.94-3.27,0-1.98-.82-3.36-1-3.85h-.08ZM464.6,236.21c-1.2,0-1.59-.27-1.59-.77s.8-1.3,3.96-2.96c.1.78.17,1.66.17,2.42s-1.01,1.31-2.53,1.31Z"/>
    <path class="st4" d="M539.8,236.38c-1.71,0-2.86-.85-2.86-1.87,0-1.1,1.52-1.95,2.94-1.95,1.19,0,1.91.39,1.91,1h.1c.41-1.41-.3-2.49-1.86-2.49-1.8,0-3.41,1.81-3.41,4.07,0,.78.27,1.42.79,1.8-.52.05-1.08.08-1.49.08,0,0,0,0,0,0h0s-3.41,0-3.41,0h-3.41s0,0,0,0h0s-3.41,0-3.41,0c0,0,0,0,0,0h0s-3.41,0-3.41,0c0,0,0,0,0,0h0s-3.41,0-3.41,0c0,0,0,0,0,0h0s-3.41,0-3.41,0c0,0,0,0,0,0h0s-3.41,0-3.41,0h-3.41s0,0,0,0h0s-3.41,0-3.41,0c0,0,0,0,0,0h0s-3.41,0-3.41,0c0,0,0,0,0,0h0s-3.41,0-3.41,0c0,0,0,0,0,0h0s-3.41,0-3.41,0c0,0,0,0,0,0h0s-3.41,0-3.41,0c0,0,0,0,0,0h0c-1.61,0-2.36-.64-2.36-2.44s.1-3.88.1-5.81c0-1.54-.1-2.36-.1-3.19h-.1c-.31.52-.85,1.23-1.32,1.7.19,1.34.43,3.96.43,7.1,0,.71-.41,1.37-1.35,1.98.08-5.34-4-8.15-4.93-9.21h-.1c.06.66-.06,1.73-.21,2.28,3.06,2.16,4.87,4.61,5.14,7-1.05.64-2.69,1.23-5.12,1.76v.1c.9.35,1.78.78,2.71.78,1.97,0,3.6-1.39,3.97-4.17h.08c-.06,3.48.8,4.17,2.82,4.17h0s0,0,.01,0h3.41s0,0,0,0h3.41s0,0,0,0h3.41s0,0,0,0h3.41s0,0,0,0h3.41s0,0,0,0h3.41s0,0,0,0h3.41s0,0,0,0h3.41s0,0,0,0h3.41s0,0,0,0h3.41s0,0,0,0h3.41s0,0,0,0h3.41s0,0,0,0h3.41s0,0,0,0c2.65,0,4.14-.73,6.93-1.34.29-.61.91-1.58,1.19-1.87l-.02-.09c-1.09.39-2.57.62-3.88.62Z"/>
    <path class="st4" d="M552.41,225.58h-.1c-.26.52-.8,1.23-1.2,1.58.15.92.22,2.24.22,2.82,0,.95-.14,1.82-.46,2.61-1.09-1.45-2.9-3.2-5.66-5.45h-.1c.06.66-.06,1.67-.21,2.15,2.64,1.5,4.42,2.98,5.53,4.2-.94,1.57-2.65,2.84-5.36,3.88v.1c1.41.73,2.04,1.68,3.9,1.68,1.97,0,3.23-1.09,3.23-3.34,0-.76-.27-1.58-.87-2.54.78-1.3,1.16-2.89,1.16-4.89,0-1.27-.1-2.12-.1-2.81ZM552,236.14c0,.53-1.09.97-3.14.97-.76,0-1.3-.1-1.95-.35,1.74-.73,3.05-1.62,3.96-2.78.8.97,1.13,1.74,1.13,2.16Z"/>
    <path class="st4" d="M555.99,225.58c-.32.53-.88,1.3-1.33,1.75.23,1.26.85,9.55.76,12.02h.1c.47-1.99.8-2.41.8-5.99,0-2.9-.23-6.97-.23-7.78h-.1Z"/>
  </g>
  <g>
    <path class="st9" d="M120.59,107.51h0c.2.2.6.5.8.7l.7-.7c-.1-.2-.5-.6-.8-.7l-.6.8h0l-.1-.1Z"/>
    <path class="st9" d="M124.09,106.31c-.1.3-.3.8-.5,1,.7,1,1,1.6,1,2,0,1.2-1.4,2.3-3.4,2.3s-2.6-.8-2.6-2.2.1-1.3.4-1.9h-.1c-.3.8-.5,1.7-.5,2.5,0,1.7,1,2.7,2.8,2.7s3.7-1.4,3.7-3.7-.5-2.3-.6-2.7h-.2Z"/>
    <path class="st9" d="M178.99,108.81c-1.2,0-1.9-.6-1.9-1.3s1-1.4,2-1.4,1.3.3,1.3.7h0c.2-.9-.2-1.6-1.3-1.6s-2.3,1.2-2.3,2.7.2,1.1.6,1.4h-44.9c-1.1,0-1.6-.4-1.6-1.8v-6.2h0c-.2.3-.5.7-.8,1,.1,1,.2,2.5.2,5s-.3,1-.9,1.4c0-3.7-2.7-5.6-3.3-6.3h0c0,.4,0,1-.1,1.3,2.1,1.5,3.3,3.3,3.5,5-.7.5-1.8.9-3.4,1.1h0c.5.3,1.1.5,1.6.5,1.3,0,2.5-.9,2.8-2.7h0c0,2.3.6,2.7,1.9,2.7h43.8c1.8,0,2.8-.5,4.7-.9.2-.4.5-.9.7-1.1h0c-.7.2-1.7.4-2.6.4"/>
    <path class="st9" d="M182.69,112.31c0-.3.4-.7.9-.7s.5.1.5.5h0v-.3c0-.4-.2-.7-.6-.7-.6,0-1.1.7-1.1,1.4s.3.7.8.8c-.4.2-.7.5-.9.9h0c.3-.4,1-.8,2-1,0-.2.1-.4.2-.5h0c-.2,0-.8.1-1.2.1s-.9-.3-.9-.5"/>
    <path class="st9" d="M186.89,108.51c0,.4-.7.8-2.1.8s-.9-.1-1.5-.3c1.2-.5,2.2-1.2,2.8-2,.5.7.7,1.2.7,1.5M187.19,101.31h0c-.1.3-.5.7-.7.9,0,.7.1,1.6.1,2,0,.7-.1,1.4-.4,2-.7-1-2-2.3-3.9-3.8h0c0,.4,0,1-.1,1.3,1.8,1.1,3,2.2,3.8,3.1-.6,1.1-1.8,1.9-3.6,2.6h0c.9.5,1.3,1.1,2.6,1.1s2.2-.7,2.2-2.1-.2-1.1-.6-1.8c.5-.9.8-2,.8-3.4v-1.9"/>
    <path class="st9" d="M189.49,101.31c-.2.3-.5.8-.8,1,.1.8.5,6.6.5,8.3h0c.3-1.3.5-1.7.5-3.9s-.2-4.9-.2-5.5h0v.1Z"/>
    <path class="st9" d="M195.89,109.31c-1.1,0-1.5-.5-1.5-.9,0-.7.7-1.3,1.5-1.3s1.6.6,1.8,1.7c-.6.3-1.1.5-1.8.5M195.99,106.21c-1,0-1.8,1.1-1.8,2.5s.5,1.6,1.6,1.6,1.7-.5,1.9-1.3h0v.7c0,1.4-2.4,2.8-4.5,2.9h0c.5.2,1.1.6,1.7.6,1.6,0,3-1.5,3-3.8s-.7-3.3-1.9-3.3"/>
    <path class="st9" d="M203.79,102.21h0c0,.2-.2.5-.2.7,0,.3.3.4.9.4h1.9c0-.2.2-.6.3-.8h-2.1c-.6,0-.8,0-.8-.3"/>
    <path class="st9" d="M203.49,108.71c-.8,0-1.1-.2-1.1-.6s.6-.9,2.7-2.1c0,.5.1,1.2.1,1.7s-.7,1-1.8,1M213.69,105.81c-.1.3-.3.8-.5,1,.5.5,1.1,1.3,1.1,1.7s-.8.7-2.2.7h-4.6c-1,0-1.6-.5-1.6-1.8,0-1.9-.1-2.7-.2-3.4h0c-.2.3-.5.6-.7.8,0,.2,0,.4.1.6-2.4,1.5-3,2.2-3,3.2s.4,1.1,1.3,1.1,1.7-.6,1.9-1.7h0c0,1.6.7,2.3,1.9,2.3h4.6c1.8,0,2.6-.7,2.6-2s-.5-2.2-.7-2.6h0v.1Z"/>
    <path class="st9" d="M213.19,111.71h-1.9c0,.2-.2.6-.3.8h2.1c.6,0,.8,0,.8.3h0c0-.2.2-.5.2-.7,0-.3-.3-.4-.9-.4"/>
    <path class="st9" d="M260.09,108.81c-1.2,0-1.9-.6-1.9-1.3s1-1.4,2-1.4,1.3.3,1.3.7h0c.2-.9-.2-1.6-1.3-1.6s-2.3,1.2-2.3,2.7.2,1.1.6,1.4h-40.3c-1.2,0-1.6-.4-1.6-1.6v-6.3h0c-.2.3-.5.8-.8,1,.2,1.1.3,1.7.3,5.9,0,1.7.6,2.2,1.9,2.2h39.2c1.8,0,2.8-.5,4.7-.9.2-.4.5-.9.7-1.1h0c-.7.2-1.7.4-2.6.4"/>
    <path class="st9" d="M279.69,101.31c-.2.3-.5.8-.8,1,.1.7.6,5.1.6,6.3s-.5.6-1.6.6h0c-1.2,0-1.6-.4-1.6-1.6v-6.3h0c-.2.3-.5.8-.8,1.1.2,1.1.3,1.7.3,5.6,0,.9-.6,1.3-1.6,1.3h-4.6c-.9,0-1.4-.5-1.7-1.8-.6-2.2-.7-2.8-.8-3.2h0c0,.2-.4.9-.6,1.1.5.9.9,2.5.9,2.9s-.7,1.1-2,1.1-1.4-.4-1.4-1.3h0c0,.4-.1.7-.1,1,0,.9.4,1.4,1.5,1.4s2.2-.8,2.2-2.4h0c.3,1.6,1,2.3,1.9,2.3h4.6c1.2,0,1.8-.5,1.8-1.9h0c0,1.4.6,1.9,1.8,1.9h0c.7,0,1.1,0,1.4-.4.5-.6.8-1.8.8-2.6,0-2.1-.2-5.5-.2-6.1h0Z"/>
    <path class="st9" d="M126.49,83.01h-1.4c-.6,0-1.2,0-1.8.1,0,.2-.1.4-.2.7-.1.3-.2.5-.3.7h3.6c.5,0,.8,0,1,.1.2,0,.3.2.3.4h.1c0-.2,0-.4.2-.6,0-.3.1-.5.1-.6,0-.3-.1-.4-.4-.5s-.6-.2-1.1-.2"/>
    <path class="st9" d="M133.89,80.21l1.2-1.3c-.1-.2-.3-.5-.6-.7-.3-.2-.6-.4-.8-.6l-1.1,1.3h0c.2.2.4.3.7.6s.5.4.6.6"/>
    <path class="st9" d="M174.19,71.21c0-.3,0-.6.3-.8.2-.3.4-.5.8-.6s.7-.2,1-.2.7,0,1.1.3c.4.2.6.5.9.8.2.3.3.7.3,1,0,.6-.6,1.1-1.9,1.7-.8-.3-1.4-.6-1.8-.9-.4-.3-.6-.7-.6-1.1M180.79,71.61c.5.3.8.6,1,.9s.3.6.3.9,0,.4-.1.6c0,.2-.2.5-.3.7-.9-.3-2.2-.7-3.7-1.1.7-.8,1-1.6,1-2.6s0-.4,0-.6c.9.5,1.5.9,2,1.2M122.69,80.71c.7.3,1.5.5,2.4.5s2.4-.2,3.3-.6,1.6-.9,2-1.6c.5-.7.7-1.5.7-2.4s0-.5-.2-.7h1.5c.9,0,1.7-.1,2.3-.3.6-.2,1-.6,1.3-1,.3-.5.5-1.1.5-1.9h.1v.7c0,.9.2,1.6.6,2s1,.6,1.8.6h33.3c.8,0,1.5,0,2.2-.3.7-.2,1.2-.5,1.7-.8,2.3.6,3.9,1.1,4.6,1.4.5-.5.9-1.1,1.1-1.8s.4-1.3.4-2-.1-1-.3-1.4-.6-.8-1.2-1.2c-.6-.4-1.4-.9-2.4-1.5-1-.5-1.7-.9-2.3-1.2-.5-.3-.9-.6-1.2-.8h-.1c0,.3,0,.6-.1.9,0,.3-.2.6-.3.9.2,0,.4.2.8.4h.2c-.5.5-.8,1-1.1,1.6s-.5,1.2-.5,1.9,0,.7.2,1c.1.3.3.5.5.7-.4,0-1,.1-1.7.1h-33.3c-.6,0-1.1,0-1.4-.2-.3-.1-.6-.4-.7-.7s-.2-.7-.2-1.2v-.9h-.2c-.1.9-.3,1.5-.5,1.9s-.6.7-1.2.9c-.5.2-1.3.3-2.4.3h-4.4c-.9,0-1.7,0-2.3-.2-.2.6-.6,1.2-1.1,1.9h0c.3.2.6.3,1,.3s.9.1,1.6.2c.7,0,1.3.2,1.7.2s.8.2,1.1.3c.3.1.4.3.4.5s-.2.6-.6.9-1,.6-1.9.8c-.8.2-1.9.3-3,.3s-1.7-.1-2.3-.4c-.6-.3-1.1-.7-1.4-1.2s-.5-1.1-.5-1.8,0-.9.1-1.4c0-.5.2-1,.4-1.4h-.2c-.3.6-.5,1.3-.6,2s-.2,1.4-.2,2,.2,1.7.5,2.4.9,1.2,1.5,1.5"/>
    <path class="st9" d="M188.29,64.21l1.2-1.3c-.1-.2-.3-.5-.6-.7s-.6-.4-.8-.6l-1.1,1.3h0c.2.2.4.4.7.6.3.2.5.4.6.6"/>
    <path class="st9" d="M194.49,75.31c.3-.4.5-.8.8-1.4.2-.6.4-1.1.5-1.7s.2-1.2.2-1.7v-3.1c0-1.1,0-2.4-.1-3.9v-2.3h-.1c-.2.3-.4.7-.7,1s-.5.7-.8.9c0,.5.2,1.4.4,2.7.2,1.4.3,2.7.5,4.1.1,1.4.2,2.3.2,2.9s-.2.5-.6.6c-.4.2-1,.2-1.9.2s-1.3-.2-1.7-.6-.8-1.1-1-2.1l-.7-2.8c-.3-1.3-.6-2.1-.6-2.5h-.1c0,.1-.2.5-.5,1s-.5.9-.6,1c.2.5.5,1,.7,1.6s.4,1.2.5,1.7.2.9.2,1.1c0,.3-.1.5-.4.8s-.6.5-1.1.6-1.1.2-1.7.2-1,0-1.4-.2-.5-.3-.7-.6c-.1-.3-.2-.6-.2-1.1h-.2c-.1.8-.2,1.4-.2,1.8,0,.8.2,1.3.6,1.7s1,.6,1.8.6c2.3,0,3.5-1.3,3.6-4h.1c.4,2.6,1.5,3.8,3.2,3.8h0c.6,0,1,0,1.3-.2s.6-.3.8-.5"/>
    <path class="st9" d="M198.99,75.61v.7h.1c0-.2.2-.6.3-1.1.2-.6.3-1,.3-1.5,0-.4.1-.9.2-1.5v-2.5c0-1.5,0-3.7-.2-6.5v-2h-.1c-.2.3-.4.7-.7,1-.3.4-.5.7-.8.9,0,.4.2,1.5.3,3.1s.3,3.4.4,5.2.2,3.2.2,4.3"/>
    <path class="st9" d="M205.59,80.31c.7.3,1.5.5,2.4.5s2.2-.2,3-.7c.9-.4,1.6-1.1,2.1-2s.8-1.9.8-3.1c.4.6,1,.9,1.8.9s1.2-.2,1.6-.6c.4-.4.7-.9.9-1.7h.1c0,.7.1,1.3.5,1.6.3.4.8.6,1.5.6s1.3-.3,1.8-.9.6-1.4.6-2.5,0-1.4-.2-2-.4-1.2-.6-1.7c0,0,0-.2-.1-.3h0c-.1.3-.2.7-.4,1s-.3.6-.5.8c.6.5,1,1,1.3,1.4s.4.8.4,1,0,.3-.3.4c-.2.1-.4.2-.7.3-.3,0-.6.1-1,.1s-.8,0-1.1-.2-.6-.3-.8-.5c0-.3.1-.7.1-1v-.8h-.2c0,.6-.2,1.1-.4,1.5s-.5.6-.8.8c-.3.2-.8.2-1.3.2s-.8-.1-1.1-.3c-.3-.2-.6-.6-.9-1.1-.3-.5-.6-1.3-.9-2.2h-.1c-.1.3-.2.7-.4,1s-.3.6-.4.8c.5.9.9,1.6,1.1,2.1.2.5.4.9.4,1.1,0,.6-.2,1.1-.7,1.7-.5.5-1.1,1-1.9,1.3-.8.3-1.8.5-2.8.5s-1.7-.1-2.3-.4-1.1-.7-1.4-1.2c-.3-.5-.5-1.1-.5-1.9s0-.9.1-1.5.2-1,.4-1.5h-.2c-.6,1.3-.9,2.7-.9,4.2s.2,1.7.5,2.4c.3.7.9,1.2,1.5,1.5"/>
    <path class="st9" d="M223.59,78.71c-1.1.5-2.1.9-3.1,1h0c.2.2.4.3.7.4.4.2.7.3,1,.4s.6.1.9.1c.8,0,1.5-.3,2.2-.8s1.2-1.3,1.6-2.2c.4-.9.6-2,.6-3.2s0-1-.2-1.5c-.1-.5-.3-.9-.5-1.3s-.4-.8-.7-1.3h-.1c-.1.3-.2.6-.4,1s-.3.7-.5.9c.7.7,1.2,1.2,1.6,1.7.4.5.5.9.5,1.1,0,.5-.3,1.1-1,1.8-.7.7-1.6,1.3-2.6,1.8"/>
    <path class="st9" d="M267.19,71.41c0-.3.1-.5.4-.8s.6-.5.9-.7.8-.3,1.2-.3.8.1,1.2.3c.4.2.7.5.9.8s.3.7.3,1,0,.4-.3.6-.5.4-.9.6-.9.4-1.5.5l-1.2-.6c-.3-.3-.6-.5-.8-.8s-.3-.5-.3-.7M228.89,67.51c0,1.1,0,2.7.1,4.8,0,.9.1,1.7.3,2.2s.5.9,1,1.1,1.1.3,1.8.3h33.3c1,0,1.7,0,2.3-.3s1-.5,1.3-.9c.2.4.6.7,1.2.9s1.5.3,2.6.3h0c.6,0,1,0,1.3-.2.3-.1.6-.3.8-.5.3-.4.5-.8.8-1.4.2-.6.4-1.1.5-1.7s.2-1.2.2-1.7v-3.1c0-1.1,0-2.4-.1-3.9v-2.3h-.1c-.2.3-.4.7-.7,1-.3.4-.5.7-.8.9,0,.5.2,1.4.4,2.7s.3,2.7.5,4.1c.1,1.4.2,2.3.2,2.9s-.2.5-.6.6c-.4.2-1,.2-1.9.2h-2.1c.4-.3.6-.7.8-1.1s.3-.9.3-1.4-.1-1.2-.3-1.6-.5-.8-.9-1.1c-.4-.3-.8-.4-1.3-.4s-1,.2-1.5.6-.9.9-1.1,1.5-.4,1.3-.4,2.1.2,1,.6,1.4h-34.8c-.6,0-1.2,0-1.5-.3-.4-.2-.7-.4-.8-.8s-.3-.8-.3-1.4v-10.1h-.1c-.2.3-.4.7-.7,1-.3.4-.5.7-.8.9.1.7.2,1.3.3,1.9,0,.6.1,1.4.2,2.5"/>
    <polygon class="st9" points="271.99 59.91 267.89 61.71 267.89 62.21 271.89 60.41 271.99 59.91"/>
    <path class="st9" d="M269.69,63.71l-1.1,1.3h0c.2.2.4.4.7.6s.5.4.6.6l1.2-1.3c-.1-.2-.3-.5-.6-.7s-.6-.4-.8-.6"/>
    <path class="st9" d="M279.39,71.41c.1,1.8.2,3.2.2,4.3s0,.5,0,.7h.1c0-.2.2-.6.3-1.1.2-.6.3-1.1.3-1.5s.1-.9.2-1.5v-2.5c0-1.5,0-3.7-.2-6.5v-2h-.1c-.2.3-.4.7-.7,1-.3.4-.5.7-.8.9,0,.4.2,1.5.3,3.1.1,1.6.2,3.4.4,5.2"/>
    <path class="st9" d="M124.79,90.01l1.3,3.1c-.6,0-1.2.2-1.7.5s-1,.6-1.4,1l1.9-4.5h0l-.1-.1ZM120.79,97.71h1.6v-.4h-.4v-.3l.2-.5c.4-.8.9-1.5,1.7-2,.7-.5,1.5-.8,2.4-.9l1.4,3.3v.3h-.4v.4h3.6c.1,0,.2,0,.2-.2v-.2h-.2c-.2,0-.3,0-.5-.2s-.3-.2-.3-.4l-4-9.7h0v-.1h-.1l-4,9.7c0,.2-.2.3-.3.4-.2.1-.3.2-.5.2h-.2v.2c0,.1,0,.2.2.2"/>
    <path class="st9" d="M132.49,97.21s-.2.1-.4.1h-.2v.2c0,.1,0,.2.2.2h7.9c.1,0,.2,0,.2-.2v-2.5c0-.1,0-.2-.2-.2h-.2v.2c0,.3,0,.6-.2.9-.1.3-.3.5-.5.7s-.4.4-.7.5c-.3.1-.6.2-.9.2h-2.7v-9.4c0-.1,0-.3.1-.4s.2-.1.3-.1h.2v-.2c0-.1,0-.2-.2-.2h-3.2c-.1,0-.2,0-.2.2v.2h.2c.1,0,.3,0,.4.1s.1.2.1.4v8.9c0,.1,0,.3-.1.4"/>
    <path class="st9" d="M152.39,87.41c.3,0,.6,0,.9.2s.5.3.7.5.4.4.5.7c.1.3.2.6.2.9v.2h.3v-2.9h-8.1c-.1,0-.2,0-.2.2v.2h.2c.1,0,.3,0,.3.1,0,0,.1.2.1.4v8.9c0,.1,0,.3-.1.4s-.2.1-.3.1h-.2v.2c0,.1,0,.2.2.2h3.2c.1,0,.2,0,.2-.2v-.2h-.2c-.1,0-.3,0-.3-.1s-.1-.2-.1-.4v-4.2h1.4c.1,0,.3,0,.4.1s.1.2.1.4,0,.2.2.2.2,0,.2-.2v-1.6h-.4v.2c0,.1,0,.2-.1.3,0,0-.2.1-.4.1h-1.4v-4.7h2.7Z"/>
    <path class="st9" d="M156.29,93.61c-.5.3-1,.6-1.4,1l1.9-4.5,1.3,3.1c-.6,0-1.2.2-1.7.5M159.39,97.31h-.2v.4h3.6c.1,0,.2,0,.2-.2v-.2h-.2c-.2,0-.3,0-.5-.2s-.3-.2-.3-.4l-4-9.7h0v-.1h-.1l-4,9.7c0,.2-.2.3-.3.4-.2.1-.3.2-.5.2h-.2v.2c0,.1,0,.2.2.2h1.6v-.4h-.4v-.3l.2-.5c.4-.8.9-1.5,1.7-2,.7-.5,1.5-.8,2.4-.9l1.4,3.3v.3h-.2"/>
    <path class="st9" d="M166.79,87.41h2.5c.2,0,.4.1.6.3.2.2.4.4.5.8.1.3.3.7.3,1.1s.1.9.1,1.3,0,.9-.1,1.3c0,.4-.2.8-.4,1.1-.3.7-.7,1-1.1,1h-2.5v-7h0l.1.1ZM169.19,94.81l1.8,2.9s.1.1.2.1h3v-.4h-.2c-.2,0-.3,0-.5-.2-.2-.1-.3-.2-.4-.4l-1.6-2.6c.6-.4,1-.8,1.3-1.4s.5-1.2.5-1.9-.1-1-.3-1.5-.5-.9-.8-1.2-.8-.6-1.2-.8c-.5-.2-1-.3-1.5-.3h-5.3c-.1,0-.2,0-.2.2v.2h.2c.1,0,.3,0,.3.1,0,0,.1.2.1.4v8.9c0,.1,0,.3-.1.4s-.2.1-.3.1h-.2v.2c0,.1,0,.2.2.2h3.2c.1,0,.2,0,.2-.2v-.2h-.2c-.1,0-.3,0-.3-.1,0,0-.1-.2-.1-.4v-2h2.4l-.2-.1Z"/>
    <path class="st9" d="M180.69,87.41c.3,0,.6,0,.9.2s.5.3.7.5.4.4.5.7c.1.3.2.6.2.9v.2h.2c.1,0,.2,0,.2-.2v-2.5c0-.1,0-.2-.2-.2h-7.9c-.1,0-.2,0-.2.2v.2h.2c.1,0,.3,0,.4.1s.1.2.1.4v8.9c0,.1,0,.3-.1.4s-.2.1-.4.1h-.2v.2c0,.1,0,.2.2.2h7.9c.1,0,.2,0,.2-.2v-2.5c0-.1,0-.2-.2-.2h-.2v.2c0,.3,0,.6-.2.9-.1.3-.3.5-.5.7s-.4.4-.7.5-.6.2-.9.2h-2.7v-4.7h1.4c.1,0,.3,0,.4.1s.1.2.1.4,0,.2.2.2.2,0,.2-.2v-1.6h-.4v.2c0,.1,0,.2-.1.3-.1,0-.2.1-.4.1h-1.4v-4.7s2.7,0,2.7,0Z"/>
    <path class="st9" d="M191.29,92.71c-.2-.3-.4-.5-.7-.7s-.6-.3-.9-.5l-2.6-.7c-.4-.1-.7-.3-.9-.7-.2-.3-.3-.7-.3-1.1s0-.5.1-.7c0-.2.2-.4.4-.6s.4-.3.6-.4c.2-.1.5-.1.7-.1h.5c.4,0,.7,0,1.1.2.3.1.6.3.9.6.2.3.4.5.6.9s.2.7.2,1.1,0,.2.2.2.2,0,.2-.2v-2.9c0-.1,0-.2-.2-.2s-.2,0-.2.2v.3c0,.1,0,.2-.1.3l-.2.1h-.2c-.3-.3-.6-.5-1-.6-.4-.2-.8-.2-1.2-.2h-.5c-.4,0-.9,0-1.2.3-.4.2-.7.4-1,.7-.3.3-.5.6-.7,1s-.3.8-.3,1.3,0,.7.2,1c.1.3.3.6.5.9s.4.5.7.7.6.3.9.5l2.6.7c.4.1.7.3.9.7s.3.7.3,1.1,0,.5-.1.7c0,.2-.2.4-.4.6s-.4.3-.6.4-.5.1-.7.1h-1.2c-.4,0-.7,0-1.1-.2-.3-.1-.6-.3-.9-.6-.2-.3-.4-.5-.6-.9s-.2-.7-.2-1.1v-.2h-.2c-.1,0-.2,0-.2.2v2.9c0,.1,0,.2.2.2h.2v-.5c0-.1,0-.2.1-.3s.1-.1.2-.1h.2c.3.3.6.5,1,.6.4.2.8.2,1.2.2h1.2c.4,0,.9,0,1.2-.3.4-.2.7-.4,1-.7.3-.3.5-.6.7-1s.3-.8.3-1.3,0-.7-.2-1c-.1-.3-.3-.6-.5-.9"/>
    <path class="st9" d="M202.39,93.61c-.5.3-1,.6-1.5,1l1.9-4.5,1.3,3.1c-.6,0-1.2.2-1.7.5M205.69,96.91v.3h-.4v.4h3.6c.1,0,.2,0,.2-.2v-.2h-.2c-.2,0-.3,0-.5-.2s-.3-.2-.3-.4l-4-9.7h0v-.1h-.1l-4,9.7c0,.2-.2.3-.3.4-.2.1-.3.2-.5.2h-.2v.2c0,.1,0,.2.2.2h1.6v-.4h-.4v-.3l.2-.5c.4-.8.9-1.5,1.7-2,.7-.5,1.5-.8,2.4-.8l1.4,3.3h0l-.4.1Z"/>
    <path class="st9" d="M210.49,97.21s-.2.1-.4.1h-.2v.2c0,.1,0,.2.2.2h7.9c.1,0,.2,0,.2-.2v-2.5c0-.1,0-.2-.2-.2h-.2v.2c0,.3,0,.6-.2.9-.1.3-.3.5-.5.7s-.4.4-.7.5-.6.2-.9.2h-2.7v-9.4c0-.1,0-.3.1-.4s.2-.1.3-.1h.2v-.2c0-.1,0-.2-.2-.2h-3.2c-.1,0-.2,0-.2.2v.2h.2c.1,0,.3,0,.4.1s.1.2.1.4v8.9c0,.1,0,.3-.1.4"/>
    <path class="st9" d="M227.69,87.41h1.9c.4,0,.8.1,1.2.4s.7.6,1,1.1.5,1,.7,1.6.2,1.2.2,1.9,0,1.3-.2,1.9-.4,1.1-.7,1.6-.6.8-1,1.1-.8.4-1.2.4h-1.9v-10ZM225.39,97.21s-.2.1-.3.1h-.2v.2c0,.1,0,.2.2.2h4.6c.7,0,1.4-.1,2.1-.4.6-.3,1.2-.7,1.7-1.2s.9-1.1,1.2-1.7.4-1.4.4-2.1-.1-1.4-.4-2.1-.7-1.2-1.2-1.7-1.1-.9-1.7-1.2-1.3-.4-2.1-.4h-4.6c-.1,0-.2,0-.2.2v.2h.2c.1,0,.3,0,.3.1s.1.2.1.4v8.9c0,.1,0,.3-.1.4"/>
    <path class="st9" d="M237.69,93.61c-.5.3-1,.6-1.4,1l1.9-4.5,1.3,3.1c-.6,0-1.2.2-1.7.5M240.79,97.31h-.2v.4h3.6c.1,0,.2,0,.2-.2v-.2h-.2c-.2,0-.3,0-.5-.2s-.3-.2-.3-.4l-4-9.7h0v-.1h-.1l-4,9.7c0,.2-.2.3-.3.4-.2.1-.3.2-.5.2h-.2v.2c0,.1,0,.2.2.2h1.6v-.4h-.4v-.3l.2-.5c.4-.8.9-1.5,1.7-2,.7-.5,1.5-.8,2.4-.9l1.4,3.3v.3h-.2"/>
    <path class="st9" d="M254.59,87.51s.2-.1.3-.1h.2v-.4h-3.6v.4h.2c.1,0,.3,0,.3.1,0,0,.1.2.1.4v4.2h-4.1v-4.2c0-.1,0-.3.1-.4,0,0,.2-.1.3-.1h.2v-.2c0-.1,0-.2-.2-.2h-3.2c-.1,0-.2,0-.2.2v.2h.2c.1,0,.3,0,.4.1,0,0,.1.2.1.4v8.9c0,.1,0,.3-.1.4,0,0-.2.1-.4.1h-.2v.2c0,.1,0,.2.2.2h3.2c.1,0,.2,0,.2-.2v-.2h-.2c-.1,0-.3,0-.3-.1,0,0-.1-.2-.1-.4v-4.2h4.1v4.2c0,.1,0,.3-.1.4,0,0-.2.1-.3.1h-.2v.4h3.6v-.4h-.2c-.1,0-.2,0-.3-.1s-.1-.2-.1-.4v-8.9c0-.1,0-.3.1-.4"/>
    <path class="st9" d="M259.89,93.61c-.5.3-1,.6-1.4,1l1.9-4.5,1.3,3.1c-.6,0-1.2.2-1.7.5M266.59,97.51v-.2h-.2c-.2,0-.3,0-.5-.2s-.3-.2-.3-.4l-4-9.7h0v-.1h-.1l-4,9.7c0,.2-.2.3-.3.4-.2.1-.3.2-.5.2h-.2v.2c0,.1,0,.2.2.2h1.6v-.4h-.4v-.3l.2-.5c.4-.8.9-1.5,1.7-2,.7-.5,1.5-.8,2.4-.8l1.4,3.3v.3h-.4v.4h3.6c.1,0,.2,0,.2-.2"/>
    <path class="st9" d="M274.49,95.91c0,.3,0,.5-.2.7s-.1.3-.2.5c0,0-.1.1-.2.1h-3.5v-4.7h3.5l.2.2c0,.1.1.3.2.5,0,.2.1.5.2.7v2M270.39,87.41h3l.2.1s.1.2.2.4c0,.2.1.5.2.7v2c0,.3,0,.5-.2.7,0,.2-.1.3-.2.5,0,.1-.1.2-.2.2h-3v-4.7h0v.1ZM275.59,92.61c-.2-.2-.5-.3-.8-.4.4-.2.8-.6,1.1-1s.4-.9.4-1.5,0-.8-.2-1.1-.3-.6-.6-.9-.5-.5-.9-.6-.7-.2-1.1-.2h-5.7c-.1,0-.2,0-.2.2v.2h.2c.1,0,.3,0,.3.1,0,0,.1.2.1.4v8.9c0,.1,0,.3-.1.4,0,0-.2.1-.3.1h-.2v.2c0,.1,0,.2.2.2h6.3c.4,0,.8,0,1.1-.2.3-.1.6-.3.9-.6.2-.3.5-.6.6-.9s.2-.7.2-1.1,0-.6-.2-.9-.2-.6-.4-.8c-.2-.2-.4-.4-.6-.6"/>
    <path class="st9" d="M280.59,97.31c-.1,0-.3,0-.3-.1,0,0-.1-.2-.1-.4v-8.9c0-.1,0-.3.1-.4s.2-.1.3-.1h.2v-.2c0-.1,0-.2-.2-.2h-3.2c-.1,0-.2,0-.2.2v.2h.2c.1,0,.3,0,.4.1,0,0,.1.2.1.4v8.9c0,.1,0,.3-.1.4,0,0-.2.1-.4.1h-.2v.2c0,.1,0,.2.2.2h3.2c.1,0,.2,0,.2-.2v-.2h-.2Z"/>
  </g>
</svg>