<?xml version="1.0" encoding="UTF-8"?>
<svg id="Layer_1" xmlns="http://www.w3.org/2000/svg" version="1.1" xmlns:xlink="http://www.w3.org/1999/xlink" viewBox="0 0 386.06 110.79">
  <!-- Generator: Adobe Illustrator 29.3.0, SVG Export Plug-In . SVG Version: 2.1.0 Build 146)  -->
  <defs>
    <style>
      .st0 {
        fill: url(#linear-gradient2);
      }

      .st1 {
        fill: #010101;
      }

      .st2 {
        fill: #141414;
      }

      .st3 {
        fill: #fff;
      }

      .st4 {
        fill: url(#linear-gradient1);
      }

      .st5 {
        fill: none;
      }

      .st6 {
        clip-path: url(#clippath-1);
      }

      .st7 {
        fill: url(#linear-gradient);
      }

      .st8 {
        clip-path: url(#clippath);
      }
    </style>
    <clipPath id="clippath">
      <path class="st5" d="M296.93,41.48v58.06h68.03v-58.06c0-18.79-15.23-34.02-34.02-34.02s-34.02,15.23-34.02,34.02h.01Z"/>
    </clipPath>
    <linearGradient id="linear-gradient" x1="-105.47" y1="6.24" x2="-104.47" y2="6.24" gradientTransform="translate(948.99 10465.06) rotate(90) scale(99.12)" gradientUnits="userSpaceOnUse">
      <stop offset="0" stop-color="#d6ac40"/>
      <stop offset=".03" stop-color="#d6ac40"/>
      <stop offset=".24" stop-color="#d8af44"/>
      <stop offset=".46" stop-color="#deba50"/>
      <stop offset=".68" stop-color="#e8cd65"/>
      <stop offset=".9" stop-color="#f6e683"/>
      <stop offset="1" stop-color="#fef492"/>
    </linearGradient>
    <clipPath id="clippath-1">
      <polygon class="st5" points="328.58 21.58 325.27 22.48 322.42 22.48 324.7 29.73 327.91 28.31 330.27 28.27 331.22 28.54 329.37 29.79 329.74 30.13 332.05 29.86 334.47 30.36 336.89 31.88 337.45 30.62 337.08 29.5 338.17 29.07 338.54 27.84 338.54 26.22 335.89 25.76 332.95 24.6 332.65 23.08 332.43 21.79 330.76 21.09 328.58 21.58"/>
    </clipPath>
    <linearGradient id="linear-gradient1" x1="-152.54" y1="-20.72" x2="-151.54" y2="-20.72" gradientTransform="translate(687.3 -2592.1) rotate(-90) scale(17.22)" gradientUnits="userSpaceOnUse">
      <stop offset="0" stop-color="#fff"/>
      <stop offset="1" stop-color="#fef385"/>
    </linearGradient>
    <linearGradient id="linear-gradient2" x1="66.47" y1="95.77" x2="286.71" y2="40.69" gradientUnits="userSpaceOnUse">
      <stop offset="0" stop-color="#d6ac40"/>
      <stop offset=".03" stop-color="#d6ac40"/>
      <stop offset=".24" stop-color="#d8af44"/>
      <stop offset=".46" stop-color="#deba50"/>
      <stop offset=".68" stop-color="#e8cd65"/>
      <stop offset=".9" stop-color="#f6e683"/>
      <stop offset="1" stop-color="#fef492"/>
    </linearGradient>
  </defs>
  <g class="st8">
    <rect class="st7" x="274.33" y="-3.11" width="113.21" height="113.21" transform="translate(59.1 249.68) rotate(-45)"/>
  </g>
  <path class="st3" d="M356.31,84.25c0,4.71-3.82,8.53-8.53,8.53s-8.53-3.82-8.53-8.53,3.82-8.53,8.53-8.53,8.53,3.82,8.53,8.53"/>
  <g class="st6">
    <rect class="st4" x="321.8" y="16.8" width="17.35" height="19.34" transform="translate(144.03 300.61) rotate(-60.36)"/>
  </g>
  <path class="st2" d="M354,57.28c-.03-.08-.3-.77-1.29-1.17-.52-.21-1.3-1.4-1.68-2.13-.06-.2-.32-.95-1.01-1.34-.45-.27-.99-.32-1.58-.16h-.04l-.04.03c-.05.03-.49.28-.72.83-.1.16-.79.47-1.44.66h-.01l-.06.02c.05.11.1.22.15.34.05.12.09.23.14.36.29.77.5,1.61.65,2.27l.04.17c.06.26.1.49.13.66.6-.47,1.36-1.17,2.04-2.14.53.4,1.59,1.33,1.57,2.39v.25l.22.1s.24.11.47.35l-.63.2h-.03s-.91.47-.22,1.92c.55,1.16,1.13,1.84,1.15,1.86l.27.3.28-.29c.06-.06,1.44-1.51,1.43-3.24l.23-1.02v-1.15l-.02-.06h0Z"/>
  <path class="st2" d="M307.74,72.12s3.1,4.27,8.39.59c0,0-.8,1.89-3.06,2.55,0,0,3.87.62,5.65-3.62,0,0,.78-2.6.64-3.68s.86-2.63.86-2.63c0,0,.53-.78,1.23-1.08.04-.28.1-.58.18-.89h0c.03-.12.06-.23.1-.35l.02-.05c-1.19-.48-3.51-.89-5.55,1.73,0,0-.76,1-.96,3.01-.19,2.01-4.01,1.77-4.01,1.77,0,0-1.58-.12-2.41-2.08,0,0,0,2.87,1.6,3.85,0,0,.96.72,2.09.44,0,0-2.04,2.14-4.77.43"/>
  <path class="st2" d="M351.28,86.75c-8.9-3.79-16.99-4.87-22.57-5.13l.06-.07c.32-.35.76-1.27.25-2.26l.11-1.53-.06-.1c-.04-.07-.4-.7-.87-1.03-.17-.16-.47-1.15-.66-2.14,0-.14,0-1.04.95-1.39,1.37-.51,3.07-2.67,3.14-2.77.03-.04.71-.93.71-2.59.15-.3.61-1.26.64-2.14.38-.04,1.03-.13,1.84-.32l-.04.11-.04.08.39,1.32.21-.06c1.44-.41,4.3-.83,4.32-.83l.25-.04-.07-.24c-.19-.67-1.47-1-2.39-1.15h0c1.21-.47,2.52-1.13,3.78-2.06.34-.25,1.18-.75,1.61-.69.74.1,2.04-.23,2.26-.29.66-.11,1.4-.12,1.57-.03.47.6.32,1.5-.45,2.68-.19.2-.56.66-.43,1.06h0l-.89-.43-.18.14c-.05.04-1.31,1-1.26,3.39v.41l.42-.05c.09-.01,2.31-.28,3.2-1.35.55-.66.85-.81.92-.84h.75v-2.24c.02-.82.23-2.28.7-2.74.74-.73.42-1.62.02-2.05-.09-.1-.62-.7-1.29-.88h-.96c-.11-.04-.32-.1-.52-.2-.03-.22-.06-.42-.1-.62l-.04-.2c-.21-1.1-.49-1.98-.7-2.54-.05-.12-.09-.23-.13-.32-.11-.26-.18-.4-.18-.4-.15-.36-.49-1.04-1.11-1.68v-1.21h-1l-1.54-4.2h0c-.08-.21-.21-.55-.33-.95.22.16.49.3.81.38,1.21.32,1.3,1.73,1.3,1.79v.05l.02.05c.02.07.25.72.81.97.29.14.63.14.96,0,.88-.35,1.22-.72,1.31-.84.14-.15.6-.77.16-1.86-.37-.92-.76-2.37-.84-3.07.27-.2.56-.54.56-1v-.13l-.3-.38.06-.11c.12-.26.28-.69.45-1.26l.03-.04h-.01l.17-.56-.56.11c-.05,0-.54-.34-.95-.61-.41-.28-.59-.79-.45-1.26v-.02l.35-1.13-.93.73s-.67.52-1.13,1.08c-.68-.41-2.41-1.27-4.41-.9l-.4.08.38,1.29c-.61-.18-1.51-.33-2.32.02l-.54.23.86.78c-.61.09-1.43.32-2.18.87l-.28.21c-.45-.34-.95-.65-.95-.65.05-.2.08-.47.11-.75h0v-.02c.07-.73.08-1.56.08-1.56.32-.32.45-.78.33-1.21-.04-.16-.1-.29-.17-.42h0c-.18-.34-.4-.54-.4-.54,0,0-.11-.14-.31-.32h0c-.18-.17-.44-.37-.76-.56-.13-.08-.29-.12-.45-.15l-.17-.02c-.8-.07-1.59.24-2.17.78l-.08.08h0c-.16.16-.35.33-.55.54-.12.13-.21.3-.28.51h0c-.36,1.18.12,3.36.12,3.36l-.31-.05-3.13-10.55c1.32-1.04,3.07-1.28,4.4-1.28h.03c-.54.35-.82.67-.85.7l-.28.32,1.07,1.14.3-.12c1.51-.6,3.05-.52,4.56.23,1.15.58,1.86,1.36,1.87,1.36l.54.6.25-.76c.23-.69.65-1.07.65-1.07l.22-.19-.07-.28c-.09-.35-.18-.63-.26-.83.67-.26,1.1-.62,1.12-.64l.34-.29-.28-.35c-.3-.38-.13-.83-.12-.84l.62-1.85-.61-.03c-1.29-.07-4.81-.51-5.67-1.69-.16-.23-.2-.46-.13-.74.19-.68.13-1.26-.17-1.72-.32-.5-.9-.81-1.73-.93-.85-.13-1.73,0-2.55.35-3.07,1.33-5.55,1.05-5.58,1.04h0l-.29-.99h-.03l.09-.7-.29-.29-1.33-1.53-.36,2.15.79.93,5.74,19.34c-.18.1-.33.23-.4.38-.15.33-.14.81-.1,1.17.04.32-.1.63-.36.82l-.08.06h0c-.28.22-.63.58-.95,1.12l-.15.21-.23.26c-1.22,1.25-4.37,3.2-4.37,3.2l1.31.28c-2.33,1.92-4.48,2.86-6.36,3.24-4.74.84-7.75-1.72-7.75-1.72,0,0,.13.74.65,1.67h0c.3.54.73,1.14,1.33,1.7h0c.48.45,1.06.86,1.78,1.19h0l.02.02c.58.27,1.23.48,1.99.63h.02l-1.16.21-1.56.12c-.15-.04-.3-.08-.44-.14,0,0,.57.66,3.37,1.02l-.95.44c-.16.07-.33.13-.46.18l.89,1.17.42.55.38.5s.11.1.34.22h0c.3.17.81.38,1.53.44l.08.02h.1c.47.02,1.01-.02,1.64-.16h0c.76-.17,1.63-.5,2.62-1.05,0,0,.9-.42,2-1.18h0l.82-.11h.17c-.46.43-.97.85-1.56,1.19,0,0,2.94-.57,5.08-2.62l.03-.02.04-.05c.32-.31.61-.65.88-1.03l.15.93v.02l-.24,1.31-.34.7c-.13.05-.27.11-.41.16-3.01,1.1-4.22,3.22-4.69,4.79-.04.11-.07.23-.1.34h0c-.08.31-.14.6-.18.88-.16,1.07-.06,1.85-.05,1.96,0,.14.19,1.85.65,2.99.35.85-.5,1.91-.59,2.02l-1.24,1.24c-.1.1-.64.71.04,1.73.49.75.83,2.02.85,2.12.03.12.37,1.87.14,3.16l-.06.3,1.15.46v1.38c-8.74-.02-17.39-.04-26.17-.06v18.01h68.03c-.01-1.63.01-3.26,0-4.9-3.4-2.57-7.98-5.46-13.68-7.89M323.29,23.21c.87.04,3.06,0,5.67-1.14.66-.29,1.37-.38,2.04-.28.38.06.87.19,1.08.52.15.22.16.55.05.96-.15.55-.06,1.08.27,1.53,1.05,1.45,4.35,1.91,5.77,2.04l-.22.65c-.11.28-.19.81.01,1.33-.23.14-.56.3-.95.39l-.72.14.43.58s.16.27.32.84c-.12.14-.28.35-.43.61-.36-.31-.91-.72-1.61-1.08-.98-.5-1.99-.74-3-.74-.69,0-1.38.12-2.06.35l-.03-.03c.35-.28.98-.69,1.88-.86l2.28-.44-2.27-.48c-.18-.04-4.03-.82-6.77,1.08l-1.77-5.96h.03ZM323.81,74.33s.06-.45.39-.9c.02.14.07.28.14.43l.02.04.02.03s1.21,1.56,1.51,2.86c.23,1.02.13,1.39.11,1.45l-.22.3.88.57c-.43.27-.61.64-.63.68l-.02.03v.03l-.02.05c-.27-.21-.62-.42-1.09-.59v-.4c0-.09-.1-.58-.8-1.31-.37-.39-.4-2.15-.3-3.27M326.85,81.18s-.02-.11-.07-.26c.14.13.31.35.43.56l.06.11h-.36s-.06-.41-.06-.41Z"/>
  <g>
    <g>
      <path class="st1" d="M61.43,91.3v.09c.33.15.84.59,1.06.86l.92-1.01c-.2-.33-.72-.79-1.14-.98l-.84,1.04Z"/>
      <path class="st1" d="M148.24,98.08c0-.4.49-.97,1.3-.97.46,0,.73.18.75.65h.09c.01-.09.05-.22.05-.39,0-.52-.35-.91-.87-.91-.82,0-1.51.98-1.51,1.93,0,.55.38.93,1.11,1.04-.55.28-.99.72-1.19,1.26h.09c.46-.51,1.44-1.06,2.82-1.33.05-.24.16-.53.29-.72v-.09c-.29.13-1.12.26-1.7.26-.78,0-1.24-.37-1.24-.73"/>
      <path class="st1" d="M190.84,97.13c-.46,0-1.6.04-2.71.12-.05.24-.27.85-.4,1.06.82-.07,2.56-.11,2.93-.11.85,0,1.14.11,1.14.39h.09c.05-.33.22-.67.22-.91,0-.42-.42-.55-1.27-.55"/>
      <g>
        <path class="st1" d="M66.31,89.68c-.15.46-.41,1.06-.64,1.33.99,1.38,1.38,2.21,1.38,2.82,0,1.66-1.9,3.13-4.71,3.13-2.34,0-3.69-1.1-3.69-3,0-.78.18-1.79.52-2.57h-.15c-.49,1.15-.73,2.3-.73,3.42,0,2.4,1.38,3.77,3.86,3.77,3.1,0,5.11-1.88,5.11-5.11,0-1.93-.69-3.22-.88-3.77h-.09.02Z"/>
        <path class="st1" d="M143.01,93.13c-1.66,0-2.72-.82-2.72-1.85,0-1.1,1.43-1.97,2.77-1.97,1.14,0,1.79.4,1.79,1.01h.09c.33-1.25-.32-2.21-1.76-2.21-1.65,0-3.17,1.6-3.17,3.69,0,.82.32,1.5.91,1.87-.55.06-1.12.09-1.59.09h-61.18c-1.57,0-2.3-.59-2.3-2.43,0-1.66.09-3.69.09-5.62,0-1.38-.09-2.17-.09-2.94h-.09c-.24.41-.67.99-1.05,1.37.18,1.34.35,3.47.35,6.91,0,.69-.4,1.35-1.27,1.96.05-5.06-3.83-7.75-4.68-8.73h-.09c.04.53-.06,1.38-.16,1.83,2.9,2.11,4.65,4.58,4.84,6.97-.99.65-2.54,1.19-4.75,1.57v.09c.73.28,1.53.65,2.3.65,1.86,0,3.5-1.3,3.89-3.77h.07c-.04,3.13.79,3.77,2.66,3.77h61.18c2.49,0,3.92-.68,6.6-1.27.24-.51.73-1.27.95-1.51l-.02-.08c-.99.38-2.4.59-3.57.59"/>
        <path class="st1" d="M154.47,82.78h-.09c-.2.41-.65.99-.95,1.27.13.92.18,2.14.18,2.7,0,1.02-.16,1.96-.53,2.79-1.04-1.43-2.79-3.12-5.39-5.26h-.09c.04.53-.05,1.34-.16,1.73,2.53,1.54,4.24,3.02,5.29,4.24-.9,1.48-2.51,2.69-5.02,3.66v.09c1.28.65,1.88,1.47,3.57,1.47,1.86,0,3.03-.98,3.03-2.94,0-.73-.26-1.52-.84-2.43.75-1.24,1.11-2.74,1.11-4.65,0-1.2-.09-1.99-.09-2.67M154.1,92.81c0,.59-1.01,1.05-2.91,1.05-.79,0-1.33-.14-2.04-.41,1.74-.73,3.03-1.63,3.91-2.77.72.93,1.04,1.67,1.04,2.13"/>
        <path class="st1" d="M157.7,82.78c-.25.42-.69,1.06-1.06,1.4.2,1.15.73,9.13.65,11.47h.09c.38-1.8.65-2.36.65-5.34,0-2.76-.24-6.81-.24-7.55h-.09Z"/>
        <path class="st1" d="M166.78,89.62c-1.43,0-2.49,1.57-2.49,3.5,0,1.44.69,2.26,2.21,2.26,1.34,0,2.36-.69,2.61-1.8h.01c.05.32.07.67.07,1.04,0,1.87-3.38,3.82-6.35,3.99v.09c.66.19,1.48.69,2.32.69,2.21,0,4.26-2.07,4.26-5.26,0-2.94-1.04-4.51-2.66-4.51M166.59,93.86c-1.57,0-2.06-.65-2.06-1.3,0-.92.95-1.74,2.03-1.74,1.25,0,2.17.86,2.51,2.38-.78.44-1.58.66-2.46.66"/>
        <path class="st1" d="M177.64,84.08h-.09c-.05.33-.22.67-.22.91,0,.42.42.55,1.27.55.46,0,1.6-.04,2.71-.12.05-.24.27-.85.4-1.06-.82.07-2.56.11-2.93.11-.85,0-1.14-.11-1.14-.39"/>
        <path class="st1" d="M191.52,89.04c-.16.44-.48,1.15-.69,1.41.68.65,1.5,1.8,1.5,2.39,0,.52-1.08.93-3.11.93h-6.44c-1.44,0-2.21-.74-2.21-2.43,0-2.58-.14-3.72-.26-4.66h-.05c-.26.42-.68.88-.95,1.11.05.22.11.53.16.87-3.32,2.03-4.23,3.07-4.23,4.43,0,.92.59,1.47,1.83,1.47,1.61,0,2.45-.79,2.69-2.3h.09c.09,2.21,1.01,3.13,2.67,3.13h6.44c2.49,0,3.58-.92,3.58-2.82s-.77-3.09-.92-3.53h-.09ZM177.22,93c-1.14,0-1.54-.28-1.54-.79,0-.54.8-1.31,3.84-2.96.08.74.15,1.59.15,2.4,0,.73-.93,1.34-2.45,1.34"/>
        <path class="st1" d="M256.4,93.13c-1.66,0-2.72-.82-2.72-1.85,0-1.1,1.43-1.97,2.77-1.97,1.14,0,1.79.4,1.79,1.01h.09c.33-1.25-.32-2.21-1.75-2.21-1.65,0-3.17,1.6-3.17,3.69,0,.82.32,1.5.91,1.87-.55.06-1.13.09-1.59.09h-54.73c-1.7,0-2.3-.59-2.3-2.21,0-1.88.09-3.9.09-5.84,0-1.38-.09-2.21-.09-2.94h-.09c-.25.42-.69,1.06-1.06,1.4.28,1.58.38,2.32.46,8.17.04,2.3.78,3.04,2.7,3.04h54.73c2.49,0,3.92-.68,6.6-1.27.24-.51.73-1.27.95-1.51l-.02-.08c-.99.38-2.4.59-3.57.59"/>
        <path class="st1" d="M283.82,82.78c-.26.42-.69,1.04-1.06,1.4.2,1.02.88,7.01.88,8.73,0,.49-.65.86-2.21.86h0c-1.71,0-2.3-.59-2.3-2.21,0-1.88.09-3.9.09-5.84,0-1.38-.09-2.21-.09-2.94h-.09c-.26.41-.69,1.11-1.07,1.47.28,1.59.38,2.32.46,7.7,0,1.31-.78,1.83-2.21,1.83h-6.44c-1.19,0-1.97-.72-2.4-2.45-.81-3.11-1.04-3.84-1.18-4.49h-.09c-.06.22-.58,1.19-.78,1.47.65,1.28,1.19,3.44,1.19,3.99,0,.73-.92,1.57-2.85,1.57-1.53,0-1.98-.51-1.9-1.74h-.14c-.08.49-.14,1-.14,1.43,0,1.19.61,1.93,2.08,1.93,1.98,0,3.04-1.1,3.13-3.27h.09c.4,2.26,1.38,3.18,2.7,3.18h6.48c1.63,0,2.51-.69,2.53-2.67h.09c-.07,1.93.91,2.67,2.56,2.67h.04c.98,0,1.58-.13,1.9-.55.72-.86,1.07-2.45,1.07-3.64,0-2.89-.25-7.59-.25-8.41h-.09.01Z"/>
        <path class="st1" d="M69.61,57.44c-.45,0-1.11.01-1.96.05-.86.04-1.72.08-2.57.14-.07.25-.18.59-.34,1.04s-.29.75-.4.94c.62-.06,1.48-.11,2.58-.13,1.1-.04,1.87-.05,2.33-.05.67,0,1.15.05,1.44.14s.42.27.42.51h.14c.04-.21.11-.49.22-.84.12-.4.19-.68.19-.85,0-.35-.16-.61-.49-.75s-.85-.21-1.54-.21"/>
        <path class="st1" d="M79.98,53.65l1.63-1.78c-.18-.31-.46-.62-.86-.98-.4-.34-.78-.6-1.15-.77l-1.5,1.85v.14c.27.12.59.34.98.66s.68.61.91.87"/>
        <path class="st1" d="M64.32,54.27c.93.48,2.06.73,3.4.73,1.8,0,3.35-.26,4.61-.77,1.26-.52,2.21-1.25,2.86-2.19s.97-2.07.97-3.37c0-.37-.09-.68-.28-.95.54.02,1.22.04,2.06.04h.01c1.31,0,2.38-.15,3.2-.45.82-.31,1.44-.78,1.86-1.44s.67-1.53.74-2.63h.14c-.04.44-.05.74-.05.92,0,1.31.29,2.24.9,2.78s1.44.82,2.52.82h46.61c1.11,0,2.12-.12,3.05-.37.92-.25,1.71-.62,2.37-1.13,3.27.88,5.41,1.53,6.38,1.94.67-.73,1.19-1.54,1.55-2.44s.55-1.84.55-2.82c0-.75-.16-1.41-.49-1.98-.33-.58-.9-1.15-1.68-1.73s-1.93-1.25-3.42-2.01c-1.37-.72-2.43-1.3-3.17-1.72s-1.32-.8-1.72-1.13h-.14c-.01.38-.08.81-.19,1.3s-.24.91-.38,1.25c.22.09.6.27,1.12.54l.33.16c-.65.49-1.18,1.15-1.6,2-.42.84-.64,1.72-.64,2.63,0,.51.08.95.25,1.32.16.37.41.68.75.94-.59.09-1.4.14-2.43.14h-46.61c-.85,0-1.51-.11-1.99-.32s-.82-.53-1.02-.95c-.2-.44-.31-1-.31-1.7v-1.26h-.24c-.18,1.18-.42,2.06-.75,2.64s-.88.99-1.64,1.22-1.88.37-3.38.37c-2.8,0-4.84-.02-6.11-.06-1.27-.05-2.32-.13-3.14-.28-.31.77-.8,1.63-1.48,2.57v.14c.41.12.87.22,1.38.31s1.24.18,2.19.31c1.01.12,1.81.24,2.39.33.59.11,1.08.24,1.48.41.4.18.6.4.6.67,0,.35-.28.77-.85,1.21s-1.44.84-2.6,1.17c-1.17.32-2.58.48-4.26.48-1.25,0-2.31-.19-3.19-.57s-1.55-.92-2.01-1.63-.69-1.55-.69-2.56c0-.6.06-1.26.19-1.98s.29-1.37.52-1.94h-.25c-.38.87-.67,1.78-.87,2.73-.2.94-.29,1.9-.29,2.84,0,1.31.25,2.41.73,3.35s1.19,1.63,2.13,2.11M145.48,41.61c.64.44,1.1.85,1.35,1.22s.4.78.4,1.22c0,.26-.06.55-.19.88-.12.33-.28.62-.48.91-1.31-.48-3.04-.97-5.19-1.46.94-1.04,1.41-2.23,1.41-3.57,0-.29-.02-.58-.07-.85,1.2.66,2.13,1.21,2.77,1.65M136.36,41.14c0-.41.13-.8.4-1.17.27-.38.62-.67,1.06-.9.45-.22.92-.34,1.44-.34s1.04.13,1.53.4c.51.27.91.62,1.21,1.07s.46.93.46,1.44c0,.78-.91,1.54-2.71,2.3-1.07-.35-1.91-.77-2.51-1.26-.59-.48-.9-1-.9-1.55"/>
        <path class="st1" d="M156.06,31.43l1.63-1.77c-.18-.31-.46-.62-.86-.97s-.78-.6-1.15-.78l-1.5,1.85v.14c.28.13.62.35,1.01.67s.68.6.87.86"/>
        <path class="st1" d="M164.77,46.79c.41-.52.75-1.17,1.05-1.93.28-.77.51-1.57.65-2.4.14-.84.22-1.6.22-2.32,0-1.3-.02-2.71-.07-4.25s-.12-3.36-.2-5.45c-.01-.48-.04-1.08-.06-1.78s-.04-1.15-.04-1.35h-.14c-.27.44-.59.91-.97,1.4s-.73.91-1.06,1.25c.12.62.31,1.9.57,3.79s.48,3.79.68,5.68.29,3.23.29,4.03c0,.37-.29.66-.87.88-.59.22-1.45.34-2.6.34-.98,0-1.78-.29-2.39-.9s-1.1-1.57-1.43-2.91l-1.02-3.88c-.48-1.79-.78-2.94-.88-3.47h-.14c-.06.2-.27.65-.64,1.35-.37.69-.65,1.18-.85,1.44.33.65.65,1.41.94,2.27s.53,1.67.71,2.41c.18.75.27,1.26.27,1.53,0,.39-.18.75-.54,1.11-.35.35-.88.64-1.57.86s-1.5.33-2.44.33c-.84,0-1.47-.08-1.92-.26s-.77-.45-.94-.82c-.18-.38-.25-.9-.22-1.55h-.22c-.16,1.07-.25,1.91-.25,2.52,0,1.05.27,1.84.82,2.39.55.55,1.39.82,2.53.82,3.19,0,4.89-1.83,5.08-5.48h.14c.59,3.55,2.07,5.32,4.44,5.32h.07c.79,0,1.41-.07,1.88-.21.47-.14.84-.39,1.11-.75"/>
        <path class="st1" d="M170.94,47.26c0,.44,0,.75-.01.93h.14c.08-.34.21-.86.39-1.55.21-.79.37-1.46.47-2.01.11-.55.19-1.26.26-2.14.06-.87.09-2,.09-3.4,0-2.12-.08-5.14-.26-9.05-.07-1.41-.09-2.33-.09-2.76h-.14c-.27.44-.59.91-.97,1.41s-.73.92-1.05,1.24c.12.6.26,2.03.45,4.28.19,2.26.35,4.64.49,7.15s.21,4.48.21,5.9"/>
        <path class="st1" d="M180.23,53.68c.93.48,2.06.73,3.4.73,1.6,0,3.02-.31,4.23-.93s2.18-1.52,2.89-2.7c.71-1.18,1.1-2.6,1.18-4.25.6.81,1.45,1.22,2.53,1.22.88,0,1.64-.26,2.24-.78s1-1.28,1.2-2.29h.16c-.06.99.15,1.74.62,2.27s1.17.79,2.07.79c1.07,0,1.88-.4,2.46-1.21.58-.8.86-1.94.86-3.39,0-1.05-.12-1.96-.34-2.74-.22-.79-.51-1.59-.85-2.41-.04-.08-.09-.22-.18-.44h-.12c-.14.47-.33.94-.57,1.41s-.45.86-.66,1.17c.8.71,1.4,1.34,1.78,1.92.38.58.58,1.05.58,1.41,0,.2-.12.39-.38.57-.25.18-.58.33-1,.45-.42.12-.87.18-1.35.18-.6,0-1.12-.08-1.59-.26-.46-.18-.81-.42-1.06-.74.07-.47.14-.93.2-1.39.06-.45.11-.8.13-1.06h-.24c-.13.86-.33,1.54-.6,2.04s-.65.86-1.12,1.07c-.47.22-1.08.33-1.83.33-.59,0-1.11-.14-1.57-.44s-.9-.8-1.32-1.54c-.42-.73-.82-1.74-1.2-3.03h-.16c-.14.45-.32.92-.53,1.4s-.4.84-.55,1.05c.68,1.21,1.19,2.18,1.52,2.91.33.73.49,1.25.49,1.57,0,.8-.33,1.58-.97,2.3-.65.73-1.55,1.32-2.71,1.77-1.15.45-2.46.67-3.92.67-1.25,0-2.31-.19-3.19-.55-.88-.38-1.55-.91-2.01-1.61-.46-.71-.68-1.57-.68-2.57,0-.61.07-1.28.21-2.01s.33-1.43.59-2.1h-.24c-.84,1.86-1.26,3.78-1.26,5.77,0,1.31.25,2.41.73,3.35.48.92,1.19,1.63,2.12,2.11"/>
        <path class="st1" d="M205.41,51.46c-1.48.75-2.92,1.22-4.33,1.44v.14c.28.09.61.24,1,.42.53.25.99.45,1.39.58s.81.2,1.25.2c1.07,0,2.07-.37,3.02-1.08.94-.73,1.7-1.74,2.26-3.05.57-1.31.86-2.8.86-4.46,0-.73-.09-1.44-.27-2.12-.18-.68-.39-1.3-.64-1.84-.25-.54-.55-1.15-.92-1.85h-.14c-.14.42-.33.9-.59,1.43-.25.53-.48.95-.68,1.27.97.91,1.68,1.7,2.19,2.39.49.69.74,1.21.74,1.57,0,.69-.48,1.52-1.46,2.44-.98.93-2.2,1.77-3.67,2.52"/>
        <path class="st1" d="M212.73,35.98c.07,1.52.13,3.73.19,6.67.04,1.31.2,2.32.49,3.06.29.73.77,1.26,1.39,1.58.64.32,1.48.47,2.56.47h46.61c1.35,0,2.44-.13,3.22-.39.79-.26,1.4-.68,1.85-1.28.33.58.9,1,1.72,1.27.82.27,2.04.4,3.64.4h.08c.79,0,1.41-.07,1.88-.21s.84-.39,1.11-.75c.41-.52.75-1.17,1.05-1.93.29-.77.51-1.57.65-2.4s.22-1.6.22-2.32c0-1.3-.02-2.71-.07-4.25s-.12-3.36-.2-5.45c-.01-.49-.04-1.08-.06-1.78s-.04-1.15-.04-1.35h-.14c-.27.44-.59.91-.97,1.4s-.73.91-1.06,1.25c.12.62.31,1.9.57,3.79s.48,3.79.68,5.68c.2,1.88.29,3.23.29,4.03,0,.37-.29.66-.87.88s-1.45.34-2.6.34c-1.25,0-2.24-.02-2.94-.07.51-.41.9-.92,1.15-1.52.27-.6.4-1.25.4-1.97,0-.86-.14-1.6-.42-2.25s-.68-1.15-1.2-1.51-1.11-.54-1.78-.54c-.74,0-1.44.26-2.1.78s-1.19,1.22-1.59,2.11-.6,1.85-.6,2.89c0,.77.26,1.43.77,1.98-.57.06-1.27.09-2.14.09h-46.61c-.9,0-1.61-.12-2.14-.35-.53-.24-.92-.6-1.17-1.1s-.37-1.17-.37-2c0-.99.02-2.52.07-4.57.05-2.04.07-3.53.07-4.51,0-.82-.02-1.88-.08-3.2-.04-.67-.06-1.22-.06-1.65h-.14c-.27.44-.59.92-.97,1.41-.38.51-.73.92-1.05,1.24.19.97.33,1.83.42,2.6s.18,1.92.25,3.44M266.32,41.43c0-.37.16-.73.51-1.11.34-.38.78-.67,1.31-.91.54-.24,1.08-.35,1.65-.35s1.12.14,1.64.41c.51.27.92.62,1.24,1.07.31.45.46.92.46,1.41,0,.29-.14.59-.41.9s-.68.59-1.24.86-1.22.51-2.04.69c-.61-.22-1.15-.52-1.64-.87-.47-.35-.85-.72-1.11-1.08-.26-.38-.39-.71-.39-1.01"/>
        <polygon class="st1" points="273.01 25.4 267.35 27.92 267.24 28.65 272.92 26.11 273.01 25.4"/>
        <path class="st1" d="M269.82,30.69l-1.51,1.85v.14c.28.13.62.35,1.01.67s.68.6.87.85l1.63-1.77c-.18-.31-.46-.62-.86-.98-.4-.34-.78-.6-1.14-.78"/>
        <path class="st1" d="M283.45,41.36c.14,2.51.21,4.48.21,5.9,0,.44,0,.75-.01.93h.14c.08-.34.21-.86.39-1.55.21-.79.38-1.46.47-2.01.11-.55.19-1.26.26-2.14.06-.87.09-2.01.09-3.4,0-2.12-.08-5.14-.26-9.05-.07-1.41-.09-2.33-.09-2.76h-.14c-.27.44-.59.92-.97,1.41-.38.51-.73.92-1.05,1.24.12.6.27,2.03.45,4.29.19,2.26.35,4.64.49,7.15"/>
        <path class="st1" d="M61.6,77.85h1.99l.22-.08.09-.21-.09-.22-.22-.09-.16-.02-.14-.11c-.07-.09-.07-.25.02-.42l.28-.68c.53-1.14,1.3-2.06,2.31-2.76s2.14-1.1,3.4-1.18l1.94,4.62c.07.19.07.33,0,.42-.06.08-.15.13-.31.13l-.22.09-.09.22.09.21.22.08h4.69c.2,0,.29-.11.29-.29l-.08-.22-.21-.09c-.21,0-.44-.08-.65-.24-.22-.15-.38-.34-.48-.55l-5.61-13.37-.05-.08-.07-.06h-.02l-.02-.02-.13-.02h-.07l-.11.05-.05.06-.07.08-5.61,13.37c-.08.21-.25.4-.47.55-.22.15-.45.24-.66.24l-.21.09-.08.22c0,.2.09.29.29.29M67.26,67.21l1.78,4.25c-.84.08-1.64.31-2.38.65-.75.35-1.43.81-2.03,1.38l2.63-6.29h0Z"/>
        <path class="st1" d="M78.01,77.04c-.14.13-.31.19-.51.19l-.21.09-.08.22c0,.2.11.29.29.29h11.01c.2,0,.29-.09.29-.29v-3.46c0-.2-.09-.29-.29-.29l-.22.08-.09.21c0,.42-.08.84-.25,1.22s-.39.72-.67,1-.62.51-1,.67c-.39.16-.79.25-1.22.25h-3.75v-13.05c0-.2.06-.37.19-.49s.29-.19.49-.19l.21-.09.08-.22c0-.2-.09-.29-.29-.29h-4.49c-.2,0-.29.11-.29.29l.08.22.21.09c.2,0,.37.06.51.19.13.13.2.29.2.49v12.36c0,.2-.07.37-.2.49"/>
        <path class="st1" d="M105.85,63.51c.42,0,.84.08,1.21.25.39.16.72.39,1,.67s.51.62.67,1c.16.39.25.79.25,1.21l.09.21.22.08.2-.08.09-.21v-3.46l-.09-.21-.2-.08h-11.01c-.2,0-.29.11-.29.31l.08.22.21.09c.2,0,.37.06.49.19s.19.29.19.49v12.37c0,.2-.06.37-.19.49s-.29.19-.49.19l-.21.09-.08.22c0,.2.09.29.29.29h4.49c.2,0,.29-.09.29-.29l-.08-.22-.21-.09c-.2,0-.37-.06-.49-.19s-.19-.29-.19-.49v-5.88h2.01c.2,0,.37.06.51.19s.2.29.2.49.11.29.29.29.31-.09.31-.29v-1.99l-.08-.22-.21-.09-.21.09-.08.22c0,.19-.07.34-.2.48s-.31.2-.51.2h-2.01v-6.55s3.75,0,3.75,0Z"/>
        <path class="st1" d="M115.61,77.23l-.22.09-.09.22.09.21.22.08h4.69c.2,0,.31-.09.31-.29l-.08-.22-.21-.09c-.21,0-.44-.08-.65-.24-.22-.15-.38-.34-.48-.55l-5.61-13.37-.05-.08-.06-.06h-.02l-.02-.02-.13-.02h-.06l-.11.05-.05.06-.07.08-5.61,13.37c-.08.21-.25.4-.47.55s-.45.24-.66.24l-.21.09-.08.22c0,.2.11.29.29.29h1.99l.22-.08.09-.21-.09-.22-.22-.09-.16-.02-.14-.11c-.07-.11-.07-.25.02-.42l.28-.68c.53-1.14,1.3-2.06,2.31-2.76s2.14-1.1,3.4-1.18l1.94,4.62c.07.19.07.33,0,.42-.06.08-.15.13-.29.13M111.33,72.1c-.75.35-1.43.81-2.03,1.38l2.63-6.29,1.78,4.25c-.84.08-1.64.31-2.38.65"/>
        <path class="st1" d="M129.29,73.73l2.52,3.98c.06.11.14.15.26.15h3.93l.22-.08.09-.21-.09-.22-.22-.09c-.21,0-.45-.08-.71-.24s-.46-.34-.62-.55l-2.27-3.57c.79-.49,1.4-1.15,1.84-1.96.45-.8.66-1.67.66-2.6,0-.74-.14-1.44-.41-2.1-.28-.66-.66-1.22-1.14-1.72s-1.05-.88-1.7-1.17-1.34-.44-2.08-.45h-7.37c-.2,0-.31.11-.31.31l.08.22.21.09c.2,0,.37.06.49.19s.19.29.19.49v12.37c0,.2-.07.37-.19.49-.13.13-.29.19-.49.19l-.21.09-.08.22c0,.2.11.29.31.29h4.49c.2,0,.29-.09.29-.29l-.08-.22-.21-.09c-.2,0-.37-.06-.49-.19s-.19-.29-.19-.49v-2.83h3.3v-.02ZM125.99,63.51h3.55c.32.01.6.15.87.41.27.26.51.61.72,1.06.21.45.38.94.49,1.52.12.57.18,1.18.18,1.81s-.06,1.25-.18,1.83c-.12.58-.28,1.1-.52,1.55-.45.92-.97,1.39-1.58,1.44h-3.55v-9.62h.01Z"/>
        <path class="st1" d="M145.45,63.51c.42,0,.84.08,1.21.25.39.16.72.39,1,.67s.51.62.67,1c.16.39.25.79.25,1.21l.09.21.22.08c.2,0,.29-.09.29-.29v-3.46c0-.2-.11-.31-.29-.31h-11.01c-.2,0-.29.11-.29.31l.08.22.21.09c.2,0,.37.06.51.19.13.13.2.29.2.49v12.37c0,.2-.07.37-.2.49-.14.13-.31.19-.51.19l-.21.09-.08.22c0,.2.09.29.29.29h11.01c.2,0,.29-.09.29-.29v-3.46c0-.2-.11-.29-.29-.29l-.22.08-.09.21c0,.42-.08.84-.25,1.21-.16.39-.39.72-.67,1s-.62.51-1,.67c-.39.16-.79.25-1.21.25h-3.75v-6.57h2.01c.2,0,.37.06.51.19s.2.29.2.49.11.29.29.29.31-.09.31-.29v-1.99l-.08-.22-.21-.09-.21.09-.08.22c0,.19-.07.34-.2.48-.14.13-.31.2-.51.2h-2.01v-6.55h3.75v.04Z"/>
        <path class="st1" d="M160.28,70.9c-.28-.37-.62-.69-1.01-.98-.39-.28-.82-.48-1.3-.64l-3.59-.97c-.54-.18-.98-.48-1.31-.93s-.49-.95-.49-1.51c0-.35.07-.68.2-.99.14-.31.32-.58.54-.8s.49-.41.81-.54c.31-.13.64-.2.99-.2h.68c.53,0,1.02.11,1.48.29.46.2.87.47,1.22.82.35.35.62.75.82,1.21s.29.97.29,1.48c0,.2.11.29.29.29s.29-.11.29-.29v-4c0-.2-.09-.29-.29-.29s-.29.09-.29.29v.37c0,.14-.05.26-.15.35-.09.09-.21.14-.34.14-.12,0-.22-.05-.34-.13l-.02-.02c-.4-.35-.85-.64-1.35-.85s-1.05-.31-1.61-.31h-.68c-.61,0-1.19.12-1.72.35-.53.24-1,.55-1.4.95s-.72.87-.95,1.41-.35,1.12-.35,1.73c0,.48.08.95.24,1.41.15.46.38.87.65,1.24.28.38.61.69,1.01.98.4.28.84.48,1.31.64l3.59.97c.54.16.98.48,1.31.93s.49.95.49,1.51c0,.35-.07.68-.2.99-.13.31-.32.58-.54.8s-.49.41-.81.54-.64.2-.98.2h-1.63c-.53,0-1.02-.09-1.48-.29s-.87-.47-1.21-.82c-.34-.35-.61-.75-.81-1.21s-.31-.95-.31-1.48l-.09-.21-.22-.08c-.2,0-.29.11-.29.31v4c0,.2.09.29.29.29l.22-.08.09-.21v-.37c0-.14.05-.26.14-.35s.2-.14.33-.14c.14,0,.26.05.34.13h.02l.02.02c.39.35.84.64,1.33.85.51.21,1.05.31,1.61.31h1.63c.61,0,1.19-.12,1.72-.35.54-.24,1-.55,1.4-.95s.72-.87.95-1.41.35-1.12.35-1.73c0-.48-.08-.95-.24-1.41-.15-.46-.38-.87-.66-1.24"/>
        <path class="st1" d="M180.3,76.67c.07.19.07.33,0,.42-.06.08-.15.13-.29.13l-.22.09-.09.22.09.21.22.08h4.69c.2,0,.31-.09.31-.29l-.08-.22-.21-.09c-.21,0-.44-.08-.65-.24-.22-.15-.38-.34-.48-.55l-5.61-13.37-.05-.08-.06-.06h-.02l-.02-.02-.13-.02h-.06l-.11.05-.05.06-.07.08-5.61,13.37c-.08.21-.25.4-.47.55-.22.15-.45.24-.66.24l-.21.09-.08.22c0,.2.11.29.31.29h1.99l.22-.08.09-.21-.09-.22-.22-.09-.16-.02-.14-.11c-.07-.11-.06-.25.02-.42l.28-.68c.53-1.14,1.3-2.06,2.31-2.76s2.14-1.1,3.4-1.18l1.94,4.62h-.02ZM175.71,72.1c-.75.35-1.43.81-2.03,1.38l2.63-6.29,1.78,4.25c-.84.08-1.64.31-2.38.65"/>
        <path class="st1" d="M187.06,77.04c-.14.13-.31.19-.51.19l-.21.09-.08.22c0,.2.11.29.29.29h11.01c.2,0,.29-.09.29-.29v-3.46c0-.2-.09-.29-.29-.29l-.22.08-.09.21c0,.42-.08.84-.25,1.22s-.39.72-.67,1-.62.51-1,.67c-.39.16-.79.25-1.22.25h-3.75v-13.05c0-.2.06-.37.19-.49s.29-.19.49-.19l.21-.09.08-.22c0-.2-.09-.29-.29-.29h-4.49c-.2,0-.29.11-.29.29l.08.22.21.09c.2,0,.37.06.51.19.13.13.2.29.2.49v12.36c0,.2-.07.37-.2.49"/>
        <path class="st1" d="M207.84,77.04c-.13.13-.29.19-.49.19l-.21.09-.08.22c0,.2.11.29.31.29h6.48c1.02,0,2-.2,2.91-.59s1.71-.93,2.38-1.6c.67-.68,1.21-1.47,1.6-2.39.39-.91.59-1.88.59-2.91s-.2-2-.59-2.91c-.39-.91-.93-1.71-1.6-2.38s-1.47-1.21-2.38-1.6-1.88-.59-2.91-.59h-6.48c-.2,0-.31.11-.31.31l.08.22.21.09c.2,0,.37.06.49.19s.19.29.19.49v12.37c0,.2-.07.37-.19.49M211.16,63.51h2.65c.6,0,1.17.18,1.7.54s1,.86,1.4,1.47c.4.62.71,1.34.94,2.18.22.84.34,1.72.34,2.66s-.12,1.83-.34,2.66c-.22.84-.54,1.57-.94,2.18-.4.62-.87,1.11-1.4,1.47s-1.1.54-1.7.54h-2.65v-13.73.02Z"/>
        <path class="st1" d="M229.43,77.23l-.22.09-.09.22.09.21.22.08h4.69c.2,0,.31-.09.31-.29l-.08-.22-.21-.09c-.21,0-.44-.08-.65-.24-.22-.15-.38-.34-.48-.55l-5.61-13.37-.05-.08-.06-.06h-.02l-.02-.02-.13-.02h-.06l-.11.05-.05.06-.07.08-5.61,13.37c-.08.21-.25.4-.47.55-.22.15-.45.24-.66.24l-.21.09-.08.22c0,.2.11.29.31.29h1.99l.22-.08.09-.21-.09-.22-.22-.09-.16-.02-.14-.11c-.07-.11-.06-.25.02-.42l.28-.68c.53-1.14,1.3-2.06,2.31-2.76s2.14-1.1,3.4-1.18l1.94,4.62c.07.19.07.33,0,.42-.06.08-.15.13-.29.13M225.13,72.1c-.75.35-1.43.81-2.03,1.38l2.63-6.29,1.78,4.25c-.84.08-1.64.31-2.38.65"/>
        <path class="st1" d="M248.77,63.7c.13-.13.29-.19.48-.19l.22-.09.09-.22-.09-.21-.22-.08h-4.48l-.22.08-.09.21.09.22.22.09c.2,0,.37.06.49.19.13.13.19.29.19.49v5.88h-5.67v-5.88c0-.2.06-.37.19-.49.13-.13.29-.19.49-.19l.21-.09.08-.22c0-.2-.09-.29-.29-.29h-4.49c-.2,0-.29.09-.29.29l.08.22.21.09c.2,0,.37.06.51.19.13.13.2.29.2.49v12.36c0,.2-.07.37-.2.49-.14.13-.31.19-.51.19l-.21.09-.08.22c0,.2.09.29.29.29h4.49c.2,0,.29-.11.29-.29l-.08-.22-.21-.09c-.2,0-.37-.06-.49-.19-.13-.13-.19-.29-.19-.49v-5.88h5.67v5.88c0,.2-.06.37-.19.49-.13.13-.29.19-.49.19l-.22.09-.09.22.09.21.22.08h4.48l.22-.08.09-.21-.09-.22-.22-.09c-.19,0-.34-.06-.48-.19s-.2-.29-.2-.49v-12.36c0-.2.07-.37.2-.49"/>
        <path class="st1" d="M265.46,77.56l-.08-.22-.21-.09c-.21,0-.44-.08-.65-.24-.22-.15-.38-.34-.48-.55l-5.61-13.37-.05-.08-.06-.06h-.02l-.02-.02-.13-.02h-.06l-.11.05-.05.06-.06.08-5.61,13.37c-.08.21-.25.4-.47.55-.22.15-.45.24-.66.24l-.21.09-.08.22c0,.2.09.29.31.29h1.99l.22-.08.09-.21-.09-.22-.22-.09-.16-.02-.14-.11c-.07-.11-.06-.25.02-.42l.28-.68c.53-1.14,1.3-2.06,2.31-2.76s2.14-1.1,3.4-1.18l1.94,4.62c.07.19.07.33,0,.42-.06.08-.15.13-.29.13l-.22.09-.09.22.09.21.22.08h4.69c.2,0,.31-.09.31-.29M256.19,72.1c-.75.35-1.43.81-2.03,1.38l2.63-6.29,1.78,4.25c-.84.08-1.64.31-2.38.65"/>
        <path class="st1" d="M278.02,70.75c-.34-.25-.72-.42-1.13-.53.61-.33,1.11-.8,1.48-1.4s.57-1.28.57-2.04c0-.54-.09-1.05-.29-1.52s-.48-.88-.84-1.22c-.35-.35-.77-.62-1.22-.84s-.97-.31-1.51-.31h-8.02c-.2,0-.31.09-.31.31l.08.22.21.09c.2,0,.37.06.49.19.13.13.19.29.19.49v12.37c0,.2-.06.37-.19.49-.13.13-.29.19-.49.19l-.21.09-.08.22c0,.2.09.29.31.29h8.76c.54,0,1.05-.11,1.52-.31.47-.2.88-.48,1.22-.84s.62-.77.84-1.24c.2-.48.31-.98.31-1.51,0-.45-.07-.86-.21-1.26s-.34-.77-.59-1.1-.54-.61-.88-.86M270.86,63.51h4.19s.13.07.22.2c.09.13.18.34.27.62.08.28.15.62.21,1.02.06.41.08.88.08,1.43s-.02,1.01-.08,1.43c-.06.4-.13.75-.21,1.02-.08.28-.18.49-.27.64-.09.14-.16.21-.22.21h-4.19v-6.57ZM276.52,75.38c-.06.41-.13.75-.21,1.02-.08.28-.18.48-.27.62-.09.13-.16.2-.22.2h-4.96v-6.57h4.96s.13.07.22.21c.09.14.18.35.27.62.08.28.15.62.21,1.02.06.41.08.88.08,1.43s-.04,1.01-.08,1.43"/>
        <path class="st1" d="M285.01,77.23c-.2,0-.37-.06-.49-.19-.13-.13-.19-.29-.19-.49v-12.37c0-.2.06-.37.19-.49.13-.13.29-.19.49-.19l.21-.09.08-.22c0-.2-.11-.29-.29-.29h-4.49c-.2,0-.31.09-.31.29l.08.22.21.09c.2,0,.37.06.51.19s.2.29.2.49v12.37c0,.2-.07.37-.2.49-.13.13-.31.19-.51.19l-.21.09-.08.22c0,.2.11.29.31.29h4.49c.2,0,.29-.11.29-.29l-.08-.22-.21-.09Z"/>
      </g>
    </g>
    <g>
      <path class="st0" d="M61.43,91.3v.09c.33.15.84.59,1.06.86l.92-1.01c-.2-.33-.72-.79-1.14-.98l-.84,1.04Z"/>
      <path class="st0" d="M148.24,98.08c0-.4.49-.97,1.3-.97.46,0,.73.18.75.65h.09c.01-.09.05-.22.05-.39,0-.52-.35-.91-.87-.91-.82,0-1.51.98-1.51,1.93,0,.55.38.93,1.11,1.04-.55.28-.99.72-1.19,1.26h.09c.46-.51,1.44-1.06,2.82-1.33.05-.24.16-.53.29-.72v-.09c-.29.13-1.12.26-1.7.26-.78,0-1.24-.37-1.24-.73"/>
      <path class="st0" d="M190.84,97.13c-.46,0-1.6.04-2.71.12-.05.24-.27.85-.4,1.06.82-.07,2.56-.11,2.93-.11.85,0,1.14.11,1.14.39h.09c.05-.33.22-.67.22-.91,0-.42-.42-.55-1.27-.55"/>
      <g>
        <path class="st0" d="M66.31,89.68c-.15.46-.41,1.06-.64,1.33.99,1.38,1.38,2.21,1.38,2.82,0,1.66-1.9,3.13-4.71,3.13-2.34,0-3.69-1.1-3.69-3,0-.78.18-1.79.52-2.57h-.15c-.49,1.15-.73,2.3-.73,3.42,0,2.4,1.38,3.77,3.86,3.77,3.1,0,5.11-1.88,5.11-5.11,0-1.93-.69-3.22-.88-3.77h-.09.02Z"/>
        <path class="st0" d="M143.01,93.13c-1.66,0-2.72-.82-2.72-1.85,0-1.1,1.43-1.97,2.77-1.97,1.14,0,1.79.4,1.79,1.01h.09c.33-1.25-.32-2.21-1.76-2.21-1.65,0-3.17,1.6-3.17,3.69,0,.82.32,1.5.91,1.87-.55.06-1.12.09-1.59.09h-61.18c-1.57,0-2.3-.59-2.3-2.43,0-1.66.09-3.69.09-5.62,0-1.38-.09-2.17-.09-2.94h-.09c-.24.41-.67.99-1.05,1.37.18,1.34.35,3.47.35,6.91,0,.69-.4,1.35-1.27,1.96.05-5.06-3.83-7.75-4.68-8.73h-.09c.04.53-.06,1.38-.16,1.83,2.9,2.11,4.65,4.58,4.84,6.97-.99.65-2.54,1.19-4.75,1.57v.09c.73.28,1.53.65,2.3.65,1.86,0,3.5-1.3,3.89-3.77h.07c-.04,3.13.79,3.77,2.66,3.77h61.18c2.49,0,3.92-.68,6.6-1.27.24-.51.73-1.27.95-1.51l-.02-.08c-.99.38-2.4.59-3.57.59"/>
        <path class="st0" d="M154.47,82.78h-.09c-.2.41-.65.99-.95,1.27.13.92.18,2.14.18,2.7,0,1.02-.16,1.96-.53,2.79-1.04-1.43-2.79-3.12-5.39-5.26h-.09c.04.53-.05,1.34-.16,1.73,2.53,1.54,4.24,3.02,5.29,4.24-.9,1.48-2.51,2.69-5.02,3.66v.09c1.28.65,1.88,1.47,3.57,1.47,1.86,0,3.03-.98,3.03-2.94,0-.73-.26-1.52-.84-2.43.75-1.24,1.11-2.74,1.11-4.65,0-1.2-.09-1.99-.09-2.67M154.1,92.81c0,.59-1.01,1.05-2.91,1.05-.79,0-1.33-.14-2.04-.41,1.74-.73,3.03-1.63,3.91-2.77.72.93,1.04,1.67,1.04,2.13"/>
        <path class="st0" d="M157.7,82.78c-.25.42-.69,1.06-1.06,1.4.2,1.15.73,9.13.65,11.47h.09c.38-1.8.65-2.36.65-5.34,0-2.76-.24-6.81-.24-7.55h-.09Z"/>
        <path class="st0" d="M166.78,89.62c-1.43,0-2.49,1.57-2.49,3.5,0,1.44.69,2.26,2.21,2.26,1.34,0,2.36-.69,2.61-1.8h.01c.05.32.07.67.07,1.04,0,1.87-3.38,3.82-6.35,3.99v.09c.66.19,1.48.69,2.32.69,2.21,0,4.26-2.07,4.26-5.26,0-2.94-1.04-4.51-2.66-4.51M166.59,93.86c-1.57,0-2.06-.65-2.06-1.3,0-.92.95-1.74,2.03-1.74,1.25,0,2.17.86,2.51,2.38-.78.44-1.58.66-2.46.66"/>
        <path class="st0" d="M177.64,84.08h-.09c-.05.33-.22.67-.22.91,0,.42.42.55,1.27.55.46,0,1.6-.04,2.71-.12.05-.24.27-.85.4-1.06-.82.07-2.56.11-2.93.11-.85,0-1.14-.11-1.14-.39"/>
        <path class="st0" d="M191.52,89.04c-.16.44-.48,1.15-.69,1.41.68.65,1.5,1.8,1.5,2.39,0,.52-1.08.93-3.11.93h-6.44c-1.44,0-2.21-.74-2.21-2.43,0-2.58-.14-3.72-.26-4.66h-.05c-.26.42-.68.88-.95,1.11.05.22.11.53.16.87-3.32,2.03-4.23,3.07-4.23,4.43,0,.92.59,1.47,1.83,1.47,1.61,0,2.45-.79,2.69-2.3h.09c.09,2.21,1.01,3.13,2.67,3.13h6.44c2.49,0,3.58-.92,3.58-2.82s-.77-3.09-.92-3.53h-.09ZM177.22,93c-1.14,0-1.54-.28-1.54-.79,0-.54.8-1.31,3.84-2.96.08.74.15,1.59.15,2.4,0,.73-.93,1.34-2.45,1.34"/>
        <path class="st0" d="M256.4,93.13c-1.66,0-2.72-.82-2.72-1.85,0-1.1,1.43-1.97,2.77-1.97,1.14,0,1.79.4,1.79,1.01h.09c.33-1.25-.32-2.21-1.75-2.21-1.65,0-3.17,1.6-3.17,3.69,0,.82.32,1.5.91,1.87-.55.06-1.13.09-1.59.09h-54.73c-1.7,0-2.3-.59-2.3-2.21,0-1.88.09-3.9.09-5.84,0-1.38-.09-2.21-.09-2.94h-.09c-.25.42-.69,1.06-1.06,1.4.28,1.58.38,2.32.46,8.17.04,2.3.78,3.04,2.7,3.04h54.73c2.49,0,3.92-.68,6.6-1.27.24-.51.73-1.27.95-1.51l-.02-.08c-.99.38-2.4.59-3.57.59"/>
        <path class="st0" d="M283.82,82.78c-.26.42-.69,1.04-1.06,1.4.2,1.02.88,7.01.88,8.73,0,.49-.65.86-2.21.86h0c-1.71,0-2.3-.59-2.3-2.21,0-1.88.09-3.9.09-5.84,0-1.38-.09-2.21-.09-2.94h-.09c-.26.41-.69,1.11-1.07,1.47.28,1.59.38,2.32.46,7.7,0,1.31-.78,1.83-2.21,1.83h-6.44c-1.19,0-1.97-.72-2.4-2.45-.81-3.11-1.04-3.84-1.18-4.49h-.09c-.06.22-.58,1.19-.78,1.47.65,1.28,1.19,3.44,1.19,3.99,0,.73-.92,1.57-2.85,1.57-1.53,0-1.98-.51-1.9-1.74h-.14c-.08.49-.14,1-.14,1.43,0,1.19.61,1.93,2.08,1.93,1.98,0,3.04-1.1,3.13-3.27h.09c.4,2.26,1.38,3.18,2.7,3.18h6.48c1.63,0,2.51-.69,2.53-2.67h.09c-.07,1.93.91,2.67,2.56,2.67h.04c.98,0,1.58-.13,1.9-.55.72-.86,1.07-2.45,1.07-3.64,0-2.89-.25-7.59-.25-8.41h-.09.01Z"/>
        <path class="st0" d="M69.61,57.44c-.45,0-1.11.01-1.96.05-.86.04-1.72.08-2.57.14-.07.25-.18.59-.34,1.04s-.29.75-.4.94c.62-.06,1.48-.11,2.58-.13,1.1-.04,1.87-.05,2.33-.05.67,0,1.15.05,1.44.14s.42.27.42.51h.14c.04-.21.11-.49.22-.84.12-.4.19-.68.19-.85,0-.35-.16-.61-.49-.75s-.85-.21-1.54-.21"/>
        <path class="st0" d="M79.98,53.65l1.63-1.78c-.18-.31-.46-.62-.86-.98-.4-.34-.78-.6-1.15-.77l-1.5,1.85v.14c.27.12.59.34.98.66s.68.61.91.87"/>
        <path class="st0" d="M64.32,54.27c.93.48,2.06.73,3.4.73,1.8,0,3.35-.26,4.61-.77,1.26-.52,2.21-1.25,2.86-2.19s.97-2.07.97-3.37c0-.37-.09-.68-.28-.95.54.02,1.22.04,2.06.04h.01c1.31,0,2.38-.15,3.2-.45.82-.31,1.44-.78,1.86-1.44s.67-1.53.74-2.63h.14c-.04.44-.05.74-.05.92,0,1.31.29,2.24.9,2.78s1.44.82,2.52.82h46.61c1.11,0,2.12-.12,3.05-.37.92-.25,1.71-.62,2.37-1.13,3.27.88,5.41,1.53,6.38,1.94.67-.73,1.19-1.54,1.55-2.44s.55-1.84.55-2.82c0-.75-.16-1.41-.49-1.98-.33-.58-.9-1.15-1.68-1.73s-1.93-1.25-3.42-2.01c-1.37-.72-2.43-1.3-3.17-1.72s-1.32-.8-1.72-1.13h-.14c-.01.38-.08.81-.19,1.3s-.24.91-.38,1.25c.22.09.6.27,1.12.54l.33.16c-.65.49-1.18,1.15-1.6,2-.42.84-.64,1.72-.64,2.63,0,.51.08.95.25,1.32.16.37.41.68.75.94-.59.09-1.4.14-2.43.14h-46.61c-.85,0-1.51-.11-1.99-.32s-.82-.53-1.02-.95c-.2-.44-.31-1-.31-1.7v-1.26h-.24c-.18,1.18-.42,2.06-.75,2.64s-.88.99-1.64,1.22-1.88.37-3.38.37c-2.8,0-4.84-.02-6.11-.06-1.27-.05-2.32-.13-3.14-.28-.31.77-.8,1.63-1.48,2.57v.14c.41.12.87.22,1.38.31s1.24.18,2.19.31c1.01.12,1.81.24,2.39.33.59.11,1.08.24,1.48.41.4.18.6.4.6.67,0,.35-.28.77-.85,1.21s-1.44.84-2.6,1.17c-1.17.32-2.58.48-4.26.48-1.25,0-2.31-.19-3.19-.57s-1.55-.92-2.01-1.63-.69-1.55-.69-2.56c0-.6.06-1.26.19-1.98s.29-1.37.52-1.94h-.25c-.38.87-.67,1.78-.87,2.73-.2.94-.29,1.9-.29,2.84,0,1.31.25,2.41.73,3.35s1.19,1.63,2.13,2.11M145.48,41.61c.64.44,1.1.85,1.35,1.22s.4.78.4,1.22c0,.26-.06.55-.19.88-.12.33-.28.62-.48.91-1.31-.48-3.04-.97-5.19-1.46.94-1.04,1.41-2.23,1.41-3.57,0-.29-.02-.58-.07-.85,1.2.66,2.13,1.21,2.77,1.65M136.36,41.14c0-.41.13-.8.4-1.17.27-.38.62-.67,1.06-.9.45-.22.92-.34,1.44-.34s1.04.13,1.53.4c.51.27.91.62,1.21,1.07s.46.93.46,1.44c0,.78-.91,1.54-2.71,2.3-1.07-.35-1.91-.77-2.51-1.26-.59-.48-.9-1-.9-1.55"/>
        <path class="st0" d="M156.06,31.43l1.63-1.77c-.18-.31-.46-.62-.86-.97s-.78-.6-1.15-.78l-1.5,1.85v.14c.28.13.62.35,1.01.67s.68.6.87.86"/>
        <path class="st0" d="M164.77,46.79c.41-.52.75-1.17,1.05-1.93.28-.77.51-1.57.65-2.4.14-.84.22-1.6.22-2.32,0-1.3-.02-2.71-.07-4.25s-.12-3.36-.2-5.45c-.01-.48-.04-1.08-.06-1.78s-.04-1.15-.04-1.35h-.14c-.27.44-.59.91-.97,1.4s-.73.91-1.06,1.25c.12.62.31,1.9.57,3.79s.48,3.79.68,5.68.29,3.23.29,4.03c0,.37-.29.66-.87.88-.59.22-1.45.34-2.6.34-.98,0-1.78-.29-2.39-.9s-1.1-1.57-1.43-2.91l-1.02-3.88c-.48-1.79-.78-2.94-.88-3.47h-.14c-.06.2-.27.65-.64,1.35-.37.69-.65,1.18-.85,1.44.33.65.65,1.41.94,2.27s.53,1.67.71,2.41c.18.75.27,1.26.27,1.53,0,.39-.18.75-.54,1.11-.35.35-.88.64-1.57.86s-1.5.33-2.44.33c-.84,0-1.47-.08-1.92-.26s-.77-.45-.94-.82c-.18-.38-.25-.9-.22-1.55h-.22c-.16,1.07-.25,1.91-.25,2.52,0,1.05.27,1.84.82,2.39.55.55,1.39.82,2.53.82,3.19,0,4.89-1.83,5.08-5.48h.14c.59,3.55,2.07,5.32,4.44,5.32h.07c.79,0,1.41-.07,1.88-.21.47-.14.84-.39,1.11-.75"/>
        <path class="st0" d="M170.94,47.26c0,.44,0,.75-.01.93h.14c.08-.34.21-.86.39-1.55.21-.79.37-1.46.47-2.01.11-.55.19-1.26.26-2.14.06-.87.09-2,.09-3.4,0-2.12-.08-5.14-.26-9.05-.07-1.41-.09-2.33-.09-2.76h-.14c-.27.44-.59.91-.97,1.41s-.73.92-1.05,1.24c.12.6.26,2.03.45,4.28.19,2.26.35,4.64.49,7.15s.21,4.48.21,5.9"/>
        <path class="st0" d="M180.23,53.68c.93.48,2.06.73,3.4.73,1.6,0,3.02-.31,4.23-.93s2.18-1.52,2.89-2.7c.71-1.18,1.1-2.6,1.18-4.25.6.81,1.45,1.22,2.53,1.22.88,0,1.64-.26,2.24-.78s1-1.28,1.2-2.29h.16c-.06.99.15,1.74.62,2.27s1.17.79,2.07.79c1.07,0,1.88-.4,2.46-1.21.58-.8.86-1.94.86-3.39,0-1.05-.12-1.96-.34-2.74-.22-.79-.51-1.59-.85-2.41-.04-.08-.09-.22-.18-.44h-.12c-.14.47-.33.94-.57,1.41s-.45.86-.66,1.17c.8.71,1.4,1.34,1.78,1.92.38.58.58,1.05.58,1.41,0,.2-.12.39-.38.57-.25.18-.58.33-1,.45-.42.12-.87.18-1.35.18-.6,0-1.12-.08-1.59-.26-.46-.18-.81-.42-1.06-.74.07-.47.14-.93.2-1.39.06-.45.11-.8.13-1.06h-.24c-.13.86-.33,1.54-.6,2.04s-.65.86-1.12,1.07c-.47.22-1.08.33-1.83.33-.59,0-1.11-.14-1.57-.44s-.9-.8-1.32-1.54c-.42-.73-.82-1.74-1.2-3.03h-.16c-.14.45-.32.92-.53,1.4s-.4.84-.55,1.05c.68,1.21,1.19,2.18,1.52,2.91.33.73.49,1.25.49,1.57,0,.8-.33,1.58-.97,2.3-.65.73-1.55,1.32-2.71,1.77-1.15.45-2.46.67-3.92.67-1.25,0-2.31-.19-3.19-.55-.88-.38-1.55-.91-2.01-1.61-.46-.71-.68-1.57-.68-2.57,0-.61.07-1.28.21-2.01s.33-1.43.59-2.1h-.24c-.84,1.86-1.26,3.78-1.26,5.77,0,1.31.25,2.41.73,3.35.48.92,1.19,1.63,2.12,2.11"/>
        <path class="st0" d="M205.41,51.46c-1.48.75-2.92,1.22-4.33,1.44v.14c.28.09.61.24,1,.42.53.25.99.45,1.39.58s.81.2,1.25.2c1.07,0,2.07-.37,3.02-1.08.94-.73,1.7-1.74,2.26-3.05.57-1.31.86-2.8.86-4.46,0-.73-.09-1.44-.27-2.12-.18-.68-.39-1.3-.64-1.84-.25-.54-.55-1.15-.92-1.85h-.14c-.14.42-.33.9-.59,1.43-.25.53-.48.95-.68,1.27.97.91,1.68,1.7,2.19,2.39.49.69.74,1.21.74,1.57,0,.69-.48,1.52-1.46,2.44-.98.93-2.2,1.77-3.67,2.52"/>
        <path class="st0" d="M212.73,35.98c.07,1.52.13,3.73.19,6.67.04,1.31.2,2.32.49,3.06.29.73.77,1.26,1.39,1.58.64.32,1.48.47,2.56.47h46.61c1.35,0,2.44-.13,3.22-.39.79-.26,1.4-.68,1.85-1.28.33.58.9,1,1.72,1.27.82.27,2.04.4,3.64.4h.08c.79,0,1.41-.07,1.88-.21s.84-.39,1.11-.75c.41-.52.75-1.17,1.05-1.93.29-.77.51-1.57.65-2.4s.22-1.6.22-2.32c0-1.3-.02-2.71-.07-4.25s-.12-3.36-.2-5.45c-.01-.49-.04-1.08-.06-1.78s-.04-1.15-.04-1.35h-.14c-.27.44-.59.91-.97,1.4s-.73.91-1.06,1.25c.12.62.31,1.9.57,3.79s.48,3.79.68,5.68c.2,1.88.29,3.23.29,4.03,0,.37-.29.66-.87.88s-1.45.34-2.6.34c-1.25,0-2.24-.02-2.94-.07.51-.41.9-.92,1.15-1.52.27-.6.4-1.25.4-1.97,0-.86-.14-1.6-.42-2.25s-.68-1.15-1.2-1.51-1.11-.54-1.78-.54c-.74,0-1.44.26-2.1.78s-1.19,1.22-1.59,2.11-.6,1.85-.6,2.89c0,.77.26,1.43.77,1.98-.57.06-1.27.09-2.14.09h-46.61c-.9,0-1.61-.12-2.14-.35-.53-.24-.92-.6-1.17-1.1s-.37-1.17-.37-2c0-.99.02-2.52.07-4.57.05-2.04.07-3.53.07-4.51,0-.82-.02-1.88-.08-3.2-.04-.67-.06-1.22-.06-1.65h-.14c-.27.44-.59.92-.97,1.41-.38.51-.73.92-1.05,1.24.19.97.33,1.83.42,2.6s.18,1.92.25,3.44M266.32,41.43c0-.37.16-.73.51-1.11.34-.38.78-.67,1.31-.91.54-.24,1.08-.35,1.65-.35s1.12.14,1.64.41c.51.27.92.62,1.24,1.07.31.45.46.92.46,1.41,0,.29-.14.59-.41.9s-.68.59-1.24.86-1.22.51-2.04.69c-.61-.22-1.15-.52-1.64-.87-.47-.35-.85-.72-1.11-1.08-.26-.38-.39-.71-.39-1.01"/>
        <polygon class="st0" points="273.01 25.4 267.35 27.92 267.24 28.65 272.92 26.11 273.01 25.4"/>
        <path class="st0" d="M269.82,30.69l-1.51,1.85v.14c.28.13.62.35,1.01.67s.68.6.87.85l1.63-1.77c-.18-.31-.46-.62-.86-.98-.4-.34-.78-.6-1.14-.78"/>
        <path class="st0" d="M283.45,41.36c.14,2.51.21,4.48.21,5.9,0,.44,0,.75-.01.93h.14c.08-.34.21-.86.39-1.55.21-.79.38-1.46.47-2.01.11-.55.19-1.26.26-2.14.06-.87.09-2.01.09-3.4,0-2.12-.08-5.14-.26-9.05-.07-1.41-.09-2.33-.09-2.76h-.14c-.27.44-.59.92-.97,1.41-.38.51-.73.92-1.05,1.24.12.6.27,2.03.45,4.29.19,2.26.35,4.64.49,7.15"/>
        <path class="st0" d="M61.6,77.85h1.99l.22-.08.09-.21-.09-.22-.22-.09-.16-.02-.14-.11c-.07-.09-.07-.25.02-.42l.28-.68c.53-1.14,1.3-2.06,2.31-2.76s2.14-1.1,3.4-1.18l1.94,4.62c.07.19.07.33,0,.42-.06.08-.15.13-.31.13l-.22.09-.09.22.09.21.22.08h4.69c.2,0,.29-.11.29-.29l-.08-.22-.21-.09c-.21,0-.44-.08-.65-.24-.22-.15-.38-.34-.48-.55l-5.61-13.37-.05-.08-.07-.06h-.02l-.02-.02-.13-.02h-.07l-.11.05-.05.06-.07.08-5.61,13.37c-.08.21-.25.4-.47.55-.22.15-.45.24-.66.24l-.21.09-.08.22c0,.2.09.29.29.29M67.26,67.21l1.78,4.25c-.84.08-1.64.31-2.38.65-.75.35-1.43.81-2.03,1.38l2.63-6.29h0Z"/>
        <path class="st0" d="M78.01,77.04c-.14.13-.31.19-.51.19l-.21.09-.08.22c0,.2.11.29.29.29h11.01c.2,0,.29-.09.29-.29v-3.46c0-.2-.09-.29-.29-.29l-.22.08-.09.21c0,.42-.08.84-.25,1.22s-.39.72-.67,1-.62.51-1,.67c-.39.16-.79.25-1.22.25h-3.75v-13.05c0-.2.06-.37.19-.49s.29-.19.49-.19l.21-.09.08-.22c0-.2-.09-.29-.29-.29h-4.49c-.2,0-.29.11-.29.29l.08.22.21.09c.2,0,.37.06.51.19.13.13.2.29.2.49v12.36c0,.2-.07.37-.2.49"/>
        <path class="st0" d="M105.85,63.51c.42,0,.84.08,1.21.25.39.16.72.39,1,.67s.51.62.67,1c.16.39.25.79.25,1.21l.09.21.22.08.2-.08.09-.21v-3.46l-.09-.21-.2-.08h-11.01c-.2,0-.29.11-.29.31l.08.22.21.09c.2,0,.37.06.49.19s.19.29.19.49v12.37c0,.2-.06.37-.19.49s-.29.19-.49.19l-.21.09-.08.22c0,.2.09.29.29.29h4.49c.2,0,.29-.09.29-.29l-.08-.22-.21-.09c-.2,0-.37-.06-.49-.19s-.19-.29-.19-.49v-5.88h2.01c.2,0,.37.06.51.19s.2.29.2.49.11.29.29.29.31-.09.31-.29v-1.99l-.08-.22-.21-.09-.21.09-.08.22c0,.19-.07.34-.2.48s-.31.2-.51.2h-2.01v-6.55s3.75,0,3.75,0Z"/>
        <path class="st0" d="M115.61,77.23l-.22.09-.09.22.09.21.22.08h4.69c.2,0,.31-.09.31-.29l-.08-.22-.21-.09c-.21,0-.44-.08-.65-.24-.22-.15-.38-.34-.48-.55l-5.61-13.37-.05-.08-.06-.06h-.02l-.02-.02-.13-.02h-.06l-.11.05-.05.06-.07.08-5.61,13.37c-.08.21-.25.4-.47.55s-.45.24-.66.24l-.21.09-.08.22c0,.2.11.29.29.29h1.99l.22-.08.09-.21-.09-.22-.22-.09-.16-.02-.14-.11c-.07-.11-.07-.25.02-.42l.28-.68c.53-1.14,1.3-2.06,2.31-2.76s2.14-1.1,3.4-1.18l1.94,4.62c.07.19.07.33,0,.42-.06.08-.15.13-.29.13M111.33,72.1c-.75.35-1.43.81-2.03,1.38l2.63-6.29,1.78,4.25c-.84.08-1.64.31-2.38.65"/>
        <path class="st0" d="M129.29,73.73l2.52,3.98c.06.11.14.15.26.15h3.93l.22-.08.09-.21-.09-.22-.22-.09c-.21,0-.45-.08-.71-.24s-.46-.34-.62-.55l-2.27-3.57c.79-.49,1.4-1.15,1.84-1.96.45-.8.66-1.67.66-2.6,0-.74-.14-1.44-.41-2.1-.28-.66-.66-1.22-1.14-1.72s-1.05-.88-1.7-1.17-1.34-.44-2.08-.45h-7.37c-.2,0-.31.11-.31.31l.08.22.21.09c.2,0,.37.06.49.19s.19.29.19.49v12.37c0,.2-.07.37-.19.49-.13.13-.29.19-.49.19l-.21.09-.08.22c0,.2.11.29.31.29h4.49c.2,0,.29-.09.29-.29l-.08-.22-.21-.09c-.2,0-.37-.06-.49-.19s-.19-.29-.19-.49v-2.83h3.3v-.02ZM125.99,63.51h3.55c.32.01.6.15.87.41.27.26.51.61.72,1.06.21.45.38.94.49,1.52.12.57.18,1.18.18,1.81s-.06,1.25-.18,1.83c-.12.58-.28,1.1-.52,1.55-.45.92-.97,1.39-1.58,1.44h-3.55v-9.62h.01Z"/>
        <path class="st0" d="M145.45,63.51c.42,0,.84.08,1.21.25.39.16.72.39,1,.67s.51.62.67,1c.16.39.25.79.25,1.21l.09.21.22.08c.2,0,.29-.09.29-.29v-3.46c0-.2-.11-.31-.29-.31h-11.01c-.2,0-.29.11-.29.31l.08.22.21.09c.2,0,.37.06.51.19.13.13.2.29.2.49v12.37c0,.2-.07.37-.2.49-.14.13-.31.19-.51.19l-.21.09-.08.22c0,.2.09.29.29.29h11.01c.2,0,.29-.09.29-.29v-3.46c0-.2-.11-.29-.29-.29l-.22.08-.09.21c0,.42-.08.84-.25,1.21-.16.39-.39.72-.67,1s-.62.51-1,.67c-.39.16-.79.25-1.21.25h-3.75v-6.57h2.01c.2,0,.37.06.51.19s.2.29.2.49.11.29.29.29.31-.09.31-.29v-1.99l-.08-.22-.21-.09-.21.09-.08.22c0,.19-.07.34-.2.48-.14.13-.31.2-.51.2h-2.01v-6.55h3.75v.04Z"/>
        <path class="st0" d="M160.28,70.9c-.28-.37-.62-.69-1.01-.98-.39-.28-.82-.48-1.3-.64l-3.59-.97c-.54-.18-.98-.48-1.31-.93s-.49-.95-.49-1.51c0-.35.07-.68.2-.99.14-.31.32-.58.54-.8s.49-.41.81-.54c.31-.13.64-.2.99-.2h.68c.53,0,1.02.11,1.48.29.46.2.87.47,1.22.82.35.35.62.75.82,1.21s.29.97.29,1.48c0,.2.11.29.29.29s.29-.11.29-.29v-4c0-.2-.09-.29-.29-.29s-.29.09-.29.29v.37c0,.14-.05.26-.15.35-.09.09-.21.14-.34.14-.12,0-.22-.05-.34-.13l-.02-.02c-.4-.35-.85-.64-1.35-.85s-1.05-.31-1.61-.31h-.68c-.61,0-1.19.12-1.72.35-.53.24-1,.55-1.4.95s-.72.87-.95,1.41-.35,1.12-.35,1.73c0,.48.08.95.24,1.41.15.46.38.87.65,1.24.28.38.61.69,1.01.98.4.28.84.48,1.31.64l3.59.97c.54.16.98.48,1.31.93s.49.95.49,1.51c0,.35-.07.68-.2.99-.13.31-.32.58-.54.8s-.49.41-.81.54-.64.2-.98.2h-1.63c-.53,0-1.02-.09-1.48-.29s-.87-.47-1.21-.82c-.34-.35-.61-.75-.81-1.21s-.31-.95-.31-1.48l-.09-.21-.22-.08c-.2,0-.29.11-.29.31v4c0,.2.09.29.29.29l.22-.08.09-.21v-.37c0-.14.05-.26.14-.35s.2-.14.33-.14c.14,0,.26.05.34.13h.02l.02.02c.39.35.84.64,1.33.85.51.21,1.05.31,1.61.31h1.63c.61,0,1.19-.12,1.72-.35.54-.24,1-.55,1.4-.95s.72-.87.95-1.41.35-1.12.35-1.73c0-.48-.08-.95-.24-1.41-.15-.46-.38-.87-.66-1.24"/>
        <path class="st0" d="M180.3,76.67c.07.19.07.33,0,.42-.06.08-.15.13-.29.13l-.22.09-.09.22.09.21.22.08h4.69c.2,0,.31-.09.31-.29l-.08-.22-.21-.09c-.21,0-.44-.08-.65-.24-.22-.15-.38-.34-.48-.55l-5.61-13.37-.05-.08-.06-.06h-.02l-.02-.02-.13-.02h-.06l-.11.05-.05.06-.07.08-5.61,13.37c-.08.21-.25.4-.47.55-.22.15-.45.24-.66.24l-.21.09-.08.22c0,.2.11.29.31.29h1.99l.22-.08.09-.21-.09-.22-.22-.09-.16-.02-.14-.11c-.07-.11-.06-.25.02-.42l.28-.68c.53-1.14,1.3-2.06,2.31-2.76s2.14-1.1,3.4-1.18l1.94,4.62h-.02ZM175.71,72.1c-.75.35-1.43.81-2.03,1.38l2.63-6.29,1.78,4.25c-.84.08-1.64.31-2.38.65"/>
        <path class="st0" d="M187.06,77.04c-.14.13-.31.19-.51.19l-.21.09-.08.22c0,.2.11.29.29.29h11.01c.2,0,.29-.09.29-.29v-3.46c0-.2-.09-.29-.29-.29l-.22.08-.09.21c0,.42-.08.84-.25,1.22s-.39.72-.67,1-.62.51-1,.67c-.39.16-.79.25-1.22.25h-3.75v-13.05c0-.2.06-.37.19-.49s.29-.19.49-.19l.21-.09.08-.22c0-.2-.09-.29-.29-.29h-4.49c-.2,0-.29.11-.29.29l.08.22.21.09c.2,0,.37.06.51.19.13.13.2.29.2.49v12.36c0,.2-.07.37-.2.49"/>
        <path class="st0" d="M207.84,77.04c-.13.13-.29.19-.49.19l-.21.09-.08.22c0,.2.11.29.31.29h6.48c1.02,0,2-.2,2.91-.59s1.71-.93,2.38-1.6c.67-.68,1.21-1.47,1.6-2.39.39-.91.59-1.88.59-2.91s-.2-2-.59-2.91c-.39-.91-.93-1.71-1.6-2.38s-1.47-1.21-2.38-1.6-1.88-.59-2.91-.59h-6.48c-.2,0-.31.11-.31.31l.08.22.21.09c.2,0,.37.06.49.19s.19.29.19.49v12.37c0,.2-.07.37-.19.49M211.16,63.51h2.65c.6,0,1.17.18,1.7.54s1,.86,1.4,1.47c.4.62.71,1.34.94,2.18.22.84.34,1.72.34,2.66s-.12,1.83-.34,2.66c-.22.84-.54,1.57-.94,2.18-.4.62-.87,1.11-1.4,1.47s-1.1.54-1.7.54h-2.65v-13.73.02Z"/>
        <path class="st0" d="M229.43,77.23l-.22.09-.09.22.09.21.22.08h4.69c.2,0,.31-.09.31-.29l-.08-.22-.21-.09c-.21,0-.44-.08-.65-.24-.22-.15-.38-.34-.48-.55l-5.61-13.37-.05-.08-.06-.06h-.02l-.02-.02-.13-.02h-.06l-.11.05-.05.06-.07.08-5.61,13.37c-.08.21-.25.4-.47.55-.22.15-.45.24-.66.24l-.21.09-.08.22c0,.2.11.29.31.29h1.99l.22-.08.09-.21-.09-.22-.22-.09-.16-.02-.14-.11c-.07-.11-.06-.25.02-.42l.28-.68c.53-1.14,1.3-2.06,2.31-2.76s2.14-1.1,3.4-1.18l1.94,4.62c.07.19.07.33,0,.42-.06.08-.15.13-.29.13M225.13,72.1c-.75.35-1.43.81-2.03,1.38l2.63-6.29,1.78,4.25c-.84.08-1.64.31-2.38.65"/>
        <path class="st0" d="M248.77,63.7c.13-.13.29-.19.48-.19l.22-.09.09-.22-.09-.21-.22-.08h-4.48l-.22.08-.09.21.09.22.22.09c.2,0,.37.06.49.19.13.13.19.29.19.49v5.88h-5.67v-5.88c0-.2.06-.37.19-.49.13-.13.29-.19.49-.19l.21-.09.08-.22c0-.2-.09-.29-.29-.29h-4.49c-.2,0-.29.09-.29.29l.08.22.21.09c.2,0,.37.06.51.19.13.13.2.29.2.49v12.36c0,.2-.07.37-.2.49-.14.13-.31.19-.51.19l-.21.09-.08.22c0,.2.09.29.29.29h4.49c.2,0,.29-.11.29-.29l-.08-.22-.21-.09c-.2,0-.37-.06-.49-.19-.13-.13-.19-.29-.19-.49v-5.88h5.67v5.88c0,.2-.06.37-.19.49-.13.13-.29.19-.49.19l-.22.09-.09.22.09.21.22.08h4.48l.22-.08.09-.21-.09-.22-.22-.09c-.19,0-.34-.06-.48-.19s-.2-.29-.2-.49v-12.36c0-.2.07-.37.2-.49"/>
        <path class="st0" d="M265.46,77.56l-.08-.22-.21-.09c-.21,0-.44-.08-.65-.24-.22-.15-.38-.34-.48-.55l-5.61-13.37-.05-.08-.06-.06h-.02l-.02-.02-.13-.02h-.06l-.11.05-.05.06-.06.08-5.61,13.37c-.08.21-.25.4-.47.55-.22.15-.45.24-.66.24l-.21.09-.08.22c0,.2.09.29.31.29h1.99l.22-.08.09-.21-.09-.22-.22-.09-.16-.02-.14-.11c-.07-.11-.06-.25.02-.42l.28-.68c.53-1.14,1.3-2.06,2.31-2.76s2.14-1.1,3.4-1.18l1.94,4.62c.07.19.07.33,0,.42-.06.08-.15.13-.29.13l-.22.09-.09.22.09.21.22.08h4.69c.2,0,.31-.09.31-.29M256.19,72.1c-.75.35-1.43.81-2.03,1.38l2.63-6.29,1.78,4.25c-.84.08-1.64.31-2.38.65"/>
        <path class="st0" d="M278.02,70.75c-.34-.25-.72-.42-1.13-.53.61-.33,1.11-.8,1.48-1.4s.57-1.28.57-2.04c0-.54-.09-1.05-.29-1.52s-.48-.88-.84-1.22c-.35-.35-.77-.62-1.22-.84s-.97-.31-1.51-.31h-8.02c-.2,0-.31.09-.31.31l.08.22.21.09c.2,0,.37.06.49.19.13.13.19.29.19.49v12.37c0,.2-.06.37-.19.49-.13.13-.29.19-.49.19l-.21.09-.08.22c0,.2.09.29.31.29h8.76c.54,0,1.05-.11,1.52-.31.47-.2.88-.48,1.22-.84s.62-.77.84-1.24c.2-.48.31-.98.31-1.51,0-.45-.07-.86-.21-1.26s-.34-.77-.59-1.1-.54-.61-.88-.86M270.86,63.51h4.19s.13.07.22.2c.09.13.18.34.27.62.08.28.15.62.21,1.02.06.41.08.88.08,1.43s-.02,1.01-.08,1.43c-.06.4-.13.75-.21,1.02-.08.28-.18.49-.27.64-.09.14-.16.21-.22.21h-4.19v-6.57ZM276.52,75.38c-.06.41-.13.75-.21,1.02-.08.28-.18.48-.27.62-.09.13-.16.2-.22.2h-4.96v-6.57h4.96s.13.07.22.21c.09.14.18.35.27.62.08.28.15.62.21,1.02.06.41.08.88.08,1.43s-.04,1.01-.08,1.43"/>
        <path class="st0" d="M285.01,77.23c-.2,0-.37-.06-.49-.19-.13-.13-.19-.29-.19-.49v-12.37c0-.2.06-.37.19-.49.13-.13.29-.19.49-.19l.21-.09.08-.22c0-.2-.11-.29-.29-.29h-4.49c-.2,0-.31.09-.31.29l.08.22.21.09c.2,0,.37.06.51.19s.2.29.2.49v12.37c0,.2-.07.37-.2.49-.13.13-.31.19-.51.19l-.21.09-.08.22c0,.2.11.29.31.29h4.49c.2,0,.29-.11.29-.29l-.08-.22-.21-.09Z"/>
      </g>
    </g>
  </g>
</svg>