<?xml version="1.0" encoding="UTF-8"?>
<svg id="Layer_1" xmlns="http://www.w3.org/2000/svg" version="1.1" xmlns:xlink="http://www.w3.org/1999/xlink" viewBox="0 0 110.45 110.79">
  <!-- Generator: Adobe Illustrator 29.3.0, SVG Export Plug-In . SVG Version: 2.1.0 Build 146)  -->
  <defs>
    <style>
      .st0 {
        fill: #141414;
      }

      .st1 {
        fill: #fff;
      }

      .st2 {
        fill: url(#linear-gradient1);
      }

      .st3 {
        fill: none;
      }

      .st4 {
        clip-path: url(#clippath-1);
      }

      .st5 {
        fill: url(#linear-gradient);
      }

      .st6 {
        clip-path: url(#clippath);
      }
    </style>
    <clipPath id="clippath">
      <path class="st3" d="M21.32,41.48v58.06h68.03v-58.06c0-18.79-15.23-34.02-34.02-34.02S21.31,22.69,21.31,41.48h.01Z"/>
    </clipPath>
    <linearGradient id="linear-gradient" x1="-381.08" y1="6.24" x2="-380.08" y2="6.24" gradientTransform="translate(673.38 37783.82) rotate(90) scale(99.12)" gradientUnits="userSpaceOnUse">
      <stop offset="0" stop-color="#d6ac40"/>
      <stop offset=".03" stop-color="#d6ac40"/>
      <stop offset=".24" stop-color="#d8af44"/>
      <stop offset=".46" stop-color="#deba50"/>
      <stop offset=".68" stop-color="#e8cd65"/>
      <stop offset=".9" stop-color="#f6e683"/>
      <stop offset="1" stop-color="#fef492"/>
    </linearGradient>
    <clipPath id="clippath-1">
      <polygon class="st3" points="52.97 21.58 49.66 22.48 46.81 22.48 49.09 29.73 52.3 28.31 54.66 28.27 55.61 28.54 53.76 29.79 54.13 30.13 56.44 29.86 58.86 30.36 61.28 31.88 61.84 30.62 61.47 29.5 62.56 29.07 62.93 27.84 62.93 26.22 60.28 25.76 57.34 24.6 57.04 23.08 56.82 21.79 55.15 21.09 52.97 21.58"/>
    </clipPath>
    <linearGradient id="linear-gradient1" x1="-428.15" y1="-20.72" x2="-427.15" y2="-20.72" gradientTransform="translate(411.69 -7338.15) rotate(-90) scale(17.22)" gradientUnits="userSpaceOnUse">
      <stop offset="0" stop-color="#fff"/>
      <stop offset="1" stop-color="#fef385"/>
    </linearGradient>
  </defs>
  <g class="st6">
    <rect class="st5" x="-1.28" y="-3.11" width="113.21" height="113.21" transform="translate(-21.62 54.79) rotate(-45)"/>
  </g>
  <path class="st1" d="M80.7,84.25c0,4.71-3.82,8.53-8.53,8.53s-8.53-3.82-8.53-8.53,3.82-8.53,8.53-8.53,8.53,3.82,8.53,8.53"/>
  <g class="st4">
    <rect class="st2" x="46.19" y="16.8" width="17.35" height="19.34" transform="translate(4.72 61.07) rotate(-60.36)"/>
  </g>
  <path class="st0" d="M78.39,57.28c-.03-.08-.3-.77-1.29-1.17-.52-.21-1.3-1.4-1.68-2.13-.06-.2-.32-.95-1.01-1.34-.45-.27-.99-.32-1.58-.16h-.04l-.04.03c-.05.03-.49.28-.72.83-.1.16-.79.47-1.44.66h-.01l-.06.02c.05.11.1.22.15.34.05.12.09.23.14.36.29.77.5,1.61.65,2.27l.04.17c.06.26.1.49.13.66.6-.47,1.36-1.17,2.04-2.14.53.4,1.59,1.33,1.57,2.39v.25l.22.1s.24.11.47.35l-.63.2h-.03s-.91.47-.22,1.92c.55,1.16,1.13,1.84,1.15,1.86l.27.3.28-.29c.06-.06,1.44-1.51,1.43-3.24l.23-1.02v-1.15l-.02-.06h0Z"/>
  <path class="st0" d="M32.13,72.12s3.1,4.27,8.39.59c0,0-.8,1.89-3.06,2.55,0,0,3.87.62,5.65-3.62,0,0,.78-2.6.64-3.68s.86-2.63.86-2.63c0,0,.53-.78,1.23-1.08.04-.28.1-.58.18-.89h0c.03-.12.06-.23.1-.35l.02-.05c-1.19-.48-3.51-.89-5.55,1.73,0,0-.76,1-.96,3.01-.19,2.01-4.01,1.77-4.01,1.77,0,0-1.58-.12-2.41-2.08,0,0,0,2.87,1.6,3.85,0,0,.96.72,2.09.44,0,0-2.04,2.14-4.77.43"/>
  <path class="st0" d="M75.67,86.75c-8.9-3.79-16.99-4.87-22.57-5.13l.06-.07c.32-.35.76-1.27.25-2.26l.11-1.53-.06-.1c-.04-.07-.4-.7-.87-1.03-.17-.16-.47-1.15-.66-2.14,0-.14,0-1.04.95-1.39,1.37-.51,3.07-2.67,3.14-2.77.03-.04.71-.93.71-2.59.15-.3.61-1.26.64-2.14.38-.04,1.03-.13,1.84-.32l-.04.11-.04.08.39,1.32.21-.06c1.44-.41,4.3-.83,4.32-.83l.25-.04-.07-.24c-.19-.67-1.47-1-2.39-1.15h0c1.21-.47,2.52-1.13,3.78-2.06.34-.25,1.18-.75,1.61-.69.74.1,2.04-.23,2.26-.29.66-.11,1.4-.12,1.57-.03.47.6.32,1.5-.45,2.68-.19.2-.56.66-.43,1.06h0l-.89-.43-.18.14c-.05.04-1.31,1-1.26,3.39v.41l.42-.05c.09-.01,2.31-.28,3.2-1.35.55-.66.85-.81.92-.84h.75v-2.24c.02-.82.23-2.28.7-2.74.74-.73.42-1.62.02-2.05-.09-.1-.62-.7-1.29-.88h-.96c-.11-.04-.32-.1-.52-.2-.03-.22-.06-.42-.1-.62l-.04-.2c-.21-1.1-.49-1.98-.7-2.54-.05-.12-.09-.23-.13-.32-.11-.26-.18-.4-.18-.4-.15-.36-.49-1.04-1.11-1.68v-1.21h-1l-1.54-4.2h0c-.08-.21-.21-.55-.33-.95.22.16.49.3.81.38,1.21.32,1.3,1.73,1.3,1.79v.05l.02.05c.02.07.25.72.81.97.29.14.63.14.96,0,.88-.35,1.22-.72,1.31-.84.14-.15.6-.77.16-1.86-.37-.92-.76-2.37-.84-3.07.27-.2.56-.54.56-1v-.13l-.3-.38.06-.11c.12-.26.28-.69.45-1.26l.03-.04h-.01l.17-.56-.56.11c-.05,0-.54-.34-.95-.61-.41-.28-.59-.79-.45-1.26v-.02l.35-1.13-.93.73s-.67.52-1.13,1.08c-.68-.41-2.41-1.27-4.41-.9l-.4.08.38,1.29c-.61-.18-1.51-.33-2.32.02l-.54.23.86.78c-.61.09-1.43.32-2.18.87l-.28.21c-.45-.34-.95-.65-.95-.65.05-.2.08-.47.11-.75h0v-.02c.07-.73.08-1.56.08-1.56.32-.32.45-.78.33-1.21-.04-.16-.1-.29-.17-.42h0c-.18-.34-.4-.54-.4-.54,0,0-.11-.14-.31-.32h0c-.18-.17-.44-.37-.76-.56-.13-.08-.29-.12-.45-.15l-.17-.02c-.8-.07-1.59.24-2.17.78l-.08.08h0c-.16.16-.35.33-.55.54-.12.13-.21.3-.28.51h0c-.36,1.18.12,3.36.12,3.36l-.31-.05-3.13-10.55c1.32-1.04,3.07-1.28,4.4-1.28h.03c-.54.35-.82.67-.85.7l-.28.32,1.07,1.14.3-.12c1.51-.6,3.05-.52,4.56.23,1.15.58,1.86,1.36,1.87,1.36l.54.6.25-.76c.23-.69.65-1.07.65-1.07l.22-.19-.07-.28c-.09-.35-.18-.63-.26-.83.67-.26,1.1-.62,1.12-.64l.34-.29-.28-.35c-.3-.38-.13-.83-.12-.84l.62-1.85-.61-.03c-1.29-.07-4.81-.51-5.67-1.69-.16-.23-.2-.46-.13-.74.19-.68.13-1.26-.17-1.72-.32-.5-.9-.81-1.73-.93-.85-.13-1.73,0-2.55.35-3.07,1.33-5.55,1.05-5.58,1.04h0l-.29-.99h-.03l.09-.7-.29-.29-1.33-1.53-.36,2.15.79.93,5.74,19.34c-.18.1-.33.23-.4.38-.15.33-.14.81-.1,1.17.04.32-.1.63-.36.82l-.08.06h0c-.28.22-.63.58-.95,1.12l-.15.21-.23.26c-1.22,1.25-4.37,3.2-4.37,3.2l1.31.28c-2.33,1.92-4.48,2.86-6.36,3.24-4.74.84-7.75-1.72-7.75-1.72,0,0,.13.74.65,1.67h0c.3.54.73,1.14,1.33,1.7h0c.48.45,1.06.86,1.78,1.19h0l.02.02c.58.27,1.23.48,1.99.63h.02l-1.16.21-1.56.12c-.15-.04-.3-.08-.44-.14,0,0,.57.66,3.37,1.02l-.95.44c-.16.07-.33.13-.46.18l.89,1.17.42.55.38.5s.11.1.34.22h0c.3.17.81.38,1.53.44l.08.02h.1c.47.02,1.01-.02,1.64-.16h0c.76-.17,1.63-.5,2.62-1.05,0,0,.9-.42,2-1.18h0l.82-.11h.17c-.46.43-.97.85-1.56,1.19,0,0,2.94-.57,5.08-2.62l.03-.02.04-.05c.32-.31.61-.65.88-1.03l.15.93v.02l-.24,1.31-.34.7c-.13.05-.27.11-.41.16-3.01,1.1-4.22,3.22-4.69,4.79-.04.11-.07.23-.1.34h0c-.08.31-.14.6-.18.88-.16,1.07-.06,1.85-.05,1.96,0,.14.19,1.85.65,2.99.35.85-.5,1.91-.59,2.02l-1.24,1.24c-.1.1-.64.71.04,1.73.49.75.83,2.02.85,2.12.03.12.37,1.87.14,3.16l-.06.3,1.15.46v1.38c-8.74-.02-17.39-.04-26.17-.06v18.01h68.03c-.01-1.63.01-3.26,0-4.9-3.4-2.57-7.98-5.46-13.68-7.89M47.68,23.21c.87.04,3.06,0,5.67-1.14.66-.29,1.37-.38,2.04-.28.38.06.87.19,1.08.52.15.22.16.55.05.96-.15.55-.06,1.08.27,1.53,1.05,1.45,4.35,1.91,5.77,2.04l-.22.65c-.11.28-.19.81.01,1.33-.23.14-.56.3-.95.39l-.72.14.43.58s.16.27.32.84c-.12.14-.28.35-.43.61-.36-.31-.91-.72-1.61-1.08-.98-.5-1.99-.74-3-.74-.69,0-1.38.12-2.06.35l-.03-.03c.35-.28.98-.69,1.88-.86l2.28-.44-2.27-.48c-.18-.04-4.03-.82-6.77,1.08l-1.77-5.96h.03ZM48.2,74.33s.06-.45.39-.9c.02.14.07.28.14.43l.02.04.02.03s1.21,1.56,1.51,2.86c.23,1.02.13,1.39.11,1.45l-.22.3.88.57c-.43.27-.61.64-.63.68l-.02.03v.03l-.02.05c-.27-.21-.62-.42-1.09-.59v-.4c0-.09-.1-.58-.8-1.31-.37-.39-.4-2.15-.3-3.27M51.24,81.18s-.02-.11-.07-.26c.14.13.31.35.43.56l.06.11h-.36s-.06-.41-.06-.41Z"/>
</svg>