<?xml version="1.0" encoding="UTF-8"?>
<svg id="Layer_1" xmlns="http://www.w3.org/2000/svg" version="1.1" xmlns:xlink="http://www.w3.org/1999/xlink" viewBox="0 0 337 133">
  <!-- Generator: Adobe Illustrator 29.3.0, SVG Export Plug-In . SVG Version: 2.1.0 Build 146)  -->
  <defs>
    <style>
      .st0 {
        fill: #010101;
      }

      .st1 {
        fill: #141414;
      }

      .st2 {
        fill: #fff;
      }

      .st3 {
        fill: url(#linear-gradient1);
      }

      .st4 {
        fill: none;
      }

      .st5 {
        clip-path: url(#clippath-1);
      }

      .st6 {
        fill: url(#linear-gradient);
      }

      .st7 {
        clip-path: url(#clippath);
      }
    </style>
    <clipPath id="clippath">
      <path class="st4" d="M65.3,39.3v39.5h46.3v-39.5c0-12.8-10.4-23.1-23.1-23.1s-23.1,10.4-23.1,23.1h0Z"/>
    </clipPath>
    <linearGradient id="linear-gradient" x1="-273.9" y1="-14.5" x2="-273.2" y2="-14.5" gradientTransform="translate(-1345.6 27169.6) rotate(90) scale(99.1)" gradientUnits="userSpaceOnUse">
      <stop offset="0" stop-color="#d6ac40"/>
      <stop offset="0" stop-color="#d6ac40"/>
      <stop offset=".2" stop-color="#d8af44"/>
      <stop offset=".5" stop-color="#deba50"/>
      <stop offset=".7" stop-color="#e8cd65"/>
      <stop offset=".9" stop-color="#f6e683"/>
      <stop offset="1" stop-color="#fef492"/>
    </linearGradient>
    <clipPath id="clippath-1">
      <polygon class="st4" points="86.8 25.7 84.5 26.3 82.6 26.3 84.1 31.3 86.3 30.3 87.9 30.3 88.6 30.5 87.3 31.3 87.6 31.5 89.1 31.4 90.8 31.7 92.4 32.7 92.8 31.9 92.6 31.1 93.3 30.8 93.6 30 93.6 28.9 91.8 28.6 89.8 27.8 89.6 26.8 89.4 25.9 88.3 25.4 86.8 25.7"/>
    </clipPath>
    <linearGradient id="linear-gradient1" x1="-315.7" y1="-42.5" x2="-315" y2="-42.5" gradientTransform="translate(820.3 -5401.3) rotate(-90) scale(17.2)" gradientUnits="userSpaceOnUse">
      <stop offset="0" stop-color="#fff"/>
      <stop offset="1" stop-color="#fef385"/>
    </linearGradient>
  </defs>
  <g>
    <g class="st7">
      <rect class="st6" x="49.9" y="8.9" width="77" height="77" transform="translate(-7.7 76.4) rotate(-45)"/>
    </g>
    <path class="st2" d="M105.6,68.4c0,3.2-2.6,5.8-5.8,5.8s-5.8-2.6-5.8-5.8,2.6-5.8,5.8-5.8,5.8,2.6,5.8,5.8"/>
    <g class="st5">
      <rect class="st3" x="82.2" y="22.5" width="11.8" height="13.2" transform="translate(19.3 91.2) rotate(-60.4)"/>
    </g>
    <g>
      <path class="st1" d="M104.1,50c0,0-.2-.5-.9-.8-.4-.1-.9-1-1.1-1.4,0-.1-.2-.6-.7-.9-.3-.2-.7-.2-1.1-.1h0s-.3.2-.5.6c0,.1-.5.3-1,.4h0c0,0,0,.2.1.2,0,0,0,.2,0,.2.2.5.3,1.1.4,1.5h0c0,.3,0,.4,0,.6.4-.3.9-.8,1.4-1.5.4.3,1.1.9,1.1,1.6v.2h.1c0,0,.2.1.3.3h-.4c0,.1,0,.1,0,.1,0,0-.6.3-.1,1.3.4.8.8,1.3.8,1.3l.2.2.2-.2s1-1,1-2.2l.2-.7v-.8h0Z"/>
      <path class="st1" d="M72.6,60.1s2.1,2.9,5.7.4c0,0-.5,1.3-2.1,1.7,0,0,2.6.4,3.8-2.5,0,0,.5-1.8.4-2.5s.6-1.8.6-1.8c0,0,.4-.5.8-.7,0-.2,0-.4.1-.6h0c0,0,0-.2,0-.2h0c-.8-.4-2.4-.6-3.8,1.1,0,0-.5.7-.7,2-.1,1.4-2.7,1.2-2.7,1.2,0,0-1.1,0-1.6-1.4,0,0,0,2,1.1,2.6,0,0,.7.5,1.4.3,0,0-1.4,1.5-3.2.3"/>
      <path class="st1" d="M102.2,70.1c-6.1-2.6-11.6-3.3-15.3-3.5h0c.2-.3.5-.9.2-1.6v-1c0,0,0,0,0,0,0,0-.3-.5-.6-.7-.1-.1-.3-.8-.4-1.5,0,0,0-.7.6-.9.9-.3,2.1-1.8,2.1-1.9,0,0,.5-.6.5-1.8.1-.2.4-.9.4-1.5.3,0,.7,0,1.3-.2h0c0,0,0,.1,0,.1l.3.9h.1c1-.3,2.9-.6,2.9-.6h.2s0-.2,0-.2c-.1-.5-1-.7-1.6-.8h0c.8-.3,1.7-.8,2.6-1.4.2-.2.8-.5,1.1-.5.5,0,1.4-.2,1.5-.2.4,0,1,0,1.1,0,.3.4.2,1-.3,1.8-.1.1-.4.4-.3.7h0l-.6-.3h-.1c0,.1-.9.8-.9,2.4v.3h.3c0,0,1.6-.2,2.2-1,.4-.4.6-.6.6-.6h.5v-1.5c0-.6.2-1.6.5-1.9.5-.5.3-1.1,0-1.4,0,0-.4-.5-.9-.6h-.7c0,0-.2,0-.4-.1,0-.1,0-.3,0-.4h0c-.1-.9-.3-1.5-.5-1.9,0,0,0-.2,0-.2,0-.2-.1-.3-.1-.3-.1-.2-.3-.7-.8-1.1v-.8h-.7l-1-2.9h0c0-.1-.1-.4-.2-.6.1.1.3.2.6.3.8.2.9,1.2.9,1.2h0s0,0,0,0c0,0,.2.5.6.7.2,0,.4,0,.7,0,.6-.2.8-.5.9-.6,0-.1.4-.5.1-1.3-.3-.6-.5-1.6-.6-2.1.2-.1.4-.4.4-.7h0c0,0-.2-.3-.2-.3h0c0-.3.2-.5.3-.9h0s0,0,0,0v-.4c.1,0-.3,0-.3,0,0,0-.4-.2-.6-.4-.3-.2-.4-.5-.3-.9h0s.2-.8.2-.8l-.6.5s-.5.4-.8.7c-.5-.3-1.6-.9-3-.6h-.3c0,0,.3.9.3.9-.4-.1-1-.2-1.6,0l-.4.2.6.5c-.4,0-1,.2-1.5.6h-.2c-.3,0-.6-.3-.6-.3,0-.1,0-.3,0-.5h0c0-.5,0-1.1,0-1.1.2-.2.3-.5.2-.8,0-.1,0-.2-.1-.3h0c-.1-.2-.3-.4-.3-.4,0,0,0,0-.2-.2h0c-.1-.1-.3-.3-.5-.4,0,0-.2,0-.3-.1h-.1c-.5,0-1.1.1-1.5.5h0c-.1.2-.2.3-.4.4,0,0-.1.2-.2.3h0c-.2.8,0,2.3,0,2.3h-.2s-2.1-7.2-2.1-7.2c.9-.7,2.1-.9,3-.9h0c-.4.2-.6.5-.6.5l-.2.2.7.8h.2c1-.5,2.1-.4,3.1,0,.8.4,1.3.9,1.3.9l.4.4.2-.5c.2-.5.4-.7.4-.7h.1c0-.1,0-.3,0-.3,0-.2-.1-.4-.2-.6.5-.2.7-.4.8-.4l.2-.2-.2-.2c-.2-.3,0-.6,0-.6l.4-1.3h-.4c-.9,0-3.3-.4-3.9-1.2-.1-.2-.1-.3,0-.5.1-.5,0-.9-.1-1.2-.2-.3-.6-.6-1.2-.6-.6,0-1.2,0-1.7.2-2.1.9-3.8.7-3.8.7h0l-.2-.7h0v-.5c0,0-.1-.2-.1-.2l-.9-1-.2,1.5.5.6,3.9,13.2c-.1,0-.2.2-.3.3-.1.2,0,.6,0,.8,0,.2,0,.4-.2.6h0c-.2.2-.4.4-.6.8h-.1c0,.1-.2.3-.2.3-.8.9-3,2.2-3,2.2l.9.2c-1.6,1.3-3,1.9-4.3,2.2-3.2.6-5.3-1.2-5.3-1.2,0,0,0,.5.4,1.1h0c.2.4.5.8.9,1.2h0c.3.3.7.6,1.2.8h0c.4.2.8.3,1.4.4h0-.8c0,.1-1.1.2-1.1.2-.1,0-.2,0-.3,0,0,0,.4.4,2.3.7l-.6.3c-.1,0-.2,0-.3.1l.6.8.3.4.3.3s0,0,.2.1h0c.2.1.6.3,1,.3h0s0,0,0,0c.3,0,.7,0,1.1-.1h0c.5-.1,1.1-.3,1.8-.7,0,0,.6-.3,1.4-.8h.6c0,0,.1,0,.1,0-.3.3-.7.6-1.1.8,0,0,2-.4,3.5-1.8h0s0,0,0,0c.2-.2.4-.4.6-.7v.6c.1,0,.1,0,.1,0l-.2.9-.2.5c0,0-.2,0-.3.1-2,.7-2.9,2.2-3.2,3.3,0,0,0,.2,0,.2h0c0,.2,0,.4-.1.6-.1.7,0,1.3,0,1.3,0,0,.1,1.3.4,2,.2.6-.3,1.3-.4,1.4l-.8.8c0,0-.4.5,0,1.2.3.5.6,1.4.6,1.4,0,0,.3,1.3,0,2.1v.2s.7.3.7.3v.9c-5.9,0-11.8,0-17.8,0v12.2h46.3c0-1.1,0-2.2,0-3.3-2.3-1.7-5.4-3.7-9.3-5.4M83.2,26.8c.6,0,2.1,0,3.9-.8.4-.2.9-.3,1.4-.2.3,0,.6.1.7.4.1.1.1.4,0,.7-.1.4,0,.7.2,1,.7,1,3,1.3,3.9,1.4v.4c-.2.2-.3.6-.1.9-.2,0-.4.2-.6.3h-.5c0,0,.3.5.3.5,0,0,.1.2.2.6,0,0-.2.2-.3.4-.2-.2-.6-.5-1.1-.7-.7-.3-1.4-.5-2-.5s-.9,0-1.4.2h0c.2-.2.7-.5,1.3-.6l1.6-.3-1.5-.3c-.1,0-2.7-.6-4.6.7l-1.2-4.1h0ZM83.5,61.6s0-.3.3-.6c0,0,0,.2,0,.3h0s0,0,0,0c0,0,.8,1.1,1,1.9.2.7,0,.9,0,1v.2c-.1,0,.4.4.4.4-.3.2-.4.4-.4.5h0s0,0,0,0c-.2-.1-.4-.3-.7-.4v-.3c0,0,0-.4-.5-.9-.3-.3-.3-1.5-.2-2.2M85.6,66.3s0,0,0-.2c0,0,.2.2.3.4h0c0,0-.2,0-.2,0,0,0,0-.3,0-.3Z"/>
    </g>
  </g>
  <g>
    <path class="st0" d="M37.9,112.6h0c.2.1.4.3.5.4l.4-.5c0-.2-.3-.4-.5-.4l-.4.5Z"/>
    <path class="st0" d="M40.1,111.8c0,.2-.2.5-.3.6.5.6.6,1,.6,1.3,0,.8-.9,1.4-2.2,1.4s-1.7-.5-1.7-1.4,0-.8.2-1.2h0c-.2.5-.3,1.1-.3,1.6,0,1.1.6,1.7,1.8,1.7s2.3-.9,2.3-2.3-.3-1.5-.4-1.7h0,0Z"/>
    <path class="st0" d="M75.2,113.4c-.8,0-1.2-.4-1.2-.8s.7-.9,1.3-.9.8.2.8.5h0c.2-.6-.1-1-.8-1s-1.5.7-1.5,1.7.1.7.4.9c-.3,0-.5,0-.7,0h-28c-.7,0-1.1-.3-1.1-1.1s0-1.7,0-2.6,0-1,0-1.3h0c-.1.2-.3.5-.5.6,0,.6.2,1.6.2,3.2s-.2.6-.6.9c0-2.3-1.8-3.5-2.1-4h0c0,.2,0,.6,0,.8,1.3,1,2.1,2.1,2.2,3.2-.5.3-1.2.5-2.2.7h0c.3.2.7.3,1.1.3.9,0,1.6-.6,1.8-1.7h0c0,1.4.4,1.7,1.2,1.7h28c1.1,0,1.8-.3,3-.6.1-.2.3-.6.4-.7h0c-.5.1-1.1.2-1.6.2"/>
    <path class="st0" d="M77.6,115.7c0-.2.2-.4.6-.4s.3,0,.3.3h0s0-.1,0-.2c0-.2-.2-.4-.4-.4-.4,0-.7.4-.7.9s.2.4.5.5c-.3.1-.5.3-.5.6h0c.2-.2.7-.5,1.3-.6,0-.1,0-.2.1-.3h0c-.1,0-.5,0-.8,0s-.6-.2-.6-.3"/>
    <path class="st0" d="M80.5,108.7h0c0,.2-.3.5-.4.6,0,.4,0,1,0,1.2,0,.5,0,.9-.2,1.3-.5-.7-1.3-1.4-2.5-2.4h0c0,.2,0,.6,0,.8,1.2.7,1.9,1.4,2.4,1.9-.4.7-1.1,1.2-2.3,1.7h0c.6.3.9.7,1.6.7s1.4-.4,1.4-1.3-.1-.7-.4-1.1c.3-.6.5-1.3.5-2.1s0-.9,0-1.2M80.3,113.3c0,.3-.5.5-1.3.5s-.6,0-.9-.2c.8-.3,1.4-.7,1.8-1.3.3.4.5.8.5,1"/>
    <path class="st0" d="M81.9,108.7c-.1.2-.3.5-.5.6,0,.5.3,4.2.3,5.3h0c.2-.8.3-1.1.3-2.4s-.1-3.1-.1-3.5h0Z"/>
    <path class="st0" d="M86.1,111.8c-.7,0-1.1.7-1.1,1.6s.3,1,1,1,1.1-.3,1.2-.8h0c0,.1,0,.3,0,.5,0,.9-1.5,1.7-2.9,1.8h0c.3.1.7.4,1.1.4,1,0,2-.9,2-2.4s-.5-2.1-1.2-2.1M86,113.7c-.7,0-.9-.3-.9-.6,0-.4.4-.8.9-.8s1,.4,1.1,1.1c-.4.2-.7.3-1.1.3"/>
    <path class="st0" d="M91.1,109.3h0c0,.2-.1.3-.1.4,0,.2.2.3.6.3s.7,0,1.2,0c0-.1.1-.4.2-.5-.4,0-1.2,0-1.3,0-.4,0-.5,0-.5-.2"/>
    <path class="st0" d="M97.4,111.5c0,.2-.2.5-.3.6.3.3.7.8.7,1.1s-.5.4-1.4.4h-3c-.7,0-1-.3-1-1.1,0-1.2,0-1.7-.1-2.1h0c-.1.2-.3.4-.4.5,0,.1,0,.2,0,.4-1.5.9-1.9,1.4-1.9,2s.3.7.8.7,1.1-.4,1.2-1.1h0c0,1,.5,1.4,1.2,1.4h3c1.1,0,1.6-.4,1.6-1.3s-.4-1.4-.4-1.6h0ZM90.9,113.3c-.5,0-.7-.1-.7-.4s.4-.6,1.8-1.4c0,.3,0,.7,0,1.1s-.4.6-1.1.6"/>
    <path class="st0" d="M97.1,115.2c-.2,0-.7,0-1.2,0,0,.1-.1.4-.2.5.4,0,1.2,0,1.3,0,.4,0,.5,0,.5.2h0c0-.2.1-.3.1-.4,0-.2-.2-.3-.6-.3"/>
    <path class="st0" d="M127.1,113.4c-.8,0-1.2-.4-1.2-.8s.7-.9,1.3-.9.8.2.8.5h0c.2-.6-.1-1-.8-1s-1.5.7-1.5,1.7.1.7.4.9c-.3,0-.5,0-.7,0h-25.1c-.8,0-1.1-.3-1.1-1s0-1.8,0-2.7,0-1,0-1.3h0c-.1.2-.3.5-.5.6.1.7.2,1.1.2,3.7,0,1.1.4,1.4,1.2,1.4h25.1c1.1,0,1.8-.3,3-.6.1-.2.3-.6.4-.7h0c-.5.1-1.1.2-1.6.2"/>
    <path class="st0" d="M139.7,108.7c-.1.2-.3.5-.5.6,0,.5.4,3.2.4,4s-.3.4-1,.4h0c-.8,0-1.1-.3-1.1-1s0-1.8,0-2.7,0-1,0-1.3h0c-.1.2-.3.5-.5.7.1.7.2,1.1.2,3.5,0,.6-.4.8-1,.8h-3c-.5,0-.9-.3-1.1-1.1-.4-1.4-.5-1.8-.5-2.1h0c0,.1-.3.5-.4.7.3.6.5,1.6.5,1.8s-.4.7-1.3.7-.9-.2-.9-.8h0c0,.2,0,.5,0,.7,0,.5.3.9,1,.9s1.4-.5,1.4-1.5h0c.2,1,.6,1.5,1.2,1.5h3c.7,0,1.1-.3,1.2-1.2h0c0,.9.4,1.2,1.2,1.2h0c.4,0,.7,0,.9-.3.3-.4.5-1.1.5-1.7,0-1.3-.1-3.5-.1-3.9h0,0Z"/>
    <path class="st0" d="M41.6,97.1c-.2,0-.5,0-.9,0-.4,0-.8,0-1.2,0,0,.1,0,.3-.2.5s-.1.3-.2.4c.3,0,.7,0,1.2,0,.5,0,.9,0,1.1,0,.3,0,.5,0,.7,0s.2.1.2.2h0c0,0,0-.2.1-.4,0-.2,0-.3,0-.4,0-.2,0-.3-.2-.3s-.4,0-.7,0"/>
    <path class="st0" d="M46.4,95.3l.7-.8c0-.1-.2-.3-.4-.4-.2-.2-.4-.3-.5-.4l-.7.8h0c.1.1.3.2.4.4s.3.3.4.4"/>
    <path class="st0" d="M39.2,95.6c.4.2.9.3,1.6.3s1.5-.1,2.1-.4c.6-.2,1-.6,1.3-1s.4-.9.4-1.5,0-.3-.1-.4c.2,0,.6,0,.9,0h0c.6,0,1.1,0,1.5-.2.4-.1.7-.4.9-.7s.3-.7.3-1.2h0c0,.2,0,.3,0,.4,0,.6.1,1,.4,1.3s.7.4,1.2.4h21.3c.5,0,1,0,1.4-.2.4-.1.8-.3,1.1-.5,1.5.4,2.5.7,2.9.9.3-.3.5-.7.7-1.1s.3-.8.3-1.3,0-.6-.2-.9c-.2-.3-.4-.5-.8-.8s-.9-.6-1.6-.9c-.6-.3-1.1-.6-1.5-.8s-.6-.4-.8-.5h0c0,.2,0,.4,0,.6s-.1.4-.2.6c.1,0,.3.1.5.2h.2c-.3.3-.5.6-.7,1-.2.4-.3.8-.3,1.2s0,.4.1.6c0,.2.2.3.3.4-.3,0-.6,0-1.1,0h-21.3c-.4,0-.7,0-.9-.1s-.4-.2-.5-.4c0-.2-.1-.5-.1-.8v-.6h-.1c0,.5-.2.9-.3,1.2s-.4.5-.7.6-.9.2-1.5.2c-1.3,0-2.2,0-2.8,0-.6,0-1.1,0-1.4-.1-.1.4-.4.7-.7,1.2h0c.2.1.4.2.6.2s.6,0,1,.1c.5,0,.8.1,1.1.2.3,0,.5.1.7.2.2,0,.3.2.3.3s-.1.4-.4.6-.7.4-1.2.5c-.5.1-1.2.2-2,.2s-1.1,0-1.5-.3-.7-.4-.9-.7-.3-.7-.3-1.2,0-.6,0-.9.1-.6.2-.9h-.1c-.2.4-.3.8-.4,1.3,0,.4-.1.9-.1,1.3s.1,1.1.3,1.5.5.7,1,1M76.3,89.8c.3.2.5.4.6.6s.2.4.2.6,0,.3,0,.4c0,.2-.1.3-.2.4-.6-.2-1.4-.4-2.4-.7.4-.5.6-1,.6-1.6s0-.3,0-.4c.6.3,1,.6,1.3.8M72.2,89.6c0-.2,0-.4.2-.5.1-.2.3-.3.5-.4.2-.1.4-.2.7-.2s.5,0,.7.2c.2.1.4.3.6.5s.2.4.2.7c0,.4-.4.7-1.2,1.1-.5-.2-.9-.4-1.1-.6-.3-.2-.4-.5-.4-.7"/>
    <path class="st0" d="M81.2,85.2l.7-.8c0-.1-.2-.3-.4-.4s-.4-.3-.5-.4l-.7.8h0c.1.1.3.2.5.4s.3.3.4.4"/>
    <path class="st0" d="M85.2,92.2c.2-.2.3-.5.5-.9.1-.4.2-.7.3-1.1,0-.4.1-.7.1-1.1,0-.6,0-1.2,0-1.9s0-1.5,0-2.5c0-.2,0-.5,0-.8s0-.5,0-.6h0c-.1.2-.3.4-.4.6s-.3.4-.5.6c0,.3.1.9.3,1.7s.2,1.7.3,2.6.1,1.5.1,1.8-.1.3-.4.4c-.3.1-.7.2-1.2.2s-.8-.1-1.1-.4-.5-.7-.7-1.3l-.5-1.8c-.2-.8-.4-1.3-.4-1.6h0c0,0-.1.3-.3.6-.2.3-.3.5-.4.7.2.3.3.6.4,1s.2.8.3,1.1c0,.3.1.6.1.7,0,.2,0,.3-.2.5-.2.2-.4.3-.7.4s-.7.2-1.1.2-.7,0-.9-.1-.4-.2-.4-.4c0-.2-.1-.4-.1-.7h-.1c0,.5-.1.9-.1,1.2,0,.5.1.8.4,1.1.3.3.6.4,1.2.4,1.5,0,2.2-.8,2.3-2.5h0c.3,1.6.9,2.4,2,2.4h0c.4,0,.6,0,.9,0,.2,0,.4-.2.5-.3"/>
    <path class="st0" d="M88,92.4c0,.2,0,.3,0,.4h0c0-.2,0-.4.2-.7,0-.4.2-.7.2-.9,0-.3,0-.6.1-1,0-.4,0-.9,0-1.6,0-1,0-2.4-.1-4.1,0-.6,0-1.1,0-1.3h0c-.1.2-.3.4-.4.6s-.3.4-.5.6c0,.3.1.9.2,2,0,1,.2,2.1.2,3.3s0,2,0,2.7"/>
    <path class="st0" d="M92.3,95.3c.4.2.9.3,1.6.3s1.4-.1,1.9-.4,1-.7,1.3-1.2c.3-.5.5-1.2.5-1.9.3.4.7.6,1.2.6s.7-.1,1-.4.5-.6.6-1h0c0,.5,0,.8.3,1s.5.4.9.4.9-.2,1.1-.6c.3-.4.4-.9.4-1.6s0-.9-.2-1.3c-.1-.4-.2-.7-.4-1.1,0,0,0-.1,0-.2h0c0,.2-.2.4-.3.6s-.2.4-.3.5c.4.3.6.6.8.9.2.3.3.5.3.6s0,.2-.2.3c-.1,0-.3.2-.5.2-.2,0-.4,0-.6,0s-.5,0-.7-.1c-.2,0-.4-.2-.5-.3,0-.2,0-.4,0-.6,0-.2,0-.4,0-.5h-.1c0,.4-.2.7-.3.9s-.3.4-.5.5c-.2.1-.5.2-.8.2s-.5,0-.7-.2-.4-.4-.6-.7c-.2-.3-.4-.8-.6-1.4h0c0,.2-.1.4-.2.6s-.2.4-.3.5c.3.6.5,1,.7,1.3.2.3.2.6.2.7,0,.4-.2.7-.4,1.1-.3.3-.7.6-1.2.8-.5.2-1.1.3-1.8.3s-1.1,0-1.5-.3c-.4-.2-.7-.4-.9-.7-.2-.3-.3-.7-.3-1.2s0-.6,0-.9.2-.7.3-1h-.1c-.4.9-.6,1.7-.6,2.6s.1,1.1.3,1.5c.2.4.5.7,1,1"/>
    <path class="st0" d="M103.8,94.3c-.7.3-1.3.6-2,.7h0c.1.1.3.2.5.3.2.1.5.2.6.3s.4,0,.6,0c.5,0,.9-.2,1.4-.5.4-.3.8-.8,1-1.4.3-.6.4-1.3.4-2s0-.7-.1-1c0-.3-.2-.6-.3-.8-.1-.2-.3-.5-.4-.8h0c0,.2-.2.4-.3.7-.1.2-.2.4-.3.6.4.4.8.8,1,1.1.2.3.3.6.3.7,0,.3-.2.7-.7,1.1-.4.4-1,.8-1.7,1.2"/>
    <path class="st0" d="M107.1,87.2c0,.7,0,1.7,0,3.1,0,.6,0,1.1.2,1.4.1.3.4.6.6.7.3.1.7.2,1.2.2h21.3c.6,0,1.1,0,1.5-.2.4-.1.6-.3.8-.6.2.3.4.5.8.6.4.1.9.2,1.7.2h0c.4,0,.6,0,.9,0s.4-.2.5-.3c.2-.2.3-.5.5-.9.1-.4.2-.7.3-1.1s.1-.7.1-1.1c0-.6,0-1.2,0-1.9s0-1.5,0-2.5c0-.2,0-.5,0-.8s0-.5,0-.6h0c-.1.2-.3.4-.4.6s-.3.4-.5.6c0,.3.1.9.3,1.7s.2,1.7.3,2.6c0,.9.1,1.5.1,1.8s-.1.3-.4.4-.7.2-1.2.2-1,0-1.3,0c.2-.2.4-.4.5-.7.1-.3.2-.6.2-.9s0-.7-.2-1-.3-.5-.6-.7-.5-.2-.8-.2-.7.1-1,.4-.5.6-.7,1-.3.8-.3,1.3.1.7.4.9c-.3,0-.6,0-1,0h-21.3c-.4,0-.7,0-1-.2-.2-.1-.4-.3-.5-.5s-.2-.5-.2-.9,0-1.2,0-2.1c0-.9,0-1.6,0-2.1s0-.9,0-1.5c0-.3,0-.6,0-.8h0c-.1.2-.3.4-.4.6-.2.2-.3.4-.5.6,0,.4.2.8.2,1.2s0,.9.1,1.6M131.7,89.7c0-.2,0-.3.2-.5.2-.2.4-.3.6-.4.2-.1.5-.2.8-.2s.5,0,.7.2c.2.1.4.3.6.5.1.2.2.4.2.6s0,.3-.2.4-.3.3-.6.4-.6.2-.9.3c-.3-.1-.5-.2-.7-.4-.2-.2-.4-.3-.5-.5-.1-.2-.2-.3-.2-.5"/>
    <polygon class="st0" points="134.7 82.4 132.1 83.5 132.1 83.9 134.7 82.7 134.7 82.4"/>
    <path class="st0" d="M133.3,84.8l-.7.8h0c.1.1.3.2.5.4s.3.3.4.4l.7-.8c0-.1-.2-.3-.4-.4-.2-.2-.4-.3-.5-.4"/>
    <path class="st0" d="M139.5,89.7c0,1.1,0,2,0,2.7s0,.3,0,.4h0c0-.2,0-.4.2-.7,0-.4.2-.7.2-.9,0-.3,0-.6.1-1,0-.4,0-.9,0-1.6,0-1,0-2.4-.1-4.1,0-.6,0-1.1,0-1.3h0c-.1.2-.3.4-.4.6-.2.2-.3.4-.5.6,0,.3.1.9.2,2,0,1,.2,2.1.2,3.3"/>
    <path class="st0" d="M37.9,106.4h1s0-.1,0-.1h0c0-.1-.1-.1-.1-.1h0s0,0,0,0c0,0,0-.1,0-.2v-.3c.4-.5.7-.9,1.2-1.3s1-.5,1.6-.5l.9,2.1c0,0,0,.2,0,.2,0,0,0,0-.1,0h-.1s0,.1,0,.1h0c0,0,.1.1.1.1h2.1c0,0,.1,0,.1-.1h0c0-.1,0-.1,0-.1,0,0-.2,0-.3-.1-.1,0-.2-.2-.2-.3l-2.6-6.1h0s0,0,0,0h0s0,0,0,0h0s0,0,0,0h0s-2.6,6.2-2.6,6.2c0,0-.1.2-.2.3-.1,0-.2.1-.3.1h0s0,.1,0,.1c0,0,0,.1.1.1M40.5,101.5l.8,1.9c-.4,0-.7.1-1.1.3-.3.2-.7.4-.9.6l1.2-2.9h0Z"/>
    <path class="st0" d="M45.4,106c0,0-.1,0-.2,0h0s0,.1,0,.1c0,0,0,.1.1.1h5c0,0,.1,0,.1-.1v-1.6c0,0,0-.1-.1-.1h-.1s0,.1,0,.1c0,.2,0,.4-.1.6s-.2.3-.3.5-.3.2-.5.3c-.2,0-.4.1-.6.1h-1.7v-6c0,0,0-.2,0-.2s.1,0,.2,0h0s0-.1,0-.1c0,0,0-.1-.1-.1h-2.1c0,0-.1,0-.1.1h0c0,.1,0,.1,0,.1,0,0,.2,0,.2,0,0,0,0,.1,0,.2v5.7c0,0,0,.2,0,.2"/>
    <path class="st0" d="M58.2,99.8c.2,0,.4,0,.6.1.2,0,.3.2.5.3s.2.3.3.5c0,.2.1.4.1.6h0c0,0,.1.1.1.1h0s0-.1,0-.1v-1.6h0c0,0,0-.1,0-.1h-5c0,0-.1,0-.1.1h0c0,.1,0,.1,0,.1,0,0,.2,0,.2,0s0,.1,0,.2v5.7c0,0,0,.2,0,.2s-.1,0-.2,0h0s0,.1,0,.1c0,0,0,.1.1.1h2.1c0,0,.1,0,.1-.1h0c0-.1,0-.1,0-.1,0,0-.2,0-.2,0s0-.1,0-.2v-2.7h.9c0,0,.2,0,.2,0s0,.1,0,.2,0,.1.1.1.1,0,.1-.1v-.9h0c0-.1,0-.1,0-.1h0s0,.1,0,.1c0,0,0,.2,0,.2s-.1,0-.2,0h-.9v-3s1.7,0,1.7,0Z"/>
    <path class="st0" d="M62.7,106.1h-.1s0,.1,0,.1h0c0,0,.1.1.1.1h2.1c0,0,.1,0,.1-.1h0c0-.1,0-.1,0-.1,0,0-.2,0-.3-.1-.1,0-.2-.2-.2-.3l-2.6-6.1h0s0,0,0,0h0s0,0,0,0h0s0,0,0,0h0s-2.6,6.2-2.6,6.2c0,0-.1.2-.2.3s-.2.1-.3.1h0s0,.1,0,.1c0,0,0,.1.1.1h1s0-.1,0-.1h0c0-.1-.1-.1-.1-.1h0s0,0,0,0c0,0,0-.1,0-.2v-.3c.4-.5.7-.9,1.2-1.3s1-.5,1.6-.5l.9,2.1c0,0,0,.2,0,.2,0,0,0,0-.1,0M60.7,103.8c-.3.2-.7.4-.9.6l1.2-2.9.8,1.9c-.4,0-.7.1-1.1.3"/>
    <path class="st0" d="M68.9,104.5l1.2,1.8s0,0,.1,0h1.9s0-.1,0-.1h0c0-.1-.1-.1-.1-.1,0,0-.2,0-.3-.1s-.2-.2-.3-.3l-1-1.6c.4-.2.6-.5.8-.9.2-.4.3-.8.3-1.2s0-.7-.2-1c-.1-.3-.3-.6-.5-.8s-.5-.4-.8-.5-.6-.2-1-.2h-3.4c0,0-.1,0-.1.1h0c0,.1,0,.1,0,.1,0,0,.2,0,.2,0s0,.1,0,.2v5.7c0,0,0,.2,0,.2,0,0-.1,0-.2,0h0s0,.1,0,.1c0,0,0,.1.1.1h2.1c0,0,.1,0,.1-.1h0c0-.1,0-.1,0-.1,0,0-.2,0-.2,0s0-.1,0-.2v-1.3h1.5ZM67.4,99.8h1.6c.1,0,.3,0,.4.2.1.1.2.3.3.5,0,.2.2.4.2.7,0,.3,0,.5,0,.8s0,.6,0,.8c0,.3-.1.5-.2.7-.2.4-.4.6-.7.7h-1.6v-4.4h0Z"/>
    <path class="st0" d="M76.3,99.8c.2,0,.4,0,.6.1.2,0,.3.2.5.3s.2.3.3.5c0,.2.1.4.1.6h0c0,0,.1.1.1.1,0,0,.1,0,.1-.1v-1.6c0,0,0-.1-.1-.1h-5c0,0-.1,0-.1.1h0c0,.1,0,.1,0,.1,0,0,.2,0,.2,0,0,0,0,.1,0,.2v5.7c0,0,0,.2,0,.2,0,0-.1,0-.2,0h0s0,.1,0,.1c0,0,0,.1.1.1h5c0,0,.1,0,.1-.1v-1.6c0,0,0-.1-.1-.1h-.1s0,.1,0,.1c0,.2,0,.4-.1.6,0,.2-.2.3-.3.5s-.3.2-.5.3c-.2,0-.4.1-.6.1h-1.7v-3h.9c0,0,.2,0,.2,0s0,.1,0,.2,0,.1.1.1.1,0,.1-.1v-.9h0c0-.1,0-.1,0-.1h0s0,.1,0,.1c0,0,0,.2,0,.2,0,0-.1,0-.2,0h-.9v-3h1.7,0Z"/>
    <path class="st0" d="M83.1,103.2c-.1-.2-.3-.3-.5-.4-.2-.1-.4-.2-.6-.3l-1.6-.4c-.2,0-.4-.2-.6-.4s-.2-.4-.2-.7,0-.3,0-.5c0-.1.1-.3.2-.4s.2-.2.4-.2c.1,0,.3,0,.5,0h.3c.2,0,.5,0,.7.1.2,0,.4.2.6.4.2.2.3.3.4.6s.1.4.1.7,0,.1.1.1.1,0,.1-.1v-1.8c0,0,0-.1-.1-.1s-.1,0-.1.1v.2c0,0,0,.1,0,.2,0,0,0,0-.2,0s-.1,0-.2,0h0c-.2-.2-.4-.3-.6-.4s-.5-.1-.7-.1h-.3c-.3,0-.5,0-.8.2-.2.1-.5.3-.6.4s-.3.4-.4.6-.2.5-.2.8,0,.4.1.6c0,.2.2.4.3.6.1.2.3.3.5.4.2.1.4.2.6.3l1.6.4c.2,0,.4.2.6.4s.2.4.2.7,0,.3,0,.5c0,.1-.1.3-.2.4s-.2.2-.4.2-.3,0-.4,0h-.7c-.2,0-.5,0-.7-.1s-.4-.2-.6-.4c-.2-.2-.3-.3-.4-.6s-.1-.4-.1-.7h0c0,0-.1-.1-.1-.1,0,0-.1,0-.1.1v1.8c0,0,0,.1.1.1h.1s0-.1,0-.1v-.2c0,0,0-.1,0-.2s0,0,.2,0,.1,0,.2,0h0c.2.2.4.3.6.4.2,0,.5.1.7.1h.7c.3,0,.5,0,.8-.2.2-.1.5-.3.6-.4s.3-.4.4-.6.2-.5.2-.8,0-.4-.1-.6c0-.2-.2-.4-.3-.6"/>
    <path class="st0" d="M92.3,105.9c0,0,0,.2,0,.2,0,0,0,0-.1,0h-.1s0,.1,0,.1h0c0,0,.1.1.1.1h2.1c0,0,.1,0,.1-.1h0c0-.1,0-.1,0-.1,0,0-.2,0-.3-.1-.1,0-.2-.2-.2-.3l-2.6-6.1h0s0,0,0,0h0s0,0,0,0h0s0,0,0,0h0s-2.6,6.2-2.6,6.2c0,0-.1.2-.2.3-.1,0-.2.1-.3.1h0s0,.1,0,.1c0,0,0,.1.1.1h1s0-.1,0-.1h0c0-.1-.1-.1-.1-.1h0s0,0,0,0c0,0,0-.1,0-.2v-.3c.4-.5.7-.9,1.2-1.3s1-.5,1.6-.5l.9,2.1h0ZM90.2,103.8c-.3.2-.7.4-.9.6l1.2-2.9.8,1.9c-.4,0-.7.1-1.1.3"/>
    <path class="st0" d="M95.4,106c0,0-.1,0-.2,0h0s0,.1,0,.1c0,0,0,.1.1.1h5c0,0,.1,0,.1-.1v-1.6c0,0,0-.1-.1-.1h-.1s0,.1,0,.1c0,.2,0,.4-.1.6s-.2.3-.3.5-.3.2-.5.3c-.2,0-.4.1-.6.1h-1.7v-6c0,0,0-.2,0-.2s.1,0,.2,0h0s0-.1,0-.1c0,0,0-.1-.1-.1h-2.1c0,0-.1,0-.1.1h0c0,.1,0,.1,0,.1,0,0,.2,0,.2,0,0,0,0,.1,0,.2v5.7c0,0,0,.2,0,.2"/>
    <path class="st0" d="M104.9,106c0,0-.1,0-.2,0h0s0,.1,0,.1c0,0,0,.1.1.1h3c.5,0,.9,0,1.3-.3s.8-.4,1.1-.7c.3-.3.6-.7.7-1.1.2-.4.3-.9.3-1.3s0-.9-.3-1.3c-.2-.4-.4-.8-.7-1.1s-.7-.6-1.1-.7-.9-.3-1.3-.3h-3c0,0-.1,0-.1.1h0c0,.1,0,.1,0,.1,0,0,.2,0,.2,0s0,.1,0,.2v5.7c0,0,0,.2,0,.2M106.4,99.8h1.2c.3,0,.5,0,.8.2s.5.4.6.7c.2.3.3.6.4,1,.1.4.2.8.2,1.2s0,.8-.2,1.2c-.1.4-.2.7-.4,1-.2.3-.4.5-.6.7s-.5.2-.8.2h-1.2v-6.3h0Z"/>
    <path class="st0" d="M114.8,106.1h-.1s0,.1,0,.1h0c0,0,.1.1.1.1h2.1c0,0,.1,0,.1-.1h0c0-.1,0-.1,0-.1,0,0-.2,0-.3-.1-.1,0-.2-.2-.2-.3l-2.6-6.1h0s0,0,0,0h0s0,0,0,0h0s0,0,0,0h0s-2.6,6.2-2.6,6.2c0,0-.1.2-.2.3-.1,0-.2.1-.3.1h0s0,.1,0,.1c0,0,0,.1.1.1h1s0-.1,0-.1h0c0-.1-.1-.1-.1-.1h0s0,0,0,0c0,0,0-.1,0-.2v-.3c.4-.5.7-.9,1.2-1.3s1-.5,1.6-.5l.9,2.1c0,0,0,.2,0,.2,0,0,0,0-.1,0M112.8,103.8c-.3.2-.7.4-.9.6l1.2-2.9.8,1.9c-.4,0-.7.1-1.1.3"/>
    <path class="st0" d="M123.6,99.9c0,0,.1,0,.2,0h.1s0-.1,0-.1h0c0,0-.1-.1-.1-.1h-2.2s0,.1,0,.1h0c0,.1.1.1.1.1,0,0,.2,0,.2,0,0,0,0,.1,0,.2v2.7h-2.6v-2.7c0,0,0-.2,0-.2,0,0,.1,0,.2,0h0s0-.1,0-.1c0,0,0-.1-.1-.1h-2.1c0,0-.1,0-.1.1h0c0,.1,0,.1,0,.1,0,0,.2,0,.2,0,0,0,0,.1,0,.2v5.7c0,0,0,.2,0,.2,0,0-.1,0-.2,0h0s0,.1,0,.1c0,0,0,.1.1.1h2.1c0,0,.1,0,.1-.1h0c0-.1,0-.1,0-.1,0,0-.2,0-.2,0,0,0,0-.1,0-.2v-2.7h2.6v2.7c0,0,0,.2,0,.2,0,0-.1,0-.2,0h-.1s0,.1,0,.1h0c0,0,.1.1.1.1h2.2s0-.1,0-.1h0c0-.1-.1-.1-.1-.1,0,0-.2,0-.2,0s0-.1,0-.2v-5.7c0,0,0-.2,0-.2"/>
    <path class="st0" d="M131.3,106.3h0c0-.1,0-.1,0-.1,0,0-.2,0-.3-.1-.1,0-.2-.2-.2-.3l-2.6-6.1h0s0,0,0,0h0s0,0,0,0h0s0,0,0,0h0s-2.6,6.2-2.6,6.2c0,0-.1.2-.2.3-.1,0-.2.1-.3.1h0s0,.1,0,.1c0,0,0,.1.1.1h1s0-.1,0-.1h0c0-.1-.1-.1-.1-.1h0s0,0,0,0c0,0,0-.1,0-.2v-.3c.4-.5.7-.9,1.2-1.3s1-.5,1.6-.5l.9,2.1c0,0,0,.2,0,.2,0,0,0,0-.1,0h-.1s0,.1,0,.1h0c0,0,.1.1.1.1h2.1c0,0,.1,0,.1-.1M127,103.8c-.3.2-.7.4-.9.6l1.2-2.9.8,1.9c-.4,0-.7.1-1.1.3"/>
    <path class="st0" d="M137,103.2c-.2-.1-.3-.2-.5-.2.3-.2.5-.4.7-.6s.3-.6.3-.9,0-.5-.1-.7-.2-.4-.4-.6c-.2-.2-.4-.3-.6-.4s-.4-.1-.7-.1h-3.7c0,0-.1,0-.1.1h0c0,.1,0,.1,0,.1,0,0,.2,0,.2,0,0,0,0,.1,0,.2v5.7c0,0,0,.2,0,.2,0,0-.1,0-.2,0h0s0,.1,0,.1c0,0,0,.1.1.1h4c.2,0,.5,0,.7-.1.2,0,.4-.2.6-.4s.3-.4.4-.6c0-.2.1-.4.1-.7s0-.4,0-.6-.2-.4-.3-.5-.2-.3-.4-.4M133.8,99.8h1.9s0,0,.1,0c0,0,0,.2.1.3,0,.1,0,.3,0,.5,0,.2,0,.4,0,.7s0,.5,0,.7c0,.2,0,.3,0,.5,0,.1,0,.2-.1.3,0,0,0,0-.1,0h-1.9v-3ZM136.3,105.3c0,.2,0,.3,0,.5,0,.1,0,.2-.1.3,0,0,0,0-.1,0h-2.3v-3h2.3s0,0,.1,0c0,0,0,.2.1.3,0,.1,0,.3,0,.5,0,.2,0,.4,0,.7s0,.5,0,.7"/>
    <path class="st0" d="M140.2,106.1c0,0-.2,0-.2,0,0,0,0-.1,0-.2v-5.7c0,0,0-.2,0-.2,0,0,.1,0,.2,0h0s0-.1,0-.1c0,0,0-.1-.1-.1h-2.1c0,0-.1,0-.1.1h0c0,.1,0,.1,0,.1,0,0,.2,0,.2,0s0,.1,0,.2v5.7c0,0,0,.2,0,.2,0,0-.1,0-.2,0h0s0,.1,0,.1c0,0,0,.1.1.1h2.1c0,0,.1,0,.1-.1h0c0-.1,0-.1,0-.1Z"/>
  </g>
</svg>