<?xml version="1.0" encoding="UTF-8"?>
<svg id="Layer_1" xmlns="http://www.w3.org/2000/svg" version="1.1" xmlns:xlink="http://www.w3.org/1999/xlink" viewBox="0 0 595.3 841.9">
  <!-- Generator: Adobe Illustrator 29.3.0, SVG Export Plug-In . SVG Version: 2.1.0 Build 146)  -->
  <defs>
    <style>
      .st0 {
        fill: url(#linear-gradient2);
      }

      .st1 {
        fill: #e8cc64;
      }

      .st2 {
        fill: url(#linear-gradient1);
      }

      .st3, .st4 {
        fill: none;
      }

      .st5 {
        font-family: Doran-Bold, Doran;
        font-size: 21.7px;
        font-weight: 700;
      }

      .st6 {
        clip-path: url(#clippath-1);
      }

      .st7 {
        fill: #231f20;
      }

      .st8 {
        clip-path: url(#clippath-3);
      }

      .st9 {
        fill: #e0dedd;
      }

      .st10 {
        fill: url(#linear-gradient3);
      }

      .st11 {
        fill: #fbf7be;
      }

      .st12 {
        clip-path: url(#clippath-2);
      }

      .st13 {
        fill: #151515;
      }

      .st4 {
        stroke: #231f20;
        stroke-miterlimit: 10;
      }

      .st14 {
        fill: url(#linear-gradient);
      }

      .st15 {
        clip-path: url(#clippath);
      }
    </style>
    <clipPath id="clippath">
      <path class="st3" d="M56.1,571.6c-13.6,6-25.3,7-31.5,7s-1.4,0-2,0v1.3l10.2,34.8c8.9-6.2,19.7-7.7,28-7.7s12.1,1,12.6,1.2l13.6,2.9-13.7,2.7c-5.4,1-9.2,3.5-11.2,5.2l.2.2c4.1-1.4,8.2-2.1,12.3-2.1,6,0,12.1,1.5,17.9,4.5,3.8,1.9,6.8,4.2,9,6h.9c.8-1.3,1.6-2.4,2.3-3.2-1-3.5-1.8-4.9-1.9-5.1l-2.6-3.5,4.3-.9c2.3-.5,4.3-1.5,5.7-2.3-1.2-3.1-.7-6.3,0-8l1.3-3.9c-8.5-.8-28.3-3.5-34.5-12.3-2-2.8-2.5-6-1.6-9.3.7-2.5.6-4.5-.3-5.8-1.3-2-4.2-2.8-6.5-3.1-1-.2-2.1-.2-3.1-.2-3,0-6.2.7-9.1,2l-.3-.4Z"/>
    </clipPath>
    <linearGradient id="linear-gradient" x1="-6.9" y1="-27.3" x2="-5.9" y2="-27.3" gradientTransform="translate(2910 -77.1) rotate(-90) scale(104.3)" gradientUnits="userSpaceOnUse">
      <stop offset="0" stop-color="#fff"/>
      <stop offset="1" stop-color="#fffef4"/>
    </linearGradient>
    <clipPath id="clippath-1">
      <rect class="st3" y="823.6" width="594.8" height="17.4"/>
    </clipPath>
    <linearGradient id="linear-gradient1" x1="-7" y1="-26.9" x2="-6" y2="-26.9" gradientTransform="translate(4159 16871.8) scale(595.2)" gradientUnits="userSpaceOnUse">
      <stop offset="0" stop-color="#fef491"/>
      <stop offset="0" stop-color="#f7e782"/>
      <stop offset=".3" stop-color="#e9cd65"/>
      <stop offset=".5" stop-color="#dfba50"/>
      <stop offset=".8" stop-color="#d9af43"/>
      <stop offset="1" stop-color="#d7ac3f"/>
      <stop offset="1" stop-color="#d7ac3f"/>
    </linearGradient>
    <clipPath id="clippath-2">
      <path class="st3" d="M323.4,114.6h235.4-235.4Z"/>
    </clipPath>
    <linearGradient id="linear-gradient2" x1="-7.8" y1="-24.9" x2="-6" y2="-24.9" gradientTransform="translate(1282.9 3142.9) scale(121.8)" gradientUnits="userSpaceOnUse">
      <stop offset="0" stop-color="#d7ac3f"/>
      <stop offset="0" stop-color="#d7ac3f"/>
      <stop offset=".2" stop-color="#d9af43"/>
      <stop offset=".5" stop-color="#dfba4f"/>
      <stop offset=".7" stop-color="#e9cd64"/>
      <stop offset=".9" stop-color="#f6e682"/>
      <stop offset="1" stop-color="#fef491"/>
    </linearGradient>
    <clipPath id="clippath-3">
      <rect class="st3" x="323.4" y="112" width="235.4" height="5.2"/>
    </clipPath>
    <linearGradient id="linear-gradient3" x1="-7.9" y1="-24.8" x2="-6" y2="-24.8" gradientTransform="translate(1279.2 3140.4) scale(121.8)" gradientUnits="userSpaceOnUse">
      <stop offset="0" stop-color="#fef491"/>
      <stop offset="0" stop-color="#f7e782"/>
      <stop offset=".3" stop-color="#e9cd65"/>
      <stop offset=".5" stop-color="#dfba50"/>
      <stop offset=".8" stop-color="#d9af43"/>
      <stop offset="1" stop-color="#d7ac3f"/>
      <stop offset="1" stop-color="#d7ac3f"/>
    </linearGradient>
  </defs>
  <g>
    <g class="st15">
      <rect class="st14" x="20" y="545.4" width="94" height="105.6" transform="translate(-486.2 361) rotate(-60.4)"/>
    </g>
    <path class="st9" d="M176.6,754.9c-1.2,0-2.5.2-3.9.6h-.3l-.2.2c-.3.2-2.9,1.7-4.3,5-.6,1-4.7,2.8-8.6,4h0c-.1,0-.2,0-.4,0,.3.7.6,1.3.9,2,.3.7.6,1.4.8,2.2,1.7,4.6,3,9.7,3.9,13.7,0,.3.2.7.2,1,.4,1.6.6,3,.8,4,3.6-2.8,8.2-7.1,12.2-13,3.2,2.4,9.5,8,9.4,14.4v1.5l1.3.6s1.4.7,2.8,2.1l-3.8,1.2h-.1c-.2.2-5.4,2.8-1.3,11.6,3.3,7,6.8,11.1,6.9,11.2l1.6,1.8,1.7-1.8c.4-.4,8.6-9.1,8.5-19.6l1.4-6.1v-7.3c-.3-.5-1.9-4.7-7.8-7.1-3.1-1.3-7.8-8.5-10-12.9-.4-1.2-1.9-5.7-6-8.1-1.7-1-3.6-1.5-5.6-1.5"/>
    <path class="st9" d="M2.3,816.7c-.9,0-1.8,0-2.8.2v17.6h3.4c.5-.8.8-1.3.8-1.3,0,0,3.2-4.7,7.4-6.5.3-1.7.6-3.5,1.1-5.3h0c.2-.7.4-1.4.6-2.1v-.3c-2.7-1.1-6.4-2.1-10.6-2.1"/>
    <path class="st9" d="M9.3,551.5l-2.1,13,4.7,5.6,34.3,116.9c-1.1.6-2,1.4-2.4,2.3-.9,2-.8,4.9-.6,7.1.2,1.9-.6,3.8-2.1,5-.2,0-.3.2-.5.4h0c-1.7,1.4-3.8,3.5-5.7,6.8-.2.4-.5.8-.9,1.3l-1.4,1.6c-7.3,7.6-26.1,19.3-26.1,19.3l7.9,1.7c-5.1,4.2-10.1,7.7-14.9,10.5v54.5c1.9-.9,4-1.9,6.1-3.1,0,0,5.4-2.5,12-7.1h0l4.9-.7h1c-2.7,2.6-5.8,5.1-9.3,7.2,0,0,17.6-3.4,30.4-15.8l.2-.2.2-.3c1.9-1.9,3.7-4,5.3-6.2l.9,5.6h0l-1.4,8-2,4.3c-.8.3-1.6.7-2.4,1-18,6.7-25.2,19.4-28.1,29-.2.7-.4,1.4-.6,2.1h0c-.5,1.9-.8,3.6-1.1,5.3-.5,3.2-.6,6-.5,8h67.2c2.2-.3,5.3-.8,8.8-1.7,0,.4-.2.6-.2.7l-.2.5.2.6,2.1,7.4,1.2-.4c8.7-2.5,25.7-5,25.9-5l1.5-.2-.4-1.5c0,0,0-.3,0-.4-1.5-3.8-8.8-5.7-14.2-6.6,7.2-2.8,15.1-6.8,22.6-12.5,1.9-1.4,6.5-4.2,9.2-4.2s.3,0,.4,0c.6,0,1.2,0,1.9,0,4.5,0,10.5-1.6,11.7-1.9,2.2-.4,4.6-.6,6.4-.6s2.5,0,3,.4c2.8,3.6,1.9,9-2.7,16.2-1.1,1.2-3.3,4-2.6,6.4h0l-5.3-2.6-1.1.8c-.1,0-1.9,1.4-3.6,4.3h27.8v-8.4c.1-4.9,1.4-13.8,4.2-16.6,4.4-4.4,2.5-9.8.1-12.4-.5-.6-3.7-4.2-7.7-5.3h-5.7c-.7-.2-1.9-.6-3.1-1.2-.2-1.3-.4-2.5-.6-3.8,0-.4-.1-.8-.2-1.2-1.2-6.7-2.9-11.9-4.2-15.3-.3-.7-.5-1.4-.8-1.9-.6-1.6-1.1-2.4-1.1-2.4-.9-2.2-2.9-6.3-6.6-10.1v-7.3h-6l-9.2-25.4h0c-.5-1.3-1.2-3.3-1.9-5.7,1.3,1,2.9,1.8,4.8,2.3,7.2,1.9,7.8,10.5,7.8,10.8v.6c.2.4,1.6,4.3,4.9,5.9.9.4,1.8.6,2.8.6s2-.2,2.9-.6c5.2-2.1,7.3-4.3,7.8-5.1.8-.9,3.6-4.6.9-11.3-2.2-5.5-4.6-14.3-5-18.5,1.6-1.2,3.4-3.3,3.4-6v-.8l-1.8-2.3c.1-.2.2-.5.3-.7.8-1.6,1.6-4.1,2.7-7.6l.2-.2h0l1-3.4-3.4.7c-.3,0-3.2-2-5.7-3.7-2.4-1.7-3.6-4.8-2.7-7.6h0c0,0,2.1-7,2.1-7l-5.6,4.4c-.2,0-4,3.2-6.8,6.5-3.4-2.1-11.1-6-20.4-6s-3.9.2-5.9.5l-2.4.5,2.2,7.8c-2-.6-4.6-1.2-7.3-1.2s-4.4.3-6.6,1.3l-3.2,1.4,5.1,4.7c-3.7.6-8.6,1.9-13.1,5.3l-1.7,1.2c-2.7-2-5.7-4-5.7-4,.3-1.2.5-2.8.7-4.5h0c.4-4.5.5-9.5.5-9.5,1.9-1.9,2.7-4.7,2-7.3-.3-.9-.6-1.8-1-2.5h0c-1.1-2.1-2.4-3.3-2.4-3.3,0,0-.6-.8-1.9-2h0c-1.1-1-2.6-2.3-4.6-3.4-.8-.5-1.7-.7-2.7-.9h0c-.3,0-.7,0-1,0h-1.3c-4.3,0-8.5,1.8-11.7,4.8-.2,0-.3.3-.5.5h0c-1,1-2.1,2-3.3,3.3-.7.8-1.3,1.8-1.7,3.1h0c-2.2,7.1.7,20.3.7,20.3l-1.9-.3-18.7-63.8c7.9-6.3,18.4-7.7,26.3-7.7h.2c-3.2,2.1-4.9,4.1-5.1,4.2l-1.7,1.9,6.4,6.9,1.8-.7c4-1.6,8-2.4,12.1-2.4s10.2,1.3,15.2,3.8c6.9,3.5,11.1,8.2,11.2,8.2l3.2,3.6,1.5-4.6c1.4-4.2,3.9-6.4,3.9-6.5l1.3-1.1-.4-1.7c-.5-2.1-1.1-3.8-1.6-5,4-1.5,6.6-3.7,6.7-3.8l2-1.8-1.7-2.1c-1.8-2.3-.8-5-.8-5.1l3.7-11.2-3.7-.2c-7.7-.4-28.8-3-33.9-10.2-1-1.4-1.2-2.8-.8-4.5,1.1-4.1.8-7.6-1-10.4-1.9-3-5.4-4.9-10.3-5.6-1.3-.2-2.6-.3-4-.3-3.8,0-7.7.8-11.3,2.4-12.8,5.6-23.9,6.5-29.5,6.5s-3.8-.2-3.9-.2h0l-1.8-6h-.2l.5-4.2-1.7-1.8-8-9.2h.1ZM24.6,578.6c6.2,0,17.9-1,31.5-7,3-1.3,6.1-2,9.1-2s2.1,0,3.1.2c2.2.3,5.2,1.2,6.5,3.1.9,1.4,1,3.3.3,5.8-.9,3.3-.3,6.5,1.6,9.3,6.3,8.8,26,11.5,34.5,12.3l-1.3,3.9c-.7,1.7-1.2,4.9,0,8-1.3.8-3.3,1.8-5.7,2.3l-4.3.9,2.6,3.5c0,.2.9,1.7,1.9,5.1-.7.8-1.7,2.1-2.6,3.7-2.2-1.9-5.4-4.4-9.6-6.5-5.8-3-11.9-4.5-17.9-4.5s-8.3.7-12.3,2.1l-.2-.2c2.1-1.7,5.9-4.2,11.3-5.2l13.7-2.7-13.6-2.9c-.5,0-5.6-1.1-12.6-1.1s-19.1,1.5-28,7.7l-10.6-36h2.4"/>
    <g class="st6">
      <rect class="st2" y="823.6" width="594.8" height="17.4"/>
    </g>
    <rect class="st1" x="507.2" y="151.6" width="51.6" height="28.5"/>
    <rect class="st13" x="36.5" y="151.7" width="471" height="28.5"/>
    <path class="st4" d="M558.8,180.2H36.5M558.8,151.6H36.5v656h522.3V151.6Z"/>
    <path class="st7" d="M519.2,162.5c0-.1,0-.3,0-.5h0c0,.1.2.2.6.2h1.5c0,.1-.2.5-.2.6h-1.4c-.4,0-.6,0-.6-.3M520.3,165.8v-1.1c-1.5.8-1.8,1.1-1.8,1.4s.2.4.7.4,1.2-.3,1.2-.6M521.9,166.8l-.2.9c-.8,0-1.3-.4-1.3-1.6h0c0,.8-.5,1.2-1.3,1.2s-.9-.3-.9-.8.4-1.2,2.1-2.2v-.4c.2-.1.4-.4.5-.6h0c0,.4,0,1,0,2.3s.4,1.2,1,1.2"/>
    <path class="st7" d="M526.6,165.3h0c0,.1-.3.4-.4.6-1.3,0-1.8,1.8-4.4,1.8s-.2-.1-.2-.3c0-.4,0-.6.3-.6,2.4,0,3-.7,3.9-.9h0c-1.2-.2-1.9-.7-2.6-.7s-.6.2-.8.5h0c.3-1,.6-1.3,1-1.3.8,0,1.9.8,3.3.9"/>
    <path class="st7" d="M528.3,166.9h1.3c0-.8-.6-1.3-1.3-1.3s-1,.4-1,.8.2.6,1,.6M530.1,167.8h-.4c-.2,1.2-1.1,2-2,2s-.9-.3-1.3-.4h0c1.2-.1,2.8-.9,3.1-1.7h-1.3c-.8,0-1.1-.4-1.1-1.1s.5-1.8,1.2-1.8,1.2.7,1.3,2h.5l-.2.9h.2Z"/>
    <path class="st7" d="M531.5,166.4h0c0,1-.5,1.4-1.2,1.4s-.2-.1-.2-.3c0-.4,0-.6.3-.6.7,0,1.1-.2,1.1-.8,0-2.6,0-2.9-.3-3.7.2-.2.5-.6.6-.9h0v4.3c0,.9.3,1.1,1.1,1.1l-.2.9c-.8,0-1.3-.4-1.3-1.4"/>
    <path class="st7" d="M533.7,167.5c-.2.2-.5.3-.9.3s-.2-.1-.2-.3c0-.4,0-.6.3-.6.7,0,1.1-.2,1.1-.4,0-.8-.4-3.6-.5-4.1.2-.2.5-.6.6-.8h0c0,.4,0,2.5,0,3.9s-.2,1.5-.6,2"/>
    <path class="st7" d="M536,165.1c0,1.7-.2,1.9-.4,2.8h0c0-1.1-.2-5-.3-5.6.2-.2.5-.6.6-.8h0c0,.4,0,2.3,0,3.6"/>
    <path class="st7" d="M541.6,166.5c0-.4-.4-1.1-1.1-1.1s-.9.4-1.2,1.1c.4.1,1.1.3,1.8.3s.5-.1.5-.3M542.9,166.8l-.2.9c-.6,0-1-.4-1-1.2h0c0,.8-.4,1.2-.9,1.2-.8,0-1.4-.2-1.6-.2s-.5.3-.5.7v2.5c0,.1-.2.3-.3.4h0v-2.8c0-1.5.4-1.8.9-1.8.3-1.2.7-1.8,1.4-1.8s.9.3,1.2,1.1c.2.7.5.9,1.1.9"/>
    <path class="st7" d="M545.6,165c-.2-.6-.7-1-1.2-1s-1,.4-1,.8.2.5,1,.5.9-.1,1.2-.3M543.3,162.1c0-.1,0-.3,0-.5h0c0,.1.2.2.6.2h1.5c0,.1-.2.5-.2.6h-1.4c-.4,0-.6,0-.6-.3M545.8,165.7c0,1.4-.8,2-2.8,2h-.2c0,0-.2-.1-.2-.3,0-.4,0-.6.3-.6h.2c1.9,0,2.5-.4,2.5-.9v-.9h0c0,.6-.6,1-1.3,1s-1-.4-1-1c0-.9.5-1.7,1.2-1.7s1.3.8,1.3,2.4"/>
    <path class="st7" d="M544.9,169.4h0c1.3-.2,2.9-1.3,2.9-2s-.3-.6-.9-1.2c0-.2.3-.6.4-.8h0c.2.5.6,1.1.6,1.8,0,1.6-.9,2.6-1.9,2.6s-.8-.3-1.1-.4"/>
    <path class="st11" d="M461.4,162.5c0-.1.1-.3.1-.5h0c0,.1.1.2.6.2h1.5c0,.1-.2.5-.2.6h-1.4c-.4,0-.6,0-.6-.3M462.6,165.8v-1.1c-1.5.8-1.8,1.1-1.8,1.4s.2.4.7.4,1.2-.3,1.2-.6M464.1,166.8l-.2.9c-.8,0-1.3-.4-1.3-1.6h0c-.1.8-.5,1.2-1.3,1.2s-.9-.3-.9-.8.4-1.2,2.1-2.2v-.4c.2-.1.4-.4.5-.6h0c0,.4.1,1,.1,2.3s.4,1.2,1,1.2"/>
    <path class="st11" d="M468.8,165.3h0c-.1.1-.3.4-.4.6-1.3,0-1.8,1.8-4.4,1.8s-.2-.1-.2-.3c0-.4.1-.6.4-.6,2.4,0,3-.7,3.9-.9h0c-1.2-.2-1.9-.7-2.6-.7s-.6.2-.8.6h0c.3-1,.6-1.3,1-1.3.8,0,1.9.8,3.3.9"/>
    <path class="st11" d="M470.6,166.9h1.3c-.1-.8-.6-1.3-1.3-1.3s-1,.4-1,.8.2.6,1,.6M472.4,167.8h-.4c-.2,1.2-1.1,2-2,2s-.9-.3-1.3-.4h0c1.2-.1,2.8-.9,3.1-1.7h-1.3c-.8,0-1.1-.4-1.1-1.1s.5-1.8,1.2-1.8,1.2.7,1.3,2h.5l-.2.9h.2Z"/>
    <path class="st11" d="M473.7,166.4h0c0,1-.5,1.4-1.2,1.4s-.2-.1-.2-.3c0-.4.1-.6.4-.6.7,0,1.1-.2,1.1-.8,0-2.6-.1-2.9-.3-3.7.2-.2.5-.6.6-.9h0v4.3c0,.9.3,1.1,1.1,1.1l-.2.9c-.8,0-1.3-.4-1.3-1.4"/>
    <path class="st11" d="M475.9,167.5c-.2.2-.5.3-.9.3s-.2-.1-.2-.3c0-.4.1-.6.4-.6.7,0,1.1-.2,1.1-.4,0-.8-.4-3.6-.5-4.1.2-.2.5-.6.6-.8h0c0,.4.1,2.5.1,3.9s-.2,1.5-.6,2"/>
    <path class="st11" d="M478.2,165.1c0,1.7-.2,1.9-.4,2.8h0c0-1.1-.2-5-.4-5.6.2-.2.5-.6.6-.8h0c0,.4.1,2.3.1,3.6"/>
    <path class="st11" d="M482.9,166.3c0-.3-.5-.8-1.6-1.3-.4.6-.5,1-.5,1.3s.3.5.9.5,1.2-.3,1.2-.5M480.7,163.1c0-.1.1-.3.1-.5h0c0,.1.1.2.6.2h1.5c0,.1-.2.5-.2.6h-1.4c-.4,0-.6,0-.6-.3M483,166.2c0,1.1-.5,1.6-1.4,1.6s-1-.4-1-.9.2-1.1.7-1.9h-.2c0-.3.2-.7.3-.9h0c.4.3,1.7.8,1.7,2.1"/>
    <path class="st11" d="M482.1,169.4h0c1.3-.2,2.9-1.3,2.9-2s-.3-.6-.9-1.2c.1-.2.3-.6.4-.8h0c.2.5.6,1.1.6,1.8,0,1.6-.9,2.6-1.9,2.6s-.8-.3-1.1-.4"/>
    <path class="st11" d="M487.2,166.9h1.3c-.1-.8-.6-1.3-1.3-1.3s-1,.4-1,.8.2.6,1,.6M488.9,167.8h-.4c-.2,1.2-1.1,2-2,2s-.9-.3-1.3-.4h0c1.2-.1,2.8-.9,3.1-1.7h-1.3c-.8,0-1.1-.4-1.1-1.1s.5-1.8,1.2-1.8,1.2.7,1.3,2h.5l-.2.9h.2Z"/>
    <path class="st11" d="M494.4,166.1c0-.4-.4-.9-1.1-.9s-1.5.6-2.1,1.4c.3.1.7.2,1.2.2,1.2,0,2.1-.3,2.1-.7M494.5,165.8c0,1.2-.9,2-2.4,2s-1.8-.4-1.9-1.1h0c-.1.7-.6,1.1-1.3,1.1s-.2-.1-.2-.3c0-.4.1-.6.4-.6.8,0,1.2-.3,1.3-1.1h0c0,.4.2.7.6.9.9-1.5,1.6-2.1,2.4-2.1s1.1.5,1.1,1.3"/>
    <path class="st11" d="M374.4,162.5c0-.1.1-.3.1-.5h0c0,.1.1.2.6.2h1.5c0,.1-.2.5-.2.6h-1.4c-.4,0-.6,0-.6-.3M375.6,165.8v-1.1c-1.5.8-1.8,1.1-1.8,1.4s.2.4.7.4,1.2-.3,1.2-.6M377.1,166.8l-.2.9c-.8,0-1.3-.4-1.3-1.6h0c-.1.8-.5,1.2-1.3,1.2s-.9-.3-.9-.8.4-1.2,2.1-2.2v-.4c.2-.1.4-.4.5-.6h0c0,.4.1,1,.1,2.3s.4,1.2,1,1.2"/>
    <path class="st11" d="M377.7,163.2c0-.1,0-.3.1-.5h0c0,.1.2.2.6.2h1.5c0,.1-.2.5-.2.6h-1.4c-.4,0-.6,0-.6-.3M378.6,166.7c.8-.2,1.1-.5,1.1-.8,0-.5-.5-.9-1-.9s-1.1.4-1.1.7.4.7,1,.9M380.3,166.8l-.2.9c-1,0-1.4-.2-1.6-.5-.3.4-.7.5-1.5.5s-.2-.1-.2-.3c0-.4.1-.6.4-.6h.6c-.1-.2-.2-.4-.2-.6,0-1,.6-1.8,1.3-1.8s1,.5,1,1.3-.2.8-.5,1.1h.9"/>
    <path class="st11" d="M384,166.1c0-.4-.4-.9-1.1-.9s-1.6.6-2.2,1.6h1.3c1.2,0,2.1-.3,2.1-.7M384.8,166.8l-.2.9c-.5,0-.8-.3-.8-.9-.4.6-1.1.9-2.1.9h-1.6c-.1,0-.2-.1-.2-.3,0-.4.1-.6.4-.6h.2c.4-.6.6-1.1.6-2.1s-.1-2-.2-2.4c.2-.2.5-.6.6-.8h0v2.5c0,.6-.1,1.2-.9,2.4h0c.9-1.3,1.5-1.9,2.2-1.9s1.1.5,1.1,1.3,0,.6-.2.9c.2,0,.4.1.8.1h.3Z"/>
    <path class="st11" d="M385.5,164.4h0l.5-.6c.2.1.5.4.6.5l-.5.5c-.1-.1-.4-.4-.6-.5M386.5,166.4h0c0,1-.6,1.4-1.8,1.4s-.2-.1-.2-.3c0-.4.1-.6.4-.6,1.4,0,1.6-.3,1.8-1.3h0v.4c0,.6.2.9,1,.9l-.2.9c-.7,0-1.1-.3-1-1.4"/>
    <path class="st11" d="M389,166.2c.2.4,1,.8,1.6.8s.5-.1.5-.4c0-.5-.5-1.1-1.2-1.1s-.8.2-1,.7M391.3,166.6h0c0,.8-.3,1.2-.8,1.2-.9,0-1.6-.4-1.7-1v-.5h0c-.2.5-.4,1.4-1.3,1.4s-.2-.1-.2-.3c0-.4.1-.6.4-.6.5,0,.9-.2,1.1-.8h.1c.4-.8.8-1.2,1.3-1.2s.8.2,1.1,1.1c.3.7.6.9,1.2.9l-.2.9c-.6,0-1-.4-1.1-1.1"/>
    <path class="st11" d="M393.3,167.5c-.2.2-.5.3-.9.3s-.2-.1-.2-.3c0-.4.1-.6.4-.6.7,0,1.1-.2,1.1-.4,0-.8-.4-3.6-.5-4.1.2-.2.5-.6.6-.8h0c0,.4.1,2.5.1,3.9s-.2,1.5-.6,2"/>
    <path class="st11" d="M395.7,165.1c0,1.7-.2,1.9-.4,2.8h0c0-1.1-.2-5-.4-5.6.2-.2.5-.6.6-.8h0c0,.4.1,2.3.1,3.6"/>
    <path class="st11" d="M418.3,162.5c0-.1.1-.3.1-.5h0c0,.1.1.2.6.2h1.5c0,.1-.2.5-.2.6h-1.4c-.4,0-.6,0-.6-.3M419.4,165.8v-1.1c-1.5.8-1.8,1.1-1.8,1.4s.2.4.7.4,1.2-.3,1.2-.6M421,166.8l-.2.9c-.8,0-1.3-.4-1.3-1.6h0c-.1.8-.5,1.2-1.3,1.2s-.9-.3-.9-.8.4-1.2,2.1-2.2v-.4c.2-.1.4-.4.5-.6h0c0,.4.1,1,.1,2.3s.4,1.2,1,1.2"/>
    <path class="st11" d="M420.8,167.8c-.1,0-.2-.1-.2-.3,0-.4.1-.6.4-.6,1,0,1.6-.2,1.6-.4s-.4-.8-.8-1.1c.1-.1.3-.6.4-.8h0c0,.2.5.9.5,1.8s-.5,1.5-1.8,1.5M420.4,168.6h1.4c.4,0,.6,0,.6.3s0,.3-.1.5h0c0-.1-.2-.2-.6-.2h-1.5c0-.1.2-.5.2-.6"/>
    <path class="st11" d="M426.2,166.1h0c0,1.1-.6,1.7-1.5,1.7s-1-.4-1-1v-.8h0c0,.6.2.8.9.8s1.4-.4,1.4-.7-.3-1.3-.6-1.9c.1-.2.4-.7.5-.9h0c0,.4.2.8.6,2.2.2.8.6,1.2,1.2,1.2l-.2.9c-.7,0-1.2-.4-1.4-1.6"/>
    <path class="st11" d="M428.9,166.4h0c0,1-.5,1.4-1.2,1.4s-.2-.1-.2-.3c0-.4.1-.6.4-.6.7,0,1.1-.2,1.1-.8,0-2.6-.1-2.9-.3-3.7.2-.2.5-.6.6-.9h0v4.3c0,.9.3,1.1,1.1,1.1l-.2.9c-.8,0-1.3-.4-1.3-1.4"/>
    <path class="st11" d="M430.2,169.1h0l.5-.6c.2.1.5.4.6.5l-.5.5c-.1-.1-.4-.4-.6-.5M431.9,166.4h0c0,1-.6,1.4-1.8,1.4s-.2-.1-.2-.3c0-.4.1-.6.4-.6,1.4,0,1.6-.3,1.8-1.3h0v.4c0,.6.2.9,1,.9l-.2.9c-.7,0-1.1-.3-1-1.4"/>
    <path class="st11" d="M433.9,167.5c-.2.2-.5.3-.9.3s-.2-.1-.2-.3c0-.4.1-.6.4-.6.7,0,1.1-.2,1.1-.4,0-.8-.4-3.6-.5-4.1.2-.2.5-.6.6-.8h0c0,.4.1,2.5.1,3.9s-.2,1.5-.6,2"/>
    <path class="st11" d="M436.3,165.1c0,1.7-.2,1.9-.4,2.8h0c0-1.1-.2-5-.4-5.6.2-.2.5-.6.6-.8h0c0,.4.1,2.3.1,3.6"/>
    <path class="st11" d="M292.7,162.5c0-.1.1-.3.1-.5h0c0,.1.1.2.6.2h1.5c0,.1-.2.5-.2.6h-1.4c-.4,0-.6,0-.6-.3M293.9,165.8v-1.1c-1.5.8-1.8,1.1-1.8,1.4s.2.4.7.4,1.2-.3,1.2-.6M295.4,166.8l-.2.9c-.8,0-1.3-.4-1.3-1.6h0c-.1.8-.5,1.2-1.3,1.2s-.9-.3-.9-.8.4-1.2,2.1-2.2v-.4c.2-.1.4-.4.5-.6h0c0,.4.1,1,.1,2.3s.4,1.2,1,1.2"/>
    <path class="st11" d="M296.2,167.5c-.2.2-.5.3-.9.3s-.2-.1-.2-.3c0-.4.1-.6.4-.6.7,0,1.1-.2,1.1-.4,0-.8-.4-3.6-.5-4.1.2-.2.5-.6.6-.8h0c0,.4.1,2.5.1,3.9s-.2,1.5-.6,2"/>
    <path class="st11" d="M298.5,165.1c0,1.7-.2,1.9-.4,2.8h0c0-1.1-.2-5-.4-5.6.2-.2.5-.6.6-.8h0c0,.4.1,2.3.1,3.6"/>
    <path class="st11" d="M300.5,167.8c-.7,0-1-.4-1-1v-.8h0c0,.6.2.8.9.8,1.1,0,1.6-.3,1.6-.5,0-.4-.8-1.3-1.6-1.8,0-.2.2-.6.3-.8h0c.2.2,1.4,1.1,1.4,2.5s-.6,1.6-1.8,1.6"/>
    <path class="st11" d="M305.6,162.5c0-.1.1-.3.1-.5h0c0,.1.1.2.6.2h1.5c0,.1-.2.5-.2.6h-1.4c-.4,0-.6,0-.6-.3M306.7,165.8v-1.1c-1.5.8-1.8,1.1-1.8,1.4s.2.4.7.4,1.2-.3,1.2-.6M308.3,166.8l-.2.9c-.8,0-1.3-.4-1.3-1.6h0c-.1.8-.5,1.2-1.3,1.2s-.9-.3-.9-.8.4-1.2,2.1-2.2v-.4c.2-.1.4-.4.5-.6h0c0,.4.1,1,.1,2.3s.4,1.2,1,1.2"/>
    <path class="st11" d="M312,166.1c0-.4-.4-.9-1.1-.9s-1.6.6-2.2,1.6h1.3c1.2,0,2.1-.3,2.1-.7M312.8,166.8l-.2.9c-.5,0-.8-.3-.8-.9-.4.6-1.1.9-2.1.9h-1.6c-.1,0-.2-.1-.2-.3,0-.4.1-.6.4-.6h.2c.4-.6.6-1.1.6-2.1s-.1-2-.2-2.4c.2-.2.5-.6.6-.8h0v2.5c0,.6-.1,1.2-.9,2.4h0c.9-1.3,1.5-1.9,2.2-1.9s1.1.5,1.1,1.3,0,.6-.2.9c.2,0,.4.1.8.1h.3Z"/>
    <path class="st11" d="M313.4,163.2c0-.1,0-.3.1-.5h0c0,.1.2.2.6.2h1.5c0,.1-.2.5-.2.6h-1.4c-.4,0-.6,0-.6-.3M314.3,166.7c.8-.2,1.1-.5,1.1-.8,0-.5-.5-.9-1-.9s-1.1.4-1.1.7.4.7,1,.9M316,166.8l-.2.9c-1,0-1.4-.2-1.6-.5-.3.4-.7.5-1.5.5s-.2-.1-.2-.3c0-.4.1-.6.4-.6h.6c-.1-.2-.2-.4-.2-.6,0-1,.6-1.8,1.3-1.8s1,.5,1,1.3-.2.8-.5,1.1h.9"/>
    <path class="st11" d="M316.2,163.4h0l.5-.6c.2.1.5.4.6.5l-.5.5c-.1-.1-.4-.4-.6-.5M315.8,167.8c-.1,0-.2-.1-.2-.3,0-.4.1-.6.4-.6,1,0,1.6-.2,1.6-.4s-.4-.8-.8-1.1c.1-.1.3-.6.4-.8h0c0,.2.5.9.5,1.8s-.5,1.5-1.8,1.5"/>
    <path class="st11" d="M322.1,169.1h0l.5-.6c.2.1.5.4.6.5l-.5.5c-.1-.1-.4-.4-.6-.5M322.4,167.8c-1.8,0-2.5-.5-2.5-1.6s0-.8.3-1.4h0c0,.3-.1.5-.1.8,0,.7.7,1.2,2.4,1.2s3.1-.5,3.1-.8-.4-.8-.8-1.1c.1-.1.3-.6.4-.8h0c0,.2.5.9.5,1.8s-.9,1.9-3.3,1.9"/>
    <path class="st11" d="M328.5,167.8c-.2,0-.4,0-.6-.2-.1,1.3-1,2.2-1.9,2.2s-.8-.3-1.1-.4h0c1.2-.2,2.7-1.2,2.9-1.9-.3-.2-.5-.7-.8-1.4,0-.1.2-.5.3-.8h0c.4,1.2.7,1.5,1.3,1.5l-.2.9h.1Z"/>
    <path class="st11" d="M331.3,165c-.2-.6-.6-1-1.2-1s-1,.4-1,.8.2.5,1,.5.9-.1,1.2-.3M329,162.1c0-.1,0-.3.1-.5h0c0,.1.1.2.6.2h1.5c0,.1-.2.5-.2.6h-1.4c-.4,0-.6,0-.6-.3M331.5,165.7c0,1.4-.8,2-2.8,2h-.2c-.1,0-.2-.1-.2-.3,0-.4.1-.6.4-.6h.2c1.9,0,2.5-.4,2.5-.9v-.9h0c-.1.6-.6,1-1.3,1s-1-.4-1-1c0-.9.5-1.7,1.2-1.7s1.3.8,1.3,2.4"/>
    <path class="st11" d="M333.1,162c0,.4.1,1.8.1,3.1s-.2,1.9-.4,2.8h0c0-1.1-.2-4.5-.3-5.1.2-.2.5-.6.6-.8h0ZM333.6,160.8h0c0,.2-.1.3-.2.4-.6.1-1.1.4-1.4.6h0c.1-.3.3-.5.5-.6-.3,0-.5-.3-.5-.5,0-.5.4-1,.8-1s.4.2.4.5,0,.1,0,.2h0c0-.2-.1-.3-.4-.3s-.6.3-.6.4.2.4.6.4.7,0,.8-.1"/>
    <path class="st11" d="M240.6,166.4c0,.9-.4,1.4-1,1.4s-.9-.3-.8-.9h0c-.1.6-.5.9-1.1.9s-.6-.1-.8-.4c0,1.5-1.1,2.4-2.5,2.4s-1.9-.7-1.9-1.9.1-1.2.4-1.8h0c-.2.4-.2.9-.2,1.2,0,.9.6,1.4,1.8,1.4s2.3-.7,2.3-1.4-.2-.6-.6-1.4c0-.1.2-.5.3-.7h0c.4,1.2.8,1.5,1.2,1.5s1-.3,1.1-1.1h0s0,.5-.1.7c.1.2.4.3.8.3s.8-.2.8-.4-.2-.6-.7-1c.1-.2.3-.5.4-.8h0c.1.3.4.9.4,1.7"/>
    <path class="st11" d="M241.8,166.2c0-2.7-.1-3.1-.3-3.9.2-.2.5-.6.6-.8h0v4.3c0,.9.3,1.1,1.1,1.1l-.2.9c-1,0-1.3-.4-1.4-1.6"/>
    <path class="st11" d="M243.9,163.2c0-.1,0-.3.1-.5h0c0,.1.2.2.6.2h1.5c0,.1-.2.5-.2.6h-1.4c-.4,0-.6,0-.6-.3M244.8,166.7c.8-.2,1.1-.5,1.1-.8,0-.5-.5-.9-1-.9s-1.1.4-1.1.7.4.7,1,.9M246.5,166.8l-.2.9c-1,0-1.4-.2-1.6-.5-.3.4-.7.5-1.6.5s-.2-.1-.2-.3c0-.4.1-.6.4-.6h.6c-.1-.2-.2-.4-.2-.6,0-1,.6-1.8,1.3-1.8s1,.5,1,1.3-.2.8-.5,1.1h.9"/>
    <path class="st11" d="M247.9,166.2c.2.4,1,.8,1.6.8s.6-.1.6-.4c0-.5-.5-1.1-1.2-1.1s-.8.2-1,.7M250.1,166.6h0c0,.8-.3,1.2-.8,1.2-.9,0-1.6-.4-1.7-1v-.5h0c-.2.5-.4,1.4-1.3,1.4s-.2-.1-.2-.3c0-.4.1-.6.4-.6.6,0,.9-.2,1.1-.8h.1c.4-.8.8-1.2,1.3-1.2s.8.2,1.1,1.1c.3.7.6.9,1.2.9l-.2.9c-.6,0-1-.4-1.1-1.1"/>
    <path class="st11" d="M252.2,167.5c-.2.2-.4.3-.9.3s-.2-.1-.2-.3c0-.4.1-.6.4-.6.7,0,1.1-.2,1.1-.4,0-.8-.4-3.6-.5-4.1.2-.2.5-.6.6-.8h0c0,.4.1,2.5.1,3.9s-.2,1.5-.6,2"/>
    <path class="st11" d="M254.5,165.1c0,1.7-.2,1.9-.4,2.8h0c0-1.1-.2-5-.4-5.6.2-.2.5-.6.6-.8h0c0,.4.1,2.3.1,3.6"/>
    <path class="st11" d="M188.9,165.8v-1.1c-1.5.8-1.8,1.1-1.8,1.4s.2.4.7.4,1.2-.3,1.2-.6M190.5,166.8l-.2.9c-.8,0-1.3-.4-1.3-1.6h0c-.1.8-.5,1.2-1.3,1.2s-.9-.3-.9-.8.4-1.2,2.1-2.2v-.4c.2-.1.4-.4.6-.6h0c0,.4.1,1,.1,2.3s.4,1.2,1,1.2"/>
    <path class="st11" d="M191.4,169.1h0l.5-.6c.2.1.5.4.6.5l-.5.5c-.1-.1-.4-.4-.6-.5M195.2,165.3h0c-.1.1-.3.4-.4.6-1.3,0-1.8,1.8-4.4,1.8s-.2-.1-.2-.3c0-.4.1-.6.4-.6,2.4,0,3.1-.7,3.9-.9h0c-1.2-.2-1.9-.7-2.6-.7s-.6.2-.8.6h0c.3-1,.6-1.3,1-1.3.8,0,1.9.8,3.3.9"/>
    <path class="st11" d="M198.1,166.6c-.2-.7-.6-1.1-1.2-1.1s-1,.4-1,.8.2.6,1,.6.8,0,1.2-.3M198.3,167.1c0,1.7-1,2.7-2,2.7s-.9-.3-1.3-.4h0c1.4-.2,3.2-1.1,3.2-2s0-.4,0-.5h0c-.1.6-.6,1-1.3,1s-1.1-.4-1.1-1.1.5-1.8,1.2-1.8,1.3.8,1.3,2.2"/>
    <path class="st11" d="M201.9,165.4c-.4.5-1,.9-1.8,1.3.3.1.6.2.9.2.9,0,1.4-.2,1.4-.4s-.1-.6-.5-1M202.1,165.1c.3.4.4.8.4,1.2,0,1-.6,1.6-1.5,1.6s-1.2-.4-1.8-.8h0c1.2-.5,2-1.1,2.5-1.8-.5-.5-1.3-1.1-2.5-1.6,0-.2.1-.7.1-1h0c1.3.8,2.1,1.5,2.6,2.1.1-.4.2-.8.2-1.2s0-.9-.1-1.3c.2-.2.4-.5.6-.7h0v1.3c0,.9-.2,1.7-.5,2.3M200.1,161.9c-.6.1-1.1.4-1.4.6h0c0-.3.3-.5.6-.6-.3,0-.5-.3-.5-.5,0-.5.4-1,.8-1s.4.2.4.5,0,.1,0,.2h0c0-.2-.1-.3-.4-.3s-.6.3-.6.4.2.4.6.4.7,0,.8-.1h0c0,.1-.1.3-.2.4"/>
    <path class="st11" d="M204.4,165.1c0,1.7-.2,1.9-.4,2.8h0c0-1.1-.2-5-.4-5.6.2-.2.5-.6.6-.8h0c0,.4.1,2.3.1,3.6"/>
    <path class="st11" d="M207.7,167.8c-.7,0-1-.4-1-1v-.8h0c0,.6.2.8.9.8,1.1,0,1.6-.3,1.6-.5,0-.4-.8-1.3-1.6-1.8,0-.2.2-.6.3-.8h0c.2.2,1.4,1.1,1.4,2.5s-.6,1.6-1.8,1.6"/>
    <path class="st11" d="M213,166.1h0c0,1.1-.6,1.7-1.6,1.7s-1-.4-1-1v-.8h0c0,.6.2.8.9.8s1.4-.4,1.4-.7-.3-1.3-.6-1.9c.1-.2.4-.7.4-.9h0c0,.4.2.8.6,2.2.2.8.6,1.2,1.2,1.2l-.2.9c-.7,0-1.2-.4-1.4-1.6"/>
    <path class="st11" d="M218.1,166.3c-.1.1-.4.6-.6.9-1.3.3-2,.6-3.2.6s-.2-.1-.2-.3c0-.4.1-.6.4-.6h.7c-.2-.2-.4-.5-.4-.8,0-1.1.8-1.9,1.6-1.9s1.1.5.9,1.1h0c0-.3-.3-.5-.9-.5s-1.4.4-1.4.9.5.9,1.3.9,1.3-.1,1.8-.3h0Z"/>
    <path class="st11" d="M40.3,162.5c0-.1,0-.3,0-.5h0c0,.1.2.2.6.2h1.5c0,.1-.2.5-.2.6h-1.4c-.4,0-.6,0-.6-.3M41.5,165.8v-1.1c-1.5.8-1.8,1.1-1.8,1.4s.2.4.7.4,1.2-.3,1.2-.6M43,166.8l-.2.9c-.8,0-1.3-.4-1.3-1.6h0c0,.8-.5,1.2-1.3,1.2s-.9-.3-.9-.8.4-1.2,2.1-2.2v-.4c.2-.1.4-.4.5-.6h0c0,.4,0,1,0,2.3s.4,1.2,1,1.2"/>
    <path class="st11" d="M47.7,165.3h0c0,.1-.3.4-.4.6-1.3,0-1.8,1.8-4.4,1.8s-.2-.1-.2-.3c0-.4,0-.6.3-.6,2.4,0,3-.7,3.9-.9h0c-1.2-.2-1.9-.7-2.6-.7s-.6.2-.8.6h0c.3-1,.6-1.3,1-1.3.8,0,1.9.8,3.3.9"/>
    <path class="st11" d="M49.5,166.9h1.3c0-.8-.6-1.3-1.3-1.3s-1,.4-1,.8.2.6,1,.6M51.2,167.8h-.4c-.2,1.2-1.1,2-2,2s-.9-.3-1.3-.4h0c1.2-.1,2.8-.9,3.1-1.7h-1.3c-.8,0-1.1-.4-1.1-1.1s.5-1.8,1.2-1.8,1.2.7,1.3,2h.5l-.2.9h.2Z"/>
    <path class="st11" d="M52.6,166.4h0c0,1-.5,1.4-1.2,1.4s-.2-.1-.2-.3c0-.4,0-.6.3-.6.7,0,1.1-.2,1.1-.8,0-2.6,0-2.9-.3-3.7.2-.2.5-.6.6-.9h0v4.3c0,.9.3,1.1,1.1,1.1l-.2.9c-.8,0-1.3-.4-1.3-1.4"/>
    <path class="st11" d="M54.8,167.5c-.2.2-.5.3-.9.3s-.2-.1-.2-.3c0-.4,0-.6.3-.6.7,0,1.1-.2,1.1-.4,0-.8-.4-3.6-.5-4.1.2-.2.5-.6.6-.8h0c0,.4,0,2.5,0,3.9s-.2,1.5-.6,2"/>
    <path class="st11" d="M57.1,165.1c0,1.7-.2,1.9-.4,2.8h0c0-1.1-.2-5-.3-5.6.2-.2.5-.6.6-.8h0c0,.4,0,2.3,0,3.6"/>
    <path class="st11" d="M62.6,171c0,.1,0,.3,0,.5h0c0-.1-.2-.2-.6-.2h-1.5c0-.1.2-.5.2-.6h1.4c.4,0,.6,0,.6.3M64.5,167.8h-.6v.3c0,1.2-.9,1.9-2.6,1.9s-1.9-.7-1.9-1.9,0-1.2.3-1.7h0c0,.4-.2.8-.2,1.2,0,.9.7,1.4,1.8,1.4,1.7,0,2.4-.6,2.4-.9s-1.7-.4-2.5-.6h0c.2-.2.3-.5.5-.8.5.1,1.3.1,2.8.1l-.2.9h.2Z"/>
    <path class="st11" d="M65,162.5h0l.4-.5c.2.1.5.3.6.4l-.4.5c0-.1-.4-.3-.5-.4M66.3,163.7h-1.4c-.4,0-.6,0-.6-.3s0-.3,0-.5h0c0,.1.2.2.6.2h1.5c0,.1-.2.4-.2.6M64.5,167.8c0,0-.2-.1-.2-.3,0-.4,0-.6.3-.6.9,0,1.6-.2,1.6-.4s-.4-.8-.8-1.1c0-.1.3-.6.4-.8h0c0,.2.5.9.5,1.8s-.5,1.5-1.8,1.5"/>
    <path class="st11" d="M68,165.1c0,1.7-.2,1.9-.4,2.8h0c0-1.1-.2-5-.3-5.6.2-.2.5-.6.6-.8h0c0,.4,0,2.3,0,3.6"/>
    <path class="st11" d="M71.6,166.1h0c0,1.1-.6,1.7-1.6,1.7s-1-.4-1-1v-.8h0c0,.6.2.8.9.8s1.4-.4,1.4-.7-.3-1.3-.6-1.9c0-.2.4-.7.4-.9h0c0,.4.2.8.6,2.2.2.8.6,1.2,1.2,1.2l-.2.9c-.7,0-1.2-.4-1.4-1.6"/>
    <path class="st11" d="M77.8,165.3h0c0,.1-.3.4-.4.6-1.3,0-1.8,1.8-4.4,1.8s-.2-.1-.2-.3c0-.4,0-.6.3-.6,2.4,0,3.1-.7,3.9-.9h0c-1.2-.2-1.9-.7-2.6-.7s-.6.2-.8.6h0c.3-1,.6-1.3,1-1.3.8,0,1.9.8,3.3.9"/>
    <path class="st11" d="M79.4,165.1c0,1.7-.2,1.9-.4,2.8h0c0-1.1-.2-5-.3-5.6.2-.2.5-.6.6-.8h0c0,.4,0,2.3,0,3.6"/>
    <path class="st11" d="M153.1,167.8c-.2,0-.4,0-.6-.2-.1,1.3-1,2.2-1.9,2.2s-.8-.3-1.1-.4h0c1.2-.2,2.7-1.2,2.9-1.9-.3-.2-.5-.7-.8-1.4,0-.1.2-.5.3-.8h0c.4,1.2.7,1.5,1.3,1.5l-.2.9h.1Z"/>
    <path class="st11" d="M154.1,165.3c.3.3.9.8,1.3,1.1.6-.3,1.1-.7,1.6-1.1-.4-.2-.9-.3-1.4-.3s-1,0-1.5.2M157.6,166.8l-.2.9h-.2c-1,0-1.5-.1-1.9-.7-.8.6-1.3.7-2.2.7s-.2-.1-.2-.3c0-.4.1-.6.4-.6.8,0,1.2,0,1.7-.2-.3-.4-.7-.9-1-1.3-.2,0-.3.1-.5.2h0c0-.2.2-.5.3-.7.5-.2,1.3-.4,1.9-.4s1.1.1,1.7.4c0,.1-.2.4-.3.6-.3.3-.6.7-1.2,1.2.3.2.8.2,1.5.2h.2Z"/>
    <path class="st11" d="M163.3,166.8l-.2.9c-.6,0-1-.4-.9-1h0c0,.7-.4,1-.9,1s-.8-.3-.7-.9h0c-.1.6-.5.9-1.1.9s-.8-.3-.7-.9h0c-.1.6-.6.9-1.2.9s-.2-.1-.2-.3c0-.4.1-.6.4-.6.8,0,1.1-.2,1.3-1.1h0s0,.5-.1.8c.1.2.4.3.8.3.7,0,1-.3,1.1-1.1h0s0,.5-.1.8c.1.2.4.3.7.3s.7-.2.8-.5c0-.2,0-.6-.1-.8,0,0,.2,0,.2-.1v.7c0,.4.3.7,1,.7"/>
    <path class="st11" d="M164.1,167.5c-.2.2-.4.3-.9.3s-.2-.1-.2-.3c0-.4.1-.6.4-.6.7,0,1.1-.2,1.1-.4,0-.8-.4-3.6-.5-4.1.2-.2.5-.6.6-.8h0c0,.4.1,2.5.1,3.9s-.2,1.5-.6,2"/>
    <path class="st11" d="M166.5,165.1c0,1.7-.2,1.9-.4,2.8h0c0-1.1-.2-5-.4-5.6.2-.2.5-.6.6-.8h0c0,.4.1,2.3.1,3.6"/>
    <path class="st11" d="M93.5,165.4v.3h0c0-.3-.2-.5-.6-.5-.6,0-1,.4-1,.7s.3.6.9.6,1,0,1.3-.2h0c0,.2-.2.4-.2.6-1,.2-1.7.6-2.1,1h0c.2-.4.4-.7.8-.9h0c-.5-.1-.7-.4-.7-.8,0-.7.5-1.5,1.2-1.5s.7.3.7.7"/>
    <path class="st11" d="M95.2,166.2c0-2.7,0-3.1-.3-3.9.2-.2.5-.6.6-.8h0v4.3c0,.9.3,1.1,1.1,1.1l-.2.9c-1,0-1.3-.4-1.4-1.6"/>
    <path class="st11" d="M98.6,164.7c-.6.7-1,1.5-1.2,2.2.9,0,1.4-.2,1.4-.4s-.2-1.1-.2-1.8M98.2,167.6h-.8c0,.7.7,1.1,1.5,1.1s1-.2,1-.4c0-.4-.6-.8-1.7-.8M99.6,167.6h0c.3.2.4.4.4.7,0,.8-.5,1.3-1.3,1.3s-1.5-.7-1.5-1.8h0c0-.1-.5-.1-.5-.1-.2,0-.2-.2-.2-.3,0-.2,0-.6.3-.6h.5c.4-1.4,1.6-2.5,1.7-2.9h0c0,.9.2,1.8.2,2.2s-.2.5-.8.7h2.1l-.2.9c-.3,0-.6,0-.9-.1"/>
    <path class="st11" d="M102.7,164.7h-1.4c-.4,0-.6,0-.6-.3s0-.3,0-.5h0c0,.1.2.2.6.2h1.5c0,.1-.2.5-.2.6M102.3,166.4h0c0,1-.6,1.4-1.8,1.4s-.2-.1-.2-.3c0-.4,0-.6.3-.6,1.3,0,1.6-.3,1.8-1.3h0v.4c0,.6.2.9,1,.9l-.2.9c-.7,0-1.1-.3-1-1.4"/>
    <path class="st11" d="M103.7,163.4h0l.5-.6c.2.1.5.4.6.5l-.5.5c0-.1-.4-.4-.6-.5M103.3,167.8c0,0-.2-.1-.2-.3,0-.4,0-.6.3-.6.9,0,1.6-.2,1.6-.4s-.4-.8-.8-1.1c0-.1.3-.6.4-.8h0c0,.2.5.9.5,1.8s-.5,1.5-1.8,1.5"/>
    <path class="st11" d="M108.5,165.4c-.4.5-1,.9-1.8,1.3.3.1.6.2.9.2.9,0,1.4-.2,1.4-.4s-.2-.6-.5-1M106.7,169.4c.3,0,.7,0,.8-.1h0c0,.1,0,.3-.2.4-.6.1-1.1.4-1.4.6h0c0-.3.3-.5.6-.6-.3,0-.5-.3-.5-.5,0-.5.3-1,.8-1s.4.2.4.5,0,.1,0,.2h0c0-.2,0-.3-.4-.3s-.6.3-.6.5.2.4.6.4M108.7,165.1c.3.4.4.8.4,1.2,0,1-.6,1.6-1.5,1.6s-1.2-.4-1.8-.8h0c1.2-.5,2.1-1.1,2.5-1.9-.5-.6-1.3-1.2-2.6-1.9,0-.2,0-.7,0-1h0c1.3,1,2.1,1.9,2.6,2.5,0-.4.2-.8.2-1.2v-1.3c.2-.2.4-.5.6-.7h0v1.3c0,.9-.2,1.7-.5,2.3"/>
    <path class="st11" d="M111,165.1c0,1.7-.2,1.9-.4,2.8h0c0-1.1-.2-5-.3-5.6.2-.2.5-.6.6-.8h0c0,.4,0,2.3,0,3.6"/>
    <path class="st11" d="M114.5,162.9h0l.4-.6c.2.1.5.4.6.5l-.5.5c0-.1-.4-.4-.6-.5M118.2,166.8l-.2.9h0c-1,0-1.3-.3-1.3-1.3s0-.3,0-.4c-2.2.5-3.2,1.3-3.2,2s1,1.4,2.4,1.4,1.4,0,1.9-.2h0c-.5.4-1.1,1-2.3,1s-2.1-.7-2.1-1.9.9-2.2,3.3-2.8h0c-.8-.1-1.6-.6-2.2-.6s-.6.2-.8.6h0c.3-1,.6-1.3,1-1.3.8,0,1.9.8,3.3.9h0c0,.2-.4.5-.5.8-.2,0-.4,0-.6.1,0,.6.4.8,1.4.8h0-.1Z"/>
    <path class="st11" d="M118.4,168.6h1.4c.4,0,.6,0,.6.3s0,.3,0,.5h0c0-.1-.2-.2-.6-.2h-1.5c0-.1.2-.5.2-.6M118.1,167.8c0,0-.2-.1-.2-.3,0-.4,0-.6.3-.6,1.9,0,2.5-.2,2.5-.4s-.4-.8-.8-1.1c0-.1.3-.6.4-.8h0c0,.2.5.9.5,1.8s-.5,1.5-2.8,1.5"/>
    <path class="st11" d="M120.5,169.4h0c1.3-.2,2.9-1.3,2.9-2s-.3-.6-.9-1.2l.4-.8h0c.2.5.6,1.1.6,1.8,0,1.6-.9,2.6-1.9,2.6s-.8-.3-1.1-.4"/>
    <path class="st11" d="M124.7,166.2c0-2.7,0-3.1-.3-3.9.2-.2.5-.6.6-.8h0v4.3c0,.9.3,1.1,1.1,1.1l-.2.9c-1,0-1.3-.4-1.4-1.6"/>
    <path class="st11" d="M127.9,163.7h-1.4c-.4,0-.6,0-.6-.3s0-.3,0-.5h0c0,.1.2.2.6.2h1.5c0,.1-.2.5-.2.6M126.1,167.8c0,0-.2-.1-.2-.3,0-.4,0-.6.3-.6.9,0,1.6-.2,1.6-.4s-.4-.8-.8-1.1c0-.1.3-.6.4-.8h0c0,.2.5.9.5,1.8s-.5,1.5-1.8,1.5"/>
  </g>
  <g>
    <g class="st12">
      <path class="st0" d="M323.4,114.6h235.4-235.4Z"/>
    </g>
    <g class="st8">
      <rect class="st10" x="323.4" y="112" width="235.4" height="5.2"/>
    </g>
  </g>
  <text class="st5" transform="translate(319.7 117.2)"><tspan x="0" y="0">المساحات الإعلانية المتاحة</tspan></text>
</svg>