<?xml version="1.0" encoding="utf-8"?>
<!-- Generator: Adobe Illustrator 29.3.0, SVG Export Plug-In . SVG Version: 9.03 Build 55982)  -->
<svg version="1.0" xmlns="http://www.w3.org/2000/svg" xmlns:xlink="http://www.w3.org/1999/xlink" x="0px" y="0px"
	 viewBox="0 0 595.3 841.9" style="enable-background:new 0 0 595.3 841.9;" xml:space="preserve">
<style type="text/css">
	.st0{fill:url(#SVGID_1_);}
	.st1{opacity:7.000000e-02;}
	.st2{fill:url(#SVGID_00000113335472153613912760000012976114809303634341_);}
	.st3{fill:#141414;}
	.st4{fill:none;}
	
		.st5{fill:url(#SVGID_00000067927181354366064520000009576807201645641102_);stroke:url(#SVGID_00000072282393643121579250000002087022802822466984_);stroke-width:6;stroke-miterlimit:10;}
	
		.st6{fill:url(#SVGID_00000029745591081923779490000003594505679279131569_);stroke:url(#SVGID_00000113341015011104861870000009630387169383165326_);stroke-width:6;stroke-miterlimit:10;}
	.st7{fill:#100909;}
	.st8{font-family:'Doran-Medium';}
	.st9{font-size:19.4621px;}
	
		.st10{clip-path:url(#SVGID_00000180357014643673842690000007547748555972820628_);fill:url(#SVGID_00000132798208952334354410000017896492136501181626_);}
	.st11{fill:#FFFFFF;}
	
		.st12{clip-path:url(#SVGID_00000160150254660396230730000006556521402157739435_);fill:url(#SVGID_00000010995798392521056010000012002718133097576113_);}
	.st13{fill:#010101;}
	.st14{fill:url(#SVGID_00000004511180507212221200000009307920980338715838_);}
</style>
<g id="Layer_1">
	<linearGradient id="SVGID_1_" gradientUnits="userSpaceOnUse" x1="3.778686e-02" y1="832.7266" x2="595.2378" y2="832.7266">
		<stop  offset="0" style="stop-color:#FEF492"/>
		<stop  offset="0.1312" style="stop-color:#F3DF7D"/>
		<stop  offset="0.3473" style="stop-color:#E6C861"/>
		<stop  offset="0.5615" style="stop-color:#DDB84E"/>
		<stop  offset="0.771" style="stop-color:#D8AF43"/>
		<stop  offset="0.9703" style="stop-color:#D6AC40"/>
	</linearGradient>
	<rect x="0" y="823.5" class="st0" width="595.2" height="18.4"/>
	<g class="st1">
		<g>
			<g>
				
					<linearGradient id="SVGID_00000101790091003127753170000009918758221248191134_" gradientUnits="userSpaceOnUse" x1="108.9039" y1="631.502" x2="18.2141" y2="579.9042">
					<stop  offset="0" style="stop-color:#FFFFFF"/>
					<stop  offset="1" style="stop-color:#FEF385"/>
				</linearGradient>
				<polygon style="fill:url(#SVGID_00000101790091003127753170000009918758221248191134_);" points="17.6,580.9 34.9,580.9 
					54.9,575.5 68.1,572.5 78.3,576.7 79.6,584.5 81.4,593.7 99.3,600.8 115.3,603.6 115.3,613.4 113.1,620.8 106.5,623.4 
					108.7,630.2 105.3,637.9 90.6,628.6 76,625.6 62,627.2 59.8,625.2 71,617.6 65.2,616 50.9,616.2 31.5,624.8 				"/>
				<path class="st3" d="M209.1,792.1v7l-1.4,6.2c0.1,10.5-8.3,19.2-8.6,19.6l-1.7,1.8l-1.6-1.8c-0.1-0.2-3.7-4.2-7-11.3
					c-4.1-8.8,1.1-11.4,1.4-11.5l0.2-0.1l3.8-1.2c-1.4-1.4-2.8-2.1-2.9-2.1l-1.4-0.6l0-1.5c0.2-6.4-6.3-12-9.5-14.5
					c-4.1,5.9-8.8,10.2-12.4,13c-0.2-1-0.5-2.4-0.8-4c-0.1-0.3-0.1-0.7-0.2-1c-0.9-4-2.2-9.1-3.9-13.7c-0.3-0.7-0.5-1.5-0.9-2.2
					c-0.3-0.7-0.6-1.4-0.9-2c0.2,0,0.3-0.1,0.4-0.1l0.1,0c4-1.1,8.2-3,8.8-4c1.4-3.3,4-4.9,4.3-5l0.2-0.1l0.3-0.1
					c3.6-1,6.8-0.7,9.6,0.9c4.1,2.4,5.7,6.9,6.1,8.1c2.3,4.4,7,11.6,10.2,12.9c6,2.4,7.6,6.6,7.8,7.1L209.1,792.1z"/>
			</g>
			<g>
				<path class="st3" d="M13.5,826.2c0,0.1-0.1,0.2-0.1,0.3c-0.2,0.7-0.4,1.4-0.6,2.1v0c-0.5,1.9-0.8,3.7-1.1,5.4
					c-4.3,1.8-7.5,6.6-7.5,6.6S4,841,3.5,841.9H0v-17.7C5.4,823.6,10.2,824.9,13.5,826.2z"/>
				<path class="st3" d="M181.5,804.4c-0.5-0.6-3.8-4.2-7.8-5.3l-0.3-0.1h-5.5c-0.7-0.2-2-0.6-3.1-1.2c-0.2-1.3-0.4-2.6-0.6-3.8
					c-0.1-0.4-0.1-0.8-0.2-1.2c-1.3-6.7-3-12-4.3-15.4c-0.3-0.7-0.5-1.4-0.8-1.9c-0.7-1.6-1.1-2.4-1.1-2.4c-0.9-2.2-3-6.3-6.7-10.2
					v-7.3h-6.1l-9.3-25.5l0-0.1c-0.5-1.2-1.2-3.3-2-5.6c1.4,1,3,1.8,4.9,2.3c7.3,1.9,7.9,10.5,7.9,10.8l0,0.3l0.1,0.3
					c0.1,0.4,1.5,4.3,4.9,5.9c1.8,0.8,3.8,0.8,5.8,0c5.3-2.1,7.4-4.4,7.9-5.1c0.8-0.9,3.6-4.6,1-11.3c-2.3-5.5-4.6-14.4-5.1-18.6
					c1.6-1.2,3.4-3.3,3.4-6v-0.8l-1.8-2.3c0.1-0.2,0.2-0.5,0.3-0.7c0.8-1.6,1.7-4.2,2.7-7.7l0.2-0.2l-0.1,0l1-3.3l-3.4,0.7
					c-0.3-0.1-3.2-2-5.7-3.7c-2.5-1.7-3.6-4.8-2.7-7.6c0,0,0-0.1,0-0.1l2.1-6.9l-5.7,4.4c-0.2,0.1-4,3.2-6.9,6.5
					c-4.1-2.5-14.6-7.7-26.7-5.5l-2.5,0.5l2.3,7.8c-3.7-1.1-9.1-2-14.1,0.1l-3.3,1.4l5.2,4.7c-3.7,0.6-8.7,1.9-13.2,5.3l-1.7,1.2
					c-2.7-2-5.8-4-5.8-4c0.3-1.2,0.5-2.8,0.7-4.5l0,0v-0.1C86,684,86,679,86,679c1.9-1.9,2.7-4.7,2-7.3c-0.3-0.9-0.6-1.8-1-2.5v0
					l0,0c-1.1-2.1-2.4-3.3-2.4-3.3s-0.7-0.8-1.9-2l0,0l0,0c-1.1-1-2.6-2.3-4.6-3.4c-0.8-0.5-1.7-0.7-2.7-0.9h0
					c-0.3-0.1-0.7-0.1-1-0.1c-4.9-0.4-9.6,1.4-13.2,4.8c-0.2,0.1-0.3,0.3-0.5,0.5l0,0l0,0c-1,0.9-2.1,2-3.3,3.3
					c-0.8,0.8-1.3,1.8-1.7,3.1l0,0v0c-2.2,7.1,0.7,20.3,0.7,20.3l-1.9-0.3l-19-63.9c8-6.3,18.6-7.7,26.6-7.7h0.2
					c-3.2,2.1-5,4.1-5.1,4.2l-1.7,1.9l6.5,6.9l1.8-0.7c9.2-3.6,18.5-3.2,27.6,1.4c7,3.5,11.3,8.2,11.3,8.3l3.3,3.6l1.5-4.6
					c1.4-4.2,4-6.5,4-6.5l1.3-1.1l-0.4-1.7c-0.5-2.1-1.1-3.8-1.6-5.1c4-1.5,6.6-3.7,6.8-3.9l2.1-1.8l-1.7-2.1
					c-1.8-2.3-0.8-5-0.8-5.1l3.7-11.2l-3.7-0.2c-7.8-0.4-29.2-3.1-34.4-10.3c-1-1.4-1.2-2.8-0.8-4.5c1.1-4.1,0.8-7.7-1-10.4
					c-2-3-5.5-4.9-10.5-5.7c-5.1-0.8-10.5,0-15.5,2.1c-18.6,8-33.6,6.3-33.8,6.3h0l-1.8-6l-0.2,0.1l0.5-4.3l-1.7-1.8l-8.1-9.3
					l-2.2,13l4.8,5.6l34.8,117.2c-1.1,0.6-2,1.4-2.4,2.3c-0.9,2-0.9,4.9-0.6,7.1c0.2,1.9-0.6,3.8-2.2,5c-0.2,0.1-0.3,0.2-0.5,0.4
					l0,0l0,0c-1.7,1.4-3.8,3.5-5.8,6.8c-0.2,0.4-0.5,0.8-0.9,1.3l-1.4,1.6c-7.4,7.6-26.5,19.4-26.5,19.4l8,1.7
					c-5.2,4.2-10.2,7.7-15,10.5v54.6c2-0.9,4-1.9,6.2-3.1c0,0,5.5-2.6,12.1-7.2l0,0l5-0.6l1-0.1c-2.8,2.7-5.9,5.2-9.4,7.3
					c0,0,17.8-3.4,30.8-15.8l0.2-0.2l0.2-0.3c1.9-1.9,3.7-4,5.3-6.3l0.9,5.6v0.1l-1.4,7.9l-2.1,4.3c-0.8,0.3-1.6,0.7-2.5,1
					c-18.2,6.7-25.5,19.5-28.5,29c-0.2,0.7-0.4,1.4-0.6,2.1v0c-0.5,1.9-0.8,3.6-1.1,5.3c-0.5,3.2-0.6,6-0.5,8.1h68.1
					c2.3-0.3,5.3-0.8,8.9-1.7c-0.1,0.4-0.2,0.6-0.2,0.7l-0.2,0.5l0.2,0.6l2.2,7.5l1.3-0.4c8.8-2.5,26-5,26.2-5l1.5-0.2l-0.4-1.5
					c0-0.1-0.1-0.3-0.1-0.4c-1.5-3.8-9-5.7-14.4-6.6c7.3-2.9,15.3-6.9,22.9-12.5c2.1-1.5,7.1-4.5,9.7-4.2c4.5,0.6,12.3-1.4,13.7-1.8
					c4-0.7,8.5-0.8,9.5-0.2c2.8,3.6,1.9,9.1-2.7,16.2c-1.1,1.2-3.4,4-2.6,6.4c0,0,0,0.1,0,0.1l-5.4-2.6l-1.1,0.8
					c-0.2,0.1-1.9,1.4-3.7,4.3h28.1v-8.5c0.1-5,1.4-13.8,4.2-16.6C185.9,812.4,184,807,181.5,804.4z M57.3,578.4
					c4-1.7,8.3-2.3,12.4-1.7c2.3,0.3,5.3,1.2,6.6,3.1c0.9,1.4,1,3.3,0.3,5.8c-0.9,3.3-0.3,6.5,1.7,9.3c6.4,8.8,26.4,11.5,35,12.3
					l-1.3,3.9c-0.7,1.7-1.2,4.9,0.1,8c-1.4,0.8-3.4,1.8-5.7,2.3l-4.3,0.9l2.6,3.5c0.1,0.2,1,1.7,2,5.1c-0.7,0.9-1.7,2.1-2.6,3.7
					c-2.2-1.9-5.5-4.4-9.7-6.5c-5.9-3-12-4.5-18.2-4.5c-4.2,0-8.4,0.7-12.5,2.1l-0.2-0.2c2.1-1.7,5.9-4.2,11.4-5.2l13.8-2.7
					l-13.8-2.9c-1.1-0.2-24.5-4.9-41,6.5l-10.7-36.1C28.2,585.6,41.5,585.3,57.3,578.4z"/>
			</g>
		</g>
	</g>
	<path class="st4" d="M181.5,804.4c2.4,2.6,4.4,8-0.1,12.4c-2.8,2.8-4.1,11.7-4.2,16.6v8.5H0v-91.7c4.8-2.8,9.9-6.3,15-10.5l-8-1.7
		c0,0,19.1-11.8,26.5-19.4L35,717c0.4-0.5,0.7-0.9,0.9-1.3c1.9-3.3,4-5.4,5.8-6.8l0,0l0,0c0.2-0.1,0.3-0.3,0.5-0.4
		c1.6-1.2,2.4-3,2.2-5c-0.3-2.2-0.3-5.1,0.6-7.1c0.4-0.9,1.3-1.7,2.4-2.3L12.6,576.9l-4.8-5.6l2.2-13l8.1,9.3l1.7,1.8l-0.5,4.3
		l0.2-0.1l1.8,6h0c0.2,0,15.2,1.7,33.8-6.3c5-2.2,10.3-2.9,15.5-2.1c5,0.8,8.5,2.7,10.5,5.7c1.8,2.8,2.1,6.3,1,10.4
		c-0.5,1.7-0.2,3.1,0.8,4.5c5.2,7.2,26.6,9.9,34.4,10.3l3.7,0.2l-3.7,11.2c0,0.1-1,2.8,0.8,5.1l1.7,2.1l-2.1,1.8
		c-0.1,0.1-2.7,2.3-6.8,3.9c0.5,1.3,1,2.9,1.6,5.1l0.4,1.7l-1.3,1.1c0,0-2.6,2.3-4,6.5l-1.5,4.6l-3.3-3.6c0,0-4.3-4.8-11.3-8.3
		c-9.1-4.6-18.4-5.1-27.6-1.4l-1.8,0.7l-6.5-6.9l1.7-1.9c0.1-0.2,1.9-2.1,5.1-4.2H62c-8,0-18.6,1.4-26.6,7.7l19,63.9l1.9,0.3
		c0,0-2.9-13.2-0.7-20.3v0l0,0c0.4-1.3,0.9-2.3,1.7-3.1c1.2-1.3,2.3-2.3,3.3-3.3l0,0l0,0c0.2-0.2,0.3-0.3,0.5-0.5
		c3.6-3.3,8.3-5.1,13.2-4.8c0.3,0,0.7,0.1,1,0.1h0c1,0.2,1.9,0.4,2.7,0.9c2,1.1,3.5,2.4,4.6,3.4l0,0l0,0c1.2,1.1,1.9,2,1.9,2
		s1.3,1.2,2.4,3.3l0,0v0c0.4,0.7,0.8,1.6,1,2.5c0.8,2.6-0.1,5.4-2,7.3c0,0,0,5-0.5,9.4v0.1l0,0c-0.2,1.7-0.4,3.3-0.7,4.5
		c0,0,3,1.9,5.8,4l1.7-1.2c4.6-3.3,9.6-4.7,13.2-5.3l-5.2-4.7l3.3-1.4c4.9-2.1,10.4-1.2,14.1-0.1l-2.3-7.8l2.5-0.5
		c12.1-2.2,22.6,3,26.7,5.5c2.8-3.4,6.7-6.4,6.9-6.5l5.7-4.4l-2.1,6.9c0,0,0,0.1,0,0.1c-0.9,2.8,0.2,5.9,2.7,7.6
		c2.5,1.7,5.4,3.7,5.7,3.7l3.4-0.7l-1,3.3l0.1,0l-0.2,0.2c-1,3.5-2,6.1-2.7,7.7c-0.1,0.2-0.2,0.4-0.3,0.7l1.8,2.3v0.8
		c0,2.7-1.8,4.8-3.4,6c0.5,4.2,2.8,13,5.1,18.6c2.7,6.7-0.1,10.4-1,11.3c-0.6,0.7-2.6,2.9-7.9,5.1c-2,0.8-4.1,0.8-5.8,0
		c-3.4-1.6-4.8-5.5-4.9-5.9l-0.1-0.3l0-0.3c0-0.4-0.6-8.9-7.9-10.8c-1.9-0.5-3.5-1.3-4.9-2.3c0.7,2.4,1.5,4.5,2,5.6l0,0.1l9.3,25.5
		h6.1v7.3c3.7,3.9,5.8,8,6.7,10.2c0,0,0.4,0.8,1.1,2.4c0.2,0.5,0.5,1.2,0.8,1.9c1.3,3.4,3,8.7,4.3,15.4c0.1,0.4,0.2,0.8,0.2,1.2
		c0.2,1.2,0.4,2.5,0.6,3.8c1.2,0.6,2.4,1,3.1,1.2h5.5l0.3,0.1C177.8,800.1,181,803.7,181.5,804.4z"/>
	<g>
		
			<linearGradient id="SVGID_00000135665960889735299130000005202616288102882717_" gradientUnits="userSpaceOnUse" x1="461.8387" y1="74.7097" x2="556.5125" y2="74.7097">
			<stop  offset="2.974882e-02" style="stop-color:#D6AC40"/>
			<stop  offset="0.229" style="stop-color:#D8AF43"/>
			<stop  offset="0.4385" style="stop-color:#DDB84E"/>
			<stop  offset="0.6527" style="stop-color:#E6C861"/>
			<stop  offset="0.8688" style="stop-color:#F3DF7D"/>
			<stop  offset="1" style="stop-color:#FEF492"/>
		</linearGradient>
		
			<linearGradient id="SVGID_00000082344764212022418350000003451174840728262815_" gradientUnits="userSpaceOnUse" x1="461.8387" y1="74.7097" x2="556.5125" y2="74.7097">
			<stop  offset="0" style="stop-color:#FEF492"/>
			<stop  offset="0.1312" style="stop-color:#F3DF7D"/>
			<stop  offset="0.3473" style="stop-color:#E6C861"/>
			<stop  offset="0.5615" style="stop-color:#DDB84E"/>
			<stop  offset="0.771" style="stop-color:#D8AF43"/>
			<stop  offset="0.9703" style="stop-color:#D6AC40"/>
		</linearGradient>
		
			<line style="fill:url(#SVGID_00000135665960889735299130000005202616288102882717_);stroke:url(#SVGID_00000082344764212022418350000003451174840728262815_);stroke-width:6;stroke-miterlimit:10;" x1="556.5" y1="74.7" x2="461.8" y2="74.7"/>
		
			<linearGradient id="SVGID_00000095328913562762380020000013937602642506411420_" gradientUnits="userSpaceOnUse" x1="395.123" y1="101.129" x2="556.5125" y2="101.129">
			<stop  offset="2.974882e-02" style="stop-color:#D6AC40"/>
			<stop  offset="0.229" style="stop-color:#D8AF43"/>
			<stop  offset="0.4385" style="stop-color:#DDB84E"/>
			<stop  offset="0.6527" style="stop-color:#E6C861"/>
			<stop  offset="0.8688" style="stop-color:#F3DF7D"/>
			<stop  offset="1" style="stop-color:#FEF492"/>
		</linearGradient>
		
			<linearGradient id="SVGID_00000137843218285365317720000003166966962359607215_" gradientUnits="userSpaceOnUse" x1="395.123" y1="101.129" x2="556.5125" y2="101.129">
			<stop  offset="0" style="stop-color:#FEF492"/>
			<stop  offset="0.1312" style="stop-color:#F3DF7D"/>
			<stop  offset="0.3473" style="stop-color:#E6C861"/>
			<stop  offset="0.5615" style="stop-color:#DDB84E"/>
			<stop  offset="0.771" style="stop-color:#D8AF43"/>
			<stop  offset="0.9703" style="stop-color:#D6AC40"/>
		</linearGradient>
		
			<line style="fill:url(#SVGID_00000095328913562762380020000013937602642506411420_);stroke:url(#SVGID_00000137843218285365317720000003166966962359607215_);stroke-width:6;stroke-miterlimit:10;" x1="556.5" y1="101.1" x2="395.1" y2="101.1"/>
		<text transform="matrix(1 0 0 1 458.268 79.049)"><tspan x="0" y="0" class="st7 st8 st9">أسعار إيجار</tspan><tspan x="-72.4" y="24.5" class="st7 st8 st9"> </tspan><tspan x="-67.7" y="24.5" class="st7 st8 st9"> الإعـلانية</tspan><tspan x="5.4" y="24.5" class="st7 st8 st9">مسـاحات</tspan><tspan x="87.2" y="24.5" class="st7 st8 st9">ال</tspan></text>
		<g>
			<defs>
				<path id="SVGID_00000000197041694079634460000008060646110871391663_" d="M38.6,65.9V124h68V65.9c0-18.8-15.2-34-34-34
					C53.8,31.9,38.6,47.1,38.6,65.9"/>
			</defs>
			<clipPath id="SVGID_00000079461048833292295410000015789373225588457632_">
				<use xlink:href="#SVGID_00000000197041694079634460000008060646110871391663_"  style="overflow:visible;"/>
			</clipPath>
			
				<linearGradient id="SVGID_00000130636432837667574130000015042963069752316320_" gradientUnits="userSpaceOnUse" x1="2.1001" y1="842.0424" x2="3.1001" y2="842.0424" gradientTransform="matrix(70.0892 70.0892 70.0892 -70.0892 -59122.7383 58918.7539)">
				<stop  offset="0" style="stop-color:#D6AC40"/>
				<stop  offset="2.974880e-02" style="stop-color:#D6AC40"/>
				<stop  offset="0.229" style="stop-color:#D8AF43"/>
				<stop  offset="0.4385" style="stop-color:#DDB84E"/>
				<stop  offset="0.6527" style="stop-color:#E6C861"/>
				<stop  offset="0.8688" style="stop-color:#F3DF7D"/>
				<stop  offset="1" style="stop-color:#FEF492"/>
			</linearGradient>
			
				<polygon style="clip-path:url(#SVGID_00000079461048833292295410000015789373225588457632_);fill:url(#SVGID_00000130636432837667574130000015042963069752316320_);" points="
				72.6,-2.1 152.6,77.9 72.6,158 -7.5,77.9 			"/>
		</g>
		<g>
			<path class="st11" d="M98,108.7c0,4.7-3.8,8.5-8.5,8.5c-4.7,0-8.5-3.8-8.5-8.5c0-4.7,3.8-8.5,8.5-8.5C94.1,100.2,98,104,98,108.7
				"/>
		</g>
		<g>
			<defs>
				<polygon id="SVGID_00000049904121633870860750000013334081540337423039_" points="70.2,46 66.9,46.9 64.1,46.9 66.4,54.2 
					69.6,52.7 71.9,52.7 72.9,53 71,54.2 71.4,54.6 73.7,54.3 76.1,54.8 78.5,56.3 79.1,55.1 78.7,53.9 79.8,53.5 80.2,52.3 
					80.2,50.7 77.5,50.2 74.6,49 74.3,47.5 74.1,46.2 72.4,45.5 				"/>
			</defs>
			<clipPath id="SVGID_00000039101974568870357680000012687096119014578097_">
				<use xlink:href="#SVGID_00000049904121633870860750000013334081540337423039_"  style="overflow:visible;"/>
			</clipPath>
			
				<linearGradient id="SVGID_00000133525978106004369230000000353043262515890332_" gradientUnits="userSpaceOnUse" x1="1.4879" y1="842.2935" x2="2.4879" y2="842.2935" gradientTransform="matrix(-14.9684 -8.5162 -8.5162 14.9684 7274.7241 -12540.0742)">
				<stop  offset="0" style="stop-color:#FFFFFF"/>
				<stop  offset="1" style="stop-color:#FEF385"/>
			</linearGradient>
			
				<polygon style="clip-path:url(#SVGID_00000039101974568870357680000012687096119014578097_);fill:url(#SVGID_00000133525978106004369230000000353043262515890332_);" points="
				76.2,63.3 59.4,53.7 68,38.6 84.8,48.2 			"/>
		</g>
		<g>
			<path class="st3" d="M95.7,81.7c0-0.1-0.3-0.8-1.3-1.2c-0.5-0.2-1.3-1.4-1.7-2.1c-0.1-0.2-0.3-0.9-1-1.3c-0.5-0.3-1-0.3-1.6-0.2
				l0,0l0,0c0,0-0.5,0.3-0.7,0.8c-0.1,0.2-0.8,0.5-1.4,0.7l0,0l-0.1,0c0.1,0.1,0.1,0.2,0.2,0.3c0,0.1,0.1,0.2,0.1,0.4
				c0.3,0.8,0.5,1.6,0.6,2.3l0,0.2c0.1,0.3,0.1,0.5,0.1,0.7c0.6-0.5,1.4-1.2,2-2.1c0.5,0.4,1.6,1.3,1.6,2.4l0,0.2l0.2,0.1
				c0,0,0.2,0.1,0.5,0.3l-0.6,0.2l0,0c0,0-0.9,0.5-0.2,1.9c0.5,1.2,1.1,1.8,1.2,1.9l0.3,0.3l0.3-0.3c0.1-0.1,1.4-1.5,1.4-3.2l0.2-1
				L95.7,81.7L95.7,81.7z"/>
			<path class="st3" d="M49.4,96.6c0,0,3.1,4.3,8.4,0.6c0,0-0.8,1.9-3.1,2.5c0,0,3.9,0.6,5.7-3.6c0,0,0.8-2.6,0.6-3.7
				c-0.1-1.1,0.9-2.6,0.9-2.6s0.5-0.8,1.2-1.1c0-0.3,0.1-0.6,0.2-0.9v0c0-0.1,0.1-0.2,0.1-0.4l0,0c-1.2-0.5-3.5-0.9-5.5,1.7
				c0,0-0.8,1-1,3c-0.2,2-4,1.8-4,1.8s-1.6-0.1-2.4-2.1c0,0,0,2.9,1.6,3.8c0,0,1,0.7,2.1,0.4C54.2,96.1,52.1,98.3,49.4,96.6"/>
			<path class="st3" d="M92.9,111.2c-8.9-3.8-17-4.9-22.6-5.1l0.1-0.1c0.3-0.4,0.8-1.3,0.2-2.3l0.1-1.5l-0.1-0.1
				c0-0.1-0.4-0.7-0.9-1c-0.2-0.2-0.5-1.2-0.7-2.1c0-0.1,0-1,1-1.4c1.4-0.5,3.1-2.7,3.1-2.8c0,0,0.7-0.9,0.7-2.6
				c0.1-0.3,0.6-1.3,0.6-2.1c0.4,0,1-0.1,1.8-0.3l0,0.1l0,0.1l0.4,1.3l0.2-0.1c1.4-0.4,4.3-0.8,4.3-0.8l0.2,0l-0.1-0.2
				c-0.2-0.7-1.5-1-2.4-1.1h0l0,0c1.2-0.5,2.5-1.1,3.8-2.1c0.3-0.2,1.2-0.8,1.6-0.7c0.7,0.1,2-0.2,2.3-0.3c0.7-0.1,1.4-0.1,1.6,0
				c0.5,0.6,0.3,1.5-0.4,2.7c-0.2,0.2-0.6,0.7-0.4,1.1l0,0l-0.9-0.4l-0.2,0.1c-0.1,0-1.3,1-1.3,3.4l0,0.4l0.4,0
				c0.1,0,2.3-0.3,3.2-1.4c0.6-0.7,0.8-0.8,0.9-0.8h0.8v-2.2c0-0.8,0.2-2.3,0.7-2.7c0.7-0.7,0.4-1.6,0-2.1c-0.1-0.1-0.6-0.7-1.3-0.9
				l0,0h-0.9c-0.1,0-0.3-0.1-0.5-0.2c0-0.2-0.1-0.4-0.1-0.6l0-0.2c-0.2-1.1-0.5-2-0.7-2.5c0-0.1-0.1-0.2-0.1-0.3
				c-0.1-0.3-0.2-0.4-0.2-0.4c-0.2-0.4-0.5-1-1.1-1.7v-1.2h-1l-1.5-4.2l0,0c-0.1-0.2-0.2-0.5-0.3-0.9c0.2,0.2,0.5,0.3,0.8,0.4
				c1.2,0.3,1.3,1.7,1.3,1.8l0,0.1l0,0c0,0.1,0.2,0.7,0.8,1c0.3,0.1,0.6,0.1,1,0c0.9-0.4,1.2-0.7,1.3-0.8c0.1-0.2,0.6-0.8,0.2-1.9
				c-0.4-0.9-0.8-2.4-0.8-3.1c0.3-0.2,0.6-0.5,0.6-1V67L88,66.6l0.1-0.1c0.1-0.3,0.3-0.7,0.4-1.3l0,0l0,0l0.2-0.5l-0.6,0.1
				c-0.1,0-0.5-0.3-0.9-0.6c-0.4-0.3-0.6-0.8-0.4-1.3l0,0l0.3-1.1l-0.9,0.7c0,0-0.7,0.5-1.1,1.1c-0.7-0.4-2.4-1.3-4.4-0.9l-0.4,0.1
				l0.4,1.3c-0.6-0.2-1.5-0.3-2.3,0l-0.5,0.2l0.9,0.8c-0.6,0.1-1.4,0.3-2.2,0.9l-0.3,0.2c-0.4-0.3-0.9-0.7-0.9-0.7
				c0-0.2,0.1-0.5,0.1-0.8l0,0l0,0c0.1-0.7,0.1-1.6,0.1-1.6c0.3-0.3,0.5-0.8,0.3-1.2c0-0.2-0.1-0.3-0.2-0.4v0l0,0
				c-0.2-0.3-0.4-0.5-0.4-0.5s-0.1-0.1-0.3-0.3l0,0l0,0c-0.2-0.2-0.4-0.4-0.8-0.6c-0.1-0.1-0.3-0.1-0.5-0.1l-0.2,0
				c-0.8-0.1-1.6,0.2-2.2,0.8l-0.1,0.1l0,0l0,0c-0.2,0.2-0.3,0.3-0.6,0.5c-0.1,0.1-0.2,0.3-0.3,0.5l0,0v0c-0.4,1.2,0.1,3.4,0.1,3.4
				l-0.3-0.1L67,54.6c1.3-1,3.1-1.3,4.4-1.3h0c-0.5,0.3-0.8,0.7-0.8,0.7l-0.3,0.3l1.1,1.1l0.3-0.1c1.5-0.6,3-0.5,4.6,0.2
				c1.2,0.6,1.9,1.4,1.9,1.4l0.5,0.6l0.3-0.8c0.2-0.7,0.7-1.1,0.7-1.1l0.2-0.2l-0.1-0.3c-0.1-0.4-0.2-0.6-0.3-0.8
				c0.7-0.3,1.1-0.6,1.1-0.6l0.3-0.3l-0.3-0.4c-0.3-0.4-0.1-0.8-0.1-0.8l0.6-1.8l-0.6,0c-1.3-0.1-4.8-0.5-5.7-1.7
				c-0.2-0.2-0.2-0.5-0.1-0.7c0.2-0.7,0.1-1.3-0.2-1.7c-0.3-0.5-0.9-0.8-1.7-0.9c-0.8-0.1-1.7,0-2.6,0.3c-3.1,1.3-5.5,1-5.6,1h0
				l-0.3-1l0,0l0.1-0.7l-0.3-0.3l-1.3-1.5l-0.4,2.2l0.8,0.9L69,65.6c-0.2,0.1-0.3,0.2-0.4,0.4c-0.2,0.3-0.1,0.8-0.1,1.2
				c0,0.3-0.1,0.6-0.4,0.8L68,68l0,0l0,0c-0.3,0.2-0.6,0.6-1,1.1l-0.2,0.2l-0.2,0.3c-1.2,1.3-4.4,3.2-4.4,3.2l1.3,0.3
				c-2.3,1.9-4.5,2.9-6.4,3.2c-4.7,0.8-7.7-1.7-7.7-1.7s0.1,0.7,0.7,1.7v0c0.3,0.5,0.7,1.1,1.3,1.7l0,0l0,0c0.5,0.4,1.1,0.8,1.8,1.2
				l0,0l0,0c0.6,0.3,1.2,0.5,2,0.6l0,0l-1.2,0.2l-1.6,0.1c-0.2,0-0.3-0.1-0.4-0.1c0,0,0.6,0.7,3.4,1l-0.9,0.4
				c-0.2,0.1-0.3,0.1-0.5,0.2l0.9,1.2l0.4,0.6l0.4,0.5c0,0,0.1,0.1,0.3,0.2l0,0l0,0c0.3,0.2,0.8,0.4,1.5,0.4l0.1,0l0.1,0
				c0.5,0,1,0,1.6-0.1l0,0l0,0c0.8-0.2,1.6-0.5,2.6-1.1c0,0,0.9-0.4,2-1.2l0,0l0.8-0.1l0.2,0c-0.5,0.4-1,0.9-1.6,1.2
				c0,0,2.9-0.6,5.1-2.6l0,0l0,0c0.3-0.3,0.6-0.7,0.9-1l0.2,0.9l0,0l-0.2,1.3l-0.3,0.7c-0.1,0.1-0.3,0.1-0.4,0.2
				c-3,1.1-4.2,3.2-4.7,4.8c0,0.1-0.1,0.2-0.1,0.3v0c-0.1,0.3-0.1,0.6-0.2,0.9c-0.2,1.1-0.1,1.9-0.1,2c0,0.1,0.2,1.9,0.6,3
				c0.3,0.9-0.5,1.9-0.6,2l-1.2,1.2c-0.1,0.1-0.6,0.7,0,1.7c0.5,0.8,0.8,2,0.9,2.1c0,0.1,0.4,1.9,0.1,3.2l-0.1,0.3l1.1,0.5v1.4
				c-8.7,0-17.4,0-26.2-0.1v18h68c0-1.6,0-3.3,0-4.9C103.2,116.5,98.6,113.6,92.9,111.2 M64.9,47.7c0.9,0,3.1,0,5.7-1.1
				c0.7-0.3,1.4-0.4,2-0.3c0.4,0.1,0.9,0.2,1.1,0.5c0.1,0.2,0.2,0.5,0,1c-0.2,0.5-0.1,1.1,0.3,1.5c1,1.5,4.4,1.9,5.8,2l-0.2,0.7
				c-0.1,0.3-0.2,0.8,0,1.3c-0.2,0.1-0.6,0.3-0.9,0.4L78,53.8l0.4,0.6c0,0,0.2,0.3,0.3,0.8c-0.1,0.1-0.3,0.3-0.4,0.6
				c-0.4-0.3-0.9-0.7-1.6-1.1c-1-0.5-2-0.7-3-0.7c-0.7,0-1.4,0.1-2.1,0.3l0,0c0.3-0.3,1-0.7,1.9-0.9l2.3-0.4l-2.3-0.5
				c-0.2,0-4-0.8-6.8,1.1L64.9,47.7z M65.5,98.8c0,0,0.1-0.5,0.4-0.9c0,0.1,0.1,0.3,0.1,0.4l0,0l0,0c0,0,1.2,1.6,1.5,2.9
				c0.2,1,0.1,1.4,0.1,1.5l-0.2,0.3l0.9,0.6c-0.4,0.3-0.6,0.6-0.6,0.7l0,0l0,0l0,0c-0.3-0.2-0.6-0.4-1.1-0.6v-0.4l0,0
				c0-0.1-0.1-0.6-0.8-1.3C65.4,101.7,65.4,99.9,65.5,98.8 M68.5,105.6c0,0,0-0.1-0.1-0.3c0.1,0.1,0.3,0.3,0.4,0.6l0.1,0.1
				c-0.1,0-0.2,0-0.4,0L68.5,105.6z"/>
			<path class="st13" d="M120.3,111.4L120.3,111.4c0.3,0.2,0.7,0.6,0.9,0.8l0.8-0.9c-0.2-0.3-0.6-0.7-1-0.8L120.3,111.4z"/>
			<path class="st13" d="M124.4,110c-0.1,0.4-0.3,0.9-0.5,1.1c0.8,1.2,1.2,1.9,1.2,2.4c0,1.4-1.6,2.7-4,2.7c-2,0-3.1-0.9-3.1-2.5
				c0-0.7,0.2-1.5,0.4-2.2h-0.1c-0.4,1-0.6,2-0.6,2.9c0,2,1.2,3.2,3.3,3.2c2.6,0,4.3-1.6,4.3-4.3C125.3,111.6,124.7,110.5,124.4,110
				L124.4,110z"/>
			<path class="st13" d="M189.5,113c-1.4,0-2.3-0.7-2.3-1.6c0-0.9,1.2-1.7,2.3-1.7c1,0,1.5,0.3,1.5,0.9h0.1c0.3-1.1-0.3-1.9-1.5-1.9
				c-1.4,0-2.7,1.4-2.7,3.1c0,0.7,0.3,1.3,0.8,1.6c-0.5,0.1-1,0.1-1.4,0.1h0h-2.7h-2.7h-2.7h0h-2.7h-2.7h0H170h0h-2.7h-2.7h0h-2.7h0
				h-2.7h-2.7h0h-2.7h-2.7h-2.7h0h-2.7h0h-2.7h-2.7h0h-2.7h0h-2.7h0c-1.3,0-2-0.5-2-2.1c0-1.4,0.1-3.1,0.1-4.8
				c0-1.2-0.1-1.8-0.1-2.5h-0.1c-0.2,0.3-0.6,0.8-0.9,1.2c0.2,1.1,0.3,3,0.3,5.9c0,0.6-0.3,1.2-1.1,1.7c0-4.3-3.3-6.6-4-7.4h-0.1
				c0,0.5,0,1.2-0.1,1.5c2.5,1.8,4,3.9,4.1,5.9c-0.8,0.5-2.2,1-4,1.3v0.1c0.6,0.2,1.3,0.5,2,0.5c1.6,0,3-1.1,3.3-3.2h0.1
				c0,2.7,0.7,3.2,2.3,3.2v0l0,0h2.7h0h2.7h0h2.7h2.7h0h2.7h0h2.7h0h2.7h0h2.7h0h2.7h0h2.7h0h2.7h0h2.7h2.7h0h2.7h0h2.7h0h2.7h0h2.7
				h0h2.7h0h2.7h0c2.1,0,3.3-0.6,5.6-1.1c0.2-0.4,0.6-1.1,0.8-1.3l0-0.1C191.7,112.8,190.5,113,189.5,113"/>
			<path class="st13" d="M194,117.2c0-0.3,0.4-0.8,1.1-0.8c0.4,0,0.6,0.2,0.6,0.5h0.1c0-0.1,0-0.2,0-0.3c0-0.4-0.3-0.8-0.7-0.8
				c-0.7,0-1.3,0.8-1.3,1.6c0,0.5,0.3,0.8,0.9,0.9c-0.5,0.2-0.8,0.6-1,1.1h0.1c0.4-0.4,1.2-0.9,2.4-1.1c0-0.2,0.1-0.5,0.3-0.6v-0.1
				c-0.3,0.1-1,0.2-1.4,0.2C194.4,117.8,194,117.5,194,117.2"/>
			<path class="st13" d="M199.3,104.2L199.3,104.2c-0.3,0.3-0.6,0.8-0.9,1.1c0.1,0.8,0.2,1.8,0.2,2.3c0,0.9-0.1,1.7-0.5,2.4
				c-0.9-1.2-2.4-2.6-4.6-4.5h-0.1c0,0.5,0,1.1-0.1,1.5c2.2,1.3,3.6,2.6,4.5,3.6c-0.8,1.3-2.1,2.3-4.3,3.1v0.1
				c1.1,0.5,1.6,1.2,3,1.2c1.6,0,2.6-0.8,2.6-2.5c0-0.6-0.2-1.3-0.7-2.1c0.6-1.1,0.9-2.3,0.9-4C199.4,105.4,199.3,104.8,199.3,104.2
				 M199,112.7c0,0.5-0.9,0.9-2.5,0.9c-0.7,0-1.1-0.1-1.7-0.4c1.5-0.6,2.6-1.4,3.3-2.3C198.7,111.7,199,112.3,199,112.7"/>
			<path class="st13" d="M202,104.2c-0.2,0.4-0.6,0.9-0.9,1.2c0.2,1,0.6,7.7,0.5,9.7h0.1c0.3-1.5,0.5-2,0.5-4.5
				C202.3,108.3,202.1,104.8,202,104.2L202,104.2z"/>
			<path class="st13" d="M209.7,110c-1.2,0-2.1,1.3-2.1,3c0,1.2,0.6,1.9,1.9,1.9c1.1,0,2-0.6,2.2-1.5h0c0,0.3,0.1,0.6,0.1,0.9
				c0,1.6-2.9,3.2-5.4,3.4v0.1c0.6,0.2,1.3,0.6,2,0.6c1.9,0,3.6-1.8,3.6-4.5C212,111.3,211.1,110,209.7,110 M209.6,113.6
				c-1.3,0-1.8-0.5-1.8-1.1c0-0.8,0.8-1.5,1.7-1.5c1.1,0,1.8,0.7,2.1,2C211,113.4,210.3,113.6,209.6,113.6"/>
			<path class="st13" d="M218.9,105.3L218.9,105.3c-0.1,0.3-0.3,0.6-0.3,0.8c0,0.4,0.4,0.5,1.1,0.5c0.4,0,1.4,0,2.3-0.1
				c0-0.2,0.2-0.7,0.3-0.9c-0.7,0.1-2.2,0.1-2.5,0.1C219.2,105.6,218.9,105.5,218.9,105.3"/>
			<path class="st13" d="M230.7,109.5c-0.1,0.4-0.4,1-0.6,1.2c0.6,0.5,1.3,1.5,1.3,2c0,0.4-0.9,0.8-2.6,0.8H226h0h-2.7h0
				c-1.2,0-1.9-0.6-1.9-2.1c0-2.2-0.1-3.2-0.2-4h0c-0.2,0.4-0.6,0.8-0.8,0.9c0,0.2,0.1,0.4,0.1,0.7c-2.8,1.7-3.6,2.6-3.6,3.8
				c0,0.8,0.5,1.3,1.5,1.3c1.4,0,2.1-0.7,2.3-2h0.1c0.1,1.9,0.9,2.7,2.3,2.7h0h2.7h0h2.7c2.1,0,3-0.8,3-2.4
				C231.6,111,230.9,109.9,230.7,109.5L230.7,109.5z M218.6,112.9c-1,0-1.3-0.2-1.3-0.7c0-0.5,0.7-1.1,3.3-2.5
				c0.1,0.6,0.1,1.4,0.1,2C220.7,112.3,219.9,112.9,218.6,112.9"/>
			<path class="st13" d="M230.2,116.4c-0.4,0-1.4,0-2.3,0.1c0,0.2-0.2,0.7-0.3,0.9c0.7-0.1,2.2-0.1,2.5-0.1c0.7,0,1,0.1,1,0.3h0.1
				c0-0.3,0.2-0.6,0.2-0.8C231.2,116.5,230.9,116.4,230.2,116.4"/>
			<path class="st13" d="M285.8,113c-1.4,0-2.3-0.7-2.3-1.6c0-0.9,1.2-1.7,2.3-1.7c1,0,1.5,0.3,1.5,0.9h0.1c0.3-1.1-0.3-1.9-1.5-1.9
				c-1.4,0-2.7,1.4-2.7,3.1c0,0.7,0.3,1.3,0.8,1.6c-0.5,0.1-1,0.1-1.4,0.1h0H280h-2.7h0h-2.7h0h-2.7H269h0h-2.7h-2.7h0h-2.7h0h-2.7
				h-2.7h0h-2.7h0h-2.7h-2.7h0h-2.7h0h-2.7H239h0h-2.7h0c-1.4,0-2-0.5-2-1.9c0-1.6,0.1-3.3,0.1-5c0-1.2-0.1-1.9-0.1-2.5h-0.1
				c-0.2,0.4-0.6,0.9-0.9,1.2c0.2,1.3,0.3,2,0.4,6.9c0,2,0.7,2.6,2.3,2.6v0l0,0h2.7h0h2.7h0h2.7h0h2.7h0h2.7h2.7h0h2.7h0h2.7h0h2.7
				h0h2.7h0h2.7h0h2.7h0h2.7h2.7h0h2.7h0h2.7h2.7h0c2.1,0,3.3-0.6,5.6-1.1c0.2-0.4,0.6-1.1,0.8-1.3l0-0.1
				C288,112.8,286.8,113,285.8,113"/>
			<path class="st13" d="M309.1,104.2c-0.2,0.4-0.6,0.9-0.9,1.2c0.2,0.9,0.7,5.9,0.7,7.4c0,0.4-0.5,0.7-1.9,0.7l0,0v0
				c-1.5,0-2-0.5-2-1.9c0-1.6,0.1-3.3,0.1-5c0-1.2-0.1-1.9-0.1-2.5H305c-0.2,0.3-0.6,0.9-0.9,1.2c0.2,1.3,0.3,2,0.4,6.5
				c0,1.1-0.7,1.5-1.9,1.5h0h-2.7h-2.7l0,0v0c-1,0-1.7-0.6-2-2.1c-0.7-2.6-0.9-3.3-1-3.8h-0.1c-0.1,0.2-0.5,1-0.7,1.2
				c0.5,1.1,1,2.9,1,3.4c0,0.6-0.8,1.3-2.4,1.3c-1.3,0-1.7-0.4-1.6-1.5h-0.1c-0.1,0.4-0.1,0.8-0.1,1.2c0,1,0.5,1.6,1.8,1.6
				c1.7,0,2.6-0.9,2.7-2.8h0.1c0.3,1.9,1.2,2.7,2.3,2.7h0h2.7h0h2.7v0l0,0c1.4,0,2.1-0.6,2.1-2.3h0.1c-0.1,1.6,0.8,2.3,2.2,2.3l0,0
				l0,0c0.8,0,1.3-0.1,1.6-0.5c0.6-0.7,0.9-2.1,0.9-3.1C309.4,108.9,309.2,104.9,309.1,104.2L309.1,104.2z"/>
			<path class="st13" d="M127.2,82.7c-0.4,0-0.9,0-1.7,0c-0.7,0-1.5,0.1-2.2,0.1c-0.1,0.2-0.2,0.5-0.3,0.9c-0.1,0.4-0.3,0.6-0.3,0.8
				c0.5,0,1.3-0.1,2.2-0.1c0.9,0,1.6,0,2,0c0.6,0,1,0,1.2,0.1c0.2,0.1,0.4,0.2,0.4,0.4h0.1c0-0.2,0.1-0.4,0.2-0.7
				c0.1-0.3,0.2-0.6,0.2-0.7c0-0.3-0.1-0.5-0.4-0.6C128.3,82.7,127.8,82.7,127.2,82.7"/>
			<path class="st13" d="M136,79.4l1.4-1.5c-0.1-0.3-0.4-0.5-0.7-0.8c-0.3-0.3-0.7-0.5-1-0.6l-1.3,1.6v0.1c0.2,0.1,0.5,0.3,0.8,0.6
				C135.6,79,135.9,79.2,136,79.4"/>
			<path class="st13" d="M122.7,80c0.8,0.4,1.8,0.6,2.9,0.6c1.5,0,2.8-0.2,3.9-0.7c1.1-0.4,1.9-1.1,2.4-1.9c0.6-0.8,0.8-1.8,0.8-2.9
				c0-0.3-0.1-0.6-0.2-0.8c0.5,0,1,0,1.8,0l0,0l0,0c1.1,0,2-0.1,2.7-0.4c0.7-0.3,1.2-0.7,1.6-1.2c0.4-0.6,0.6-1.3,0.6-2.2h0.1
				c0,0.4,0,0.6,0,0.8c0,1.1,0.3,1.9,0.8,2.4c0.5,0.5,1.2,0.7,2.1,0.7h4.4h4.4h4.4h4.4h4.4h4.4h0h4.4h0h4.4h4.4
				c0.9,0,1.8-0.1,2.6-0.3c0.8-0.2,1.5-0.5,2-1c2.8,0.7,4.6,1.3,5.4,1.6c0.6-0.6,1-1.3,1.3-2.1s0.5-1.6,0.5-2.4
				c0-0.6-0.1-1.2-0.4-1.7c-0.3-0.5-0.8-1-1.4-1.5c-0.7-0.5-1.6-1.1-2.9-1.7c-1.2-0.6-2.1-1.1-2.7-1.5c-0.6-0.4-1.1-0.7-1.5-1h-0.1
				c0,0.3-0.1,0.7-0.2,1.1c-0.1,0.4-0.2,0.8-0.3,1.1c0.2,0.1,0.5,0.2,1,0.5l0.3,0.1c-0.5,0.4-1,1-1.4,1.7c-0.4,0.7-0.5,1.5-0.5,2.2
				c0,0.4,0.1,0.8,0.2,1.1c0.1,0.3,0.4,0.6,0.6,0.8c-0.5,0.1-1.2,0.1-2.1,0.1h-4.4h-4.4H169h-4.4h-4.4h-4.4h-4.4h-4.4h0h-4.4h0
				c-0.7,0-1.3-0.1-1.7-0.3c-0.4-0.2-0.7-0.4-0.9-0.8c-0.2-0.4-0.3-0.8-0.3-1.4v-1.1h-0.2c-0.1,1-0.4,1.7-0.6,2.2
				c-0.3,0.5-0.7,0.8-1.4,1c-0.6,0.2-1.6,0.3-2.9,0.3c-2.4,0-4.1,0-5.2-0.1c-1.1,0-2-0.1-2.7-0.2c-0.3,0.6-0.7,1.4-1.3,2.2v0.1
				c0.4,0.1,0.7,0.2,1.2,0.3c0.4,0.1,1,0.2,1.9,0.3c0.9,0.1,1.5,0.2,2,0.3c0.5,0.1,0.9,0.2,1.3,0.4c0.3,0.1,0.5,0.3,0.5,0.6
				c0,0.3-0.2,0.6-0.7,1c-0.5,0.4-1.2,0.7-2.2,1c-1,0.3-2.2,0.4-3.6,0.4c-1.1,0-2-0.2-2.7-0.5c-0.7-0.3-1.3-0.8-1.7-1.4
				c-0.4-0.6-0.6-1.3-0.6-2.2c0-0.5,0.1-1.1,0.2-1.7c0.1-0.6,0.3-1.2,0.4-1.6h-0.2c-0.3,0.7-0.6,1.5-0.7,2.3
				c-0.2,0.8-0.2,1.6-0.2,2.4c0,1.1,0.2,2.1,0.6,2.8C121.3,79,121.9,79.6,122.7,80 M191.6,69.2c0.5,0.4,0.9,0.7,1.2,1
				c0.2,0.3,0.3,0.7,0.3,1c0,0.2-0.1,0.5-0.2,0.7c-0.1,0.3-0.2,0.5-0.4,0.8c-1.1-0.4-2.6-0.8-4.4-1.2c0.8-0.9,1.2-1.9,1.2-3
				c0-0.2,0-0.5-0.1-0.7C190.3,68.4,191.1,68.9,191.6,69.2 M183.9,68.8c0-0.3,0.1-0.7,0.3-1c0.2-0.3,0.5-0.6,0.9-0.8
				c0.4-0.2,0.8-0.3,1.2-0.3c0.4,0,0.9,0.1,1.3,0.3c0.4,0.2,0.8,0.5,1,0.9c0.3,0.4,0.4,0.8,0.4,1.2c0,0.7-0.8,1.3-2.3,1.9
				c-0.9-0.3-1.6-0.7-2.1-1.1C184.1,69.7,183.9,69.3,183.9,68.8"/>
			<path class="st13" d="M200.6,60.6l1.4-1.5c-0.1-0.3-0.4-0.5-0.7-0.8c-0.3-0.3-0.7-0.5-1-0.7l-1.3,1.6v0.1
				c0.2,0.1,0.5,0.3,0.9,0.6C200.2,60.1,200.5,60.4,200.6,60.6"/>
			<path class="st13" d="M208,73.6c0.3-0.4,0.6-1,0.9-1.6c0.2-0.7,0.4-1.3,0.6-2c0.1-0.7,0.2-1.4,0.2-2c0-1.1,0-2.3-0.1-3.6
				c0-1.3-0.1-2.9-0.2-4.6c0-0.4,0-0.9-0.1-1.5c0-0.6,0-1,0-1.2h-0.1c-0.2,0.4-0.5,0.8-0.8,1.2c-0.3,0.4-0.6,0.8-0.9,1.1
				c0.1,0.5,0.3,1.6,0.5,3.2c0.2,1.6,0.4,3.2,0.6,4.8c0.2,1.6,0.3,2.7,0.3,3.4c0,0.3-0.2,0.6-0.7,0.8c-0.5,0.2-1.2,0.3-2.2,0.3
				c-0.8,0-1.5-0.3-2-0.8c-0.5-0.5-0.9-1.3-1.2-2.5l-0.9-3.3c-0.4-1.5-0.7-2.5-0.7-2.9h-0.1c0,0.2-0.2,0.6-0.5,1.1
				c-0.3,0.6-0.6,1-0.7,1.2c0.3,0.6,0.5,1.2,0.8,1.9c0.2,0.7,0.4,1.4,0.6,2.1c0.2,0.6,0.2,1.1,0.2,1.3c0,0.3-0.2,0.6-0.5,0.9
				c-0.3,0.3-0.7,0.5-1.3,0.7c-0.6,0.2-1.3,0.3-2.1,0.3c-0.7,0-1.2-0.1-1.6-0.2s-0.7-0.4-0.8-0.7c-0.2-0.3-0.2-0.8-0.2-1.3h-0.2
				c-0.1,0.9-0.2,1.6-0.2,2.1c0,0.9,0.2,1.6,0.7,2c0.5,0.5,1.2,0.7,2.2,0.7c2.7,0,4.1-1.5,4.3-4.6h0.1c0.5,3,1.8,4.5,3.8,4.5l0,0
				l0.1,0c0.7,0,1.2-0.1,1.6-0.2C207.5,74.1,207.8,73.9,208,73.6"/>
			<path class="st13" d="M213.3,74c0,0.4,0,0.6,0,0.8h0.1c0.1-0.3,0.2-0.7,0.3-1.3c0.2-0.7,0.3-1.2,0.4-1.7c0.1-0.5,0.2-1.1,0.2-1.8
				c0.1-0.7,0.1-1.7,0.1-2.9c0-1.8-0.1-4.4-0.2-7.7c-0.1-1.2-0.1-2-0.1-2.3H214c-0.2,0.4-0.5,0.8-0.8,1.2c-0.3,0.4-0.6,0.8-0.9,1
				c0.1,0.5,0.2,1.7,0.4,3.6c0.2,1.9,0.3,3.9,0.4,6.1C213.2,71.1,213.3,72.8,213.3,74"/>
			<path class="st13" d="M221.2,79.5c0.8,0.4,1.8,0.6,2.9,0.6c1.4,0,2.6-0.3,3.6-0.8c1-0.5,1.9-1.3,2.4-2.3c0.6-1,0.9-2.2,1-3.6
				c0.5,0.7,1.2,1,2.1,1c0.8,0,1.4-0.2,1.9-0.7c0.5-0.4,0.8-1.1,1-1.9h0.1c0,0.8,0.1,1.5,0.5,1.9c0.4,0.5,1,0.7,1.8,0.7
				c0.9,0,1.6-0.3,2.1-1c0.5-0.7,0.7-1.6,0.7-2.9c0-0.9-0.1-1.7-0.3-2.3c-0.2-0.7-0.4-1.4-0.7-2.1c0-0.1-0.1-0.2-0.2-0.4h-0.1
				c-0.1,0.4-0.3,0.8-0.5,1.2s-0.4,0.7-0.6,1c0.7,0.6,1.2,1.1,1.5,1.6c0.3,0.5,0.5,0.9,0.5,1.2c0,0.2-0.1,0.3-0.3,0.5
				c-0.2,0.2-0.5,0.3-0.9,0.4c-0.4,0.1-0.7,0.1-1.1,0.1c-0.5,0-1-0.1-1.3-0.2c-0.4-0.1-0.7-0.4-0.9-0.6c0.1-0.4,0.1-0.8,0.2-1.2
				c0.1-0.4,0.1-0.7,0.1-0.9h-0.2c-0.1,0.7-0.3,1.3-0.5,1.7c-0.2,0.4-0.5,0.7-0.9,0.9c-0.4,0.2-0.9,0.3-1.6,0.3
				c-0.5,0-0.9-0.1-1.3-0.4c-0.4-0.2-0.8-0.7-1.1-1.3c-0.4-0.6-0.7-1.5-1-2.6H230c-0.1,0.4-0.3,0.8-0.5,1.2s-0.3,0.7-0.5,0.9
				c0.6,1,1,1.9,1.3,2.5c0.3,0.6,0.4,1.1,0.4,1.3c0,0.7-0.3,1.3-0.8,2c-0.6,0.6-1.3,1.1-2.3,1.5c-1,0.4-2.1,0.6-3.3,0.6
				c-1.1,0-2-0.2-2.7-0.5c-0.7-0.3-1.3-0.8-1.7-1.4c-0.4-0.6-0.6-1.3-0.6-2.2c0-0.5,0.1-1.1,0.2-1.7c0.1-0.6,0.3-1.2,0.5-1.8h-0.2
				c-0.7,1.6-1.1,3.2-1.1,4.9c0,1.1,0.2,2.1,0.6,2.8C219.8,78.5,220.4,79.1,221.2,79.5"/>
			<path class="st13" d="M242.5,77.6c-1.3,0.6-2.5,1-3.7,1.2v0.1c0.2,0.1,0.5,0.2,0.9,0.4c0.4,0.2,0.8,0.4,1.2,0.5
				c0.3,0.1,0.7,0.2,1.1,0.2c0.9,0,1.8-0.3,2.6-0.9c0.8-0.6,1.4-1.5,1.9-2.6c0.5-1.1,0.7-2.4,0.7-3.8c0-0.6-0.1-1.2-0.2-1.8
				c-0.2-0.6-0.3-1.1-0.5-1.6c-0.2-0.5-0.5-1-0.8-1.6h-0.1c-0.1,0.4-0.3,0.8-0.5,1.2c-0.2,0.5-0.4,0.8-0.6,1.1
				c0.8,0.8,1.4,1.4,1.9,2c0.4,0.6,0.6,1,0.6,1.3c0,0.6-0.4,1.3-1.2,2.1C244.8,76.2,243.8,77,242.5,77.6"/>
			<path class="st13" d="M248.7,64.5c0.1,1.3,0.1,3.2,0.2,5.7c0,1.1,0.2,2,0.4,2.6c0.3,0.6,0.6,1.1,1.2,1.3c0.5,0.3,1.3,0.4,2.2,0.4
				v0l0,0h4.4h4.4h4.4h4.4h4.4h4.4h4.4h0h4.4h4.4c1.2,0,2.1-0.1,2.7-0.3c0.7-0.2,1.2-0.6,1.6-1.1c0.3,0.5,0.8,0.8,1.5,1.1
				c0.7,0.2,1.7,0.3,3.1,0.3l0,0l0.1,0c0.7,0,1.2-0.1,1.6-0.2c0.4-0.1,0.7-0.3,0.9-0.6c0.3-0.4,0.6-1,0.9-1.6c0.2-0.7,0.4-1.3,0.6-2
				c0.1-0.7,0.2-1.4,0.2-2c0-1.1,0-2.3-0.1-3.6c0-1.3-0.1-2.9-0.2-4.6c0-0.4,0-0.9-0.1-1.5c0-0.6,0-1,0-1.2h-0.1
				c-0.2,0.4-0.5,0.8-0.8,1.2c-0.3,0.4-0.6,0.8-0.9,1.1c0.1,0.5,0.3,1.6,0.5,3.2s0.4,3.2,0.6,4.8c0.2,1.6,0.3,2.7,0.3,3.4
				c0,0.3-0.2,0.6-0.7,0.8c-0.5,0.2-1.2,0.3-2.2,0.3c-1.1,0-1.9,0-2.5-0.1c0.4-0.4,0.8-0.8,1-1.3c0.2-0.5,0.3-1.1,0.3-1.7
				c0-0.7-0.1-1.4-0.4-1.9c-0.2-0.5-0.6-1-1-1.3c-0.4-0.3-0.9-0.5-1.5-0.5c-0.6,0-1.2,0.2-1.8,0.7c-0.6,0.4-1,1-1.3,1.8
				c-0.3,0.8-0.5,1.6-0.5,2.4c0,0.6,0.2,1.2,0.7,1.7c-0.5,0.1-1.1,0.1-1.8,0.1h-4.4h-4.4h-4.4h-4.4h-4.4h-4.4h-4.4h-4.4h-4.4
				c-0.8,0-1.4-0.1-1.8-0.3c-0.5-0.2-0.8-0.5-1-0.9s-0.3-1-0.3-1.7c0-0.8,0-2.1,0.1-3.9c0-1.7,0.1-3,0.1-3.8c0-0.7,0-1.6-0.1-2.7
				c0-0.6-0.1-1-0.1-1.4h-0.1c-0.2,0.4-0.5,0.8-0.8,1.2c-0.3,0.4-0.6,0.8-0.9,1c0.2,0.8,0.3,1.6,0.4,2.2
				C248.6,62.2,248.7,63.2,248.7,64.5 M294.2,69.1c0-0.3,0.1-0.6,0.4-0.9c0.3-0.3,0.7-0.6,1.1-0.8c0.5-0.2,0.9-0.3,1.4-0.3
				c0.5,0,1,0.1,1.4,0.3c0.4,0.2,0.8,0.5,1,0.9c0.3,0.4,0.4,0.8,0.4,1.2c0,0.2-0.1,0.5-0.3,0.8c-0.2,0.3-0.6,0.5-1,0.7
				c-0.5,0.2-1,0.4-1.7,0.6c-0.5-0.2-1-0.4-1.4-0.7c-0.4-0.3-0.7-0.6-0.9-0.9C294.3,69.6,294.2,69.3,294.2,69.1"/>
			<polygon class="st13" points="299.9,55.5 295.1,57.6 295,58.2 299.8,56.1 			"/>
			<path class="st13" d="M297.2,60l-1.3,1.6v0.1c0.2,0.1,0.5,0.3,0.9,0.6c0.3,0.3,0.6,0.5,0.7,0.7l1.4-1.5c-0.1-0.3-0.4-0.5-0.7-0.8
				C297.8,60.3,297.5,60.1,297.2,60"/>
			<path class="st13" d="M308.8,69c0.1,2.1,0.2,3.8,0.2,5c0,0.4,0,0.6,0,0.8h0.1c0.1-0.3,0.2-0.7,0.3-1.3c0.2-0.7,0.3-1.2,0.4-1.7
				c0.1-0.5,0.2-1.1,0.2-1.8c0.1-0.7,0.1-1.7,0.1-2.9c0-1.8-0.1-4.4-0.2-7.7c-0.1-1.2-0.1-2-0.1-2.3h-0.1c-0.2,0.4-0.5,0.8-0.8,1.2
				c-0.3,0.4-0.6,0.8-0.9,1c0.1,0.5,0.2,1.7,0.4,3.6C308.5,64.9,308.7,66.9,308.8,69"/>
			<path class="st13" d="M120.4,100h1.7l0.2-0.1l0.1-0.2l-0.1-0.2l-0.2-0.1l-0.1,0l-0.1-0.1c-0.1-0.1-0.1-0.2,0-0.4l0.2-0.6
				c0.4-1,1.1-1.7,2-2.3c0.9-0.6,1.8-0.9,2.9-1l1.7,3.9c0.1,0.2,0.1,0.3,0,0.4c0,0.1-0.1,0.1-0.3,0.1l-0.2,0.1l-0.1,0.2l0.1,0.2
				l0.2,0.1h4c0.2,0,0.3-0.1,0.3-0.3l-0.1-0.2l-0.2-0.1c-0.2,0-0.4-0.1-0.6-0.2c-0.2-0.1-0.3-0.3-0.4-0.5l-4.8-11.3l0-0.1l-0.1-0.1
				l0,0l0,0l-0.1,0h-0.1l-0.1,0l0,0.1l-0.1,0.1l-4.8,11.3c-0.1,0.2-0.2,0.3-0.4,0.5c-0.2,0.1-0.4,0.2-0.6,0.2l-0.2,0.1l-0.1,0.2
				C120.2,99.9,120.3,100,120.4,100 M125.2,91l1.5,3.6c-0.7,0.1-1.4,0.3-2,0.6c-0.6,0.3-1.2,0.7-1.7,1.2L125.2,91z"/>
			<path class="st13" d="M134.4,99.3c-0.1,0.1-0.3,0.2-0.4,0.2l-0.2,0.1l-0.1,0.2c0,0.2,0.1,0.3,0.3,0.3h9.4c0.2,0,0.3-0.1,0.3-0.3
				v-2.9c0-0.2-0.1-0.3-0.3-0.3l-0.2,0.1l-0.1,0.2c0,0.4-0.1,0.7-0.2,1c-0.1,0.3-0.3,0.6-0.6,0.9c-0.2,0.2-0.5,0.4-0.9,0.6
				c-0.3,0.1-0.7,0.2-1,0.2h-3.2V88.4c0-0.2,0.1-0.3,0.2-0.4c0.1-0.1,0.2-0.2,0.4-0.2l0.2-0.1l0.1-0.2c0-0.2-0.1-0.3-0.3-0.3h-3.8
				c-0.2,0-0.3,0.1-0.3,0.3l0.1,0.2l0.2,0.1c0.2,0,0.3,0.1,0.4,0.2c0.1,0.1,0.2,0.2,0.2,0.4v10.5C134.5,99.1,134.5,99.2,134.4,99.3"
				/>
			<path class="st13" d="M158,87.8c0.4,0,0.7,0.1,1,0.2c0.3,0.1,0.6,0.3,0.9,0.6c0.2,0.2,0.4,0.5,0.6,0.9c0.1,0.3,0.2,0.7,0.2,1
				l0.1,0.2l0.2,0.1l0.2-0.1l0.1-0.2v-2.9l-0.1-0.2l-0.2-0.1h-9.4c-0.2,0-0.3,0.1-0.3,0.3l0.1,0.2l0.2,0.1c0.2,0,0.3,0.1,0.4,0.2
				c0.1,0.1,0.2,0.2,0.2,0.4v10.5c0,0.2-0.1,0.3-0.2,0.4c-0.1,0.1-0.2,0.2-0.4,0.2l-0.2,0.1l-0.1,0.2c0,0.2,0.1,0.3,0.3,0.3h3.8
				c0.2,0,0.3-0.1,0.3-0.3l-0.1-0.2l-0.2-0.1c-0.2,0-0.3-0.1-0.4-0.2s-0.2-0.2-0.2-0.4v-5h1.7c0.2,0,0.3,0.1,0.4,0.2
				s0.2,0.2,0.2,0.4c0,0.2,0.1,0.3,0.3,0.3c0.2,0,0.3-0.1,0.3-0.3v-1.7l-0.1-0.2l-0.2-0.1l-0.2,0.1l-0.1,0.2c0,0.2-0.1,0.3-0.2,0.4
				s-0.3,0.2-0.4,0.2h-1.7v-5.6H158z"/>
			<path class="st13" d="M166.3,99.5l-0.2,0.1l-0.1,0.2l0.1,0.2l0.2,0.1h4c0.2,0,0.3-0.1,0.3-0.3l-0.1-0.2l-0.2-0.1
				c-0.2,0-0.4-0.1-0.6-0.2c-0.2-0.1-0.3-0.3-0.4-0.5l-4.8-11.3l0-0.1l-0.1-0.1l0,0l0,0l-0.1,0h-0.1l-0.1,0l0,0.1l-0.1,0.1
				l-4.8,11.3c-0.1,0.2-0.2,0.3-0.4,0.5s-0.4,0.2-0.6,0.2l-0.2,0.1l-0.1,0.2c0,0.2,0.1,0.3,0.3,0.3h1.7l0.2-0.1l0.1-0.2l-0.1-0.2
				l-0.2-0.1l-0.1,0l-0.1-0.1c-0.1-0.1-0.1-0.2,0-0.4l0.2-0.6c0.4-1,1.1-1.7,2-2.3c0.9-0.6,1.8-0.9,2.9-1l1.7,3.9
				c0.1,0.2,0.1,0.3,0,0.4C166.5,99.4,166.4,99.5,166.3,99.5 M162.7,95.1c-0.6,0.3-1.2,0.7-1.7,1.2l2.2-5.3l1.5,3.6
				C164,94.6,163.3,94.8,162.7,95.1"/>
			<path class="st13" d="M177.9,96.5l2.1,3.4c0,0.1,0.1,0.1,0.2,0.1h2.5h0.8l0.2-0.1l0.1-0.2l-0.1-0.2l-0.2-0.1
				c-0.2,0-0.4-0.1-0.6-0.2c-0.2-0.1-0.4-0.3-0.5-0.5l-1.9-3c0.7-0.4,1.2-1,1.6-1.7c0.4-0.7,0.6-1.4,0.6-2.2c0-0.6-0.1-1.2-0.4-1.8
				c-0.2-0.6-0.6-1-1-1.5c-0.4-0.4-0.9-0.7-1.4-1s-1.1-0.4-1.8-0.4h-0.1h-3.2h-3c-0.2,0-0.3,0.1-0.3,0.3l0.1,0.2l0.2,0.1
				c0.2,0,0.3,0.1,0.4,0.2c0.1,0.1,0.2,0.2,0.2,0.4v10.5c0,0.2-0.1,0.3-0.2,0.4c-0.1,0.1-0.2,0.2-0.4,0.2l-0.2,0.1l-0.1,0.2
				c0,0.2,0.1,0.3,0.3,0.3h3.8c0.2,0,0.3-0.1,0.3-0.3l-0.1-0.2l-0.2-0.1c-0.2,0-0.3-0.1-0.4-0.2c-0.1-0.1-0.2-0.2-0.2-0.4v-2.4
				H177.9z M175.1,87.8h3h0c0.3,0,0.5,0.1,0.7,0.4c0.2,0.2,0.4,0.5,0.6,0.9c0.2,0.4,0.3,0.8,0.4,1.3c0.1,0.5,0.2,1,0.2,1.5
				c0,0.5,0,1.1-0.1,1.6c-0.1,0.5-0.2,0.9-0.4,1.3c-0.4,0.8-0.8,1.2-1.3,1.2h0h0h-2.9V87.8z"/>
			<path class="st13" d="M191.6,87.8c0.4,0,0.7,0.1,1,0.2c0.3,0.1,0.6,0.3,0.9,0.6c0.2,0.2,0.4,0.5,0.6,0.9c0.1,0.3,0.2,0.7,0.2,1
				l0.1,0.2l0.2,0.1c0.2,0,0.3-0.1,0.3-0.3v-2.9c0-0.2-0.1-0.3-0.3-0.3h-9.4c-0.2,0-0.3,0.1-0.3,0.3l0.1,0.2l0.2,0.1
				c0.2,0,0.3,0.1,0.4,0.2c0.1,0.1,0.2,0.2,0.2,0.4v10.5c0,0.2-0.1,0.3-0.2,0.4c-0.1,0.1-0.3,0.2-0.4,0.2l-0.2,0.1l-0.1,0.2
				c0,0.2,0.1,0.3,0.3,0.3h9.4c0.2,0,0.3-0.1,0.3-0.3v-2.9c0-0.2-0.1-0.3-0.3-0.3l-0.2,0.1l-0.1,0.2c0,0.4-0.1,0.7-0.2,1
				c-0.1,0.3-0.3,0.6-0.6,0.9c-0.2,0.2-0.5,0.4-0.9,0.6c-0.3,0.1-0.7,0.2-1,0.2h-3.2v-5.6h1.7c0.2,0,0.3,0.1,0.4,0.2
				c0.1,0.1,0.2,0.2,0.2,0.4c0,0.2,0.1,0.3,0.3,0.3c0.2,0,0.3-0.1,0.3-0.3v-1.7l-0.1-0.2l-0.2-0.1l-0.2,0.1l-0.1,0.2
				c0,0.2-0.1,0.3-0.2,0.4c-0.1,0.1-0.3,0.2-0.4,0.2h-1.7v-5.6H191.6z"/>
			<path class="st13" d="M204.2,94.1c-0.2-0.3-0.5-0.6-0.9-0.8c-0.3-0.2-0.7-0.4-1.1-0.5l-3.1-0.8c-0.5-0.1-0.8-0.4-1.1-0.8
				c-0.3-0.4-0.4-0.8-0.4-1.3c0-0.3,0.1-0.6,0.2-0.8c0.1-0.3,0.3-0.5,0.5-0.7c0.2-0.2,0.4-0.3,0.7-0.5c0.3-0.1,0.5-0.2,0.8-0.2h0.6
				c0.4,0,0.9,0.1,1.3,0.3c0.4,0.2,0.7,0.4,1,0.7c0.3,0.3,0.5,0.6,0.7,1c0.2,0.4,0.3,0.8,0.3,1.3c0,0.2,0.1,0.3,0.3,0.3
				c0.2,0,0.3-0.1,0.3-0.3v-3.4c0-0.2-0.1-0.3-0.3-0.3c-0.2,0-0.3,0.1-0.3,0.3v0.3c0,0.1,0,0.2-0.1,0.3c-0.1,0.1-0.2,0.1-0.3,0.1
				c-0.1,0-0.2,0-0.3-0.1l0,0c-0.3-0.3-0.7-0.5-1.2-0.7c-0.4-0.2-0.9-0.3-1.4-0.3h-0.6c-0.5,0-1,0.1-1.5,0.3
				c-0.5,0.2-0.9,0.5-1.2,0.8c-0.3,0.3-0.6,0.7-0.8,1.2c-0.2,0.5-0.3,0.9-0.3,1.5c0,0.4,0.1,0.8,0.2,1.2c0.1,0.4,0.3,0.7,0.6,1.1
				c0.2,0.3,0.5,0.6,0.9,0.8c0.3,0.2,0.7,0.4,1.1,0.5l3.1,0.8c0.5,0.1,0.8,0.4,1.1,0.8c0.3,0.4,0.4,0.8,0.4,1.3
				c0,0.3-0.1,0.6-0.2,0.8c-0.1,0.3-0.3,0.5-0.5,0.7c-0.2,0.2-0.4,0.3-0.7,0.5c-0.3,0.1-0.5,0.2-0.8,0.2h-1.4
				c-0.4,0-0.9-0.1-1.3-0.3c-0.4-0.2-0.7-0.4-1-0.7c-0.3-0.3-0.5-0.6-0.7-1c-0.2-0.4-0.3-0.8-0.3-1.3l-0.1-0.2l-0.2-0.1
				c-0.2,0-0.3,0.1-0.3,0.3v3.4c0,0.2,0.1,0.3,0.3,0.3l0.2-0.1l0.1-0.2v-0.3c0-0.1,0-0.2,0.1-0.3c0.1-0.1,0.2-0.1,0.3-0.1
				c0.1,0,0.2,0,0.3,0.1l0,0l0,0c0.3,0.3,0.7,0.5,1.1,0.7c0.4,0.2,0.9,0.3,1.4,0.3h1.4c0.5,0,1-0.1,1.5-0.3c0.5-0.2,0.9-0.5,1.2-0.8
				c0.3-0.3,0.6-0.7,0.8-1.2c0.2-0.5,0.3-1,0.3-1.5c0-0.4-0.1-0.8-0.2-1.2C204.6,94.8,204.4,94.4,204.2,94.1"/>
			<path class="st13" d="M221.2,99c0.1,0.2,0.1,0.3,0,0.4c0,0.1-0.1,0.1-0.3,0.1l-0.2,0.1l-0.1,0.2l0.1,0.2l0.2,0.1h4
				c0.2,0,0.3-0.1,0.3-0.3l-0.1-0.2l-0.2-0.1c-0.2,0-0.4-0.1-0.6-0.2c-0.2-0.1-0.3-0.3-0.4-0.5l-4.8-11.3l0-0.1l-0.1-0.1l0,0l0,0
				l-0.1,0h-0.1l-0.1,0l0,0.1l-0.1,0.1L214,98.8c-0.1,0.2-0.2,0.3-0.4,0.5c-0.2,0.1-0.4,0.2-0.6,0.2l-0.2,0.1l-0.1,0.2
				c0,0.2,0.1,0.3,0.3,0.3h1.7l0.2-0.1l0.1-0.2l-0.1-0.2l-0.2-0.1l-0.1,0l-0.1-0.1c-0.1-0.1-0.1-0.2,0-0.4l0.2-0.6
				c0.4-1,1.1-1.7,2-2.3c0.9-0.6,1.8-0.9,2.9-1L221.2,99z M217.3,95.1c-0.6,0.3-1.2,0.7-1.7,1.2l2.2-5.3l1.5,3.6
				C218.6,94.6,217.9,94.8,217.3,95.1"/>
			<path class="st13" d="M226.9,99.3c-0.1,0.1-0.3,0.2-0.4,0.2l-0.2,0.1l-0.1,0.2c0,0.2,0.1,0.3,0.3,0.3h9.4c0.2,0,0.3-0.1,0.3-0.3
				v-2.9c0-0.2-0.1-0.3-0.3-0.3l-0.2,0.1l-0.1,0.2c0,0.4-0.1,0.7-0.2,1c-0.1,0.3-0.3,0.6-0.6,0.9c-0.2,0.2-0.5,0.4-0.9,0.6
				c-0.3,0.1-0.7,0.2-1,0.2h-3.2V88.4c0-0.2,0.1-0.3,0.2-0.4c0.1-0.1,0.2-0.2,0.4-0.2l0.2-0.1l0.1-0.2c0-0.2-0.1-0.3-0.3-0.3h-3.8
				c-0.2,0-0.3,0.1-0.3,0.3l0.1,0.2l0.2,0.1c0.2,0,0.3,0.1,0.4,0.2c0.1,0.1,0.2,0.2,0.2,0.4v10.5C227.1,99.1,227.1,99.2,226.9,99.3"
				/>
			<path class="st13" d="M244.6,99.3c-0.1,0.1-0.2,0.2-0.4,0.2l-0.2,0.1l-0.1,0.2c0,0.2,0.1,0.3,0.3,0.3h5.5c0.9,0,1.7-0.2,2.5-0.5
				c0.8-0.3,1.4-0.8,2-1.4c0.6-0.6,1-1.2,1.4-2c0.3-0.8,0.5-1.6,0.5-2.5c0-0.9-0.2-1.7-0.5-2.5c-0.3-0.8-0.8-1.4-1.4-2s-1.2-1-2-1.4
				c-0.8-0.3-1.6-0.5-2.5-0.5h-2.5h-3c-0.2,0-0.3,0.1-0.3,0.3l0.1,0.2l0.2,0.1c0.2,0,0.3,0.1,0.4,0.2c0.1,0.1,0.2,0.2,0.2,0.4v10.5
				C244.8,99.1,244.7,99.2,244.6,99.3 M247.4,87.8h2.3c0.5,0,1,0.2,1.4,0.5c0.5,0.3,0.9,0.7,1.2,1.3c0.3,0.5,0.6,1.1,0.8,1.9
				c0.2,0.7,0.3,1.5,0.3,2.3s-0.1,1.6-0.3,2.3c-0.2,0.7-0.5,1.3-0.8,1.9c-0.3,0.5-0.7,0.9-1.2,1.3c-0.5,0.3-0.9,0.5-1.4,0.5h-2.3
				V87.8z"/>
			<path class="st13" d="M262.9,99.5l-0.2,0.1l-0.1,0.2l0.1,0.2l0.2,0.1h4c0.2,0,0.3-0.1,0.3-0.3l-0.1-0.2l-0.2-0.1
				c-0.2,0-0.4-0.1-0.6-0.2c-0.2-0.1-0.3-0.3-0.4-0.5l-4.8-11.3l0-0.1l-0.1-0.1l0,0l0,0l-0.1,0h-0.1l-0.1,0l0,0.1l-0.1,0.1
				l-4.8,11.3c-0.1,0.2-0.2,0.3-0.4,0.5c-0.2,0.1-0.4,0.2-0.6,0.2l-0.2,0.1l-0.1,0.2c0,0.2,0.1,0.3,0.3,0.3h1.7l0.2-0.1l0.1-0.2
				l-0.1-0.2l-0.2-0.1l-0.1,0l-0.1-0.1c-0.1-0.1-0.1-0.2,0-0.4l0.2-0.6c0.4-1,1.1-1.7,2-2.3c0.9-0.6,1.8-0.9,2.9-1l1.7,3.9
				c0.1,0.2,0.1,0.3,0,0.4C263.1,99.4,263,99.5,262.9,99.5 M259.3,95.1c-0.6,0.3-1.2,0.7-1.7,1.2l2.2-5.3l1.5,3.6
				C260.6,94.6,259.9,94.8,259.3,95.1"/>
			<path class="st13" d="M279.3,88c0.1-0.1,0.3-0.2,0.4-0.2l0.2-0.1l0.1-0.2l-0.1-0.2l-0.2-0.1h-3.8l-0.2,0.1l-0.1,0.2l0.1,0.2
				l0.2,0.1c0.2,0,0.3,0.1,0.4,0.2c0.1,0.1,0.2,0.2,0.2,0.4v5h-4.8v-5c0-0.2,0.1-0.3,0.2-0.4c0.1-0.1,0.2-0.2,0.4-0.2l0.2-0.1
				l0.1-0.2c0-0.2-0.1-0.3-0.3-0.3h-3.8c-0.2,0-0.3,0.1-0.3,0.3l0.1,0.2l0.2,0.1c0.2,0,0.3,0.1,0.4,0.2c0.1,0.1,0.2,0.2,0.2,0.4
				v10.5c0,0.2-0.1,0.3-0.2,0.4c-0.1,0.1-0.3,0.2-0.4,0.2l-0.2,0.1l-0.1,0.2c0,0.2,0.1,0.3,0.3,0.3h3.8c0.2,0,0.3-0.1,0.3-0.3
				l-0.1-0.2l-0.2-0.1c-0.2,0-0.3-0.1-0.4-0.2c-0.1-0.1-0.2-0.2-0.2-0.4v-5h4.8v5c0,0.2-0.1,0.3-0.2,0.4c-0.1,0.1-0.2,0.2-0.4,0.2
				l-0.2,0.1l-0.1,0.2l0.1,0.2l0.2,0.1h3.8l0.2-0.1l0.1-0.2l-0.1-0.2l-0.2-0.1c-0.2,0-0.3-0.1-0.4-0.2c-0.1-0.1-0.2-0.2-0.2-0.4
				V88.4C279.2,88.2,279.2,88.1,279.3,88"/>
			<path class="st13" d="M293.5,99.7l-0.1-0.2l-0.2-0.1c-0.2,0-0.4-0.1-0.6-0.2c-0.2-0.1-0.3-0.3-0.4-0.5l-4.8-11.3l0-0.1l-0.1-0.1
				l0,0l0,0l-0.1,0h-0.1l-0.1,0l0,0.1l-0.1,0.1l-4.8,11.3c-0.1,0.2-0.2,0.3-0.4,0.5c-0.2,0.1-0.4,0.2-0.6,0.2l-0.2,0.1l-0.1,0.2
				c0,0.2,0.1,0.3,0.3,0.3h1.7l0.2-0.1l0.1-0.2l-0.1-0.2l-0.2-0.1l-0.1,0l-0.1-0.1c-0.1-0.1-0.1-0.2,0-0.4l0.2-0.6
				c0.4-1,1.1-1.7,2-2.3c0.9-0.6,1.8-0.9,2.9-1l1.7,3.9c0.1,0.2,0.1,0.3,0,0.4c0,0.1-0.1,0.1-0.3,0.1l-0.2,0.1l-0.1,0.2l0.1,0.2
				l0.2,0.1h4C293.4,100,293.5,99.9,293.5,99.7 M285.6,95.1c-0.6,0.3-1.2,0.7-1.7,1.2l2.2-5.3l1.5,3.6
				C286.9,94.6,286.3,94.8,285.6,95.1"/>
			<path class="st13" d="M304.2,94c-0.3-0.2-0.6-0.4-1-0.5c0.5-0.3,0.9-0.7,1.3-1.2c0.3-0.5,0.5-1.1,0.5-1.7c0-0.5-0.1-0.9-0.3-1.3
				c-0.2-0.4-0.4-0.7-0.7-1c-0.3-0.3-0.7-0.5-1-0.7c-0.4-0.2-0.8-0.3-1.3-0.3h0h-3.8h-3c-0.2,0-0.3,0.1-0.3,0.3l0.1,0.2l0.2,0.1
				c0.2,0,0.3,0.1,0.4,0.2c0.1,0.1,0.2,0.2,0.2,0.4v10.5c0,0.2-0.1,0.3-0.2,0.4c-0.1,0.1-0.2,0.2-0.4,0.2l-0.2,0.1l-0.1,0.2
				c0,0.2,0.1,0.3,0.3,0.3h3h4.5c0.5,0,0.9-0.1,1.3-0.3c0.4-0.2,0.7-0.4,1-0.7s0.5-0.6,0.7-1.1c0.2-0.4,0.3-0.8,0.3-1.3
				c0-0.4-0.1-0.7-0.2-1.1c-0.1-0.3-0.3-0.6-0.5-0.9C304.7,94.4,304.5,94.2,304.2,94 M298.1,87.8h3.6c0,0,0.1,0.1,0.2,0.2
				c0.1,0.1,0.2,0.3,0.2,0.5c0.1,0.2,0.1,0.5,0.2,0.9c0,0.3,0.1,0.7,0.1,1.2c0,0.5,0,0.9-0.1,1.2c0,0.3-0.1,0.6-0.2,0.9
				c-0.1,0.2-0.1,0.4-0.2,0.5c-0.1,0.1-0.1,0.2-0.2,0.2h-3.2h-0.4V87.8z M302.9,97.9c0,0.3-0.1,0.6-0.2,0.9
				c-0.1,0.2-0.1,0.4-0.2,0.5c-0.1,0.1-0.1,0.2-0.2,0.2h-4.2v-5.6h3.6h0h0.6c0,0,0.1,0.1,0.2,0.2c0.1,0.1,0.2,0.3,0.2,0.5
				c0.1,0.2,0.1,0.5,0.2,0.9c0,0.3,0.1,0.7,0.1,1.2S302.9,97.6,302.9,97.9"/>
			<path class="st13" d="M310.1,99.5c-0.2,0-0.3-0.1-0.4-0.2c-0.1-0.1-0.2-0.2-0.2-0.4V88.4c0-0.2,0.1-0.3,0.2-0.4
				c0.1-0.1,0.2-0.2,0.4-0.2l0.2-0.1l0.1-0.2c0-0.2-0.1-0.3-0.3-0.3h-3.8c-0.2,0-0.3,0.1-0.3,0.3l0.1,0.2l0.2,0.1
				c0.2,0,0.3,0.1,0.4,0.2c0.1,0.1,0.2,0.2,0.2,0.4v10.5c0,0.2-0.1,0.3-0.2,0.4c-0.1,0.1-0.3,0.2-0.4,0.2l-0.2,0.1l-0.1,0.2
				c0,0.2,0.1,0.3,0.3,0.3h3.8c0.2,0,0.3-0.1,0.3-0.3l-0.1-0.2L310.1,99.5z"/>
		</g>
	</g>
	<g>
		
			<linearGradient id="SVGID_00000069376153646402514000000008816604045494992282_" gradientUnits="userSpaceOnUse" x1="24.8812" y1="155.6774" x2="570.3943" y2="155.6774">
			<stop  offset="0" style="stop-color:#FEF492"/>
			<stop  offset="0.1312" style="stop-color:#F3DF7D"/>
			<stop  offset="0.3473" style="stop-color:#E6C861"/>
			<stop  offset="0.5615" style="stop-color:#DDB84E"/>
			<stop  offset="0.771" style="stop-color:#D8AF43"/>
			<stop  offset="0.9703" style="stop-color:#D6AC40"/>
		</linearGradient>
		<polygon style="fill:url(#SVGID_00000069376153646402514000000008816604045494992282_);" points="570.4,155.7 502.2,156.2 
			434,156.4 297.6,156.7 161.3,156.4 93.1,156.2 24.9,155.7 93.1,155.2 161.3,154.9 297.6,154.7 434,154.9 502.2,155.2 		"/>
	</g>
	<g>
		<g>
			<path d="M349.3,807.2c0-0.2,0-0.5,0.1-0.8h-0.1c-0.6,1.9-2.1,2.7-4.8,2.7c-2.8,0-3.9-0.9-3.9-2.6c0-0.6,0.1-1.4,0.5-2.5h0.1
				c-0.1,0.5-0.2,0.8-0.2,1.2c0,1,1.2,1.7,3.7,1.7c2.9,0,4.4-0.5,5-1.6h0.1c0,0.1,0,0.3,0,0.5c0,0.6,0.4,1,1.7,1L351,809
				C349.9,809,349.3,808.3,349.3,807.2z M343.8,811L343.8,811l0.9-1.2c0.4,0.2,1,0.7,1.2,1l-1,1C344.7,811.7,344.1,811.2,343.8,811z
				"/>
			<path d="M350.6,810.1c1-0.1,1.9-0.1,2.4-0.1c0.6,0,1,0.1,1,0.6c0,0.3-0.2,0.7-0.3,1.1h-0.1c0-0.3-0.3-0.3-0.9-0.3
				c-0.3,0-1.7,0-2.5,0.1C350.3,811.1,350.5,810.4,350.6,810.1z M354.1,806.5L354.1,806.5c-0.1,1.7-1,2.4-3.1,2.4
				c-0.2,0-0.3-0.2-0.3-0.7c0-1,0.3-1.5,0.7-1.5c2.3,0,2.7-0.3,3-1.9h0.1v0.7c0,0.7,0.4,1.2,1.7,1.2l-0.3,2.1
				C354.8,809,353.9,808.5,354.1,806.5z"/>
			<path d="M356.2,809h-0.4c-0.2,0-0.3-0.2-0.3-0.7c0-1,0.3-1.5,0.7-1.5h0.3c2.5,0,3.4-0.4,3.4-0.7c0-0.2-1.4-1.3-3.9-2.3
				c0.2-0.5,0.7-1.7,0.8-2.1c0.1-0.4,0.1-0.5,0.5-0.7l4.8-1.9l0.1,0c-0.4,0.7-0.7,1.5-0.9,2l-4.4,1.2v0.1c2.8,1.2,3.2,2.1,3.2,3.4
				C360.1,808.2,358.8,809,356.2,809z"/>
			<path d="M366.8,809c-0.2,0-0.5-0.1-0.7-0.2c-0.2,2.2-1.3,3.3-2.6,3.3c-1,0-1.7-0.6-2.3-0.8v-0.1c1.9-0.4,4.1-1.8,4.7-2.6
				c-0.4-0.4-0.9-1-1.3-2.2c0.2-0.3,0.6-1,0.8-1.7h0.1c0.5,1.7,1.1,2.1,1.8,2.1L366.8,809z"/>
			<path d="M369.8,806.5L369.8,806.5c-0.1,1.7-1,2.4-3.1,2.4c-0.2,0-0.3-0.2-0.3-0.7c0-1,0.3-1.5,0.7-1.5c2.3,0,2.7-0.3,3-1.9h0.1
				v0.7c0,0.7,0.4,1.2,1.7,1.2l-0.3,2.1C370.5,809,369.6,808.5,369.8,806.5z M370.6,803.8c-1,0.1-1.9,0.1-2.4,0.1
				c-0.6,0-1-0.1-1-0.6c0-0.3,0.2-0.7,0.3-1.1h0.1c0,0.3,0.3,0.3,0.9,0.3c0.3,0,1.7,0,2.5-0.1C371,802.8,370.7,803.5,370.6,803.8z"
				/>
			<path d="M372.9,808.4c-0.3,0.4-0.7,0.6-1.3,0.6c-0.2,0-0.4-0.2-0.4-0.7c0-1,0.3-1.4,0.7-1.4c1,0,1.5-0.1,1.5-0.3
				c0-1-0.7-4.5-0.9-5.5c0.5-0.5,1-1.2,1.4-1.8h0.1c0,0.6,0.2,3,0.2,5C374.1,805.4,373.7,807.3,372.9,808.4z"/>
			<path d="M377.1,804.2c0,3.4-0.3,3.4-0.8,5h-0.1c0.1-1.7-0.5-7.2-0.7-8.2c0.5-0.5,1-1.2,1.4-1.8h0.1
				C376.9,799.8,377.1,802.2,377.1,804.2z"/>
			<path d="M387.2,807.4L387.2,807.4c-0.1,1.2-0.3,2.3-0.8,3.1c-0.6,1-1.6,1.6-3.2,1.6c-1.8,0-2.8-1.1-2.8-3c0-1,0.2-2,0.7-3h0.1
				c-0.3,0.8-0.3,1.4-0.3,1.9c0,1.3,1,2.1,2.6,2.1c1.7,0,3.3-0.7,3.3-1.6c-0.1-2.2-0.5-6.6-0.7-7.5c0.5-0.5,1-1.2,1.4-1.8h0.1
				c0,5.5,0,5.9,0,6.2c0,1,0.5,1.4,1.5,1.4l-0.3,2.1C387.8,809,387.2,808.5,387.2,807.4z"/>
			<path d="M394.5,807L394.5,807c-0.1,1.5-0.6,2.2-1.2,2.2c-1.5,0-2.8-0.8-2.8-1.8c0-0.3,0.1-0.8,0.1-1h-0.1
				c-0.3,0.7-0.3,2.6-1.9,2.6c-0.2,0-0.3-0.2-0.3-0.7c0-1,0.3-1.5,0.7-1.5c0.8,0,1.2-0.1,1.6-1.1l0.3,0.2c0.8-1.6,1.2-2.1,2-2.1
				c0.6,0,1.1,0.3,1.8,1.7c0.5,0.9,1,1.3,1.8,1.3l-0.3,2.1C395.2,809,394.6,808.3,394.5,807z M391,806c0.5,0.6,1.8,1,2.5,1
				c0.5,0,0.7-0.1,0.7-0.3c0-0.5-0.8-1.4-1.9-1.4C391.7,805.4,391.3,805.6,391,806z"/>
			<path d="M405.3,806.8L405,809c-1.1,0-1.7-0.6-1.5-1.8h-0.1c-0.1,1.2-0.6,1.8-1.4,1.8c-0.8,0-1.2-0.6-1-1.8h-0.1
				c-0.1,1.2-0.8,1.8-1.7,1.8s-1.3-0.6-1.1-1.8h-0.1c-0.2,1.2-0.9,1.8-2,1.8c-0.2,0-0.3-0.2-0.3-0.7c0-1,0.3-1.5,0.7-1.5
				c1.2,0,1.7-0.3,2-1.4h0.1c0,0.1-0.1,0.8-0.2,1.2c0.2,0.2,0.6,0.3,1.1,0.3c1,0,1.5-0.3,1.7-1.4h0.1l-0.2,1.2
				c0.2,0.2,0.5,0.3,1,0.3c0.6,0,1-0.3,1.2-0.6c0-0.3-0.1-1-0.2-1.2c0.1-0.1,0.3-0.2,0.5-0.3v1C403.6,806.3,404,806.8,405.3,806.8z
				 M399.1,803.4c0-0.3,0.2-0.6,0.3-1h0.1c0,0.3,0.3,0.3,0.9,0.3c0.3,0,1.7,0,2.5-0.1c-0.1,0.3-0.4,1-0.5,1.2
				c-1,0.1-1.9,0.1-2.4,0.1C399.5,803.9,399.1,803.8,399.1,803.4z M401.1,802.3c-0.2-0.2-0.7-0.6-1-0.8v-0.1l0.8-1
				c0.4,0.2,0.9,0.6,1,0.8L401.1,802.3z"/>
			<path d="M404.4,810.1c1-0.1,1.9-0.1,2.4-0.1c0.6,0,1,0.1,1,0.6c0,0.3-0.2,0.7-0.3,1.1h-0.1c0-0.3-0.3-0.3-0.9-0.3
				c-0.3,0-1.7,0-2.5,0.1C404.1,811.1,404.4,810.4,404.4,810.1z M405,809c-0.2,0-0.3-0.2-0.3-0.7c0-1,0.3-1.5,0.7-1.5
				c1.2,0,2.5-0.2,2.5-0.5c0-0.2-0.8-1-1.5-1.4c0.3-0.3,0.7-1.3,0.9-1.8h0.1c0.1,0.4,0.8,1.5,0.8,3C408.1,808,407.3,809,405,809z"/>
			<path d="M415.7,807.6c0,3-1.3,4.5-2.8,4.5c-1,0-1.9-0.6-2.6-0.8v-0.1c2-0.3,5.2-1.8,5.2-3c0-0.4,0-0.7-0.1-1l0,0
				c0,1.1-0.7,1.8-2,1.8c-1.2,0-1.7-0.7-1.7-1.9c0-1.6,0.8-3,2-3C414.9,804,415.7,805.4,415.7,807.6z M415.1,806.6
				c-0.4-0.7-1-1.1-1.8-1.1c-0.8,0-1.5,0.6-1.5,0.8c0,0.3,0.3,0.6,1.5,0.6C414,807,414.5,806.9,415.1,806.6z"/>
			<path d="M424.7,806.8l-0.3,2.1c-1.2,0-1.9-0.7-2-2.9h-0.1c-0.1,1.6-0.7,2.3-1.9,2.3c-1,0-1.5-0.5-1.5-1.3c0-1.1,0.6-2,3.1-3.5
				c0-0.2-0.1-0.4-0.1-0.6c0.3-0.3,0.9-0.8,1.2-1.4h0.1c0,0.4,0.2,1.2,0.2,3.7C423.3,806.3,423.8,806.8,424.7,806.8z M422.2,805.6
				c0-0.3-0.1-0.9-0.1-1.5c-2.1,1-2.6,1.5-2.6,1.7c0,0.3,0.2,0.4,1,0.4C421.4,806.3,422.2,806.1,422.2,805.6z M420.4,800.3
				c0-0.3,0.2-0.7,0.3-1.1h0.1c0,0.3,0.3,0.3,0.9,0.3c0.3,0,1.7,0,2.5-0.1c-0.1,0.3-0.4,1-0.5,1.3c-1,0.1-1.9,0.1-2.4,0.1
				C420.7,800.9,420.4,800.8,420.4,800.3z"/>
			<path d="M430.3,806L430.3,806c-0.3,0.3-0.9,1.4-1.2,2c-1.9,0.4-2.8,0.9-4.8,0.9c-0.2,0-0.3-0.2-0.3-0.7c0-1,0.3-1.5,0.7-1.5h0.7
				c-0.2-0.2-0.2-0.5-0.2-0.9c0-1.7,1.2-3.2,2.5-3.2c1.2,0,1.7,0.9,1.3,2.1h-0.1c0-0.3-0.6-0.6-1.4-0.6c-1,0-2.1,0.5-2.1,1.1
				c0,0.6,0.9,1.2,2,1.2C428.5,806.5,429.5,806.3,430.3,806z"/>
			<path d="M432.2,806.3c-0.1-3.5-0.3-4.2-0.6-5.3c0.5-0.5,1-1.2,1.4-1.8h0.1c0,0.6,0.1,1.2,0.1,2.4c0,1.1-0.1,2.5-0.1,3.8
				c0,1,0.5,1.4,1.7,1.4l-0.3,2.1C432.8,809,432.2,808.3,432.2,806.3z"/>
			<path d="M437.4,806.5L437.4,806.5c-0.1,1.7-1,2.4-3.1,2.4c-0.2,0-0.3-0.2-0.3-0.7c0-1,0.3-1.5,0.7-1.5c2.3,0,2.7-0.3,3-1.9h0.1
				v0.7c0,0.7,0.4,1.2,1.7,1.2l-0.3,2.1C438.2,809,437.2,808.5,437.4,806.5z M434.4,811L434.4,811l0.9-1.2c0.4,0.2,1,0.7,1.2,1l-1,1
				C435.2,811.7,434.7,811.2,434.4,811z"/>
			<path d="M446.3,806.8L446,809c-0.6,0-1.1-0.5-1.1-1.8c-0.6,1.1-1.8,1.8-3.3,1.8h-2.5c-0.2,0-0.3-0.2-0.3-0.7c0-1,0.3-1.5,0.7-1.5
				h0.3c0.3-0.5,0.8-1.3,0.8-2.6c0-1-0.2-2.5-0.4-3.2c0.5-0.5,1-1.2,1.4-1.8h0.1c0,0.4,0.1,2.7,0.1,3.4c0,1-0.2,1.5-1.5,3.7h0.1
				c1.4-2.2,2.3-3,3.4-3c1,0,1.7,0.8,1.7,2.1c0,0.5-0.1,1-0.3,1.4C445.3,806.8,445.7,806.8,446.3,806.8L446.3,806.8z M445,806.2
				c0-0.3-0.6-1.2-1.8-1.2c-1,0-2.4,0.8-3.2,1.9h1.9C443.7,806.8,445,806.6,445,806.2z"/>
			<path d="M447.3,808.4c-0.3,0.4-0.7,0.6-1.3,0.6c-0.2,0-0.4-0.2-0.4-0.7c0-1,0.3-1.4,0.7-1.4c1,0,1.5-0.1,1.5-0.3
				c0-1-0.7-4.5-0.9-5.5c0.5-0.5,1-1.2,1.4-1.8h0.1c0,0.6,0.2,3,0.2,5C448.5,805.4,448.1,807.3,447.3,808.4z"/>
			<path d="M451.5,804.2c0,3.4-0.3,3.4-0.8,5h-0.1c0.1-1.7-0.5-7.2-0.7-8.2c0.5-0.5,1-1.2,1.4-1.8h0.1
				C451.4,799.8,451.5,802.2,451.5,804.2z"/>
			<path d="M461.7,807.4L461.7,807.4c-0.1,1.2-0.3,2.3-0.8,3.1c-0.6,1-1.6,1.6-3.2,1.6c-1.8,0-2.8-1.1-2.8-3c0-1,0.2-2,0.7-3h0.1
				c-0.3,0.8-0.3,1.4-0.3,1.9c0,1.3,1,2.1,2.6,2.1c1.7,0,3.3-0.7,3.3-1.6c-0.1-2.2-0.5-6.6-0.7-7.5c0.5-0.5,1-1.2,1.4-1.8h0.1
				c0,5.5,0,5.9,0,6.2c0,1,0.5,1.4,1.5,1.4l-0.3,2.1C462.3,809,461.7,808.5,461.7,807.4z"/>
			<path d="M468.9,807L468.9,807c-0.1,1.5-0.6,2.2-1.2,2.2c-1.5,0-2.8-0.8-2.8-1.8c0-0.3,0.1-0.8,0.1-1H465
				c-0.3,0.7-0.3,2.6-1.9,2.6c-0.2,0-0.3-0.2-0.3-0.7c0-1,0.3-1.5,0.7-1.5c0.8,0,1.2-0.1,1.6-1.1l0.3,0.2c0.8-1.6,1.2-2.1,2-2.1
				c0.6,0,1.1,0.3,1.8,1.7c0.5,0.9,1,1.3,1.8,1.3l-0.3,2.1C469.6,809,469,808.3,468.9,807z M465.5,806c0.5,0.6,1.8,1,2.5,1
				c0.5,0,0.7-0.1,0.7-0.3c0-0.5-0.8-1.4-1.9-1.4C466.2,805.4,465.7,805.6,465.5,806z"/>
			<path d="M479.8,806.8l-0.3,2.1c-1.1,0-1.7-0.6-1.5-1.8h-0.1c-0.1,1.2-0.6,1.8-1.4,1.8c-0.8,0-1.2-0.6-1-1.8h-0.1
				c-0.1,1.2-0.8,1.8-1.7,1.8c-0.8,0-1.3-0.6-1.1-1.8h-0.1c-0.2,1.2-0.9,1.8-2,1.8c-0.2,0-0.3-0.2-0.3-0.7c0-1,0.3-1.5,0.7-1.5
				c1.2,0,1.7-0.3,2-1.4h0.1c0,0.1-0.1,0.8-0.2,1.2c0.2,0.2,0.6,0.3,1.1,0.3c1,0,1.5-0.3,1.7-1.4h0.1l-0.2,1.2
				c0.2,0.2,0.5,0.3,1,0.3c0.6,0,1-0.3,1.2-0.6c0-0.3-0.1-1-0.2-1.2c0.1-0.1,0.3-0.2,0.5-0.3v1C478,806.3,478.5,806.8,479.8,806.8z
				 M473.6,803.4c0-0.3,0.2-0.6,0.3-1h0.1c0,0.3,0.3,0.3,0.9,0.3c0.3,0,1.7,0,2.5-0.1c-0.1,0.3-0.4,1-0.5,1.2
				c-1,0.1-1.9,0.1-2.4,0.1C473.9,803.9,473.6,803.8,473.6,803.4z M475.6,802.3c-0.2-0.2-0.7-0.6-1-0.8v-0.1l0.8-1
				c0.4,0.2,0.9,0.6,1,0.8L475.6,802.3z"/>
			<path d="M478.9,810.1c1-0.1,1.9-0.1,2.4-0.1c0.6,0,1,0.1,1,0.6c0,0.3-0.2,0.7-0.3,1.1h-0.1c0-0.3-0.3-0.3-0.9-0.3
				c-0.3,0-1.7,0-2.5,0.1C478.5,811.1,478.8,810.4,478.9,810.1z M479.4,809c-0.2,0-0.3-0.2-0.3-0.7c0-1,0.3-1.5,0.7-1.5
				c1.2,0,2.5-0.2,2.5-0.5c0-0.2-0.8-1-1.5-1.4c0.3-0.3,0.7-1.3,0.9-1.8h0.1c0.1,0.4,0.8,1.5,0.8,3C482.5,808,481.8,809,479.4,809z"
				/>
			<path d="M488.7,804.5c0.4,0.7,0.6,1.2,0.6,1.7c0,1.9-1,2.8-2.4,2.8c-1.5,0-1.9-0.8-3-1.4v-0.1c2-0.7,3.2-1.6,3.9-2.7
				c-0.8-0.7-2-1.6-3.7-2.4c0.1-0.5,0.3-1.5,0.2-2.2h0.1c1.9,1.5,3.1,2.6,3.9,3.6c0.1-0.3,0.1-0.7,0.1-1.1c0-0.4-0.1-1.4-0.2-1.9
				c0.4-0.3,1-1,1.2-1.6h0.1c0,0.4,0.1,1,0.1,1.9C489.5,802.5,489.2,803.6,488.7,804.5z M488.2,805.2c-0.6,0.7-1.4,1.2-2.4,1.6
				c0.3,0,0.6,0,0.9,0c1.5,0,2.3-0.2,2.3-0.4C489.1,806.4,488.8,805.9,488.2,805.2z"/>
			<path d="M497.3,809c-0.2,0-0.5-0.1-0.7-0.2c-0.2,2.2-1.3,3.3-2.6,3.3c-1,0-1.7-0.6-2.3-0.8v-0.1c1.9-0.4,4.1-1.8,4.7-2.6
				c-0.4-0.4-0.9-1-1.3-2.2c0.2-0.3,0.6-1,0.8-1.7h0.1c0.5,1.7,1.1,2.1,1.8,2.1L497.3,809z"/>
			<path d="M504.2,806.8l-0.3,2.1h-0.3c-1.4,0-2.4-0.2-2.9-1.2c-1.3,1-2,1.2-3.4,1.2c-0.2,0-0.3-0.2-0.3-0.7c0-1,0.3-1.5,0.7-1.5
				c1,0,1.6,0,2.2-0.1c-0.3-0.5-0.9-1.2-1.2-1.6c-0.3,0.1-0.6,0.2-0.8,0.3l-0.1-0.1c0.1-0.3,0.5-1.1,0.6-1.5
				c0.7-0.3,1.9-0.6,2.8-0.6c0.8,0,1.9,0.2,2.7,0.6c-0.1,0.2-0.4,0.8-0.6,1.4c-0.2,0.3-0.7,0.8-1.4,1.5c0.4,0.1,1,0.1,2,0.1H504.2z
				 M498.9,805c0.4,0.3,1.4,1,1.9,1.4c0.9-0.5,1.7-0.9,2.4-1.3c-0.6-0.3-1.4-0.4-2.2-0.4C500.3,804.7,499.6,804.8,498.9,805z"/>
			<path d="M513.1,806.8l-0.3,2.1c-1.1,0-1.7-0.6-1.5-1.8h-0.1c-0.1,1.2-0.6,1.8-1.4,1.8c-0.8,0-1.2-0.6-1-1.8h-0.1
				c-0.1,1.2-0.8,1.8-1.7,1.8s-1.3-0.6-1.1-1.8h-0.1c-0.2,1.2-0.9,1.8-2,1.8c-0.2,0-0.3-0.2-0.3-0.7c0-1,0.3-1.5,0.7-1.5
				c1.2,0,1.7-0.3,2-1.4h0.1c0,0.1-0.1,0.8-0.2,1.2c0.2,0.2,0.6,0.3,1.1,0.3c1,0,1.5-0.3,1.7-1.4h0.1l-0.2,1.2
				c0.2,0.2,0.5,0.3,1,0.3c0.6,0,1-0.3,1.2-0.6c0-0.3-0.1-1-0.2-1.2c0.1-0.1,0.3-0.2,0.5-0.3v1C511.4,806.3,511.8,806.8,513.1,806.8
				z"/>
			<path d="M514.2,808.4c-0.3,0.4-0.7,0.6-1.3,0.6c-0.2,0-0.4-0.2-0.4-0.7c0-1,0.3-1.4,0.7-1.4c1,0,1.5-0.1,1.5-0.3
				c0-1-0.7-4.5-0.9-5.5c0.5-0.5,1-1.2,1.4-1.8h0.1c0,0.6,0.2,3,0.2,5C515.4,805.4,514.9,807.3,514.2,808.4z"/>
			<path d="M518.4,804.2c0,3.4-0.3,3.4-0.8,5h-0.1c0.1-1.7-0.5-7.2-0.7-8.2c0.5-0.5,1-1.2,1.4-1.8h0.1
				C518.2,799.8,518.4,802.2,518.4,804.2z"/>
		</g>
		<g>
			<path d="M349.3,807.2c0-0.2,0-0.5,0.1-0.8h-0.1c-0.6,1.9-2.1,2.7-4.8,2.7c-2.8,0-3.9-0.9-3.9-2.6c0-0.6,0.1-1.4,0.5-2.5h0.1
				c-0.1,0.5-0.2,0.8-0.2,1.2c0,1,1.2,1.7,3.7,1.7c2.9,0,4.4-0.5,5-1.6h0.1c0,0.1,0,0.3,0,0.5c0,0.6,0.4,1,1.7,1L351,809
				C349.9,809,349.3,808.3,349.3,807.2z M343.8,811L343.8,811l0.9-1.2c0.4,0.2,1,0.7,1.2,1l-1,1C344.7,811.7,344.1,811.2,343.8,811z
				"/>
			<path d="M350.6,810.1c1-0.1,1.9-0.1,2.4-0.1c0.6,0,1,0.1,1,0.6c0,0.3-0.2,0.7-0.3,1.1h-0.1c0-0.3-0.3-0.3-0.9-0.3
				c-0.3,0-1.7,0-2.5,0.1C350.3,811.1,350.5,810.4,350.6,810.1z M354.1,806.5L354.1,806.5c-0.1,1.7-1,2.4-3.1,2.4
				c-0.2,0-0.3-0.2-0.3-0.7c0-1,0.3-1.5,0.7-1.5c2.3,0,2.7-0.3,3-1.9h0.1v0.7c0,0.7,0.4,1.2,1.7,1.2l-0.3,2.1
				C354.8,809,353.9,808.5,354.1,806.5z"/>
			<path d="M356.2,809h-0.4c-0.2,0-0.3-0.2-0.3-0.7c0-1,0.3-1.5,0.7-1.5h0.3c2.5,0,3.4-0.4,3.4-0.7c0-0.2-1.4-1.3-3.9-2.3
				c0.2-0.5,0.7-1.7,0.8-2.1c0.1-0.4,0.1-0.5,0.5-0.7l4.8-1.9l0.1,0c-0.4,0.7-0.7,1.5-0.9,2l-4.4,1.2v0.1c2.8,1.2,3.2,2.1,3.2,3.4
				C360.1,808.2,358.8,809,356.2,809z"/>
			<path d="M366.8,809c-0.2,0-0.5-0.1-0.7-0.2c-0.2,2.2-1.3,3.3-2.6,3.3c-1,0-1.7-0.6-2.3-0.8v-0.1c1.9-0.4,4.1-1.8,4.7-2.6
				c-0.4-0.4-0.9-1-1.3-2.2c0.2-0.3,0.6-1,0.8-1.7h0.1c0.5,1.7,1.1,2.1,1.8,2.1L366.8,809z"/>
			<path d="M369.8,806.5L369.8,806.5c-0.1,1.7-1,2.4-3.1,2.4c-0.2,0-0.3-0.2-0.3-0.7c0-1,0.3-1.5,0.7-1.5c2.3,0,2.7-0.3,3-1.9h0.1
				v0.7c0,0.7,0.4,1.2,1.7,1.2l-0.3,2.1C370.5,809,369.6,808.5,369.8,806.5z M370.6,803.8c-1,0.1-1.9,0.1-2.4,0.1
				c-0.6,0-1-0.1-1-0.6c0-0.3,0.2-0.7,0.3-1.1h0.1c0,0.3,0.3,0.3,0.9,0.3c0.3,0,1.7,0,2.5-0.1C371,802.8,370.7,803.5,370.6,803.8z"
				/>
			<path d="M372.9,808.4c-0.3,0.4-0.7,0.6-1.3,0.6c-0.2,0-0.4-0.2-0.4-0.7c0-1,0.3-1.4,0.7-1.4c1,0,1.5-0.1,1.5-0.3
				c0-1-0.7-4.5-0.9-5.5c0.5-0.5,1-1.2,1.4-1.8h0.1c0,0.6,0.2,3,0.2,5C374.1,805.4,373.7,807.3,372.9,808.4z"/>
			<path d="M377.1,804.2c0,3.4-0.3,3.4-0.8,5h-0.1c0.1-1.7-0.5-7.2-0.7-8.2c0.5-0.5,1-1.2,1.4-1.8h0.1
				C376.9,799.8,377.1,802.2,377.1,804.2z"/>
			<path d="M387.2,807.4L387.2,807.4c-0.1,1.2-0.3,2.3-0.8,3.1c-0.6,1-1.6,1.6-3.2,1.6c-1.8,0-2.8-1.1-2.8-3c0-1,0.2-2,0.7-3h0.1
				c-0.3,0.8-0.3,1.4-0.3,1.9c0,1.3,1,2.1,2.6,2.1c1.7,0,3.3-0.7,3.3-1.6c-0.1-2.2-0.5-6.6-0.7-7.5c0.5-0.5,1-1.2,1.4-1.8h0.1
				c0,5.5,0,5.9,0,6.2c0,1,0.5,1.4,1.5,1.4l-0.3,2.1C387.8,809,387.2,808.5,387.2,807.4z"/>
			<path d="M394.5,807L394.5,807c-0.1,1.5-0.6,2.2-1.2,2.2c-1.5,0-2.8-0.8-2.8-1.8c0-0.3,0.1-0.8,0.1-1h-0.1
				c-0.3,0.7-0.3,2.6-1.9,2.6c-0.2,0-0.3-0.2-0.3-0.7c0-1,0.3-1.5,0.7-1.5c0.8,0,1.2-0.1,1.6-1.1l0.3,0.2c0.8-1.6,1.2-2.1,2-2.1
				c0.6,0,1.1,0.3,1.8,1.7c0.5,0.9,1,1.3,1.8,1.3l-0.3,2.1C395.2,809,394.6,808.3,394.5,807z M391,806c0.5,0.6,1.8,1,2.5,1
				c0.5,0,0.7-0.1,0.7-0.3c0-0.5-0.8-1.4-1.9-1.4C391.7,805.4,391.3,805.6,391,806z"/>
			<path d="M405.3,806.8L405,809c-1.1,0-1.7-0.6-1.5-1.8h-0.1c-0.1,1.2-0.6,1.8-1.4,1.8c-0.8,0-1.2-0.6-1-1.8h-0.1
				c-0.1,1.2-0.8,1.8-1.7,1.8s-1.3-0.6-1.1-1.8h-0.1c-0.2,1.2-0.9,1.8-2,1.8c-0.2,0-0.3-0.2-0.3-0.7c0-1,0.3-1.5,0.7-1.5
				c1.2,0,1.7-0.3,2-1.4h0.1c0,0.1-0.1,0.8-0.2,1.2c0.2,0.2,0.6,0.3,1.1,0.3c1,0,1.5-0.3,1.7-1.4h0.1l-0.2,1.2
				c0.2,0.2,0.5,0.3,1,0.3c0.6,0,1-0.3,1.2-0.6c0-0.3-0.1-1-0.2-1.2c0.1-0.1,0.3-0.2,0.5-0.3v1C403.6,806.3,404,806.8,405.3,806.8z
				 M399.1,803.4c0-0.3,0.2-0.6,0.3-1h0.1c0,0.3,0.3,0.3,0.9,0.3c0.3,0,1.7,0,2.5-0.1c-0.1,0.3-0.4,1-0.5,1.2
				c-1,0.1-1.9,0.1-2.4,0.1C399.5,803.9,399.1,803.8,399.1,803.4z M401.1,802.3c-0.2-0.2-0.7-0.6-1-0.8v-0.1l0.8-1
				c0.4,0.2,0.9,0.6,1,0.8L401.1,802.3z"/>
			<path d="M404.4,810.1c1-0.1,1.9-0.1,2.4-0.1c0.6,0,1,0.1,1,0.6c0,0.3-0.2,0.7-0.3,1.1h-0.1c0-0.3-0.3-0.3-0.9-0.3
				c-0.3,0-1.7,0-2.5,0.1C404.1,811.1,404.4,810.4,404.4,810.1z M405,809c-0.2,0-0.3-0.2-0.3-0.7c0-1,0.3-1.5,0.7-1.5
				c1.2,0,2.5-0.2,2.5-0.5c0-0.2-0.8-1-1.5-1.4c0.3-0.3,0.7-1.3,0.9-1.8h0.1c0.1,0.4,0.8,1.5,0.8,3C408.1,808,407.3,809,405,809z"/>
			<path d="M415.7,807.6c0,3-1.3,4.5-2.8,4.5c-1,0-1.9-0.6-2.6-0.8v-0.1c2-0.3,5.2-1.8,5.2-3c0-0.4,0-0.7-0.1-1l0,0
				c0,1.1-0.7,1.8-2,1.8c-1.2,0-1.7-0.7-1.7-1.9c0-1.6,0.8-3,2-3C414.9,804,415.7,805.4,415.7,807.6z M415.1,806.6
				c-0.4-0.7-1-1.1-1.8-1.1c-0.8,0-1.5,0.6-1.5,0.8c0,0.3,0.3,0.6,1.5,0.6C414,807,414.5,806.9,415.1,806.6z"/>
			<path d="M424.7,806.8l-0.3,2.1c-1.2,0-1.9-0.7-2-2.9h-0.1c-0.1,1.6-0.7,2.3-1.9,2.3c-1,0-1.5-0.5-1.5-1.3c0-1.1,0.6-2,3.1-3.5
				c0-0.2-0.1-0.4-0.1-0.6c0.3-0.3,0.9-0.8,1.2-1.4h0.1c0,0.4,0.2,1.2,0.2,3.7C423.3,806.3,423.8,806.8,424.7,806.8z M422.2,805.6
				c0-0.3-0.1-0.9-0.1-1.5c-2.1,1-2.6,1.5-2.6,1.7c0,0.3,0.2,0.4,1,0.4C421.4,806.3,422.2,806.1,422.2,805.6z M420.4,800.3
				c0-0.3,0.2-0.7,0.3-1.1h0.1c0,0.3,0.3,0.3,0.9,0.3c0.3,0,1.7,0,2.5-0.1c-0.1,0.3-0.4,1-0.5,1.3c-1,0.1-1.9,0.1-2.4,0.1
				C420.7,800.9,420.4,800.8,420.4,800.3z"/>
			<path d="M430.3,806L430.3,806c-0.3,0.3-0.9,1.4-1.2,2c-1.9,0.4-2.8,0.9-4.8,0.9c-0.2,0-0.3-0.2-0.3-0.7c0-1,0.3-1.5,0.7-1.5h0.7
				c-0.2-0.2-0.2-0.5-0.2-0.9c0-1.7,1.2-3.2,2.5-3.2c1.2,0,1.7,0.9,1.3,2.1h-0.1c0-0.3-0.6-0.6-1.4-0.6c-1,0-2.1,0.5-2.1,1.1
				c0,0.6,0.9,1.2,2,1.2C428.5,806.5,429.5,806.3,430.3,806z"/>
			<path d="M432.2,806.3c-0.1-3.5-0.3-4.2-0.6-5.3c0.5-0.5,1-1.2,1.4-1.8h0.1c0,0.6,0.1,1.2,0.1,2.4c0,1.1-0.1,2.5-0.1,3.8
				c0,1,0.5,1.4,1.7,1.4l-0.3,2.1C432.8,809,432.2,808.3,432.2,806.3z"/>
			<path d="M437.4,806.5L437.4,806.5c-0.1,1.7-1,2.4-3.1,2.4c-0.2,0-0.3-0.2-0.3-0.7c0-1,0.3-1.5,0.7-1.5c2.3,0,2.7-0.3,3-1.9h0.1
				v0.7c0,0.7,0.4,1.2,1.7,1.2l-0.3,2.1C438.2,809,437.2,808.5,437.4,806.5z M434.4,811L434.4,811l0.9-1.2c0.4,0.2,1,0.7,1.2,1l-1,1
				C435.2,811.7,434.7,811.2,434.4,811z"/>
			<path d="M446.3,806.8L446,809c-0.6,0-1.1-0.5-1.1-1.8c-0.6,1.1-1.8,1.8-3.3,1.8h-2.5c-0.2,0-0.3-0.2-0.3-0.7c0-1,0.3-1.5,0.7-1.5
				h0.3c0.3-0.5,0.8-1.3,0.8-2.6c0-1-0.2-2.5-0.4-3.2c0.5-0.5,1-1.2,1.4-1.8h0.1c0,0.4,0.1,2.7,0.1,3.4c0,1-0.2,1.5-1.5,3.7h0.1
				c1.4-2.2,2.3-3,3.4-3c1,0,1.7,0.8,1.7,2.1c0,0.5-0.1,1-0.3,1.4C445.3,806.8,445.7,806.8,446.3,806.8L446.3,806.8z M445,806.2
				c0-0.3-0.6-1.2-1.8-1.2c-1,0-2.4,0.8-3.2,1.9h1.9C443.7,806.8,445,806.6,445,806.2z"/>
			<path d="M447.3,808.4c-0.3,0.4-0.7,0.6-1.3,0.6c-0.2,0-0.4-0.2-0.4-0.7c0-1,0.3-1.4,0.7-1.4c1,0,1.5-0.1,1.5-0.3
				c0-1-0.7-4.5-0.9-5.5c0.5-0.5,1-1.2,1.4-1.8h0.1c0,0.6,0.2,3,0.2,5C448.5,805.4,448.1,807.3,447.3,808.4z"/>
			<path d="M451.5,804.2c0,3.4-0.3,3.4-0.8,5h-0.1c0.1-1.7-0.5-7.2-0.7-8.2c0.5-0.5,1-1.2,1.4-1.8h0.1
				C451.4,799.8,451.5,802.2,451.5,804.2z"/>
			<path d="M461.7,807.4L461.7,807.4c-0.1,1.2-0.3,2.3-0.8,3.1c-0.6,1-1.6,1.6-3.2,1.6c-1.8,0-2.8-1.1-2.8-3c0-1,0.2-2,0.7-3h0.1
				c-0.3,0.8-0.3,1.4-0.3,1.9c0,1.3,1,2.1,2.6,2.1c1.7,0,3.3-0.7,3.3-1.6c-0.1-2.2-0.5-6.6-0.7-7.5c0.5-0.5,1-1.2,1.4-1.8h0.1
				c0,5.5,0,5.9,0,6.2c0,1,0.5,1.4,1.5,1.4l-0.3,2.1C462.3,809,461.7,808.5,461.7,807.4z"/>
			<path d="M468.9,807L468.9,807c-0.1,1.5-0.6,2.2-1.2,2.2c-1.5,0-2.8-0.8-2.8-1.8c0-0.3,0.1-0.8,0.1-1H465
				c-0.3,0.7-0.3,2.6-1.9,2.6c-0.2,0-0.3-0.2-0.3-0.7c0-1,0.3-1.5,0.7-1.5c0.8,0,1.2-0.1,1.6-1.1l0.3,0.2c0.8-1.6,1.2-2.1,2-2.1
				c0.6,0,1.1,0.3,1.8,1.7c0.5,0.9,1,1.3,1.8,1.3l-0.3,2.1C469.6,809,469,808.3,468.9,807z M465.5,806c0.5,0.6,1.8,1,2.5,1
				c0.5,0,0.7-0.1,0.7-0.3c0-0.5-0.8-1.4-1.9-1.4C466.2,805.4,465.7,805.6,465.5,806z"/>
			<path d="M479.8,806.8l-0.3,2.1c-1.1,0-1.7-0.6-1.5-1.8h-0.1c-0.1,1.2-0.6,1.8-1.4,1.8c-0.8,0-1.2-0.6-1-1.8h-0.1
				c-0.1,1.2-0.8,1.8-1.7,1.8c-0.8,0-1.3-0.6-1.1-1.8h-0.1c-0.2,1.2-0.9,1.8-2,1.8c-0.2,0-0.3-0.2-0.3-0.7c0-1,0.3-1.5,0.7-1.5
				c1.2,0,1.7-0.3,2-1.4h0.1c0,0.1-0.1,0.8-0.2,1.2c0.2,0.2,0.6,0.3,1.1,0.3c1,0,1.5-0.3,1.7-1.4h0.1l-0.2,1.2
				c0.2,0.2,0.5,0.3,1,0.3c0.6,0,1-0.3,1.2-0.6c0-0.3-0.1-1-0.2-1.2c0.1-0.1,0.3-0.2,0.5-0.3v1C478,806.3,478.5,806.8,479.8,806.8z
				 M473.6,803.4c0-0.3,0.2-0.6,0.3-1h0.1c0,0.3,0.3,0.3,0.9,0.3c0.3,0,1.7,0,2.5-0.1c-0.1,0.3-0.4,1-0.5,1.2
				c-1,0.1-1.9,0.1-2.4,0.1C473.9,803.9,473.6,803.8,473.6,803.4z M475.6,802.3c-0.2-0.2-0.7-0.6-1-0.8v-0.1l0.8-1
				c0.4,0.2,0.9,0.6,1,0.8L475.6,802.3z"/>
			<path d="M478.9,810.1c1-0.1,1.9-0.1,2.4-0.1c0.6,0,1,0.1,1,0.6c0,0.3-0.2,0.7-0.3,1.1h-0.1c0-0.3-0.3-0.3-0.9-0.3
				c-0.3,0-1.7,0-2.5,0.1C478.5,811.1,478.8,810.4,478.9,810.1z M479.4,809c-0.2,0-0.3-0.2-0.3-0.7c0-1,0.3-1.5,0.7-1.5
				c1.2,0,2.5-0.2,2.5-0.5c0-0.2-0.8-1-1.5-1.4c0.3-0.3,0.7-1.3,0.9-1.8h0.1c0.1,0.4,0.8,1.5,0.8,3C482.5,808,481.8,809,479.4,809z"
				/>
			<path d="M488.7,804.5c0.4,0.7,0.6,1.2,0.6,1.7c0,1.9-1,2.8-2.4,2.8c-1.5,0-1.9-0.8-3-1.4v-0.1c2-0.7,3.2-1.6,3.9-2.7
				c-0.8-0.7-2-1.6-3.7-2.4c0.1-0.5,0.3-1.5,0.2-2.2h0.1c1.9,1.5,3.1,2.6,3.9,3.6c0.1-0.3,0.1-0.7,0.1-1.1c0-0.4-0.1-1.4-0.2-1.9
				c0.4-0.3,1-1,1.2-1.6h0.1c0,0.4,0.1,1,0.1,1.9C489.5,802.5,489.2,803.6,488.7,804.5z M488.2,805.2c-0.6,0.7-1.4,1.2-2.4,1.6
				c0.3,0,0.6,0,0.9,0c1.5,0,2.3-0.2,2.3-0.4C489.1,806.4,488.8,805.9,488.2,805.2z"/>
			<path d="M497.3,809c-0.2,0-0.5-0.1-0.7-0.2c-0.2,2.2-1.3,3.3-2.6,3.3c-1,0-1.7-0.6-2.3-0.8v-0.1c1.9-0.4,4.1-1.8,4.7-2.6
				c-0.4-0.4-0.9-1-1.3-2.2c0.2-0.3,0.6-1,0.8-1.7h0.1c0.5,1.7,1.1,2.1,1.8,2.1L497.3,809z"/>
			<path d="M504.2,806.8l-0.3,2.1h-0.3c-1.4,0-2.4-0.2-2.9-1.2c-1.3,1-2,1.2-3.4,1.2c-0.2,0-0.3-0.2-0.3-0.7c0-1,0.3-1.5,0.7-1.5
				c1,0,1.6,0,2.2-0.1c-0.3-0.5-0.9-1.2-1.2-1.6c-0.3,0.1-0.6,0.2-0.8,0.3l-0.1-0.1c0.1-0.3,0.5-1.1,0.6-1.5
				c0.7-0.3,1.9-0.6,2.8-0.6c0.8,0,1.9,0.2,2.7,0.6c-0.1,0.2-0.4,0.8-0.6,1.4c-0.2,0.3-0.7,0.8-1.4,1.5c0.4,0.1,1,0.1,2,0.1H504.2z
				 M498.9,805c0.4,0.3,1.4,1,1.9,1.4c0.9-0.5,1.7-0.9,2.4-1.3c-0.6-0.3-1.4-0.4-2.2-0.4C500.3,804.7,499.6,804.8,498.9,805z"/>
			<path d="M513.1,806.8l-0.3,2.1c-1.1,0-1.7-0.6-1.5-1.8h-0.1c-0.1,1.2-0.6,1.8-1.4,1.8c-0.8,0-1.2-0.6-1-1.8h-0.1
				c-0.1,1.2-0.8,1.8-1.7,1.8s-1.3-0.6-1.1-1.8h-0.1c-0.2,1.2-0.9,1.8-2,1.8c-0.2,0-0.3-0.2-0.3-0.7c0-1,0.3-1.5,0.7-1.5
				c1.2,0,1.7-0.3,2-1.4h0.1c0,0.1-0.1,0.8-0.2,1.2c0.2,0.2,0.6,0.3,1.1,0.3c1,0,1.5-0.3,1.7-1.4h0.1l-0.2,1.2
				c0.2,0.2,0.5,0.3,1,0.3c0.6,0,1-0.3,1.2-0.6c0-0.3-0.1-1-0.2-1.2c0.1-0.1,0.3-0.2,0.5-0.3v1C511.4,806.3,511.8,806.8,513.1,806.8
				z"/>
			<path d="M514.2,808.4c-0.3,0.4-0.7,0.6-1.3,0.6c-0.2,0-0.4-0.2-0.4-0.7c0-1,0.3-1.4,0.7-1.4c1,0,1.5-0.1,1.5-0.3
				c0-1-0.7-4.5-0.9-5.5c0.5-0.5,1-1.2,1.4-1.8h0.1c0,0.6,0.2,3,0.2,5C515.4,805.4,514.9,807.3,514.2,808.4z"/>
			<path d="M518.4,804.2c0,3.4-0.3,3.4-0.8,5h-0.1c0.1-1.7-0.5-7.2-0.7-8.2c0.5-0.5,1-1.2,1.4-1.8h0.1
				C518.2,799.8,518.4,802.2,518.4,804.2z"/>
		</g>
	</g>
</g>
<g id="Dimensions">
</g>
</svg>
