<?xml version="1.0" encoding="UTF-8"?>
<svg id="Layer_1" xmlns="http://www.w3.org/2000/svg" version="1.1" xmlns:xlink="http://www.w3.org/1999/xlink" viewBox="0 0 595.3 841.9">
  <!-- Generator: Adobe Illustrator 29.3.0, SVG Export Plug-In . SVG Version: 2.1.0 Build 146)  -->
  <defs>
    <style>
      .st0 {
        fill: url(#linear-gradient2);
      }

      .st1 {
        clip-path: url(#clippath-4);
      }

      .st2 {
        fill: #fff;
      }

      .st3 {
        fill: url(#linear-gradient1);
      }

      .st4 {
        fill: none;
      }

      .st5 {
        fill: url(#radial-gradient);
      }

      .st6 {
        clip-path: url(#clippath-1);
      }

      .st7, .st8 {
        isolation: isolate;
      }

      .st9 {
        clip-path: url(#clippath-3);
      }

      .st10 {
        fill: #e0dedd;
      }

      .st11 {
        fill: url(#linear-gradient3);
      }

      .st12 {
        fill: #131314;
      }

      .st13 {
        clip-path: url(#clippath-2);
      }

      .st14 {
        fill: url(#linear-gradient);
      }

      .st8 {
        fill: #231f20;
        font-family: Doran-Bold, Doran;
        font-size: 11px;
        font-weight: 700;
      }

      .st15 {
        clip-path: url(#clippath);
      }
    </style>
    <clipPath id="clippath">
      <path class="st4" d="M56.1,572.5c-13.6,6-25.3,7-31.5,7s-1.4,0-2,0v1.3l10.2,34.8c8.9-6.2,19.7-7.7,28-7.7s12.1,1,12.6,1.2l13.6,2.9-13.7,2.7c-5.4,1-9.2,3.5-11.2,5.2l.2.2c4.1-1.4,8.2-2.1,12.3-2.1,6,0,12.1,1.5,17.9,4.5,3.8,1.9,6.8,4.2,9,6h.9c.8-1.3,1.6-2.4,2.3-3.2-1-3.5-1.8-4.9-1.9-5.1l-2.6-3.5,4.3-.9c2.3-.5,4.3-1.5,5.7-2.3-1.2-3.1-.7-6.3,0-8l1.3-3.9c-8.5-.8-28.3-3.5-34.5-12.3-2-2.8-2.5-6-1.6-9.3.7-2.5.6-4.5-.3-5.8-1.3-2-4.2-2.8-6.5-3.1-1-.2-2.1-.2-3.1-.2-3,0-6.2.7-9.1,2h0Z"/>
    </clipPath>
    <linearGradient id="linear-gradient" x1="-14.4" y1="-3.2" x2="-13.4" y2="-3.2" gradientTransform="translate(399.6 -856) rotate(-90) scale(104.3)" gradientUnits="userSpaceOnUse">
      <stop offset="0" stop-color="#fff"/>
      <stop offset="1" stop-color="#fffef4"/>
    </linearGradient>
    <clipPath id="clippath-1">
      <rect class="st4" x=".1" y="824.4" width="594.8" height="17.4"/>
    </clipPath>
    <linearGradient id="linear-gradient1" x1="-14.3" y1="-3" x2="-13.3" y2="-3" gradientTransform="translate(8541.5 2595.7) scale(595.2)" gradientUnits="userSpaceOnUse">
      <stop offset="0" stop-color="#fef491"/>
      <stop offset="0" stop-color="#f7e782"/>
      <stop offset=".3" stop-color="#e9cd65"/>
      <stop offset=".5" stop-color="#dfba50"/>
      <stop offset=".8" stop-color="#d9af43"/>
      <stop offset="1" stop-color="#d7ac3f"/>
      <stop offset="1" stop-color="#d7ac3f"/>
    </linearGradient>
    <clipPath id="clippath-2">
      <path class="st4" d="M38.2,66.8v58.1h68v-58.1c0-18.8-15.2-34-34-34s-34,15.2-34,34h0Z"/>
    </clipPath>
    <linearGradient id="linear-gradient2" x1="-14.3" y1="1.6" x2="-13.3" y2="1.6" gradientTransform="translate(227.7 1455.4) rotate(90) scale(99.1)" gradientUnits="userSpaceOnUse">
      <stop offset="0" stop-color="#d7ac3f"/>
      <stop offset="0" stop-color="#d7ac3f"/>
      <stop offset=".2" stop-color="#d9af43"/>
      <stop offset=".5" stop-color="#dfba50"/>
      <stop offset=".7" stop-color="#e9cd65"/>
      <stop offset=".9" stop-color="#f7e782"/>
      <stop offset="1" stop-color="#fef491"/>
    </linearGradient>
    <clipPath id="clippath-3">
      <polygon class="st4" points="69.8 46.9 66.5 47.8 63.7 47.8 66 55 69.2 53.6 71.5 53.5 72.5 53.8 70.7 55.1 71 55.4 73.3 55.1 75.7 55.6 78.2 57.2 78.7 55.9 78.4 54.8 79.4 54.3 79.8 53.1 79.8 51.5 77.2 51 74.2 49.9 73.9 48.3 73.7 47.1 72 46.4 69.8 46.9"/>
    </clipPath>
    <linearGradient id="linear-gradient3" x1="-14.7" y1="1.7" x2="-13.7" y2="1.7" gradientTransform="translate(42.7 -192.9) rotate(-90) scale(17.2)" gradientUnits="userSpaceOnUse">
      <stop offset="0" stop-color="#fff"/>
      <stop offset="1" stop-color="#fef385"/>
    </linearGradient>
    <clipPath id="clippath-4">
      <polygon class="st4" points="161.7 183.4 96.7 183.5 32 183.7 76.5 183.9 507.2 183.9 551.6 183.7 486.6 183.5 421.6 183.4 291.7 183.2 161.7 183.4"/>
    </clipPath>
    <radialGradient id="radial-gradient" cx="-14.3" cy="-.9" fx="-14.3" fy="-.9" r="1" gradientTransform="translate(2925.1 355.9) scale(183.8)" gradientUnits="userSpaceOnUse">
      <stop offset="0" stop-color="#dab64b"/>
      <stop offset="1" stop-color="#c0a251"/>
    </radialGradient>
  </defs>
  <g class="st15">
    <rect class="st14" x="19.9" y="546.6" width="94" height="105.6" transform="translate(-487.1 361.1) rotate(-60.4)"/>
  </g>
  <g>
    <path class="st10" d="M176.6,755.8c-1.2,0-2.5.2-3.9.6h-.3c0,0-.2.2-.2.2-.3.2-2.9,1.7-4.3,5-.6,1-4.7,2.8-8.6,4h0c-.1,0-.2,0-.4.1.3.7.6,1.3.9,2,.3.7.6,1.4.8,2.2,1.7,4.6,3,9.7,3.9,13.7,0,.3.2.7.2,1,.4,1.6.6,3,.8,4,3.6-2.8,8.2-7.1,12.2-13,3.2,2.4,9.5,8,9.4,14.4v1.5s1.3.6,1.3.6c0,0,1.4.7,2.8,2.1l-3.8,1.2h-.1c-.2.2-5.4,2.8-1.3,11.6,3.3,7,6.8,11.1,6.9,11.2l1.6,1.8,1.7-1.8c.4-.4,8.6-9.1,8.5-19.6l1.4-6.1v-7.3c-.3-.5-1.9-4.7-7.8-7.1-3.1-1.3-7.8-8.5-10-12.9-.4-1.2-1.9-5.7-6-8.1-1.7-1-3.6-1.5-5.6-1.5"/>
    <path class="st10" d="M2.3,817.5c-.9,0-1.8,0-2.8.2v17.6h3.4c.5-.8.8-1.3.8-1.3,0,0,3.2-4.7,7.4-6.5.3-1.7.6-3.5,1.1-5.3h0c.2-.7.4-1.4.6-2.1,0,0,0-.2,0-.3-2.7-1.1-6.4-2.1-10.6-2.1"/>
    <path class="st10" d="M9.3,552.4l-2.1,13,4.7,5.6,34.3,116.9c-1.1.6-2,1.4-2.4,2.3-.9,2-.8,4.9-.6,7.1.2,1.9-.6,3.8-2.1,5-.2.1-.3.2-.5.4h0c-1.7,1.4-3.8,3.5-5.7,6.8-.2.4-.5.8-.9,1.3l-1.4,1.6c-7.3,7.6-26.1,19.3-26.1,19.3l7.9,1.7c-5.1,4.2-10.1,7.7-14.9,10.5v54.5c1.9-.9,4-1.9,6.1-3.1,0,0,5.4-2.5,12-7.1h0s4.9-.7,4.9-.7h1c-2.7,2.6-5.8,5.1-9.3,7.2,0,0,17.6-3.4,30.4-15.8l.2-.2.2-.3c1.9-1.9,3.7-4,5.3-6.2l.9,5.6h0c0,0-1.4,8-1.4,8l-2,4.3c-.8.3-1.6.7-2.4,1-18,6.7-25.2,19.4-28.1,29-.2.7-.4,1.4-.6,2.1h0c-.5,1.9-.8,3.6-1.1,5.3-.5,3.2-.6,6-.5,8h67.2c2.2-.3,5.3-.8,8.8-1.7-.1.4-.2.6-.2.7l-.2.5.2.6,2.1,7.4,1.2-.4c8.7-2.5,25.7-5,25.9-5l1.5-.2-.4-1.5c0-.1,0-.3-.1-.4-1.5-3.8-8.8-5.7-14.2-6.6,7.2-2.8,15.1-6.8,22.6-12.5,1.9-1.4,6.5-4.2,9.2-4.2s.3,0,.4,0c.6,0,1.2.1,1.9.1,4.5,0,10.5-1.6,11.7-1.9,2.2-.4,4.6-.6,6.4-.6s2.5.1,3,.4c2.8,3.6,1.9,9-2.7,16.2-1.1,1.2-3.3,4-2.6,6.4h0c0,0-5.3-2.6-5.3-2.6l-1.1.8c-.1.1-1.9,1.4-3.6,4.3h27.8v-8.4c.1-4.9,1.4-13.8,4.2-16.6,4.4-4.4,2.5-9.8.1-12.4-.5-.6-3.7-4.2-7.7-5.3h-.3c0,0-5.4,0-5.4,0-.7-.2-1.9-.6-3.1-1.2-.2-1.3-.4-2.5-.6-3.8,0-.4-.1-.8-.2-1.2-1.2-6.7-2.9-11.9-4.2-15.3-.3-.7-.5-1.4-.8-1.9-.6-1.6-1.1-2.4-1.1-2.4-.9-2.2-2.9-6.3-6.6-10.1v-7.3h-6l-9.2-25.4h0c-.5-1.3-1.2-3.3-1.9-5.7,1.3,1,2.9,1.8,4.8,2.3,7.2,1.9,7.8,10.5,7.8,10.8v.3s.1.3.1.3c.1.4,1.5,4.3,4.8,5.9.9.4,1.8.6,2.8.6s2-.2,2.9-.6c5.2-2.1,7.3-4.3,7.8-5.1.8-.9,3.6-4.6.9-11.3-2.2-5.5-4.6-14.3-5-18.5,1.6-1.2,3.4-3.3,3.4-6v-.8l-1.8-2.3c.1-.2.2-.5.3-.7.8-1.6,1.6-4.1,2.7-7.6l.2-.2h0s1-3.4,1-3.4l-3.4.7c-.3,0-3.2-2-5.7-3.7-2.4-1.7-3.6-4.8-2.7-7.6h0c0-.1,2.1-7,2.1-7l-5.6,4.4c-.2.1-4,3.2-6.8,6.5-3.4-2.1-11.1-6-20.4-6s-3.9.2-5.9.5l-2.4.5,2.2,7.8c-2-.6-4.6-1.2-7.3-1.2s-4.4.3-6.6,1.3l-3.2,1.4,5.1,4.7c-3.7.6-8.6,1.9-13.1,5.3l-1.7,1.2c-2.7-2-5.7-4-5.7-4,.3-1.2.5-2.8.7-4.5h0c.4-4.5.5-9.5.5-9.5,1.9-1.9,2.7-4.7,2-7.3-.3-.9-.6-1.8-1-2.5h0c-1.1-2.1-2.4-3.3-2.4-3.3,0,0-.6-.8-1.9-2h0s0,0,0,0c-1.1-1-2.6-2.3-4.6-3.4-.8-.5-1.7-.7-2.7-.9h0c-.3,0-.7,0-1-.1-.4,0-.8,0-1.3,0-4.3,0-8.5,1.8-11.7,4.8-.2.1-.3.3-.5.5h0c-1,1-2.1,2-3.3,3.3-.7.8-1.3,1.8-1.7,3.1h0c-2.2,7.1.7,20.3.7,20.3l-1.9-.3-18.7-63.8c7.9-6.3,18.4-7.7,26.3-7.7h.2c-3.2,2.1-4.9,4.1-5.1,4.2l-1.7,1.9,6.4,6.9,1.8-.7c4-1.6,8-2.4,12.1-2.4s10.2,1.3,15.2,3.8c6.9,3.5,11.1,8.2,11.2,8.2l3.2,3.6,1.5-4.6c1.4-4.2,3.9-6.4,3.9-6.5l1.3-1.1-.4-1.7c-.5-2.1-1.1-3.8-1.6-5,4-1.5,6.6-3.7,6.7-3.8l2-1.8-1.7-2.1c-1.8-2.3-.8-5-.8-5.1l3.7-11.2-3.7-.2c-7.7-.4-28.8-3-33.9-10.2-1-1.4-1.2-2.8-.8-4.5,1.1-4.1.8-7.6-1-10.4-1.9-3-5.4-4.9-10.3-5.6-1.3-.2-2.6-.3-4-.3-3.8,0-7.7.8-11.3,2.4-12.8,5.6-23.9,6.5-29.5,6.5s-3.8-.2-3.9-.2h0l-1.8-6h-.2c0,0,.5-4.2.5-4.2l-1.7-1.8-8-9.2h0ZM24.6,579.4c6.2,0,17.9-1,31.5-7,3-1.3,6.1-2,9.1-2s2.1,0,3.1.2c2.2.3,5.2,1.2,6.5,3.1.9,1.4,1,3.3.3,5.8-.9,3.3-.3,6.5,1.6,9.3,6.3,8.8,26,11.5,34.5,12.3l-1.3,3.9c-.7,1.7-1.2,4.9,0,8-1.3.8-3.3,1.8-5.7,2.3l-4.3.9,2.6,3.5c.1.2.9,1.7,1.9,5.1-.7.8-1.7,2.1-2.6,3.7-2.2-1.9-5.4-4.4-9.6-6.5-5.8-3-11.9-4.5-17.9-4.5s-8.3.7-12.3,2.1l-.2-.2c2.1-1.7,5.9-4.2,11.2-5.2l13.7-2.7-13.6-2.9c-.5,0-5.6-1.1-12.6-1.1s-19.1,1.5-28,7.7l-10.6-36c.7,0,1.5,0,2.4,0"/>
  </g>
  <g class="st6">
    <rect class="st3" x=".1" y="824.4" width="594.8" height="17.4"/>
  </g>
  <g class="st13">
    <rect class="st0" x="15.6" y="22.2" width="113.2" height="113.2" transform="translate(-34.6 74.1) rotate(-45)"/>
  </g>
  <path class="st2" d="M96.3,111.4c0,4.7-3.8,8.5-8.4,8.5s-8.4-3.8-8.4-8.5,3.8-8.5,8.4-8.5,8.4,3.8,8.4,8.5"/>
  <g class="st9">
    <rect class="st11" x="63.1" y="42.1" width="17.3" height="19.4" transform="translate(-8.7 88.5) rotate(-60.4)"/>
  </g>
  <g>
    <path class="st12" d="M94,84.5c0,0-.3-.8-1.3-1.2-.5-.2-1.3-1.4-1.7-2.1,0-.2-.3-.9-1-1.3-.4-.3-1-.3-1.6-.2h0c0,0-.5.3-.7.9,0,.2-.8.5-1.4.7h0c0,.1,0,.2.2.4,0,.1,0,.2.1.4.3.8.5,1.6.6,2.3v.2c0,.3.1.5.2.7.6-.5,1.3-1.2,2-2.1.5.4,1.6,1.3,1.6,2.4v.2h.2c0,0,.2.2.5.4l-.6.2h0s-.9.5-.2,1.9c.5,1.2,1.1,1.8,1.1,1.9l.3.3.3-.3c0,0,1.4-1.5,1.4-3.2l.2-1v-1.2h0c0,0,0,0,0,0Z"/>
    <path class="st12" d="M48.3,99.3s3.1,4.3,8.3.6c0,0-.8,1.9-3,2.5,0,0,3.8.6,5.6-3.6,0,0,.8-2.6.6-3.7s.8-2.6.8-2.6c0,0,.5-.8,1.2-1.1,0-.3,0-.6.2-.9h0c0-.1,0-.2,0-.3h0c-1.2-.5-3.5-.9-5.5,1.7,0,0-.8,1-.9,3-.2,2-4,1.8-4,1.8,0,0-1.6-.1-2.4-2.1,0,0,0,2.9,1.6,3.8,0,0,1,.7,2.1.4,0,0-2,2.1-4.7.4"/>
    <path class="st12" d="M67.2,108.3s0-.1,0-.3c.1.1.3.3.4.6h0c-.1.1-.2.1-.4.1v-.4c0,0,0,0,0,0ZM64.2,101.5s0-.4.4-.9c0,.1,0,.3.1.4h0s0,0,0,0c0,0,1.2,1.6,1.5,2.8.2,1,.1,1.4.1,1.4l-.2.3.9.6c-.4.3-.6.6-.6.7h0c0,0,0,.1,0,.1-.3-.2-.6-.4-1.1-.6v-.4c0,0,0-.6-.8-1.3-.4-.4-.4-2.1-.3-3.3M63.7,50.5c.9,0,3,0,5.6-1.1.7-.3,1.3-.4,2-.3.4,0,.9.2,1.1.5.2.2.2.5,0,1-.2.5,0,1.1.3,1.5,1,1.5,4.3,1.9,5.7,2l-.2.7c-.1.3-.2.8,0,1.3-.2.1-.6.3-.9.4h-.7c0,.1.4.7.4.7,0,0,.2.3.3.8-.1.1-.3.3-.4.6-.4-.3-.9-.7-1.6-1.1-1-.5-2-.7-3-.7s-1.4.1-2,.3h0c.3-.3,1-.7,1.9-.9l2.2-.4-2.2-.5c-.2,0-4-.8-6.7,1.1l-1.8-6h0ZM91.3,113.9c-8.8-3.8-16.8-4.9-22.3-5.1h0c.3-.4.8-1.3.2-2.3v-1.5c.1,0,0,0,0,0,0,0-.4-.7-.9-1-.2-.2-.5-1.2-.7-2.1,0-.1,0-1,.9-1.4,1.4-.5,3-2.7,3.1-2.8,0,0,.7-.9.7-2.6.2-.3.6-1.3.6-2.1.4,0,1-.1,1.8-.3h0c0,.1,0,.2,0,.2l.4,1.3h.2c1.4-.5,4.2-.9,4.3-.9h.2s0-.3,0-.3c-.2-.7-1.4-1-2.4-1.2h0c1.2-.5,2.5-1.1,3.7-2.1.3-.2,1.2-.8,1.6-.7.7,0,2-.2,2.2-.3.7-.1,1.4-.1,1.6,0,.5.6.3,1.5-.4,2.7-.2.2-.6.7-.4,1.1h0l-.9-.4h-.2c0,.2-1.3,1.1-1.2,3.5v.4h.4c0,0,2.3-.3,3.2-1.4.5-.7.8-.8.9-.8h.8v-2.2c0-.8.2-2.3.7-2.7.7-.7.4-1.6,0-2.1,0,0-.6-.7-1.3-.9h-1c-.1,0-.3,0-.5-.2,0-.2,0-.4,0-.6v-.2c-.2-1.1-.5-2-.7-2.5,0-.1,0-.2-.1-.3-.1-.3-.2-.4-.2-.4-.2-.4-.5-1-1.1-1.7v-1.2h-1l-1.5-4.2h0c0-.2-.2-.6-.3-.9.2.2.5.3.8.4,1.2.3,1.3,1.7,1.3,1.8h0c0,0,0,.1,0,.1,0,0,.2.7.8,1,.3.1.6.1.9,0,.9-.3,1.2-.7,1.3-.8.1-.2.6-.8.2-1.9-.4-.9-.8-2.4-.8-3.1.3-.2.6-.5.6-1h0c0-.1-.3-.5-.3-.5h0c.1-.4.3-.8.4-1.4h0s0,0,0,0l.2-.6h-.6c0,0-.5-.2-.9-.5-.4-.3-.6-.8-.4-1.2h0s.3-1.1.3-1.1l-.9.7s-.7.5-1.1,1.1c-.7-.4-2.4-1.3-4.3-.9h-.4c0,0,.4,1.4.4,1.4-.6-.2-1.5-.3-2.3,0l-.5.2.8.8c-.6,0-1.4.3-2.2.9l-.3.2c-.4-.3-.9-.7-.9-.7,0-.2,0-.5.1-.8h0c0-.8,0-1.6,0-1.6.3-.3.4-.8.3-1.2,0-.2,0-.3-.2-.4h0c-.2-.3-.4-.5-.4-.5,0,0-.1-.1-.3-.3h0c-.2-.2-.4-.4-.8-.6-.1,0-.3-.1-.4-.2h-.2c-.8,0-1.6.2-2.2.8h0c-.2.2-.3.4-.6.6-.1.1-.2.3-.3.5h0c-.4,1.2.1,3.3.1,3.3h-.3c0,0-3.1-10.6-3.1-10.6,1.3-1,3-1.3,4.3-1.3h0c-.5.3-.8.7-.8.7l-.3.3,1.1,1.1h.3c1.5-.7,3-.6,4.5.1,1.1.6,1.8,1.3,1.8,1.4l.5.6.2-.8c.2-.7.6-1.1.7-1.1l.2-.2v-.3c-.2-.3-.2-.6-.3-.8.7-.2,1.1-.6,1.1-.6l.3-.3-.3-.3c-.3-.4-.1-.8-.1-.8l.6-1.8h-.6c-1.3,0-4.8-.5-5.6-1.7-.2-.2-.2-.5-.1-.7.2-.7.1-1.3-.2-1.7-.3-.5-.9-.8-1.7-.9-.8-.1-1.7,0-2.5.3-3,1.3-5.5,1-5.5,1h0l-.3-1h0v-.7c0,0-.2-.3-.2-.3l-1.3-1.5-.3,2.1.8.9,5.7,19.3c-.2,0-.3.2-.4.4-.2.3-.1.8,0,1.2,0,.3,0,.6-.3.8h0c-.3.3-.6.6-.9,1.2l-.2.2-.2.3c-1.2,1.2-4.3,3.2-4.3,3.2l1.3.3c-2.3,1.9-4.4,2.9-6.3,3.2-4.7.8-7.7-1.7-7.7-1.7,0,0,.1.7.6,1.7h0c.3.5.7,1.1,1.3,1.7h0c.5.5,1,.9,1.8,1.2h0c.6.3,1.2.5,2,.6h0l-1.2.2h-1.5c-.2,0-.3,0-.4,0,0,0,.6.7,3.3,1l-.9.4c-.2,0-.3.1-.5.2l.9,1.2.4.6.4.5s.1,0,.3.2h0c.3.2.8.4,1.5.4h0s0,0,0,0c.5,0,1,0,1.6-.2h0c.8-.2,1.6-.5,2.6-1.1,0,0,.9-.4,2-1.2h.8c0-.1.2-.1.2-.1-.5.4-1,.8-1.5,1.2,0,0,2.9-.6,5-2.6h0s0,0,0,0c.3-.3.6-.7.9-1l.2.9h0s-.2,1.3-.2,1.3l-.3.7c-.1,0-.3.1-.4.2-3,1.1-4.2,3.2-4.6,4.8,0,.1,0,.2,0,.3h0c0,.3-.1.6-.2.9-.2,1.1,0,1.8,0,1.9,0,.1.2,1.8.6,3,.3.8-.5,1.9-.6,2l-1.2,1.2c0,0-.6.7,0,1.7.5.8.8,2,.8,2.1,0,.1.4,1.9.1,3.2v.3s1.1.5,1.1.5v1.4c-8.6,0-17.2,0-25.9,0v18h67.2c0-1.6,0-3.3,0-4.9-3.4-2.6-7.9-5.4-13.5-7.9"/>
    <path d="M118.3,114.1h0c.3.2.7.6.9.8l.8-.9c-.2-.3-.6-.7-1-.8l-.7.9h0Z"/>
    <path d="M122.4,112.7c-.1.4-.3.9-.5,1.1.8,1.2,1.2,1.9,1.2,2.4,0,1.4-1.6,2.7-3.9,2.7s-3.1-.9-3.1-2.5.2-1.5.4-2.2h-.1c-.4,1-.6,1.9-.6,2.9,0,2,1.2,3.2,3.2,3.2s4.3-1.6,4.3-4.3-.6-2.7-.7-3.2h0,0Z"/>
    <path d="M186.7,115.6c-1.4,0-2.3-.7-2.3-1.6s1.2-1.7,2.3-1.7,1.5.3,1.5.9h0c.3-1.1-.3-1.9-1.5-1.9s-2.6,1.4-2.6,3.1.3,1.3.8,1.6c-.5,0-.9,0-1.3,0h-51.3c-1.3,0-1.9-.5-1.9-2.1s0-3.1,0-4.8,0-1.8,0-2.5h0c-.2.3-.6.8-.9,1.2.1,1.1.3,2.9.3,5.9s-.3,1.2-1.1,1.7c0-4.3-3.2-6.6-3.9-7.4h0c0,.4,0,1.2-.1,1.5,2.4,1.8,3.9,3.9,4.1,5.9-.8.6-2.1,1-4,1.3h0c.6.3,1.3.6,1.9.6,1.6,0,2.9-1.1,3.3-3.2h0c0,2.7.7,3.2,2.2,3.2h51.3c2.1,0,3.3-.6,5.5-1.1.2-.4.6-1.1.8-1.3h0c-.8.2-2,.4-3,.4"/>
    <path d="M191.1,119.8c0-.3.4-.8,1.1-.8s.6.2.6.6h0c0,0,0-.2,0-.3,0-.4-.3-.8-.7-.8-.7,0-1.3.8-1.3,1.6s.3.8.9.9c-.5.2-.8.6-1,1.1h0c.4-.4,1.2-.9,2.4-1.1,0-.2.1-.4.2-.6h0c-.2,0-.9.1-1.4.1s-1-.3-1-.6"/>
    <path d="M196.1,115.4c0,.5-.9.9-2.4.9s-1.1-.1-1.7-.3c1.5-.6,2.5-1.4,3.3-2.3.6.8.9,1.4.9,1.8M196.4,106.9h0c-.2.3-.5.8-.8,1.1.1.8.1,1.8.1,2.3,0,.9-.1,1.7-.4,2.4-.9-1.2-2.3-2.6-4.5-4.4h0c0,.4,0,1.1-.1,1.5,2.1,1.3,3.6,2.6,4.4,3.6-.8,1.2-2.1,2.3-4.2,3.1h0c1.1.6,1.6,1.3,3,1.3s2.5-.8,2.5-2.5-.2-1.3-.7-2.1c.6-1.1.9-2.3.9-3.9s0-1.7,0-2.3"/>
    <path d="M199.1,106.9c-.2.4-.6.9-.9,1.2.2,1,.6,7.7.5,9.7h0c.3-1.5.5-2,.5-4.5s-.2-5.8-.2-6.4h0,0Z"/>
    <path d="M206.5,116.3c-1.3,0-1.7-.6-1.7-1.1,0-.8.8-1.5,1.7-1.5s1.8.7,2.1,2c-.6.4-1.3.6-2.1.6M206.7,112.7c-1.2,0-2.1,1.3-2.1,3s.6,1.9,1.9,1.9,2-.6,2.2-1.5h0c0,.3,0,.6,0,.9,0,1.6-2.8,3.2-5.3,3.4h0c.6.2,1.2.7,1.9.7,1.9,0,3.6-1.8,3.6-4.5s-.9-3.8-2.2-3.8"/>
    <path d="M215.8,108h0c0,.3-.2.6-.2.8,0,.4.4.5,1.1.5s1.3,0,2.3,0c0-.2.2-.7.3-.9-.7,0-2.1,0-2.5,0-.7,0-.9,0-.9-.3"/>
    <path d="M215.4,115.5c-1,0-1.3-.2-1.3-.7s.7-1.1,3.2-2.5c0,.6.1,1.3.1,2s-.8,1.1-2.1,1.1M227.4,112.2c-.1.4-.4,1-.6,1.2.6.6,1.3,1.5,1.3,2s-.9.8-2.6.8h-5.4c-1.2,0-1.9-.6-1.9-2.1,0-2.2-.1-3.2-.2-3.9h0c-.2.4-.6.8-.8.9,0,.2,0,.4.1.7-2.8,1.7-3.6,2.6-3.6,3.8s.5,1.2,1.5,1.2,2.1-.7,2.2-1.9h0c0,1.9.9,2.7,2.2,2.7h5.4c2.1,0,3-.8,3-2.4s-.6-2.6-.8-3h0Z"/>
    <path d="M226.9,119c-.4,0-1.3,0-2.3,0,0,.2-.2.7-.3.9.7,0,2.1,0,2.5,0,.7,0,1,0,1,.3h0c0-.3.2-.6.2-.8,0-.4-.4-.5-1.1-.5"/>
    <path d="M281.8,115.6c-1.4,0-2.3-.7-2.3-1.6s1.2-1.7,2.3-1.7,1.5.3,1.5.9h0c.3-1.1-.3-1.9-1.5-1.9s-2.6,1.4-2.6,3.1.3,1.3.8,1.6c-.5,0-.9,0-1.3,0h-45.9c-1.4,0-1.9-.5-1.9-1.9s0-3.3,0-4.9,0-1.9,0-2.5h0c-.2.4-.6.9-.9,1.2.2,1.3.3,2,.4,6.9,0,1.9.6,2.6,2.3,2.6h45.9c2.1,0,3.3-.6,5.5-1.1.2-.4.6-1.1.8-1.3h0c-.8.2-2,.4-3,.4"/>
    <path d="M304.8,106.9c-.2.4-.6.9-.9,1.2.2.9.7,5.9.7,7.4s-.5.7-1.9.7h0c-1.4,0-1.9-.5-1.9-1.9s0-3.3,0-4.9,0-1.9,0-2.5h0c-.2.3-.6.9-.9,1.2.2,1.3.3,2,.4,6.5,0,1.1-.6,1.5-1.9,1.5h-5.4c-1,0-1.6-.6-2-2.1-.7-2.6-.9-3.2-1-3.8h0c0,.2-.5,1-.6,1.2.5,1.1,1,2.9,1,3.4s-.8,1.3-2.4,1.3-1.7-.4-1.6-1.5h-.1c0,.4-.1.8-.1,1.2,0,1,.5,1.6,1.7,1.6s2.5-.9,2.6-2.8h0c.3,1.9,1.1,2.7,2.3,2.7h5.4c1.4,0,2.1-.6,2.1-2.3h0c0,1.6.8,2.3,2.1,2.3h0c.8,0,1.3-.1,1.6-.5.6-.7.9-2.1.9-3.1,0-2.4-.2-6.4-.2-7.1h0Z"/>
    <path d="M125.2,85.4c-.4,0-.9,0-1.6,0s-1.4,0-2.2.1c0,.2-.2.5-.3.9-.1.4-.2.6-.3.8.5,0,1.2,0,2.2-.1.9,0,1.6,0,1.9,0,.6,0,1,0,1.2.1.2,0,.3.2.3.4h.1c0-.2,0-.4.2-.7,0-.3.2-.6.2-.7,0-.3-.1-.5-.4-.6s-.7-.2-1.3-.2"/>
    <path d="M133.9,82.2l1.4-1.5c-.1-.3-.4-.5-.7-.8-.3-.3-.6-.5-1-.7l-1.3,1.6h0c.2.2.5.4.8.7s.6.5.8.7"/>
    <path d="M181.2,71.6c0-.3.1-.7.3-1,.2-.3.5-.6.9-.8s.8-.3,1.2-.3.9.1,1.3.3c.4.2.8.5,1,.9.3.4.4.8.4,1.2,0,.7-.8,1.3-2.3,1.9-.9-.3-1.6-.7-2.1-1.1-.5-.4-.8-.8-.8-1.3M188.8,72c.5.4.9.7,1.1,1,.2.3.3.7.3,1s0,.5-.1.7c-.1.3-.2.5-.4.8-1.1-.4-2.6-.8-4.4-1.2.8-.9,1.2-1.9,1.2-3s0-.5,0-.7c1,.6,1.8,1,2.3,1.4M120.8,82.7c.8.4,1.7.6,2.8.6s2.8-.2,3.9-.7,1.9-1.1,2.4-1.9c.5-.8.8-1.8.8-2.8s0-.6-.2-.8c.4,0,1,0,1.7,0h0c1.1,0,2-.1,2.7-.4.7-.3,1.2-.7,1.6-1.2.4-.6.6-1.3.6-2.2h.1c0,.4,0,.6,0,.8,0,1.1.2,1.9.8,2.4s1.2.7,2.1.7h39.1c.9,0,1.8,0,2.6-.3.8-.2,1.4-.5,2-1,2.7.7,4.5,1.3,5.4,1.6.6-.6,1-1.3,1.3-2.1s.5-1.6.5-2.4-.1-1.2-.4-1.7c-.3-.5-.8-1-1.4-1.5-.7-.5-1.6-1.1-2.9-1.7-1.1-.6-2-1.1-2.7-1.5-.6-.4-1.1-.7-1.4-1h-.1c0,.3,0,.7-.1,1.1,0,.4-.2.8-.3,1.1.2,0,.5.2.9.5l.3.2c-.5.4-1,1-1.3,1.7-.4.7-.5,1.5-.5,2.2s0,.8.2,1.1c.1.3.4.6.6.8-.5,0-1.2.1-2,.1h-39.1c-.7,0-1.3,0-1.7-.3-.4-.2-.7-.4-.9-.8s-.3-.8-.3-1.4v-1.1h-.2c-.1,1-.4,1.7-.6,2.2-.3.5-.7.8-1.4,1-.6.2-1.6.3-2.8.3-2.4,0-4.1,0-5.1,0-1.1,0-1.9-.1-2.6-.2-.2.7-.7,1.4-1.2,2.2h0c.3.2.7.3,1.2.4s1,.2,1.8.3c.8,0,1.5.2,2,.3.5,0,.9.2,1.2.3.3.2.5.3.5.6s-.2.7-.7,1-1.2.7-2.2,1c-1,.3-2.2.4-3.6.4s-1.9-.2-2.7-.5c-.7-.3-1.3-.8-1.7-1.4s-.6-1.3-.6-2.2,0-1.1.2-1.7c0-.6.2-1.2.4-1.7h-.2c-.3.7-.6,1.5-.7,2.3-.2.8-.2,1.6-.2,2.4s.2,2.1.6,2.8,1,1.4,1.8,1.8"/>
    <path d="M197.7,63.4l1.4-1.5c-.1-.3-.4-.5-.7-.8-.3-.3-.6-.5-1-.7l-1.3,1.6h0c.2.2.5.4.9.7.3.3.6.5.7.7"/>
    <path d="M205,76.4c.3-.4.6-1,.9-1.6.2-.7.4-1.3.6-2,.1-.7.2-1.4.2-2,0-1.1,0-2.3,0-3.6s-.1-2.8-.2-4.6c0-.4,0-.9,0-1.5s0-1,0-1.2h-.1c-.2.4-.5.8-.8,1.2s-.6.8-.9,1c.1.5.3,1.6.5,3.2.2,1.6.4,3.2.6,4.8.2,1.6.2,2.7.2,3.4s-.2.6-.7.8c-.5.2-1.2.3-2.2.3s-1.5-.2-2-.8c-.5-.5-.9-1.3-1.2-2.5l-.9-3.3c-.4-1.5-.6-2.5-.7-2.9h-.1c0,.2-.2.6-.5,1.1s-.6,1-.7,1.2c.3.6.5,1.2.8,1.9.2.7.4,1.4.6,2.1s.2,1.1.2,1.3c0,.3-.1.6-.4.9s-.7.5-1.3.7c-.6.2-1.3.3-2,.3s-1.2,0-1.6-.2-.6-.4-.8-.7c-.1-.3-.2-.8-.2-1.3h-.2c-.1.9-.2,1.6-.2,2.1,0,.9.2,1.6.7,2s1.2.7,2.1.7c2.7,0,4.1-1.6,4.3-4.6h.1c.5,3,1.7,4.5,3.7,4.5h0c.7,0,1.2,0,1.6-.2s.7-.3.9-.6"/>
    <path d="M210.2,76.8c0,.4,0,.6,0,.8h.1c0-.3.2-.7.3-1.3.2-.7.3-1.2.4-1.7,0-.5.2-1.1.2-1.8,0-.7,0-1.7,0-2.9,0-1.8,0-4.3-.2-7.7,0-1.2,0-2,0-2.3h-.1c-.2.4-.5.8-.8,1.2-.3.4-.6.8-.9,1,.1.5.2,1.7.4,3.6.2,1.9.3,3.9.4,6.1s.2,3.8.2,5"/>
    <path d="M218,82.2c.8.4,1.7.6,2.9.6s2.5-.3,3.6-.8c1-.5,1.8-1.3,2.4-2.3s.9-2.2,1-3.6c.5.7,1.2,1,2.1,1s1.4-.2,1.9-.7c.5-.4.8-1.1,1-1.9h.1c0,.8.1,1.5.5,1.9.4.4,1,.7,1.7.7s1.6-.3,2.1-1,.7-1.6.7-2.9,0-1.7-.3-2.3-.4-1.3-.7-2.1c0,0,0-.2-.1-.4h-.1c-.1.4-.3.8-.5,1.2-.2.4-.4.7-.6,1,.7.6,1.2,1.1,1.5,1.6.3.5.5.9.5,1.2s-.1.3-.3.5c-.2.2-.5.3-.8.4-.4,0-.7.1-1.1.1s-.9,0-1.3-.2-.7-.4-.9-.6c0-.4.1-.8.2-1.2s0-.7.1-.9h-.2c-.1.7-.3,1.3-.5,1.7-.2.4-.5.7-.9.9-.4.2-.9.3-1.5.3s-.9-.1-1.3-.4c-.4-.2-.8-.7-1.1-1.3-.4-.6-.7-1.5-1-2.6h-.1c-.1.4-.3.8-.4,1.2-.2.4-.3.7-.5.9.6,1,1,1.8,1.3,2.5.3.6.4,1.1.4,1.3,0,.7-.3,1.3-.8,1.9-.5.6-1.3,1.1-2.3,1.5-1,.4-2.1.6-3.3.6s-1.9-.2-2.7-.5c-.7-.3-1.3-.8-1.7-1.4-.4-.6-.6-1.3-.6-2.2s0-1.1.2-1.7.3-1.2.5-1.8h-.2c-.7,1.6-1.1,3.2-1.1,4.9s.2,2,.6,2.8c.4.8,1,1.4,1.8,1.8"/>
    <path d="M239.1,80.3c-1.2.6-2.4,1-3.6,1.2h0c.2.2.5.3.8.5.4.2.8.4,1.2.5s.7.2,1.1.2c.9,0,1.7-.3,2.5-.9s1.4-1.5,1.9-2.6c.5-1.1.7-2.4.7-3.8s0-1.2-.2-1.8c-.1-.6-.3-1.1-.5-1.6-.2-.5-.5-1-.8-1.6h-.1c-.1.4-.3.8-.5,1.2s-.4.8-.6,1.1c.8.8,1.4,1.4,1.8,2,.4.6.6,1,.6,1.3,0,.6-.4,1.3-1.2,2.1-.8.8-1.8,1.5-3.1,2.1"/>
    <path d="M290.1,71.9c0-.3.1-.6.4-.9.3-.3.6-.6,1.1-.8s.9-.3,1.4-.3.9.1,1.4.3c.4.2.8.5,1,.9s.4.8.4,1.2-.1.5-.3.8-.6.5-1,.7c-.5.2-1,.4-1.7.6-.5-.2-1-.4-1.4-.7-.4-.3-.7-.6-.9-.9s-.3-.6-.3-.9M245.2,67.2c0,1.3.1,3.2.2,5.7,0,1.1.2,2,.4,2.6.2.6.6,1.1,1.2,1.3.5.3,1.2.4,2.1.4h39.1c1.1,0,2-.1,2.7-.3s1.2-.6,1.5-1.1c.3.5.8.8,1.4,1.1s1.7.3,3,.3h0c.7,0,1.2,0,1.6-.2.4-.1.7-.3.9-.6.3-.4.6-1,.9-1.6.2-.7.4-1.3.5-2,.1-.7.2-1.4.2-2,0-1.1,0-2.3,0-3.6,0-1.3-.1-2.8-.2-4.6,0-.4,0-.9,0-1.5s0-1,0-1.2h-.1c-.2.4-.5.8-.8,1.2-.3.4-.6.8-.9,1,.1.5.3,1.6.5,3.2s.4,3.2.6,4.8c.2,1.6.2,2.7.2,3.4s-.2.6-.7.8c-.5.2-1.2.3-2.2.3s-1.9,0-2.5,0c.4-.3.8-.8,1-1.3s.3-1.1.3-1.7-.1-1.4-.4-1.9-.6-1-1-1.3c-.4-.3-.9-.4-1.5-.4s-1.2.2-1.8.7c-.5.4-1,1-1.3,1.8s-.5,1.6-.5,2.4.2,1.2.6,1.7c-.5,0-1.1,0-1.8,0h-39.1c-.8,0-1.4,0-1.8-.3-.4-.2-.8-.5-1-.9s-.3-1-.3-1.7,0-2.1,0-3.9c0-1.7,0-3,0-3.8s0-1.6,0-2.7c0-.6,0-1,0-1.4h-.1c-.2.4-.5.8-.8,1.2-.3.4-.6.8-.9,1,.2.8.3,1.5.4,2.2,0,.7.1,1.6.2,2.9"/>
  </g>
  <polygon points="295.8 58.3 291 60.4 290.9 61 295.7 58.9 295.8 58.3"/>
  <g>
    <path d="M293.1,62.8l-1.3,1.6h0c.2.2.5.4.9.7.3.3.6.5.7.7l1.4-1.5c-.1-.2-.4-.5-.7-.8-.3-.3-.7-.5-1-.7"/>
    <path d="M304.5,71.8c.1,2.1.2,3.8.2,5s0,.6,0,.8h.1c0-.3.2-.7.3-1.3.2-.7.3-1.2.4-1.7,0-.5.2-1.1.2-1.8,0-.7,0-1.7,0-2.9,0-1.8,0-4.3-.2-7.7,0-1.2,0-2,0-2.3h-.1c-.2.4-.5.8-.8,1.2-.3.4-.6.8-.9,1,.1.5.2,1.7.4,3.6.2,1.9.3,3.9.4,6.1"/>
    <path d="M123.2,93.7l1.5,3.6c-.7,0-1.4.3-2,.6-.6.3-1.2.7-1.7,1.2l2.2-5.3h0ZM118.5,102.7h1.9c0,0,0-.2,0-.2v-.2c0,0-.3,0-.3,0h-.1s-.1-.1-.1-.1c0,0,0-.2,0-.4l.2-.6c.4-1,1.1-1.7,1.9-2.3.8-.6,1.8-.9,2.8-1l1.6,3.9c0,.2,0,.3,0,.4,0,0-.1.1-.2.1h-.2c0,0,0,.3,0,.3v.2c0,0,.3,0,.3,0h3.9c.2,0,.2,0,.2-.2v-.2c0,0-.2,0-.2,0-.2,0-.4,0-.6-.2s-.3-.3-.4-.5l-4.7-11.3h0c0,0,0-.1,0-.1h0s-.1,0-.1,0h-.1s0,0,0,0h0c0,0-4.7,11.4-4.7,11.4,0,.2-.2.3-.4.5-.2.1-.4.2-.6.2h-.2c0,0,0,.3,0,.3,0,.2,0,.2.2.2"/>
    <path d="M132.2,102c-.1.1-.2.2-.4.2h-.2c0,0,0,.3,0,.3,0,.2,0,.2.2.2h9.2c.2,0,.2,0,.2-.2v-2.9c0-.2,0-.2-.2-.2h-.2c0,0,0,.2,0,.2,0,.4,0,.7-.2,1-.1.3-.3.6-.6.8s-.5.4-.8.6c-.3.1-.7.2-1,.2h-3.1v-11.1c0-.2,0-.3.2-.4s.2-.2.4-.2h.2c0,0,0-.3,0-.3,0-.2,0-.2-.2-.2h-3.8c-.2,0-.2,0-.2.2v.2c0,0,.2,0,.2,0,.2,0,.3,0,.4.2s.2.2.2.4v10.5c0,.2,0,.3-.2.4"/>
    <path d="M155.6,90.6c.4,0,.7,0,1,.2s.6.3.8.6c.2.2.4.5.6.8.1.3.2.7.2,1v.2c0,0,.3,0,.3,0h.2c0,0,0-.2,0-.2v-3.1c0,0-.2,0-.2,0h-9.2c-.2,0-.2,0-.2.2v.2c0,0,.2,0,.2,0,.2,0,.3,0,.4.2.1.1.2.2.2.4v10.5c0,.2,0,.3-.2.4s-.2.2-.4.2h-.2c0,0,0,.3,0,.3,0,.2,0,.2.2.2h3.8c.2,0,.2,0,.2-.2v-.2c0,0-.2,0-.2,0-.2,0-.3,0-.4-.2s-.2-.2-.2-.4v-5h1.7c.2,0,.3,0,.4.2s.2.2.2.4,0,.2.2.2.2,0,.2-.2v-1.9c0,0-.2,0-.2,0h-.2c0,0,0,.3,0,.3,0,.2,0,.3-.2.4-.1.1-.3.2-.4.2h-1.7v-5.5h3.1,0Z"/>
    <path d="M160.2,97.8c-.6.3-1.2.7-1.7,1.2l2.2-5.3,1.5,3.6c-.7,0-1.4.3-2,.6M163.8,102.2h-.2c0,0,0,.3,0,.3v.2c0,0,.3,0,.3,0h3.9c.2,0,.2,0,.2-.2v-.2c0,0-.2,0-.2,0-.2,0-.4,0-.6-.2s-.3-.3-.4-.5l-4.7-11.3h0c0,0,0-.1,0-.1h0s-.1,0-.1,0h-.1s0,0,0,0h0c0,0-4.7,11.4-4.7,11.4,0,.2-.2.3-.4.5-.2.1-.4.2-.6.2h-.2c0,0,0,.3,0,.3,0,.2,0,.2.2.2h1.9c0,0,0-.2,0-.2v-.2c0,0-.3,0-.3,0h-.1s-.1-.1-.1-.1c0,0,0-.2,0-.4l.2-.6c.4-1,1.1-1.7,1.9-2.3.9-.6,1.8-.9,2.9-1l1.6,3.9c0,.2,0,.3,0,.4,0,0-.1.1-.2.1"/>
    <path d="M172.5,90.6h3c.3,0,.5.1.7.3.2.2.4.5.6.9.2.4.3.8.4,1.3.1.5.1,1,.1,1.5s0,1.1-.1,1.6c-.1.5-.2.9-.4,1.3-.4.8-.8,1.2-1.3,1.2h-3v-8.2h0ZM175.2,99.2l2.1,3.4c0,0,.1.1.2.1h3.5c0,0,0-.2,0-.2v-.2c0,0-.3,0-.3,0-.2,0-.4,0-.6-.2-.2-.1-.4-.3-.5-.5l-1.9-3c.7-.4,1.2-1,1.5-1.7.4-.7.6-1.4.6-2.2s-.1-1.2-.4-1.8c-.2-.6-.6-1-1-1.5s-.9-.7-1.4-1c-.5-.2-1.1-.4-1.8-.4h-6.2c-.2,0-.2,0-.2.3v.2c0,0,.2,0,.2,0,.2,0,.3,0,.4.2.1.1.2.2.2.4v10.5c0,.2,0,.3-.2.4s-.2.2-.4.2h-.2c0,0,0,.3,0,.3,0,.2,0,.2.2.2h3.8c.2,0,.2,0,.2-.2v-.2c0,0-.2,0-.2,0-.2,0-.3,0-.4-.2-.1-.1-.2-.2-.2-.4v-2.4h2.8Z"/>
    <path d="M188.8,90.6c.4,0,.7,0,1,.2s.6.3.8.6c.2.2.4.5.6.8.1.3.2.7.2,1v.2c0,0,.3,0,.3,0,.2,0,.2,0,.2-.2v-2.9c0-.2,0-.2-.2-.2h-9.2c-.2,0-.2,0-.2.2v.2c0,0,.2,0,.2,0,.2,0,.3,0,.4.2s.2.2.2.4v10.5c0,.2,0,.3-.2.4s-.2.2-.4.2h-.2c0,0,0,.3,0,.3,0,.2,0,.2.2.2h9.2c.2,0,.2,0,.2-.2v-2.9c0-.2,0-.2-.2-.2h-.2c0,0,0,.2,0,.2,0,.4,0,.7-.2,1-.1.3-.3.6-.6.8s-.5.4-.8.6c-.3.1-.7.2-1,.2h-3.1v-5.6h1.7c.2,0,.3,0,.4.2s.2.2.2.4,0,.2.2.2.2,0,.2-.2v-1.9c0,0-.2,0-.2,0h-.2c0,0,0,.3,0,.3,0,.2,0,.3-.2.4-.1.1-.3.2-.4.2h-1.7v-5.5h3.1Z"/>
    <path d="M201.2,96.8c-.2-.3-.5-.6-.9-.8s-.7-.4-1.1-.5l-3-.8c-.5-.2-.8-.4-1.1-.8s-.4-.8-.4-1.3,0-.6.2-.8c.1-.3.3-.5.5-.7s.4-.3.7-.5c.3-.1.5-.2.8-.2h.6c.4,0,.9,0,1.2.2.4.2.7.4,1,.7.3.3.5.6.7,1s.2.8.2,1.3,0,.2.2.2.2,0,.2-.2v-3.4c0-.2,0-.2-.2-.2s-.2,0-.2.2v.3c0,.1,0,.2-.1.3,0,0-.2.1-.3.1s-.2,0-.3-.1h0c-.3-.3-.7-.6-1.1-.7-.4-.2-.9-.3-1.4-.3h-.6c-.5,0-1,0-1.4.3-.4.2-.8.5-1.2.8-.3.3-.6.7-.8,1.2s-.3.9-.3,1.5,0,.8.2,1.2c.1.4.3.7.6,1.1.2.3.5.6.9.8.3.2.7.4,1.1.5l3,.8c.4.1.8.4,1.1.8s.4.8.4,1.3,0,.6-.2.8c-.1.3-.3.5-.5.7-.2.2-.4.3-.7.5s-.5.2-.8.2h-1.4c-.4,0-.9,0-1.2-.2-.4-.2-.7-.4-1-.7-.3-.3-.5-.6-.7-1s-.2-.8-.2-1.3v-.2c0,0-.3,0-.3,0-.2,0-.2,0-.2.2v3.4c0,.2,0,.2.2.2h.2c0,0,0-.2,0-.2v-.3c0-.1,0-.2.1-.3s.2-.1.3-.1.2,0,.3.1h0c.3.3.7.6,1.1.7.4.2.9.3,1.4.3h1.4c.5,0,1,0,1.4-.3.4-.2.8-.5,1.2-.8.3-.3.6-.7.8-1.2s.3-.9.3-1.5,0-.8-.2-1.2c-.1-.4-.3-.7-.6-1.1"/>
    <path d="M214.2,97.8c-.6.3-1.2.7-1.7,1.2l2.2-5.3,1.5,3.6c-.7,0-1.4.3-2,.6M218,101.7c0,.2,0,.3,0,.4,0,0-.1.1-.2.1h-.2c0,0,0,.3,0,.3v.2c0,0,.3,0,.3,0h3.9c.2,0,.2,0,.2-.2v-.2c0,0-.2,0-.2,0-.2,0-.4,0-.6-.2s-.3-.3-.4-.5l-4.7-11.3h0c0,0,0-.1,0-.1h0s-.1,0-.1,0h-.1s0,0,0,0h0c0,0-4.7,11.4-4.7,11.4,0,.2-.2.3-.4.5-.2.1-.4.2-.6.2h-.2c0,0,0,.3,0,.3,0,.2,0,.2.2.2h1.9c0,0,0-.2,0-.2v-.2c0,0-.3,0-.3,0h-.1s-.1-.1-.1-.1c0,0,0-.2,0-.4l.2-.6c.4-1,1.1-1.7,1.9-2.3.9-.6,1.8-.9,2.9-1l1.6,3.9h0Z"/>
    <path d="M223.7,102c-.1.1-.2.2-.4.2h-.2c0,0,0,.3,0,.3,0,.2,0,.2.2.2h9.2c.2,0,.2,0,.2-.2v-2.9c0-.2,0-.2-.2-.2h-.2c0,0,0,.2,0,.2,0,.4,0,.7-.2,1-.1.3-.3.6-.6.8s-.5.4-.8.6c-.3.1-.7.2-1,.2h-3.1v-11.1c0-.2,0-.3.2-.4s.2-.2.4-.2h.2c0,0,0-.3,0-.3,0-.2,0-.2-.2-.2h-3.8c-.2,0-.2,0-.2.2v.2c0,0,.2,0,.2,0,.2,0,.3,0,.4.2s.2.2.2.4v10.5c0,.2,0,.3-.2.4"/>
    <path d="M243.9,90.6h2.2c.5,0,1,.2,1.4.5s.8.7,1.2,1.2c.3.5.6,1.1.8,1.8.2.7.3,1.5.3,2.3s-.1,1.6-.3,2.2c-.2.7-.5,1.3-.8,1.8-.3.5-.7.9-1.2,1.2s-.9.5-1.4.5h-2.2v-11.6ZM241.1,102c-.1.1-.2.2-.4.2h-.2c0,0,0,.3,0,.3,0,.2,0,.2.2.2h5.4c.9,0,1.7-.2,2.4-.5.8-.3,1.4-.8,2-1.4s1-1.2,1.4-2,.5-1.6.5-2.5-.2-1.7-.5-2.5-.8-1.4-1.4-2-1.2-1-2-1.4c-.8-.3-1.6-.5-2.4-.5h-5.4c-.2,0-.2,0-.2.3v.2c0,0,.2,0,.2,0,.2,0,.3,0,.4.2s.2.2.2.4v10.5c0,.2,0,.3-.2.4"/>
    <path d="M255.6,97.8c-.6.3-1.2.7-1.7,1.2l2.2-5.3,1.5,3.6c-.7,0-1.4.3-2,.6M259.2,102.2h-.2c0,0,0,.3,0,.3v.2c0,0,.3,0,.3,0h3.9c.2,0,.2,0,.2-.2v-.2c0,0-.2,0-.2,0-.2,0-.4,0-.5-.2s-.3-.3-.4-.5l-4.7-11.3h0c0,0,0-.1,0-.1h0s-.1,0-.1,0h-.1s0,0,0,0h0c0,0-4.7,11.4-4.7,11.4,0,.2-.2.3-.4.5-.2.1-.4.2-.6.2h-.2c0,0,0,.3,0,.3,0,.2,0,.2.2.2h1.9c0,0,0-.2,0-.2v-.2c0,0-.3,0-.3,0h-.1s-.1-.1-.1-.1c0,0,0-.2,0-.4l.2-.6c.4-1,1.1-1.7,1.9-2.3.9-.6,1.8-.9,2.9-1l1.6,3.9c0,.2,0,.3,0,.4,0,0-.1.1-.2.1"/>
    <path d="M275.4,90.7c.1-.1.2-.2.4-.2h.2c0,0,0-.3,0-.3v-.2c0,0-.3,0-.3,0h-3.9c0,0,0,.2,0,.2v.2c0,0,.3,0,.3,0,.2,0,.3,0,.4.2.1.1.2.2.2.4v5h-4.8v-5c0-.2,0-.3.2-.4.1-.1.2-.2.4-.2h.2c0,0,0-.3,0-.3,0-.2,0-.2-.2-.2h-3.8c-.2,0-.2,0-.2.2v.2c0,0,.2,0,.2,0,.2,0,.3,0,.4.2.1.1.2.2.2.4v10.5c0,.2,0,.3-.2.4-.1.1-.2.2-.4.2h-.2c0,0,0,.3,0,.3,0,.2,0,.2.2.2h3.8c.2,0,.2,0,.2-.2v-.2c0,0-.2,0-.2,0-.2,0-.3,0-.4-.2-.1-.1-.2-.2-.2-.4v-5h4.8v5c0,.2,0,.3-.2.4-.1.1-.2.2-.4.2h-.2c0,0,0,.3,0,.3v.2c0,0,.3,0,.3,0h3.9c0,0,0-.2,0-.2v-.2c0,0-.3,0-.3,0-.2,0-.3,0-.4-.2s-.2-.2-.2-.4v-10.5c0-.2,0-.3.2-.4"/>
    <path d="M281.6,97.8c-.6.3-1.2.7-1.7,1.2l2.2-5.3,1.5,3.6c-.7,0-1.4.3-2,.6M289.4,102.4v-.2c0,0-.2,0-.2,0-.2,0-.4,0-.5-.2s-.3-.3-.4-.5l-4.7-11.3h0c0,0,0-.1,0-.1h0s-.1,0-.1,0h-.1s0,0,0,0h0c0,0-4.7,11.4-4.7,11.4,0,.2-.2.3-.4.5-.2.1-.4.2-.5.2h-.2c0,0,0,.3,0,.3,0,.2,0,.2.2.2h1.9c0,0,0-.2,0-.2v-.2c0,0-.3,0-.3,0h-.1s-.1-.1-.1-.1c0,0,0-.2,0-.4l.2-.6c.4-1,1.1-1.7,1.9-2.3.9-.6,1.8-.9,2.9-1l1.6,3.9c0,.2,0,.3,0,.4,0,0-.1.1-.2.1h-.2c0,0,0,.3,0,.3v.2c0,0,.3,0,.3,0h3.9c.2,0,.2,0,.2-.2"/>
    <path d="M298.7,100.6c0,.3-.1.6-.2.9s-.1.4-.2.5c0,.1-.1.2-.2.2h-4.2v-5.6h4.2s.1,0,.2.2c0,.1.1.3.2.5,0,.2.1.5.2.9,0,.3,0,.8,0,1.2s0,.9,0,1.2M294,90.6h3.5s.1,0,.2.2c0,.1.1.3.2.5,0,.2.1.5.2.9,0,.3,0,.8,0,1.2s0,.9,0,1.2c0,.3-.1.6-.2.9,0,.2-.1.4-.2.5,0,.1-.1.2-.2.2h-3.5v-5.6h0ZM300,96.7c-.3-.2-.6-.4-1-.4.5-.3.9-.7,1.2-1.2.3-.5.5-1.1.5-1.7s0-.9-.2-1.3-.4-.7-.7-1c-.3-.3-.6-.5-1-.7s-.8-.3-1.3-.3h-6.7c-.2,0-.2,0-.2.2v.2c0,0,.2,0,.2,0,.2,0,.3,0,.4.2.1.1.2.2.2.4v10.5c0,.2,0,.3-.2.4-.1.1-.2.2-.4.2h-.2c0,0,0,.3,0,.3,0,.2,0,.2.2.2h7.4c.5,0,.9,0,1.3-.3.4-.2.7-.4,1-.7.3-.3.5-.7.7-1.1s.3-.8.3-1.3,0-.7-.2-1.1-.3-.7-.5-.9c-.2-.3-.5-.5-.7-.7"/>
    <path d="M305.8,102.2c-.2,0-.3,0-.4-.2-.1-.1-.2-.2-.2-.4v-10.5c0-.2,0-.3.2-.4s.2-.2.4-.2h.2c0,0,0-.3,0-.3,0-.2,0-.2-.2-.2h-3.8c-.2,0-.2,0-.2.2v.2c0,0,.2,0,.2,0,.2,0,.3,0,.4.2.1.1.2.2.2.4v10.5c0,.2,0,.3-.2.4-.1.1-.2.2-.4.2h-.2c0,0,0,.3,0,.3,0,.2,0,.2.2.2h3.8c.2,0,.2,0,.2-.2v-.2c0,0-.2,0-.2,0Z"/>
  </g>
  <g class="st7">
    <text class="st8" transform="translate(213.1 623.7)"><tspan x="0" y="0" xml:space="preserve">                               </tspan></text>
  </g>
  <g class="st1">
    <rect class="st5" x="32" y="183.2" width="519.6" height=".7"/>
  </g>
</svg>